%TF.GenerationSoftware,KiCad,Pcbnew,(5.1.7)-1*%
%TF.CreationDate,2021-05-19T11:45:42-05:00*%
%TF.ProjectId,FOURSES ARPSERGE,464f5552-5345-4532-9041-525053455247,rev?*%
%TF.SameCoordinates,Original*%
%TF.FileFunction,Soldermask,Top*%
%TF.FilePolarity,Negative*%
%FSLAX46Y46*%
G04 Gerber Fmt 4.6, Leading zero omitted, Abs format (unit mm)*
G04 Created by KiCad (PCBNEW (5.1.7)-1) date 2021-05-19 11:45:42*
%MOMM*%
%LPD*%
G01*
G04 APERTURE LIST*
%ADD10C,3.200000*%
%ADD11C,1.500000*%
%ADD12C,0.100000*%
%ADD13C,1.600000*%
%ADD14C,5.800000*%
%ADD15C,5.900000*%
%ADD16C,1.800000*%
%ADD17C,3.240000*%
%ADD18C,3.524001*%
G04 APERTURE END LIST*
D10*
%TO.C,REF\u002A\u002A*%
X76070000Y-38460000D03*
%TD*%
%TO.C,REF\u002A\u002A*%
X206120000Y-38460000D03*
%TD*%
%TO.C,REF\u002A\u002A*%
X206120000Y-172570000D03*
%TD*%
%TO.C,REF\u002A\u002A*%
X76060000Y-172570000D03*
%TD*%
D11*
%TO.C,REF\u002A\u002A*%
X162139592Y-90797588D03*
X163839183Y-92685176D03*
D12*
G36*
X160384489Y-89969207D02*
G01*
X159380793Y-88854489D01*
X160495511Y-87850793D01*
X161499207Y-88965511D01*
X160384489Y-89969207D01*
G37*
%TD*%
D13*
%TO.C,REF\u002A\u002A*%
X97330000Y-102060000D03*
G36*
G01*
X102847495Y-98051304D02*
X102847495Y-98051304D01*
G75*
G02*
X103024481Y-96933862I647214J470228D01*
G01*
X103024481Y-96933862D01*
G75*
G02*
X104141923Y-97110848I470228J-647214D01*
G01*
X104141923Y-97110848D01*
G75*
G02*
X103964937Y-98228290I-647214J-470228D01*
G01*
X103964937Y-98228290D01*
G75*
G02*
X102847495Y-98051304I-470228J647214D01*
G01*
G37*
%TD*%
%TO.C,REF\u002A\u002A*%
X132460000Y-72510000D03*
G36*
G01*
X135014817Y-66186606D02*
X135014817Y-66186606D01*
G75*
G02*
X134572755Y-65145174I299685J741747D01*
G01*
X134572755Y-65145174D01*
G75*
G02*
X135614187Y-64703112I741747J-299685D01*
G01*
X135614187Y-64703112D01*
G75*
G02*
X136056249Y-65744544I-299685J-741747D01*
G01*
X136056249Y-65744544D01*
G75*
G02*
X135014817Y-66186606I-741747J299685D01*
G01*
G37*
%TD*%
%TO.C,REF\u002A\u002A*%
G36*
G01*
X148978961Y-46859025D02*
X148978961Y-46859025D01*
G75*
G02*
X149792801Y-46073109I799878J-13962D01*
G01*
X149792801Y-46073109D01*
G75*
G02*
X150578717Y-46886949I-13962J-799878D01*
G01*
X150578717Y-46886949D01*
G75*
G02*
X149764877Y-47672865I-799878J13962D01*
G01*
X149764877Y-47672865D01*
G75*
G02*
X148978961Y-46859025I13962J799878D01*
G01*
G37*
X142160000Y-46740000D03*
%TD*%
%TO.C,REF\u002A\u002A*%
G36*
G01*
X164139776Y-51960309D02*
X164139776Y-51960309D01*
G75*
G02*
X164508114Y-50890577I719035J350697D01*
G01*
X164508114Y-50890577D01*
G75*
G02*
X165577846Y-51258915I350697J-719035D01*
G01*
X165577846Y-51258915D01*
G75*
G02*
X165209508Y-52328647I-719035J-350697D01*
G01*
X165209508Y-52328647D01*
G75*
G02*
X164139776Y-51960309I-350697J719035D01*
G01*
G37*
X158010000Y-54950000D03*
%TD*%
%TO.C,REF\u002A\u002A*%
G36*
G01*
X102496606Y-109525183D02*
X102496606Y-109525183D01*
G75*
G02*
X101455174Y-109967245I-741747J299685D01*
G01*
X101455174Y-109967245D01*
G75*
G02*
X101013112Y-108925813I299685J741747D01*
G01*
X101013112Y-108925813D01*
G75*
G02*
X102054544Y-108483751I741747J-299685D01*
G01*
X102054544Y-108483751D01*
G75*
G02*
X102496606Y-109525183I-299685J-741747D01*
G01*
G37*
X108820000Y-112080000D03*
%TD*%
D11*
%TO.C,REF\u002A\u002A*%
X113714719Y-84986500D03*
X111199438Y-84633001D03*
D12*
G36*
X115591679Y-84492919D02*
G01*
X117077081Y-84701679D01*
X116868321Y-86187081D01*
X115382919Y-85978321D01*
X115591679Y-84492919D01*
G37*
%TD*%
D14*
%TO.C,REF\u002A\u002A*%
X77110000Y-73440000D03*
%TD*%
D15*
%TO.C,REF\u002A\u002A*%
X145330000Y-170790000D03*
%TD*%
D11*
%TO.C,REF\u002A\u002A*%
X155656548Y-135612600D03*
X153203097Y-134955199D03*
D12*
G36*
X157579670Y-135351441D02*
G01*
X159028559Y-135739670D01*
X158640330Y-137188559D01*
X157191441Y-136800330D01*
X157579670Y-135351441D01*
G37*
%TD*%
%TO.C,REF\u002A\u002A*%
G36*
G01*
X106972386Y-67514854D02*
X106972386Y-67514854D01*
G75*
G02*
X105992590Y-68080540I-772741J207055D01*
G01*
X105992590Y-68080540D01*
G75*
G02*
X105426904Y-67100744I207055J772741D01*
G01*
X105426904Y-67100744D01*
G75*
G02*
X106406700Y-66535058I772741J-207055D01*
G01*
X106406700Y-66535058D01*
G75*
G02*
X106972386Y-67514854I-207055J-772741D01*
G01*
G37*
D13*
X113560000Y-69280000D03*
%TD*%
%TO.C,REF\u002A\u002A*%
G36*
G01*
X180572168Y-73358771D02*
X180572168Y-73358771D01*
G75*
G02*
X179441486Y-73398255I-585083J545599D01*
G01*
X179441486Y-73398255D01*
G75*
G02*
X179402002Y-72267573I545599J585083D01*
G01*
X179402002Y-72267573D01*
G75*
G02*
X180532684Y-72228089I585083J-545599D01*
G01*
X180532684Y-72228089D01*
G75*
G02*
X180572168Y-73358771I-545599J-585083D01*
G01*
G37*
X185560000Y-78010000D03*
%TD*%
D15*
%TO.C,REF\u002A\u002A*%
X148760000Y-40210000D03*
%TD*%
D11*
%TO.C,REF\u002A\u002A*%
X166012687Y-144257542D03*
X168255374Y-143065084D03*
D12*
G36*
X164784314Y-145760107D02*
G01*
X163459893Y-146464314D01*
X162755686Y-145139893D01*
X164080107Y-144435686D01*
X164784314Y-145760107D01*
G37*
%TD*%
D15*
%TO.C,REF\u002A\u002A*%
X125210000Y-40210000D03*
%TD*%
%TO.C,REF\u002A\u002A*%
X183260000Y-40210000D03*
%TD*%
D13*
%TO.C,REF\u002A\u002A*%
X185960000Y-56890000D03*
G36*
G01*
X180272899Y-53125790D02*
X180272899Y-53125790D01*
G75*
G02*
X179164240Y-53351349I-667109J441550D01*
G01*
X179164240Y-53351349D01*
G75*
G02*
X178938681Y-52242690I441550J667109D01*
G01*
X178938681Y-52242690D01*
G75*
G02*
X180047340Y-52017131I667109J-441550D01*
G01*
X180047340Y-52017131D01*
G75*
G02*
X180272899Y-53125790I-441550J-667109D01*
G01*
G37*
%TD*%
D15*
%TO.C,REF\u002A\u002A*%
X204930000Y-76810000D03*
%TD*%
D12*
%TO.C,REF\u002A\u002A*%
G36*
X181188629Y-136570000D02*
G01*
X182320000Y-135438629D01*
X183451371Y-136570000D01*
X182320000Y-137701371D01*
X181188629Y-136570000D01*
G37*
G36*
G01*
X176366161Y-152168776D02*
X176366161Y-152168776D01*
G75*
G02*
X177497531Y-152168776I565685J-565685D01*
G01*
X177497531Y-152168776D01*
G75*
G02*
X177497531Y-153300146I-565685J-565685D01*
G01*
X177497531Y-153300146D01*
G75*
G02*
X176366161Y-153300146I-565685J565685D01*
G01*
X176366161Y-153300146D01*
G75*
G02*
X176366161Y-152168776I565685J565685D01*
G01*
G37*
G36*
G01*
X179958264Y-137800366D02*
X179958264Y-137800366D01*
G75*
G02*
X181089634Y-137800366I565685J-565685D01*
G01*
X181089634Y-137800366D01*
G75*
G02*
X181089634Y-138931736I-565685J-565685D01*
G01*
X181089634Y-138931736D01*
G75*
G02*
X179958264Y-138931736I-565685J565685D01*
G01*
X179958264Y-138931736D01*
G75*
G02*
X179958264Y-137800366I565685J565685D01*
G01*
G37*
G36*
G01*
X178162213Y-150372725D02*
X178162213Y-150372725D01*
G75*
G02*
X179293583Y-150372725I565685J-565685D01*
G01*
X179293583Y-150372725D01*
G75*
G02*
X179293583Y-151504095I-565685J-565685D01*
G01*
X179293583Y-151504095D01*
G75*
G02*
X178162213Y-151504095I-565685J565685D01*
G01*
X178162213Y-151504095D01*
G75*
G02*
X178162213Y-150372725I565685J565685D01*
G01*
G37*
G36*
G01*
X178162213Y-139596417D02*
X178162213Y-139596417D01*
G75*
G02*
X179293583Y-139596417I565685J-565685D01*
G01*
X179293583Y-139596417D01*
G75*
G02*
X179293583Y-140727787I-565685J-565685D01*
G01*
X179293583Y-140727787D01*
G75*
G02*
X178162213Y-140727787I-565685J565685D01*
G01*
X178162213Y-140727787D01*
G75*
G02*
X178162213Y-139596417I565685J565685D01*
G01*
G37*
G36*
G01*
X179958264Y-148576674D02*
X179958264Y-148576674D01*
G75*
G02*
X181089634Y-148576674I565685J-565685D01*
G01*
X181089634Y-148576674D01*
G75*
G02*
X181089634Y-149708044I-565685J-565685D01*
G01*
X181089634Y-149708044D01*
G75*
G02*
X179958264Y-149708044I-565685J565685D01*
G01*
X179958264Y-149708044D01*
G75*
G02*
X179958264Y-148576674I565685J565685D01*
G01*
G37*
G36*
G01*
X176366161Y-141392469D02*
X176366161Y-141392469D01*
G75*
G02*
X177497531Y-141392469I565685J-565685D01*
G01*
X177497531Y-141392469D01*
G75*
G02*
X177497531Y-142523839I-565685J-565685D01*
G01*
X177497531Y-142523839D01*
G75*
G02*
X176366161Y-142523839I-565685J565685D01*
G01*
X176366161Y-142523839D01*
G75*
G02*
X176366161Y-141392469I565685J565685D01*
G01*
G37*
G36*
G01*
X181754315Y-146780622D02*
X181754315Y-146780622D01*
G75*
G02*
X182885685Y-146780622I565685J-565685D01*
G01*
X182885685Y-146780622D01*
G75*
G02*
X182885685Y-147911992I-565685J-565685D01*
G01*
X182885685Y-147911992D01*
G75*
G02*
X181754315Y-147911992I-565685J565685D01*
G01*
X181754315Y-147911992D01*
G75*
G02*
X181754315Y-146780622I565685J565685D01*
G01*
G37*
G36*
G01*
X174570110Y-143188520D02*
X174570110Y-143188520D01*
G75*
G02*
X175701480Y-143188520I565685J-565685D01*
G01*
X175701480Y-143188520D01*
G75*
G02*
X175701480Y-144319890I-565685J-565685D01*
G01*
X175701480Y-144319890D01*
G75*
G02*
X174570110Y-144319890I-565685J565685D01*
G01*
X174570110Y-144319890D01*
G75*
G02*
X174570110Y-143188520I565685J565685D01*
G01*
G37*
G36*
G01*
X183550366Y-144984571D02*
X183550366Y-144984571D01*
G75*
G02*
X184681736Y-144984571I565685J-565685D01*
G01*
X184681736Y-144984571D01*
G75*
G02*
X184681736Y-146115941I-565685J-565685D01*
G01*
X184681736Y-146115941D01*
G75*
G02*
X183550366Y-146115941I-565685J565685D01*
G01*
X183550366Y-146115941D01*
G75*
G02*
X183550366Y-144984571I565685J565685D01*
G01*
G37*
G36*
G01*
X172774059Y-144984571D02*
X172774059Y-144984571D01*
G75*
G02*
X173905429Y-144984571I565685J-565685D01*
G01*
X173905429Y-144984571D01*
G75*
G02*
X173905429Y-146115941I-565685J-565685D01*
G01*
X173905429Y-146115941D01*
G75*
G02*
X172774059Y-146115941I-565685J565685D01*
G01*
X172774059Y-146115941D01*
G75*
G02*
X172774059Y-144984571I565685J565685D01*
G01*
G37*
G36*
G01*
X185346417Y-143188520D02*
X185346417Y-143188520D01*
G75*
G02*
X186477787Y-143188520I565685J-565685D01*
G01*
X186477787Y-143188520D01*
G75*
G02*
X186477787Y-144319890I-565685J-565685D01*
G01*
X186477787Y-144319890D01*
G75*
G02*
X185346417Y-144319890I-565685J565685D01*
G01*
X185346417Y-144319890D01*
G75*
G02*
X185346417Y-143188520I565685J565685D01*
G01*
G37*
G36*
G01*
X170978008Y-146780622D02*
X170978008Y-146780622D01*
G75*
G02*
X172109378Y-146780622I565685J-565685D01*
G01*
X172109378Y-146780622D01*
G75*
G02*
X172109378Y-147911992I-565685J-565685D01*
G01*
X172109378Y-147911992D01*
G75*
G02*
X170978008Y-147911992I-565685J565685D01*
G01*
X170978008Y-147911992D01*
G75*
G02*
X170978008Y-146780622I565685J565685D01*
G01*
G37*
G36*
G01*
X187142469Y-141392469D02*
X187142469Y-141392469D01*
G75*
G02*
X188273839Y-141392469I565685J-565685D01*
G01*
X188273839Y-141392469D01*
G75*
G02*
X188273839Y-142523839I-565685J-565685D01*
G01*
X188273839Y-142523839D01*
G75*
G02*
X187142469Y-142523839I-565685J565685D01*
G01*
X187142469Y-142523839D01*
G75*
G02*
X187142469Y-141392469I565685J565685D01*
G01*
G37*
%TD*%
D15*
%TO.C,REF\u002A\u002A*%
X204930000Y-53810000D03*
%TD*%
D13*
%TO.C,REF\u002A\u002A*%
X106170000Y-53990000D03*
G36*
G01*
X102555950Y-48206312D02*
X102555950Y-48206312D01*
G75*
G02*
X101453577Y-47951809I-423935J678438D01*
G01*
X101453577Y-47951809D01*
G75*
G02*
X101708080Y-46849436I678438J423935D01*
G01*
X101708080Y-46849436D01*
G75*
G02*
X102810453Y-47103939I423935J-678438D01*
G01*
X102810453Y-47103939D01*
G75*
G02*
X102555950Y-48206312I-678438J-423935D01*
G01*
G37*
%TD*%
%TO.C,REF\u002A\u002A*%
G36*
G01*
X102987531Y-150942469D02*
X102987531Y-150942469D01*
G75*
G02*
X102987531Y-152073839I-565685J-565685D01*
G01*
X102987531Y-152073839D01*
G75*
G02*
X101856161Y-152073839I-565685J565685D01*
G01*
X101856161Y-152073839D01*
G75*
G02*
X101856161Y-150942469I565685J565685D01*
G01*
X101856161Y-150942469D01*
G75*
G02*
X102987531Y-150942469I565685J-565685D01*
G01*
G37*
G36*
G01*
X97599378Y-134778008D02*
X97599378Y-134778008D01*
G75*
G02*
X97599378Y-135909378I-565685J-565685D01*
G01*
X97599378Y-135909378D01*
G75*
G02*
X96468008Y-135909378I-565685J565685D01*
G01*
X96468008Y-135909378D01*
G75*
G02*
X96468008Y-134778008I565685J565685D01*
G01*
X96468008Y-134778008D01*
G75*
G02*
X97599378Y-134778008I565685J-565685D01*
G01*
G37*
G36*
G01*
X101191480Y-149146417D02*
X101191480Y-149146417D01*
G75*
G02*
X101191480Y-150277787I-565685J-565685D01*
G01*
X101191480Y-150277787D01*
G75*
G02*
X100060110Y-150277787I-565685J565685D01*
G01*
X100060110Y-150277787D01*
G75*
G02*
X100060110Y-149146417I565685J565685D01*
G01*
X100060110Y-149146417D01*
G75*
G02*
X101191480Y-149146417I565685J-565685D01*
G01*
G37*
G36*
G01*
X99395429Y-136574059D02*
X99395429Y-136574059D01*
G75*
G02*
X99395429Y-137705429I-565685J-565685D01*
G01*
X99395429Y-137705429D01*
G75*
G02*
X98264059Y-137705429I-565685J565685D01*
G01*
X98264059Y-137705429D01*
G75*
G02*
X98264059Y-136574059I565685J565685D01*
G01*
X98264059Y-136574059D01*
G75*
G02*
X99395429Y-136574059I565685J-565685D01*
G01*
G37*
G36*
G01*
X99395429Y-147350366D02*
X99395429Y-147350366D01*
G75*
G02*
X99395429Y-148481736I-565685J-565685D01*
G01*
X99395429Y-148481736D01*
G75*
G02*
X98264059Y-148481736I-565685J565685D01*
G01*
X98264059Y-148481736D01*
G75*
G02*
X98264059Y-147350366I565685J565685D01*
G01*
X98264059Y-147350366D01*
G75*
G02*
X99395429Y-147350366I565685J-565685D01*
G01*
G37*
G36*
G01*
X101191480Y-138370110D02*
X101191480Y-138370110D01*
G75*
G02*
X101191480Y-139501480I-565685J-565685D01*
G01*
X101191480Y-139501480D01*
G75*
G02*
X100060110Y-139501480I-565685J565685D01*
G01*
X100060110Y-139501480D01*
G75*
G02*
X100060110Y-138370110I565685J565685D01*
G01*
X100060110Y-138370110D01*
G75*
G02*
X101191480Y-138370110I565685J-565685D01*
G01*
G37*
G36*
G01*
X97599378Y-145554315D02*
X97599378Y-145554315D01*
G75*
G02*
X97599378Y-146685685I-565685J-565685D01*
G01*
X97599378Y-146685685D01*
G75*
G02*
X96468008Y-146685685I-565685J565685D01*
G01*
X96468008Y-146685685D01*
G75*
G02*
X96468008Y-145554315I565685J565685D01*
G01*
X96468008Y-145554315D01*
G75*
G02*
X97599378Y-145554315I565685J-565685D01*
G01*
G37*
G36*
G01*
X102987531Y-140166161D02*
X102987531Y-140166161D01*
G75*
G02*
X102987531Y-141297531I-565685J-565685D01*
G01*
X102987531Y-141297531D01*
G75*
G02*
X101856161Y-141297531I-565685J565685D01*
G01*
X101856161Y-141297531D01*
G75*
G02*
X101856161Y-140166161I565685J565685D01*
G01*
X101856161Y-140166161D01*
G75*
G02*
X102987531Y-140166161I565685J-565685D01*
G01*
G37*
G36*
G01*
X95803326Y-143758264D02*
X95803326Y-143758264D01*
G75*
G02*
X95803326Y-144889634I-565685J-565685D01*
G01*
X95803326Y-144889634D01*
G75*
G02*
X94671956Y-144889634I-565685J565685D01*
G01*
X94671956Y-144889634D01*
G75*
G02*
X94671956Y-143758264I565685J565685D01*
G01*
X94671956Y-143758264D01*
G75*
G02*
X95803326Y-143758264I565685J-565685D01*
G01*
G37*
G36*
G01*
X104783583Y-141962213D02*
X104783583Y-141962213D01*
G75*
G02*
X104783583Y-143093583I-565685J-565685D01*
G01*
X104783583Y-143093583D01*
G75*
G02*
X103652213Y-143093583I-565685J565685D01*
G01*
X103652213Y-143093583D01*
G75*
G02*
X103652213Y-141962213I565685J565685D01*
G01*
X103652213Y-141962213D01*
G75*
G02*
X104783583Y-141962213I565685J-565685D01*
G01*
G37*
G36*
G01*
X94007275Y-141962213D02*
X94007275Y-141962213D01*
G75*
G02*
X94007275Y-143093583I-565685J-565685D01*
G01*
X94007275Y-143093583D01*
G75*
G02*
X92875905Y-143093583I-565685J565685D01*
G01*
X92875905Y-143093583D01*
G75*
G02*
X92875905Y-141962213I565685J565685D01*
G01*
X92875905Y-141962213D01*
G75*
G02*
X94007275Y-141962213I565685J-565685D01*
G01*
G37*
G36*
G01*
X106579634Y-143758264D02*
X106579634Y-143758264D01*
G75*
G02*
X106579634Y-144889634I-565685J-565685D01*
G01*
X106579634Y-144889634D01*
G75*
G02*
X105448264Y-144889634I-565685J565685D01*
G01*
X105448264Y-144889634D01*
G75*
G02*
X105448264Y-143758264I565685J565685D01*
G01*
X105448264Y-143758264D01*
G75*
G02*
X106579634Y-143758264I565685J-565685D01*
G01*
G37*
G36*
G01*
X92211224Y-140166161D02*
X92211224Y-140166161D01*
G75*
G02*
X92211224Y-141297531I-565685J-565685D01*
G01*
X92211224Y-141297531D01*
G75*
G02*
X91079854Y-141297531I-565685J565685D01*
G01*
X91079854Y-141297531D01*
G75*
G02*
X91079854Y-140166161I565685J565685D01*
G01*
X91079854Y-140166161D01*
G75*
G02*
X92211224Y-140166161I565685J-565685D01*
G01*
G37*
D12*
G36*
X107810000Y-144988629D02*
G01*
X108941371Y-146120000D01*
X107810000Y-147251371D01*
X106678629Y-146120000D01*
X107810000Y-144988629D01*
G37*
%TD*%
%TO.C,REF\u002A\u002A*%
G36*
X122954343Y-59324134D02*
G01*
X121355866Y-59254343D01*
X121425657Y-57655866D01*
X123024134Y-57725657D01*
X122954343Y-59324134D01*
G37*
G36*
G01*
X130100231Y-52008871D02*
X130100231Y-52008871D01*
G75*
G02*
X129335888Y-51174736I34896J799239D01*
G01*
X129335888Y-51174736D01*
G75*
G02*
X130170023Y-50410393I799239J-34896D01*
G01*
X130170023Y-50410393D01*
G75*
G02*
X130934366Y-51244528I-34896J-799239D01*
G01*
X130934366Y-51244528D01*
G75*
G02*
X130100231Y-52008871I-799239J34896D01*
G01*
G37*
G36*
G01*
X124692686Y-59400032D02*
X124692686Y-59400032D01*
G75*
G02*
X123928343Y-58565897I34896J799239D01*
G01*
X123928343Y-58565897D01*
G75*
G02*
X124762478Y-57801554I799239J-34896D01*
G01*
X124762478Y-57801554D01*
G75*
G02*
X125526821Y-58635689I-34896J-799239D01*
G01*
X125526821Y-58635689D01*
G75*
G02*
X124692686Y-59400032I-799239J34896D01*
G01*
G37*
G36*
G01*
X127562649Y-51898078D02*
X127562649Y-51898078D01*
G75*
G02*
X126798306Y-51063943I34896J799239D01*
G01*
X126798306Y-51063943D01*
G75*
G02*
X127632441Y-50299600I799239J-34896D01*
G01*
X127632441Y-50299600D01*
G75*
G02*
X128396784Y-51133735I-34896J-799239D01*
G01*
X128396784Y-51133735D01*
G75*
G02*
X127562649Y-51898078I-799239J34896D01*
G01*
G37*
G36*
G01*
X127230269Y-59510825D02*
X127230269Y-59510825D01*
G75*
G02*
X126465926Y-58676690I34896J799239D01*
G01*
X126465926Y-58676690D01*
G75*
G02*
X127300061Y-57912347I799239J-34896D01*
G01*
X127300061Y-57912347D01*
G75*
G02*
X128064404Y-58746482I-34896J-799239D01*
G01*
X128064404Y-58746482D01*
G75*
G02*
X127230269Y-59510825I-799239J34896D01*
G01*
G37*
G36*
G01*
X125025066Y-51787285D02*
X125025066Y-51787285D01*
G75*
G02*
X124260723Y-50953150I34896J799239D01*
G01*
X124260723Y-50953150D01*
G75*
G02*
X125094858Y-50188807I799239J-34896D01*
G01*
X125094858Y-50188807D01*
G75*
G02*
X125859201Y-51022942I-34896J-799239D01*
G01*
X125859201Y-51022942D01*
G75*
G02*
X125025066Y-51787285I-799239J34896D01*
G01*
G37*
G36*
G01*
X129767851Y-59621619D02*
X129767851Y-59621619D01*
G75*
G02*
X129003508Y-58787484I34896J799239D01*
G01*
X129003508Y-58787484D01*
G75*
G02*
X129837643Y-58023141I799239J-34896D01*
G01*
X129837643Y-58023141D01*
G75*
G02*
X130601986Y-58857276I-34896J-799239D01*
G01*
X130601986Y-58857276D01*
G75*
G02*
X129767851Y-59621619I-799239J34896D01*
G01*
G37*
G36*
G01*
X122487484Y-51676492D02*
X122487484Y-51676492D01*
G75*
G02*
X121723141Y-50842357I34896J799239D01*
G01*
X121723141Y-50842357D01*
G75*
G02*
X122557276Y-50078014I799239J-34896D01*
G01*
X122557276Y-50078014D01*
G75*
G02*
X123321619Y-50912149I-34896J-799239D01*
G01*
X123321619Y-50912149D01*
G75*
G02*
X122487484Y-51676492I-799239J34896D01*
G01*
G37*
%TD*%
%TO.C,REF\u002A\u002A*%
G36*
X95554134Y-121515657D02*
G01*
X95484343Y-123114134D01*
X93885866Y-123044343D01*
X93955657Y-121445866D01*
X95554134Y-121515657D01*
G37*
G36*
G01*
X88238871Y-114369769D02*
X88238871Y-114369769D01*
G75*
G02*
X87404736Y-115134112I-799239J34896D01*
G01*
X87404736Y-115134112D01*
G75*
G02*
X86640393Y-114299977I34896J799239D01*
G01*
X86640393Y-114299977D01*
G75*
G02*
X87474528Y-113535634I799239J-34896D01*
G01*
X87474528Y-113535634D01*
G75*
G02*
X88238871Y-114369769I-34896J-799239D01*
G01*
G37*
G36*
G01*
X95630032Y-119777314D02*
X95630032Y-119777314D01*
G75*
G02*
X94795897Y-120541657I-799239J34896D01*
G01*
X94795897Y-120541657D01*
G75*
G02*
X94031554Y-119707522I34896J799239D01*
G01*
X94031554Y-119707522D01*
G75*
G02*
X94865689Y-118943179I799239J-34896D01*
G01*
X94865689Y-118943179D01*
G75*
G02*
X95630032Y-119777314I-34896J-799239D01*
G01*
G37*
G36*
G01*
X88128078Y-116907351D02*
X88128078Y-116907351D01*
G75*
G02*
X87293943Y-117671694I-799239J34896D01*
G01*
X87293943Y-117671694D01*
G75*
G02*
X86529600Y-116837559I34896J799239D01*
G01*
X86529600Y-116837559D01*
G75*
G02*
X87363735Y-116073216I799239J-34896D01*
G01*
X87363735Y-116073216D01*
G75*
G02*
X88128078Y-116907351I-34896J-799239D01*
G01*
G37*
G36*
G01*
X95740825Y-117239731D02*
X95740825Y-117239731D01*
G75*
G02*
X94906690Y-118004074I-799239J34896D01*
G01*
X94906690Y-118004074D01*
G75*
G02*
X94142347Y-117169939I34896J799239D01*
G01*
X94142347Y-117169939D01*
G75*
G02*
X94976482Y-116405596I799239J-34896D01*
G01*
X94976482Y-116405596D01*
G75*
G02*
X95740825Y-117239731I-34896J-799239D01*
G01*
G37*
G36*
G01*
X88017285Y-119444934D02*
X88017285Y-119444934D01*
G75*
G02*
X87183150Y-120209277I-799239J34896D01*
G01*
X87183150Y-120209277D01*
G75*
G02*
X86418807Y-119375142I34896J799239D01*
G01*
X86418807Y-119375142D01*
G75*
G02*
X87252942Y-118610799I799239J-34896D01*
G01*
X87252942Y-118610799D01*
G75*
G02*
X88017285Y-119444934I-34896J-799239D01*
G01*
G37*
G36*
G01*
X95851619Y-114702149D02*
X95851619Y-114702149D01*
G75*
G02*
X95017484Y-115466492I-799239J34896D01*
G01*
X95017484Y-115466492D01*
G75*
G02*
X94253141Y-114632357I34896J799239D01*
G01*
X94253141Y-114632357D01*
G75*
G02*
X95087276Y-113868014I799239J-34896D01*
G01*
X95087276Y-113868014D01*
G75*
G02*
X95851619Y-114702149I-34896J-799239D01*
G01*
G37*
G36*
G01*
X87906492Y-121982516D02*
X87906492Y-121982516D01*
G75*
G02*
X87072357Y-122746859I-799239J34896D01*
G01*
X87072357Y-122746859D01*
G75*
G02*
X86308014Y-121912724I34896J799239D01*
G01*
X86308014Y-121912724D01*
G75*
G02*
X87142149Y-121148381I799239J-34896D01*
G01*
X87142149Y-121148381D01*
G75*
G02*
X87906492Y-121982516I-34896J-799239D01*
G01*
G37*
%TD*%
%TO.C,REF\u002A\u002A*%
G36*
G01*
X173867614Y-140645146D02*
X173867614Y-140645146D01*
G75*
G02*
X174847410Y-140079460I772741J-207055D01*
G01*
X174847410Y-140079460D01*
G75*
G02*
X175413096Y-141059256I-207055J-772741D01*
G01*
X175413096Y-141059256D01*
G75*
G02*
X174433300Y-141624942I-772741J207055D01*
G01*
X174433300Y-141624942D01*
G75*
G02*
X173867614Y-140645146I207055J772741D01*
G01*
G37*
D13*
X167280000Y-138880000D03*
%TD*%
D12*
%TO.C,REF\u002A\u002A*%
G36*
X126782792Y-115180000D02*
G01*
X125510000Y-116452792D01*
X124237208Y-115180000D01*
X125510000Y-113907208D01*
X126782792Y-115180000D01*
G37*
D16*
X127277767Y-116947767D03*
X129045534Y-118715534D03*
D17*
X135975180Y-115038579D03*
X129186955Y-108250354D03*
%TD*%
D13*
%TO.C,REF\u002A\u002A*%
X188800000Y-63760000D03*
G36*
G01*
X183977531Y-58937531D02*
X183977531Y-58937531D01*
G75*
G02*
X182846161Y-58937531I-565685J565685D01*
G01*
X182846161Y-58937531D01*
G75*
G02*
X182846161Y-57806161I565685J565685D01*
G01*
X182846161Y-57806161D01*
G75*
G02*
X183977531Y-57806161I565685J-565685D01*
G01*
X183977531Y-57806161D01*
G75*
G02*
X183977531Y-58937531I-565685J-565685D01*
G01*
G37*
%TD*%
D14*
%TO.C,REF\u002A\u002A*%
X77110000Y-61940000D03*
%TD*%
D15*
%TO.C,REF\u002A\u002A*%
X204930000Y-149060000D03*
%TD*%
D12*
%TO.C,REF\u002A\u002A*%
G36*
X171651441Y-87010330D02*
G01*
X172039670Y-85561441D01*
X173488559Y-85949670D01*
X173100330Y-87398559D01*
X171651441Y-87010330D01*
G37*
D11*
X171255199Y-91386903D03*
X171912600Y-88933452D03*
%TD*%
D12*
%TO.C,REF\u002A\u002A*%
G36*
X151510000Y-117807208D02*
G01*
X152782792Y-119080000D01*
X151510000Y-120352792D01*
X150237208Y-119080000D01*
X151510000Y-117807208D01*
G37*
D16*
X153277767Y-117312233D03*
X155045534Y-115544466D03*
D17*
X151368579Y-108614820D03*
X144580354Y-115403045D03*
%TD*%
D15*
%TO.C,REF\u002A\u002A*%
X82410000Y-43350000D03*
%TD*%
%TO.C,REF\u002A\u002A*%
X204930000Y-137560000D03*
%TD*%
%TO.C,REF\u002A\u002A*%
G36*
G01*
X192853508Y-86197484D02*
X192853508Y-86197484D01*
G75*
G02*
X193687643Y-85433141I799239J-34896D01*
G01*
X193687643Y-85433141D01*
G75*
G02*
X194451986Y-86267276I-34896J-799239D01*
G01*
X194451986Y-86267276D01*
G75*
G02*
X193617851Y-87031619I-799239J34896D01*
G01*
X193617851Y-87031619D01*
G75*
G02*
X192853508Y-86197484I34896J799239D01*
G01*
G37*
G36*
G01*
X184908381Y-93477851D02*
X184908381Y-93477851D01*
G75*
G02*
X185742516Y-92713508I799239J-34896D01*
G01*
X185742516Y-92713508D01*
G75*
G02*
X186506859Y-93547643I-34896J-799239D01*
G01*
X186506859Y-93547643D01*
G75*
G02*
X185672724Y-94311986I-799239J34896D01*
G01*
X185672724Y-94311986D01*
G75*
G02*
X184908381Y-93477851I34896J799239D01*
G01*
G37*
G36*
G01*
X192742715Y-88735066D02*
X192742715Y-88735066D01*
G75*
G02*
X193576850Y-87970723I799239J-34896D01*
G01*
X193576850Y-87970723D01*
G75*
G02*
X194341193Y-88804858I-34896J-799239D01*
G01*
X194341193Y-88804858D01*
G75*
G02*
X193507058Y-89569201I-799239J34896D01*
G01*
X193507058Y-89569201D01*
G75*
G02*
X192742715Y-88735066I34896J799239D01*
G01*
G37*
G36*
G01*
X185019175Y-90940269D02*
X185019175Y-90940269D01*
G75*
G02*
X185853310Y-90175926I799239J-34896D01*
G01*
X185853310Y-90175926D01*
G75*
G02*
X186617653Y-91010061I-34896J-799239D01*
G01*
X186617653Y-91010061D01*
G75*
G02*
X185783518Y-91774404I-799239J34896D01*
G01*
X185783518Y-91774404D01*
G75*
G02*
X185019175Y-90940269I34896J799239D01*
G01*
G37*
G36*
G01*
X192631922Y-91272649D02*
X192631922Y-91272649D01*
G75*
G02*
X193466057Y-90508306I799239J-34896D01*
G01*
X193466057Y-90508306D01*
G75*
G02*
X194230400Y-91342441I-34896J-799239D01*
G01*
X194230400Y-91342441D01*
G75*
G02*
X193396265Y-92106784I-799239J34896D01*
G01*
X193396265Y-92106784D01*
G75*
G02*
X192631922Y-91272649I34896J799239D01*
G01*
G37*
G36*
G01*
X185129968Y-88402686D02*
X185129968Y-88402686D01*
G75*
G02*
X185964103Y-87638343I799239J-34896D01*
G01*
X185964103Y-87638343D01*
G75*
G02*
X186728446Y-88472478I-34896J-799239D01*
G01*
X186728446Y-88472478D01*
G75*
G02*
X185894311Y-89236821I-799239J34896D01*
G01*
X185894311Y-89236821D01*
G75*
G02*
X185129968Y-88402686I34896J799239D01*
G01*
G37*
G36*
G01*
X192521129Y-93810231D02*
X192521129Y-93810231D01*
G75*
G02*
X193355264Y-93045888I799239J-34896D01*
G01*
X193355264Y-93045888D01*
G75*
G02*
X194119607Y-93880023I-34896J-799239D01*
G01*
X194119607Y-93880023D01*
G75*
G02*
X193285472Y-94644366I-799239J34896D01*
G01*
X193285472Y-94644366D01*
G75*
G02*
X192521129Y-93810231I34896J799239D01*
G01*
G37*
D12*
G36*
X185205866Y-86664343D02*
G01*
X185275657Y-85065866D01*
X186874134Y-85135657D01*
X186804343Y-86734134D01*
X185205866Y-86664343D01*
G37*
%TD*%
D15*
%TO.C,REF\u002A\u002A*%
X204930000Y-126060000D03*
%TD*%
D13*
%TO.C,REF\u002A\u002A*%
X153790000Y-130440000D03*
G36*
G01*
X160543629Y-131389161D02*
X160543629Y-131389161D01*
G75*
G02*
X161447181Y-130708285I792214J-111338D01*
G01*
X161447181Y-130708285D01*
G75*
G02*
X162128057Y-131611837I-111338J-792214D01*
G01*
X162128057Y-131611837D01*
G75*
G02*
X161224505Y-132292713I-792214J111338D01*
G01*
X161224505Y-132292713D01*
G75*
G02*
X160543629Y-131389161I111338J792214D01*
G01*
G37*
%TD*%
%TO.C,REF\u002A\u002A*%
G36*
G01*
X167669161Y-84006371D02*
X167669161Y-84006371D01*
G75*
G02*
X166988285Y-83102819I111338J792214D01*
G01*
X166988285Y-83102819D01*
G75*
G02*
X167891837Y-82421943I792214J-111338D01*
G01*
X167891837Y-82421943D01*
G75*
G02*
X168572713Y-83325495I-111338J-792214D01*
G01*
X168572713Y-83325495D01*
G75*
G02*
X167669161Y-84006371I-792214J111338D01*
G01*
G37*
X166720000Y-90760000D03*
%TD*%
D12*
%TO.C,REF\u002A\u002A*%
G36*
X182080107Y-79795686D02*
G01*
X182784314Y-81120107D01*
X181459893Y-81824314D01*
X180755686Y-80499893D01*
X182080107Y-79795686D01*
G37*
D11*
X179385084Y-76324626D03*
X180577542Y-78567313D03*
%TD*%
D15*
%TO.C,REF\u002A\u002A*%
X171760000Y-40210000D03*
%TD*%
%TO.C,REF\u002A\u002A*%
G36*
G01*
X89415790Y-64287101D02*
X89415790Y-64287101D01*
G75*
G02*
X89641349Y-65395760I-441550J-667109D01*
G01*
X89641349Y-65395760D01*
G75*
G02*
X88532690Y-65621319I-667109J441550D01*
G01*
X88532690Y-65621319D01*
G75*
G02*
X88307131Y-64512660I441550J667109D01*
G01*
X88307131Y-64512660D01*
G75*
G02*
X89415790Y-64287101I667109J-441550D01*
G01*
G37*
D13*
X93180000Y-58600000D03*
%TD*%
%TO.C,REF\u002A\u002A*%
X128077956Y-64372653D03*
X131299723Y-63005094D03*
%TD*%
%TO.C,REF\u002A\u002A*%
X174580000Y-154150000D03*
G36*
G01*
X178194050Y-159933688D02*
X178194050Y-159933688D01*
G75*
G02*
X179296423Y-160188191I423935J-678438D01*
G01*
X179296423Y-160188191D01*
G75*
G02*
X179041920Y-161290564I-678438J-423935D01*
G01*
X179041920Y-161290564D01*
G75*
G02*
X177939547Y-161036061I-423935J678438D01*
G01*
X177939547Y-161036061D01*
G75*
G02*
X178194050Y-159933688I678438J423935D01*
G01*
G37*
%TD*%
%TO.C,REF\u002A\u002A*%
X166410000Y-149270000D03*
G36*
G01*
X171061229Y-144282168D02*
X171061229Y-144282168D01*
G75*
G02*
X171021745Y-143151486I545599J585083D01*
G01*
X171021745Y-143151486D01*
G75*
G02*
X172152427Y-143112002I585083J-545599D01*
G01*
X172152427Y-143112002D01*
G75*
G02*
X172191911Y-144242684I-545599J-585083D01*
G01*
X172191911Y-144242684D01*
G75*
G02*
X171061229Y-144282168I-585083J545599D01*
G01*
G37*
%TD*%
%TO.C,REF\u002A\u002A*%
G36*
G01*
X84576312Y-141864050D02*
X84576312Y-141864050D01*
G75*
G02*
X84321809Y-142966423I-678438J-423935D01*
G01*
X84321809Y-142966423D01*
G75*
G02*
X83219436Y-142711920I-423935J678438D01*
G01*
X83219436Y-142711920D01*
G75*
G02*
X83473939Y-141609547I678438J423935D01*
G01*
X83473939Y-141609547D01*
G75*
G02*
X84576312Y-141864050I423935J-678438D01*
G01*
G37*
X90360000Y-138250000D03*
%TD*%
%TO.C,REF\u002A\u002A*%
X100367653Y-116472044D03*
X99000094Y-113250277D03*
%TD*%
%TO.C,REF\u002A\u002A*%
X190872131Y-65307372D03*
X193368508Y-62854189D03*
%TD*%
%TO.C,REF\u002A\u002A*%
X97635000Y-108440000D03*
X102555443Y-102779678D03*
%TD*%
D18*
%TO.C,REF\u002A\u002A*%
X140528881Y-51780455D03*
X145210000Y-52190000D03*
X149891119Y-52599545D03*
%TD*%
D13*
%TO.C,REF\u002A\u002A*%
X186250000Y-75180000D03*
G36*
G01*
X192185825Y-71821671D02*
X192185825Y-71821671D01*
G75*
G02*
X192488171Y-70731447I696285J393939D01*
G01*
X192488171Y-70731447D01*
G75*
G02*
X193578395Y-71033793I393939J-696285D01*
G01*
X193578395Y-71033793D01*
G75*
G02*
X193276049Y-72124017I-696285J-393939D01*
G01*
X193276049Y-72124017D01*
G75*
G02*
X192185825Y-71821671I-393939J696285D01*
G01*
G37*
%TD*%
%TO.C,REF\u002A\u002A*%
G36*
G01*
X172648329Y-155945825D02*
X172648329Y-155945825D01*
G75*
G02*
X173738553Y-156248171I393939J-696285D01*
G01*
X173738553Y-156248171D01*
G75*
G02*
X173436207Y-157338395I-696285J-393939D01*
G01*
X173436207Y-157338395D01*
G75*
G02*
X172345983Y-157036049I-393939J696285D01*
G01*
X172345983Y-157036049D01*
G75*
G02*
X172648329Y-155945825I696285J393939D01*
G01*
G37*
X169290000Y-150010000D03*
%TD*%
%TO.C,REF\u002A\u002A*%
X136110000Y-61640000D03*
X141770322Y-66560443D03*
%TD*%
D18*
%TO.C,REF\u002A\u002A*%
X87775455Y-104021119D03*
X88185000Y-99340000D03*
X88594545Y-94658881D03*
%TD*%
D13*
%TO.C,REF\u002A\u002A*%
X89987869Y-142862628D03*
X87491492Y-145315811D03*
%TD*%
%TO.C,REF\u002A\u002A*%
G36*
G01*
X191414210Y-143892899D02*
X191414210Y-143892899D01*
G75*
G02*
X191188651Y-142784240I441550J667109D01*
G01*
X191188651Y-142784240D01*
G75*
G02*
X192297310Y-142558681I667109J-441550D01*
G01*
X192297310Y-142558681D01*
G75*
G02*
X192522869Y-143667340I-441550J-667109D01*
G01*
X192522869Y-143667340D01*
G75*
G02*
X191414210Y-143892899I-667109J441550D01*
G01*
G37*
X187650000Y-149580000D03*
%TD*%
%TO.C,REF\u002A\u002A*%
X111210000Y-108630000D03*
X104306214Y-105699517D03*
%TD*%
%TO.C,REF\u002A\u002A*%
X142029517Y-140283786D03*
X144960000Y-133380000D03*
%TD*%
%TO.C,REF\u002A\u002A*%
X169720000Y-99670000D03*
X176623786Y-102600483D03*
%TD*%
D14*
%TO.C,REF\u002A\u002A*%
X77110000Y-96440000D03*
%TD*%
D15*
%TO.C,REF\u002A\u002A*%
X102210000Y-40210000D03*
%TD*%
D17*
%TO.C,REF\u002A\u002A*%
X151673045Y-99879646D03*
X144884820Y-93091421D03*
D16*
X151814466Y-89414466D03*
X153582233Y-91182233D03*
D12*
G36*
X154077208Y-92950000D02*
G01*
X155350000Y-91677208D01*
X156622792Y-92950000D01*
X155350000Y-94222792D01*
X154077208Y-92950000D01*
G37*
%TD*%
D15*
%TO.C,REF\u002A\u002A*%
X136710000Y-40210000D03*
%TD*%
%TO.C,REF\u002A\u002A*%
X204930000Y-160560000D03*
%TD*%
%TO.C,REF\u002A\u002A*%
X199790000Y-167870000D03*
%TD*%
%TO.C,REF\u002A\u002A*%
X204930000Y-65310000D03*
%TD*%
%TO.C,REF\u002A\u002A*%
X87280000Y-170790000D03*
%TD*%
%TO.C,REF\u002A\u002A*%
X121780000Y-170790000D03*
%TD*%
D14*
%TO.C,REF\u002A\u002A*%
X77110000Y-122690000D03*
%TD*%
%TO.C,REF\u002A\u002A*%
X77110000Y-50440000D03*
%TD*%
D17*
%TO.C,REF\u002A\u002A*%
X136239646Y-92856955D03*
X129451421Y-99645180D03*
D16*
X125774466Y-92715534D03*
X127542233Y-90947767D03*
D12*
G36*
X129310000Y-90452792D02*
G01*
X128037208Y-89180000D01*
X129310000Y-87907208D01*
X130582792Y-89180000D01*
X129310000Y-90452792D01*
G37*
%TD*%
D15*
%TO.C,REF\u002A\u002A*%
X168330000Y-170790000D03*
%TD*%
%TO.C,REF\u002A\u002A*%
X202000000Y-45350000D03*
%TD*%
%TO.C,REF\u002A\u002A*%
X110280000Y-170790000D03*
%TD*%
%TO.C,REF\u002A\u002A*%
X204930000Y-114560000D03*
%TD*%
%TO.C,REF\u002A\u002A*%
G36*
G01*
X158292516Y-156573508D02*
X158292516Y-156573508D01*
G75*
G02*
X159056859Y-157407643I-34896J-799239D01*
G01*
X159056859Y-157407643D01*
G75*
G02*
X158222724Y-158171986I-799239J34896D01*
G01*
X158222724Y-158171986D01*
G75*
G02*
X157458381Y-157337851I34896J799239D01*
G01*
X157458381Y-157337851D01*
G75*
G02*
X158292516Y-156573508I799239J-34896D01*
G01*
G37*
G36*
G01*
X151012149Y-148628381D02*
X151012149Y-148628381D01*
G75*
G02*
X151776492Y-149462516I-34896J-799239D01*
G01*
X151776492Y-149462516D01*
G75*
G02*
X150942357Y-150226859I-799239J34896D01*
G01*
X150942357Y-150226859D01*
G75*
G02*
X150178014Y-149392724I34896J799239D01*
G01*
X150178014Y-149392724D01*
G75*
G02*
X151012149Y-148628381I799239J-34896D01*
G01*
G37*
G36*
G01*
X155754934Y-156462715D02*
X155754934Y-156462715D01*
G75*
G02*
X156519277Y-157296850I-34896J-799239D01*
G01*
X156519277Y-157296850D01*
G75*
G02*
X155685142Y-158061193I-799239J34896D01*
G01*
X155685142Y-158061193D01*
G75*
G02*
X154920799Y-157227058I34896J799239D01*
G01*
X154920799Y-157227058D01*
G75*
G02*
X155754934Y-156462715I799239J-34896D01*
G01*
G37*
G36*
G01*
X153549731Y-148739175D02*
X153549731Y-148739175D01*
G75*
G02*
X154314074Y-149573310I-34896J-799239D01*
G01*
X154314074Y-149573310D01*
G75*
G02*
X153479939Y-150337653I-799239J34896D01*
G01*
X153479939Y-150337653D01*
G75*
G02*
X152715596Y-149503518I34896J799239D01*
G01*
X152715596Y-149503518D01*
G75*
G02*
X153549731Y-148739175I799239J-34896D01*
G01*
G37*
G36*
G01*
X153217351Y-156351922D02*
X153217351Y-156351922D01*
G75*
G02*
X153981694Y-157186057I-34896J-799239D01*
G01*
X153981694Y-157186057D01*
G75*
G02*
X153147559Y-157950400I-799239J34896D01*
G01*
X153147559Y-157950400D01*
G75*
G02*
X152383216Y-157116265I34896J799239D01*
G01*
X152383216Y-157116265D01*
G75*
G02*
X153217351Y-156351922I799239J-34896D01*
G01*
G37*
G36*
G01*
X156087314Y-148849968D02*
X156087314Y-148849968D01*
G75*
G02*
X156851657Y-149684103I-34896J-799239D01*
G01*
X156851657Y-149684103D01*
G75*
G02*
X156017522Y-150448446I-799239J34896D01*
G01*
X156017522Y-150448446D01*
G75*
G02*
X155253179Y-149614311I34896J799239D01*
G01*
X155253179Y-149614311D01*
G75*
G02*
X156087314Y-148849968I799239J-34896D01*
G01*
G37*
G36*
G01*
X150679769Y-156241129D02*
X150679769Y-156241129D01*
G75*
G02*
X151444112Y-157075264I-34896J-799239D01*
G01*
X151444112Y-157075264D01*
G75*
G02*
X150609977Y-157839607I-799239J34896D01*
G01*
X150609977Y-157839607D01*
G75*
G02*
X149845634Y-157005472I34896J799239D01*
G01*
X149845634Y-157005472D01*
G75*
G02*
X150679769Y-156241129I799239J-34896D01*
G01*
G37*
D12*
G36*
X157825657Y-148925866D02*
G01*
X159424134Y-148995657D01*
X159354343Y-150594134D01*
X157755866Y-150524343D01*
X157825657Y-148925866D01*
G37*
%TD*%
D15*
%TO.C,REF\u002A\u002A*%
X160260000Y-40210000D03*
%TD*%
D14*
%TO.C,REF\u002A\u002A*%
X77110000Y-84940000D03*
%TD*%
D15*
%TO.C,REF\u002A\u002A*%
X156830000Y-170790000D03*
%TD*%
%TO.C,REF\u002A\u002A*%
X204930000Y-99810000D03*
%TD*%
D14*
%TO.C,REF\u002A\u002A*%
X77110000Y-111190000D03*
%TD*%
D15*
%TO.C,REF\u002A\u002A*%
X179830000Y-170790000D03*
%TD*%
%TO.C,REF\u002A\u002A*%
X113710000Y-40210000D03*
%TD*%
%TO.C,REF\u002A\u002A*%
X204930000Y-88310000D03*
%TD*%
%TO.C,REF\u002A\u002A*%
X90710000Y-40210000D03*
%TD*%
%TO.C,REF\u002A\u002A*%
G36*
G01*
X177672469Y-57317531D02*
X177672469Y-57317531D01*
G75*
G02*
X177672469Y-56186161I565685J565685D01*
G01*
X177672469Y-56186161D01*
G75*
G02*
X178803839Y-56186161I565685J-565685D01*
G01*
X178803839Y-56186161D01*
G75*
G02*
X178803839Y-57317531I-565685J-565685D01*
G01*
X178803839Y-57317531D01*
G75*
G02*
X177672469Y-57317531I-565685J565685D01*
G01*
G37*
G36*
G01*
X183060622Y-73481992D02*
X183060622Y-73481992D01*
G75*
G02*
X183060622Y-72350622I565685J565685D01*
G01*
X183060622Y-72350622D01*
G75*
G02*
X184191992Y-72350622I565685J-565685D01*
G01*
X184191992Y-72350622D01*
G75*
G02*
X184191992Y-73481992I-565685J-565685D01*
G01*
X184191992Y-73481992D01*
G75*
G02*
X183060622Y-73481992I-565685J565685D01*
G01*
G37*
G36*
G01*
X179468520Y-59113583D02*
X179468520Y-59113583D01*
G75*
G02*
X179468520Y-57982213I565685J565685D01*
G01*
X179468520Y-57982213D01*
G75*
G02*
X180599890Y-57982213I565685J-565685D01*
G01*
X180599890Y-57982213D01*
G75*
G02*
X180599890Y-59113583I-565685J-565685D01*
G01*
X180599890Y-59113583D01*
G75*
G02*
X179468520Y-59113583I-565685J565685D01*
G01*
G37*
G36*
G01*
X181264571Y-71685941D02*
X181264571Y-71685941D01*
G75*
G02*
X181264571Y-70554571I565685J565685D01*
G01*
X181264571Y-70554571D01*
G75*
G02*
X182395941Y-70554571I565685J-565685D01*
G01*
X182395941Y-70554571D01*
G75*
G02*
X182395941Y-71685941I-565685J-565685D01*
G01*
X182395941Y-71685941D01*
G75*
G02*
X181264571Y-71685941I-565685J565685D01*
G01*
G37*
G36*
G01*
X181264571Y-60909634D02*
X181264571Y-60909634D01*
G75*
G02*
X181264571Y-59778264I565685J565685D01*
G01*
X181264571Y-59778264D01*
G75*
G02*
X182395941Y-59778264I565685J-565685D01*
G01*
X182395941Y-59778264D01*
G75*
G02*
X182395941Y-60909634I-565685J-565685D01*
G01*
X182395941Y-60909634D01*
G75*
G02*
X181264571Y-60909634I-565685J565685D01*
G01*
G37*
G36*
G01*
X179468520Y-69889890D02*
X179468520Y-69889890D01*
G75*
G02*
X179468520Y-68758520I565685J565685D01*
G01*
X179468520Y-68758520D01*
G75*
G02*
X180599890Y-68758520I565685J-565685D01*
G01*
X180599890Y-68758520D01*
G75*
G02*
X180599890Y-69889890I-565685J-565685D01*
G01*
X180599890Y-69889890D01*
G75*
G02*
X179468520Y-69889890I-565685J565685D01*
G01*
G37*
G36*
G01*
X183060622Y-62705685D02*
X183060622Y-62705685D01*
G75*
G02*
X183060622Y-61574315I565685J565685D01*
G01*
X183060622Y-61574315D01*
G75*
G02*
X184191992Y-61574315I565685J-565685D01*
G01*
X184191992Y-61574315D01*
G75*
G02*
X184191992Y-62705685I-565685J-565685D01*
G01*
X184191992Y-62705685D01*
G75*
G02*
X183060622Y-62705685I-565685J565685D01*
G01*
G37*
G36*
G01*
X177672469Y-68093839D02*
X177672469Y-68093839D01*
G75*
G02*
X177672469Y-66962469I565685J565685D01*
G01*
X177672469Y-66962469D01*
G75*
G02*
X178803839Y-66962469I565685J-565685D01*
G01*
X178803839Y-66962469D01*
G75*
G02*
X178803839Y-68093839I-565685J-565685D01*
G01*
X178803839Y-68093839D01*
G75*
G02*
X177672469Y-68093839I-565685J565685D01*
G01*
G37*
G36*
G01*
X184856674Y-64501736D02*
X184856674Y-64501736D01*
G75*
G02*
X184856674Y-63370366I565685J565685D01*
G01*
X184856674Y-63370366D01*
G75*
G02*
X185988044Y-63370366I565685J-565685D01*
G01*
X185988044Y-63370366D01*
G75*
G02*
X185988044Y-64501736I-565685J-565685D01*
G01*
X185988044Y-64501736D01*
G75*
G02*
X184856674Y-64501736I-565685J565685D01*
G01*
G37*
G36*
G01*
X175876417Y-66297787D02*
X175876417Y-66297787D01*
G75*
G02*
X175876417Y-65166417I565685J565685D01*
G01*
X175876417Y-65166417D01*
G75*
G02*
X177007787Y-65166417I565685J-565685D01*
G01*
X177007787Y-65166417D01*
G75*
G02*
X177007787Y-66297787I-565685J-565685D01*
G01*
X177007787Y-66297787D01*
G75*
G02*
X175876417Y-66297787I-565685J565685D01*
G01*
G37*
G36*
G01*
X186652725Y-66297787D02*
X186652725Y-66297787D01*
G75*
G02*
X186652725Y-65166417I565685J565685D01*
G01*
X186652725Y-65166417D01*
G75*
G02*
X187784095Y-65166417I565685J-565685D01*
G01*
X187784095Y-65166417D01*
G75*
G02*
X187784095Y-66297787I-565685J-565685D01*
G01*
X187784095Y-66297787D01*
G75*
G02*
X186652725Y-66297787I-565685J565685D01*
G01*
G37*
G36*
G01*
X174080366Y-64501736D02*
X174080366Y-64501736D01*
G75*
G02*
X174080366Y-63370366I565685J565685D01*
G01*
X174080366Y-63370366D01*
G75*
G02*
X175211736Y-63370366I565685J-565685D01*
G01*
X175211736Y-63370366D01*
G75*
G02*
X175211736Y-64501736I-565685J-565685D01*
G01*
X175211736Y-64501736D01*
G75*
G02*
X174080366Y-64501736I-565685J565685D01*
G01*
G37*
G36*
G01*
X188448776Y-68093839D02*
X188448776Y-68093839D01*
G75*
G02*
X188448776Y-66962469I565685J565685D01*
G01*
X188448776Y-66962469D01*
G75*
G02*
X189580146Y-66962469I565685J-565685D01*
G01*
X189580146Y-66962469D01*
G75*
G02*
X189580146Y-68093839I-565685J-565685D01*
G01*
X189580146Y-68093839D01*
G75*
G02*
X188448776Y-68093839I-565685J565685D01*
G01*
G37*
D12*
G36*
X172850000Y-63271371D02*
G01*
X171718629Y-62140000D01*
X172850000Y-61008629D01*
X173981371Y-62140000D01*
X172850000Y-63271371D01*
G37*
%TD*%
%TO.C,REF\u002A\u002A*%
G36*
G01*
X93627531Y-66797531D02*
X93627531Y-66797531D01*
G75*
G02*
X92496161Y-66797531I-565685J565685D01*
G01*
X92496161Y-66797531D01*
G75*
G02*
X92496161Y-65666161I565685J565685D01*
G01*
X92496161Y-65666161D01*
G75*
G02*
X93627531Y-65666161I565685J-565685D01*
G01*
X93627531Y-65666161D01*
G75*
G02*
X93627531Y-66797531I-565685J-565685D01*
G01*
G37*
G36*
G01*
X109791992Y-61409378D02*
X109791992Y-61409378D01*
G75*
G02*
X108660622Y-61409378I-565685J565685D01*
G01*
X108660622Y-61409378D01*
G75*
G02*
X108660622Y-60278008I565685J565685D01*
G01*
X108660622Y-60278008D01*
G75*
G02*
X109791992Y-60278008I565685J-565685D01*
G01*
X109791992Y-60278008D01*
G75*
G02*
X109791992Y-61409378I-565685J-565685D01*
G01*
G37*
G36*
G01*
X95423583Y-65001480D02*
X95423583Y-65001480D01*
G75*
G02*
X94292213Y-65001480I-565685J565685D01*
G01*
X94292213Y-65001480D01*
G75*
G02*
X94292213Y-63870110I565685J565685D01*
G01*
X94292213Y-63870110D01*
G75*
G02*
X95423583Y-63870110I565685J-565685D01*
G01*
X95423583Y-63870110D01*
G75*
G02*
X95423583Y-65001480I-565685J-565685D01*
G01*
G37*
G36*
G01*
X107995941Y-63205429D02*
X107995941Y-63205429D01*
G75*
G02*
X106864571Y-63205429I-565685J565685D01*
G01*
X106864571Y-63205429D01*
G75*
G02*
X106864571Y-62074059I565685J565685D01*
G01*
X106864571Y-62074059D01*
G75*
G02*
X107995941Y-62074059I565685J-565685D01*
G01*
X107995941Y-62074059D01*
G75*
G02*
X107995941Y-63205429I-565685J-565685D01*
G01*
G37*
G36*
G01*
X97219634Y-63205429D02*
X97219634Y-63205429D01*
G75*
G02*
X96088264Y-63205429I-565685J565685D01*
G01*
X96088264Y-63205429D01*
G75*
G02*
X96088264Y-62074059I565685J565685D01*
G01*
X96088264Y-62074059D01*
G75*
G02*
X97219634Y-62074059I565685J-565685D01*
G01*
X97219634Y-62074059D01*
G75*
G02*
X97219634Y-63205429I-565685J-565685D01*
G01*
G37*
G36*
G01*
X106199890Y-65001480D02*
X106199890Y-65001480D01*
G75*
G02*
X105068520Y-65001480I-565685J565685D01*
G01*
X105068520Y-65001480D01*
G75*
G02*
X105068520Y-63870110I565685J565685D01*
G01*
X105068520Y-63870110D01*
G75*
G02*
X106199890Y-63870110I565685J-565685D01*
G01*
X106199890Y-63870110D01*
G75*
G02*
X106199890Y-65001480I-565685J-565685D01*
G01*
G37*
G36*
G01*
X99015685Y-61409378D02*
X99015685Y-61409378D01*
G75*
G02*
X97884315Y-61409378I-565685J565685D01*
G01*
X97884315Y-61409378D01*
G75*
G02*
X97884315Y-60278008I565685J565685D01*
G01*
X97884315Y-60278008D01*
G75*
G02*
X99015685Y-60278008I565685J-565685D01*
G01*
X99015685Y-60278008D01*
G75*
G02*
X99015685Y-61409378I-565685J-565685D01*
G01*
G37*
G36*
G01*
X104403839Y-66797531D02*
X104403839Y-66797531D01*
G75*
G02*
X103272469Y-66797531I-565685J565685D01*
G01*
X103272469Y-66797531D01*
G75*
G02*
X103272469Y-65666161I565685J565685D01*
G01*
X103272469Y-65666161D01*
G75*
G02*
X104403839Y-65666161I565685J-565685D01*
G01*
X104403839Y-65666161D01*
G75*
G02*
X104403839Y-66797531I-565685J-565685D01*
G01*
G37*
G36*
G01*
X100811736Y-59613326D02*
X100811736Y-59613326D01*
G75*
G02*
X99680366Y-59613326I-565685J565685D01*
G01*
X99680366Y-59613326D01*
G75*
G02*
X99680366Y-58481956I565685J565685D01*
G01*
X99680366Y-58481956D01*
G75*
G02*
X100811736Y-58481956I565685J-565685D01*
G01*
X100811736Y-58481956D01*
G75*
G02*
X100811736Y-59613326I-565685J-565685D01*
G01*
G37*
G36*
G01*
X102607787Y-68593583D02*
X102607787Y-68593583D01*
G75*
G02*
X101476417Y-68593583I-565685J565685D01*
G01*
X101476417Y-68593583D01*
G75*
G02*
X101476417Y-67462213I565685J565685D01*
G01*
X101476417Y-67462213D01*
G75*
G02*
X102607787Y-67462213I565685J-565685D01*
G01*
X102607787Y-67462213D01*
G75*
G02*
X102607787Y-68593583I-565685J-565685D01*
G01*
G37*
G36*
G01*
X102607787Y-57817275D02*
X102607787Y-57817275D01*
G75*
G02*
X101476417Y-57817275I-565685J565685D01*
G01*
X101476417Y-57817275D01*
G75*
G02*
X101476417Y-56685905I565685J565685D01*
G01*
X101476417Y-56685905D01*
G75*
G02*
X102607787Y-56685905I565685J-565685D01*
G01*
X102607787Y-56685905D01*
G75*
G02*
X102607787Y-57817275I-565685J-565685D01*
G01*
G37*
G36*
G01*
X100811736Y-70389634D02*
X100811736Y-70389634D01*
G75*
G02*
X99680366Y-70389634I-565685J565685D01*
G01*
X99680366Y-70389634D01*
G75*
G02*
X99680366Y-69258264I565685J565685D01*
G01*
X99680366Y-69258264D01*
G75*
G02*
X100811736Y-69258264I565685J-565685D01*
G01*
X100811736Y-69258264D01*
G75*
G02*
X100811736Y-70389634I-565685J-565685D01*
G01*
G37*
G36*
G01*
X104403839Y-56021224D02*
X104403839Y-56021224D01*
G75*
G02*
X103272469Y-56021224I-565685J565685D01*
G01*
X103272469Y-56021224D01*
G75*
G02*
X103272469Y-54889854I565685J565685D01*
G01*
X103272469Y-54889854D01*
G75*
G02*
X104403839Y-54889854I565685J-565685D01*
G01*
X104403839Y-54889854D01*
G75*
G02*
X104403839Y-56021224I-565685J-565685D01*
G01*
G37*
G36*
X99581371Y-71620000D02*
G01*
X98450000Y-72751371D01*
X97318629Y-71620000D01*
X98450000Y-70488629D01*
X99581371Y-71620000D01*
G37*
%TD*%
D15*
%TO.C,REF\u002A\u002A*%
X79860000Y-165700000D03*
%TD*%
D14*
%TO.C,REF\u002A\u002A*%
X77110000Y-157190000D03*
%TD*%
D15*
%TO.C,REF\u002A\u002A*%
X194760000Y-40210000D03*
%TD*%
D14*
%TO.C,REF\u002A\u002A*%
X77110000Y-145690000D03*
%TD*%
D15*
%TO.C,REF\u002A\u002A*%
X133280000Y-170790000D03*
%TD*%
%TO.C,REF\u002A\u002A*%
X191330000Y-170790000D03*
%TD*%
%TO.C,REF\u002A\u002A*%
X98780000Y-170790000D03*
%TD*%
D14*
%TO.C,REF\u002A\u002A*%
X77110000Y-134190000D03*
%TD*%
D13*
%TO.C,REF\u002A\u002A*%
X170710000Y-111890000D03*
G36*
G01*
X167720309Y-118019776D02*
X167720309Y-118019776D01*
G75*
G02*
X168088647Y-119089508I-350697J-719035D01*
G01*
X168088647Y-119089508D01*
G75*
G02*
X167018915Y-119457846I-719035J350697D01*
G01*
X167018915Y-119457846D01*
G75*
G02*
X166650577Y-118388114I350697J719035D01*
G01*
X166650577Y-118388114D01*
G75*
G02*
X167720309Y-118019776I719035J-350697D01*
G01*
G37*
%TD*%
D12*
%TO.C,REF\u002A\u002A*%
G36*
X171905818Y-128935454D02*
G01*
X173134546Y-129795818D01*
X172274182Y-131024546D01*
X171045454Y-130164182D01*
X171905818Y-128935454D01*
G37*
D11*
X167928708Y-127066232D03*
X170009354Y-128523116D03*
%TD*%
%TO.C,REF\u002A\u002A*%
X176083780Y-131271547D03*
X177647560Y-133273095D03*
D12*
G36*
X174390738Y-130322754D02*
G01*
X173467246Y-129140738D01*
X174649262Y-128217246D01*
X175572754Y-129399262D01*
X174390738Y-130322754D01*
G37*
%TD*%
D11*
%TO.C,REF\u002A\u002A*%
X115956884Y-133729354D03*
X117413768Y-131648708D03*
D12*
G36*
X115544546Y-135625818D02*
G01*
X114684182Y-136854546D01*
X113455454Y-135994182D01*
X114315818Y-134765454D01*
X115544546Y-135625818D01*
G37*
%TD*%
%TO.C,REF\u002A\u002A*%
G36*
G01*
X154489776Y-76669691D02*
X154489776Y-76669691D01*
G75*
G02*
X155559508Y-76301353I719035J-350697D01*
G01*
X155559508Y-76301353D01*
G75*
G02*
X155927846Y-77371085I-350697J-719035D01*
G01*
X155927846Y-77371085D01*
G75*
G02*
X154858114Y-77739423I-719035J350697D01*
G01*
X154858114Y-77739423D01*
G75*
G02*
X154489776Y-76669691I350697J719035D01*
G01*
G37*
D13*
X148360000Y-73680000D03*
%TD*%
D12*
%TO.C,REF\u002A\u002A*%
G36*
X120702919Y-128868321D02*
G01*
X120911679Y-127382919D01*
X122397081Y-127591679D01*
X122188321Y-129077081D01*
X120702919Y-128868321D01*
G37*
D11*
X120843001Y-133260562D03*
X121196500Y-130745281D03*
%TD*%
%TO.C,REF\u002A\u002A*%
G36*
G01*
X144610309Y-83039776D02*
X144610309Y-83039776D01*
G75*
G02*
X144978647Y-84109508I-350697J-719035D01*
G01*
X144978647Y-84109508D01*
G75*
G02*
X143908915Y-84477846I-719035J350697D01*
G01*
X143908915Y-84477846D01*
G75*
G02*
X143540577Y-83408114I350697J719035D01*
G01*
X143540577Y-83408114D01*
G75*
G02*
X144610309Y-83039776I719035J-350697D01*
G01*
G37*
D13*
X147600000Y-76910000D03*
%TD*%
D11*
%TO.C,REF\u002A\u002A*%
X117413610Y-147476962D03*
X115747220Y-149393925D03*
D12*
G36*
X118021924Y-145633988D02*
G01*
X119006012Y-144501924D01*
X120138076Y-145486012D01*
X119153988Y-146618076D01*
X118021924Y-145633988D01*
G37*
%TD*%
%TO.C,REF\u002A\u002A*%
G36*
X160247081Y-79241679D02*
G01*
X160038321Y-80727081D01*
X158552919Y-80518321D01*
X158761679Y-79032919D01*
X160247081Y-79241679D01*
G37*
D11*
X160106999Y-74849438D03*
X159753500Y-77364719D03*
%TD*%
D13*
%TO.C,REF\u002A\u002A*%
X178414557Y-105250322D03*
X183335000Y-99590000D03*
%TD*%
%TO.C,REF\u002A\u002A*%
G36*
G01*
X193250653Y-82843069D02*
X193250653Y-82843069D01*
G75*
G02*
X194007688Y-82002296I798904J41869D01*
G01*
X194007688Y-82002296D01*
G75*
G02*
X194848461Y-82759331I41869J-798904D01*
G01*
X194848461Y-82759331D01*
G75*
G02*
X194091426Y-83600104I-798904J-41869D01*
G01*
X194091426Y-83600104D01*
G75*
G02*
X193250653Y-82843069I-41869J798904D01*
G01*
G37*
X186440000Y-83200000D03*
%TD*%
%TO.C,REF\u002A\u002A*%
X152442044Y-143882347D03*
X149220277Y-145249906D03*
%TD*%
%TO.C,REF\u002A\u002A*%
G36*
G01*
X126460224Y-131440309D02*
X126460224Y-131440309D01*
G75*
G02*
X125390492Y-131808647I-719035J350697D01*
G01*
X125390492Y-131808647D01*
G75*
G02*
X125022154Y-130738915I350697J719035D01*
G01*
X125022154Y-130738915D01*
G75*
G02*
X126091886Y-130370577I719035J-350697D01*
G01*
X126091886Y-130370577D01*
G75*
G02*
X126460224Y-131440309I-350697J-719035D01*
G01*
G37*
X132590000Y-134430000D03*
%TD*%
D18*
%TO.C,REF\u002A\u002A*%
X139991119Y-156474545D03*
X135310000Y-156065000D03*
X130628881Y-155655455D03*
%TD*%
D13*
%TO.C,REF\u002A\u002A*%
X181969906Y-94779723D03*
X180602347Y-91557956D03*
%TD*%
%TO.C,REF\u002A\u002A*%
X144410000Y-146615000D03*
X138749678Y-141694557D03*
%TD*%
%TO.C,REF\u002A\u002A*%
X94920000Y-151360000D03*
G36*
G01*
X100607101Y-155124210D02*
X100607101Y-155124210D01*
G75*
G02*
X101715760Y-154898651I667109J-441550D01*
G01*
X101715760Y-154898651D01*
G75*
G02*
X101941319Y-156007310I-441550J-667109D01*
G01*
X101941319Y-156007310D01*
G75*
G02*
X100832660Y-156232869I-667109J441550D01*
G01*
X100832660Y-156232869D01*
G75*
G02*
X100607101Y-155124210I441550J667109D01*
G01*
G37*
%TD*%
%TO.C,REF\u002A\u002A*%
G36*
G01*
X100317832Y-134931229D02*
X100317832Y-134931229D01*
G75*
G02*
X101448514Y-134891745I585083J-545599D01*
G01*
X101448514Y-134891745D01*
G75*
G02*
X101487998Y-136022427I-545599J-585083D01*
G01*
X101487998Y-136022427D01*
G75*
G02*
X100357316Y-136061911I-585083J545599D01*
G01*
X100357316Y-136061911D01*
G75*
G02*
X100317832Y-134931229I545599J585083D01*
G01*
G37*
X95330000Y-130280000D03*
%TD*%
%TO.C,REF\u002A\u002A*%
G36*
G01*
X196243688Y-66285950D02*
X196243688Y-66285950D01*
G75*
G02*
X196498191Y-65183577I678438J423935D01*
G01*
X196498191Y-65183577D01*
G75*
G02*
X197600564Y-65438080I423935J-678438D01*
G01*
X197600564Y-65438080D01*
G75*
G02*
X197346061Y-66540453I-678438J-423935D01*
G01*
X197346061Y-66540453D01*
G75*
G02*
X196243688Y-66285950I-423935J678438D01*
G01*
G37*
X190460000Y-69900000D03*
%TD*%
%TO.C,REF\u002A\u002A*%
X181565811Y-157078508D03*
X179112628Y-154582131D03*
%TD*%
%TO.C,REF\u002A\u002A*%
G36*
G01*
X95187531Y-60562469D02*
X95187531Y-60562469D01*
G75*
G02*
X95187531Y-61693839I-565685J-565685D01*
G01*
X95187531Y-61693839D01*
G75*
G02*
X94056161Y-61693839I-565685J565685D01*
G01*
X94056161Y-61693839D01*
G75*
G02*
X94056161Y-60562469I565685J565685D01*
G01*
X94056161Y-60562469D01*
G75*
G02*
X95187531Y-60562469I565685J-565685D01*
G01*
G37*
X100010000Y-55740000D03*
%TD*%
%TO.C,REF\u002A\u002A*%
X92000000Y-144430000D03*
G36*
G01*
X96822469Y-149252469D02*
X96822469Y-149252469D01*
G75*
G02*
X97953839Y-149252469I565685J-565685D01*
G01*
X97953839Y-149252469D01*
G75*
G02*
X97953839Y-150383839I-565685J-565685D01*
G01*
X97953839Y-150383839D01*
G75*
G02*
X96822469Y-150383839I-565685J565685D01*
G01*
X96822469Y-150383839D01*
G75*
G02*
X96822469Y-149252469I565685J565685D01*
G01*
G37*
%TD*%
%TO.C,REF\u002A\u002A*%
X94480000Y-133020000D03*
G36*
G01*
X88544175Y-136378329D02*
X88544175Y-136378329D01*
G75*
G02*
X88241829Y-137468553I-696285J-393939D01*
G01*
X88241829Y-137468553D01*
G75*
G02*
X87151605Y-137166207I-393939J696285D01*
G01*
X87151605Y-137166207D01*
G75*
G02*
X87453951Y-136075983I696285J393939D01*
G01*
X87453951Y-136075983D01*
G75*
G02*
X88544175Y-136378329I393939J-696285D01*
G01*
G37*
%TD*%
D18*
%TO.C,REF\u002A\u002A*%
X192375455Y-113371119D03*
X192785000Y-108690000D03*
X193194545Y-104008881D03*
%TD*%
%TO.C,REF\u002A\u002A*%
G36*
G01*
X123719347Y-48243069D02*
X123719347Y-48243069D01*
G75*
G02*
X122878574Y-49000104I-798904J41869D01*
G01*
X122878574Y-49000104D01*
G75*
G02*
X122121539Y-48159331I41869J798904D01*
G01*
X122121539Y-48159331D01*
G75*
G02*
X122962312Y-47402296I798904J-41869D01*
G01*
X122962312Y-47402296D01*
G75*
G02*
X123719347Y-48243069I-41869J-798904D01*
G01*
G37*
D13*
X130530000Y-48600000D03*
%TD*%
D12*
%TO.C,REF\u002A\u002A*%
G36*
X151114683Y-132307126D02*
G01*
X152462874Y-132964683D01*
X151805317Y-134312874D01*
X150457126Y-133655317D01*
X151114683Y-132307126D01*
G37*
D11*
X146894126Y-131083075D03*
X149177063Y-132196537D03*
%TD*%
D13*
%TO.C,REF\u002A\u002A*%
X84850000Y-114040000D03*
G36*
G01*
X84493069Y-120850653D02*
X84493069Y-120850653D01*
G75*
G02*
X85250104Y-121691426I-41869J-798904D01*
G01*
X85250104Y-121691426D01*
G75*
G02*
X84409331Y-122448461I-798904J41869D01*
G01*
X84409331Y-122448461D01*
G75*
G02*
X83652296Y-121607688I41869J798904D01*
G01*
X83652296Y-121607688D01*
G75*
G02*
X84493069Y-120850653I798904J-41869D01*
G01*
G37*
%TD*%
%TO.C,REF\u002A\u002A*%
X114270000Y-59070000D03*
G36*
G01*
X109618771Y-64057832D02*
X109618771Y-64057832D01*
G75*
G02*
X109658255Y-65188514I-545599J-585083D01*
G01*
X109658255Y-65188514D01*
G75*
G02*
X108527573Y-65227998I-585083J545599D01*
G01*
X108527573Y-65227998D01*
G75*
G02*
X108488089Y-64097316I545599J585083D01*
G01*
X108488089Y-64097316D01*
G75*
G02*
X109618771Y-64057832I585083J-545599D01*
G01*
G37*
%TD*%
D16*
%TO.C,REF\u002A\u002A*%
X160537344Y-147218728D03*
D12*
G36*
X159110289Y-143961872D02*
G01*
X160888128Y-143680289D01*
X161169711Y-145458128D01*
X159391872Y-145739711D01*
X159110289Y-143961872D01*
G37*
%TD*%
%TO.C,REF\u002A\u002A*%
G36*
G01*
X108161671Y-52274175D02*
X108161671Y-52274175D01*
G75*
G02*
X107071447Y-51971829I-393939J696285D01*
G01*
X107071447Y-51971829D01*
G75*
G02*
X107373793Y-50881605I696285J393939D01*
G01*
X107373793Y-50881605D01*
G75*
G02*
X108464017Y-51183951I393939J-696285D01*
G01*
X108464017Y-51183951D01*
G75*
G02*
X108161671Y-52274175I-696285J-393939D01*
G01*
G37*
D13*
X111520000Y-58210000D03*
%TD*%
D11*
%TO.C,REF\u002A\u002A*%
X112393463Y-112907063D03*
X113506925Y-110624126D03*
D12*
G36*
X112282874Y-114844683D02*
G01*
X111625317Y-116192874D01*
X110277126Y-115535317D01*
X110934683Y-114187126D01*
X112282874Y-114844683D01*
G37*
%TD*%
D13*
%TO.C,REF\u002A\u002A*%
X99164189Y-51151492D03*
X101617372Y-53647869D03*
%TD*%
%TO.C,REF\u002A\u002A*%
G36*
G01*
X121770266Y-138125562D02*
X121770266Y-138125562D01*
G75*
G02*
X120663619Y-138360787I-670936J435711D01*
G01*
X120663619Y-138360787D01*
G75*
G02*
X120428394Y-137254140I435711J670936D01*
G01*
X120428394Y-137254140D01*
G75*
G02*
X121535041Y-137018915I670936J-435711D01*
G01*
X121535041Y-137018915D01*
G75*
G02*
X121770266Y-138125562I-435711J-670936D01*
G01*
G37*
X127490000Y-141840000D03*
%TD*%
%TO.C,REF\u002A\u002A*%
X119670000Y-58070000D03*
G36*
G01*
X119313069Y-51259347D02*
X119313069Y-51259347D01*
G75*
G02*
X118472296Y-50502312I-41869J798904D01*
G01*
X118472296Y-50502312D01*
G75*
G02*
X119229331Y-49661539I798904J41869D01*
G01*
X119229331Y-49661539D01*
G75*
G02*
X120070104Y-50418574I41869J-798904D01*
G01*
X120070104Y-50418574D01*
G75*
G02*
X119313069Y-51259347I-798904J-41869D01*
G01*
G37*
%TD*%
%TO.C,REF\u002A\u002A*%
G36*
G01*
X138649691Y-127870224D02*
X138649691Y-127870224D01*
G75*
G02*
X138281353Y-126800492I350697J719035D01*
G01*
X138281353Y-126800492D01*
G75*
G02*
X139351085Y-126432154I719035J-350697D01*
G01*
X139351085Y-126432154D01*
G75*
G02*
X139719423Y-127501886I-350697J-719035D01*
G01*
X139719423Y-127501886D01*
G75*
G02*
X138649691Y-127870224I-719035J350697D01*
G01*
G37*
X135660000Y-134000000D03*
%TD*%
%TO.C,REF\u002A\u002A*%
X127050000Y-77720000D03*
G36*
G01*
X120296371Y-76770839D02*
X120296371Y-76770839D01*
G75*
G02*
X119392819Y-77451715I-792214J111338D01*
G01*
X119392819Y-77451715D01*
G75*
G02*
X118711943Y-76548163I111338J792214D01*
G01*
X118711943Y-76548163D01*
G75*
G02*
X119615495Y-75867287I792214J-111338D01*
G01*
X119615495Y-75867287D01*
G75*
G02*
X120296371Y-76770839I-111338J-792214D01*
G01*
G37*
%TD*%
D12*
%TO.C,REF\u002A\u002A*%
G36*
X129615317Y-75922874D02*
G01*
X128267126Y-75265317D01*
X128924683Y-73917126D01*
X130272874Y-74574683D01*
X129615317Y-75922874D01*
G37*
D11*
X133835874Y-77146925D03*
X131552937Y-76033463D03*
%TD*%
%TO.C,REF\u002A\u002A*%
G36*
G01*
X136141149Y-51120835D02*
X136141149Y-51120835D01*
G75*
G02*
X135444607Y-50229303I97495J794037D01*
G01*
X135444607Y-50229303D01*
G75*
G02*
X136336139Y-49532761I794037J-97495D01*
G01*
X136336139Y-49532761D01*
G75*
G02*
X137032681Y-50424293I-97495J-794037D01*
G01*
X137032681Y-50424293D01*
G75*
G02*
X136141149Y-51120835I-794037J97495D01*
G01*
G37*
D13*
X135310000Y-57890000D03*
%TD*%
%TO.C,REF\u002A\u002A*%
G36*
G01*
X113070839Y-124233629D02*
X113070839Y-124233629D01*
G75*
G02*
X113751715Y-125137181I-111338J-792214D01*
G01*
X113751715Y-125137181D01*
G75*
G02*
X112848163Y-125818057I-792214J111338D01*
G01*
X112848163Y-125818057D01*
G75*
G02*
X112167287Y-124914505I111338J792214D01*
G01*
X112167287Y-124914505D01*
G75*
G02*
X113070839Y-124233629I792214J-111338D01*
G01*
G37*
X114020000Y-117480000D03*
%TD*%
%TO.C,REF\u002A\u002A*%
X131710000Y-139670000D03*
G36*
G01*
X125990266Y-135955562D02*
X125990266Y-135955562D01*
G75*
G02*
X124883619Y-136190787I-670936J435711D01*
G01*
X124883619Y-136190787D01*
G75*
G02*
X124648394Y-135084140I435711J670936D01*
G01*
X124648394Y-135084140D01*
G75*
G02*
X125755041Y-134848915I670936J-435711D01*
G01*
X125755041Y-134848915D01*
G75*
G02*
X125990266Y-135955562I-435711J-670936D01*
G01*
G37*
%TD*%
%TO.C,REF\u002A\u002A*%
X185740000Y-97880000D03*
G36*
G01*
X192555845Y-98118014D02*
X192555845Y-98118014D01*
G75*
G02*
X193383278Y-97346421I799513J-27920D01*
G01*
X193383278Y-97346421D01*
G75*
G02*
X194154871Y-98173854I-27920J-799513D01*
G01*
X194154871Y-98173854D01*
G75*
G02*
X193327438Y-98945447I-799513J27920D01*
G01*
X193327438Y-98945447D01*
G75*
G02*
X192555845Y-98118014I27920J799513D01*
G01*
G37*
%TD*%
D11*
%TO.C,REF\u002A\u002A*%
X168456537Y-95232937D03*
X167343075Y-97515874D03*
D12*
G36*
X168567126Y-93295317D02*
G01*
X169224683Y-91947126D01*
X170572874Y-92604683D01*
X169915317Y-93952874D01*
X168567126Y-93295317D01*
G37*
%TD*%
%TO.C,REF\u002A\u002A*%
G36*
G01*
X116133069Y-51149347D02*
X116133069Y-51149347D01*
G75*
G02*
X115292296Y-50392312I-41869J798904D01*
G01*
X115292296Y-50392312D01*
G75*
G02*
X116049331Y-49551539I798904J41869D01*
G01*
X116049331Y-49551539D01*
G75*
G02*
X116890104Y-50308574I41869J-798904D01*
G01*
X116890104Y-50308574D01*
G75*
G02*
X116133069Y-51149347I-798904J-41869D01*
G01*
G37*
D13*
X116490000Y-57960000D03*
%TD*%
%TO.C,REF\u002A\u002A*%
G36*
G01*
X185552469Y-147747531D02*
X185552469Y-147747531D01*
G75*
G02*
X185552469Y-146616161I565685J565685D01*
G01*
X185552469Y-146616161D01*
G75*
G02*
X186683839Y-146616161I565685J-565685D01*
G01*
X186683839Y-146616161D01*
G75*
G02*
X186683839Y-147747531I-565685J-565685D01*
G01*
X186683839Y-147747531D01*
G75*
G02*
X185552469Y-147747531I-565685J565685D01*
G01*
G37*
X180730000Y-152570000D03*
%TD*%
%TO.C,REF\u002A\u002A*%
X94210000Y-128080000D03*
G36*
G01*
X87399347Y-128436931D02*
X87399347Y-128436931D01*
G75*
G02*
X86642312Y-129277704I-798904J-41869D01*
G01*
X86642312Y-129277704D01*
G75*
G02*
X85801539Y-128520669I-41869J798904D01*
G01*
X85801539Y-128520669D01*
G75*
G02*
X86558574Y-127679896I798904J41869D01*
G01*
X86558574Y-127679896D01*
G75*
G02*
X87399347Y-128436931I41869J-798904D01*
G01*
G37*
%TD*%
D12*
%TO.C,REF\u002A\u002A*%
G36*
X162132899Y-136999702D02*
G01*
X162743004Y-135629383D01*
X164113323Y-136239488D01*
X163503218Y-137609807D01*
X162132899Y-136999702D01*
G37*
D11*
X161056889Y-141260406D03*
X162090000Y-138940000D03*
%TD*%
%TO.C,REF\u002A\u002A*%
G36*
G01*
X116886617Y-142538209D02*
X116886617Y-142538209D01*
G75*
G02*
X117083078Y-141424026I655322J458861D01*
G01*
X117083078Y-141424026D01*
G75*
G02*
X118197261Y-141620487I458861J-655322D01*
G01*
X118197261Y-141620487D01*
G75*
G02*
X118000800Y-142734670I-655322J-458861D01*
G01*
X118000800Y-142734670D01*
G75*
G02*
X116886617Y-142538209I-458861J655322D01*
G01*
G37*
D13*
X111300000Y-146450000D03*
%TD*%
%TO.C,REF\u002A\u002A*%
X105590000Y-130980000D03*
G36*
G01*
X103824854Y-137567614D02*
X103824854Y-137567614D01*
G75*
G02*
X104390540Y-138547410I-207055J-772741D01*
G01*
X104390540Y-138547410D01*
G75*
G02*
X103410744Y-139113096I-772741J207055D01*
G01*
X103410744Y-139113096D01*
G75*
G02*
X102845058Y-138133300I207055J772741D01*
G01*
X102845058Y-138133300D01*
G75*
G02*
X103824854Y-137567614I772741J-207055D01*
G01*
G37*
%TD*%
D11*
%TO.C,REF\u002A\u002A*%
X105469595Y-125726889D03*
X103149189Y-124693778D03*
D12*
G36*
X107409893Y-125769788D02*
G01*
X108780212Y-126379893D01*
X108170107Y-127750212D01*
X106799788Y-127140107D01*
X107409893Y-125769788D01*
G37*
%TD*%
D13*
%TO.C,REF\u002A\u002A*%
X183410000Y-106210000D03*
G36*
G01*
X177892505Y-110218696D02*
X177892505Y-110218696D01*
G75*
G02*
X177715519Y-111336138I-647214J-470228D01*
G01*
X177715519Y-111336138D01*
G75*
G02*
X176598077Y-111159152I-470228J647214D01*
G01*
X176598077Y-111159152D01*
G75*
G02*
X176775063Y-110041710I647214J470228D01*
G01*
X176775063Y-110041710D01*
G75*
G02*
X177892505Y-110218696I470228J-647214D01*
G01*
G37*
%TD*%
D11*
%TO.C,REF\u002A\u002A*%
X125183452Y-72547400D03*
X127636903Y-73204801D03*
D12*
G36*
X123260330Y-72808559D02*
G01*
X121811441Y-72420330D01*
X122199670Y-70971441D01*
X123648559Y-71359670D01*
X123260330Y-72808559D01*
G37*
%TD*%
D11*
%TO.C,REF\u002A\u002A*%
X114887313Y-63952458D03*
X112644626Y-65144916D03*
D12*
G36*
X116115686Y-62449893D02*
G01*
X117440107Y-61745686D01*
X118144314Y-63070107D01*
X116819893Y-63774314D01*
X116115686Y-62449893D01*
G37*
%TD*%
D13*
%TO.C,REF\u002A\u002A*%
X95020000Y-110220000D03*
G36*
G01*
X88204155Y-109981986D02*
X88204155Y-109981986D01*
G75*
G02*
X87376722Y-110753579I-799513J27920D01*
G01*
X87376722Y-110753579D01*
G75*
G02*
X86605129Y-109926146I27920J799513D01*
G01*
X86605129Y-109926146D01*
G75*
G02*
X87432562Y-109154553I799513J-27920D01*
G01*
X87432562Y-109154553D01*
G75*
G02*
X88204155Y-109981986I-27920J-799513D01*
G01*
G37*
%TD*%
%TO.C,REF\u002A\u002A*%
G36*
G01*
X157110653Y-159886931D02*
X157110653Y-159886931D01*
G75*
G02*
X157951426Y-159129896I798904J-41869D01*
G01*
X157951426Y-159129896D01*
G75*
G02*
X158708461Y-159970669I-41869J-798904D01*
G01*
X158708461Y-159970669D01*
G75*
G02*
X157867688Y-160727704I-798904J41869D01*
G01*
X157867688Y-160727704D01*
G75*
G02*
X157110653Y-159886931I41869J798904D01*
G01*
G37*
X150300000Y-159530000D03*
%TD*%
%TO.C,REF\u002A\u002A*%
X195910000Y-94060000D03*
G36*
G01*
X196266931Y-87249347D02*
X196266931Y-87249347D01*
G75*
G02*
X195509896Y-86408574I41869J798904D01*
G01*
X195509896Y-86408574D01*
G75*
G02*
X196350669Y-85651539I798904J-41869D01*
G01*
X196350669Y-85651539D01*
G75*
G02*
X197107704Y-86492312I-41869J-798904D01*
G01*
X197107704Y-86492312D01*
G75*
G02*
X196266931Y-87249347I-798904J41869D01*
G01*
G37*
%TD*%
%TO.C,REF\u002A\u002A*%
X126200000Y-144920000D03*
G36*
G01*
X120480266Y-141205562D02*
X120480266Y-141205562D01*
G75*
G02*
X119373619Y-141440787I-670936J435711D01*
G01*
X119373619Y-141440787D01*
G75*
G02*
X119138394Y-140334140I435711J670936D01*
G01*
X119138394Y-140334140D01*
G75*
G02*
X120245041Y-140098915I670936J-435711D01*
G01*
X120245041Y-140098915D01*
G75*
G02*
X120480266Y-141205562I-435711J-670936D01*
G01*
G37*
%TD*%
%TO.C,REF\u002A\u002A*%
G36*
G01*
X164696931Y-156980653D02*
X164696931Y-156980653D01*
G75*
G02*
X165537704Y-157737688I41869J-798904D01*
G01*
X165537704Y-157737688D01*
G75*
G02*
X164780669Y-158578461I-798904J-41869D01*
G01*
X164780669Y-158578461D01*
G75*
G02*
X163939896Y-157821426I-41869J798904D01*
G01*
X163939896Y-157821426D01*
G75*
G02*
X164696931Y-156980653I798904J41869D01*
G01*
G37*
X164340000Y-150170000D03*
%TD*%
D12*
%TO.C,REF\u002A\u002A*%
G36*
X109238559Y-121249670D02*
G01*
X108850330Y-122698559D01*
X107401441Y-122310330D01*
X107789670Y-120861441D01*
X109238559Y-121249670D01*
G37*
D11*
X109634801Y-116873097D03*
X108977400Y-119326548D03*
%TD*%
D13*
%TO.C,REF\u002A\u002A*%
X161160000Y-150060000D03*
G36*
G01*
X161516931Y-156870653D02*
X161516931Y-156870653D01*
G75*
G02*
X162357704Y-157627688I41869J-798904D01*
G01*
X162357704Y-157627688D01*
G75*
G02*
X161600669Y-158468461I-798904J-41869D01*
G01*
X161600669Y-158468461D01*
G75*
G02*
X160759896Y-157711426I-41869J798904D01*
G01*
X160759896Y-157711426D01*
G75*
G02*
X161516931Y-156870653I798904J41869D01*
G01*
G37*
%TD*%
%TO.C,REF\u002A\u002A*%
X178120000Y-116990000D03*
G36*
G01*
X174405562Y-122709734D02*
X174405562Y-122709734D01*
G75*
G02*
X174640787Y-123816381I-435711J-670936D01*
G01*
X174640787Y-123816381D01*
G75*
G02*
X173534140Y-124051606I-670936J435711D01*
G01*
X173534140Y-124051606D01*
G75*
G02*
X173298915Y-122944959I435711J670936D01*
G01*
X173298915Y-122944959D01*
G75*
G02*
X174405562Y-122709734I670936J-435711D01*
G01*
G37*
%TD*%
D12*
%TO.C,REF\u002A\u002A*%
G36*
X151448979Y-84655373D02*
G01*
X152662505Y-85537051D01*
X151780827Y-86750577D01*
X150567301Y-85868899D01*
X151448979Y-84655373D01*
G37*
D11*
X147505097Y-82717026D03*
X149560000Y-84210000D03*
%TD*%
D13*
%TO.C,REF\u002A\u002A*%
X186550000Y-80020000D03*
G36*
G01*
X193360653Y-79663069D02*
X193360653Y-79663069D01*
G75*
G02*
X194117688Y-78822296I798904J41869D01*
G01*
X194117688Y-78822296D01*
G75*
G02*
X194958461Y-79579331I41869J-798904D01*
G01*
X194958461Y-79579331D01*
G75*
G02*
X194201426Y-80420104I-798904J-41869D01*
G01*
X194201426Y-80420104D01*
G75*
G02*
X193360653Y-79663069I-41869J798904D01*
G01*
G37*
%TD*%
%TO.C,REF\u002A\u002A*%
X175160000Y-77260000D03*
G36*
G01*
X176925146Y-70672386D02*
X176925146Y-70672386D01*
G75*
G02*
X176359460Y-69692590I207055J772741D01*
G01*
X176359460Y-69692590D01*
G75*
G02*
X177339256Y-69126904I772741J-207055D01*
G01*
X177339256Y-69126904D01*
G75*
G02*
X177904942Y-70106700I-207055J-772741D01*
G01*
X177904942Y-70106700D01*
G75*
G02*
X176925146Y-70672386I-772741J207055D01*
G01*
G37*
%TD*%
D12*
%TO.C,REF\u002A\u002A*%
G36*
X118707101Y-71160298D02*
G01*
X118096996Y-72530617D01*
X116726677Y-71920512D01*
X117336782Y-70550193D01*
X118707101Y-71160298D01*
G37*
D11*
X119783111Y-66899594D03*
X118750000Y-69220000D03*
%TD*%
D16*
%TO.C,REF\u002A\u002A*%
X120162656Y-60991272D03*
D12*
G36*
X121589711Y-64248128D02*
G01*
X119811872Y-64529711D01*
X119530289Y-62751872D01*
X121308128Y-62470289D01*
X121589711Y-64248128D01*
G37*
%TD*%
%TO.C,REF\u002A\u002A*%
G36*
G01*
X146741986Y-156175845D02*
X146741986Y-156175845D01*
G75*
G02*
X147513579Y-157003278I-27920J-799513D01*
G01*
X147513579Y-157003278D01*
G75*
G02*
X146686146Y-157774871I-799513J27920D01*
G01*
X146686146Y-157774871D01*
G75*
G02*
X145914553Y-156947438I27920J799513D01*
G01*
X145914553Y-156947438D01*
G75*
G02*
X146741986Y-156175845I799513J-27920D01*
G01*
G37*
D13*
X146980000Y-149360000D03*
%TD*%
D12*
%TO.C,REF\u002A\u002A*%
G36*
X100568128Y-122950289D02*
G01*
X100849711Y-124728128D01*
X99071872Y-125009711D01*
X98790289Y-123231872D01*
X100568128Y-122950289D01*
G37*
D16*
X97311272Y-124377344D03*
%TD*%
%TO.C,REF\u002A\u002A*%
G36*
G01*
X87509347Y-125256931D02*
X87509347Y-125256931D01*
G75*
G02*
X86752312Y-126097704I-798904J-41869D01*
G01*
X86752312Y-126097704D01*
G75*
G02*
X85911539Y-125340669I-41869J798904D01*
G01*
X85911539Y-125340669D01*
G75*
G02*
X86668574Y-124499896I798904J41869D01*
G01*
X86668574Y-124499896D01*
G75*
G02*
X87509347Y-125256931I41869J-798904D01*
G01*
G37*
D13*
X94320000Y-124900000D03*
%TD*%
D12*
%TO.C,REF\u002A\u002A*%
G36*
X180221872Y-85299711D02*
G01*
X179940289Y-83521872D01*
X181718128Y-83240289D01*
X181999711Y-85018128D01*
X180221872Y-85299711D01*
G37*
D16*
X183478728Y-83872656D03*
%TD*%
D12*
%TO.C,REF\u002A\u002A*%
G36*
X98877435Y-128341627D02*
G01*
X98173228Y-127017206D01*
X99497649Y-126312999D01*
X100201856Y-127637420D01*
X98877435Y-128341627D01*
G37*
D11*
X101572458Y-131812687D03*
X100380000Y-129570000D03*
%TD*%
%TO.C,REF\u002A\u002A*%
X175340405Y-82433111D03*
X177660811Y-83466222D03*
D12*
G36*
X173400107Y-82390212D02*
G01*
X172029788Y-81780107D01*
X172639893Y-80409788D01*
X174010212Y-81019893D01*
X173400107Y-82390212D01*
G37*
%TD*%
D13*
%TO.C,REF\u002A\u002A*%
X154750000Y-63190000D03*
G36*
G01*
X160469734Y-66904438D02*
X160469734Y-66904438D01*
G75*
G02*
X161576381Y-66669213I670936J-435711D01*
G01*
X161576381Y-66669213D01*
G75*
G02*
X161811606Y-67775860I-435711J-670936D01*
G01*
X161811606Y-67775860D01*
G75*
G02*
X160704959Y-68011085I-670936J435711D01*
G01*
X160704959Y-68011085D01*
G75*
G02*
X160469734Y-66904438I435711J670936D01*
G01*
G37*
%TD*%
D11*
%TO.C,REF\u002A\u002A*%
X167025281Y-123283500D03*
X169540562Y-123636999D03*
D12*
G36*
X165148321Y-123777081D02*
G01*
X163662919Y-123568321D01*
X163871679Y-122082919D01*
X165357081Y-122291679D01*
X165148321Y-123777081D01*
G37*
%TD*%
%TO.C,REF\u002A\u002A*%
G36*
G01*
X134261304Y-141612505D02*
X134261304Y-141612505D01*
G75*
G02*
X133143862Y-141435519I-470228J647214D01*
G01*
X133143862Y-141435519D01*
G75*
G02*
X133320848Y-140318077I647214J470228D01*
G01*
X133320848Y-140318077D01*
G75*
G02*
X134438290Y-140495063I470228J-647214D01*
G01*
X134438290Y-140495063D01*
G75*
G02*
X134261304Y-141612505I-647214J-470228D01*
G01*
G37*
D13*
X138270000Y-147130000D03*
%TD*%
%TO.C,REF\u002A\u002A*%
G36*
G01*
X183315930Y-114307019D02*
X183315930Y-114307019D01*
G75*
G02*
X183776100Y-115340577I-286694J-746864D01*
G01*
X183776100Y-115340577D01*
G75*
G02*
X182742542Y-115800747I-746864J286694D01*
G01*
X182742542Y-115800747D01*
G75*
G02*
X182282372Y-114767189I286694J746864D01*
G01*
X182282372Y-114767189D01*
G75*
G02*
X183315930Y-114307019I746864J-286694D01*
G01*
G37*
X185760000Y-107940000D03*
%TD*%
D11*
%TO.C,REF\u002A\u002A*%
X127532681Y-127315753D03*
X129165361Y-129261506D03*
D12*
G36*
X125807557Y-126426624D02*
G01*
X124843376Y-125277557D01*
X125992443Y-124313376D01*
X126956624Y-125462443D01*
X125807557Y-126426624D01*
G37*
%TD*%
D13*
%TO.C,REF\u002A\u002A*%
X182730000Y-133180000D03*
G36*
G01*
X178818209Y-127593383D02*
X178818209Y-127593383D01*
G75*
G02*
X177704026Y-127396922I-458861J655322D01*
G01*
X177704026Y-127396922D01*
G75*
G02*
X177900487Y-126282739I655322J458861D01*
G01*
X177900487Y-126282739D01*
G75*
G02*
X179014670Y-126479200I458861J-655322D01*
G01*
X179014670Y-126479200D01*
G75*
G02*
X178818209Y-127593383I-655322J-458861D01*
G01*
G37*
%TD*%
%TO.C,REF\u002A\u002A*%
X167480000Y-111130000D03*
G36*
G01*
X161350224Y-108140309D02*
X161350224Y-108140309D01*
G75*
G02*
X160280492Y-108508647I-719035J350697D01*
G01*
X160280492Y-108508647D01*
G75*
G02*
X159912154Y-107438915I350697J719035D01*
G01*
X159912154Y-107438915D01*
G75*
G02*
X160981886Y-107070577I719035J-350697D01*
G01*
X160981886Y-107070577D01*
G75*
G02*
X161350224Y-108140309I-350697J-719035D01*
G01*
G37*
%TD*%
%TO.C,REF\u002A\u002A*%
G36*
G01*
X159179734Y-69984438D02*
X159179734Y-69984438D01*
G75*
G02*
X160286381Y-69749213I670936J-435711D01*
G01*
X160286381Y-69749213D01*
G75*
G02*
X160521606Y-70855860I-435711J-670936D01*
G01*
X160521606Y-70855860D01*
G75*
G02*
X159414959Y-71091085I-670936J435711D01*
G01*
X159414959Y-71091085D01*
G75*
G02*
X159179734Y-69984438I435711J670936D01*
G01*
G37*
X153460000Y-66270000D03*
%TD*%
D12*
%TO.C,REF\u002A\u002A*%
G36*
X114157246Y-138110738D02*
G01*
X115339262Y-137187246D01*
X116262754Y-138369262D01*
X115080738Y-139292754D01*
X114157246Y-138110738D01*
G37*
D11*
X111206905Y-141367560D03*
X113208453Y-139803780D03*
%TD*%
%TO.C,REF\u002A\u002A*%
G36*
G01*
X146688696Y-66497495D02*
X146688696Y-66497495D01*
G75*
G02*
X147806138Y-66674481I470228J-647214D01*
G01*
X147806138Y-66674481D01*
G75*
G02*
X147629152Y-67791923I-647214J-470228D01*
G01*
X147629152Y-67791923D01*
G75*
G02*
X146511710Y-67614937I-470228J647214D01*
G01*
X146511710Y-67614937D01*
G75*
G02*
X146688696Y-66497495I647214J470228D01*
G01*
G37*
D13*
X142680000Y-60980000D03*
%TD*%
%TO.C,REF\u002A\u002A*%
G36*
G01*
X177485562Y-123999734D02*
X177485562Y-123999734D01*
G75*
G02*
X177720787Y-125106381I-435711J-670936D01*
G01*
X177720787Y-125106381D01*
G75*
G02*
X176614140Y-125341606I-670936J435711D01*
G01*
X176614140Y-125341606D01*
G75*
G02*
X176378915Y-124234959I435711J670936D01*
G01*
X176378915Y-124234959D01*
G75*
G02*
X177485562Y-123999734I670936J-435711D01*
G01*
G37*
X181200000Y-118280000D03*
%TD*%
D12*
%TO.C,REF\u002A\u002A*%
G36*
X129501021Y-123454627D02*
G01*
X128287495Y-122572949D01*
X129169173Y-121359423D01*
X130382699Y-122241101D01*
X129501021Y-123454627D01*
G37*
D11*
X133444903Y-125392974D03*
X131390000Y-123900000D03*
%TD*%
%TO.C,REF\u002A\u002A*%
X163536390Y-60633038D03*
X165202780Y-58716075D03*
D12*
G36*
X162928076Y-62476012D02*
G01*
X161943988Y-63608076D01*
X160811924Y-62623988D01*
X161796012Y-61491924D01*
X162928076Y-62476012D01*
G37*
%TD*%
%TO.C,REF\u002A\u002A*%
G36*
X118083376Y-89347557D02*
G01*
X119232443Y-88383376D01*
X120196624Y-89532443D01*
X119047557Y-90496624D01*
X118083376Y-89347557D01*
G37*
D11*
X115248494Y-92705361D03*
X117194247Y-91072681D03*
%TD*%
D12*
%TO.C,REF\u002A\u002A*%
G36*
X108834182Y-79334546D02*
G01*
X107605454Y-78474182D01*
X108465818Y-77245454D01*
X109694546Y-78105818D01*
X108834182Y-79334546D01*
G37*
D11*
X112811292Y-81203768D03*
X110730646Y-79746884D03*
%TD*%
D12*
%TO.C,REF\u002A\u002A*%
G36*
X166792754Y-69999262D02*
G01*
X165610738Y-70922754D01*
X164687246Y-69740738D01*
X165869262Y-68817246D01*
X166792754Y-69999262D01*
G37*
D11*
X169743095Y-66742440D03*
X167741547Y-68306220D03*
%TD*%
%TO.C,REF\u002A\u002A*%
G36*
G01*
X136339691Y-125070224D02*
X136339691Y-125070224D01*
G75*
G02*
X135971353Y-124000492I350697J719035D01*
G01*
X135971353Y-124000492D01*
G75*
G02*
X137041085Y-123632154I719035J-350697D01*
G01*
X137041085Y-123632154D01*
G75*
G02*
X137409423Y-124701886I-350697J-719035D01*
G01*
X137409423Y-124701886D01*
G75*
G02*
X136339691Y-125070224I-719035J350697D01*
G01*
G37*
D13*
X133350000Y-131200000D03*
%TD*%
%TO.C,REF\u002A\u002A*%
G36*
G01*
X163933383Y-65571791D02*
X163933383Y-65571791D01*
G75*
G02*
X163736922Y-66685974I-655322J-458861D01*
G01*
X163736922Y-66685974D01*
G75*
G02*
X162622739Y-66489513I-458861J655322D01*
G01*
X162622739Y-66489513D01*
G75*
G02*
X162819200Y-65375330I655322J458861D01*
G01*
X162819200Y-65375330D01*
G75*
G02*
X163933383Y-65571791I458861J-655322D01*
G01*
G37*
X169520000Y-61660000D03*
%TD*%
D11*
%TO.C,REF\u002A\u002A*%
X153417319Y-80794247D03*
X151784639Y-78848494D03*
D12*
G36*
X155142443Y-81683376D02*
G01*
X156106624Y-82832443D01*
X154957557Y-83796624D01*
X153993376Y-82647557D01*
X155142443Y-81683376D01*
G37*
%TD*%
%TO.C,REF\u002A\u002A*%
G36*
G01*
X172235562Y-118489734D02*
X172235562Y-118489734D01*
G75*
G02*
X172470787Y-119596381I-435711J-670936D01*
G01*
X172470787Y-119596381D01*
G75*
G02*
X171364140Y-119831606I-670936J435711D01*
G01*
X171364140Y-119831606D01*
G75*
G02*
X171128915Y-118724959I435711J670936D01*
G01*
X171128915Y-118724959D01*
G75*
G02*
X172235562Y-118489734I670936J-435711D01*
G01*
G37*
D13*
X175950000Y-112770000D03*
%TD*%
%TO.C,REF\u002A\u002A*%
X170280000Y-108820000D03*
G36*
G01*
X164150224Y-105830309D02*
X164150224Y-105830309D01*
G75*
G02*
X163080492Y-106198647I-719035J350697D01*
G01*
X163080492Y-106198647D01*
G75*
G02*
X162712154Y-105128915I350697J719035D01*
G01*
X162712154Y-105128915D01*
G75*
G02*
X163781886Y-104760577I719035J-350697D01*
G01*
X163781886Y-104760577D01*
G75*
G02*
X164150224Y-105830309I-350697J-719035D01*
G01*
G37*
%TD*%
D11*
%TO.C,REF\u002A\u002A*%
X164993116Y-74380646D03*
X163536232Y-76461292D03*
D12*
G36*
X165405454Y-72484182D02*
G01*
X166265818Y-71255454D01*
X167494546Y-72115818D01*
X166634182Y-73344546D01*
X165405454Y-72484182D01*
G37*
%TD*%
D13*
%TO.C,REF\u002A\u002A*%
X136540000Y-149480000D03*
G36*
G01*
X130172981Y-147035930D02*
X130172981Y-147035930D01*
G75*
G02*
X129139423Y-147496100I-746864J286694D01*
G01*
X129139423Y-147496100D01*
G75*
G02*
X128679253Y-146462542I286694J746864D01*
G01*
X128679253Y-146462542D01*
G75*
G02*
X129712811Y-146002372I746864J-286694D01*
G01*
X129712811Y-146002372D01*
G75*
G02*
X130172981Y-147035930I-286694J-746864D01*
G01*
G37*
%TD*%
%TO.C,REF\u002A\u002A*%
X144410000Y-58630000D03*
G36*
G01*
X150777019Y-61074070D02*
X150777019Y-61074070D01*
G75*
G02*
X151810577Y-60613900I746864J-286694D01*
G01*
X151810577Y-60613900D01*
G75*
G02*
X152270747Y-61647458I-286694J-746864D01*
G01*
X152270747Y-61647458D01*
G75*
G02*
X151237189Y-62107628I-746864J286694D01*
G01*
X151237189Y-62107628D01*
G75*
G02*
X150777019Y-61074070I286694J746864D01*
G01*
G37*
%TD*%
%TO.C,REF\u002A\u002A*%
X149240000Y-68440000D03*
G36*
G01*
X154959734Y-72154438D02*
X154959734Y-72154438D01*
G75*
G02*
X156066381Y-71919213I670936J-435711D01*
G01*
X156066381Y-71919213D01*
G75*
G02*
X156301606Y-73025860I-435711J-670936D01*
G01*
X156301606Y-73025860D01*
G75*
G02*
X155194959Y-73261085I-670936J435711D01*
G01*
X155194959Y-73261085D01*
G75*
G02*
X154959734Y-72154438I435711J670936D01*
G01*
G37*
%TD*%
%TO.C,REF\u002A\u002A*%
G36*
G01*
X142300309Y-80239776D02*
X142300309Y-80239776D01*
G75*
G02*
X142668647Y-81309508I-350697J-719035D01*
G01*
X142668647Y-81309508D01*
G75*
G02*
X141598915Y-81677846I-719035J350697D01*
G01*
X141598915Y-81677846D01*
G75*
G02*
X141230577Y-80608114I350697J719035D01*
G01*
X141230577Y-80608114D01*
G75*
G02*
X142300309Y-80239776I719035J-350697D01*
G01*
G37*
X145290000Y-74110000D03*
%TD*%
D11*
%TO.C,REF\u002A\u002A*%
X104746220Y-76908453D03*
X103182440Y-74906905D03*
D12*
G36*
X106439262Y-77857246D02*
G01*
X107362754Y-79039262D01*
X106180738Y-79962754D01*
X105257246Y-78780738D01*
X106439262Y-77857246D01*
G37*
%TD*%
D13*
%TO.C,REF\u002A\u002A*%
X113260000Y-97140000D03*
G36*
G01*
X119389776Y-100129691D02*
X119389776Y-100129691D01*
G75*
G02*
X120459508Y-99761353I719035J-350697D01*
G01*
X120459508Y-99761353D01*
G75*
G02*
X120827846Y-100831085I-350697J-719035D01*
G01*
X120827846Y-100831085D01*
G75*
G02*
X119758114Y-101199423I-719035J350697D01*
G01*
X119758114Y-101199423D01*
G75*
G02*
X119389776Y-100129691I350697J719035D01*
G01*
G37*
%TD*%
%TO.C,REF\u002A\u002A*%
X110460000Y-99450000D03*
G36*
G01*
X116589776Y-102439691D02*
X116589776Y-102439691D01*
G75*
G02*
X117659508Y-102071353I719035J-350697D01*
G01*
X117659508Y-102071353D01*
G75*
G02*
X118027846Y-103141085I-350697J-719035D01*
G01*
X118027846Y-103141085D01*
G75*
G02*
X116958114Y-103509423I-719035J350697D01*
G01*
X116958114Y-103509423D01*
G75*
G02*
X116589776Y-102439691I350697J719035D01*
G01*
G37*
%TD*%
%TO.C,REF\u002A\u002A*%
X153080000Y-54120000D03*
G36*
G01*
X159209776Y-51130309D02*
X159209776Y-51130309D01*
G75*
G02*
X159578114Y-50060577I719035J350697D01*
G01*
X159578114Y-50060577D01*
G75*
G02*
X160647846Y-50428915I350697J-719035D01*
G01*
X160647846Y-50428915D01*
G75*
G02*
X160279508Y-51498647I-719035J-350697D01*
G01*
X160279508Y-51498647D01*
G75*
G02*
X159209776Y-51130309I-350697J719035D01*
G01*
G37*
%TD*%
%TO.C,REF\u002A\u002A*%
X158200000Y-96690000D03*
G36*
G01*
X164523394Y-99244817D02*
X164523394Y-99244817D01*
G75*
G02*
X165564826Y-98802755I741747J-299685D01*
G01*
X165564826Y-98802755D01*
G75*
G02*
X166006888Y-99844187I-299685J-741747D01*
G01*
X166006888Y-99844187D01*
G75*
G02*
X164965456Y-100286249I-741747J299685D01*
G01*
X164965456Y-100286249D01*
G75*
G02*
X164523394Y-99244817I299685J741747D01*
G01*
G37*
%TD*%
%TO.C,REF\u002A\u002A*%
X102620000Y-91280000D03*
G36*
G01*
X106334438Y-85560266D02*
X106334438Y-85560266D01*
G75*
G02*
X106099213Y-84453619I435711J670936D01*
G01*
X106099213Y-84453619D01*
G75*
G02*
X107205860Y-84218394I670936J-435711D01*
G01*
X107205860Y-84218394D01*
G75*
G02*
X107441085Y-85325041I-435711J-670936D01*
G01*
X107441085Y-85325041D01*
G75*
G02*
X106334438Y-85560266I-670936J435711D01*
G01*
G37*
%TD*%
%TO.C,REF\u002A\u002A*%
G36*
G01*
X160361229Y-93897832D02*
X160361229Y-93897832D01*
G75*
G02*
X161491911Y-93937316I545599J-585083D01*
G01*
X161491911Y-93937316D01*
G75*
G02*
X161452427Y-95067998I-585083J-545599D01*
G01*
X161452427Y-95067998D01*
G75*
G02*
X160321745Y-95028514I-545599J585083D01*
G01*
X160321745Y-95028514D01*
G75*
G02*
X160361229Y-93897832I585083J545599D01*
G01*
G37*
X155710000Y-88910000D03*
%TD*%
%TO.C,REF\u002A\u002A*%
X125300000Y-88840000D03*
G36*
G01*
X130287832Y-84188771D02*
X130287832Y-84188771D01*
G75*
G02*
X130327316Y-83058089I585083J545599D01*
G01*
X130327316Y-83058089D01*
G75*
G02*
X131457998Y-83097573I545599J-585083D01*
G01*
X131457998Y-83097573D01*
G75*
G02*
X131418514Y-84228255I-585083J-545599D01*
G01*
X131418514Y-84228255D01*
G75*
G02*
X130287832Y-84188771I-545599J585083D01*
G01*
G37*
%TD*%
D11*
%TO.C,REF\u002A\u002A*%
X120507025Y-94964903D03*
X119014051Y-97019806D03*
D12*
G36*
X120952398Y-93075924D02*
G01*
X121834076Y-91862398D01*
X123047602Y-92744076D01*
X122165924Y-93957602D01*
X120952398Y-93075924D01*
G37*
%TD*%
%TO.C,REF\u002A\u002A*%
G36*
G01*
X120088851Y-81090835D02*
X120088851Y-81090835D01*
G75*
G02*
X119197319Y-80394293I-97495J794037D01*
G01*
X119197319Y-80394293D01*
G75*
G02*
X119893861Y-79502761I794037J97495D01*
G01*
X119893861Y-79502761D01*
G75*
G02*
X120785393Y-80199303I97495J-794037D01*
G01*
X120785393Y-80199303D01*
G75*
G02*
X120088851Y-81090835I-794037J-97495D01*
G01*
G37*
D13*
X120920000Y-87860000D03*
%TD*%
%TO.C,REF\u002A\u002A*%
X110030000Y-96380000D03*
G36*
G01*
X113019691Y-90250224D02*
X113019691Y-90250224D01*
G75*
G02*
X112651353Y-89180492I350697J719035D01*
G01*
X112651353Y-89180492D01*
G75*
G02*
X113721085Y-88812154I719035J-350697D01*
G01*
X113721085Y-88812154D01*
G75*
G02*
X114089423Y-89881886I-350697J-719035D01*
G01*
X114089423Y-89881886D01*
G75*
G02*
X113019691Y-90250224I-719035J350697D01*
G01*
G37*
%TD*%
%TO.C,REF\u002A\u002A*%
G36*
G01*
X139593117Y-75296034D02*
X139593117Y-75296034D01*
G75*
G02*
X140258120Y-76211333I-125148J-790151D01*
G01*
X140258120Y-76211333D01*
G75*
G02*
X139342821Y-76876336I-790151J125148D01*
G01*
X139342821Y-76876336D01*
G75*
G02*
X138677818Y-75961037I125148J790151D01*
G01*
X138677818Y-75961037D01*
G75*
G02*
X139593117Y-75296034I790151J-125148D01*
G01*
G37*
D12*
G36*
X139994997Y-67644702D02*
G01*
X141575298Y-67894997D01*
X141325003Y-69475298D01*
X139744702Y-69225003D01*
X139994997Y-67644702D01*
G37*
%TD*%
%TO.C,REF\u002A\u002A*%
G36*
G01*
X120518771Y-114192168D02*
X120518771Y-114192168D01*
G75*
G02*
X119388089Y-114152684I-545599J585083D01*
G01*
X119388089Y-114152684D01*
G75*
G02*
X119427573Y-113022002I585083J545599D01*
G01*
X119427573Y-113022002D01*
G75*
G02*
X120558255Y-113061486I545599J-585083D01*
G01*
X120558255Y-113061486D01*
G75*
G02*
X120518771Y-114192168I-585083J-545599D01*
G01*
G37*
D13*
X125170000Y-119180000D03*
%TD*%
%TO.C,REF\u002A\u002A*%
X155540000Y-119330000D03*
G36*
G01*
X150552168Y-123981229D02*
X150552168Y-123981229D01*
G75*
G02*
X150512684Y-125111911I-585083J-545599D01*
G01*
X150512684Y-125111911D01*
G75*
G02*
X149382002Y-125072427I-545599J585083D01*
G01*
X149382002Y-125072427D01*
G75*
G02*
X149421486Y-123941745I585083J545599D01*
G01*
X149421486Y-123941745D01*
G75*
G02*
X150552168Y-123981229I545599J-585083D01*
G01*
G37*
%TD*%
D12*
%TO.C,REF\u002A\u002A*%
G36*
X154480793Y-124004489D02*
G01*
X155595511Y-123000793D01*
X156599207Y-124115511D01*
X155484489Y-125119207D01*
X154480793Y-124004489D01*
G37*
D11*
X151764824Y-127459183D03*
X153652412Y-125759592D03*
%TD*%
%TO.C,REF\u002A\u002A*%
G36*
G01*
X108504438Y-89780266D02*
X108504438Y-89780266D01*
G75*
G02*
X108269213Y-88673619I435711J670936D01*
G01*
X108269213Y-88673619D01*
G75*
G02*
X109375860Y-88438394I670936J-435711D01*
G01*
X109375860Y-88438394D01*
G75*
G02*
X109611085Y-89545041I-435711J-670936D01*
G01*
X109611085Y-89545041D01*
G75*
G02*
X108504438Y-89780266I-670936J435711D01*
G01*
G37*
D13*
X104790000Y-95500000D03*
%TD*%
%TO.C,REF\u002A\u002A*%
X186910000Y-135230000D03*
G36*
G01*
X193497614Y-133464854D02*
X193497614Y-133464854D01*
G75*
G02*
X194063300Y-132485058I772741J207055D01*
G01*
X194063300Y-132485058D01*
G75*
G02*
X195043096Y-133050744I207055J-772741D01*
G01*
X195043096Y-133050744D01*
G75*
G02*
X194477410Y-134030540I-772741J-207055D01*
G01*
X194477410Y-134030540D01*
G75*
G02*
X193497614Y-133464854I-207055J772741D01*
G01*
G37*
%TD*%
%TO.C,REF\u002A\u002A*%
X148350000Y-135670000D03*
G36*
G01*
X145795183Y-141993394D02*
X145795183Y-141993394D01*
G75*
G02*
X146237245Y-143034826I-299685J-741747D01*
G01*
X146237245Y-143034826D01*
G75*
G02*
X145195813Y-143476888I-741747J299685D01*
G01*
X145195813Y-143476888D01*
G75*
G02*
X144753751Y-142435456I299685J741747D01*
G01*
X144753751Y-142435456D01*
G75*
G02*
X145795183Y-141993394I741747J-299685D01*
G01*
G37*
%TD*%
%TO.C,REF\u002A\u002A*%
G36*
G01*
X97424070Y-93962981D02*
X97424070Y-93962981D01*
G75*
G02*
X96963900Y-92929423I286694J746864D01*
G01*
X96963900Y-92929423D01*
G75*
G02*
X97997458Y-92469253I746864J-286694D01*
G01*
X97997458Y-92469253D01*
G75*
G02*
X98457628Y-93502811I-286694J-746864D01*
G01*
X98457628Y-93502811D01*
G75*
G02*
X97424070Y-93962981I-746864J286694D01*
G01*
G37*
X94980000Y-100330000D03*
%TD*%
%TO.C,REF\u002A\u002A*%
G36*
G01*
X145205183Y-128143394D02*
X145205183Y-128143394D01*
G75*
G02*
X145647245Y-129184826I-299685J-741747D01*
G01*
X145647245Y-129184826D01*
G75*
G02*
X144605813Y-129626888I-741747J299685D01*
G01*
X144605813Y-129626888D01*
G75*
G02*
X144163751Y-128585456I299685J741747D01*
G01*
X144163751Y-128585456D01*
G75*
G02*
X145205183Y-128143394I741747J-299685D01*
G01*
G37*
X147760000Y-121820000D03*
%TD*%
%TO.C,REF\u002A\u002A*%
G36*
G01*
X178203394Y-98704817D02*
X178203394Y-98704817D01*
G75*
G02*
X179244826Y-98262755I741747J-299685D01*
G01*
X179244826Y-98262755D01*
G75*
G02*
X179686888Y-99304187I-299685J-741747D01*
G01*
X179686888Y-99304187D01*
G75*
G02*
X178645456Y-99746249I-741747J299685D01*
G01*
X178645456Y-99746249D01*
G75*
G02*
X178203394Y-98704817I299685J741747D01*
G01*
G37*
X171880000Y-96150000D03*
%TD*%
D12*
%TO.C,REF\u002A\u002A*%
G36*
X98796012Y-81751924D02*
G01*
X99928076Y-82736012D01*
X98943988Y-83868076D01*
X97811924Y-82883988D01*
X98796012Y-81751924D01*
G37*
D11*
X95036075Y-79477220D03*
X96953038Y-81143610D03*
%TD*%
%TO.C,REF\u002A\u002A*%
G36*
G01*
X135634817Y-80026606D02*
X135634817Y-80026606D01*
G75*
G02*
X135192755Y-78985174I299685J741747D01*
G01*
X135192755Y-78985174D01*
G75*
G02*
X136234187Y-78543112I741747J-299685D01*
G01*
X136234187Y-78543112D01*
G75*
G02*
X136676249Y-79584544I-299685J-741747D01*
G01*
X136676249Y-79584544D01*
G75*
G02*
X135634817Y-80026606I-741747J299685D01*
G01*
G37*
D13*
X133080000Y-86350000D03*
%TD*%
D12*
%TO.C,REF\u002A\u002A*%
G36*
X181913988Y-126458076D02*
G01*
X180781924Y-125473988D01*
X181766012Y-124341924D01*
X182898076Y-125326012D01*
X181913988Y-126458076D01*
G37*
D11*
X185673925Y-128732780D03*
X183756962Y-127066390D03*
%TD*%
D13*
%TO.C,REF\u002A\u002A*%
X156690000Y-84530000D03*
G36*
G01*
X163459165Y-83698851D02*
X163459165Y-83698851D01*
G75*
G02*
X164155707Y-82807319I794037J97495D01*
G01*
X164155707Y-82807319D01*
G75*
G02*
X165047239Y-83503861I97495J-794037D01*
G01*
X165047239Y-83503861D01*
G75*
G02*
X164350697Y-84395393I-794037J-97495D01*
G01*
X164350697Y-84395393D01*
G75*
G02*
X163459165Y-83698851I-97495J794037D01*
G01*
G37*
%TD*%
D11*
%TO.C,REF\u002A\u002A*%
X160322975Y-113095097D03*
X161815949Y-111040194D03*
D12*
G36*
X159877602Y-114984076D02*
G01*
X158995924Y-116197602D01*
X157782398Y-115315924D01*
X158664076Y-114102398D01*
X159877602Y-114984076D01*
G37*
%TD*%
%TO.C,REF\u002A\u002A*%
G36*
G01*
X93067614Y-73134854D02*
X93067614Y-73134854D01*
G75*
G02*
X93633300Y-72155058I772741J207055D01*
G01*
X93633300Y-72155058D01*
G75*
G02*
X94613096Y-72720744I207055J-772741D01*
G01*
X94613096Y-72720744D01*
G75*
G02*
X94047410Y-73700540I-772741J-207055D01*
G01*
X94047410Y-73700540D01*
G75*
G02*
X93067614Y-73134854I-207055J772741D01*
G01*
G37*
D13*
X86480000Y-74900000D03*
%TD*%
%TO.C,REF\u002A\u002A*%
X122680000Y-111400000D03*
G36*
G01*
X116356606Y-108845183D02*
X116356606Y-108845183D01*
G75*
G02*
X115315174Y-109287245I-741747J299685D01*
G01*
X115315174Y-109287245D01*
G75*
G02*
X114873112Y-108245813I299685J741747D01*
G01*
X114873112Y-108245813D01*
G75*
G02*
X115914544Y-107803751I741747J-299685D01*
G01*
X115914544Y-107803751D01*
G75*
G02*
X116356606Y-108845183I-299685J-741747D01*
G01*
G37*
%TD*%
D12*
%TO.C,REF\u002A\u002A*%
G36*
X126359207Y-84165511D02*
G01*
X125244489Y-85169207D01*
X124240793Y-84054489D01*
X125355511Y-83050793D01*
X126359207Y-84165511D01*
G37*
D11*
X129075176Y-80710817D03*
X127187588Y-82410408D03*
%TD*%
D13*
%TO.C,REF\u002A\u002A*%
X97930000Y-74900000D03*
G36*
G01*
X101841791Y-80486617D02*
X101841791Y-80486617D01*
G75*
G02*
X102955974Y-80683078I458861J-655322D01*
G01*
X102955974Y-80683078D01*
G75*
G02*
X102759513Y-81797261I-655322J-458861D01*
G01*
X102759513Y-81797261D01*
G75*
G02*
X101645330Y-81600800I-458861J655322D01*
G01*
X101645330Y-81600800D01*
G75*
G02*
X101841791Y-80486617I655322J458861D01*
G01*
G37*
%TD*%
%TO.C,REF\u002A\u002A*%
G36*
G01*
X139707611Y-82343043D02*
X138024040Y-82490336D01*
G75*
G02*
X137753203Y-82263077I-21789J249048D01*
G01*
X137645130Y-81027794D01*
G75*
G02*
X137872389Y-80756957I249048J21789D01*
G01*
X139555960Y-80609664D01*
G75*
G02*
X139826797Y-80836923I21789J-249048D01*
G01*
X139934870Y-82072206D01*
G75*
G02*
X139707611Y-82343043I-249048J-21789D01*
G01*
G37*
G36*
G01*
X138868593Y-79866744D02*
X138420305Y-79905964D01*
G75*
G02*
X137477791Y-79115100I-75825J866689D01*
G01*
X137477791Y-79115100D01*
G75*
G02*
X138268655Y-78172586I866689J75825D01*
G01*
X138716943Y-78133366D01*
G75*
G02*
X139659457Y-78924230I75825J-866689D01*
G01*
X139659457Y-78924230D01*
G75*
G02*
X138868593Y-79866744I-866689J-75825D01*
G01*
G37*
%TD*%
D12*
%TO.C,REF\u002A\u002A*%
G36*
X162706624Y-118672443D02*
G01*
X161557557Y-119636624D01*
X160593376Y-118487557D01*
X161742443Y-117523376D01*
X162706624Y-118672443D01*
G37*
D11*
X165541506Y-115314639D03*
X163595753Y-116947319D03*
%TD*%
%TO.C,REF\u002A\u002A*%
G36*
G01*
X160751149Y-127079165D02*
X160751149Y-127079165D01*
G75*
G02*
X161642681Y-127775707I97495J-794037D01*
G01*
X161642681Y-127775707D01*
G75*
G02*
X160946139Y-128667239I-794037J-97495D01*
G01*
X160946139Y-128667239D01*
G75*
G02*
X160054607Y-127970697I-97495J794037D01*
G01*
X160054607Y-127970697D01*
G75*
G02*
X160751149Y-127079165I794037J97495D01*
G01*
G37*
D13*
X159920000Y-120310000D03*
%TD*%
%TO.C,REF\u002A\u002A*%
G36*
G01*
X111065146Y-157157614D02*
X111065146Y-157157614D01*
G75*
G02*
X112044942Y-157723300I207055J-772741D01*
G01*
X112044942Y-157723300D01*
G75*
G02*
X111479256Y-158703096I-772741J-207055D01*
G01*
X111479256Y-158703096D01*
G75*
G02*
X110499460Y-158137410I-207055J772741D01*
G01*
X110499460Y-158137410D01*
G75*
G02*
X111065146Y-157157614I772741J207055D01*
G01*
G37*
X109300000Y-150570000D03*
%TD*%
%TO.C,REF\u002A\u002A*%
G36*
G01*
X103254438Y-84270266D02*
X103254438Y-84270266D01*
G75*
G02*
X103019213Y-83163619I435711J670936D01*
G01*
X103019213Y-83163619D01*
G75*
G02*
X104125860Y-82928394I670936J-435711D01*
G01*
X104125860Y-82928394D01*
G75*
G02*
X104361085Y-84035041I-435711J-670936D01*
G01*
X104361085Y-84035041D01*
G75*
G02*
X103254438Y-84270266I-670936J435711D01*
G01*
G37*
X99540000Y-89990000D03*
%TD*%
D11*
%TO.C,REF\u002A\u002A*%
X118740408Y-117292412D03*
X117040817Y-115404824D03*
D12*
G36*
X120495511Y-118120793D02*
G01*
X121499207Y-119235511D01*
X120384489Y-120239207D01*
X119380793Y-119124489D01*
X120495511Y-118120793D01*
G37*
%TD*%
D13*
%TO.C,REF\u002A\u002A*%
X124190000Y-123560000D03*
G36*
G01*
X117420835Y-124391149D02*
X117420835Y-124391149D01*
G75*
G02*
X116724293Y-125282681I-794037J-97495D01*
G01*
X116724293Y-125282681D01*
G75*
G02*
X115832761Y-124586139I-97495J794037D01*
G01*
X115832761Y-124586139D01*
G75*
G02*
X116529303Y-123694607I794037J97495D01*
G01*
X116529303Y-123694607D01*
G75*
G02*
X117420835Y-124391149I97495J-794037D01*
G01*
G37*
%TD*%
M02*
