%TF.GenerationSoftware,KiCad,Pcbnew,(5.1.7)-1*%
%TF.CreationDate,2021-05-19T11:45:42-05:00*%
%TF.ProjectId,FOURSES ARPSERGE,464f5552-5345-4532-9041-525053455247,rev?*%
%TF.SameCoordinates,Original*%
%TF.FileFunction,Legend,Bot*%
%TF.FilePolarity,Positive*%
%FSLAX46Y46*%
G04 Gerber Fmt 4.6, Leading zero omitted, Abs format (unit mm)*
G04 Created by KiCad (PCBNEW (5.1.7)-1) date 2021-05-19 11:45:42*
%MOMM*%
%LPD*%
G01*
G04 APERTURE LIST*
%ADD10C,0.300000*%
%ADD11C,0.010000*%
G04 APERTURE END LIST*
D10*
X120082857Y-162708571D02*
X120082857Y-161208571D01*
X119511428Y-161208571D01*
X119368571Y-161280000D01*
X119297142Y-161351428D01*
X119225714Y-161494285D01*
X119225714Y-161708571D01*
X119297142Y-161851428D01*
X119368571Y-161922857D01*
X119511428Y-161994285D01*
X120082857Y-161994285D01*
X117725714Y-162565714D02*
X117797142Y-162637142D01*
X118011428Y-162708571D01*
X118154285Y-162708571D01*
X118368571Y-162637142D01*
X118511428Y-162494285D01*
X118582857Y-162351428D01*
X118654285Y-162065714D01*
X118654285Y-161851428D01*
X118582857Y-161565714D01*
X118511428Y-161422857D01*
X118368571Y-161280000D01*
X118154285Y-161208571D01*
X118011428Y-161208571D01*
X117797142Y-161280000D01*
X117725714Y-161351428D01*
X116582857Y-161922857D02*
X116368571Y-161994285D01*
X116297142Y-162065714D01*
X116225714Y-162208571D01*
X116225714Y-162422857D01*
X116297142Y-162565714D01*
X116368571Y-162637142D01*
X116511428Y-162708571D01*
X117082857Y-162708571D01*
X117082857Y-161208571D01*
X116582857Y-161208571D01*
X116440000Y-161280000D01*
X116368571Y-161351428D01*
X116297142Y-161494285D01*
X116297142Y-161637142D01*
X116368571Y-161780000D01*
X116440000Y-161851428D01*
X116582857Y-161922857D01*
X117082857Y-161922857D01*
X113940000Y-161922857D02*
X113725714Y-161994285D01*
X113654285Y-162065714D01*
X113582857Y-162208571D01*
X113582857Y-162422857D01*
X113654285Y-162565714D01*
X113725714Y-162637142D01*
X113868571Y-162708571D01*
X114440000Y-162708571D01*
X114440000Y-161208571D01*
X113940000Y-161208571D01*
X113797142Y-161280000D01*
X113725714Y-161351428D01*
X113654285Y-161494285D01*
X113654285Y-161637142D01*
X113725714Y-161780000D01*
X113797142Y-161851428D01*
X113940000Y-161922857D01*
X114440000Y-161922857D01*
X113082857Y-161708571D02*
X112725714Y-162708571D01*
X112368571Y-161708571D02*
X112725714Y-162708571D01*
X112868571Y-163065714D01*
X112940000Y-163137142D01*
X113082857Y-163208571D01*
X111797142Y-162565714D02*
X111725714Y-162637142D01*
X111797142Y-162708571D01*
X111868571Y-162637142D01*
X111797142Y-162565714D01*
X111797142Y-162708571D01*
X111797142Y-161780000D02*
X111725714Y-161851428D01*
X111797142Y-161922857D01*
X111868571Y-161851428D01*
X111797142Y-161780000D01*
X111797142Y-161922857D01*
D11*
%TO.C,G\u002A\u002A\u002A*%
G36*
X97754241Y-160472779D02*
G01*
X97709404Y-160532104D01*
X97687834Y-160592335D01*
X97646578Y-160765968D01*
X97628527Y-160897585D01*
X97634093Y-160990632D01*
X97663687Y-161048549D01*
X97717722Y-161074780D01*
X97745894Y-161077169D01*
X97789453Y-161052622D01*
X97834727Y-160980052D01*
X97841382Y-160965512D01*
X97872555Y-160874144D01*
X97897806Y-160763648D01*
X97906795Y-160701824D01*
X97913571Y-160613069D01*
X97908575Y-160557548D01*
X97888626Y-160518375D01*
X97867932Y-160495470D01*
X97808469Y-160459822D01*
X97754241Y-160472779D01*
G37*
X97754241Y-160472779D02*
X97709404Y-160532104D01*
X97687834Y-160592335D01*
X97646578Y-160765968D01*
X97628527Y-160897585D01*
X97634093Y-160990632D01*
X97663687Y-161048549D01*
X97717722Y-161074780D01*
X97745894Y-161077169D01*
X97789453Y-161052622D01*
X97834727Y-160980052D01*
X97841382Y-160965512D01*
X97872555Y-160874144D01*
X97897806Y-160763648D01*
X97906795Y-160701824D01*
X97913571Y-160613069D01*
X97908575Y-160557548D01*
X97888626Y-160518375D01*
X97867932Y-160495470D01*
X97808469Y-160459822D01*
X97754241Y-160472779D01*
G36*
X98155329Y-160577897D02*
G01*
X98111893Y-160650447D01*
X98079821Y-160758190D01*
X98061762Y-160895944D01*
X98058966Y-160963144D01*
X98055926Y-161141122D01*
X98136195Y-161148913D01*
X98181709Y-161150067D01*
X98212069Y-161135485D01*
X98237653Y-161094568D01*
X98268838Y-161016717D01*
X98270828Y-161011405D01*
X98303409Y-160896070D01*
X98318311Y-160780160D01*
X98315676Y-160676308D01*
X98295649Y-160597147D01*
X98265686Y-160559099D01*
X98207477Y-160545720D01*
X98155329Y-160577897D01*
G37*
X98155329Y-160577897D02*
X98111893Y-160650447D01*
X98079821Y-160758190D01*
X98061762Y-160895944D01*
X98058966Y-160963144D01*
X98055926Y-161141122D01*
X98136195Y-161148913D01*
X98181709Y-161150067D01*
X98212069Y-161135485D01*
X98237653Y-161094568D01*
X98268838Y-161016717D01*
X98270828Y-161011405D01*
X98303409Y-160896070D01*
X98318311Y-160780160D01*
X98315676Y-160676308D01*
X98295649Y-160597147D01*
X98265686Y-160559099D01*
X98207477Y-160545720D01*
X98155329Y-160577897D01*
G36*
X97536230Y-161137404D02*
G01*
X97534705Y-161150178D01*
X97551683Y-161190585D01*
X97595430Y-161252723D01*
X97655164Y-161324031D01*
X97720106Y-161391949D01*
X97779475Y-161443918D01*
X97797524Y-161456376D01*
X97917044Y-161501662D01*
X98046617Y-161500698D01*
X98132203Y-161474131D01*
X98182278Y-161445386D01*
X98233575Y-161406426D01*
X98274703Y-161367687D01*
X98294271Y-161339606D01*
X98287531Y-161331812D01*
X98256739Y-161342874D01*
X98196970Y-161371250D01*
X98150309Y-161395376D01*
X98070084Y-161432098D01*
X97998295Y-161455057D01*
X97970141Y-161458939D01*
X97879847Y-161436020D01*
X97781519Y-161371436D01*
X97684119Y-161271450D01*
X97663014Y-161244400D01*
X97599454Y-161166825D01*
X97556626Y-161130743D01*
X97536230Y-161137404D01*
G37*
X97536230Y-161137404D02*
X97534705Y-161150178D01*
X97551683Y-161190585D01*
X97595430Y-161252723D01*
X97655164Y-161324031D01*
X97720106Y-161391949D01*
X97779475Y-161443918D01*
X97797524Y-161456376D01*
X97917044Y-161501662D01*
X98046617Y-161500698D01*
X98132203Y-161474131D01*
X98182278Y-161445386D01*
X98233575Y-161406426D01*
X98274703Y-161367687D01*
X98294271Y-161339606D01*
X98287531Y-161331812D01*
X98256739Y-161342874D01*
X98196970Y-161371250D01*
X98150309Y-161395376D01*
X98070084Y-161432098D01*
X97998295Y-161455057D01*
X97970141Y-161458939D01*
X97879847Y-161436020D01*
X97781519Y-161371436D01*
X97684119Y-161271450D01*
X97663014Y-161244400D01*
X97599454Y-161166825D01*
X97556626Y-161130743D01*
X97536230Y-161137404D01*
G36*
X96220176Y-160604422D02*
G01*
X96113186Y-160624568D01*
X95997054Y-160653321D01*
X95881357Y-160688254D01*
X95775667Y-160726940D01*
X95689560Y-160766951D01*
X95632608Y-160805861D01*
X95624976Y-160813992D01*
X95603263Y-160848096D01*
X95617903Y-160855912D01*
X95671178Y-160837137D01*
X95754925Y-160796808D01*
X95849732Y-160757155D01*
X95972371Y-160717527D01*
X96104826Y-160682599D01*
X96229080Y-160657048D01*
X96327114Y-160645550D01*
X96338638Y-160645326D01*
X96380532Y-160634876D01*
X96390561Y-160619900D01*
X96368438Y-160599661D01*
X96308451Y-160595310D01*
X96220176Y-160604422D01*
G37*
X96220176Y-160604422D02*
X96113186Y-160624568D01*
X95997054Y-160653321D01*
X95881357Y-160688254D01*
X95775667Y-160726940D01*
X95689560Y-160766951D01*
X95632608Y-160805861D01*
X95624976Y-160813992D01*
X95603263Y-160848096D01*
X95617903Y-160855912D01*
X95671178Y-160837137D01*
X95754925Y-160796808D01*
X95849732Y-160757155D01*
X95972371Y-160717527D01*
X96104826Y-160682599D01*
X96229080Y-160657048D01*
X96327114Y-160645550D01*
X96338638Y-160645326D01*
X96380532Y-160634876D01*
X96390561Y-160619900D01*
X96368438Y-160599661D01*
X96308451Y-160595310D01*
X96220176Y-160604422D01*
G36*
X95522416Y-160919425D02*
G01*
X95499917Y-160951840D01*
X95481632Y-161001921D01*
X95482835Y-161035198D01*
X95500527Y-161038946D01*
X95516722Y-161023139D01*
X95548890Y-160970056D01*
X95563257Y-160923449D01*
X95555096Y-160900053D01*
X95551618Y-160899580D01*
X95522416Y-160919425D01*
G37*
X95522416Y-160919425D02*
X95499917Y-160951840D01*
X95481632Y-161001921D01*
X95482835Y-161035198D01*
X95500527Y-161038946D01*
X95516722Y-161023139D01*
X95548890Y-160970056D01*
X95563257Y-160923449D01*
X95555096Y-160900053D01*
X95551618Y-160899580D01*
X95522416Y-160919425D01*
G36*
X107111725Y-160962206D02*
G01*
X107022389Y-160971497D01*
X106956358Y-160979304D01*
X106926569Y-160984084D01*
X106926057Y-160984363D01*
X106923334Y-161021145D01*
X106939081Y-161083217D01*
X106966681Y-161151640D01*
X106999514Y-161207472D01*
X107007243Y-161216686D01*
X107072267Y-161264814D01*
X107141084Y-161282962D01*
X107199386Y-161270684D01*
X107232862Y-161227535D01*
X107233815Y-161223754D01*
X107247293Y-161162805D01*
X107265024Y-161080739D01*
X107270428Y-161055402D01*
X107294050Y-160944256D01*
X107111725Y-160962206D01*
G37*
X107111725Y-160962206D02*
X107022389Y-160971497D01*
X106956358Y-160979304D01*
X106926569Y-160984084D01*
X106926057Y-160984363D01*
X106923334Y-161021145D01*
X106939081Y-161083217D01*
X106966681Y-161151640D01*
X106999514Y-161207472D01*
X107007243Y-161216686D01*
X107072267Y-161264814D01*
X107141084Y-161282962D01*
X107199386Y-161270684D01*
X107232862Y-161227535D01*
X107233815Y-161223754D01*
X107247293Y-161162805D01*
X107265024Y-161080739D01*
X107270428Y-161055402D01*
X107294050Y-160944256D01*
X107111725Y-160962206D01*
G36*
X107490793Y-160913546D02*
G01*
X107480694Y-160956317D01*
X107476396Y-161040674D01*
X107476046Y-161087551D01*
X107477543Y-161191232D01*
X107487373Y-161251825D01*
X107513542Y-161277092D01*
X107564057Y-161274795D01*
X107646529Y-161252811D01*
X107732862Y-161206545D01*
X107789891Y-161133237D01*
X107806577Y-161061231D01*
X107796670Y-161024508D01*
X107759742Y-160995270D01*
X107684979Y-160965440D01*
X107673093Y-160961484D01*
X107592887Y-160934893D01*
X107530367Y-160913771D01*
X107507828Y-160905869D01*
X107490793Y-160913546D01*
G37*
X107490793Y-160913546D02*
X107480694Y-160956317D01*
X107476396Y-161040674D01*
X107476046Y-161087551D01*
X107477543Y-161191232D01*
X107487373Y-161251825D01*
X107513542Y-161277092D01*
X107564057Y-161274795D01*
X107646529Y-161252811D01*
X107732862Y-161206545D01*
X107789891Y-161133237D01*
X107806577Y-161061231D01*
X107796670Y-161024508D01*
X107759742Y-160995270D01*
X107684979Y-160965440D01*
X107673093Y-160961484D01*
X107592887Y-160934893D01*
X107530367Y-160913771D01*
X107507828Y-160905869D01*
X107490793Y-160913546D01*
G36*
X95458224Y-161190285D02*
G01*
X95455538Y-161206695D01*
X95462807Y-161293179D01*
X95498617Y-161405524D01*
X95557718Y-161531590D01*
X95634858Y-161659240D01*
X95676228Y-161716824D01*
X95773159Y-161833430D01*
X95894855Y-161964265D01*
X96026712Y-162094747D01*
X96154126Y-162210292D01*
X96240408Y-162280200D01*
X96310031Y-162326420D01*
X96355255Y-162345844D01*
X96370480Y-162339749D01*
X96350104Y-162309408D01*
X96301572Y-162266273D01*
X96184206Y-162166701D01*
X96058306Y-162049338D01*
X95933082Y-161923809D01*
X95817742Y-161799736D01*
X95721495Y-161686740D01*
X95653552Y-161594446D01*
X95644263Y-161579474D01*
X95588100Y-161474814D01*
X95537031Y-161362464D01*
X95506875Y-161280961D01*
X95482412Y-161207213D01*
X95467202Y-161178444D01*
X95458224Y-161190285D01*
G37*
X95458224Y-161190285D02*
X95455538Y-161206695D01*
X95462807Y-161293179D01*
X95498617Y-161405524D01*
X95557718Y-161531590D01*
X95634858Y-161659240D01*
X95676228Y-161716824D01*
X95773159Y-161833430D01*
X95894855Y-161964265D01*
X96026712Y-162094747D01*
X96154126Y-162210292D01*
X96240408Y-162280200D01*
X96310031Y-162326420D01*
X96355255Y-162345844D01*
X96370480Y-162339749D01*
X96350104Y-162309408D01*
X96301572Y-162266273D01*
X96184206Y-162166701D01*
X96058306Y-162049338D01*
X95933082Y-161923809D01*
X95817742Y-161799736D01*
X95721495Y-161686740D01*
X95653552Y-161594446D01*
X95644263Y-161579474D01*
X95588100Y-161474814D01*
X95537031Y-161362464D01*
X95506875Y-161280961D01*
X95482412Y-161207213D01*
X95467202Y-161178444D01*
X95458224Y-161190285D01*
G36*
X99605341Y-161118793D02*
G01*
X99624430Y-161137479D01*
X99654322Y-161151296D01*
X99940485Y-161273579D01*
X100183016Y-161396787D01*
X100389015Y-161525319D01*
X100565583Y-161663575D01*
X100710754Y-161805994D01*
X100863389Y-161999073D01*
X100965853Y-162191050D01*
X101018752Y-162383554D01*
X101022692Y-162578213D01*
X101016301Y-162626164D01*
X101003500Y-162720870D01*
X101004135Y-162767838D01*
X101018636Y-162768488D01*
X101046451Y-162726032D01*
X101063243Y-162669437D01*
X101074530Y-162580027D01*
X101078040Y-162482794D01*
X101074230Y-162379350D01*
X101060451Y-162296306D01*
X101031224Y-162211998D01*
X100983888Y-162110445D01*
X100851389Y-161892362D01*
X100677984Y-161694301D01*
X100489683Y-161533576D01*
X100386310Y-161462480D01*
X100255189Y-161382650D01*
X100110419Y-161301685D01*
X99966096Y-161227185D01*
X99836319Y-161166748D01*
X99740139Y-161129536D01*
X99671488Y-161112719D01*
X99623791Y-161109840D01*
X99605341Y-161118793D01*
G37*
X99605341Y-161118793D02*
X99624430Y-161137479D01*
X99654322Y-161151296D01*
X99940485Y-161273579D01*
X100183016Y-161396787D01*
X100389015Y-161525319D01*
X100565583Y-161663575D01*
X100710754Y-161805994D01*
X100863389Y-161999073D01*
X100965853Y-162191050D01*
X101018752Y-162383554D01*
X101022692Y-162578213D01*
X101016301Y-162626164D01*
X101003500Y-162720870D01*
X101004135Y-162767838D01*
X101018636Y-162768488D01*
X101046451Y-162726032D01*
X101063243Y-162669437D01*
X101074530Y-162580027D01*
X101078040Y-162482794D01*
X101074230Y-162379350D01*
X101060451Y-162296306D01*
X101031224Y-162211998D01*
X100983888Y-162110445D01*
X100851389Y-161892362D01*
X100677984Y-161694301D01*
X100489683Y-161533576D01*
X100386310Y-161462480D01*
X100255189Y-161382650D01*
X100110419Y-161301685D01*
X99966096Y-161227185D01*
X99836319Y-161166748D01*
X99740139Y-161129536D01*
X99671488Y-161112719D01*
X99623791Y-161109840D01*
X99605341Y-161118793D01*
G36*
X100003188Y-162078711D02*
G01*
X99854926Y-162118336D01*
X99736217Y-162194586D01*
X99712403Y-162217711D01*
X99639086Y-162324159D01*
X99614149Y-162436472D01*
X99636003Y-162551088D01*
X99703059Y-162664447D01*
X99813726Y-162772989D01*
X99966417Y-162873151D01*
X100016605Y-162899269D01*
X100174815Y-162961509D01*
X100340835Y-162999064D01*
X100500599Y-163010337D01*
X100640043Y-162993731D01*
X100693814Y-162976155D01*
X100789159Y-162936209D01*
X100789064Y-163004831D01*
X100766386Y-163110699D01*
X100703269Y-163196389D01*
X100606610Y-163260304D01*
X100483307Y-163300843D01*
X100340256Y-163316407D01*
X100184356Y-163305397D01*
X100022502Y-163266213D01*
X99892026Y-163212848D01*
X99777203Y-163146209D01*
X99673404Y-163067422D01*
X99589633Y-162985186D01*
X99534894Y-162908200D01*
X99517888Y-162851382D01*
X99524998Y-162785202D01*
X99541440Y-162711317D01*
X99551836Y-162650239D01*
X99543739Y-162616160D01*
X99542681Y-162615405D01*
X99520928Y-162625431D01*
X99499858Y-162671674D01*
X99482969Y-162739580D01*
X99473758Y-162814594D01*
X99475720Y-162882161D01*
X99476900Y-162889225D01*
X99519352Y-162987294D01*
X99607716Y-163087071D01*
X99737412Y-163184250D01*
X99869039Y-163257818D01*
X99973208Y-163306058D01*
X100059435Y-163335278D01*
X100150177Y-163351076D01*
X100267890Y-163359050D01*
X100276570Y-163359413D01*
X100392000Y-163362101D01*
X100474383Y-163357120D01*
X100541272Y-163341826D01*
X100610224Y-163313571D01*
X100623894Y-163307056D01*
X100742218Y-163228406D01*
X100814397Y-163129250D01*
X100839963Y-163010243D01*
X100840010Y-163004471D01*
X100850880Y-162929186D01*
X100877050Y-162868939D01*
X100877340Y-162868554D01*
X100911223Y-162785103D01*
X100913328Y-162676376D01*
X100909085Y-162658394D01*
X100862744Y-162658394D01*
X100856922Y-162761415D01*
X100805528Y-162844320D01*
X100707645Y-162910023D01*
X100704475Y-162911526D01*
X100632462Y-162939199D01*
X100557186Y-162951435D01*
X100458738Y-162950747D01*
X100415814Y-162947969D01*
X100304959Y-162934720D01*
X100197088Y-162913488D01*
X100123422Y-162891586D01*
X99969003Y-162817193D01*
X99842172Y-162728408D01*
X99746575Y-162630698D01*
X99685857Y-162529525D01*
X99663660Y-162430355D01*
X99683631Y-162338651D01*
X99719966Y-162286677D01*
X99773929Y-162242876D01*
X99809035Y-162244535D01*
X99822872Y-162291373D01*
X99822993Y-162298594D01*
X99843858Y-162359131D01*
X99899507Y-162432293D01*
X99979523Y-162507408D01*
X100073491Y-162573808D01*
X100113097Y-162595764D01*
X100286056Y-162655974D01*
X100407778Y-162672874D01*
X100504921Y-162676678D01*
X100571116Y-162669168D01*
X100625692Y-162646638D01*
X100660954Y-162624333D01*
X100721315Y-162570996D01*
X100761069Y-162513695D01*
X100765625Y-162501096D01*
X100777494Y-162463807D01*
X100789841Y-162462868D01*
X100810711Y-162502592D01*
X100823911Y-162532347D01*
X100862744Y-162658394D01*
X100909085Y-162658394D01*
X100884872Y-162555789D01*
X100840170Y-162458485D01*
X100745697Y-162334220D01*
X100454958Y-162334220D01*
X100448963Y-162347487D01*
X100434704Y-162348829D01*
X100400227Y-162330363D01*
X100395245Y-162323695D01*
X100399338Y-162309247D01*
X100419170Y-162313703D01*
X100454958Y-162334220D01*
X100745697Y-162334220D01*
X100724803Y-162306738D01*
X100708948Y-162294401D01*
X100480406Y-162294401D01*
X100461742Y-162297978D01*
X100429247Y-162280468D01*
X100404535Y-162255678D01*
X100383912Y-162227491D01*
X100398572Y-162229364D01*
X100426847Y-162243860D01*
X100474657Y-162275336D01*
X100480406Y-162294401D01*
X100708948Y-162294401D01*
X100575198Y-162190333D01*
X100396250Y-162112138D01*
X100192853Y-162075022D01*
X100185058Y-162074483D01*
X100003188Y-162078711D01*
G37*
X100003188Y-162078711D02*
X99854926Y-162118336D01*
X99736217Y-162194586D01*
X99712403Y-162217711D01*
X99639086Y-162324159D01*
X99614149Y-162436472D01*
X99636003Y-162551088D01*
X99703059Y-162664447D01*
X99813726Y-162772989D01*
X99966417Y-162873151D01*
X100016605Y-162899269D01*
X100174815Y-162961509D01*
X100340835Y-162999064D01*
X100500599Y-163010337D01*
X100640043Y-162993731D01*
X100693814Y-162976155D01*
X100789159Y-162936209D01*
X100789064Y-163004831D01*
X100766386Y-163110699D01*
X100703269Y-163196389D01*
X100606610Y-163260304D01*
X100483307Y-163300843D01*
X100340256Y-163316407D01*
X100184356Y-163305397D01*
X100022502Y-163266213D01*
X99892026Y-163212848D01*
X99777203Y-163146209D01*
X99673404Y-163067422D01*
X99589633Y-162985186D01*
X99534894Y-162908200D01*
X99517888Y-162851382D01*
X99524998Y-162785202D01*
X99541440Y-162711317D01*
X99551836Y-162650239D01*
X99543739Y-162616160D01*
X99542681Y-162615405D01*
X99520928Y-162625431D01*
X99499858Y-162671674D01*
X99482969Y-162739580D01*
X99473758Y-162814594D01*
X99475720Y-162882161D01*
X99476900Y-162889225D01*
X99519352Y-162987294D01*
X99607716Y-163087071D01*
X99737412Y-163184250D01*
X99869039Y-163257818D01*
X99973208Y-163306058D01*
X100059435Y-163335278D01*
X100150177Y-163351076D01*
X100267890Y-163359050D01*
X100276570Y-163359413D01*
X100392000Y-163362101D01*
X100474383Y-163357120D01*
X100541272Y-163341826D01*
X100610224Y-163313571D01*
X100623894Y-163307056D01*
X100742218Y-163228406D01*
X100814397Y-163129250D01*
X100839963Y-163010243D01*
X100840010Y-163004471D01*
X100850880Y-162929186D01*
X100877050Y-162868939D01*
X100877340Y-162868554D01*
X100911223Y-162785103D01*
X100913328Y-162676376D01*
X100909085Y-162658394D01*
X100862744Y-162658394D01*
X100856922Y-162761415D01*
X100805528Y-162844320D01*
X100707645Y-162910023D01*
X100704475Y-162911526D01*
X100632462Y-162939199D01*
X100557186Y-162951435D01*
X100458738Y-162950747D01*
X100415814Y-162947969D01*
X100304959Y-162934720D01*
X100197088Y-162913488D01*
X100123422Y-162891586D01*
X99969003Y-162817193D01*
X99842172Y-162728408D01*
X99746575Y-162630698D01*
X99685857Y-162529525D01*
X99663660Y-162430355D01*
X99683631Y-162338651D01*
X99719966Y-162286677D01*
X99773929Y-162242876D01*
X99809035Y-162244535D01*
X99822872Y-162291373D01*
X99822993Y-162298594D01*
X99843858Y-162359131D01*
X99899507Y-162432293D01*
X99979523Y-162507408D01*
X100073491Y-162573808D01*
X100113097Y-162595764D01*
X100286056Y-162655974D01*
X100407778Y-162672874D01*
X100504921Y-162676678D01*
X100571116Y-162669168D01*
X100625692Y-162646638D01*
X100660954Y-162624333D01*
X100721315Y-162570996D01*
X100761069Y-162513695D01*
X100765625Y-162501096D01*
X100777494Y-162463807D01*
X100789841Y-162462868D01*
X100810711Y-162502592D01*
X100823911Y-162532347D01*
X100862744Y-162658394D01*
X100909085Y-162658394D01*
X100884872Y-162555789D01*
X100840170Y-162458485D01*
X100745697Y-162334220D01*
X100454958Y-162334220D01*
X100448963Y-162347487D01*
X100434704Y-162348829D01*
X100400227Y-162330363D01*
X100395245Y-162323695D01*
X100399338Y-162309247D01*
X100419170Y-162313703D01*
X100454958Y-162334220D01*
X100745697Y-162334220D01*
X100724803Y-162306738D01*
X100708948Y-162294401D01*
X100480406Y-162294401D01*
X100461742Y-162297978D01*
X100429247Y-162280468D01*
X100404535Y-162255678D01*
X100383912Y-162227491D01*
X100398572Y-162229364D01*
X100426847Y-162243860D01*
X100474657Y-162275336D01*
X100480406Y-162294401D01*
X100708948Y-162294401D01*
X100575198Y-162190333D01*
X100396250Y-162112138D01*
X100192853Y-162075022D01*
X100185058Y-162074483D01*
X100003188Y-162078711D01*
G36*
X108446220Y-161309401D02*
G01*
X108377628Y-161370775D01*
X108292687Y-161449828D01*
X108198490Y-161539585D01*
X108102133Y-161633072D01*
X108010711Y-161723317D01*
X107931317Y-161803345D01*
X107871046Y-161866183D01*
X107836994Y-161904856D01*
X107832002Y-161913157D01*
X107848773Y-161940497D01*
X107891373Y-161988582D01*
X107919556Y-162016908D01*
X108007110Y-162101768D01*
X108264005Y-161859427D01*
X108520900Y-161617085D01*
X108766690Y-161878459D01*
X108728454Y-162610553D01*
X108718996Y-162797961D01*
X108711038Y-162968211D01*
X108704829Y-163114879D01*
X108700618Y-163231539D01*
X108698656Y-163311764D01*
X108699192Y-163349129D01*
X108699698Y-163350988D01*
X108728262Y-163359210D01*
X108790183Y-163370706D01*
X108830140Y-163376888D01*
X108910486Y-163384094D01*
X108952152Y-163375032D01*
X108962772Y-163361076D01*
X108967107Y-163328721D01*
X108974225Y-163251599D01*
X108983670Y-163135688D01*
X108994986Y-162986969D01*
X109007717Y-162811422D01*
X109021406Y-162615027D01*
X109034187Y-162425106D01*
X109051223Y-162158553D01*
X109063787Y-161940526D01*
X109071955Y-161768906D01*
X109075801Y-161641572D01*
X109075402Y-161556403D01*
X109070832Y-161511279D01*
X109066820Y-161502927D01*
X109026979Y-161492465D01*
X108956643Y-161488136D01*
X108916064Y-161488873D01*
X108849607Y-161489565D01*
X108801211Y-161479254D01*
X108755563Y-161450157D01*
X108697348Y-161394489D01*
X108665817Y-161361681D01*
X108539217Y-161228967D01*
X108446220Y-161309401D01*
G37*
X108446220Y-161309401D02*
X108377628Y-161370775D01*
X108292687Y-161449828D01*
X108198490Y-161539585D01*
X108102133Y-161633072D01*
X108010711Y-161723317D01*
X107931317Y-161803345D01*
X107871046Y-161866183D01*
X107836994Y-161904856D01*
X107832002Y-161913157D01*
X107848773Y-161940497D01*
X107891373Y-161988582D01*
X107919556Y-162016908D01*
X108007110Y-162101768D01*
X108264005Y-161859427D01*
X108520900Y-161617085D01*
X108766690Y-161878459D01*
X108728454Y-162610553D01*
X108718996Y-162797961D01*
X108711038Y-162968211D01*
X108704829Y-163114879D01*
X108700618Y-163231539D01*
X108698656Y-163311764D01*
X108699192Y-163349129D01*
X108699698Y-163350988D01*
X108728262Y-163359210D01*
X108790183Y-163370706D01*
X108830140Y-163376888D01*
X108910486Y-163384094D01*
X108952152Y-163375032D01*
X108962772Y-163361076D01*
X108967107Y-163328721D01*
X108974225Y-163251599D01*
X108983670Y-163135688D01*
X108994986Y-162986969D01*
X109007717Y-162811422D01*
X109021406Y-162615027D01*
X109034187Y-162425106D01*
X109051223Y-162158553D01*
X109063787Y-161940526D01*
X109071955Y-161768906D01*
X109075801Y-161641572D01*
X109075402Y-161556403D01*
X109070832Y-161511279D01*
X109066820Y-161502927D01*
X109026979Y-161492465D01*
X108956643Y-161488136D01*
X108916064Y-161488873D01*
X108849607Y-161489565D01*
X108801211Y-161479254D01*
X108755563Y-161450157D01*
X108697348Y-161394489D01*
X108665817Y-161361681D01*
X108539217Y-161228967D01*
X108446220Y-161309401D01*
G36*
X109550557Y-161457616D02*
G01*
X109427847Y-161527691D01*
X109322265Y-161589183D01*
X109241077Y-161637763D01*
X109191549Y-161669102D01*
X109179550Y-161678690D01*
X109191197Y-161711412D01*
X109219387Y-161768459D01*
X109253994Y-161831264D01*
X109284890Y-161881261D01*
X109299957Y-161899457D01*
X109328069Y-161891865D01*
X109390904Y-161862692D01*
X109479522Y-161816422D01*
X109584984Y-161757541D01*
X109599069Y-161749423D01*
X109878749Y-161587653D01*
X110246723Y-161954942D01*
X110371195Y-162079892D01*
X110463046Y-162174296D01*
X110526203Y-162242965D01*
X110564593Y-162290708D01*
X110582144Y-162322336D01*
X110582783Y-162342660D01*
X110573014Y-162354599D01*
X110541578Y-162380486D01*
X110478062Y-162433927D01*
X110388997Y-162509385D01*
X110280914Y-162601326D01*
X110160343Y-162704212D01*
X110134902Y-162725961D01*
X109738473Y-163064955D01*
X109544996Y-162910515D01*
X109351518Y-162756074D01*
X109266297Y-162863768D01*
X109217342Y-162931675D01*
X109200848Y-162973898D01*
X109212095Y-162999575D01*
X109247951Y-163029726D01*
X109310627Y-163080249D01*
X109391062Y-163144065D01*
X109480197Y-163214095D01*
X109568971Y-163283262D01*
X109648323Y-163344485D01*
X109709193Y-163390688D01*
X109742520Y-163414792D01*
X109746006Y-163416697D01*
X109766620Y-163400813D01*
X109821262Y-163355746D01*
X109905324Y-163285377D01*
X110014200Y-163193586D01*
X110143281Y-163084253D01*
X110287962Y-162961259D01*
X110384624Y-162878865D01*
X111014949Y-162341032D01*
X110468257Y-161794339D01*
X109921564Y-161247647D01*
X109550557Y-161457616D01*
G37*
X109550557Y-161457616D02*
X109427847Y-161527691D01*
X109322265Y-161589183D01*
X109241077Y-161637763D01*
X109191549Y-161669102D01*
X109179550Y-161678690D01*
X109191197Y-161711412D01*
X109219387Y-161768459D01*
X109253994Y-161831264D01*
X109284890Y-161881261D01*
X109299957Y-161899457D01*
X109328069Y-161891865D01*
X109390904Y-161862692D01*
X109479522Y-161816422D01*
X109584984Y-161757541D01*
X109599069Y-161749423D01*
X109878749Y-161587653D01*
X110246723Y-161954942D01*
X110371195Y-162079892D01*
X110463046Y-162174296D01*
X110526203Y-162242965D01*
X110564593Y-162290708D01*
X110582144Y-162322336D01*
X110582783Y-162342660D01*
X110573014Y-162354599D01*
X110541578Y-162380486D01*
X110478062Y-162433927D01*
X110388997Y-162509385D01*
X110280914Y-162601326D01*
X110160343Y-162704212D01*
X110134902Y-162725961D01*
X109738473Y-163064955D01*
X109544996Y-162910515D01*
X109351518Y-162756074D01*
X109266297Y-162863768D01*
X109217342Y-162931675D01*
X109200848Y-162973898D01*
X109212095Y-162999575D01*
X109247951Y-163029726D01*
X109310627Y-163080249D01*
X109391062Y-163144065D01*
X109480197Y-163214095D01*
X109568971Y-163283262D01*
X109648323Y-163344485D01*
X109709193Y-163390688D01*
X109742520Y-163414792D01*
X109746006Y-163416697D01*
X109766620Y-163400813D01*
X109821262Y-163355746D01*
X109905324Y-163285377D01*
X110014200Y-163193586D01*
X110143281Y-163084253D01*
X110287962Y-162961259D01*
X110384624Y-162878865D01*
X111014949Y-162341032D01*
X110468257Y-161794339D01*
X109921564Y-161247647D01*
X109550557Y-161457616D01*
G36*
X105177384Y-161584743D02*
G01*
X105054523Y-161655486D01*
X104948845Y-161718645D01*
X104867644Y-161769673D01*
X104818213Y-161804022D01*
X104806377Y-161816063D01*
X104817648Y-161846315D01*
X104845288Y-161902771D01*
X104880035Y-161967714D01*
X104912628Y-162023430D01*
X104923088Y-162039309D01*
X104945925Y-162030460D01*
X105004318Y-162000377D01*
X105089944Y-161953530D01*
X105194484Y-161894390D01*
X105217243Y-161881299D01*
X105505576Y-161714991D01*
X105867888Y-162076076D01*
X105977804Y-162186315D01*
X106074143Y-162284271D01*
X106151527Y-162364364D01*
X106204577Y-162421013D01*
X106227915Y-162448640D01*
X106228542Y-162450202D01*
X106209588Y-162470518D01*
X106158842Y-162516997D01*
X106083535Y-162583204D01*
X105990900Y-162662701D01*
X105967932Y-162682164D01*
X105851382Y-162780801D01*
X105729861Y-162883820D01*
X105618390Y-162978479D01*
X105537779Y-163047094D01*
X105366579Y-163193103D01*
X105173167Y-163038715D01*
X104979756Y-162884327D01*
X104924245Y-162953465D01*
X104876586Y-163013375D01*
X104838520Y-163062115D01*
X104837835Y-163063010D01*
X104830385Y-163083253D01*
X104840597Y-163109570D01*
X104873646Y-163147444D01*
X104934708Y-163202358D01*
X105028958Y-163279797D01*
X105083786Y-163323620D01*
X105184517Y-163403181D01*
X105270389Y-163469947D01*
X105333937Y-163518194D01*
X105367693Y-163542198D01*
X105370995Y-163543824D01*
X105392120Y-163527939D01*
X105447251Y-163482869D01*
X105531762Y-163412498D01*
X105641027Y-163320705D01*
X105770419Y-163211373D01*
X105915311Y-163088384D01*
X106011789Y-163006216D01*
X106642224Y-162468607D01*
X106095308Y-161921690D01*
X105548391Y-161374774D01*
X105177384Y-161584743D01*
G37*
X105177384Y-161584743D02*
X105054523Y-161655486D01*
X104948845Y-161718645D01*
X104867644Y-161769673D01*
X104818213Y-161804022D01*
X104806377Y-161816063D01*
X104817648Y-161846315D01*
X104845288Y-161902771D01*
X104880035Y-161967714D01*
X104912628Y-162023430D01*
X104923088Y-162039309D01*
X104945925Y-162030460D01*
X105004318Y-162000377D01*
X105089944Y-161953530D01*
X105194484Y-161894390D01*
X105217243Y-161881299D01*
X105505576Y-161714991D01*
X105867888Y-162076076D01*
X105977804Y-162186315D01*
X106074143Y-162284271D01*
X106151527Y-162364364D01*
X106204577Y-162421013D01*
X106227915Y-162448640D01*
X106228542Y-162450202D01*
X106209588Y-162470518D01*
X106158842Y-162516997D01*
X106083535Y-162583204D01*
X105990900Y-162662701D01*
X105967932Y-162682164D01*
X105851382Y-162780801D01*
X105729861Y-162883820D01*
X105618390Y-162978479D01*
X105537779Y-163047094D01*
X105366579Y-163193103D01*
X105173167Y-163038715D01*
X104979756Y-162884327D01*
X104924245Y-162953465D01*
X104876586Y-163013375D01*
X104838520Y-163062115D01*
X104837835Y-163063010D01*
X104830385Y-163083253D01*
X104840597Y-163109570D01*
X104873646Y-163147444D01*
X104934708Y-163202358D01*
X105028958Y-163279797D01*
X105083786Y-163323620D01*
X105184517Y-163403181D01*
X105270389Y-163469947D01*
X105333937Y-163518194D01*
X105367693Y-163542198D01*
X105370995Y-163543824D01*
X105392120Y-163527939D01*
X105447251Y-163482869D01*
X105531762Y-163412498D01*
X105641027Y-163320705D01*
X105770419Y-163211373D01*
X105915311Y-163088384D01*
X106011789Y-163006216D01*
X106642224Y-162468607D01*
X106095308Y-161921690D01*
X105548391Y-161374774D01*
X105177384Y-161584743D01*
G36*
X106779956Y-161391091D02*
G01*
X106768161Y-161395465D01*
X106763206Y-161423886D01*
X106756632Y-161497226D01*
X106748798Y-161609589D01*
X106740060Y-161755083D01*
X106730775Y-161927812D01*
X106721301Y-162121883D01*
X106713284Y-162301115D01*
X106675145Y-163190149D01*
X106728834Y-163203595D01*
X106792197Y-163210678D01*
X106868674Y-163208811D01*
X106918250Y-163201533D01*
X106945349Y-163183049D01*
X106958877Y-163140101D01*
X106967538Y-163061666D01*
X106980251Y-162922751D01*
X107130037Y-163252357D01*
X107201048Y-163408364D01*
X107254014Y-163523483D01*
X107291866Y-163603147D01*
X107317532Y-163652792D01*
X107333944Y-163677853D01*
X107344029Y-163683764D01*
X107350719Y-163675961D01*
X107354003Y-163667818D01*
X107362309Y-163636210D01*
X107380664Y-163560387D01*
X107407814Y-163445709D01*
X107442508Y-163297541D01*
X107483490Y-163121244D01*
X107529509Y-162922183D01*
X107579311Y-162705718D01*
X107604682Y-162595073D01*
X107664160Y-162334104D01*
X107712560Y-162118492D01*
X107750664Y-161944142D01*
X107779254Y-161806963D01*
X107799111Y-161702862D01*
X107811017Y-161627747D01*
X107815753Y-161577523D01*
X107814101Y-161548100D01*
X107807049Y-161535508D01*
X107757151Y-161515088D01*
X107689985Y-161498791D01*
X107626228Y-161490332D01*
X107586558Y-161493425D01*
X107583682Y-161495381D01*
X107574415Y-161522980D01*
X107555484Y-161593628D01*
X107528503Y-161700787D01*
X107495086Y-161837923D01*
X107456849Y-161998498D01*
X107415405Y-162175977D01*
X107413124Y-162185842D01*
X107256862Y-162862007D01*
X107124818Y-162580498D01*
X106992774Y-162298988D01*
X107026122Y-161415022D01*
X106905511Y-161396935D01*
X106831490Y-161389503D01*
X106779956Y-161391091D01*
G37*
X106779956Y-161391091D02*
X106768161Y-161395465D01*
X106763206Y-161423886D01*
X106756632Y-161497226D01*
X106748798Y-161609589D01*
X106740060Y-161755083D01*
X106730775Y-161927812D01*
X106721301Y-162121883D01*
X106713284Y-162301115D01*
X106675145Y-163190149D01*
X106728834Y-163203595D01*
X106792197Y-163210678D01*
X106868674Y-163208811D01*
X106918250Y-163201533D01*
X106945349Y-163183049D01*
X106958877Y-163140101D01*
X106967538Y-163061666D01*
X106980251Y-162922751D01*
X107130037Y-163252357D01*
X107201048Y-163408364D01*
X107254014Y-163523483D01*
X107291866Y-163603147D01*
X107317532Y-163652792D01*
X107333944Y-163677853D01*
X107344029Y-163683764D01*
X107350719Y-163675961D01*
X107354003Y-163667818D01*
X107362309Y-163636210D01*
X107380664Y-163560387D01*
X107407814Y-163445709D01*
X107442508Y-163297541D01*
X107483490Y-163121244D01*
X107529509Y-162922183D01*
X107579311Y-162705718D01*
X107604682Y-162595073D01*
X107664160Y-162334104D01*
X107712560Y-162118492D01*
X107750664Y-161944142D01*
X107779254Y-161806963D01*
X107799111Y-161702862D01*
X107811017Y-161627747D01*
X107815753Y-161577523D01*
X107814101Y-161548100D01*
X107807049Y-161535508D01*
X107757151Y-161515088D01*
X107689985Y-161498791D01*
X107626228Y-161490332D01*
X107586558Y-161493425D01*
X107583682Y-161495381D01*
X107574415Y-161522980D01*
X107555484Y-161593628D01*
X107528503Y-161700787D01*
X107495086Y-161837923D01*
X107456849Y-161998498D01*
X107415405Y-162175977D01*
X107413124Y-162185842D01*
X107256862Y-162862007D01*
X107124818Y-162580498D01*
X106992774Y-162298988D01*
X107026122Y-161415022D01*
X106905511Y-161396935D01*
X106831490Y-161389503D01*
X106779956Y-161391091D01*
G36*
X104650293Y-160535500D02*
G01*
X104578943Y-160545084D01*
X104467923Y-160561432D01*
X104322477Y-160583734D01*
X104147847Y-160611179D01*
X103949276Y-160642957D01*
X103732007Y-160678260D01*
X103611382Y-160698069D01*
X103385324Y-160735233D01*
X103174355Y-160769732D01*
X102983864Y-160800697D01*
X102819239Y-160827263D01*
X102685866Y-160848561D01*
X102589133Y-160863723D01*
X102534429Y-160871883D01*
X102524445Y-160873069D01*
X102499762Y-160897050D01*
X102493750Y-160963044D01*
X102506837Y-161065601D01*
X102508642Y-161074822D01*
X102520238Y-161121594D01*
X102540130Y-161143191D01*
X102582869Y-161145989D01*
X102652306Y-161137781D01*
X102779991Y-161120843D01*
X102701901Y-161232684D01*
X102620199Y-161348078D01*
X102528845Y-161474412D01*
X102432702Y-161605258D01*
X102336630Y-161734189D01*
X102245492Y-161854778D01*
X102164150Y-161960598D01*
X102097465Y-162045221D01*
X102050298Y-162102221D01*
X102027512Y-162125169D01*
X102026682Y-162125336D01*
X102005290Y-162106386D01*
X101954395Y-162054263D01*
X101878402Y-161973692D01*
X101781714Y-161869399D01*
X101668734Y-161746108D01*
X101543867Y-161608545D01*
X101507419Y-161568163D01*
X101379847Y-161427880D01*
X101262499Y-161301184D01*
X101159829Y-161192701D01*
X101076294Y-161107056D01*
X101016350Y-161048875D01*
X100984453Y-161022784D01*
X100981135Y-161021864D01*
X100948108Y-161043573D01*
X100896495Y-161088919D01*
X100874082Y-161110853D01*
X100793740Y-161191972D01*
X101324438Y-161776757D01*
X101455146Y-161921948D01*
X101573575Y-162055740D01*
X101675668Y-162173372D01*
X101757369Y-162270080D01*
X101814621Y-162341102D01*
X101843366Y-162381678D01*
X101845893Y-162388827D01*
X101829036Y-162415427D01*
X101785723Y-162477707D01*
X101719708Y-162570441D01*
X101634743Y-162688404D01*
X101534581Y-162826370D01*
X101422975Y-162979114D01*
X101374284Y-163045472D01*
X101240901Y-163226916D01*
X101135192Y-163371861D01*
X101055164Y-163485113D01*
X100998830Y-163571475D01*
X100964198Y-163635753D01*
X100949277Y-163682751D01*
X100952078Y-163717273D01*
X100970611Y-163744124D01*
X101002885Y-163768109D01*
X101046910Y-163794032D01*
X101060835Y-163802152D01*
X101132519Y-163844363D01*
X101587876Y-163222976D01*
X101702068Y-163068169D01*
X101806977Y-162927902D01*
X101898791Y-162807117D01*
X101973698Y-162710756D01*
X102027887Y-162643761D01*
X102057547Y-162611073D01*
X102061647Y-162608692D01*
X102083199Y-162628901D01*
X102133516Y-162681655D01*
X102207566Y-162761505D01*
X102300320Y-162863002D01*
X102406747Y-162980695D01*
X102467203Y-163048028D01*
X102582038Y-163176040D01*
X102688683Y-163294549D01*
X102781377Y-163397182D01*
X102854358Y-163477568D01*
X102901865Y-163529333D01*
X102913563Y-163541765D01*
X102972783Y-163603269D01*
X103073769Y-163512035D01*
X103174754Y-163420800D01*
X102709922Y-162903884D01*
X102587583Y-162767337D01*
X102476834Y-162642768D01*
X102382131Y-162535265D01*
X102307929Y-162449918D01*
X102258683Y-162391815D01*
X102238850Y-162366046D01*
X102238699Y-162365662D01*
X102251452Y-162340308D01*
X102290657Y-162279673D01*
X102352458Y-162189306D01*
X102433000Y-162074759D01*
X102528428Y-161941583D01*
X102634403Y-161795985D01*
X103036496Y-161247613D01*
X102951991Y-161177066D01*
X102867486Y-161106518D01*
X102953398Y-161090445D01*
X103001323Y-161082048D01*
X103091706Y-161066740D01*
X103216818Y-161045811D01*
X103368931Y-161020548D01*
X103540317Y-160992239D01*
X103700371Y-160965925D01*
X103902394Y-160933133D01*
X104059774Y-160908581D01*
X104177951Y-160891704D01*
X104262364Y-160881933D01*
X104318451Y-160878703D01*
X104351652Y-160881445D01*
X104367407Y-160889595D01*
X104370584Y-160896077D01*
X104371706Y-160932878D01*
X104369293Y-161010946D01*
X104363947Y-161120867D01*
X104356269Y-161253224D01*
X104346859Y-161398602D01*
X104336318Y-161547587D01*
X104325246Y-161690763D01*
X104314245Y-161818715D01*
X104306881Y-161894436D01*
X104292000Y-162037541D01*
X103988580Y-162055650D01*
X103685160Y-162073760D01*
X103692766Y-162204938D01*
X103700371Y-162336117D01*
X103989185Y-162327329D01*
X104278000Y-162318542D01*
X104262831Y-162467169D01*
X104254414Y-162547978D01*
X104242002Y-162665026D01*
X104227122Y-162804001D01*
X104211302Y-162950592D01*
X104207627Y-162984465D01*
X104192993Y-163119572D01*
X104180067Y-163239556D01*
X104169977Y-163333905D01*
X104163849Y-163392112D01*
X104162810Y-163402404D01*
X104181599Y-163450932D01*
X104248515Y-163503449D01*
X104259730Y-163510043D01*
X104324180Y-163545041D01*
X104369664Y-163566109D01*
X104379521Y-163568831D01*
X104397366Y-163551737D01*
X104415677Y-163497736D01*
X104434958Y-163403984D01*
X104455712Y-163267638D01*
X104478444Y-163085852D01*
X104500312Y-162887676D01*
X104516452Y-162732286D01*
X104530541Y-162591928D01*
X104541739Y-162475347D01*
X104549209Y-162391286D01*
X104552112Y-162348491D01*
X104552122Y-162347385D01*
X104559265Y-162317679D01*
X104588937Y-162302869D01*
X104653508Y-162298147D01*
X104679250Y-162297978D01*
X104806377Y-162297978D01*
X104806377Y-162018299D01*
X104570997Y-162018299D01*
X104585911Y-161897528D01*
X104593432Y-161825451D01*
X104602714Y-161719226D01*
X104613226Y-161586840D01*
X104624435Y-161436281D01*
X104635809Y-161275539D01*
X104646817Y-161112601D01*
X104656927Y-160955456D01*
X104665607Y-160812092D01*
X104672324Y-160690497D01*
X104676548Y-160598661D01*
X104677746Y-160544570D01*
X104676730Y-160533489D01*
X104650293Y-160535500D01*
G37*
X104650293Y-160535500D02*
X104578943Y-160545084D01*
X104467923Y-160561432D01*
X104322477Y-160583734D01*
X104147847Y-160611179D01*
X103949276Y-160642957D01*
X103732007Y-160678260D01*
X103611382Y-160698069D01*
X103385324Y-160735233D01*
X103174355Y-160769732D01*
X102983864Y-160800697D01*
X102819239Y-160827263D01*
X102685866Y-160848561D01*
X102589133Y-160863723D01*
X102534429Y-160871883D01*
X102524445Y-160873069D01*
X102499762Y-160897050D01*
X102493750Y-160963044D01*
X102506837Y-161065601D01*
X102508642Y-161074822D01*
X102520238Y-161121594D01*
X102540130Y-161143191D01*
X102582869Y-161145989D01*
X102652306Y-161137781D01*
X102779991Y-161120843D01*
X102701901Y-161232684D01*
X102620199Y-161348078D01*
X102528845Y-161474412D01*
X102432702Y-161605258D01*
X102336630Y-161734189D01*
X102245492Y-161854778D01*
X102164150Y-161960598D01*
X102097465Y-162045221D01*
X102050298Y-162102221D01*
X102027512Y-162125169D01*
X102026682Y-162125336D01*
X102005290Y-162106386D01*
X101954395Y-162054263D01*
X101878402Y-161973692D01*
X101781714Y-161869399D01*
X101668734Y-161746108D01*
X101543867Y-161608545D01*
X101507419Y-161568163D01*
X101379847Y-161427880D01*
X101262499Y-161301184D01*
X101159829Y-161192701D01*
X101076294Y-161107056D01*
X101016350Y-161048875D01*
X100984453Y-161022784D01*
X100981135Y-161021864D01*
X100948108Y-161043573D01*
X100896495Y-161088919D01*
X100874082Y-161110853D01*
X100793740Y-161191972D01*
X101324438Y-161776757D01*
X101455146Y-161921948D01*
X101573575Y-162055740D01*
X101675668Y-162173372D01*
X101757369Y-162270080D01*
X101814621Y-162341102D01*
X101843366Y-162381678D01*
X101845893Y-162388827D01*
X101829036Y-162415427D01*
X101785723Y-162477707D01*
X101719708Y-162570441D01*
X101634743Y-162688404D01*
X101534581Y-162826370D01*
X101422975Y-162979114D01*
X101374284Y-163045472D01*
X101240901Y-163226916D01*
X101135192Y-163371861D01*
X101055164Y-163485113D01*
X100998830Y-163571475D01*
X100964198Y-163635753D01*
X100949277Y-163682751D01*
X100952078Y-163717273D01*
X100970611Y-163744124D01*
X101002885Y-163768109D01*
X101046910Y-163794032D01*
X101060835Y-163802152D01*
X101132519Y-163844363D01*
X101587876Y-163222976D01*
X101702068Y-163068169D01*
X101806977Y-162927902D01*
X101898791Y-162807117D01*
X101973698Y-162710756D01*
X102027887Y-162643761D01*
X102057547Y-162611073D01*
X102061647Y-162608692D01*
X102083199Y-162628901D01*
X102133516Y-162681655D01*
X102207566Y-162761505D01*
X102300320Y-162863002D01*
X102406747Y-162980695D01*
X102467203Y-163048028D01*
X102582038Y-163176040D01*
X102688683Y-163294549D01*
X102781377Y-163397182D01*
X102854358Y-163477568D01*
X102901865Y-163529333D01*
X102913563Y-163541765D01*
X102972783Y-163603269D01*
X103073769Y-163512035D01*
X103174754Y-163420800D01*
X102709922Y-162903884D01*
X102587583Y-162767337D01*
X102476834Y-162642768D01*
X102382131Y-162535265D01*
X102307929Y-162449918D01*
X102258683Y-162391815D01*
X102238850Y-162366046D01*
X102238699Y-162365662D01*
X102251452Y-162340308D01*
X102290657Y-162279673D01*
X102352458Y-162189306D01*
X102433000Y-162074759D01*
X102528428Y-161941583D01*
X102634403Y-161795985D01*
X103036496Y-161247613D01*
X102951991Y-161177066D01*
X102867486Y-161106518D01*
X102953398Y-161090445D01*
X103001323Y-161082048D01*
X103091706Y-161066740D01*
X103216818Y-161045811D01*
X103368931Y-161020548D01*
X103540317Y-160992239D01*
X103700371Y-160965925D01*
X103902394Y-160933133D01*
X104059774Y-160908581D01*
X104177951Y-160891704D01*
X104262364Y-160881933D01*
X104318451Y-160878703D01*
X104351652Y-160881445D01*
X104367407Y-160889595D01*
X104370584Y-160896077D01*
X104371706Y-160932878D01*
X104369293Y-161010946D01*
X104363947Y-161120867D01*
X104356269Y-161253224D01*
X104346859Y-161398602D01*
X104336318Y-161547587D01*
X104325246Y-161690763D01*
X104314245Y-161818715D01*
X104306881Y-161894436D01*
X104292000Y-162037541D01*
X103988580Y-162055650D01*
X103685160Y-162073760D01*
X103692766Y-162204938D01*
X103700371Y-162336117D01*
X103989185Y-162327329D01*
X104278000Y-162318542D01*
X104262831Y-162467169D01*
X104254414Y-162547978D01*
X104242002Y-162665026D01*
X104227122Y-162804001D01*
X104211302Y-162950592D01*
X104207627Y-162984465D01*
X104192993Y-163119572D01*
X104180067Y-163239556D01*
X104169977Y-163333905D01*
X104163849Y-163392112D01*
X104162810Y-163402404D01*
X104181599Y-163450932D01*
X104248515Y-163503449D01*
X104259730Y-163510043D01*
X104324180Y-163545041D01*
X104369664Y-163566109D01*
X104379521Y-163568831D01*
X104397366Y-163551737D01*
X104415677Y-163497736D01*
X104434958Y-163403984D01*
X104455712Y-163267638D01*
X104478444Y-163085852D01*
X104500312Y-162887676D01*
X104516452Y-162732286D01*
X104530541Y-162591928D01*
X104541739Y-162475347D01*
X104549209Y-162391286D01*
X104552112Y-162348491D01*
X104552122Y-162347385D01*
X104559265Y-162317679D01*
X104588937Y-162302869D01*
X104653508Y-162298147D01*
X104679250Y-162297978D01*
X104806377Y-162297978D01*
X104806377Y-162018299D01*
X104570997Y-162018299D01*
X104585911Y-161897528D01*
X104593432Y-161825451D01*
X104602714Y-161719226D01*
X104613226Y-161586840D01*
X104624435Y-161436281D01*
X104635809Y-161275539D01*
X104646817Y-161112601D01*
X104656927Y-160955456D01*
X104665607Y-160812092D01*
X104672324Y-160690497D01*
X104676548Y-160598661D01*
X104677746Y-160544570D01*
X104676730Y-160533489D01*
X104650293Y-160535500D01*
G36*
X97822635Y-159566079D02*
G01*
X97737746Y-159572711D01*
X97667363Y-159588586D01*
X97593323Y-159617650D01*
X97507961Y-159658635D01*
X97302715Y-159787843D01*
X97127798Y-159954120D01*
X96988601Y-160150614D01*
X96890514Y-160370471D01*
X96859414Y-160483202D01*
X96837071Y-160578548D01*
X96818540Y-160634518D01*
X96797471Y-160661562D01*
X96767512Y-160670129D01*
X96745406Y-160670751D01*
X96674145Y-160692072D01*
X96625195Y-160749661D01*
X96598833Y-160833958D01*
X96595334Y-160935403D01*
X96614973Y-161044436D01*
X96658027Y-161151497D01*
X96724771Y-161247025D01*
X96728661Y-161251248D01*
X96794468Y-161308502D01*
X96868222Y-161353757D01*
X96932641Y-161377418D01*
X96956895Y-161377964D01*
X96988215Y-161391789D01*
X97043767Y-161434403D01*
X97113024Y-161497481D01*
X97133157Y-161517392D01*
X97262247Y-161629576D01*
X97400154Y-161719713D01*
X97438262Y-161739160D01*
X97598269Y-161814855D01*
X97501252Y-161814875D01*
X97423564Y-161808081D01*
X97360921Y-161791417D01*
X97355110Y-161788605D01*
X97307473Y-161776222D01*
X97224751Y-161766761D01*
X97122695Y-161761857D01*
X97094677Y-161761530D01*
X96883368Y-161760745D01*
X96884862Y-161642356D01*
X96884380Y-161628922D01*
X96848219Y-161628922D01*
X96835515Y-161677764D01*
X96805059Y-161737416D01*
X96768329Y-161789222D01*
X96736806Y-161814525D01*
X96733783Y-161814895D01*
X96738522Y-161793059D01*
X96754846Y-161736982D01*
X96769997Y-161688108D01*
X96800745Y-161605280D01*
X96825535Y-161566544D01*
X96842111Y-161573607D01*
X96848218Y-161628174D01*
X96848219Y-161628922D01*
X96884380Y-161628922D01*
X96882187Y-161567812D01*
X96868148Y-161529983D01*
X96837417Y-161515094D01*
X96835506Y-161514733D01*
X96780615Y-161492517D01*
X96759230Y-161474697D01*
X96663895Y-161395234D01*
X96552002Y-161359345D01*
X96434854Y-161368067D01*
X96323754Y-161422436D01*
X96309648Y-161433483D01*
X96226420Y-161522529D01*
X96159447Y-161632116D01*
X96118661Y-161743643D01*
X96110881Y-161805778D01*
X96134433Y-161891357D01*
X96199436Y-161959692D01*
X96297409Y-162003171D01*
X96339903Y-162011379D01*
X96431435Y-162037301D01*
X96507287Y-162081915D01*
X96511380Y-162085571D01*
X96564050Y-162126295D01*
X96605767Y-162145251D01*
X96608439Y-162145426D01*
X96647698Y-162160727D01*
X96703623Y-162198562D01*
X96716455Y-162208989D01*
X96773409Y-162250252D01*
X96818471Y-162271697D01*
X96824864Y-162272553D01*
X96831845Y-162288031D01*
X96805286Y-162328314D01*
X96792703Y-162342473D01*
X96701158Y-162455208D01*
X96655237Y-162553047D01*
X96655188Y-162644046D01*
X96701257Y-162736261D01*
X96793694Y-162837749D01*
X96808349Y-162851332D01*
X96944832Y-162976069D01*
X96953732Y-163437937D01*
X96955490Y-163584815D01*
X96954968Y-163712416D01*
X96952368Y-163812757D01*
X96947892Y-163877858D01*
X96942063Y-163899793D01*
X96923783Y-163907983D01*
X96944288Y-163928793D01*
X96994933Y-163956504D01*
X97067074Y-163985399D01*
X97076156Y-163988473D01*
X97160896Y-164025305D01*
X97210386Y-164065478D01*
X97217052Y-164078278D01*
X97240976Y-164123136D01*
X97287245Y-164189875D01*
X97332091Y-164247101D01*
X97389141Y-164324124D01*
X97409298Y-164371900D01*
X97403340Y-164385483D01*
X97395819Y-164416387D01*
X97417565Y-164470931D01*
X97461208Y-164537489D01*
X97519376Y-164604438D01*
X97571297Y-164650375D01*
X97669264Y-164702913D01*
X97761005Y-164710090D01*
X97839260Y-164672005D01*
X97863390Y-164646401D01*
X97894630Y-164586447D01*
X97838166Y-164586447D01*
X97831794Y-164599675D01*
X97817628Y-164618049D01*
X97771417Y-164650024D01*
X97712126Y-164662459D01*
X97663052Y-164652166D01*
X97651389Y-164640790D01*
X97661830Y-164628705D01*
X97700886Y-164631070D01*
X97767198Y-164627234D01*
X97808174Y-164608328D01*
X97820988Y-164598979D01*
X97610981Y-164598979D01*
X97598269Y-164611692D01*
X97585556Y-164598979D01*
X97598269Y-164586267D01*
X97610981Y-164598979D01*
X97820988Y-164598979D01*
X97838166Y-164586447D01*
X97894630Y-164586447D01*
X97901024Y-164574178D01*
X97915528Y-164500205D01*
X97915031Y-164497278D01*
X97860279Y-164497278D01*
X97857531Y-164540700D01*
X97849571Y-164544523D01*
X97848558Y-164542256D01*
X97843528Y-164491782D01*
X97847616Y-164465980D01*
X97855709Y-164455611D01*
X97860111Y-164489382D01*
X97860279Y-164497278D01*
X97915031Y-164497278D01*
X97901679Y-164418717D01*
X97894047Y-164396548D01*
X97753008Y-164396548D01*
X97726893Y-164421810D01*
X97678173Y-164450667D01*
X97650616Y-164458331D01*
X97646933Y-164445455D01*
X97672212Y-164421001D01*
X97458429Y-164421001D01*
X97445716Y-164433714D01*
X97433003Y-164421001D01*
X97445716Y-164408289D01*
X97458429Y-164421001D01*
X97672212Y-164421001D01*
X97673048Y-164420193D01*
X97721767Y-164391336D01*
X97749324Y-164383672D01*
X97753008Y-164396548D01*
X97894047Y-164396548D01*
X97880582Y-164357438D01*
X97839810Y-164357438D01*
X97830507Y-164378366D01*
X97822860Y-164374388D01*
X97819817Y-164344214D01*
X97822860Y-164340488D01*
X97837975Y-164343978D01*
X97839810Y-164357438D01*
X97880582Y-164357438D01*
X97867948Y-164320744D01*
X97700429Y-164320744D01*
X97667909Y-164352590D01*
X97661832Y-164357438D01*
X97609788Y-164392376D01*
X97573121Y-164407155D01*
X97572843Y-164407158D01*
X97572384Y-164394132D01*
X97604904Y-164362286D01*
X97610981Y-164357438D01*
X97663025Y-164322500D01*
X97699693Y-164307721D01*
X97699970Y-164307718D01*
X97700429Y-164320744D01*
X97867948Y-164320744D01*
X97867092Y-164318259D01*
X97855489Y-164293874D01*
X97814385Y-164293874D01*
X97801672Y-164306587D01*
X97788959Y-164293874D01*
X97801672Y-164281162D01*
X97814385Y-164293874D01*
X97855489Y-164293874D01*
X97820838Y-164221056D01*
X97786702Y-164170784D01*
X97688484Y-164170784D01*
X97662331Y-164228205D01*
X97647678Y-164250079D01*
X97588743Y-164299287D01*
X97515789Y-164300370D01*
X97430451Y-164253586D01*
X97379161Y-164207877D01*
X97318543Y-164140176D01*
X97285861Y-164088743D01*
X97283738Y-164059944D01*
X97314799Y-164060147D01*
X97318908Y-164061650D01*
X97363258Y-164071829D01*
X97440519Y-164083658D01*
X97522312Y-164093307D01*
X97622747Y-164108678D01*
X97676713Y-164132723D01*
X97688484Y-164170784D01*
X97786702Y-164170784D01*
X97772567Y-164149968D01*
X97750678Y-164118296D01*
X97762944Y-164094669D01*
X97808952Y-164067855D01*
X97859814Y-164030988D01*
X97889897Y-163978165D01*
X97901310Y-163899937D01*
X97899567Y-163861642D01*
X97712683Y-163861642D01*
X97699970Y-163874355D01*
X97687258Y-163861642D01*
X97699970Y-163848929D01*
X97712683Y-163861642D01*
X97899567Y-163861642D01*
X97897252Y-163810791D01*
X97687258Y-163810791D01*
X97674545Y-163823504D01*
X97661832Y-163810791D01*
X97585556Y-163810791D01*
X97572843Y-163823504D01*
X97560130Y-163810791D01*
X97572843Y-163798079D01*
X97585556Y-163810791D01*
X97661832Y-163810791D01*
X97674545Y-163798079D01*
X97687258Y-163810791D01*
X97897252Y-163810791D01*
X97896161Y-163786855D01*
X97887973Y-163713802D01*
X97877749Y-163625260D01*
X97871865Y-163559664D01*
X97871482Y-163530184D01*
X97871739Y-163529768D01*
X97894289Y-163540448D01*
X97951225Y-163573434D01*
X98034065Y-163623670D01*
X98134331Y-163686104D01*
X98139278Y-163689221D01*
X98251610Y-163758851D01*
X98329756Y-163803506D01*
X98381695Y-163826634D01*
X98415407Y-163831681D01*
X98438871Y-163822095D01*
X98441694Y-163819864D01*
X98469983Y-163800601D01*
X98471571Y-163819207D01*
X98463891Y-163845282D01*
X98455522Y-163887618D01*
X98478048Y-163894453D01*
X98504718Y-163887912D01*
X98541809Y-163880089D01*
X98534351Y-163891528D01*
X98527158Y-163896655D01*
X98515505Y-163921289D01*
X98546262Y-163944267D01*
X98611001Y-163962774D01*
X98701293Y-163973993D01*
X98764879Y-163976057D01*
X98890027Y-163965608D01*
X99015238Y-163937243D01*
X99085315Y-163911798D01*
X98882373Y-163911798D01*
X98856415Y-163915445D01*
X98791009Y-163917047D01*
X98780551Y-163917068D01*
X98710699Y-163915766D01*
X98679598Y-163912332D01*
X98692945Y-163907472D01*
X98697918Y-163906813D01*
X98787073Y-163902605D01*
X98863184Y-163906813D01*
X98882373Y-163911798D01*
X99085315Y-163911798D01*
X99130400Y-163895428D01*
X99153962Y-163882830D01*
X99026330Y-163882830D01*
X99022840Y-163897945D01*
X99009380Y-163899780D01*
X98988452Y-163890477D01*
X98992429Y-163882830D01*
X99022603Y-163879787D01*
X99026330Y-163882830D01*
X99153962Y-163882830D01*
X99193592Y-163861642D01*
X99111081Y-163861642D01*
X99098369Y-163874355D01*
X99085656Y-163861642D01*
X99098369Y-163848929D01*
X99111081Y-163861642D01*
X99193592Y-163861642D01*
X99225402Y-163844635D01*
X99290132Y-163789331D01*
X99314479Y-163733985D01*
X99314485Y-163733149D01*
X99303314Y-163709090D01*
X99276347Y-163709090D01*
X99214707Y-163779009D01*
X99165016Y-163832140D01*
X99140887Y-163848637D01*
X99136507Y-163840649D01*
X99153563Y-163820208D01*
X99195665Y-163780315D01*
X99206427Y-163770729D01*
X99215550Y-163762686D01*
X98995801Y-163762686D01*
X98971100Y-163798234D01*
X98930777Y-163832157D01*
X98909988Y-163833038D01*
X98919074Y-163804167D01*
X98922044Y-163800171D01*
X98860402Y-163800171D01*
X98852176Y-163816396D01*
X98812766Y-163832150D01*
X98751976Y-163832314D01*
X98696487Y-163817897D01*
X98683775Y-163810022D01*
X98701092Y-163803970D01*
X98753829Y-163796467D01*
X98777378Y-163794023D01*
X98840099Y-163791067D01*
X98860402Y-163800171D01*
X98922044Y-163800171D01*
X98932593Y-163785980D01*
X98971397Y-163753570D01*
X98991008Y-163747228D01*
X98995801Y-163762686D01*
X99215550Y-163762686D01*
X99276347Y-163709090D01*
X99303314Y-163709090D01*
X99292703Y-163686241D01*
X99229583Y-163663806D01*
X99128464Y-163666028D01*
X98992684Y-163693095D01*
X98927302Y-163711559D01*
X98902794Y-163715365D01*
X98899054Y-163698926D01*
X98916698Y-163651994D01*
X98933100Y-163615281D01*
X98976940Y-163472682D01*
X98975791Y-163415377D01*
X98933103Y-163415377D01*
X98919101Y-163513355D01*
X98879386Y-163574939D01*
X98822226Y-163594675D01*
X98765028Y-163612560D01*
X98706569Y-163655840D01*
X98704275Y-163658239D01*
X98651041Y-163707901D01*
X98621708Y-163714474D01*
X98613001Y-163675980D01*
X98619292Y-163606923D01*
X98624538Y-163523238D01*
X98609452Y-163468436D01*
X98591088Y-163443480D01*
X98562982Y-163394881D01*
X98568145Y-163339674D01*
X98609113Y-163268228D01*
X98651450Y-163214143D01*
X98724667Y-163126002D01*
X98828885Y-163230220D01*
X98895733Y-163306399D01*
X98927449Y-163370320D01*
X98933103Y-163415377D01*
X98975791Y-163415377D01*
X98974338Y-163343021D01*
X98947178Y-163266778D01*
X98924616Y-163200932D01*
X98922970Y-163147269D01*
X98918431Y-163088242D01*
X98902539Y-163058511D01*
X98854073Y-163022972D01*
X98770213Y-162983326D01*
X98665527Y-162944931D01*
X98554581Y-162913149D01*
X98454448Y-162893663D01*
X98386845Y-162882228D01*
X98341922Y-162862516D01*
X98305431Y-162823109D01*
X98305000Y-162822390D01*
X98106777Y-162822390D01*
X97928799Y-162864540D01*
X97804380Y-162893190D01*
X97712040Y-162911602D01*
X97634643Y-162922324D01*
X97555050Y-162927905D01*
X97487490Y-162930152D01*
X97409461Y-162930274D01*
X97371844Y-162923086D01*
X97364339Y-162905012D01*
X97369320Y-162889120D01*
X97391869Y-162830952D01*
X97411586Y-162777804D01*
X97444814Y-162726658D01*
X97506907Y-162699856D01*
X97529756Y-162695451D01*
X97671390Y-162680337D01*
X97774256Y-162689384D01*
X97844686Y-162723259D01*
X97851726Y-162729462D01*
X97912127Y-162767868D01*
X97991839Y-162797635D01*
X98005917Y-162800977D01*
X98106777Y-162822390D01*
X98305000Y-162822390D01*
X98287832Y-162793774D01*
X98144915Y-162793774D01*
X98132203Y-162806487D01*
X98119490Y-162793774D01*
X98132203Y-162781062D01*
X98144915Y-162793774D01*
X98287832Y-162793774D01*
X98263124Y-162752591D01*
X98251005Y-162730648D01*
X98221330Y-162656583D01*
X97351176Y-162656583D01*
X97349225Y-162770140D01*
X97313469Y-162852217D01*
X97237611Y-162914103D01*
X97195767Y-162935217D01*
X97124784Y-162966944D01*
X97082719Y-162978956D01*
X97051543Y-162971071D01*
X97013222Y-162943104D01*
X97000771Y-162933236D01*
X96960329Y-162896062D01*
X96958657Y-162872412D01*
X96975346Y-162858609D01*
X97051322Y-162804935D01*
X96941342Y-162804935D01*
X96939781Y-162827748D01*
X96912419Y-162853980D01*
X96877149Y-162844012D01*
X96823835Y-162794881D01*
X96822477Y-162793438D01*
X96783690Y-162740022D01*
X96787234Y-162704907D01*
X96789230Y-162702753D01*
X96823562Y-162698946D01*
X96871017Y-162723557D01*
X96915607Y-162763312D01*
X96941342Y-162804935D01*
X97051322Y-162804935D01*
X97065599Y-162794849D01*
X97117197Y-162745292D01*
X97127898Y-162721564D01*
X97115393Y-162711105D01*
X97097388Y-162725126D01*
X97040619Y-162753731D01*
X96974824Y-162733640D01*
X96915551Y-162683293D01*
X96873030Y-162634369D01*
X96864141Y-162604567D01*
X96884624Y-162579098D01*
X96885368Y-162578478D01*
X96917518Y-162538486D01*
X96923411Y-162517338D01*
X96908061Y-162519014D01*
X96869274Y-162552337D01*
X96825121Y-162599341D01*
X96727916Y-162710012D01*
X96711251Y-162643616D01*
X96712083Y-162561417D01*
X96732598Y-162503714D01*
X96779116Y-162437354D01*
X96846926Y-162367142D01*
X96922464Y-162304500D01*
X96992167Y-162260855D01*
X97037129Y-162247223D01*
X97132215Y-162271380D01*
X97217894Y-162337898D01*
X97287720Y-162438370D01*
X97335244Y-162564390D01*
X97351176Y-162656583D01*
X98221330Y-162656583D01*
X98186315Y-162569191D01*
X98171670Y-162408073D01*
X98206606Y-162241766D01*
X98209212Y-162234415D01*
X98232585Y-162158942D01*
X98244841Y-162099742D01*
X98168557Y-162099742D01*
X98148879Y-162188002D01*
X98144021Y-162197948D01*
X98109138Y-162240438D01*
X98080472Y-162239393D01*
X98070111Y-162200924D01*
X97890731Y-162200924D01*
X97868895Y-162253658D01*
X97812495Y-162315785D01*
X97717813Y-162394363D01*
X97668189Y-162432133D01*
X97577108Y-162499684D01*
X97501617Y-162554252D01*
X97450532Y-162589553D01*
X97433003Y-162599720D01*
X97416480Y-162579026D01*
X97385147Y-162523960D01*
X97345658Y-162446252D01*
X97344014Y-162442862D01*
X97279702Y-162330257D01*
X97212883Y-162257535D01*
X97178749Y-162234415D01*
X97119730Y-162193310D01*
X97097560Y-162151546D01*
X97097805Y-162113644D01*
X97104019Y-162072950D01*
X97118370Y-162051833D01*
X97152126Y-162047872D01*
X97216557Y-162058641D01*
X97284867Y-162073410D01*
X97384695Y-162098801D01*
X97437788Y-162123544D01*
X97447979Y-162152348D01*
X97419103Y-162189921D01*
X97395859Y-162209762D01*
X97342853Y-162257427D01*
X97330429Y-162281044D01*
X97354802Y-162281414D01*
X97412190Y-162259340D01*
X97498809Y-162215625D01*
X97576885Y-162171358D01*
X97800516Y-162039735D01*
X97845589Y-162095397D01*
X97881723Y-162150524D01*
X97890731Y-162200924D01*
X98070111Y-162200924D01*
X98068639Y-162195460D01*
X98053212Y-162113131D01*
X98014453Y-162020231D01*
X97963643Y-161940640D01*
X97934159Y-161910806D01*
X97901384Y-161883166D01*
X97902444Y-161870444D01*
X97944075Y-161866693D01*
X97984565Y-161866312D01*
X98064669Y-161873887D01*
X98114491Y-161902445D01*
X98130761Y-161922254D01*
X98162081Y-162002080D01*
X98168557Y-162099742D01*
X98244841Y-162099742D01*
X98245417Y-162096963D01*
X98246234Y-162085462D01*
X98254366Y-162058230D01*
X98282415Y-162050135D01*
X98336742Y-162062528D01*
X98423709Y-162096757D01*
X98532868Y-162146285D01*
X98625051Y-162192816D01*
X98682639Y-162233429D01*
X98718844Y-162279531D01*
X98740196Y-162325277D01*
X98774199Y-162465317D01*
X98763446Y-162594983D01*
X98710114Y-162706760D01*
X98616381Y-162793135D01*
X98602203Y-162801618D01*
X98544484Y-162841599D01*
X98528090Y-162870124D01*
X98555285Y-162882567D01*
X98562484Y-162882763D01*
X98611905Y-162864095D01*
X98675819Y-162816744D01*
X98739566Y-162753692D01*
X98788488Y-162687920D01*
X98794177Y-162677594D01*
X98816771Y-162607964D01*
X98829984Y-162517080D01*
X98831402Y-162480092D01*
X98823385Y-162387516D01*
X98793707Y-162305673D01*
X98748769Y-162230932D01*
X98662937Y-162128684D01*
X98552735Y-162033936D01*
X98435224Y-161959617D01*
X98340775Y-161921757D01*
X98283281Y-161898987D01*
X98253003Y-161872159D01*
X98252815Y-161871628D01*
X98268919Y-161846556D01*
X98308103Y-161819598D01*
X97091698Y-161819598D01*
X97090725Y-161829151D01*
X97063421Y-161843498D01*
X97021887Y-161887051D01*
X96987716Y-161975831D01*
X96978244Y-162013399D01*
X96955459Y-162098135D01*
X96931739Y-162164861D01*
X96917504Y-162191527D01*
X96887767Y-162208896D01*
X96867685Y-162185372D01*
X96860299Y-162130484D01*
X96868653Y-162053757D01*
X96870604Y-162044657D01*
X96911454Y-161920192D01*
X96936172Y-161886445D01*
X96740876Y-161886445D01*
X96736524Y-161905964D01*
X96725773Y-161958688D01*
X96721098Y-162030568D01*
X96721091Y-162033091D01*
X96716420Y-162090424D01*
X96696341Y-162114568D01*
X96651759Y-162107629D01*
X96573577Y-162071711D01*
X96567526Y-162068633D01*
X96506667Y-162033171D01*
X96470853Y-162003771D01*
X96466837Y-161995704D01*
X96444303Y-161979300D01*
X96387873Y-161964175D01*
X96363162Y-161960238D01*
X96261550Y-161931588D01*
X96191864Y-161880834D01*
X96162662Y-161814610D01*
X96162290Y-161804598D01*
X96182009Y-161706143D01*
X96232548Y-161605507D01*
X96303914Y-161514670D01*
X96386116Y-161445610D01*
X96469163Y-161410307D01*
X96493017Y-161408089D01*
X96594906Y-161426492D01*
X96674773Y-161475523D01*
X96724152Y-161545908D01*
X96734578Y-161628377D01*
X96725808Y-161663045D01*
X96712041Y-161690219D01*
X96691276Y-161692906D01*
X96651685Y-161668086D01*
X96606115Y-161632470D01*
X96504975Y-161551744D01*
X96600755Y-161653055D01*
X96696534Y-161754365D01*
X96638893Y-161808369D01*
X96590045Y-161843977D01*
X96548092Y-161842689D01*
X96530401Y-161834132D01*
X96495830Y-161817175D01*
X96500259Y-161830666D01*
X96514445Y-161848531D01*
X96536099Y-161890850D01*
X96517688Y-161929310D01*
X96502242Y-161960341D01*
X96520827Y-161967779D01*
X96563128Y-161952914D01*
X96618830Y-161917034D01*
X96619390Y-161916597D01*
X96680801Y-161877900D01*
X96724378Y-161867569D01*
X96740876Y-161886445D01*
X96936172Y-161886445D01*
X96967148Y-161844156D01*
X97037585Y-161816679D01*
X97045852Y-161816616D01*
X97091698Y-161819598D01*
X98308103Y-161819598D01*
X98321008Y-161810720D01*
X98397014Y-161769991D01*
X98484867Y-161730238D01*
X98572501Y-161697334D01*
X98647847Y-161677148D01*
X98655119Y-161675917D01*
X98774951Y-161638600D01*
X98883710Y-161570959D01*
X98974856Y-161481876D01*
X99041851Y-161380236D01*
X99078159Y-161274920D01*
X99078123Y-161270941D01*
X99026714Y-161270941D01*
X99003878Y-161328912D01*
X98964977Y-161396994D01*
X98917915Y-161460432D01*
X98891740Y-161487700D01*
X98831845Y-161535687D01*
X98761161Y-161583129D01*
X98696360Y-161619710D01*
X98654117Y-161635115D01*
X98653424Y-161635141D01*
X98663708Y-161620350D01*
X98703421Y-161581784D01*
X98749163Y-161540813D01*
X98812972Y-161475840D01*
X98851000Y-161418038D01*
X98857221Y-161393801D01*
X98873167Y-161354253D01*
X98912171Y-161306330D01*
X98960284Y-161262954D01*
X99003558Y-161237047D01*
X99025581Y-161237836D01*
X99026714Y-161270941D01*
X99078123Y-161270941D01*
X99077240Y-161174811D01*
X99059336Y-161126737D01*
X99026988Y-161086768D01*
X98999842Y-161080477D01*
X98991692Y-161108156D01*
X98995711Y-161125398D01*
X98993126Y-161172240D01*
X98974794Y-161187091D01*
X98955586Y-161188699D01*
X98951770Y-161166229D01*
X98963259Y-161109753D01*
X98973735Y-161069331D01*
X98994046Y-160982154D01*
X99006843Y-160906325D01*
X99009078Y-160877791D01*
X99016903Y-160835525D01*
X99046216Y-160833834D01*
X99053874Y-160836871D01*
X99231793Y-160893680D01*
X99405620Y-160913506D01*
X99567585Y-160897764D01*
X99709915Y-160847871D01*
X99824840Y-160765242D01*
X99886916Y-160685144D01*
X99935411Y-160583824D01*
X99946884Y-160498846D01*
X99938718Y-160469886D01*
X98828011Y-160469886D01*
X98826176Y-160517767D01*
X98811109Y-160599738D01*
X98791415Y-160687464D01*
X98766219Y-160840908D01*
X98767947Y-160982733D01*
X98771470Y-161013216D01*
X98783242Y-161186323D01*
X98766181Y-161325374D01*
X98717535Y-161439968D01*
X98634552Y-161539702D01*
X98615546Y-161557002D01*
X98510367Y-161639780D01*
X98402199Y-161702115D01*
X98279878Y-161747917D01*
X98132239Y-161781098D01*
X97948119Y-161805567D01*
X97889646Y-161811286D01*
X97844792Y-161807110D01*
X97769692Y-161792564D01*
X97704885Y-161776969D01*
X97481852Y-161697508D01*
X97288468Y-161584730D01*
X97130278Y-161442623D01*
X97045820Y-161323314D01*
X96967272Y-161323314D01*
X96952882Y-161331812D01*
X96920198Y-161318845D01*
X96864337Y-161286523D01*
X96845622Y-161274400D01*
X96762067Y-161194174D01*
X96694120Y-161083768D01*
X96652577Y-160963625D01*
X96644815Y-160894193D01*
X96649863Y-160824735D01*
X96667086Y-160802919D01*
X96699600Y-160828293D01*
X96737671Y-160880685D01*
X96778790Y-160973816D01*
X96779741Y-161042633D01*
X96777892Y-161098566D01*
X96800768Y-161141886D01*
X96856298Y-161190162D01*
X96917115Y-161243460D01*
X96956267Y-161291014D01*
X96967272Y-161323314D01*
X97045820Y-161323314D01*
X97016272Y-161281575D01*
X96975230Y-161197621D01*
X96963687Y-161151966D01*
X96883466Y-161151966D01*
X96874673Y-161166321D01*
X96859083Y-161162320D01*
X96826630Y-161138444D01*
X96822793Y-161127768D01*
X96814513Y-161087929D01*
X96807360Y-161066925D01*
X96806288Y-161032958D01*
X96817586Y-161026707D01*
X96842969Y-161048104D01*
X96868700Y-161099751D01*
X96869309Y-161101476D01*
X96883466Y-161151966D01*
X96963687Y-161151966D01*
X96958046Y-161129656D01*
X96959495Y-161051954D01*
X96963147Y-161019988D01*
X96987122Y-160888774D01*
X97016016Y-160816149D01*
X96821990Y-160816149D01*
X96821186Y-160886867D01*
X96755125Y-160811692D01*
X96716855Y-160758579D01*
X96714164Y-160729226D01*
X96718629Y-160726661D01*
X96777228Y-160728030D01*
X96814360Y-160769948D01*
X96821990Y-160816149D01*
X97016016Y-160816149D01*
X97024476Y-160794887D01*
X97081728Y-160725272D01*
X97127898Y-160690017D01*
X97202777Y-160627006D01*
X97251781Y-160549550D01*
X97279407Y-160446461D01*
X97290149Y-160306548D01*
X97290539Y-160285174D01*
X97293163Y-160087358D01*
X97463448Y-160048524D01*
X97558830Y-160028598D01*
X97641178Y-160014589D01*
X97689861Y-160009690D01*
X97728174Y-160012682D01*
X97725989Y-160030293D01*
X97701682Y-160058649D01*
X97668825Y-160119115D01*
X97675038Y-160172945D01*
X97717520Y-160205559D01*
X97730448Y-160208301D01*
X97780370Y-160237239D01*
X97793752Y-160269726D01*
X97824655Y-160320212D01*
X97877948Y-160350795D01*
X97933816Y-160381683D01*
X97953309Y-160430090D01*
X97954225Y-160451723D01*
X97971129Y-160514932D01*
X98016527Y-160545911D01*
X98082441Y-160547870D01*
X98160897Y-160524017D01*
X98243918Y-160477560D01*
X98323530Y-160411709D01*
X98391757Y-160329672D01*
X98430343Y-160260165D01*
X98459672Y-160209465D01*
X98485929Y-160187684D01*
X98486435Y-160187668D01*
X98534418Y-160205264D01*
X98598170Y-160249326D01*
X98661502Y-160306769D01*
X98708226Y-160364506D01*
X98711040Y-160369229D01*
X98750798Y-160419429D01*
X98790194Y-160441843D01*
X98792081Y-160441922D01*
X98816638Y-160447477D01*
X98828011Y-160469886D01*
X99938718Y-160469886D01*
X99922748Y-160413260D01*
X99911520Y-160390177D01*
X99881888Y-160345255D01*
X99842143Y-160315679D01*
X99783608Y-160299899D01*
X99697612Y-160296365D01*
X99575480Y-160303527D01*
X99477805Y-160312659D01*
X99350089Y-160324352D01*
X99227318Y-160333584D01*
X99126816Y-160339145D01*
X99082627Y-160340221D01*
X98961302Y-160340221D01*
X98866021Y-160158902D01*
X98800707Y-160057367D01*
X98646817Y-160057367D01*
X98628192Y-160045181D01*
X98624843Y-160041896D01*
X98604760Y-160008560D01*
X98607483Y-159996305D01*
X98626397Y-160003935D01*
X98639076Y-160027663D01*
X98646817Y-160057367D01*
X98800707Y-160057367D01*
X98731174Y-159949274D01*
X98728120Y-159946127D01*
X98602573Y-159946127D01*
X98589860Y-159958839D01*
X98577147Y-159946127D01*
X98589860Y-159933414D01*
X98526297Y-159933414D01*
X98516994Y-159954342D01*
X98509346Y-159950364D01*
X98506303Y-159920190D01*
X98509346Y-159916464D01*
X98524462Y-159919954D01*
X98526297Y-159933414D01*
X98589860Y-159933414D01*
X98602573Y-159946127D01*
X98728120Y-159946127D01*
X98569416Y-159782643D01*
X98380358Y-159658618D01*
X98355317Y-159646343D01*
X98267699Y-159607138D01*
X98195007Y-159582932D01*
X98119204Y-159570179D01*
X98022248Y-159565334D01*
X97940193Y-159564745D01*
X97822635Y-159566079D01*
G37*
X97822635Y-159566079D02*
X97737746Y-159572711D01*
X97667363Y-159588586D01*
X97593323Y-159617650D01*
X97507961Y-159658635D01*
X97302715Y-159787843D01*
X97127798Y-159954120D01*
X96988601Y-160150614D01*
X96890514Y-160370471D01*
X96859414Y-160483202D01*
X96837071Y-160578548D01*
X96818540Y-160634518D01*
X96797471Y-160661562D01*
X96767512Y-160670129D01*
X96745406Y-160670751D01*
X96674145Y-160692072D01*
X96625195Y-160749661D01*
X96598833Y-160833958D01*
X96595334Y-160935403D01*
X96614973Y-161044436D01*
X96658027Y-161151497D01*
X96724771Y-161247025D01*
X96728661Y-161251248D01*
X96794468Y-161308502D01*
X96868222Y-161353757D01*
X96932641Y-161377418D01*
X96956895Y-161377964D01*
X96988215Y-161391789D01*
X97043767Y-161434403D01*
X97113024Y-161497481D01*
X97133157Y-161517392D01*
X97262247Y-161629576D01*
X97400154Y-161719713D01*
X97438262Y-161739160D01*
X97598269Y-161814855D01*
X97501252Y-161814875D01*
X97423564Y-161808081D01*
X97360921Y-161791417D01*
X97355110Y-161788605D01*
X97307473Y-161776222D01*
X97224751Y-161766761D01*
X97122695Y-161761857D01*
X97094677Y-161761530D01*
X96883368Y-161760745D01*
X96884862Y-161642356D01*
X96884380Y-161628922D01*
X96848219Y-161628922D01*
X96835515Y-161677764D01*
X96805059Y-161737416D01*
X96768329Y-161789222D01*
X96736806Y-161814525D01*
X96733783Y-161814895D01*
X96738522Y-161793059D01*
X96754846Y-161736982D01*
X96769997Y-161688108D01*
X96800745Y-161605280D01*
X96825535Y-161566544D01*
X96842111Y-161573607D01*
X96848218Y-161628174D01*
X96848219Y-161628922D01*
X96884380Y-161628922D01*
X96882187Y-161567812D01*
X96868148Y-161529983D01*
X96837417Y-161515094D01*
X96835506Y-161514733D01*
X96780615Y-161492517D01*
X96759230Y-161474697D01*
X96663895Y-161395234D01*
X96552002Y-161359345D01*
X96434854Y-161368067D01*
X96323754Y-161422436D01*
X96309648Y-161433483D01*
X96226420Y-161522529D01*
X96159447Y-161632116D01*
X96118661Y-161743643D01*
X96110881Y-161805778D01*
X96134433Y-161891357D01*
X96199436Y-161959692D01*
X96297409Y-162003171D01*
X96339903Y-162011379D01*
X96431435Y-162037301D01*
X96507287Y-162081915D01*
X96511380Y-162085571D01*
X96564050Y-162126295D01*
X96605767Y-162145251D01*
X96608439Y-162145426D01*
X96647698Y-162160727D01*
X96703623Y-162198562D01*
X96716455Y-162208989D01*
X96773409Y-162250252D01*
X96818471Y-162271697D01*
X96824864Y-162272553D01*
X96831845Y-162288031D01*
X96805286Y-162328314D01*
X96792703Y-162342473D01*
X96701158Y-162455208D01*
X96655237Y-162553047D01*
X96655188Y-162644046D01*
X96701257Y-162736261D01*
X96793694Y-162837749D01*
X96808349Y-162851332D01*
X96944832Y-162976069D01*
X96953732Y-163437937D01*
X96955490Y-163584815D01*
X96954968Y-163712416D01*
X96952368Y-163812757D01*
X96947892Y-163877858D01*
X96942063Y-163899793D01*
X96923783Y-163907983D01*
X96944288Y-163928793D01*
X96994933Y-163956504D01*
X97067074Y-163985399D01*
X97076156Y-163988473D01*
X97160896Y-164025305D01*
X97210386Y-164065478D01*
X97217052Y-164078278D01*
X97240976Y-164123136D01*
X97287245Y-164189875D01*
X97332091Y-164247101D01*
X97389141Y-164324124D01*
X97409298Y-164371900D01*
X97403340Y-164385483D01*
X97395819Y-164416387D01*
X97417565Y-164470931D01*
X97461208Y-164537489D01*
X97519376Y-164604438D01*
X97571297Y-164650375D01*
X97669264Y-164702913D01*
X97761005Y-164710090D01*
X97839260Y-164672005D01*
X97863390Y-164646401D01*
X97894630Y-164586447D01*
X97838166Y-164586447D01*
X97831794Y-164599675D01*
X97817628Y-164618049D01*
X97771417Y-164650024D01*
X97712126Y-164662459D01*
X97663052Y-164652166D01*
X97651389Y-164640790D01*
X97661830Y-164628705D01*
X97700886Y-164631070D01*
X97767198Y-164627234D01*
X97808174Y-164608328D01*
X97820988Y-164598979D01*
X97610981Y-164598979D01*
X97598269Y-164611692D01*
X97585556Y-164598979D01*
X97598269Y-164586267D01*
X97610981Y-164598979D01*
X97820988Y-164598979D01*
X97838166Y-164586447D01*
X97894630Y-164586447D01*
X97901024Y-164574178D01*
X97915528Y-164500205D01*
X97915031Y-164497278D01*
X97860279Y-164497278D01*
X97857531Y-164540700D01*
X97849571Y-164544523D01*
X97848558Y-164542256D01*
X97843528Y-164491782D01*
X97847616Y-164465980D01*
X97855709Y-164455611D01*
X97860111Y-164489382D01*
X97860279Y-164497278D01*
X97915031Y-164497278D01*
X97901679Y-164418717D01*
X97894047Y-164396548D01*
X97753008Y-164396548D01*
X97726893Y-164421810D01*
X97678173Y-164450667D01*
X97650616Y-164458331D01*
X97646933Y-164445455D01*
X97672212Y-164421001D01*
X97458429Y-164421001D01*
X97445716Y-164433714D01*
X97433003Y-164421001D01*
X97445716Y-164408289D01*
X97458429Y-164421001D01*
X97672212Y-164421001D01*
X97673048Y-164420193D01*
X97721767Y-164391336D01*
X97749324Y-164383672D01*
X97753008Y-164396548D01*
X97894047Y-164396548D01*
X97880582Y-164357438D01*
X97839810Y-164357438D01*
X97830507Y-164378366D01*
X97822860Y-164374388D01*
X97819817Y-164344214D01*
X97822860Y-164340488D01*
X97837975Y-164343978D01*
X97839810Y-164357438D01*
X97880582Y-164357438D01*
X97867948Y-164320744D01*
X97700429Y-164320744D01*
X97667909Y-164352590D01*
X97661832Y-164357438D01*
X97609788Y-164392376D01*
X97573121Y-164407155D01*
X97572843Y-164407158D01*
X97572384Y-164394132D01*
X97604904Y-164362286D01*
X97610981Y-164357438D01*
X97663025Y-164322500D01*
X97699693Y-164307721D01*
X97699970Y-164307718D01*
X97700429Y-164320744D01*
X97867948Y-164320744D01*
X97867092Y-164318259D01*
X97855489Y-164293874D01*
X97814385Y-164293874D01*
X97801672Y-164306587D01*
X97788959Y-164293874D01*
X97801672Y-164281162D01*
X97814385Y-164293874D01*
X97855489Y-164293874D01*
X97820838Y-164221056D01*
X97786702Y-164170784D01*
X97688484Y-164170784D01*
X97662331Y-164228205D01*
X97647678Y-164250079D01*
X97588743Y-164299287D01*
X97515789Y-164300370D01*
X97430451Y-164253586D01*
X97379161Y-164207877D01*
X97318543Y-164140176D01*
X97285861Y-164088743D01*
X97283738Y-164059944D01*
X97314799Y-164060147D01*
X97318908Y-164061650D01*
X97363258Y-164071829D01*
X97440519Y-164083658D01*
X97522312Y-164093307D01*
X97622747Y-164108678D01*
X97676713Y-164132723D01*
X97688484Y-164170784D01*
X97786702Y-164170784D01*
X97772567Y-164149968D01*
X97750678Y-164118296D01*
X97762944Y-164094669D01*
X97808952Y-164067855D01*
X97859814Y-164030988D01*
X97889897Y-163978165D01*
X97901310Y-163899937D01*
X97899567Y-163861642D01*
X97712683Y-163861642D01*
X97699970Y-163874355D01*
X97687258Y-163861642D01*
X97699970Y-163848929D01*
X97712683Y-163861642D01*
X97899567Y-163861642D01*
X97897252Y-163810791D01*
X97687258Y-163810791D01*
X97674545Y-163823504D01*
X97661832Y-163810791D01*
X97585556Y-163810791D01*
X97572843Y-163823504D01*
X97560130Y-163810791D01*
X97572843Y-163798079D01*
X97585556Y-163810791D01*
X97661832Y-163810791D01*
X97674545Y-163798079D01*
X97687258Y-163810791D01*
X97897252Y-163810791D01*
X97896161Y-163786855D01*
X97887973Y-163713802D01*
X97877749Y-163625260D01*
X97871865Y-163559664D01*
X97871482Y-163530184D01*
X97871739Y-163529768D01*
X97894289Y-163540448D01*
X97951225Y-163573434D01*
X98034065Y-163623670D01*
X98134331Y-163686104D01*
X98139278Y-163689221D01*
X98251610Y-163758851D01*
X98329756Y-163803506D01*
X98381695Y-163826634D01*
X98415407Y-163831681D01*
X98438871Y-163822095D01*
X98441694Y-163819864D01*
X98469983Y-163800601D01*
X98471571Y-163819207D01*
X98463891Y-163845282D01*
X98455522Y-163887618D01*
X98478048Y-163894453D01*
X98504718Y-163887912D01*
X98541809Y-163880089D01*
X98534351Y-163891528D01*
X98527158Y-163896655D01*
X98515505Y-163921289D01*
X98546262Y-163944267D01*
X98611001Y-163962774D01*
X98701293Y-163973993D01*
X98764879Y-163976057D01*
X98890027Y-163965608D01*
X99015238Y-163937243D01*
X99085315Y-163911798D01*
X98882373Y-163911798D01*
X98856415Y-163915445D01*
X98791009Y-163917047D01*
X98780551Y-163917068D01*
X98710699Y-163915766D01*
X98679598Y-163912332D01*
X98692945Y-163907472D01*
X98697918Y-163906813D01*
X98787073Y-163902605D01*
X98863184Y-163906813D01*
X98882373Y-163911798D01*
X99085315Y-163911798D01*
X99130400Y-163895428D01*
X99153962Y-163882830D01*
X99026330Y-163882830D01*
X99022840Y-163897945D01*
X99009380Y-163899780D01*
X98988452Y-163890477D01*
X98992429Y-163882830D01*
X99022603Y-163879787D01*
X99026330Y-163882830D01*
X99153962Y-163882830D01*
X99193592Y-163861642D01*
X99111081Y-163861642D01*
X99098369Y-163874355D01*
X99085656Y-163861642D01*
X99098369Y-163848929D01*
X99111081Y-163861642D01*
X99193592Y-163861642D01*
X99225402Y-163844635D01*
X99290132Y-163789331D01*
X99314479Y-163733985D01*
X99314485Y-163733149D01*
X99303314Y-163709090D01*
X99276347Y-163709090D01*
X99214707Y-163779009D01*
X99165016Y-163832140D01*
X99140887Y-163848637D01*
X99136507Y-163840649D01*
X99153563Y-163820208D01*
X99195665Y-163780315D01*
X99206427Y-163770729D01*
X99215550Y-163762686D01*
X98995801Y-163762686D01*
X98971100Y-163798234D01*
X98930777Y-163832157D01*
X98909988Y-163833038D01*
X98919074Y-163804167D01*
X98922044Y-163800171D01*
X98860402Y-163800171D01*
X98852176Y-163816396D01*
X98812766Y-163832150D01*
X98751976Y-163832314D01*
X98696487Y-163817897D01*
X98683775Y-163810022D01*
X98701092Y-163803970D01*
X98753829Y-163796467D01*
X98777378Y-163794023D01*
X98840099Y-163791067D01*
X98860402Y-163800171D01*
X98922044Y-163800171D01*
X98932593Y-163785980D01*
X98971397Y-163753570D01*
X98991008Y-163747228D01*
X98995801Y-163762686D01*
X99215550Y-163762686D01*
X99276347Y-163709090D01*
X99303314Y-163709090D01*
X99292703Y-163686241D01*
X99229583Y-163663806D01*
X99128464Y-163666028D01*
X98992684Y-163693095D01*
X98927302Y-163711559D01*
X98902794Y-163715365D01*
X98899054Y-163698926D01*
X98916698Y-163651994D01*
X98933100Y-163615281D01*
X98976940Y-163472682D01*
X98975791Y-163415377D01*
X98933103Y-163415377D01*
X98919101Y-163513355D01*
X98879386Y-163574939D01*
X98822226Y-163594675D01*
X98765028Y-163612560D01*
X98706569Y-163655840D01*
X98704275Y-163658239D01*
X98651041Y-163707901D01*
X98621708Y-163714474D01*
X98613001Y-163675980D01*
X98619292Y-163606923D01*
X98624538Y-163523238D01*
X98609452Y-163468436D01*
X98591088Y-163443480D01*
X98562982Y-163394881D01*
X98568145Y-163339674D01*
X98609113Y-163268228D01*
X98651450Y-163214143D01*
X98724667Y-163126002D01*
X98828885Y-163230220D01*
X98895733Y-163306399D01*
X98927449Y-163370320D01*
X98933103Y-163415377D01*
X98975791Y-163415377D01*
X98974338Y-163343021D01*
X98947178Y-163266778D01*
X98924616Y-163200932D01*
X98922970Y-163147269D01*
X98918431Y-163088242D01*
X98902539Y-163058511D01*
X98854073Y-163022972D01*
X98770213Y-162983326D01*
X98665527Y-162944931D01*
X98554581Y-162913149D01*
X98454448Y-162893663D01*
X98386845Y-162882228D01*
X98341922Y-162862516D01*
X98305431Y-162823109D01*
X98305000Y-162822390D01*
X98106777Y-162822390D01*
X97928799Y-162864540D01*
X97804380Y-162893190D01*
X97712040Y-162911602D01*
X97634643Y-162922324D01*
X97555050Y-162927905D01*
X97487490Y-162930152D01*
X97409461Y-162930274D01*
X97371844Y-162923086D01*
X97364339Y-162905012D01*
X97369320Y-162889120D01*
X97391869Y-162830952D01*
X97411586Y-162777804D01*
X97444814Y-162726658D01*
X97506907Y-162699856D01*
X97529756Y-162695451D01*
X97671390Y-162680337D01*
X97774256Y-162689384D01*
X97844686Y-162723259D01*
X97851726Y-162729462D01*
X97912127Y-162767868D01*
X97991839Y-162797635D01*
X98005917Y-162800977D01*
X98106777Y-162822390D01*
X98305000Y-162822390D01*
X98287832Y-162793774D01*
X98144915Y-162793774D01*
X98132203Y-162806487D01*
X98119490Y-162793774D01*
X98132203Y-162781062D01*
X98144915Y-162793774D01*
X98287832Y-162793774D01*
X98263124Y-162752591D01*
X98251005Y-162730648D01*
X98221330Y-162656583D01*
X97351176Y-162656583D01*
X97349225Y-162770140D01*
X97313469Y-162852217D01*
X97237611Y-162914103D01*
X97195767Y-162935217D01*
X97124784Y-162966944D01*
X97082719Y-162978956D01*
X97051543Y-162971071D01*
X97013222Y-162943104D01*
X97000771Y-162933236D01*
X96960329Y-162896062D01*
X96958657Y-162872412D01*
X96975346Y-162858609D01*
X97051322Y-162804935D01*
X96941342Y-162804935D01*
X96939781Y-162827748D01*
X96912419Y-162853980D01*
X96877149Y-162844012D01*
X96823835Y-162794881D01*
X96822477Y-162793438D01*
X96783690Y-162740022D01*
X96787234Y-162704907D01*
X96789230Y-162702753D01*
X96823562Y-162698946D01*
X96871017Y-162723557D01*
X96915607Y-162763312D01*
X96941342Y-162804935D01*
X97051322Y-162804935D01*
X97065599Y-162794849D01*
X97117197Y-162745292D01*
X97127898Y-162721564D01*
X97115393Y-162711105D01*
X97097388Y-162725126D01*
X97040619Y-162753731D01*
X96974824Y-162733640D01*
X96915551Y-162683293D01*
X96873030Y-162634369D01*
X96864141Y-162604567D01*
X96884624Y-162579098D01*
X96885368Y-162578478D01*
X96917518Y-162538486D01*
X96923411Y-162517338D01*
X96908061Y-162519014D01*
X96869274Y-162552337D01*
X96825121Y-162599341D01*
X96727916Y-162710012D01*
X96711251Y-162643616D01*
X96712083Y-162561417D01*
X96732598Y-162503714D01*
X96779116Y-162437354D01*
X96846926Y-162367142D01*
X96922464Y-162304500D01*
X96992167Y-162260855D01*
X97037129Y-162247223D01*
X97132215Y-162271380D01*
X97217894Y-162337898D01*
X97287720Y-162438370D01*
X97335244Y-162564390D01*
X97351176Y-162656583D01*
X98221330Y-162656583D01*
X98186315Y-162569191D01*
X98171670Y-162408073D01*
X98206606Y-162241766D01*
X98209212Y-162234415D01*
X98232585Y-162158942D01*
X98244841Y-162099742D01*
X98168557Y-162099742D01*
X98148879Y-162188002D01*
X98144021Y-162197948D01*
X98109138Y-162240438D01*
X98080472Y-162239393D01*
X98070111Y-162200924D01*
X97890731Y-162200924D01*
X97868895Y-162253658D01*
X97812495Y-162315785D01*
X97717813Y-162394363D01*
X97668189Y-162432133D01*
X97577108Y-162499684D01*
X97501617Y-162554252D01*
X97450532Y-162589553D01*
X97433003Y-162599720D01*
X97416480Y-162579026D01*
X97385147Y-162523960D01*
X97345658Y-162446252D01*
X97344014Y-162442862D01*
X97279702Y-162330257D01*
X97212883Y-162257535D01*
X97178749Y-162234415D01*
X97119730Y-162193310D01*
X97097560Y-162151546D01*
X97097805Y-162113644D01*
X97104019Y-162072950D01*
X97118370Y-162051833D01*
X97152126Y-162047872D01*
X97216557Y-162058641D01*
X97284867Y-162073410D01*
X97384695Y-162098801D01*
X97437788Y-162123544D01*
X97447979Y-162152348D01*
X97419103Y-162189921D01*
X97395859Y-162209762D01*
X97342853Y-162257427D01*
X97330429Y-162281044D01*
X97354802Y-162281414D01*
X97412190Y-162259340D01*
X97498809Y-162215625D01*
X97576885Y-162171358D01*
X97800516Y-162039735D01*
X97845589Y-162095397D01*
X97881723Y-162150524D01*
X97890731Y-162200924D01*
X98070111Y-162200924D01*
X98068639Y-162195460D01*
X98053212Y-162113131D01*
X98014453Y-162020231D01*
X97963643Y-161940640D01*
X97934159Y-161910806D01*
X97901384Y-161883166D01*
X97902444Y-161870444D01*
X97944075Y-161866693D01*
X97984565Y-161866312D01*
X98064669Y-161873887D01*
X98114491Y-161902445D01*
X98130761Y-161922254D01*
X98162081Y-162002080D01*
X98168557Y-162099742D01*
X98244841Y-162099742D01*
X98245417Y-162096963D01*
X98246234Y-162085462D01*
X98254366Y-162058230D01*
X98282415Y-162050135D01*
X98336742Y-162062528D01*
X98423709Y-162096757D01*
X98532868Y-162146285D01*
X98625051Y-162192816D01*
X98682639Y-162233429D01*
X98718844Y-162279531D01*
X98740196Y-162325277D01*
X98774199Y-162465317D01*
X98763446Y-162594983D01*
X98710114Y-162706760D01*
X98616381Y-162793135D01*
X98602203Y-162801618D01*
X98544484Y-162841599D01*
X98528090Y-162870124D01*
X98555285Y-162882567D01*
X98562484Y-162882763D01*
X98611905Y-162864095D01*
X98675819Y-162816744D01*
X98739566Y-162753692D01*
X98788488Y-162687920D01*
X98794177Y-162677594D01*
X98816771Y-162607964D01*
X98829984Y-162517080D01*
X98831402Y-162480092D01*
X98823385Y-162387516D01*
X98793707Y-162305673D01*
X98748769Y-162230932D01*
X98662937Y-162128684D01*
X98552735Y-162033936D01*
X98435224Y-161959617D01*
X98340775Y-161921757D01*
X98283281Y-161898987D01*
X98253003Y-161872159D01*
X98252815Y-161871628D01*
X98268919Y-161846556D01*
X98308103Y-161819598D01*
X97091698Y-161819598D01*
X97090725Y-161829151D01*
X97063421Y-161843498D01*
X97021887Y-161887051D01*
X96987716Y-161975831D01*
X96978244Y-162013399D01*
X96955459Y-162098135D01*
X96931739Y-162164861D01*
X96917504Y-162191527D01*
X96887767Y-162208896D01*
X96867685Y-162185372D01*
X96860299Y-162130484D01*
X96868653Y-162053757D01*
X96870604Y-162044657D01*
X96911454Y-161920192D01*
X96936172Y-161886445D01*
X96740876Y-161886445D01*
X96736524Y-161905964D01*
X96725773Y-161958688D01*
X96721098Y-162030568D01*
X96721091Y-162033091D01*
X96716420Y-162090424D01*
X96696341Y-162114568D01*
X96651759Y-162107629D01*
X96573577Y-162071711D01*
X96567526Y-162068633D01*
X96506667Y-162033171D01*
X96470853Y-162003771D01*
X96466837Y-161995704D01*
X96444303Y-161979300D01*
X96387873Y-161964175D01*
X96363162Y-161960238D01*
X96261550Y-161931588D01*
X96191864Y-161880834D01*
X96162662Y-161814610D01*
X96162290Y-161804598D01*
X96182009Y-161706143D01*
X96232548Y-161605507D01*
X96303914Y-161514670D01*
X96386116Y-161445610D01*
X96469163Y-161410307D01*
X96493017Y-161408089D01*
X96594906Y-161426492D01*
X96674773Y-161475523D01*
X96724152Y-161545908D01*
X96734578Y-161628377D01*
X96725808Y-161663045D01*
X96712041Y-161690219D01*
X96691276Y-161692906D01*
X96651685Y-161668086D01*
X96606115Y-161632470D01*
X96504975Y-161551744D01*
X96600755Y-161653055D01*
X96696534Y-161754365D01*
X96638893Y-161808369D01*
X96590045Y-161843977D01*
X96548092Y-161842689D01*
X96530401Y-161834132D01*
X96495830Y-161817175D01*
X96500259Y-161830666D01*
X96514445Y-161848531D01*
X96536099Y-161890850D01*
X96517688Y-161929310D01*
X96502242Y-161960341D01*
X96520827Y-161967779D01*
X96563128Y-161952914D01*
X96618830Y-161917034D01*
X96619390Y-161916597D01*
X96680801Y-161877900D01*
X96724378Y-161867569D01*
X96740876Y-161886445D01*
X96936172Y-161886445D01*
X96967148Y-161844156D01*
X97037585Y-161816679D01*
X97045852Y-161816616D01*
X97091698Y-161819598D01*
X98308103Y-161819598D01*
X98321008Y-161810720D01*
X98397014Y-161769991D01*
X98484867Y-161730238D01*
X98572501Y-161697334D01*
X98647847Y-161677148D01*
X98655119Y-161675917D01*
X98774951Y-161638600D01*
X98883710Y-161570959D01*
X98974856Y-161481876D01*
X99041851Y-161380236D01*
X99078159Y-161274920D01*
X99078123Y-161270941D01*
X99026714Y-161270941D01*
X99003878Y-161328912D01*
X98964977Y-161396994D01*
X98917915Y-161460432D01*
X98891740Y-161487700D01*
X98831845Y-161535687D01*
X98761161Y-161583129D01*
X98696360Y-161619710D01*
X98654117Y-161635115D01*
X98653424Y-161635141D01*
X98663708Y-161620350D01*
X98703421Y-161581784D01*
X98749163Y-161540813D01*
X98812972Y-161475840D01*
X98851000Y-161418038D01*
X98857221Y-161393801D01*
X98873167Y-161354253D01*
X98912171Y-161306330D01*
X98960284Y-161262954D01*
X99003558Y-161237047D01*
X99025581Y-161237836D01*
X99026714Y-161270941D01*
X99078123Y-161270941D01*
X99077240Y-161174811D01*
X99059336Y-161126737D01*
X99026988Y-161086768D01*
X98999842Y-161080477D01*
X98991692Y-161108156D01*
X98995711Y-161125398D01*
X98993126Y-161172240D01*
X98974794Y-161187091D01*
X98955586Y-161188699D01*
X98951770Y-161166229D01*
X98963259Y-161109753D01*
X98973735Y-161069331D01*
X98994046Y-160982154D01*
X99006843Y-160906325D01*
X99009078Y-160877791D01*
X99016903Y-160835525D01*
X99046216Y-160833834D01*
X99053874Y-160836871D01*
X99231793Y-160893680D01*
X99405620Y-160913506D01*
X99567585Y-160897764D01*
X99709915Y-160847871D01*
X99824840Y-160765242D01*
X99886916Y-160685144D01*
X99935411Y-160583824D01*
X99946884Y-160498846D01*
X99938718Y-160469886D01*
X98828011Y-160469886D01*
X98826176Y-160517767D01*
X98811109Y-160599738D01*
X98791415Y-160687464D01*
X98766219Y-160840908D01*
X98767947Y-160982733D01*
X98771470Y-161013216D01*
X98783242Y-161186323D01*
X98766181Y-161325374D01*
X98717535Y-161439968D01*
X98634552Y-161539702D01*
X98615546Y-161557002D01*
X98510367Y-161639780D01*
X98402199Y-161702115D01*
X98279878Y-161747917D01*
X98132239Y-161781098D01*
X97948119Y-161805567D01*
X97889646Y-161811286D01*
X97844792Y-161807110D01*
X97769692Y-161792564D01*
X97704885Y-161776969D01*
X97481852Y-161697508D01*
X97288468Y-161584730D01*
X97130278Y-161442623D01*
X97045820Y-161323314D01*
X96967272Y-161323314D01*
X96952882Y-161331812D01*
X96920198Y-161318845D01*
X96864337Y-161286523D01*
X96845622Y-161274400D01*
X96762067Y-161194174D01*
X96694120Y-161083768D01*
X96652577Y-160963625D01*
X96644815Y-160894193D01*
X96649863Y-160824735D01*
X96667086Y-160802919D01*
X96699600Y-160828293D01*
X96737671Y-160880685D01*
X96778790Y-160973816D01*
X96779741Y-161042633D01*
X96777892Y-161098566D01*
X96800768Y-161141886D01*
X96856298Y-161190162D01*
X96917115Y-161243460D01*
X96956267Y-161291014D01*
X96967272Y-161323314D01*
X97045820Y-161323314D01*
X97016272Y-161281575D01*
X96975230Y-161197621D01*
X96963687Y-161151966D01*
X96883466Y-161151966D01*
X96874673Y-161166321D01*
X96859083Y-161162320D01*
X96826630Y-161138444D01*
X96822793Y-161127768D01*
X96814513Y-161087929D01*
X96807360Y-161066925D01*
X96806288Y-161032958D01*
X96817586Y-161026707D01*
X96842969Y-161048104D01*
X96868700Y-161099751D01*
X96869309Y-161101476D01*
X96883466Y-161151966D01*
X96963687Y-161151966D01*
X96958046Y-161129656D01*
X96959495Y-161051954D01*
X96963147Y-161019988D01*
X96987122Y-160888774D01*
X97016016Y-160816149D01*
X96821990Y-160816149D01*
X96821186Y-160886867D01*
X96755125Y-160811692D01*
X96716855Y-160758579D01*
X96714164Y-160729226D01*
X96718629Y-160726661D01*
X96777228Y-160728030D01*
X96814360Y-160769948D01*
X96821990Y-160816149D01*
X97016016Y-160816149D01*
X97024476Y-160794887D01*
X97081728Y-160725272D01*
X97127898Y-160690017D01*
X97202777Y-160627006D01*
X97251781Y-160549550D01*
X97279407Y-160446461D01*
X97290149Y-160306548D01*
X97290539Y-160285174D01*
X97293163Y-160087358D01*
X97463448Y-160048524D01*
X97558830Y-160028598D01*
X97641178Y-160014589D01*
X97689861Y-160009690D01*
X97728174Y-160012682D01*
X97725989Y-160030293D01*
X97701682Y-160058649D01*
X97668825Y-160119115D01*
X97675038Y-160172945D01*
X97717520Y-160205559D01*
X97730448Y-160208301D01*
X97780370Y-160237239D01*
X97793752Y-160269726D01*
X97824655Y-160320212D01*
X97877948Y-160350795D01*
X97933816Y-160381683D01*
X97953309Y-160430090D01*
X97954225Y-160451723D01*
X97971129Y-160514932D01*
X98016527Y-160545911D01*
X98082441Y-160547870D01*
X98160897Y-160524017D01*
X98243918Y-160477560D01*
X98323530Y-160411709D01*
X98391757Y-160329672D01*
X98430343Y-160260165D01*
X98459672Y-160209465D01*
X98485929Y-160187684D01*
X98486435Y-160187668D01*
X98534418Y-160205264D01*
X98598170Y-160249326D01*
X98661502Y-160306769D01*
X98708226Y-160364506D01*
X98711040Y-160369229D01*
X98750798Y-160419429D01*
X98790194Y-160441843D01*
X98792081Y-160441922D01*
X98816638Y-160447477D01*
X98828011Y-160469886D01*
X99938718Y-160469886D01*
X99922748Y-160413260D01*
X99911520Y-160390177D01*
X99881888Y-160345255D01*
X99842143Y-160315679D01*
X99783608Y-160299899D01*
X99697612Y-160296365D01*
X99575480Y-160303527D01*
X99477805Y-160312659D01*
X99350089Y-160324352D01*
X99227318Y-160333584D01*
X99126816Y-160339145D01*
X99082627Y-160340221D01*
X98961302Y-160340221D01*
X98866021Y-160158902D01*
X98800707Y-160057367D01*
X98646817Y-160057367D01*
X98628192Y-160045181D01*
X98624843Y-160041896D01*
X98604760Y-160008560D01*
X98607483Y-159996305D01*
X98626397Y-160003935D01*
X98639076Y-160027663D01*
X98646817Y-160057367D01*
X98800707Y-160057367D01*
X98731174Y-159949274D01*
X98728120Y-159946127D01*
X98602573Y-159946127D01*
X98589860Y-159958839D01*
X98577147Y-159946127D01*
X98589860Y-159933414D01*
X98526297Y-159933414D01*
X98516994Y-159954342D01*
X98509346Y-159950364D01*
X98506303Y-159920190D01*
X98509346Y-159916464D01*
X98524462Y-159919954D01*
X98526297Y-159933414D01*
X98589860Y-159933414D01*
X98602573Y-159946127D01*
X98728120Y-159946127D01*
X98569416Y-159782643D01*
X98380358Y-159658618D01*
X98355317Y-159646343D01*
X98267699Y-159607138D01*
X98195007Y-159582932D01*
X98119204Y-159570179D01*
X98022248Y-159565334D01*
X97940193Y-159564745D01*
X97822635Y-159566079D01*
%TD*%
M02*
