M48
; DRILL file {KiCad (5.1.7)-1} date 05/19/21 11:45:44
; FORMAT={-:-/ absolute / inch / decimal}
; #@! TF.CreationDate,2021-05-19T11:45:44-05:00
; #@! TF.GenerationSoftware,Kicad,Pcbnew,(5.1.7)-1
; #@! TF.FileFunction,Plated,1,2,PTH
FMAT,2
INCH
T1C0.0157
T2C0.0315
T3C0.0354
T4C0.0394
T5C0.0469
T6C0.0709
T7C0.0906
T8C0.1894
T9C0.1929
%
G90
G05
T1
X3.185Y-4.1858
X3.365Y-5.8012
X3.4583Y-2.3709
X3.5244Y-5.9134
X3.5362Y-2.7232
X3.5756Y-5.1823
X3.6923Y-3.6197
X3.7122Y-2.0909
X3.7632Y-3.4091
X3.8012Y-6.1657
X3.8224Y-1.9323
X3.8783Y-4.7437
X3.9727Y-4.7527
X3.9819Y-3.7028
X4.0524Y-4.7602
X4.1551Y-6.089
X4.2453Y-5.3539
X4.2724Y-2.8126
X4.3118Y-4.9106
X4.4429Y-2.1453
X4.7157Y-2.8815
X4.837Y-5.8697
X4.8657Y-2.6205
X4.8743Y-2.5546
X4.8872Y-2.4553
X5.0476Y-5.9081
X5.1354Y-5.6441
X5.4339Y-1.7469
X5.6142Y-6.4366
X5.8685Y-2.2457
X5.9213Y-2.5512
X6.1736Y-5.7447
X6.1842Y-5.6401
X6.1909Y-5.5736
X6.2445Y-2.2929
X6.3417Y-5.3146
X6.6146Y-6.0472
X6.7453Y-3.2839
X6.7854Y-5.3803
X6.8102Y-2.8421
X6.9028Y-2.1063
X7.0075Y-3.4331
X7.0899Y-3.4377
X7.1057Y-4.5311
X7.1598Y-3.4415
X7.235Y-6.2626
X7.2579Y-2.0299
X7.3065Y-4.5774
X7.3457Y-6.1012
X7.3508Y-4.7988
X7.4787Y-3.0118
X7.5343Y-2.2823
X7.5409Y-5.4433
X7.5969Y-5.8248
X7.6949Y-2.3929
X7.8689Y-3.8819
T2
X4.0209Y-1.8712
X4.1799Y-2.1256
X4.8319Y-2.8303
X4.9285Y-2.8562
X5.0251Y-2.8821
X5.3272Y-2.2791
X5.3637Y-1.9814
X6.4476Y-5.7264
X6.5359Y-5.6794
X6.6242Y-5.6325
X5.7761Y-6.1801
X5.7866Y-5.8803
X4.3811Y-4.535
X4.4249Y-4.4452
X4.4688Y-4.3553
X5.0424Y-2.5344
X5.1693Y-2.4805
X3.7531Y-5.1291
X3.9726Y-5.3337
X5.4909Y-2.9955
X5.5378Y-2.6992
X6.0316Y-5.3132
X6.1282Y-5.3391
X6.2248Y-5.365
X4.9331Y-3.4976
X5.1525Y-3.293
X6.2756Y-3.1449
X6.2895Y-3.0459
X6.3034Y-2.9468
X3.7394Y-3.95
X3.8469Y-3.6699
X6.6114Y-5.0026
X6.6933Y-5.06
X6.7752Y-5.1173
X5.7049Y-5.0742
X5.8173Y-4.7961
X6.3728Y-2.4626
X6.4384Y-2.3871
X6.504Y-2.3117
X6.7638Y-4.6914
X6.9272Y-4.4398
X4.7576Y-5.2465
X4.7715Y-5.1475
X4.7854Y-5.0484
X4.5373Y-3.6498
X4.6139Y-3.5855
X4.6906Y-3.5213
X4.9567Y-4.9358
X5.021Y-5.0124
X5.0853Y-5.089
X7.3878Y-5.889
X7.5534Y-5.6388
X6.8961Y-3.0417
X6.9737Y-2.752
X6.5638Y-3.5732
X6.6055Y-3.2761
X5.8073Y-3.2566
X5.8882Y-3.3154
X5.9691Y-3.3741
X7.3113Y-3.6816
X7.3157Y-3.5817
X7.32Y-3.4818
X7.3244Y-3.3819
X7.611Y-3.6947
X7.6154Y-3.5948
X7.6198Y-3.4949
X7.6241Y-3.395
X4.7049Y-3.0181
X5.002Y-3.0598
X5.3409Y-5.2756
X5.4725Y-5.006
X5.9173Y-6.2807
X6.2169Y-6.2964
X4.2428Y-2.0306
X4.3906Y-2.2917
X6.7537Y-5.801
X6.8244Y-5.7303
X6.8951Y-5.6596
X6.9658Y-5.5889
X6.9658Y-6.0132
X7.0365Y-5.5182
X7.0365Y-5.9425
X7.1072Y-5.4475
X7.1072Y-5.8717
X7.178Y-5.3768
X7.178Y-5.801
X7.2487Y-5.7303
X7.3194Y-5.6596
X7.3901Y-5.5889
X3.4586Y-5.3847
X3.7197Y-5.237
X4.0623Y-2.9491
X4.1239Y-3.0279
X4.1854Y-3.1067
X7.3402Y-3.2756
X7.6397Y-3.2599
X4.1256Y-3.7598
X4.289Y-3.5082
X4.557Y-5.8817
X4.6226Y-5.8062
X4.6882Y-5.7307
X6.2209Y-2.1634
X6.4905Y-2.0319
X4.7241Y-3.1613
X4.7606Y-3.4591
X4.7234Y-4.4727
X4.928Y-4.6921
X5.5886Y-3.1874
X5.7201Y-2.9177
X3.6639Y-2.6076
X3.7346Y-2.5368
X3.8053Y-2.4661
X3.876Y-2.3954
X3.876Y-2.8197
X3.9467Y-2.3247
X3.9467Y-2.749
X4.0174Y-2.254
X4.0174Y-2.6783
X4.0881Y-2.1833
X4.0881Y-2.6076
X4.1588Y-2.5368
X4.2295Y-2.4661
X4.3002Y-2.3954
X5.9758Y-3.1043
X6.0401Y-3.1809
X6.1043Y-3.2575
X6.0417Y-2.6091
X6.2933Y-2.7724
X7.2059Y-4.5297
X7.3134Y-4.2496
X5.5917Y-5.523
X5.7071Y-5.2512
X6.9782Y-4.3578
X7.2209Y-4.1815
X4.6345Y-2.8166
X4.6752Y-2.7252
X4.7159Y-2.6338
X4.6079Y-4.5435
X4.6748Y-4.6178
X4.7417Y-4.6921
X6.0547Y-5.1354
X6.3518Y-5.1772
X3.4411Y-4.3289
X3.7409Y-4.3394
X6.3408Y-5.5614
X6.3815Y-5.4701
X6.4222Y-5.3787
X4.3031Y-5.928
X4.3808Y-6.2177
X3.4294Y-4.8011
X3.4338Y-4.7012
X3.4381Y-4.6013
X3.4425Y-4.5014
X3.7291Y-4.8142
X3.7335Y-4.7143
X3.7379Y-4.6144
X3.7422Y-4.5145
X4.9338Y-5.3354
X5.1854Y-5.4988
X4.7677Y-5.4209
X5.0193Y-5.5843
X5.7832Y-5.1608
X5.8731Y-5.2046
X5.963Y-5.2484
X6.2961Y-4.7366
X6.3326Y-5.0344
X7.0711Y-2.0742
X7.3213Y-2.2398
X5.8748Y-5.7185
X6.0017Y-5.6647
X6.3642Y-4.6685
X6.4408Y-4.6042
X6.5174Y-4.5399
X5.6795Y-3.2976
X5.811Y-3.028
X6.1303Y-3.5004
X6.3349Y-3.7198
X6.5894Y-4.6748
X6.7209Y-4.4051
X4.3488Y-3.9154
X4.6185Y-4.0469
X6.2283Y-3.8067
X6.5065Y-3.9191
X5.215Y-2.8547
X5.3273Y-2.5766
X6.8051Y-2.4465
X6.8758Y-2.5172
X6.9465Y-2.5879
X7.0173Y-2.2343
X7.0173Y-2.6586
X7.088Y-2.305
X7.088Y-2.7293
X7.1587Y-2.3757
X7.1587Y-2.8
X7.2294Y-2.4465
X7.2294Y-2.8707
X7.3001Y-2.5172
X7.3708Y-2.5879
X7.4415Y-2.6586
X6.1689Y-3.328
X6.4667Y-3.2914
X5.8756Y-2.6945
X6.1272Y-2.8579
X7.0242Y-4.1437
X7.2179Y-3.9209
X6.4283Y-2.5996
X6.674Y-2.4276
X5.8409Y-2.9008
X6.1106Y-3.0323
X7.022Y-4.9976
X7.1941Y-5.2433
X6.6819Y-3.924
X6.9537Y-4.0394
X6.4768Y-4.8398
X6.5758Y-4.8537
X6.6748Y-4.8676
X5.0894Y-2.9496
X5.1792Y-2.9934
X5.2691Y-3.0373
X7.5147Y-2.5712
X7.6129Y-2.4746
X7.3445Y-3.1504
X7.6441Y-3.1347
X4.3819Y-5.7657
X4.6276Y-5.5937
X3.6081Y-5.5406
X3.6788Y-5.6113
X3.7495Y-5.682
X3.8202Y-5.3285
X3.8202Y-5.7528
X3.8909Y-5.3992
X3.8909Y-5.8235
X3.9616Y-5.4699
X3.9616Y-5.8942
X4.0324Y-5.5406
X4.0324Y-5.9649
X4.1031Y-5.6113
X4.1738Y-5.682
X4.2445Y-5.7528
X4.6957Y-1.9866
X4.7114Y-2.2862
X4.8106Y-2.3028
X4.8237Y-2.003
X4.9105Y-2.3071
X4.9236Y-2.0074
X5.0104Y-2.3115
X5.0235Y-2.0118
X5.1103Y-2.3158
X5.1234Y-2.0161
X5.2674Y-5.5498
X5.4437Y-5.7925
X4.2942Y-2.545
X4.4988Y-2.3256
X6.5858Y-5.4677
X6.8756Y-5.5454
X7.1591Y-4.937
X7.2345Y-5.0026
X7.31Y-5.0682
X7.2209Y-2.2981
X7.4331Y-2.5102
X3.622Y-5.6862
X3.8342Y-5.8984
X5.7282Y-5.6195
X5.8406Y-5.3413
X3.737Y-5.9591
X3.9872Y-6.1246
X4.0061Y-4.3002
X4.2843Y-4.4126
X4.5079Y-5.3469
X4.5652Y-5.2649
X4.6226Y-5.183
X5.6854Y-2.3083
X5.9655Y-2.4158
X5.25Y-5.1654
X5.3815Y-4.8957
X4.1065Y-4.1614
X4.3783Y-4.2768
X6.9705Y-4.9083
X7.1339Y-4.6567
X6.0925Y-2.4878
X6.3441Y-2.6512
X4.0794Y-5.4465
X4.1571Y-5.1567
X4.4348Y-2.5648
X4.5231Y-2.5178
X4.6114Y-2.4709
X6.4701Y-5.9122
X6.4858Y-6.2118
X7.1154Y-6.0067
X7.3275Y-5.7946
X5.3587Y-2.4268
X5.5815Y-2.6205
X3.8976Y-4.4587
X3.9515Y-4.5855
X3.3249Y-4.7894
X3.3406Y-4.4898
X7.3587Y-5.324
X7.6484Y-5.2464
X3.7253Y-2.4066
X3.9374Y-2.1945
X4.0402Y-3.5937
X4.2035Y-3.3421
X4.9504Y-5.161
X5.2201Y-5.2925
X3.4047Y-2.9488
X3.6945Y-2.8712
X6.2531Y-4.5335
X6.3119Y-4.4526
X6.3707Y-4.3717
X5.9309Y-6.1827
X5.944Y-5.883
X6.0308Y-6.1871
X6.0439Y-5.8873
X6.1307Y-6.1914
X6.1438Y-5.8917
X6.2306Y-6.1958
X6.2437Y-5.8961
X4.6856Y-3.8197
X4.7444Y-3.7388
X4.8031Y-3.6579
X5.2394Y-3.3996
X5.3518Y-3.1215
X5.0955Y-5.7775
X5.3756Y-5.885
X6.5252Y-2.7508
X6.604Y-2.6892
X6.6828Y-2.6277
X5.0919Y-4.8192
X5.1728Y-4.878
X5.2537Y-4.9367
X3.905Y-5.0129
X3.952Y-5.1012
X3.9989Y-5.1895
X6.3165Y-3.5004
X6.3834Y-3.5747
X6.4504Y-3.649
X3.4095Y-5.0582
X3.7091Y-5.0425
X6.5516Y-5.8768
X6.7562Y-5.6574
X6.8492Y-4.8575
X7.0126Y-4.6059
X4.4472Y-4.9223
X4.489Y-4.6252
X6.7423Y-3.5979
X6.7682Y-3.5013
X6.7941Y-3.4047
X4.5705Y-1.9823
X4.5862Y-2.2819
X6.8118Y-3.2047
X6.9032Y-3.2454
X6.9945Y-3.2861
X6.665Y-5.9059
X6.8127Y-6.167
X5.4626Y-5.5785
X5.6854Y-5.7722
X3.3031Y-5.6019
X3.5575Y-5.4429
X4.8394Y-1.8977
X5.139Y-1.9134
X6.7669Y-3.7854
X7.0451Y-3.8978
X7.0517Y-6.0859
X7.1483Y-6.1842
X6.0268Y-2.1307
X6.2964Y-1.9992
X7.1103Y-3.6046
X7.1642Y-3.7315
X3.7416Y-3.129
X3.817Y-3.1946
X3.8925Y-3.2602
X6.8709Y-5.0894
X6.9324Y-5.1682
X6.994Y-5.247
X4.9331Y-3.3114
X5.0074Y-3.2445
X5.0817Y-3.1776
X5.975Y-5.0181
X6.0493Y-4.9512
X6.1236Y-4.8843
X6.4384Y-3.0103
X6.4958Y-2.9284
X6.5531Y-2.8465
X3.8319Y-4.0181
X4.0746Y-3.8418
X6.3241Y-4.2437
X6.5937Y-4.3752
X5.6173Y-2.4008
X5.7937Y-2.6435
X3.4445Y-5.7211
X3.5428Y-5.6245
X3.4138Y-4.933
X3.7134Y-4.9173
X3.8439Y-4.2693
X4.0376Y-4.0464
X7.3126Y-3.8535
X7.6124Y-3.864
X6.8732Y-6.0689
X7.0322Y-6.3233
X4.2646Y-4.7945
X4.2904Y-4.6979
X4.3163Y-4.6013
X6.3449Y-5.9079
X6.3606Y-6.2075
X6.5883Y-3.8392
X6.6321Y-3.7493
X6.676Y-3.6594
X3.9189Y-3.5429
X4.0823Y-3.2913
X7.0861Y-2.8667
X7.3055Y-3.0713
X3.9041Y-2.0138
X4.0007Y-2.1121
X7.0624Y-3.0049
X7.1094Y-3.0932
X7.1563Y-3.1815
X4.3319Y-3.7945
X4.4634Y-3.5248
X4.1811Y-2.6499
X4.4709Y-2.7276
X7.4984Y-2.752
X7.7528Y-2.593
X3.8555Y-2.9488
X4.0276Y-3.1946
X4.3779Y-3.332
X4.477Y-3.3459
X4.576Y-3.3598
X5.9042Y-4.9026
X6.1236Y-4.698
X5.5969Y-1.8402
X5.8968Y-1.8454
X4.5518Y-4.2734
X4.8299Y-4.3858
X4.4591Y-3.8244
X4.7287Y-3.9559
X6.4343Y-4.1527
X6.7039Y-4.2843
X4.2776Y-3.0823
X4.3595Y-3.1396
X4.4414Y-3.197
X4.3782Y-5.5657
X4.457Y-5.5041
X4.5358Y-5.4425
X7.713Y-3.7031
X7.7287Y-3.4036
X7.3327Y-2.9598
X7.5938Y-2.8121
X4.7169Y-5.5421
X4.9685Y-5.7055
X4.5916Y-4.9011
X4.8894Y-4.8646
X3.5029Y-2.5573
X3.6685Y-2.3071
X4.061Y-4.9092
X4.1523Y-4.9499
X4.2437Y-4.9906
T3
X4.7308Y-2.4012
X4.7465Y-2.5
X6.3047Y-5.6972
X6.3204Y-5.796
X3.8312Y-4.8967
X3.9299Y-4.8811
X7.1248Y-3.3177
X7.2236Y-3.3021
T4
X4.9518Y-3.6502
X5.0213Y-3.5806
X5.0909Y-3.511
X4.9413Y-4.5346
X5.0109Y-4.6042
X5.0805Y-4.6738
X5.965Y-4.6882
X6.0346Y-4.6186
X6.1042Y-4.549
X5.9769Y-3.5203
X6.0465Y-3.5899
X6.1161Y-3.6594
T5
X5.4555Y-3.111
X5.4642Y-3.2106
T6
X5.0965Y-3.923
X5.3638Y-3.6558
X5.0861Y-4.2618
X5.3534Y-4.5291
X5.6921Y-4.5434
X5.9594Y-4.2762
X5.7041Y-3.665
X5.9714Y-3.9323
T7
X3.4557Y-4.0953
X3.4719Y-3.911
X3.488Y-3.7267
X5.5326Y-2.0386
X5.7169Y-2.0547
X5.9012Y-2.0708
X7.5738Y-4.4634
X7.59Y-4.2791
X7.6061Y-4.0948
X5.1429Y-6.1282
X5.3272Y-6.1443
X5.5115Y-6.1604
T8
X3.0358Y-5.2831
X3.0358Y-5.7358
X3.0358Y-4.3776
X3.0358Y-6.1886
X3.0358Y-2.4386
X3.0358Y-2.8913
X3.0358Y-3.7969
X3.0358Y-3.3441
X3.0358Y-4.8303
X3.0358Y-1.9858
T9
X5.7217Y-6.724
X7.6677Y-1.5831
X8.0681Y-5.4157
X4.9295Y-1.5831
X8.0681Y-3.4768
X3.5713Y-1.5831
X3.4362Y-6.724
X8.0681Y-3.9295
X4.024Y-1.5831
X6.1744Y-6.724
X7.0799Y-6.724
X6.3094Y-1.5831
X8.0681Y-2.5713
X8.0681Y-4.963
X8.0681Y-5.8685
X6.6272Y-6.724
X3.889Y-6.724
X7.9528Y-1.7854
X5.2472Y-6.724
X5.3823Y-1.5831
X5.8567Y-1.5831
X4.7945Y-6.724
X7.8657Y-6.6091
X8.0681Y-2.1185
X3.1441Y-6.5236
X4.4768Y-1.5831
X8.0681Y-4.5102
X8.0681Y-6.3213
X3.2445Y-1.7067
X7.215Y-1.5831
X6.7622Y-1.5831
X7.5327Y-6.724
X4.3417Y-6.724
X8.0681Y-3.024
T0
M30
