%TF.GenerationSoftware,KiCad,Pcbnew,(5.1.7)-1*%
%TF.CreationDate,2021-05-19T12:24:51-05:00*%
%TF.ProjectId,FOURSES INTERSEXON,464f5552-5345-4532-9049-4e5445525345,rev?*%
%TF.SameCoordinates,Original*%
%TF.FileFunction,Copper,L1,Top*%
%TF.FilePolarity,Positive*%
%FSLAX46Y46*%
G04 Gerber Fmt 4.6, Leading zero omitted, Abs format (unit mm)*
G04 Created by KiCad (PCBNEW (5.1.7)-1) date 2021-05-19 12:24:51*
%MOMM*%
%LPD*%
G01*
G04 APERTURE LIST*
%TA.AperFunction,ComponentPad*%
%ADD10C,5.900000*%
%TD*%
%TA.AperFunction,ComponentPad*%
%ADD11O,1.600000X1.600000*%
%TD*%
%TA.AperFunction,ComponentPad*%
%ADD12C,1.600000*%
%TD*%
%TA.AperFunction,ComponentPad*%
%ADD13C,1.500000*%
%TD*%
%TA.AperFunction,ComponentPad*%
%ADD14R,1.500000X1.500000*%
%TD*%
%TA.AperFunction,ComponentPad*%
%ADD15R,1.600000X1.600000*%
%TD*%
%TA.AperFunction,ComponentPad*%
%ADD16O,2.190000X1.740000*%
%TD*%
%TA.AperFunction,ComponentPad*%
%ADD17C,2.000000*%
%TD*%
%TA.AperFunction,ComponentPad*%
%ADD18R,2.000000X2.000000*%
%TD*%
%TA.AperFunction,ComponentPad*%
%ADD19R,2.200000X2.200000*%
%TD*%
%TA.AperFunction,ComponentPad*%
%ADD20O,2.200000X2.200000*%
%TD*%
%TA.AperFunction,ViaPad*%
%ADD21C,0.800000*%
%TD*%
%TA.AperFunction,Conductor*%
%ADD22C,0.635000*%
%TD*%
G04 APERTURE END LIST*
D10*
%TO.P,REF\u002A\u002A,*%
%TO.N,*%
X109630000Y-121990000D03*
%TD*%
%TO.P,REF\u002A\u002A,*%
%TO.N,*%
X63630000Y-71990000D03*
%TD*%
%TO.P,REF\u002A\u002A,*%
%TO.N,*%
X18110000Y-113600000D03*
%TD*%
%TO.P,REF\u002A\u002A,*%
%TO.N,*%
X75130000Y-71990000D03*
%TD*%
%TO.P,REF\u002A\u002A,*%
%TO.N,*%
X175460000Y-73100000D03*
%TD*%
%TO.P,REF\u002A\u002A,*%
%TO.N,*%
X109630000Y-71990000D03*
%TD*%
D11*
%TO.P,REF\u002A\u002A,2*%
%TO.N,N/C*%
X273950000Y-87380000D03*
D12*
%TO.P,REF\u002A\u002A,1*%
X273950000Y-95000000D03*
%TD*%
D10*
%TO.P,REF\u002A\u002A,*%
%TO.N,*%
X192210000Y-121990000D03*
%TD*%
%TO.P,REF\u002A\u002A,*%
%TO.N,*%
X63630000Y-121990000D03*
%TD*%
%TO.P,REF\u002A\u002A,*%
%TO.N,*%
X18110000Y-102100000D03*
%TD*%
%TO.P,REF\u002A\u002A,*%
%TO.N,*%
X98130000Y-121990000D03*
%TD*%
D12*
%TO.P,REF\u002A\u002A,1*%
%TO.N,N/C*%
X243450000Y-106460000D03*
D11*
%TO.P,REF\u002A\u002A,2*%
X243450000Y-114080000D03*
%TD*%
D13*
%TO.P,REF\u002A\u002A,2*%
%TO.N,N/C*%
X130250000Y-101330000D03*
%TO.P,REF\u002A\u002A,3*%
X130250000Y-98790000D03*
D14*
%TO.P,REF\u002A\u002A,1*%
X130250000Y-103870000D03*
%TD*%
D10*
%TO.P,REF\u002A\u002A,*%
%TO.N,*%
X159160000Y-73100000D03*
%TD*%
D14*
%TO.P,REF\u002A\u002A,1*%
%TO.N,N/C*%
X36160000Y-91160000D03*
D13*
%TO.P,REF\u002A\u002A,3*%
X36160000Y-96240000D03*
%TO.P,REF\u002A\u002A,2*%
X36160000Y-93700000D03*
%TD*%
D10*
%TO.P,REF\u002A\u002A,*%
%TO.N,*%
X203710000Y-121990000D03*
%TD*%
D11*
%TO.P,REF\u002A\u002A,2*%
%TO.N,N/C*%
X212940000Y-101400000D03*
D12*
%TO.P,REF\u002A\u002A,1*%
X220560000Y-101400000D03*
%TD*%
D11*
%TO.P,REF\u002A\u002A,2*%
%TO.N,N/C*%
X259990000Y-109010000D03*
D12*
%TO.P,REF\u002A\u002A,1*%
X252370000Y-109010000D03*
%TD*%
%TO.P,REF\u002A\u002A,1*%
%TO.N,N/C*%
X262520000Y-109000000D03*
D11*
%TO.P,REF\u002A\u002A,2*%
X270140000Y-109000000D03*
%TD*%
D10*
%TO.P,REF\u002A\u002A,*%
%TO.N,*%
X18110000Y-90600000D03*
%TD*%
%TO.P,REF\u002A\u002A,*%
%TO.N,*%
X75130000Y-121990000D03*
%TD*%
%TO.P,REF\u002A\u002A,*%
%TO.N,*%
X52130000Y-121990000D03*
%TD*%
%TO.P,REF\u002A\u002A,*%
%TO.N,*%
X159160000Y-121350000D03*
%TD*%
%TO.P,REF\u002A\u002A,*%
%TO.N,*%
X226710000Y-121990000D03*
%TD*%
%TO.P,REF\u002A\u002A,*%
%TO.N,*%
X126260000Y-73100000D03*
%TD*%
%TO.P,REF\u002A\u002A,*%
%TO.N,*%
X52130000Y-71990000D03*
%TD*%
D11*
%TO.P,REF\u002A\u002A,2*%
%TO.N,N/C*%
X233270000Y-84860000D03*
D12*
%TO.P,REF\u002A\u002A,1*%
X233270000Y-92480000D03*
%TD*%
D13*
%TO.P,REF\u002A\u002A,2*%
%TO.N,N/C*%
X31100000Y-93710000D03*
%TO.P,REF\u002A\u002A,3*%
X31100000Y-96250000D03*
D14*
%TO.P,REF\u002A\u002A,1*%
X31100000Y-91170000D03*
%TD*%
D12*
%TO.P,REF\u002A\u002A,1*%
%TO.N,N/C*%
X242140000Y-79770000D03*
D11*
%TO.P,REF\u002A\u002A,2*%
X234520000Y-79770000D03*
%TD*%
%TO.P,REF\u002A\u002A,2*%
%TO.N,N/C*%
X252480000Y-77510000D03*
D12*
%TO.P,REF\u002A\u002A,1*%
X260100000Y-77510000D03*
%TD*%
D10*
%TO.P,REF\u002A\u002A,*%
%TO.N,*%
X238210000Y-121990000D03*
%TD*%
%TO.P,REF\u002A\u002A,*%
%TO.N,*%
X142560000Y-121350000D03*
%TD*%
%TO.P,REF\u002A\u002A,*%
%TO.N,*%
X98130000Y-71990000D03*
%TD*%
%TO.P,REF\u002A\u002A,*%
%TO.N,*%
X86630000Y-71990000D03*
%TD*%
D14*
%TO.P,REF\u002A\u002A,1*%
%TO.N,N/C*%
X117510000Y-91160000D03*
D13*
%TO.P,REF\u002A\u002A,3*%
X117510000Y-96240000D03*
%TO.P,REF\u002A\u002A,2*%
X117510000Y-93700000D03*
%TD*%
D10*
%TO.P,REF\u002A\u002A,*%
%TO.N,*%
X175460000Y-121350000D03*
%TD*%
D14*
%TO.P,REF\u002A\u002A,1*%
%TO.N,N/C*%
X216710000Y-91180000D03*
D13*
%TO.P,REF\u002A\u002A,3*%
X216710000Y-96260000D03*
%TO.P,REF\u002A\u002A,2*%
X216710000Y-93720000D03*
%TD*%
D14*
%TO.P,REF\u002A\u002A,1*%
%TO.N,N/C*%
X125160000Y-103880000D03*
D13*
%TO.P,REF\u002A\u002A,3*%
X125160000Y-98800000D03*
%TO.P,REF\u002A\u002A,2*%
X125160000Y-101340000D03*
%TD*%
D14*
%TO.P,REF\u002A\u002A,1*%
%TO.N,N/C*%
X43820000Y-103860000D03*
D13*
%TO.P,REF\u002A\u002A,3*%
X43820000Y-98780000D03*
%TO.P,REF\u002A\u002A,2*%
X43820000Y-101320000D03*
%TD*%
D10*
%TO.P,REF\u002A\u002A,*%
%TO.N,*%
X215210000Y-121990000D03*
%TD*%
%TO.P,REF\u002A\u002A,*%
%TO.N,*%
X226710000Y-71990000D03*
%TD*%
D11*
%TO.P,REF\u002A\u002A,2*%
%TO.N,N/C*%
X62920000Y-91240000D03*
D12*
%TO.P,REF\u002A\u002A,1*%
X55300000Y-91240000D03*
%TD*%
D14*
%TO.P,REF\u002A\u002A,1*%
%TO.N,N/C*%
X135340000Y-91160000D03*
D13*
%TO.P,REF\u002A\u002A,3*%
X135340000Y-96240000D03*
%TO.P,REF\u002A\u002A,2*%
X135340000Y-93700000D03*
%TD*%
D14*
%TO.P,REF\u002A\u002A,1*%
%TO.N,N/C*%
X142970000Y-103850000D03*
D13*
%TO.P,REF\u002A\u002A,3*%
X142970000Y-98770000D03*
%TO.P,REF\u002A\u002A,2*%
X142970000Y-101310000D03*
%TD*%
%TO.P,REF\u002A\u002A,2*%
%TO.N,N/C*%
X130250000Y-93710000D03*
%TO.P,REF\u002A\u002A,3*%
X130250000Y-96250000D03*
D14*
%TO.P,REF\u002A\u002A,1*%
X130250000Y-91170000D03*
%TD*%
D12*
%TO.P,REF\u002A\u002A,1*%
%TO.N,N/C*%
X220560000Y-98820000D03*
D11*
%TO.P,REF\u002A\u002A,2*%
X212940000Y-98820000D03*
%TD*%
D13*
%TO.P,REF\u002A\u002A,2*%
%TO.N,N/C*%
X137880000Y-101320000D03*
%TO.P,REF\u002A\u002A,3*%
X137880000Y-98780000D03*
D14*
%TO.P,REF\u002A\u002A,1*%
X137880000Y-103860000D03*
%TD*%
%TO.P,REF\u002A\u002A,1*%
%TO.N,N/C*%
X235790000Y-84810000D03*
D13*
%TO.P,REF\u002A\u002A,3*%
X240870000Y-84810000D03*
%TO.P,REF\u002A\u002A,2*%
X238330000Y-84810000D03*
%TD*%
D14*
%TO.P,REF\u002A\u002A,1*%
%TO.N,N/C*%
X224320000Y-103880000D03*
D13*
%TO.P,REF\u002A\u002A,3*%
X224320000Y-98800000D03*
%TO.P,REF\u002A\u002A,2*%
X224320000Y-101340000D03*
%TD*%
D15*
%TO.P,REF\u002A\u002A,1*%
%TO.N,N/C*%
X270060000Y-93780000D03*
D11*
%TO.P,REF\u002A\u002A,5*%
X262440000Y-101400000D03*
%TO.P,REF\u002A\u002A,2*%
X267520000Y-93780000D03*
%TO.P,REF\u002A\u002A,6*%
X264980000Y-101400000D03*
%TO.P,REF\u002A\u002A,3*%
X264980000Y-93780000D03*
%TO.P,REF\u002A\u002A,7*%
X267520000Y-101400000D03*
%TO.P,REF\u002A\u002A,4*%
X262440000Y-93780000D03*
%TO.P,REF\u002A\u002A,8*%
X270060000Y-101400000D03*
%TD*%
D15*
%TO.P,REF\u002A\u002A,1*%
%TO.N,N/C*%
X172230000Y-101390000D03*
D11*
%TO.P,REF\u002A\u002A,8*%
X187470000Y-93770000D03*
%TO.P,REF\u002A\u002A,2*%
X174770000Y-101390000D03*
%TO.P,REF\u002A\u002A,9*%
X184930000Y-93770000D03*
%TO.P,REF\u002A\u002A,3*%
X177310000Y-101390000D03*
%TO.P,REF\u002A\u002A,10*%
X182390000Y-93770000D03*
%TO.P,REF\u002A\u002A,4*%
X179850000Y-101390000D03*
%TO.P,REF\u002A\u002A,11*%
X179850000Y-93770000D03*
%TO.P,REF\u002A\u002A,5*%
X182390000Y-101390000D03*
%TO.P,REF\u002A\u002A,12*%
X177310000Y-93770000D03*
%TO.P,REF\u002A\u002A,6*%
X184930000Y-101390000D03*
%TO.P,REF\u002A\u002A,13*%
X174770000Y-93770000D03*
%TO.P,REF\u002A\u002A,7*%
X187470000Y-101390000D03*
%TO.P,REF\u002A\u002A,14*%
X172230000Y-93770000D03*
%TD*%
D12*
%TO.P,REF\u002A\u002A,1*%
%TO.N,N/C*%
X55300000Y-88660000D03*
D11*
%TO.P,REF\u002A\u002A,2*%
X62920000Y-88660000D03*
%TD*%
%TO.P,REF\u002A\u002A,1*%
%TO.N,N/C*%
%TA.AperFunction,ComponentPad*%
G36*
G01*
X254034999Y-81460000D02*
X255725001Y-81460000D01*
G75*
G02*
X255975000Y-81709999I0J-249999D01*
G01*
X255975000Y-82950001D01*
G75*
G02*
X255725001Y-83200000I-249999J0D01*
G01*
X254034999Y-83200000D01*
G75*
G02*
X253785000Y-82950001I0J249999D01*
G01*
X253785000Y-81709999D01*
G75*
G02*
X254034999Y-81460000I249999J0D01*
G01*
G37*
%TD.AperFunction*%
D16*
%TO.P,REF\u002A\u002A,2*%
X254880000Y-84870000D03*
%TD*%
D11*
%TO.P,REF\u002A\u002A,14*%
%TO.N,N/C*%
X73060000Y-93750000D03*
%TO.P,REF\u002A\u002A,7*%
X88300000Y-101370000D03*
%TO.P,REF\u002A\u002A,13*%
X75600000Y-93750000D03*
%TO.P,REF\u002A\u002A,6*%
X85760000Y-101370000D03*
%TO.P,REF\u002A\u002A,12*%
X78140000Y-93750000D03*
%TO.P,REF\u002A\u002A,5*%
X83220000Y-101370000D03*
%TO.P,REF\u002A\u002A,11*%
X80680000Y-93750000D03*
%TO.P,REF\u002A\u002A,4*%
X80680000Y-101370000D03*
%TO.P,REF\u002A\u002A,10*%
X83220000Y-93750000D03*
%TO.P,REF\u002A\u002A,3*%
X78140000Y-101370000D03*
%TO.P,REF\u002A\u002A,9*%
X85760000Y-93750000D03*
%TO.P,REF\u002A\u002A,2*%
X75600000Y-101370000D03*
%TO.P,REF\u002A\u002A,8*%
X88300000Y-93750000D03*
D15*
%TO.P,REF\u002A\u002A,1*%
X73060000Y-101370000D03*
%TD*%
%TO.P,REF\u002A\u002A,1*%
%TO.N,N/C*%
%TA.AperFunction,ComponentPad*%
G36*
G01*
X232855001Y-112340000D02*
X231164999Y-112340000D01*
G75*
G02*
X230915000Y-112090001I0J249999D01*
G01*
X230915000Y-110849999D01*
G75*
G02*
X231164999Y-110600000I249999J0D01*
G01*
X232855001Y-110600000D01*
G75*
G02*
X233105000Y-110849999I0J-249999D01*
G01*
X233105000Y-112090001D01*
G75*
G02*
X232855001Y-112340000I-249999J0D01*
G01*
G37*
%TD.AperFunction*%
D16*
%TO.P,REF\u002A\u002A,2*%
X232010000Y-108930000D03*
%TD*%
D10*
%TO.P,REF\u002A\u002A,*%
%TO.N,*%
X283610000Y-90600000D03*
%TD*%
D17*
%TO.P,REF\u002A\u002A,*%
%TO.N,*%
X266300000Y-90000000D03*
%TD*%
D12*
%TO.P,REF\u002A\u002A,1*%
%TO.N,N/C*%
X106150000Y-103890000D03*
D11*
%TO.P,REF\u002A\u002A,2*%
X98530000Y-103890000D03*
%TD*%
%TO.P,REF\u002A\u002A,2*%
%TO.N,N/C*%
X98540000Y-88680000D03*
D12*
%TO.P,REF\u002A\u002A,1*%
X106160000Y-88680000D03*
%TD*%
%TO.P,REF\u002A\u002A,1*%
%TO.N,N/C*%
X40070000Y-96280000D03*
D11*
%TO.P,REF\u002A\u002A,2*%
X47690000Y-96280000D03*
%TD*%
D12*
%TO.P,REF\u002A\u002A,1*%
%TO.N,N/C*%
X55250000Y-103910000D03*
D11*
%TO.P,REF\u002A\u002A,2*%
X62870000Y-103910000D03*
%TD*%
%TO.P,REF\u002A\u002A,2*%
%TO.N,N/C*%
X62870000Y-106490000D03*
D12*
%TO.P,REF\u002A\u002A,1*%
X55250000Y-106490000D03*
%TD*%
%TO.P,REF\u002A\u002A,1*%
%TO.N,N/C*%
X78210000Y-86080000D03*
D11*
%TO.P,REF\u002A\u002A,2*%
X78210000Y-78460000D03*
%TD*%
%TO.P,REF\u002A\u002A,2*%
%TO.N,N/C*%
X98530000Y-106470000D03*
D12*
%TO.P,REF\u002A\u002A,1*%
X106150000Y-106470000D03*
%TD*%
D11*
%TO.P,REF\u002A\u002A,14*%
%TO.N,N/C*%
X210340000Y-101330000D03*
%TO.P,REF\u002A\u002A,7*%
X195100000Y-93710000D03*
%TO.P,REF\u002A\u002A,13*%
X207800000Y-101330000D03*
%TO.P,REF\u002A\u002A,6*%
X197640000Y-93710000D03*
%TO.P,REF\u002A\u002A,12*%
X205260000Y-101330000D03*
%TO.P,REF\u002A\u002A,5*%
X200180000Y-93710000D03*
%TO.P,REF\u002A\u002A,11*%
X202720000Y-101330000D03*
%TO.P,REF\u002A\u002A,4*%
X202720000Y-93710000D03*
%TO.P,REF\u002A\u002A,10*%
X200180000Y-101330000D03*
%TO.P,REF\u002A\u002A,3*%
X205260000Y-93710000D03*
%TO.P,REF\u002A\u002A,9*%
X197640000Y-101330000D03*
%TO.P,REF\u002A\u002A,2*%
X207800000Y-93710000D03*
%TO.P,REF\u002A\u002A,8*%
X195100000Y-101330000D03*
D15*
%TO.P,REF\u002A\u002A,1*%
X210340000Y-93710000D03*
%TD*%
D12*
%TO.P,REF\u002A\u002A,1*%
%TO.N,N/C*%
X106160000Y-91260000D03*
D11*
%TO.P,REF\u002A\u002A,2*%
X98540000Y-91260000D03*
%TD*%
%TO.P,REF\u002A\u002A,2*%
%TO.N,N/C*%
X75630000Y-78460000D03*
D12*
%TO.P,REF\u002A\u002A,1*%
X75630000Y-86080000D03*
%TD*%
D11*
%TO.P,REF\u002A\u002A,2*%
%TO.N,N/C*%
X47690000Y-93700000D03*
D12*
%TO.P,REF\u002A\u002A,1*%
X40070000Y-93700000D03*
%TD*%
D18*
%TO.P,REF\u002A\u002A,*%
%TO.N,*%
X269080000Y-89990000D03*
%TD*%
D12*
%TO.P,REF\u002A\u002A,1*%
%TO.N,N/C*%
X61640000Y-82150000D03*
%TO.P,REF\u002A\u002A,2*%
X61640000Y-78650000D03*
%TD*%
D15*
%TO.P,REF\u002A\u002A,1*%
%TO.N,N/C*%
X65470000Y-93740000D03*
D11*
%TO.P,REF\u002A\u002A,8*%
X50230000Y-101360000D03*
%TO.P,REF\u002A\u002A,2*%
X62930000Y-93740000D03*
%TO.P,REF\u002A\u002A,9*%
X52770000Y-101360000D03*
%TO.P,REF\u002A\u002A,3*%
X60390000Y-93740000D03*
%TO.P,REF\u002A\u002A,10*%
X55310000Y-101360000D03*
%TO.P,REF\u002A\u002A,4*%
X57850000Y-93740000D03*
%TO.P,REF\u002A\u002A,11*%
X57850000Y-101360000D03*
%TO.P,REF\u002A\u002A,5*%
X55310000Y-93740000D03*
%TO.P,REF\u002A\u002A,12*%
X60390000Y-101360000D03*
%TO.P,REF\u002A\u002A,6*%
X52770000Y-93740000D03*
%TO.P,REF\u002A\u002A,13*%
X62930000Y-101360000D03*
%TO.P,REF\u002A\u002A,7*%
X50230000Y-93740000D03*
%TO.P,REF\u002A\u002A,14*%
X65470000Y-101360000D03*
%TD*%
D15*
%TO.P,REF\u002A\u002A,1*%
%TO.N,N/C*%
X164590000Y-93710000D03*
D11*
%TO.P,REF\u002A\u002A,8*%
X149350000Y-101330000D03*
%TO.P,REF\u002A\u002A,2*%
X162050000Y-93710000D03*
%TO.P,REF\u002A\u002A,9*%
X151890000Y-101330000D03*
%TO.P,REF\u002A\u002A,3*%
X159510000Y-93710000D03*
%TO.P,REF\u002A\u002A,10*%
X154430000Y-101330000D03*
%TO.P,REF\u002A\u002A,4*%
X156970000Y-93710000D03*
%TO.P,REF\u002A\u002A,11*%
X156970000Y-101330000D03*
%TO.P,REF\u002A\u002A,5*%
X154430000Y-93710000D03*
%TO.P,REF\u002A\u002A,12*%
X159510000Y-101330000D03*
%TO.P,REF\u002A\u002A,6*%
X151890000Y-93710000D03*
%TO.P,REF\u002A\u002A,13*%
X162050000Y-101330000D03*
%TO.P,REF\u002A\u002A,7*%
X149350000Y-93710000D03*
%TO.P,REF\u002A\u002A,14*%
X164590000Y-101330000D03*
%TD*%
D12*
%TO.P,REF\u002A\u002A,2*%
%TO.N,N/C*%
X272730000Y-104070000D03*
%TO.P,REF\u002A\u002A,1*%
X272730000Y-107570000D03*
%TD*%
D10*
%TO.P,REF\u002A\u002A,*%
%TO.N,*%
X267110000Y-74100000D03*
%TD*%
D16*
%TO.P,REF\u002A\u002A,2*%
%TO.N,N/C*%
X247250000Y-84870000D03*
%TO.P,REF\u002A\u002A,1*%
%TA.AperFunction,ComponentPad*%
G36*
G01*
X246404999Y-81460000D02*
X248095001Y-81460000D01*
G75*
G02*
X248345000Y-81709999I0J-249999D01*
G01*
X248345000Y-82950001D01*
G75*
G02*
X248095001Y-83200000I-249999J0D01*
G01*
X246404999Y-83200000D01*
G75*
G02*
X246155000Y-82950001I0J249999D01*
G01*
X246155000Y-81709999D01*
G75*
G02*
X246404999Y-81460000I249999J0D01*
G01*
G37*
%TD.AperFunction*%
%TD*%
D12*
%TO.P,REF\u002A\u002A,2*%
%TO.N,N/C*%
X60370000Y-112950000D03*
%TO.P,REF\u002A\u002A,1*%
X60370000Y-116450000D03*
%TD*%
%TO.P,REF\u002A\u002A,1*%
%TO.N,N/C*%
X251050000Y-89900000D03*
D11*
%TO.P,REF\u002A\u002A,2*%
X251050000Y-82280000D03*
%TD*%
D13*
%TO.P,REF\u002A\u002A,2*%
%TO.N,N/C*%
X221800000Y-93710000D03*
%TO.P,REF\u002A\u002A,3*%
X221800000Y-96250000D03*
D14*
%TO.P,REF\u002A\u002A,1*%
X221800000Y-91170000D03*
%TD*%
D11*
%TO.P,REF\u002A\u002A,14*%
%TO.N,N/C*%
X111130000Y-101340000D03*
%TO.P,REF\u002A\u002A,7*%
X95890000Y-93720000D03*
%TO.P,REF\u002A\u002A,13*%
X108590000Y-101340000D03*
%TO.P,REF\u002A\u002A,6*%
X98430000Y-93720000D03*
%TO.P,REF\u002A\u002A,12*%
X106050000Y-101340000D03*
%TO.P,REF\u002A\u002A,5*%
X100970000Y-93720000D03*
%TO.P,REF\u002A\u002A,11*%
X103510000Y-101340000D03*
%TO.P,REF\u002A\u002A,4*%
X103510000Y-93720000D03*
%TO.P,REF\u002A\u002A,10*%
X100970000Y-101340000D03*
%TO.P,REF\u002A\u002A,3*%
X106050000Y-93720000D03*
%TO.P,REF\u002A\u002A,9*%
X98430000Y-101340000D03*
%TO.P,REF\u002A\u002A,2*%
X108590000Y-93720000D03*
%TO.P,REF\u002A\u002A,8*%
X95890000Y-101340000D03*
D15*
%TO.P,REF\u002A\u002A,1*%
X111130000Y-93720000D03*
%TD*%
D10*
%TO.P,REF\u002A\u002A,*%
%TO.N,*%
X215210000Y-71990000D03*
%TD*%
%TO.P,REF\u002A\u002A,*%
%TO.N,*%
X283610000Y-102100000D03*
%TD*%
D19*
%TO.P,REF\u002A\u002A,1*%
%TO.N,N/C*%
X243390000Y-101570000D03*
D20*
%TO.P,REF\u002A\u002A,2*%
X243390000Y-93950000D03*
%TD*%
%TO.P,REF\u002A\u002A,2*%
%TO.N,N/C*%
X243400000Y-83650000D03*
D19*
%TO.P,REF\u002A\u002A,1*%
X243400000Y-91270000D03*
%TD*%
D10*
%TO.P,REF\u002A\u002A,*%
%TO.N,*%
X267110000Y-118600000D03*
%TD*%
%TO.P,REF\u002A\u002A,*%
%TO.N,*%
X249710000Y-71990000D03*
%TD*%
D12*
%TO.P,REF\u002A\u002A,2*%
%TO.N,N/C*%
X101060000Y-78650000D03*
%TO.P,REF\u002A\u002A,1*%
X101060000Y-82150000D03*
%TD*%
D10*
%TO.P,REF\u002A\u002A,*%
%TO.N,*%
X203710000Y-71990000D03*
%TD*%
D14*
%TO.P,REF\u002A\u002A,1*%
%TO.N,N/C*%
X254850000Y-96240000D03*
D13*
%TO.P,REF\u002A\u002A,3*%
X254850000Y-91160000D03*
%TO.P,REF\u002A\u002A,2*%
X254850000Y-93700000D03*
%TD*%
D12*
%TO.P,REF\u002A\u002A,1*%
%TO.N,N/C*%
X57850000Y-78500000D03*
%TO.P,REF\u002A\u002A,2*%
X57850000Y-86000000D03*
%TD*%
D13*
%TO.P,REF\u002A\u002A,2*%
%TO.N,N/C*%
X38730000Y-101330000D03*
%TO.P,REF\u002A\u002A,3*%
X38730000Y-98790000D03*
D14*
%TO.P,REF\u002A\u002A,1*%
X38730000Y-103870000D03*
%TD*%
D20*
%TO.P,REF\u002A\u002A,2*%
%TO.N,N/C*%
X258660000Y-102590000D03*
D19*
%TO.P,REF\u002A\u002A,1*%
X258660000Y-94970000D03*
%TD*%
D12*
%TO.P,REF\u002A\u002A,2*%
%TO.N,N/C*%
X262580000Y-105160000D03*
%TO.P,REF\u002A\u002A,1*%
X270080000Y-105160000D03*
%TD*%
%TO.P,REF\u002A\u002A,1*%
%TO.N,N/C*%
X101100000Y-116450000D03*
%TO.P,REF\u002A\u002A,2*%
X101100000Y-112950000D03*
%TD*%
D13*
%TO.P,REF\u002A\u002A,2*%
%TO.N,N/C*%
X233230000Y-96270000D03*
%TO.P,REF\u002A\u002A,3*%
X230690000Y-96270000D03*
D14*
%TO.P,REF\u002A\u002A,1*%
X235770000Y-96270000D03*
%TD*%
D12*
%TO.P,REF\u002A\u002A,1*%
%TO.N,N/C*%
X237090000Y-111470000D03*
%TO.P,REF\u002A\u002A,2*%
X237090000Y-103970000D03*
%TD*%
%TO.P,REF\u002A\u002A,1*%
%TO.N,N/C*%
X200230000Y-116440000D03*
%TO.P,REF\u002A\u002A,2*%
X200230000Y-112940000D03*
%TD*%
%TO.P,REF\u002A\u002A,2*%
%TO.N,N/C*%
X248640000Y-106460000D03*
%TO.P,REF\u002A\u002A,1*%
X248640000Y-113960000D03*
%TD*%
D13*
%TO.P,REF\u002A\u002A,2*%
%TO.N,N/C*%
X248480000Y-93710000D03*
%TO.P,REF\u002A\u002A,3*%
X248480000Y-91170000D03*
D14*
%TO.P,REF\u002A\u002A,1*%
X248480000Y-96250000D03*
%TD*%
D12*
%TO.P,REF\u002A\u002A,1*%
%TO.N,N/C*%
X259950000Y-91120000D03*
%TO.P,REF\u002A\u002A,2*%
X259950000Y-83620000D03*
%TD*%
%TO.P,REF\u002A\u002A,2*%
%TO.N,N/C*%
X159560000Y-112940000D03*
%TO.P,REF\u002A\u002A,1*%
X159560000Y-116440000D03*
%TD*%
D14*
%TO.P,REF\u002A\u002A,1*%
%TO.N,N/C*%
X239630000Y-96260000D03*
D13*
%TO.P,REF\u002A\u002A,3*%
X239630000Y-91180000D03*
%TO.P,REF\u002A\u002A,2*%
X239630000Y-93720000D03*
%TD*%
%TO.P,REF\u002A\u002A,2*%
%TO.N,N/C*%
X229410000Y-101330000D03*
%TO.P,REF\u002A\u002A,3*%
X229410000Y-98790000D03*
D14*
%TO.P,REF\u002A\u002A,1*%
X229410000Y-103870000D03*
%TD*%
D13*
%TO.P,REF\u002A\u002A,2*%
%TO.N,N/C*%
X122600000Y-93690000D03*
%TO.P,REF\u002A\u002A,3*%
X122600000Y-96230000D03*
D14*
%TO.P,REF\u002A\u002A,1*%
X122600000Y-91150000D03*
%TD*%
D19*
%TO.P,REF\u002A\u002A,1*%
%TO.N,N/C*%
X214400000Y-81070000D03*
D20*
%TO.P,REF\u002A\u002A,2*%
X222020000Y-81070000D03*
%TD*%
D12*
%TO.P,REF\u002A\u002A,1*%
%TO.N,N/C*%
X159520000Y-82150000D03*
%TO.P,REF\u002A\u002A,2*%
X159520000Y-78650000D03*
%TD*%
%TO.P,REF\u002A\u002A,2*%
%TO.N,N/C*%
X200230000Y-78650000D03*
%TO.P,REF\u002A\u002A,1*%
X200230000Y-82150000D03*
%TD*%
%TO.P,REF\u002A\u002A,1*%
%TO.N,N/C*%
X174770000Y-78480000D03*
D11*
%TO.P,REF\u002A\u002A,2*%
X174770000Y-86100000D03*
%TD*%
%TO.P,REF\u002A\u002A,2*%
%TO.N,N/C*%
X121400000Y-98810000D03*
D12*
%TO.P,REF\u002A\u002A,1*%
X113780000Y-98810000D03*
%TD*%
%TO.P,REF\u002A\u002A,1*%
%TO.N,N/C*%
X154460000Y-106460000D03*
D11*
%TO.P,REF\u002A\u002A,2*%
X162080000Y-106460000D03*
%TD*%
D12*
%TO.P,REF\u002A\u002A,1*%
%TO.N,N/C*%
X139210000Y-93740000D03*
D11*
%TO.P,REF\u002A\u002A,2*%
X146830000Y-93740000D03*
%TD*%
%TO.P,REF\u002A\u002A,2*%
%TO.N,N/C*%
X83270000Y-116610000D03*
D12*
%TO.P,REF\u002A\u002A,1*%
X83270000Y-108990000D03*
%TD*%
D10*
%TO.P,REF\u002A\u002A,*%
%TO.N,*%
X283610000Y-79100000D03*
%TD*%
D12*
%TO.P,REF\u002A\u002A,1*%
%TO.N,N/C*%
X197680000Y-88640000D03*
D11*
%TO.P,REF\u002A\u002A,2*%
X205300000Y-88640000D03*
%TD*%
D12*
%TO.P,REF\u002A\u002A,1*%
%TO.N,N/C*%
X197700000Y-106480000D03*
D11*
%TO.P,REF\u002A\u002A,2*%
X205320000Y-106480000D03*
%TD*%
D12*
%TO.P,REF\u002A\u002A,1*%
%TO.N,N/C*%
X113780000Y-101390000D03*
D11*
%TO.P,REF\u002A\u002A,2*%
X121400000Y-101390000D03*
%TD*%
%TO.P,REF\u002A\u002A,2*%
%TO.N,N/C*%
X205300000Y-91220000D03*
D12*
%TO.P,REF\u002A\u002A,1*%
X197680000Y-91220000D03*
%TD*%
D11*
%TO.P,REF\u002A\u002A,2*%
%TO.N,N/C*%
X154470000Y-88660000D03*
D12*
%TO.P,REF\u002A\u002A,1*%
X162090000Y-88660000D03*
%TD*%
%TO.P,REF\u002A\u002A,1*%
%TO.N,N/C*%
X182420000Y-116610000D03*
D11*
%TO.P,REF\u002A\u002A,2*%
X182420000Y-108990000D03*
%TD*%
D10*
%TO.P,REF\u002A\u002A,*%
%TO.N,*%
X86630000Y-121990000D03*
%TD*%
D11*
%TO.P,REF\u002A\u002A,2*%
%TO.N,N/C*%
X162080000Y-103880000D03*
D12*
%TO.P,REF\u002A\u002A,1*%
X154460000Y-103880000D03*
%TD*%
%TO.P,REF\u002A\u002A,1*%
%TO.N,N/C*%
X162090000Y-91240000D03*
D11*
%TO.P,REF\u002A\u002A,2*%
X154470000Y-91240000D03*
%TD*%
D10*
%TO.P,REF\u002A\u002A,*%
%TO.N,*%
X283610000Y-113600000D03*
%TD*%
%TO.P,REF\u002A\u002A,*%
%TO.N,*%
X126260000Y-121350000D03*
%TD*%
%TO.P,REF\u002A\u002A,*%
%TO.N,*%
X142560000Y-73100000D03*
%TD*%
%TO.P,REF\u002A\u002A,*%
%TO.N,*%
X249710000Y-121990000D03*
%TD*%
%TO.P,REF\u002A\u002A,*%
%TO.N,*%
X238210000Y-71990000D03*
%TD*%
D11*
%TO.P,REF\u002A\u002A,2*%
%TO.N,N/C*%
X146830000Y-96320000D03*
D12*
%TO.P,REF\u002A\u002A,1*%
X139210000Y-96320000D03*
%TD*%
%TO.P,REF\u002A\u002A,1*%
%TO.N,N/C*%
X85850000Y-108990000D03*
D11*
%TO.P,REF\u002A\u002A,2*%
X85850000Y-116610000D03*
%TD*%
D10*
%TO.P,REF\u002A\u002A,*%
%TO.N,*%
X18110000Y-79100000D03*
%TD*%
D11*
%TO.P,REF\u002A\u002A,2*%
%TO.N,N/C*%
X177350000Y-86100000D03*
D12*
%TO.P,REF\u002A\u002A,1*%
X177350000Y-78480000D03*
%TD*%
D11*
%TO.P,REF\u002A\u002A,2*%
%TO.N,N/C*%
X205320000Y-103900000D03*
D12*
%TO.P,REF\u002A\u002A,1*%
X197700000Y-103900000D03*
%TD*%
D10*
%TO.P,REF\u002A\u002A,*%
%TO.N,*%
X192210000Y-71990000D03*
%TD*%
D11*
%TO.P,REF\u002A\u002A,2*%
%TO.N,N/C*%
X185000000Y-108990000D03*
D12*
%TO.P,REF\u002A\u002A,1*%
X185000000Y-116610000D03*
%TD*%
D21*
%TO.N,*%
X70510000Y-101330000D03*
X36160000Y-87980000D03*
X38720000Y-107080000D03*
X169610000Y-101350000D03*
X122603410Y-87923410D03*
X224350000Y-107100000D03*
X193860000Y-106400000D03*
X70510000Y-93730000D03*
X188570000Y-88700000D03*
X90850000Y-93650000D03*
X190070000Y-93640000D03*
X130250000Y-88570000D03*
X67970000Y-93640000D03*
X184940000Y-105120000D03*
X31080000Y-88600000D03*
X117510000Y-88570000D03*
X93450000Y-101300000D03*
X184871912Y-89761912D03*
X216722138Y-88552138D03*
X94690000Y-106450000D03*
X75600000Y-105130000D03*
X137875420Y-107015420D03*
X167140000Y-101360000D03*
X66690000Y-88650000D03*
X142966318Y-106416318D03*
X192550000Y-101360000D03*
X43814601Y-106424601D03*
X192540000Y-93680000D03*
X93455634Y-93705634D03*
X93458441Y-89921559D03*
X125160000Y-107050000D03*
X130250000Y-106460000D03*
X178560000Y-105100000D03*
X181110000Y-89880000D03*
X71810000Y-106440000D03*
X75610000Y-89920000D03*
X79490000Y-105140000D03*
X165910000Y-88670000D03*
X167140000Y-93660000D03*
X221780000Y-88080000D03*
X85760000Y-105140000D03*
X170900000Y-106410000D03*
X167140000Y-105140000D03*
X192480000Y-89900000D03*
X67970000Y-105150000D03*
X229430000Y-105890000D03*
X174904322Y-105085678D03*
X89550000Y-88700000D03*
X81940000Y-89880000D03*
X67970000Y-101350000D03*
X90850000Y-101290000D03*
X85760000Y-89920000D03*
X135332512Y-87977488D03*
X190070000Y-101330000D03*
X169620000Y-93720000D03*
X174770000Y-89910000D03*
%TD*%
D22*
%TO.N,*%
X174770000Y-78480000D02*
X177350000Y-78480000D01*
X78210000Y-78460000D02*
X100870000Y-78460000D01*
X187600000Y-93640000D02*
X187470000Y-93770000D01*
X263730000Y-81110000D02*
X273770000Y-87380000D01*
X159520000Y-78650000D02*
X174600000Y-78650000D01*
X239630000Y-96260000D02*
X248470000Y-96260000D01*
X265100000Y-111470000D02*
X270140000Y-109000000D01*
X75630000Y-78460000D02*
X78210000Y-78460000D01*
X159560000Y-116440000D02*
X182250000Y-116440000D01*
X75440000Y-78650000D02*
X75630000Y-78460000D01*
X90860000Y-112950000D02*
X90860000Y-101300000D01*
X187490000Y-116610000D02*
X187490000Y-101410000D01*
X101100000Y-101470000D02*
X100970000Y-101340000D01*
X266260000Y-97460000D02*
X267520000Y-93780000D01*
X172190000Y-101350000D02*
X172230000Y-101390000D01*
X262440000Y-101400000D02*
X262440000Y-105020000D01*
X184940000Y-105120000D02*
X184940000Y-108930000D01*
X169610000Y-101350000D02*
X172190000Y-101350000D01*
X85760000Y-108900000D02*
X85850000Y-108990000D01*
X270080000Y-105160000D02*
X272730000Y-104070000D01*
X185000000Y-116610000D02*
X187490000Y-116610000D01*
X169620000Y-82150000D02*
X169620000Y-93720000D01*
X100970000Y-82240000D02*
X101060000Y-82150000D01*
X57850000Y-78500000D02*
X61490000Y-78500000D01*
X243390000Y-91280000D02*
X243400000Y-91270000D01*
X262440000Y-105020000D02*
X262580000Y-105160000D01*
X100870000Y-78460000D02*
X101060000Y-78650000D01*
X174600000Y-78650000D02*
X174770000Y-78480000D01*
X200060000Y-116610000D02*
X200230000Y-116440000D01*
X254830000Y-82280000D02*
X254880000Y-82330000D01*
X156970000Y-116450000D02*
X156970000Y-101330000D01*
X202800000Y-116440000D02*
X202800000Y-101410000D01*
X243450000Y-106460000D02*
X248640000Y-106460000D01*
X103580000Y-116450000D02*
X103580000Y-101410000D01*
X238330000Y-84810000D02*
X234520000Y-79770000D01*
X248480000Y-91170000D02*
X247250000Y-84870000D01*
X258660000Y-94970000D02*
X259950000Y-91120000D01*
X251000000Y-82330000D02*
X251050000Y-82280000D01*
X258660000Y-94970000D02*
X258660000Y-97490000D01*
X273770000Y-87380000D02*
X273950000Y-87380000D01*
X270140000Y-109000000D02*
X272730000Y-107570000D01*
X239810000Y-111470000D02*
X265100000Y-111470000D01*
X202800000Y-101410000D02*
X202720000Y-101330000D01*
X235830000Y-101430000D02*
X241090000Y-99990000D01*
X174770000Y-89910000D02*
X174770000Y-93770000D01*
X101100000Y-112950000D02*
X90860000Y-112950000D01*
X232130000Y-108930000D02*
X232010000Y-108930000D01*
X61490000Y-78500000D02*
X61640000Y-78650000D01*
X172220000Y-80420000D02*
X202720000Y-80420000D01*
X243160000Y-93720000D02*
X243390000Y-93950000D01*
X159510000Y-93710000D02*
X159510000Y-82160000D01*
X237090000Y-103970000D02*
X232130000Y-108930000D01*
X248640000Y-106460000D02*
X252370000Y-109010000D01*
X243390000Y-93950000D02*
X243390000Y-91280000D01*
X239810000Y-111470000D02*
X243450000Y-114080000D01*
X237090000Y-111470000D02*
X239810000Y-111470000D01*
X254850000Y-84900000D02*
X254880000Y-84870000D01*
X270060000Y-93780000D02*
X269080000Y-89990000D01*
X200230000Y-116440000D02*
X202800000Y-116440000D01*
X251050000Y-82280000D02*
X254830000Y-82280000D01*
X249000000Y-99610000D02*
X258660000Y-102590000D01*
X258660000Y-97490000D02*
X266260000Y-97460000D01*
X270060000Y-101400000D02*
X272730000Y-104070000D01*
X61640000Y-78650000D02*
X75440000Y-78650000D01*
X232010000Y-111470000D02*
X237090000Y-111470000D01*
X184930000Y-105110000D02*
X184940000Y-105120000D01*
X156970000Y-80420000D02*
X172220000Y-80420000D01*
X239630000Y-93720000D02*
X243160000Y-93720000D01*
X243390000Y-93950000D02*
X248240000Y-93950000D01*
X243400000Y-83650000D02*
X242140000Y-79770000D01*
X254880000Y-82330000D02*
X259950000Y-83620000D01*
X243400000Y-83650000D02*
X247250000Y-82330000D01*
X240870000Y-84810000D02*
X243400000Y-83650000D01*
X200230000Y-101380000D02*
X200180000Y-101330000D01*
X248240000Y-93950000D02*
X248480000Y-93710000D01*
X264980000Y-93780000D02*
X266300000Y-90000000D01*
X254850000Y-91160000D02*
X254850000Y-84900000D01*
X101100000Y-116450000D02*
X103580000Y-116450000D01*
X251010000Y-89940000D02*
X251050000Y-89900000D01*
X202800000Y-116440000D02*
X232010000Y-111470000D01*
X130240000Y-101340000D02*
X130250000Y-101330000D01*
X57806724Y-116153276D02*
X57806724Y-101403276D01*
X182420000Y-116610000D02*
X185000000Y-116610000D01*
X187490000Y-116610000D02*
X200060000Y-116610000D01*
X159560000Y-112940000D02*
X159560000Y-101380000D01*
X111130000Y-93720000D02*
X117490000Y-93720000D01*
X156970000Y-116450000D02*
X159550000Y-116450000D01*
X200230000Y-112940000D02*
X200230000Y-101380000D01*
X182250000Y-116440000D02*
X182420000Y-116610000D01*
X200180000Y-82200000D02*
X200230000Y-82150000D01*
X241090000Y-99990000D02*
X249000000Y-99610000D01*
X57850000Y-78500000D02*
X28650000Y-82280000D01*
X159510000Y-82160000D02*
X159520000Y-82150000D01*
X156970000Y-93710000D02*
X156970000Y-80420000D01*
X226780000Y-98800000D02*
X224350000Y-86140000D01*
X248480000Y-93710000D02*
X251010000Y-93710000D01*
X247250000Y-82330000D02*
X251000000Y-82330000D01*
X184930000Y-101390000D02*
X184930000Y-105110000D01*
X202720000Y-80420000D02*
X202720000Y-93710000D01*
X263730000Y-81110000D02*
X262440000Y-93780000D01*
X70510000Y-82150000D02*
X70510000Y-93730000D01*
X101100000Y-112950000D02*
X101100000Y-101470000D01*
X222020000Y-81070000D02*
X239630000Y-91180000D01*
X200230000Y-112940000D02*
X190070000Y-112940000D01*
X208570000Y-85390000D02*
X205300000Y-88640000D01*
X259950000Y-83620000D02*
X263730000Y-81110000D01*
X73060000Y-80430000D02*
X73060000Y-93750000D01*
X100970000Y-93720000D02*
X100970000Y-82240000D01*
X249000000Y-99610000D02*
X254850000Y-96240000D01*
X241090000Y-99990000D02*
X243390000Y-101570000D01*
X159560000Y-101380000D02*
X159510000Y-101330000D01*
X200060000Y-78480000D02*
X200230000Y-78650000D01*
X90860000Y-101300000D02*
X90850000Y-101290000D01*
X57850000Y-93740000D02*
X57850000Y-86000000D01*
X122590000Y-93700000D02*
X122600000Y-93690000D01*
X248480000Y-96250000D02*
X254840000Y-96250000D01*
X88300000Y-116610000D02*
X100940000Y-116610000D01*
X174770000Y-86100000D02*
X174770000Y-89910000D01*
X57850000Y-86000000D02*
X57850000Y-80430000D01*
X75610000Y-86100000D02*
X75630000Y-86080000D01*
X60380000Y-84850000D02*
X61640000Y-82150000D01*
X108590000Y-93720000D02*
X109900000Y-96220000D01*
X85850000Y-116610000D02*
X88300000Y-116610000D01*
X57850000Y-80430000D02*
X73060000Y-80430000D01*
X103580000Y-101410000D02*
X103510000Y-101340000D01*
X85760000Y-105140000D02*
X85760000Y-108900000D01*
X200180000Y-93710000D02*
X200180000Y-82200000D01*
X70510000Y-101330000D02*
X73020000Y-101330000D01*
X233270000Y-96230000D02*
X233230000Y-96270000D01*
X251010000Y-93710000D02*
X251010000Y-89940000D01*
X235830000Y-101430000D02*
X237090000Y-103970000D01*
X159520000Y-82150000D02*
X169620000Y-82150000D01*
X103580000Y-116450000D02*
X156970000Y-116450000D01*
X177350000Y-78480000D02*
X200060000Y-78480000D01*
X202720000Y-80420000D02*
X214400000Y-81070000D01*
X224320000Y-98800000D02*
X226780000Y-98800000D01*
X190070000Y-93640000D02*
X187600000Y-93640000D01*
X142970000Y-101310000D02*
X149330000Y-101310000D01*
X132810000Y-109530000D02*
X151160000Y-109640000D01*
X197700000Y-103900000D02*
X197700000Y-106480000D01*
X221790000Y-96260000D02*
X221800000Y-96250000D01*
X85760000Y-101370000D02*
X85760000Y-105140000D01*
X172220000Y-93760000D02*
X172230000Y-93770000D01*
X109410000Y-85440000D02*
X106160000Y-88680000D01*
X57806724Y-101403276D02*
X57850000Y-101360000D01*
X273920000Y-95000000D02*
X273950000Y-95000000D01*
X216710000Y-96260000D02*
X221790000Y-96260000D01*
X117490000Y-96220000D02*
X117510000Y-96240000D01*
X172220000Y-80420000D02*
X172220000Y-93760000D01*
X28580000Y-112770000D02*
X57806724Y-116153276D01*
X209110000Y-96220000D02*
X216710000Y-96260000D01*
X187490000Y-101410000D02*
X187470000Y-101390000D01*
X226780000Y-98800000D02*
X229400000Y-98800000D01*
X235770000Y-96270000D02*
X239630000Y-93720000D01*
X130250000Y-93710000D02*
X135330000Y-93710000D01*
X73060000Y-80430000D02*
X103520000Y-80430000D01*
X57806724Y-116153276D02*
X60370000Y-116450000D01*
X103520000Y-93710000D02*
X103510000Y-93720000D01*
X190070000Y-112940000D02*
X190070000Y-101330000D01*
X73020000Y-101330000D02*
X73060000Y-101370000D01*
X125160000Y-98800000D02*
X127740000Y-98800000D01*
X60390000Y-93740000D02*
X60380000Y-84850000D01*
X125110000Y-101390000D02*
X125160000Y-101340000D01*
X139170000Y-93700000D02*
X139210000Y-93740000D01*
X210340000Y-101330000D02*
X212870000Y-101330000D01*
X216710000Y-96260000D02*
X216710000Y-106350000D01*
X75600000Y-89930000D02*
X75610000Y-89920000D01*
X224320000Y-101340000D02*
X229400000Y-101340000D01*
X103520000Y-80430000D02*
X103520000Y-93710000D01*
X248470000Y-96260000D02*
X248480000Y-96250000D01*
X121400000Y-98810000D02*
X125150000Y-98810000D01*
X267520000Y-101400000D02*
X273920000Y-95000000D01*
X184940000Y-108930000D02*
X185000000Y-108990000D01*
X88300000Y-116610000D02*
X88300000Y-101370000D01*
X254840000Y-93710000D02*
X254850000Y-93700000D01*
X230690000Y-96270000D02*
X235830000Y-101430000D01*
X254840000Y-96250000D02*
X254850000Y-96240000D01*
X101060000Y-78650000D02*
X159520000Y-78650000D01*
X127740000Y-98800000D02*
X127740000Y-85490000D01*
X135330000Y-96250000D02*
X135340000Y-96240000D01*
X75600000Y-93750000D02*
X75600000Y-89930000D01*
X61640000Y-82150000D02*
X70510000Y-82150000D01*
X205450000Y-106350000D02*
X205320000Y-106480000D01*
X224350000Y-86140000D02*
X208570000Y-85390000D01*
X60370000Y-112950000D02*
X60370000Y-101380000D01*
X122590000Y-96240000D02*
X122600000Y-96230000D01*
X90850000Y-93650000D02*
X88400000Y-93650000D01*
X83110000Y-116450000D02*
X83270000Y-116610000D01*
X117490000Y-93720000D02*
X117510000Y-93700000D01*
X209150000Y-98830000D02*
X212940000Y-98820000D01*
X142960000Y-101320000D02*
X142970000Y-101310000D01*
X125160000Y-101340000D02*
X130240000Y-101340000D01*
X159550000Y-116450000D02*
X159560000Y-116440000D01*
X130250000Y-96250000D02*
X132810000Y-96250000D01*
X100940000Y-116610000D02*
X101100000Y-116450000D01*
X216710000Y-93720000D02*
X221790000Y-93720000D01*
X229400000Y-98800000D02*
X229410000Y-98790000D01*
X52057871Y-109627871D02*
X55250000Y-106490000D01*
X88400000Y-93650000D02*
X88300000Y-93750000D01*
X188570000Y-88700000D02*
X193770000Y-87350000D01*
X251010000Y-93710000D02*
X254840000Y-93710000D01*
X43810000Y-98790000D02*
X43820000Y-98780000D01*
X106050000Y-103790000D02*
X106150000Y-103890000D01*
X60370000Y-101380000D02*
X60390000Y-101360000D01*
X33690000Y-109550000D02*
X52057871Y-109627871D01*
X233270000Y-92480000D02*
X233270000Y-96230000D01*
X221790000Y-93720000D02*
X221800000Y-93710000D01*
X216710000Y-106350000D02*
X205450000Y-106350000D01*
X210340000Y-93710000D02*
X216700000Y-93710000D01*
X130240000Y-98800000D02*
X130250000Y-98790000D01*
X154470000Y-88660000D02*
X143020000Y-88660000D01*
X151160000Y-109640000D02*
X154460000Y-106460000D01*
X142960000Y-98780000D02*
X142970000Y-98770000D01*
X132810000Y-96250000D02*
X132810000Y-109530000D01*
X117510000Y-93700000D02*
X122590000Y-93700000D01*
X143020000Y-98720000D02*
X142970000Y-98770000D01*
X220560000Y-101400000D02*
X224260000Y-101400000D01*
X125150000Y-98810000D02*
X125160000Y-98800000D01*
X75610000Y-89920000D02*
X75610000Y-86100000D01*
X117510000Y-96240000D02*
X122590000Y-96240000D01*
X154430000Y-101330000D02*
X154430000Y-103850000D01*
X142970000Y-98770000D02*
X150610000Y-98800000D01*
X207800000Y-93710000D02*
X209110000Y-96220000D01*
X109900000Y-96220000D02*
X117490000Y-96220000D01*
X139130000Y-96240000D02*
X139210000Y-96320000D01*
X212870000Y-101330000D02*
X212940000Y-101400000D01*
X260000000Y-109000000D02*
X259990000Y-109010000D01*
X137880000Y-101320000D02*
X142960000Y-101320000D01*
X150610000Y-98800000D02*
X151890000Y-101330000D01*
X43820000Y-101320000D02*
X50190000Y-101320000D01*
X233320000Y-84810000D02*
X233270000Y-84860000D01*
X167140000Y-95900000D02*
X167140000Y-93660000D01*
X117510000Y-106430000D02*
X117510000Y-96240000D01*
X132810000Y-96250000D02*
X135330000Y-96250000D01*
X216700000Y-93710000D02*
X216710000Y-93720000D01*
X127740000Y-85490000D02*
X109410000Y-85440000D01*
X143020000Y-88660000D02*
X143020000Y-98720000D01*
X111130000Y-101340000D02*
X113730000Y-101340000D01*
X33700000Y-96250000D02*
X33690000Y-109550000D01*
X182350000Y-96290000D02*
X198950000Y-96230000D01*
X220560000Y-98820000D02*
X224300000Y-98820000D01*
X197640000Y-103840000D02*
X197700000Y-103900000D01*
X135340000Y-96240000D02*
X139130000Y-96240000D01*
X121400000Y-101390000D02*
X125110000Y-101390000D01*
X127740000Y-98800000D02*
X130240000Y-98800000D01*
X137880000Y-98780000D02*
X142960000Y-98780000D01*
X60370000Y-116450000D02*
X83110000Y-116450000D01*
X40030000Y-96240000D02*
X40070000Y-96280000D01*
X31100000Y-93710000D02*
X36150000Y-93710000D01*
X197680000Y-88640000D02*
X197680000Y-91220000D01*
X229400000Y-101340000D02*
X229410000Y-101330000D01*
X106150000Y-106470000D02*
X117510000Y-106430000D01*
X89550000Y-88700000D02*
X89570000Y-88680000D01*
X135330000Y-93710000D02*
X135340000Y-93700000D01*
X28650000Y-82280000D02*
X28580000Y-112770000D01*
X135340000Y-93700000D02*
X139170000Y-93700000D01*
X235790000Y-84810000D02*
X233320000Y-84810000D01*
X177310000Y-93770000D02*
X177310000Y-86140000D01*
X198950000Y-96230000D02*
X200180000Y-93710000D01*
X36160000Y-96240000D02*
X40030000Y-96240000D01*
X89570000Y-88680000D02*
X94590000Y-87350000D01*
X93450000Y-101270000D02*
X93450000Y-101300000D01*
X150580000Y-96260000D02*
X146830000Y-96320000D01*
X224260000Y-101400000D02*
X224320000Y-101340000D01*
X51470000Y-98820000D02*
X52770000Y-101360000D01*
X177310000Y-93770000D02*
X174620000Y-96460000D01*
X43820000Y-98780000D02*
X51470000Y-98820000D01*
X98540000Y-91260000D02*
X98540000Y-93610000D01*
X31100000Y-96250000D02*
X33550000Y-96250000D01*
X167700000Y-96460000D02*
X167140000Y-95900000D01*
X67970000Y-93720000D02*
X67970000Y-93640000D01*
X151890000Y-93710000D02*
X150580000Y-96260000D01*
X99770000Y-96230000D02*
X100970000Y-93720000D01*
X38730000Y-101330000D02*
X43810000Y-101330000D01*
X149330000Y-101310000D02*
X149350000Y-101330000D01*
X76810000Y-96260000D02*
X67950000Y-96170000D01*
X113730000Y-101340000D02*
X113780000Y-101390000D01*
X207800000Y-101330000D02*
X209150000Y-98830000D01*
X83220000Y-101370000D02*
X83220000Y-108940000D01*
X182420000Y-101420000D02*
X182390000Y-101390000D01*
X234520000Y-79770000D02*
X242130000Y-75940000D01*
X162080000Y-103880000D02*
X162080000Y-101360000D01*
X78180000Y-98760000D02*
X80680000Y-93750000D01*
X205320000Y-103900000D02*
X205320000Y-101390000D01*
X160740000Y-98840000D02*
X177370000Y-98760000D01*
X43820000Y-98780000D02*
X43870000Y-88660000D01*
X197640000Y-101330000D02*
X197640000Y-103840000D01*
X205300000Y-91220000D02*
X205300000Y-93670000D01*
X50190000Y-101320000D02*
X50230000Y-101360000D01*
X264970000Y-107680000D02*
X262520000Y-109000000D01*
X197680000Y-93670000D02*
X197640000Y-93710000D01*
X66840000Y-107710000D02*
X62870000Y-106490000D01*
X43810000Y-101330000D02*
X43820000Y-101320000D01*
X242130000Y-75940000D02*
X252480000Y-77510000D01*
X197680000Y-91220000D02*
X197680000Y-93670000D01*
X109960000Y-98810000D02*
X113780000Y-98810000D01*
X146830000Y-93740000D02*
X149320000Y-93740000D01*
X224300000Y-98820000D02*
X224320000Y-98800000D01*
X262520000Y-109000000D02*
X260000000Y-109000000D01*
X205300000Y-93670000D02*
X205260000Y-93710000D01*
X36150000Y-93710000D02*
X36160000Y-93700000D01*
X179850000Y-101390000D02*
X182350000Y-96290000D01*
X71810000Y-106440000D02*
X71760000Y-106490000D01*
X174620000Y-96460000D02*
X167700000Y-96460000D01*
X43870000Y-88660000D02*
X55300000Y-88660000D01*
X36150000Y-96250000D02*
X36160000Y-96240000D01*
X36160000Y-93700000D02*
X40070000Y-93700000D01*
X106160000Y-93610000D02*
X106050000Y-93720000D01*
X154430000Y-91280000D02*
X154470000Y-91240000D01*
X195100000Y-101330000D02*
X197640000Y-101330000D01*
X162080000Y-101360000D02*
X162050000Y-101330000D01*
X38730000Y-98790000D02*
X43810000Y-98790000D01*
X205320000Y-101390000D02*
X205260000Y-101330000D01*
X83190000Y-96300000D02*
X99770000Y-96230000D01*
X62930000Y-93740000D02*
X65470000Y-93740000D01*
X92140000Y-98830000D02*
X93450000Y-101270000D01*
X98540000Y-88680000D02*
X98540000Y-91260000D01*
X108590000Y-101340000D02*
X109960000Y-98810000D01*
X159510000Y-101330000D02*
X160740000Y-98840000D01*
X98430000Y-93720000D02*
X95890000Y-93720000D01*
X78140000Y-93750000D02*
X78140000Y-86150000D01*
X62870000Y-101420000D02*
X62930000Y-101360000D01*
X43814601Y-103865399D02*
X43820000Y-103860000D01*
X95890000Y-101340000D02*
X98430000Y-101340000D01*
X62930000Y-101360000D02*
X65470000Y-101360000D01*
X177370000Y-98760000D02*
X179850000Y-93770000D01*
X98430000Y-101340000D02*
X98430000Y-103790000D01*
X38720000Y-107080000D02*
X38720000Y-103880000D01*
X154430000Y-103850000D02*
X154460000Y-103880000D01*
X55300000Y-93730000D02*
X55310000Y-93740000D01*
X135332512Y-87977488D02*
X135332512Y-91152512D01*
X83220000Y-101370000D02*
X84500000Y-98830000D01*
X71760000Y-106490000D02*
X66840000Y-107710000D01*
X55310000Y-103850000D02*
X55250000Y-103910000D01*
X78140000Y-93750000D02*
X76810000Y-96260000D01*
X197640000Y-93710000D02*
X195100000Y-93710000D01*
X94590000Y-87350000D02*
X98540000Y-88680000D01*
X60390000Y-101360000D02*
X61590000Y-98830000D01*
X38720000Y-103880000D02*
X38730000Y-103870000D01*
X162090000Y-91240000D02*
X162090000Y-88660000D01*
X106050000Y-101340000D02*
X106050000Y-103790000D01*
X98430000Y-103790000D02*
X98530000Y-103890000D01*
X182420000Y-108990000D02*
X182420000Y-101420000D01*
X106160000Y-91260000D02*
X106160000Y-93610000D01*
X98540000Y-93610000D02*
X98430000Y-93720000D01*
X193770000Y-87350000D02*
X197680000Y-88640000D01*
X83220000Y-108940000D02*
X83270000Y-108990000D01*
X80680000Y-101370000D02*
X83190000Y-96300000D01*
X62870000Y-103910000D02*
X62870000Y-101420000D01*
X264980000Y-101400000D02*
X264970000Y-107680000D01*
X149320000Y-93740000D02*
X149350000Y-93710000D01*
X62920000Y-91240000D02*
X62920000Y-93730000D01*
X154430000Y-93710000D02*
X154430000Y-91280000D01*
X177310000Y-86140000D02*
X177350000Y-86100000D01*
X62870000Y-103910000D02*
X62870000Y-106490000D01*
X55310000Y-101360000D02*
X55310000Y-103850000D01*
X84500000Y-98830000D02*
X92140000Y-98830000D01*
X67950000Y-96170000D02*
X67970000Y-93720000D01*
X33550000Y-96250000D02*
X36150000Y-96250000D01*
X162050000Y-93710000D02*
X164590000Y-93710000D01*
X61590000Y-98830000D02*
X78180000Y-98760000D01*
X98530000Y-103890000D02*
X98530000Y-106470000D01*
X62920000Y-88660000D02*
X62920000Y-91240000D01*
X78140000Y-86150000D02*
X78210000Y-86080000D01*
X31080000Y-88600000D02*
X31080000Y-91150000D01*
X162050000Y-93710000D02*
X162050000Y-91280000D01*
X36160000Y-91160000D02*
X36160000Y-87980000D01*
X162050000Y-101330000D02*
X164590000Y-101330000D01*
X162050000Y-91280000D02*
X162090000Y-91240000D01*
X193860000Y-106400000D02*
X197620000Y-106400000D01*
X47690000Y-96280000D02*
X51370000Y-96250000D01*
X47690000Y-93700000D02*
X50190000Y-93700000D01*
X216722138Y-88552138D02*
X216722138Y-91167862D01*
X142966318Y-106416318D02*
X142966318Y-103853682D01*
X43814601Y-106424601D02*
X43814601Y-103865399D01*
X224350000Y-107100000D02*
X224350000Y-103910000D01*
X85760000Y-89920000D02*
X85760000Y-93750000D01*
X135332512Y-91152512D02*
X135340000Y-91160000D01*
X51370000Y-96250000D02*
X52770000Y-93740000D01*
X31080000Y-91150000D02*
X31100000Y-91170000D01*
X122603410Y-87923410D02*
X122603410Y-91146590D01*
X122603410Y-91146590D02*
X122600000Y-91150000D01*
X229430000Y-103890000D02*
X229410000Y-103870000D01*
X162100000Y-88670000D02*
X162090000Y-88660000D01*
X125160000Y-107050000D02*
X125160000Y-103880000D01*
X50190000Y-93700000D02*
X50230000Y-93740000D01*
X162080000Y-106460000D02*
X165880000Y-107770000D01*
X229430000Y-105890000D02*
X229430000Y-103890000D01*
X55300000Y-91240000D02*
X55300000Y-93730000D01*
X62920000Y-93730000D02*
X62930000Y-93740000D01*
X221780000Y-88080000D02*
X221780000Y-91150000D01*
X165880000Y-107770000D02*
X170900000Y-106410000D01*
X184930000Y-89820000D02*
X184871912Y-89761912D01*
X137875420Y-103864580D02*
X137880000Y-103860000D01*
X75600000Y-101370000D02*
X75600000Y-105130000D01*
X137875420Y-107015420D02*
X137875420Y-103864580D01*
X130250000Y-106460000D02*
X130250000Y-103870000D01*
X142966318Y-103853682D02*
X142970000Y-103850000D01*
X183640000Y-98830000D02*
X182390000Y-101390000D01*
X94710000Y-106470000D02*
X94690000Y-106450000D01*
X275520000Y-90150000D02*
X275390000Y-106700000D01*
X117510000Y-88570000D02*
X117510000Y-91160000D01*
X221780000Y-91150000D02*
X221800000Y-91170000D01*
X78140000Y-101370000D02*
X79490000Y-105140000D01*
X66680000Y-88660000D02*
X66690000Y-88650000D01*
X165910000Y-88670000D02*
X162100000Y-88670000D01*
X130250000Y-88570000D02*
X130250000Y-91170000D01*
X98530000Y-106470000D02*
X94710000Y-106470000D01*
X83220000Y-93750000D02*
X81940000Y-89880000D01*
X174904322Y-105085678D02*
X174904322Y-101524322D01*
X275390000Y-106700000D02*
X272730000Y-107570000D01*
X192550000Y-101360000D02*
X191260000Y-98820000D01*
X197620000Y-106400000D02*
X197700000Y-106480000D01*
X162080000Y-106460000D02*
X162080000Y-103880000D01*
X273950000Y-87380000D02*
X275520000Y-90150000D01*
X216722138Y-91167862D02*
X216710000Y-91180000D01*
X93455634Y-93705634D02*
X93455634Y-89924366D01*
X167140000Y-101360000D02*
X167140000Y-105140000D01*
X67970000Y-105150000D02*
X67970000Y-101350000D01*
X178560000Y-105100000D02*
X177310000Y-101390000D01*
X224350000Y-103910000D02*
X224320000Y-103880000D01*
X174904322Y-101524322D02*
X174770000Y-101390000D01*
X192540000Y-89960000D02*
X192480000Y-89900000D01*
X62920000Y-88660000D02*
X66680000Y-88660000D01*
X93455634Y-89924366D02*
X93458441Y-89921559D01*
X192540000Y-93680000D02*
X192540000Y-89960000D01*
X182390000Y-93770000D02*
X181110000Y-89880000D01*
X191260000Y-98820000D02*
X183640000Y-98830000D01*
X184930000Y-93770000D02*
X184930000Y-89820000D01*
X256760000Y-114890000D02*
X248640000Y-113960000D01*
X267110000Y-118600000D02*
X256760000Y-114890000D01*
X260100000Y-77510000D02*
X267110000Y-74100000D01*
%TD*%
M02*
