%TF.GenerationSoftware,KiCad,Pcbnew,(5.1.7)-1*%
%TF.CreationDate,2021-05-19T12:24:51-05:00*%
%TF.ProjectId,FOURSES INTERSEXON,464f5552-5345-4532-9049-4e5445525345,rev?*%
%TF.SameCoordinates,Original*%
%TF.FileFunction,Soldermask,Bot*%
%TF.FilePolarity,Negative*%
%FSLAX46Y46*%
G04 Gerber Fmt 4.6, Leading zero omitted, Abs format (unit mm)*
G04 Created by KiCad (PCBNEW (5.1.7)-1) date 2021-05-19 12:24:51*
%MOMM*%
%LPD*%
G01*
G04 APERTURE LIST*
%ADD10C,3.200000*%
%ADD11C,5.900000*%
%ADD12O,1.600000X1.600000*%
%ADD13C,1.600000*%
%ADD14C,1.500000*%
%ADD15R,1.500000X1.500000*%
%ADD16R,1.600000X1.600000*%
%ADD17O,2.190000X1.740000*%
%ADD18C,2.000000*%
%ADD19R,2.000000X2.000000*%
%ADD20R,2.200000X2.200000*%
%ADD21O,2.200000X2.200000*%
G04 APERTURE END LIST*
D10*
%TO.C,REF\u002A\u002A*%
X16640000Y-124530000D03*
%TD*%
%TO.C,REF\u002A\u002A*%
X16640000Y-69860000D03*
%TD*%
%TO.C,REF\u002A\u002A*%
X285390000Y-69860000D03*
%TD*%
D11*
%TO.C,REF\u002A\u002A*%
X109630000Y-121990000D03*
%TD*%
%TO.C,REF\u002A\u002A*%
X63630000Y-71990000D03*
%TD*%
%TO.C,REF\u002A\u002A*%
X18110000Y-113600000D03*
%TD*%
%TO.C,REF\u002A\u002A*%
X75130000Y-71990000D03*
%TD*%
%TO.C,REF\u002A\u002A*%
X175460000Y-73100000D03*
%TD*%
%TO.C,REF\u002A\u002A*%
X109630000Y-71990000D03*
%TD*%
D12*
%TO.C,REF\u002A\u002A*%
X273950000Y-87380000D03*
D13*
X273950000Y-95000000D03*
%TD*%
D11*
%TO.C,REF\u002A\u002A*%
X192210000Y-121990000D03*
%TD*%
%TO.C,REF\u002A\u002A*%
X63630000Y-121990000D03*
%TD*%
%TO.C,REF\u002A\u002A*%
X18110000Y-102100000D03*
%TD*%
%TO.C,REF\u002A\u002A*%
X98130000Y-121990000D03*
%TD*%
D13*
%TO.C,REF\u002A\u002A*%
X243450000Y-106460000D03*
D12*
X243450000Y-114080000D03*
%TD*%
D14*
%TO.C,REF\u002A\u002A*%
X130250000Y-101330000D03*
X130250000Y-98790000D03*
D15*
X130250000Y-103870000D03*
%TD*%
D11*
%TO.C,REF\u002A\u002A*%
X159160000Y-73100000D03*
%TD*%
D15*
%TO.C,REF\u002A\u002A*%
X36160000Y-91160000D03*
D14*
X36160000Y-96240000D03*
X36160000Y-93700000D03*
%TD*%
D11*
%TO.C,REF\u002A\u002A*%
X203710000Y-121990000D03*
%TD*%
D12*
%TO.C,REF\u002A\u002A*%
X212940000Y-101400000D03*
D13*
X220560000Y-101400000D03*
%TD*%
D12*
%TO.C,REF\u002A\u002A*%
X259990000Y-109010000D03*
D13*
X252370000Y-109010000D03*
%TD*%
%TO.C,REF\u002A\u002A*%
X262520000Y-109000000D03*
D12*
X270140000Y-109000000D03*
%TD*%
D11*
%TO.C,REF\u002A\u002A*%
X18110000Y-90600000D03*
%TD*%
%TO.C,REF\u002A\u002A*%
X75130000Y-121990000D03*
%TD*%
%TO.C,REF\u002A\u002A*%
X52130000Y-121990000D03*
%TD*%
%TO.C,REF\u002A\u002A*%
X159160000Y-121350000D03*
%TD*%
%TO.C,REF\u002A\u002A*%
X226710000Y-121990000D03*
%TD*%
%TO.C,REF\u002A\u002A*%
X126260000Y-73100000D03*
%TD*%
%TO.C,REF\u002A\u002A*%
X52130000Y-71990000D03*
%TD*%
D12*
%TO.C,REF\u002A\u002A*%
X233270000Y-84860000D03*
D13*
X233270000Y-92480000D03*
%TD*%
D14*
%TO.C,REF\u002A\u002A*%
X31100000Y-93710000D03*
X31100000Y-96250000D03*
D15*
X31100000Y-91170000D03*
%TD*%
D13*
%TO.C,REF\u002A\u002A*%
X242140000Y-79770000D03*
D12*
X234520000Y-79770000D03*
%TD*%
%TO.C,REF\u002A\u002A*%
X252480000Y-77510000D03*
D13*
X260100000Y-77510000D03*
%TD*%
D11*
%TO.C,REF\u002A\u002A*%
X238210000Y-121990000D03*
%TD*%
%TO.C,REF\u002A\u002A*%
X142560000Y-121350000D03*
%TD*%
%TO.C,REF\u002A\u002A*%
X98130000Y-71990000D03*
%TD*%
%TO.C,REF\u002A\u002A*%
X86630000Y-71990000D03*
%TD*%
D15*
%TO.C,REF\u002A\u002A*%
X117510000Y-91160000D03*
D14*
X117510000Y-96240000D03*
X117510000Y-93700000D03*
%TD*%
D11*
%TO.C,REF\u002A\u002A*%
X175460000Y-121350000D03*
%TD*%
D15*
%TO.C,REF\u002A\u002A*%
X216710000Y-91180000D03*
D14*
X216710000Y-96260000D03*
X216710000Y-93720000D03*
%TD*%
D15*
%TO.C,REF\u002A\u002A*%
X125160000Y-103880000D03*
D14*
X125160000Y-98800000D03*
X125160000Y-101340000D03*
%TD*%
D15*
%TO.C,REF\u002A\u002A*%
X43820000Y-103860000D03*
D14*
X43820000Y-98780000D03*
X43820000Y-101320000D03*
%TD*%
D11*
%TO.C,REF\u002A\u002A*%
X215210000Y-121990000D03*
%TD*%
%TO.C,REF\u002A\u002A*%
X226710000Y-71990000D03*
%TD*%
D12*
%TO.C,REF\u002A\u002A*%
X62920000Y-91240000D03*
D13*
X55300000Y-91240000D03*
%TD*%
D15*
%TO.C,REF\u002A\u002A*%
X135340000Y-91160000D03*
D14*
X135340000Y-96240000D03*
X135340000Y-93700000D03*
%TD*%
D15*
%TO.C,REF\u002A\u002A*%
X142970000Y-103850000D03*
D14*
X142970000Y-98770000D03*
X142970000Y-101310000D03*
%TD*%
%TO.C,REF\u002A\u002A*%
X130250000Y-93710000D03*
X130250000Y-96250000D03*
D15*
X130250000Y-91170000D03*
%TD*%
D13*
%TO.C,REF\u002A\u002A*%
X220560000Y-98820000D03*
D12*
X212940000Y-98820000D03*
%TD*%
D14*
%TO.C,REF\u002A\u002A*%
X137880000Y-101320000D03*
X137880000Y-98780000D03*
D15*
X137880000Y-103860000D03*
%TD*%
%TO.C,REF\u002A\u002A*%
X235790000Y-84810000D03*
D14*
X240870000Y-84810000D03*
X238330000Y-84810000D03*
%TD*%
D15*
%TO.C,REF\u002A\u002A*%
X224320000Y-103880000D03*
D14*
X224320000Y-98800000D03*
X224320000Y-101340000D03*
%TD*%
D16*
%TO.C,REF\u002A\u002A*%
X270060000Y-93780000D03*
D12*
X262440000Y-101400000D03*
X267520000Y-93780000D03*
X264980000Y-101400000D03*
X264980000Y-93780000D03*
X267520000Y-101400000D03*
X262440000Y-93780000D03*
X270060000Y-101400000D03*
%TD*%
D16*
%TO.C,REF\u002A\u002A*%
X172230000Y-101390000D03*
D12*
X187470000Y-93770000D03*
X174770000Y-101390000D03*
X184930000Y-93770000D03*
X177310000Y-101390000D03*
X182390000Y-93770000D03*
X179850000Y-101390000D03*
X179850000Y-93770000D03*
X182390000Y-101390000D03*
X177310000Y-93770000D03*
X184930000Y-101390000D03*
X174770000Y-93770000D03*
X187470000Y-101390000D03*
X172230000Y-93770000D03*
%TD*%
D13*
%TO.C,REF\u002A\u002A*%
X55300000Y-88660000D03*
D12*
X62920000Y-88660000D03*
%TD*%
%TO.C,REF\u002A\u002A*%
G36*
G01*
X254034999Y-81460000D02*
X255725001Y-81460000D01*
G75*
G02*
X255975000Y-81709999I0J-249999D01*
G01*
X255975000Y-82950001D01*
G75*
G02*
X255725001Y-83200000I-249999J0D01*
G01*
X254034999Y-83200000D01*
G75*
G02*
X253785000Y-82950001I0J249999D01*
G01*
X253785000Y-81709999D01*
G75*
G02*
X254034999Y-81460000I249999J0D01*
G01*
G37*
D17*
X254880000Y-84870000D03*
%TD*%
D12*
%TO.C,REF\u002A\u002A*%
X73060000Y-93750000D03*
X88300000Y-101370000D03*
X75600000Y-93750000D03*
X85760000Y-101370000D03*
X78140000Y-93750000D03*
X83220000Y-101370000D03*
X80680000Y-93750000D03*
X80680000Y-101370000D03*
X83220000Y-93750000D03*
X78140000Y-101370000D03*
X85760000Y-93750000D03*
X75600000Y-101370000D03*
X88300000Y-93750000D03*
D16*
X73060000Y-101370000D03*
%TD*%
%TO.C,REF\u002A\u002A*%
G36*
G01*
X232855001Y-112340000D02*
X231164999Y-112340000D01*
G75*
G02*
X230915000Y-112090001I0J249999D01*
G01*
X230915000Y-110849999D01*
G75*
G02*
X231164999Y-110600000I249999J0D01*
G01*
X232855001Y-110600000D01*
G75*
G02*
X233105000Y-110849999I0J-249999D01*
G01*
X233105000Y-112090001D01*
G75*
G02*
X232855001Y-112340000I-249999J0D01*
G01*
G37*
D17*
X232010000Y-108930000D03*
%TD*%
D11*
%TO.C,REF\u002A\u002A*%
X283610000Y-90600000D03*
%TD*%
D18*
%TO.C,REF\u002A\u002A*%
X266300000Y-90000000D03*
%TD*%
D13*
%TO.C,REF\u002A\u002A*%
X106150000Y-103890000D03*
D12*
X98530000Y-103890000D03*
%TD*%
%TO.C,REF\u002A\u002A*%
X98540000Y-88680000D03*
D13*
X106160000Y-88680000D03*
%TD*%
%TO.C,REF\u002A\u002A*%
X40070000Y-96280000D03*
D12*
X47690000Y-96280000D03*
%TD*%
D13*
%TO.C,REF\u002A\u002A*%
X55250000Y-103910000D03*
D12*
X62870000Y-103910000D03*
%TD*%
%TO.C,REF\u002A\u002A*%
X62870000Y-106490000D03*
D13*
X55250000Y-106490000D03*
%TD*%
%TO.C,REF\u002A\u002A*%
X78210000Y-86080000D03*
D12*
X78210000Y-78460000D03*
%TD*%
%TO.C,REF\u002A\u002A*%
X98530000Y-106470000D03*
D13*
X106150000Y-106470000D03*
%TD*%
D12*
%TO.C,REF\u002A\u002A*%
X210340000Y-101330000D03*
X195100000Y-93710000D03*
X207800000Y-101330000D03*
X197640000Y-93710000D03*
X205260000Y-101330000D03*
X200180000Y-93710000D03*
X202720000Y-101330000D03*
X202720000Y-93710000D03*
X200180000Y-101330000D03*
X205260000Y-93710000D03*
X197640000Y-101330000D03*
X207800000Y-93710000D03*
X195100000Y-101330000D03*
D16*
X210340000Y-93710000D03*
%TD*%
D13*
%TO.C,REF\u002A\u002A*%
X106160000Y-91260000D03*
D12*
X98540000Y-91260000D03*
%TD*%
%TO.C,REF\u002A\u002A*%
X75630000Y-78460000D03*
D13*
X75630000Y-86080000D03*
%TD*%
D12*
%TO.C,REF\u002A\u002A*%
X47690000Y-93700000D03*
D13*
X40070000Y-93700000D03*
%TD*%
D19*
%TO.C,REF\u002A\u002A*%
X269080000Y-89990000D03*
%TD*%
D13*
%TO.C,REF\u002A\u002A*%
X61640000Y-82150000D03*
X61640000Y-78650000D03*
%TD*%
D16*
%TO.C,REF\u002A\u002A*%
X65470000Y-93740000D03*
D12*
X50230000Y-101360000D03*
X62930000Y-93740000D03*
X52770000Y-101360000D03*
X60390000Y-93740000D03*
X55310000Y-101360000D03*
X57850000Y-93740000D03*
X57850000Y-101360000D03*
X55310000Y-93740000D03*
X60390000Y-101360000D03*
X52770000Y-93740000D03*
X62930000Y-101360000D03*
X50230000Y-93740000D03*
X65470000Y-101360000D03*
%TD*%
D16*
%TO.C,REF\u002A\u002A*%
X164590000Y-93710000D03*
D12*
X149350000Y-101330000D03*
X162050000Y-93710000D03*
X151890000Y-101330000D03*
X159510000Y-93710000D03*
X154430000Y-101330000D03*
X156970000Y-93710000D03*
X156970000Y-101330000D03*
X154430000Y-93710000D03*
X159510000Y-101330000D03*
X151890000Y-93710000D03*
X162050000Y-101330000D03*
X149350000Y-93710000D03*
X164590000Y-101330000D03*
%TD*%
D13*
%TO.C,REF\u002A\u002A*%
X272730000Y-104070000D03*
X272730000Y-107570000D03*
%TD*%
D11*
%TO.C,REF\u002A\u002A*%
X267110000Y-74100000D03*
%TD*%
D17*
%TO.C,REF\u002A\u002A*%
X247250000Y-84870000D03*
G36*
G01*
X246404999Y-81460000D02*
X248095001Y-81460000D01*
G75*
G02*
X248345000Y-81709999I0J-249999D01*
G01*
X248345000Y-82950001D01*
G75*
G02*
X248095001Y-83200000I-249999J0D01*
G01*
X246404999Y-83200000D01*
G75*
G02*
X246155000Y-82950001I0J249999D01*
G01*
X246155000Y-81709999D01*
G75*
G02*
X246404999Y-81460000I249999J0D01*
G01*
G37*
%TD*%
D13*
%TO.C,REF\u002A\u002A*%
X60370000Y-112950000D03*
X60370000Y-116450000D03*
%TD*%
%TO.C,REF\u002A\u002A*%
X251050000Y-89900000D03*
D12*
X251050000Y-82280000D03*
%TD*%
D14*
%TO.C,REF\u002A\u002A*%
X221800000Y-93710000D03*
X221800000Y-96250000D03*
D15*
X221800000Y-91170000D03*
%TD*%
D12*
%TO.C,REF\u002A\u002A*%
X111130000Y-101340000D03*
X95890000Y-93720000D03*
X108590000Y-101340000D03*
X98430000Y-93720000D03*
X106050000Y-101340000D03*
X100970000Y-93720000D03*
X103510000Y-101340000D03*
X103510000Y-93720000D03*
X100970000Y-101340000D03*
X106050000Y-93720000D03*
X98430000Y-101340000D03*
X108590000Y-93720000D03*
X95890000Y-101340000D03*
D16*
X111130000Y-93720000D03*
%TD*%
D11*
%TO.C,REF\u002A\u002A*%
X215210000Y-71990000D03*
%TD*%
%TO.C,REF\u002A\u002A*%
X283610000Y-102100000D03*
%TD*%
D20*
%TO.C,REF\u002A\u002A*%
X243390000Y-101570000D03*
D21*
X243390000Y-93950000D03*
%TD*%
%TO.C,REF\u002A\u002A*%
X243400000Y-83650000D03*
D20*
X243400000Y-91270000D03*
%TD*%
D11*
%TO.C,REF\u002A\u002A*%
X267110000Y-118600000D03*
%TD*%
%TO.C,REF\u002A\u002A*%
X249710000Y-71990000D03*
%TD*%
D13*
%TO.C,REF\u002A\u002A*%
X101060000Y-78650000D03*
X101060000Y-82150000D03*
%TD*%
D11*
%TO.C,REF\u002A\u002A*%
X203710000Y-71990000D03*
%TD*%
D15*
%TO.C,REF\u002A\u002A*%
X254850000Y-96240000D03*
D14*
X254850000Y-91160000D03*
X254850000Y-93700000D03*
%TD*%
D13*
%TO.C,REF\u002A\u002A*%
X57850000Y-78500000D03*
X57850000Y-86000000D03*
%TD*%
D14*
%TO.C,REF\u002A\u002A*%
X38730000Y-101330000D03*
X38730000Y-98790000D03*
D15*
X38730000Y-103870000D03*
%TD*%
D21*
%TO.C,REF\u002A\u002A*%
X258660000Y-102590000D03*
D20*
X258660000Y-94970000D03*
%TD*%
D13*
%TO.C,REF\u002A\u002A*%
X262580000Y-105160000D03*
X270080000Y-105160000D03*
%TD*%
%TO.C,REF\u002A\u002A*%
X101100000Y-116450000D03*
X101100000Y-112950000D03*
%TD*%
D14*
%TO.C,REF\u002A\u002A*%
X233230000Y-96270000D03*
X230690000Y-96270000D03*
D15*
X235770000Y-96270000D03*
%TD*%
D13*
%TO.C,REF\u002A\u002A*%
X237090000Y-111470000D03*
X237090000Y-103970000D03*
%TD*%
%TO.C,REF\u002A\u002A*%
X200230000Y-116440000D03*
X200230000Y-112940000D03*
%TD*%
%TO.C,REF\u002A\u002A*%
X248640000Y-106460000D03*
X248640000Y-113960000D03*
%TD*%
D14*
%TO.C,REF\u002A\u002A*%
X248480000Y-93710000D03*
X248480000Y-91170000D03*
D15*
X248480000Y-96250000D03*
%TD*%
D13*
%TO.C,REF\u002A\u002A*%
X259950000Y-91120000D03*
X259950000Y-83620000D03*
%TD*%
%TO.C,REF\u002A\u002A*%
X159560000Y-112940000D03*
X159560000Y-116440000D03*
%TD*%
D15*
%TO.C,REF\u002A\u002A*%
X239630000Y-96260000D03*
D14*
X239630000Y-91180000D03*
X239630000Y-93720000D03*
%TD*%
%TO.C,REF\u002A\u002A*%
X229410000Y-101330000D03*
X229410000Y-98790000D03*
D15*
X229410000Y-103870000D03*
%TD*%
D14*
%TO.C,REF\u002A\u002A*%
X122600000Y-93690000D03*
X122600000Y-96230000D03*
D15*
X122600000Y-91150000D03*
%TD*%
D20*
%TO.C,REF\u002A\u002A*%
X214400000Y-81070000D03*
D21*
X222020000Y-81070000D03*
%TD*%
D13*
%TO.C,REF\u002A\u002A*%
X159520000Y-82150000D03*
X159520000Y-78650000D03*
%TD*%
%TO.C,REF\u002A\u002A*%
X200230000Y-78650000D03*
X200230000Y-82150000D03*
%TD*%
%TO.C,REF\u002A\u002A*%
X174770000Y-78480000D03*
D12*
X174770000Y-86100000D03*
%TD*%
%TO.C,REF\u002A\u002A*%
X121400000Y-98810000D03*
D13*
X113780000Y-98810000D03*
%TD*%
%TO.C,REF\u002A\u002A*%
X154460000Y-106460000D03*
D12*
X162080000Y-106460000D03*
%TD*%
D13*
%TO.C,REF\u002A\u002A*%
X139210000Y-93740000D03*
D12*
X146830000Y-93740000D03*
%TD*%
%TO.C,REF\u002A\u002A*%
X83270000Y-116610000D03*
D13*
X83270000Y-108990000D03*
%TD*%
D11*
%TO.C,REF\u002A\u002A*%
X283610000Y-79100000D03*
%TD*%
D10*
%TO.C,REF\u002A\u002A*%
X285390000Y-124530000D03*
%TD*%
D13*
%TO.C,REF\u002A\u002A*%
X197680000Y-88640000D03*
D12*
X205300000Y-88640000D03*
%TD*%
D13*
%TO.C,REF\u002A\u002A*%
X197700000Y-106480000D03*
D12*
X205320000Y-106480000D03*
%TD*%
D13*
%TO.C,REF\u002A\u002A*%
X113780000Y-101390000D03*
D12*
X121400000Y-101390000D03*
%TD*%
%TO.C,REF\u002A\u002A*%
X205300000Y-91220000D03*
D13*
X197680000Y-91220000D03*
%TD*%
D12*
%TO.C,REF\u002A\u002A*%
X154470000Y-88660000D03*
D13*
X162090000Y-88660000D03*
%TD*%
%TO.C,REF\u002A\u002A*%
X182420000Y-116610000D03*
D12*
X182420000Y-108990000D03*
%TD*%
D11*
%TO.C,REF\u002A\u002A*%
X86630000Y-121990000D03*
%TD*%
D12*
%TO.C,REF\u002A\u002A*%
X162080000Y-103880000D03*
D13*
X154460000Y-103880000D03*
%TD*%
%TO.C,REF\u002A\u002A*%
X162090000Y-91240000D03*
D12*
X154470000Y-91240000D03*
%TD*%
D11*
%TO.C,REF\u002A\u002A*%
X283610000Y-113600000D03*
%TD*%
%TO.C,REF\u002A\u002A*%
X126260000Y-121350000D03*
%TD*%
%TO.C,REF\u002A\u002A*%
X142560000Y-73100000D03*
%TD*%
%TO.C,REF\u002A\u002A*%
X249710000Y-121990000D03*
%TD*%
%TO.C,REF\u002A\u002A*%
X238210000Y-71990000D03*
%TD*%
D12*
%TO.C,REF\u002A\u002A*%
X146830000Y-96320000D03*
D13*
X139210000Y-96320000D03*
%TD*%
%TO.C,REF\u002A\u002A*%
X85850000Y-108990000D03*
D12*
X85850000Y-116610000D03*
%TD*%
D11*
%TO.C,REF\u002A\u002A*%
X18110000Y-79100000D03*
%TD*%
D12*
%TO.C,REF\u002A\u002A*%
X177350000Y-86100000D03*
D13*
X177350000Y-78480000D03*
%TD*%
D12*
%TO.C,REF\u002A\u002A*%
X205320000Y-103900000D03*
D13*
X197700000Y-103900000D03*
%TD*%
D11*
%TO.C,REF\u002A\u002A*%
X192210000Y-71990000D03*
%TD*%
D12*
%TO.C,REF\u002A\u002A*%
X185000000Y-108990000D03*
D13*
X185000000Y-116610000D03*
%TD*%
M02*
