M48
; DRILL file {KiCad (5.1.7)-1} date 05/19/21 12:24:53
; FORMAT={-:-/ absolute / inch / decimal}
; #@! TF.CreationDate,2021-05-19T12:24:53-05:00
; #@! TF.GenerationSoftware,Kicad,Pcbnew,(5.1.7)-1
; #@! TF.FileFunction,Plated,1,2,PTH
FMAT,2
INCH
T1C0.0157
T2C0.0315
T3C0.0394
T4C0.0433
T5C0.0469
T6C0.1929
%
G90
G05
T1
X1.2236Y-3.4882
X1.4236Y-3.4638
X1.5244Y-4.2157
X1.725Y-4.1899
X2.6256Y-3.4902
X2.676Y-3.6866
X2.676Y-3.9902
X2.676Y-4.1398
X2.776Y-3.6902
X2.776Y-3.9894
X2.8272Y-4.1906
X2.9764Y-4.139
X2.9768Y-3.5402
X3.1295Y-4.1394
X3.226Y-3.5386
X3.3764Y-3.5402
X3.3764Y-4.1394
X3.5256Y-3.4921
X3.5768Y-3.687
X3.5768Y-3.9878
X3.6791Y-3.9882
X3.6794Y-3.6892
X3.6795Y-3.5402
X3.728Y-4.1909
X4.6264Y-3.487
X4.8269Y-3.4616
X4.9276Y-4.2146
X5.128Y-3.487
X5.128Y-4.1913
X5.3281Y-3.4637
X5.4282Y-4.2132
X5.6286Y-4.1896
X6.5319Y-3.4909
X6.5803Y-3.6874
X6.5803Y-3.9906
X6.5803Y-4.1394
X6.6776Y-3.9902
X6.678Y-3.6898
X6.7283Y-4.1894
X6.8807Y-3.5398
X6.886Y-4.1372
X7.0299Y-4.1378
X7.1303Y-3.5386
X7.2784Y-3.5339
X7.2811Y-4.1386
X7.424Y-3.4921
X7.4831Y-3.6866
X7.4831Y-3.9894
X7.578Y-3.5394
X7.5803Y-3.6882
X7.5807Y-3.9906
X7.6323Y-4.189
X8.5324Y-3.4863
X8.7315Y-3.4677
X8.8327Y-4.2165
X9.0327Y-4.1689
T2
X10.7854Y-3.4402
X10.7854Y-3.7402
X5.4807Y-3.7921
X5.7807Y-3.7921
X2.1752Y-4.1925
X2.4752Y-4.1925
X2.1772Y-3.4906
X2.4772Y-3.4906
X2.1752Y-4.0909
X2.4752Y-4.0909
X2.1772Y-3.5921
X2.4772Y-3.5921
X5.128Y-3.5894
X5.128Y-3.6894
X5.128Y-3.7894
X3.2783Y-4.2909
X3.2783Y-4.5909
X9.2831Y-3.339
X9.3831Y-3.339
X9.4831Y-3.339
X2.2776Y-3.0906
X2.2776Y-3.3858
X9.789Y-4.1913
X9.789Y-4.4866
X10.2343Y-3.2921
X10.2343Y-3.5874
X10.3354Y-4.2913
X10.6354Y-4.2913
X4.8268Y-3.5886
X4.8268Y-3.6886
X4.8268Y-3.7886
X10.7374Y-4.0972
X10.7374Y-4.235
X8.5319Y-3.5898
X8.5319Y-3.6898
X8.5319Y-3.7898
X6.0815Y-3.5921
X6.3815Y-3.5921
X7.7835Y-4.0906
X8.0835Y-4.0906
X5.8799Y-3.6894
X5.8799Y-3.9894
X5.9799Y-3.6894
X5.9799Y-3.9894
X6.0799Y-3.6894
X6.0799Y-3.9894
X6.1799Y-3.6894
X6.1799Y-3.9894
X6.2799Y-3.6894
X6.2799Y-3.9894
X6.3799Y-3.6894
X6.3799Y-3.9894
X6.4799Y-3.6894
X6.4799Y-3.9894
X4.9276Y-3.8898
X4.9276Y-3.9898
X4.9276Y-4.0898
X6.2803Y-3.0965
X6.2803Y-3.2343
X5.4283Y-3.889
X5.4283Y-3.989
X5.4283Y-4.089
X7.7827Y-3.5913
X8.0827Y-3.5913
X9.3343Y-4.0933
X9.3343Y-4.3886
X6.0811Y-4.1913
X6.3811Y-4.1913
X6.9823Y-3.0898
X6.9823Y-3.3898
X5.4807Y-3.6906
X5.7807Y-3.6906
X6.0811Y-4.0898
X6.3811Y-4.0898
X1.9776Y-3.6906
X1.9776Y-3.9906
X2.0776Y-3.6906
X2.0776Y-3.9906
X2.1776Y-3.6906
X2.1776Y-3.9906
X2.2776Y-3.6906
X2.2776Y-3.9906
X2.3776Y-3.6906
X2.3776Y-3.9906
X2.4776Y-3.6906
X2.4776Y-3.9906
X2.5776Y-3.6906
X2.5776Y-3.9906
X1.5776Y-3.7906
X1.8776Y-3.7906
X5.3283Y-3.589
X5.3283Y-3.689
X5.3283Y-3.789
X7.8831Y-4.4465
X7.8831Y-4.5843
X4.4795Y-3.9917
X4.7795Y-3.9917
X9.2331Y-3.1406
X9.5331Y-3.1406
X10.0335Y-3.589
X10.0335Y-3.689
X10.0335Y-3.789
X3.9803Y-4.4469
X3.9803Y-4.5846
X9.9402Y-3.0516
X10.2402Y-3.0516
X9.4343Y-3.5898
X9.4343Y-3.6898
X9.4343Y-3.7898
X9.9358Y-4.2917
X10.2358Y-4.2917
X3.7752Y-3.6898
X3.7752Y-3.9898
X3.8752Y-3.6898
X3.8752Y-3.9898
X3.9752Y-3.6898
X3.9752Y-3.9898
X4.0752Y-3.6898
X4.0752Y-3.9898
X4.1752Y-3.6898
X4.1752Y-3.9898
X4.2752Y-3.6898
X4.2752Y-3.9898
X4.3752Y-3.6898
X4.3752Y-3.9898
X8.7323Y-3.5894
X8.7323Y-3.6894
X8.7323Y-3.7894
X3.8795Y-3.5929
X4.1795Y-3.5929
X3.8791Y-4.1917
X4.1791Y-4.1917
X3.8795Y-3.4913
X4.1795Y-3.4913
X2.4268Y-3.0965
X2.4268Y-3.2343
X5.6287Y-3.8886
X5.6287Y-3.9886
X5.6287Y-4.0886
X1.5248Y-3.8894
X1.5248Y-3.9894
X1.5248Y-4.0894
X7.7827Y-3.4898
X8.0827Y-3.4898
X3.9787Y-3.0965
X3.9787Y-3.2343
X1.4236Y-3.589
X1.4236Y-3.689
X1.4236Y-3.789
X3.0791Y-3.089
X3.0791Y-3.389
X2.8764Y-3.6909
X2.8764Y-3.9909
X2.9764Y-3.6909
X2.9764Y-3.9909
X3.0764Y-3.6909
X3.0764Y-3.9909
X3.1764Y-3.6909
X3.1764Y-3.9909
X3.2764Y-3.6909
X3.2764Y-3.9909
X3.3764Y-3.6909
X3.3764Y-3.9909
X3.4764Y-3.6909
X3.4764Y-3.9909
X10.3323Y-3.6921
X10.3323Y-3.9921
X10.4323Y-3.6921
X10.4323Y-3.9921
X10.5323Y-3.6921
X10.5323Y-3.9921
X10.6323Y-3.6921
X10.6323Y-3.9921
X9.0823Y-3.7902
X9.1823Y-3.7902
X9.2823Y-3.7902
X7.7835Y-4.1921
X8.0835Y-4.1921
X1.2244Y-3.5894
X1.2244Y-3.6894
X1.2244Y-3.7894
X7.8831Y-3.0965
X7.8831Y-3.2343
X7.1819Y-4.2909
X7.1819Y-4.5909
X9.5846Y-4.1913
X9.5846Y-4.4913
X7.2835Y-4.2909
X7.2835Y-4.5909
X9.8839Y-3.2394
X9.8839Y-3.5394
X3.3799Y-4.2909
X3.3799Y-4.5909
X1.5776Y-3.689
X1.8776Y-3.689
X3.8791Y-4.0902
X4.1791Y-4.0902
X7.6811Y-3.6894
X7.6811Y-3.9894
X7.7811Y-3.6894
X7.7811Y-3.9894
X7.8811Y-3.6894
X7.8811Y-3.9894
X7.9811Y-3.6894
X7.9811Y-3.9894
X8.0811Y-3.6894
X8.0811Y-3.9894
X8.1811Y-3.6894
X8.1811Y-3.9894
X8.2811Y-3.6894
X8.2811Y-3.9894
X8.3835Y-3.8906
X8.6835Y-3.8906
X9.0319Y-3.8894
X9.0319Y-3.9894
X9.0319Y-4.0894
X6.2819Y-4.4465
X6.2819Y-4.5843
X8.3835Y-3.9921
X8.6835Y-3.9921
X9.7827Y-3.5894
X9.7827Y-3.6894
X9.7827Y-3.7894
X5.128Y-3.8894
X5.128Y-3.9894
X5.128Y-4.0894
X10.3378Y-4.1402
X10.6331Y-4.1402
X2.3768Y-4.4469
X2.3768Y-4.5846
X2.9776Y-3.089
X2.9776Y-3.389
X1.7252Y-3.889
X1.7252Y-3.989
X1.7252Y-4.089
X6.7807Y-3.6917
X6.7807Y-3.9917
X6.8807Y-3.6917
X6.8807Y-3.9917
X6.9807Y-3.6917
X6.9807Y-3.9917
X7.0807Y-3.6917
X7.0807Y-3.9917
X7.1807Y-3.6917
X7.1807Y-3.9917
X7.2807Y-3.6917
X7.2807Y-3.9917
X7.3807Y-3.6917
X7.3807Y-3.9917
X6.0815Y-3.4906
X6.3815Y-3.4906
X8.8315Y-3.8898
X8.8315Y-3.9898
X8.8315Y-4.0898
X6.8807Y-3.0898
X6.8807Y-3.3898
X9.1839Y-3.3409
X9.1839Y-3.6409
X4.4795Y-3.8902
X4.7795Y-3.8902
X4.6264Y-3.589
X4.6264Y-3.689
X4.6264Y-3.789
T3
X10.4843Y-3.5433
X10.5937Y-3.5429
T4
X8.4409Y-3.1917
X8.7409Y-3.1917
X9.5823Y-3.6988
X9.5823Y-3.9988
X9.5827Y-3.2933
X9.5827Y-3.5933
X10.1835Y-3.739
X10.1835Y-4.039
T5
X9.1343Y-4.2886
X9.1343Y-4.3886
X9.7343Y-3.2413
X9.7343Y-3.3413
X10.0346Y-3.2413
X10.0346Y-3.3413
T6
X11.1657Y-3.5669
X3.4106Y-4.8028
X0.713Y-4.0197
X3.8634Y-4.8028
X11.1657Y-4.0197
X8.0201Y-4.8028
X8.0201Y-2.8343
X8.4728Y-4.8028
X10.5161Y-4.6693
X2.9579Y-2.8343
X9.8311Y-2.8343
X2.9579Y-4.8028
X6.9079Y-4.7776
X2.0524Y-4.8028
X3.4106Y-2.8343
X4.9709Y-4.7776
X7.5673Y-4.8028
X9.8311Y-4.8028
X7.5673Y-2.8343
X3.8634Y-2.8343
X4.3161Y-2.8343
X9.3783Y-4.8028
X8.9256Y-4.8028
X9.3783Y-2.8343
X2.5051Y-4.8028
X8.4728Y-2.8343
X4.9709Y-2.878
X6.2661Y-2.878
X0.713Y-3.1142
X6.2661Y-4.7776
X5.6126Y-2.878
X5.6126Y-4.7776
X0.713Y-4.4724
X0.713Y-3.5669
X11.1657Y-3.1142
X2.0524Y-2.8343
X10.5161Y-2.9173
X6.9079Y-2.878
X4.3161Y-4.8028
X8.9256Y-2.8343
X2.5051Y-2.8343
X11.1657Y-4.4724
T0
M30
