%TF.GenerationSoftware,KiCad,Pcbnew,(5.1.7)-1*%
%TF.CreationDate,2021-05-19T12:24:51-05:00*%
%TF.ProjectId,FOURSES INTERSEXON,464f5552-5345-4532-9049-4e5445525345,rev?*%
%TF.SameCoordinates,Original*%
%TF.FileFunction,Copper,L2,Bot*%
%TF.FilePolarity,Positive*%
%FSLAX46Y46*%
G04 Gerber Fmt 4.6, Leading zero omitted, Abs format (unit mm)*
G04 Created by KiCad (PCBNEW (5.1.7)-1) date 2021-05-19 12:24:51*
%MOMM*%
%LPD*%
G01*
G04 APERTURE LIST*
%TA.AperFunction,ComponentPad*%
%ADD10C,5.900000*%
%TD*%
%TA.AperFunction,ComponentPad*%
%ADD11O,1.600000X1.600000*%
%TD*%
%TA.AperFunction,ComponentPad*%
%ADD12C,1.600000*%
%TD*%
%TA.AperFunction,ComponentPad*%
%ADD13C,1.500000*%
%TD*%
%TA.AperFunction,ComponentPad*%
%ADD14R,1.500000X1.500000*%
%TD*%
%TA.AperFunction,ComponentPad*%
%ADD15R,1.600000X1.600000*%
%TD*%
%TA.AperFunction,ComponentPad*%
%ADD16O,2.190000X1.740000*%
%TD*%
%TA.AperFunction,ComponentPad*%
%ADD17C,2.000000*%
%TD*%
%TA.AperFunction,ComponentPad*%
%ADD18R,2.000000X2.000000*%
%TD*%
%TA.AperFunction,ComponentPad*%
%ADD19R,2.200000X2.200000*%
%TD*%
%TA.AperFunction,ComponentPad*%
%ADD20O,2.200000X2.200000*%
%TD*%
%TA.AperFunction,ViaPad*%
%ADD21C,0.800000*%
%TD*%
%TA.AperFunction,Conductor*%
%ADD22C,0.635000*%
%TD*%
G04 APERTURE END LIST*
D10*
%TO.P,REF\u002A\u002A,*%
%TO.N,*%
X109630000Y-121990000D03*
%TD*%
%TO.P,REF\u002A\u002A,*%
%TO.N,*%
X63630000Y-71990000D03*
%TD*%
%TO.P,REF\u002A\u002A,*%
%TO.N,*%
X18110000Y-113600000D03*
%TD*%
%TO.P,REF\u002A\u002A,*%
%TO.N,*%
X75130000Y-71990000D03*
%TD*%
%TO.P,REF\u002A\u002A,*%
%TO.N,*%
X175460000Y-73100000D03*
%TD*%
%TO.P,REF\u002A\u002A,*%
%TO.N,*%
X109630000Y-71990000D03*
%TD*%
D11*
%TO.P,REF\u002A\u002A,2*%
%TO.N,N/C*%
X273950000Y-87380000D03*
D12*
%TO.P,REF\u002A\u002A,1*%
X273950000Y-95000000D03*
%TD*%
D10*
%TO.P,REF\u002A\u002A,*%
%TO.N,*%
X192210000Y-121990000D03*
%TD*%
%TO.P,REF\u002A\u002A,*%
%TO.N,*%
X63630000Y-121990000D03*
%TD*%
%TO.P,REF\u002A\u002A,*%
%TO.N,*%
X18110000Y-102100000D03*
%TD*%
%TO.P,REF\u002A\u002A,*%
%TO.N,*%
X98130000Y-121990000D03*
%TD*%
D12*
%TO.P,REF\u002A\u002A,1*%
%TO.N,N/C*%
X243450000Y-106460000D03*
D11*
%TO.P,REF\u002A\u002A,2*%
X243450000Y-114080000D03*
%TD*%
D13*
%TO.P,REF\u002A\u002A,2*%
%TO.N,N/C*%
X130250000Y-101330000D03*
%TO.P,REF\u002A\u002A,3*%
X130250000Y-98790000D03*
D14*
%TO.P,REF\u002A\u002A,1*%
X130250000Y-103870000D03*
%TD*%
D10*
%TO.P,REF\u002A\u002A,*%
%TO.N,*%
X159160000Y-73100000D03*
%TD*%
D14*
%TO.P,REF\u002A\u002A,1*%
%TO.N,N/C*%
X36160000Y-91160000D03*
D13*
%TO.P,REF\u002A\u002A,3*%
X36160000Y-96240000D03*
%TO.P,REF\u002A\u002A,2*%
X36160000Y-93700000D03*
%TD*%
D10*
%TO.P,REF\u002A\u002A,*%
%TO.N,*%
X203710000Y-121990000D03*
%TD*%
D11*
%TO.P,REF\u002A\u002A,2*%
%TO.N,N/C*%
X212940000Y-101400000D03*
D12*
%TO.P,REF\u002A\u002A,1*%
X220560000Y-101400000D03*
%TD*%
D11*
%TO.P,REF\u002A\u002A,2*%
%TO.N,N/C*%
X259990000Y-109010000D03*
D12*
%TO.P,REF\u002A\u002A,1*%
X252370000Y-109010000D03*
%TD*%
%TO.P,REF\u002A\u002A,1*%
%TO.N,N/C*%
X262520000Y-109000000D03*
D11*
%TO.P,REF\u002A\u002A,2*%
X270140000Y-109000000D03*
%TD*%
D10*
%TO.P,REF\u002A\u002A,*%
%TO.N,*%
X18110000Y-90600000D03*
%TD*%
%TO.P,REF\u002A\u002A,*%
%TO.N,*%
X75130000Y-121990000D03*
%TD*%
%TO.P,REF\u002A\u002A,*%
%TO.N,*%
X52130000Y-121990000D03*
%TD*%
%TO.P,REF\u002A\u002A,*%
%TO.N,*%
X159160000Y-121350000D03*
%TD*%
%TO.P,REF\u002A\u002A,*%
%TO.N,*%
X226710000Y-121990000D03*
%TD*%
%TO.P,REF\u002A\u002A,*%
%TO.N,*%
X126260000Y-73100000D03*
%TD*%
%TO.P,REF\u002A\u002A,*%
%TO.N,*%
X52130000Y-71990000D03*
%TD*%
D11*
%TO.P,REF\u002A\u002A,2*%
%TO.N,N/C*%
X233270000Y-84860000D03*
D12*
%TO.P,REF\u002A\u002A,1*%
X233270000Y-92480000D03*
%TD*%
D13*
%TO.P,REF\u002A\u002A,2*%
%TO.N,N/C*%
X31100000Y-93710000D03*
%TO.P,REF\u002A\u002A,3*%
X31100000Y-96250000D03*
D14*
%TO.P,REF\u002A\u002A,1*%
X31100000Y-91170000D03*
%TD*%
D12*
%TO.P,REF\u002A\u002A,1*%
%TO.N,N/C*%
X242140000Y-79770000D03*
D11*
%TO.P,REF\u002A\u002A,2*%
X234520000Y-79770000D03*
%TD*%
%TO.P,REF\u002A\u002A,2*%
%TO.N,N/C*%
X252480000Y-77510000D03*
D12*
%TO.P,REF\u002A\u002A,1*%
X260100000Y-77510000D03*
%TD*%
D10*
%TO.P,REF\u002A\u002A,*%
%TO.N,*%
X238210000Y-121990000D03*
%TD*%
%TO.P,REF\u002A\u002A,*%
%TO.N,*%
X142560000Y-121350000D03*
%TD*%
%TO.P,REF\u002A\u002A,*%
%TO.N,*%
X98130000Y-71990000D03*
%TD*%
%TO.P,REF\u002A\u002A,*%
%TO.N,*%
X86630000Y-71990000D03*
%TD*%
D14*
%TO.P,REF\u002A\u002A,1*%
%TO.N,N/C*%
X117510000Y-91160000D03*
D13*
%TO.P,REF\u002A\u002A,3*%
X117510000Y-96240000D03*
%TO.P,REF\u002A\u002A,2*%
X117510000Y-93700000D03*
%TD*%
D10*
%TO.P,REF\u002A\u002A,*%
%TO.N,*%
X175460000Y-121350000D03*
%TD*%
D14*
%TO.P,REF\u002A\u002A,1*%
%TO.N,N/C*%
X216710000Y-91180000D03*
D13*
%TO.P,REF\u002A\u002A,3*%
X216710000Y-96260000D03*
%TO.P,REF\u002A\u002A,2*%
X216710000Y-93720000D03*
%TD*%
D14*
%TO.P,REF\u002A\u002A,1*%
%TO.N,N/C*%
X125160000Y-103880000D03*
D13*
%TO.P,REF\u002A\u002A,3*%
X125160000Y-98800000D03*
%TO.P,REF\u002A\u002A,2*%
X125160000Y-101340000D03*
%TD*%
D14*
%TO.P,REF\u002A\u002A,1*%
%TO.N,N/C*%
X43820000Y-103860000D03*
D13*
%TO.P,REF\u002A\u002A,3*%
X43820000Y-98780000D03*
%TO.P,REF\u002A\u002A,2*%
X43820000Y-101320000D03*
%TD*%
D10*
%TO.P,REF\u002A\u002A,*%
%TO.N,*%
X215210000Y-121990000D03*
%TD*%
%TO.P,REF\u002A\u002A,*%
%TO.N,*%
X226710000Y-71990000D03*
%TD*%
D11*
%TO.P,REF\u002A\u002A,2*%
%TO.N,N/C*%
X62920000Y-91240000D03*
D12*
%TO.P,REF\u002A\u002A,1*%
X55300000Y-91240000D03*
%TD*%
D14*
%TO.P,REF\u002A\u002A,1*%
%TO.N,N/C*%
X135340000Y-91160000D03*
D13*
%TO.P,REF\u002A\u002A,3*%
X135340000Y-96240000D03*
%TO.P,REF\u002A\u002A,2*%
X135340000Y-93700000D03*
%TD*%
D14*
%TO.P,REF\u002A\u002A,1*%
%TO.N,N/C*%
X142970000Y-103850000D03*
D13*
%TO.P,REF\u002A\u002A,3*%
X142970000Y-98770000D03*
%TO.P,REF\u002A\u002A,2*%
X142970000Y-101310000D03*
%TD*%
%TO.P,REF\u002A\u002A,2*%
%TO.N,N/C*%
X130250000Y-93710000D03*
%TO.P,REF\u002A\u002A,3*%
X130250000Y-96250000D03*
D14*
%TO.P,REF\u002A\u002A,1*%
X130250000Y-91170000D03*
%TD*%
D12*
%TO.P,REF\u002A\u002A,1*%
%TO.N,N/C*%
X220560000Y-98820000D03*
D11*
%TO.P,REF\u002A\u002A,2*%
X212940000Y-98820000D03*
%TD*%
D13*
%TO.P,REF\u002A\u002A,2*%
%TO.N,N/C*%
X137880000Y-101320000D03*
%TO.P,REF\u002A\u002A,3*%
X137880000Y-98780000D03*
D14*
%TO.P,REF\u002A\u002A,1*%
X137880000Y-103860000D03*
%TD*%
%TO.P,REF\u002A\u002A,1*%
%TO.N,N/C*%
X235790000Y-84810000D03*
D13*
%TO.P,REF\u002A\u002A,3*%
X240870000Y-84810000D03*
%TO.P,REF\u002A\u002A,2*%
X238330000Y-84810000D03*
%TD*%
D14*
%TO.P,REF\u002A\u002A,1*%
%TO.N,N/C*%
X224320000Y-103880000D03*
D13*
%TO.P,REF\u002A\u002A,3*%
X224320000Y-98800000D03*
%TO.P,REF\u002A\u002A,2*%
X224320000Y-101340000D03*
%TD*%
D15*
%TO.P,REF\u002A\u002A,1*%
%TO.N,N/C*%
X270060000Y-93780000D03*
D11*
%TO.P,REF\u002A\u002A,5*%
X262440000Y-101400000D03*
%TO.P,REF\u002A\u002A,2*%
X267520000Y-93780000D03*
%TO.P,REF\u002A\u002A,6*%
X264980000Y-101400000D03*
%TO.P,REF\u002A\u002A,3*%
X264980000Y-93780000D03*
%TO.P,REF\u002A\u002A,7*%
X267520000Y-101400000D03*
%TO.P,REF\u002A\u002A,4*%
X262440000Y-93780000D03*
%TO.P,REF\u002A\u002A,8*%
X270060000Y-101400000D03*
%TD*%
D15*
%TO.P,REF\u002A\u002A,1*%
%TO.N,N/C*%
X172230000Y-101390000D03*
D11*
%TO.P,REF\u002A\u002A,8*%
X187470000Y-93770000D03*
%TO.P,REF\u002A\u002A,2*%
X174770000Y-101390000D03*
%TO.P,REF\u002A\u002A,9*%
X184930000Y-93770000D03*
%TO.P,REF\u002A\u002A,3*%
X177310000Y-101390000D03*
%TO.P,REF\u002A\u002A,10*%
X182390000Y-93770000D03*
%TO.P,REF\u002A\u002A,4*%
X179850000Y-101390000D03*
%TO.P,REF\u002A\u002A,11*%
X179850000Y-93770000D03*
%TO.P,REF\u002A\u002A,5*%
X182390000Y-101390000D03*
%TO.P,REF\u002A\u002A,12*%
X177310000Y-93770000D03*
%TO.P,REF\u002A\u002A,6*%
X184930000Y-101390000D03*
%TO.P,REF\u002A\u002A,13*%
X174770000Y-93770000D03*
%TO.P,REF\u002A\u002A,7*%
X187470000Y-101390000D03*
%TO.P,REF\u002A\u002A,14*%
X172230000Y-93770000D03*
%TD*%
D12*
%TO.P,REF\u002A\u002A,1*%
%TO.N,N/C*%
X55300000Y-88660000D03*
D11*
%TO.P,REF\u002A\u002A,2*%
X62920000Y-88660000D03*
%TD*%
%TO.P,REF\u002A\u002A,1*%
%TO.N,N/C*%
%TA.AperFunction,ComponentPad*%
G36*
G01*
X254034999Y-81460000D02*
X255725001Y-81460000D01*
G75*
G02*
X255975000Y-81709999I0J-249999D01*
G01*
X255975000Y-82950001D01*
G75*
G02*
X255725001Y-83200000I-249999J0D01*
G01*
X254034999Y-83200000D01*
G75*
G02*
X253785000Y-82950001I0J249999D01*
G01*
X253785000Y-81709999D01*
G75*
G02*
X254034999Y-81460000I249999J0D01*
G01*
G37*
%TD.AperFunction*%
D16*
%TO.P,REF\u002A\u002A,2*%
X254880000Y-84870000D03*
%TD*%
D11*
%TO.P,REF\u002A\u002A,14*%
%TO.N,N/C*%
X73060000Y-93750000D03*
%TO.P,REF\u002A\u002A,7*%
X88300000Y-101370000D03*
%TO.P,REF\u002A\u002A,13*%
X75600000Y-93750000D03*
%TO.P,REF\u002A\u002A,6*%
X85760000Y-101370000D03*
%TO.P,REF\u002A\u002A,12*%
X78140000Y-93750000D03*
%TO.P,REF\u002A\u002A,5*%
X83220000Y-101370000D03*
%TO.P,REF\u002A\u002A,11*%
X80680000Y-93750000D03*
%TO.P,REF\u002A\u002A,4*%
X80680000Y-101370000D03*
%TO.P,REF\u002A\u002A,10*%
X83220000Y-93750000D03*
%TO.P,REF\u002A\u002A,3*%
X78140000Y-101370000D03*
%TO.P,REF\u002A\u002A,9*%
X85760000Y-93750000D03*
%TO.P,REF\u002A\u002A,2*%
X75600000Y-101370000D03*
%TO.P,REF\u002A\u002A,8*%
X88300000Y-93750000D03*
D15*
%TO.P,REF\u002A\u002A,1*%
X73060000Y-101370000D03*
%TD*%
%TO.P,REF\u002A\u002A,1*%
%TO.N,N/C*%
%TA.AperFunction,ComponentPad*%
G36*
G01*
X232855001Y-112340000D02*
X231164999Y-112340000D01*
G75*
G02*
X230915000Y-112090001I0J249999D01*
G01*
X230915000Y-110849999D01*
G75*
G02*
X231164999Y-110600000I249999J0D01*
G01*
X232855001Y-110600000D01*
G75*
G02*
X233105000Y-110849999I0J-249999D01*
G01*
X233105000Y-112090001D01*
G75*
G02*
X232855001Y-112340000I-249999J0D01*
G01*
G37*
%TD.AperFunction*%
D16*
%TO.P,REF\u002A\u002A,2*%
X232010000Y-108930000D03*
%TD*%
D10*
%TO.P,REF\u002A\u002A,*%
%TO.N,*%
X283610000Y-90600000D03*
%TD*%
D17*
%TO.P,REF\u002A\u002A,*%
%TO.N,*%
X266300000Y-90000000D03*
%TD*%
D12*
%TO.P,REF\u002A\u002A,1*%
%TO.N,N/C*%
X106150000Y-103890000D03*
D11*
%TO.P,REF\u002A\u002A,2*%
X98530000Y-103890000D03*
%TD*%
%TO.P,REF\u002A\u002A,2*%
%TO.N,N/C*%
X98540000Y-88680000D03*
D12*
%TO.P,REF\u002A\u002A,1*%
X106160000Y-88680000D03*
%TD*%
%TO.P,REF\u002A\u002A,1*%
%TO.N,N/C*%
X40070000Y-96280000D03*
D11*
%TO.P,REF\u002A\u002A,2*%
X47690000Y-96280000D03*
%TD*%
D12*
%TO.P,REF\u002A\u002A,1*%
%TO.N,N/C*%
X55250000Y-103910000D03*
D11*
%TO.P,REF\u002A\u002A,2*%
X62870000Y-103910000D03*
%TD*%
%TO.P,REF\u002A\u002A,2*%
%TO.N,N/C*%
X62870000Y-106490000D03*
D12*
%TO.P,REF\u002A\u002A,1*%
X55250000Y-106490000D03*
%TD*%
%TO.P,REF\u002A\u002A,1*%
%TO.N,N/C*%
X78210000Y-86080000D03*
D11*
%TO.P,REF\u002A\u002A,2*%
X78210000Y-78460000D03*
%TD*%
%TO.P,REF\u002A\u002A,2*%
%TO.N,N/C*%
X98530000Y-106470000D03*
D12*
%TO.P,REF\u002A\u002A,1*%
X106150000Y-106470000D03*
%TD*%
D11*
%TO.P,REF\u002A\u002A,14*%
%TO.N,N/C*%
X210340000Y-101330000D03*
%TO.P,REF\u002A\u002A,7*%
X195100000Y-93710000D03*
%TO.P,REF\u002A\u002A,13*%
X207800000Y-101330000D03*
%TO.P,REF\u002A\u002A,6*%
X197640000Y-93710000D03*
%TO.P,REF\u002A\u002A,12*%
X205260000Y-101330000D03*
%TO.P,REF\u002A\u002A,5*%
X200180000Y-93710000D03*
%TO.P,REF\u002A\u002A,11*%
X202720000Y-101330000D03*
%TO.P,REF\u002A\u002A,4*%
X202720000Y-93710000D03*
%TO.P,REF\u002A\u002A,10*%
X200180000Y-101330000D03*
%TO.P,REF\u002A\u002A,3*%
X205260000Y-93710000D03*
%TO.P,REF\u002A\u002A,9*%
X197640000Y-101330000D03*
%TO.P,REF\u002A\u002A,2*%
X207800000Y-93710000D03*
%TO.P,REF\u002A\u002A,8*%
X195100000Y-101330000D03*
D15*
%TO.P,REF\u002A\u002A,1*%
X210340000Y-93710000D03*
%TD*%
D12*
%TO.P,REF\u002A\u002A,1*%
%TO.N,N/C*%
X106160000Y-91260000D03*
D11*
%TO.P,REF\u002A\u002A,2*%
X98540000Y-91260000D03*
%TD*%
%TO.P,REF\u002A\u002A,2*%
%TO.N,N/C*%
X75630000Y-78460000D03*
D12*
%TO.P,REF\u002A\u002A,1*%
X75630000Y-86080000D03*
%TD*%
D11*
%TO.P,REF\u002A\u002A,2*%
%TO.N,N/C*%
X47690000Y-93700000D03*
D12*
%TO.P,REF\u002A\u002A,1*%
X40070000Y-93700000D03*
%TD*%
D18*
%TO.P,REF\u002A\u002A,*%
%TO.N,*%
X269080000Y-89990000D03*
%TD*%
D12*
%TO.P,REF\u002A\u002A,1*%
%TO.N,N/C*%
X61640000Y-82150000D03*
%TO.P,REF\u002A\u002A,2*%
X61640000Y-78650000D03*
%TD*%
D15*
%TO.P,REF\u002A\u002A,1*%
%TO.N,N/C*%
X65470000Y-93740000D03*
D11*
%TO.P,REF\u002A\u002A,8*%
X50230000Y-101360000D03*
%TO.P,REF\u002A\u002A,2*%
X62930000Y-93740000D03*
%TO.P,REF\u002A\u002A,9*%
X52770000Y-101360000D03*
%TO.P,REF\u002A\u002A,3*%
X60390000Y-93740000D03*
%TO.P,REF\u002A\u002A,10*%
X55310000Y-101360000D03*
%TO.P,REF\u002A\u002A,4*%
X57850000Y-93740000D03*
%TO.P,REF\u002A\u002A,11*%
X57850000Y-101360000D03*
%TO.P,REF\u002A\u002A,5*%
X55310000Y-93740000D03*
%TO.P,REF\u002A\u002A,12*%
X60390000Y-101360000D03*
%TO.P,REF\u002A\u002A,6*%
X52770000Y-93740000D03*
%TO.P,REF\u002A\u002A,13*%
X62930000Y-101360000D03*
%TO.P,REF\u002A\u002A,7*%
X50230000Y-93740000D03*
%TO.P,REF\u002A\u002A,14*%
X65470000Y-101360000D03*
%TD*%
D15*
%TO.P,REF\u002A\u002A,1*%
%TO.N,N/C*%
X164590000Y-93710000D03*
D11*
%TO.P,REF\u002A\u002A,8*%
X149350000Y-101330000D03*
%TO.P,REF\u002A\u002A,2*%
X162050000Y-93710000D03*
%TO.P,REF\u002A\u002A,9*%
X151890000Y-101330000D03*
%TO.P,REF\u002A\u002A,3*%
X159510000Y-93710000D03*
%TO.P,REF\u002A\u002A,10*%
X154430000Y-101330000D03*
%TO.P,REF\u002A\u002A,4*%
X156970000Y-93710000D03*
%TO.P,REF\u002A\u002A,11*%
X156970000Y-101330000D03*
%TO.P,REF\u002A\u002A,5*%
X154430000Y-93710000D03*
%TO.P,REF\u002A\u002A,12*%
X159510000Y-101330000D03*
%TO.P,REF\u002A\u002A,6*%
X151890000Y-93710000D03*
%TO.P,REF\u002A\u002A,13*%
X162050000Y-101330000D03*
%TO.P,REF\u002A\u002A,7*%
X149350000Y-93710000D03*
%TO.P,REF\u002A\u002A,14*%
X164590000Y-101330000D03*
%TD*%
D12*
%TO.P,REF\u002A\u002A,2*%
%TO.N,N/C*%
X272730000Y-104070000D03*
%TO.P,REF\u002A\u002A,1*%
X272730000Y-107570000D03*
%TD*%
D10*
%TO.P,REF\u002A\u002A,*%
%TO.N,*%
X267110000Y-74100000D03*
%TD*%
D16*
%TO.P,REF\u002A\u002A,2*%
%TO.N,N/C*%
X247250000Y-84870000D03*
%TO.P,REF\u002A\u002A,1*%
%TA.AperFunction,ComponentPad*%
G36*
G01*
X246404999Y-81460000D02*
X248095001Y-81460000D01*
G75*
G02*
X248345000Y-81709999I0J-249999D01*
G01*
X248345000Y-82950001D01*
G75*
G02*
X248095001Y-83200000I-249999J0D01*
G01*
X246404999Y-83200000D01*
G75*
G02*
X246155000Y-82950001I0J249999D01*
G01*
X246155000Y-81709999D01*
G75*
G02*
X246404999Y-81460000I249999J0D01*
G01*
G37*
%TD.AperFunction*%
%TD*%
D12*
%TO.P,REF\u002A\u002A,2*%
%TO.N,N/C*%
X60370000Y-112950000D03*
%TO.P,REF\u002A\u002A,1*%
X60370000Y-116450000D03*
%TD*%
%TO.P,REF\u002A\u002A,1*%
%TO.N,N/C*%
X251050000Y-89900000D03*
D11*
%TO.P,REF\u002A\u002A,2*%
X251050000Y-82280000D03*
%TD*%
D13*
%TO.P,REF\u002A\u002A,2*%
%TO.N,N/C*%
X221800000Y-93710000D03*
%TO.P,REF\u002A\u002A,3*%
X221800000Y-96250000D03*
D14*
%TO.P,REF\u002A\u002A,1*%
X221800000Y-91170000D03*
%TD*%
D11*
%TO.P,REF\u002A\u002A,14*%
%TO.N,N/C*%
X111130000Y-101340000D03*
%TO.P,REF\u002A\u002A,7*%
X95890000Y-93720000D03*
%TO.P,REF\u002A\u002A,13*%
X108590000Y-101340000D03*
%TO.P,REF\u002A\u002A,6*%
X98430000Y-93720000D03*
%TO.P,REF\u002A\u002A,12*%
X106050000Y-101340000D03*
%TO.P,REF\u002A\u002A,5*%
X100970000Y-93720000D03*
%TO.P,REF\u002A\u002A,11*%
X103510000Y-101340000D03*
%TO.P,REF\u002A\u002A,4*%
X103510000Y-93720000D03*
%TO.P,REF\u002A\u002A,10*%
X100970000Y-101340000D03*
%TO.P,REF\u002A\u002A,3*%
X106050000Y-93720000D03*
%TO.P,REF\u002A\u002A,9*%
X98430000Y-101340000D03*
%TO.P,REF\u002A\u002A,2*%
X108590000Y-93720000D03*
%TO.P,REF\u002A\u002A,8*%
X95890000Y-101340000D03*
D15*
%TO.P,REF\u002A\u002A,1*%
X111130000Y-93720000D03*
%TD*%
D10*
%TO.P,REF\u002A\u002A,*%
%TO.N,*%
X215210000Y-71990000D03*
%TD*%
%TO.P,REF\u002A\u002A,*%
%TO.N,*%
X283610000Y-102100000D03*
%TD*%
D19*
%TO.P,REF\u002A\u002A,1*%
%TO.N,N/C*%
X243390000Y-101570000D03*
D20*
%TO.P,REF\u002A\u002A,2*%
X243390000Y-93950000D03*
%TD*%
%TO.P,REF\u002A\u002A,2*%
%TO.N,N/C*%
X243400000Y-83650000D03*
D19*
%TO.P,REF\u002A\u002A,1*%
X243400000Y-91270000D03*
%TD*%
D10*
%TO.P,REF\u002A\u002A,*%
%TO.N,*%
X267110000Y-118600000D03*
%TD*%
%TO.P,REF\u002A\u002A,*%
%TO.N,*%
X249710000Y-71990000D03*
%TD*%
D12*
%TO.P,REF\u002A\u002A,2*%
%TO.N,N/C*%
X101060000Y-78650000D03*
%TO.P,REF\u002A\u002A,1*%
X101060000Y-82150000D03*
%TD*%
D10*
%TO.P,REF\u002A\u002A,*%
%TO.N,*%
X203710000Y-71990000D03*
%TD*%
D14*
%TO.P,REF\u002A\u002A,1*%
%TO.N,N/C*%
X254850000Y-96240000D03*
D13*
%TO.P,REF\u002A\u002A,3*%
X254850000Y-91160000D03*
%TO.P,REF\u002A\u002A,2*%
X254850000Y-93700000D03*
%TD*%
D12*
%TO.P,REF\u002A\u002A,1*%
%TO.N,N/C*%
X57850000Y-78500000D03*
%TO.P,REF\u002A\u002A,2*%
X57850000Y-86000000D03*
%TD*%
D13*
%TO.P,REF\u002A\u002A,2*%
%TO.N,N/C*%
X38730000Y-101330000D03*
%TO.P,REF\u002A\u002A,3*%
X38730000Y-98790000D03*
D14*
%TO.P,REF\u002A\u002A,1*%
X38730000Y-103870000D03*
%TD*%
D20*
%TO.P,REF\u002A\u002A,2*%
%TO.N,N/C*%
X258660000Y-102590000D03*
D19*
%TO.P,REF\u002A\u002A,1*%
X258660000Y-94970000D03*
%TD*%
D12*
%TO.P,REF\u002A\u002A,2*%
%TO.N,N/C*%
X262580000Y-105160000D03*
%TO.P,REF\u002A\u002A,1*%
X270080000Y-105160000D03*
%TD*%
%TO.P,REF\u002A\u002A,1*%
%TO.N,N/C*%
X101100000Y-116450000D03*
%TO.P,REF\u002A\u002A,2*%
X101100000Y-112950000D03*
%TD*%
D13*
%TO.P,REF\u002A\u002A,2*%
%TO.N,N/C*%
X233230000Y-96270000D03*
%TO.P,REF\u002A\u002A,3*%
X230690000Y-96270000D03*
D14*
%TO.P,REF\u002A\u002A,1*%
X235770000Y-96270000D03*
%TD*%
D12*
%TO.P,REF\u002A\u002A,1*%
%TO.N,N/C*%
X237090000Y-111470000D03*
%TO.P,REF\u002A\u002A,2*%
X237090000Y-103970000D03*
%TD*%
%TO.P,REF\u002A\u002A,1*%
%TO.N,N/C*%
X200230000Y-116440000D03*
%TO.P,REF\u002A\u002A,2*%
X200230000Y-112940000D03*
%TD*%
%TO.P,REF\u002A\u002A,2*%
%TO.N,N/C*%
X248640000Y-106460000D03*
%TO.P,REF\u002A\u002A,1*%
X248640000Y-113960000D03*
%TD*%
D13*
%TO.P,REF\u002A\u002A,2*%
%TO.N,N/C*%
X248480000Y-93710000D03*
%TO.P,REF\u002A\u002A,3*%
X248480000Y-91170000D03*
D14*
%TO.P,REF\u002A\u002A,1*%
X248480000Y-96250000D03*
%TD*%
D12*
%TO.P,REF\u002A\u002A,1*%
%TO.N,N/C*%
X259950000Y-91120000D03*
%TO.P,REF\u002A\u002A,2*%
X259950000Y-83620000D03*
%TD*%
%TO.P,REF\u002A\u002A,2*%
%TO.N,N/C*%
X159560000Y-112940000D03*
%TO.P,REF\u002A\u002A,1*%
X159560000Y-116440000D03*
%TD*%
D14*
%TO.P,REF\u002A\u002A,1*%
%TO.N,N/C*%
X239630000Y-96260000D03*
D13*
%TO.P,REF\u002A\u002A,3*%
X239630000Y-91180000D03*
%TO.P,REF\u002A\u002A,2*%
X239630000Y-93720000D03*
%TD*%
%TO.P,REF\u002A\u002A,2*%
%TO.N,N/C*%
X229410000Y-101330000D03*
%TO.P,REF\u002A\u002A,3*%
X229410000Y-98790000D03*
D14*
%TO.P,REF\u002A\u002A,1*%
X229410000Y-103870000D03*
%TD*%
D13*
%TO.P,REF\u002A\u002A,2*%
%TO.N,N/C*%
X122600000Y-93690000D03*
%TO.P,REF\u002A\u002A,3*%
X122600000Y-96230000D03*
D14*
%TO.P,REF\u002A\u002A,1*%
X122600000Y-91150000D03*
%TD*%
D19*
%TO.P,REF\u002A\u002A,1*%
%TO.N,N/C*%
X214400000Y-81070000D03*
D20*
%TO.P,REF\u002A\u002A,2*%
X222020000Y-81070000D03*
%TD*%
D12*
%TO.P,REF\u002A\u002A,1*%
%TO.N,N/C*%
X159520000Y-82150000D03*
%TO.P,REF\u002A\u002A,2*%
X159520000Y-78650000D03*
%TD*%
%TO.P,REF\u002A\u002A,2*%
%TO.N,N/C*%
X200230000Y-78650000D03*
%TO.P,REF\u002A\u002A,1*%
X200230000Y-82150000D03*
%TD*%
%TO.P,REF\u002A\u002A,1*%
%TO.N,N/C*%
X174770000Y-78480000D03*
D11*
%TO.P,REF\u002A\u002A,2*%
X174770000Y-86100000D03*
%TD*%
%TO.P,REF\u002A\u002A,2*%
%TO.N,N/C*%
X121400000Y-98810000D03*
D12*
%TO.P,REF\u002A\u002A,1*%
X113780000Y-98810000D03*
%TD*%
%TO.P,REF\u002A\u002A,1*%
%TO.N,N/C*%
X154460000Y-106460000D03*
D11*
%TO.P,REF\u002A\u002A,2*%
X162080000Y-106460000D03*
%TD*%
D12*
%TO.P,REF\u002A\u002A,1*%
%TO.N,N/C*%
X139210000Y-93740000D03*
D11*
%TO.P,REF\u002A\u002A,2*%
X146830000Y-93740000D03*
%TD*%
%TO.P,REF\u002A\u002A,2*%
%TO.N,N/C*%
X83270000Y-116610000D03*
D12*
%TO.P,REF\u002A\u002A,1*%
X83270000Y-108990000D03*
%TD*%
D10*
%TO.P,REF\u002A\u002A,*%
%TO.N,*%
X283610000Y-79100000D03*
%TD*%
D12*
%TO.P,REF\u002A\u002A,1*%
%TO.N,N/C*%
X197680000Y-88640000D03*
D11*
%TO.P,REF\u002A\u002A,2*%
X205300000Y-88640000D03*
%TD*%
D12*
%TO.P,REF\u002A\u002A,1*%
%TO.N,N/C*%
X197700000Y-106480000D03*
D11*
%TO.P,REF\u002A\u002A,2*%
X205320000Y-106480000D03*
%TD*%
D12*
%TO.P,REF\u002A\u002A,1*%
%TO.N,N/C*%
X113780000Y-101390000D03*
D11*
%TO.P,REF\u002A\u002A,2*%
X121400000Y-101390000D03*
%TD*%
%TO.P,REF\u002A\u002A,2*%
%TO.N,N/C*%
X205300000Y-91220000D03*
D12*
%TO.P,REF\u002A\u002A,1*%
X197680000Y-91220000D03*
%TD*%
D11*
%TO.P,REF\u002A\u002A,2*%
%TO.N,N/C*%
X154470000Y-88660000D03*
D12*
%TO.P,REF\u002A\u002A,1*%
X162090000Y-88660000D03*
%TD*%
%TO.P,REF\u002A\u002A,1*%
%TO.N,N/C*%
X182420000Y-116610000D03*
D11*
%TO.P,REF\u002A\u002A,2*%
X182420000Y-108990000D03*
%TD*%
D10*
%TO.P,REF\u002A\u002A,*%
%TO.N,*%
X86630000Y-121990000D03*
%TD*%
D11*
%TO.P,REF\u002A\u002A,2*%
%TO.N,N/C*%
X162080000Y-103880000D03*
D12*
%TO.P,REF\u002A\u002A,1*%
X154460000Y-103880000D03*
%TD*%
%TO.P,REF\u002A\u002A,1*%
%TO.N,N/C*%
X162090000Y-91240000D03*
D11*
%TO.P,REF\u002A\u002A,2*%
X154470000Y-91240000D03*
%TD*%
D10*
%TO.P,REF\u002A\u002A,*%
%TO.N,*%
X283610000Y-113600000D03*
%TD*%
%TO.P,REF\u002A\u002A,*%
%TO.N,*%
X126260000Y-121350000D03*
%TD*%
%TO.P,REF\u002A\u002A,*%
%TO.N,*%
X142560000Y-73100000D03*
%TD*%
%TO.P,REF\u002A\u002A,*%
%TO.N,*%
X249710000Y-121990000D03*
%TD*%
%TO.P,REF\u002A\u002A,*%
%TO.N,*%
X238210000Y-71990000D03*
%TD*%
D11*
%TO.P,REF\u002A\u002A,2*%
%TO.N,N/C*%
X146830000Y-96320000D03*
D12*
%TO.P,REF\u002A\u002A,1*%
X139210000Y-96320000D03*
%TD*%
%TO.P,REF\u002A\u002A,1*%
%TO.N,N/C*%
X85850000Y-108990000D03*
D11*
%TO.P,REF\u002A\u002A,2*%
X85850000Y-116610000D03*
%TD*%
D10*
%TO.P,REF\u002A\u002A,*%
%TO.N,*%
X18110000Y-79100000D03*
%TD*%
D11*
%TO.P,REF\u002A\u002A,2*%
%TO.N,N/C*%
X177350000Y-86100000D03*
D12*
%TO.P,REF\u002A\u002A,1*%
X177350000Y-78480000D03*
%TD*%
D11*
%TO.P,REF\u002A\u002A,2*%
%TO.N,N/C*%
X205320000Y-103900000D03*
D12*
%TO.P,REF\u002A\u002A,1*%
X197700000Y-103900000D03*
%TD*%
D10*
%TO.P,REF\u002A\u002A,*%
%TO.N,*%
X192210000Y-71990000D03*
%TD*%
D11*
%TO.P,REF\u002A\u002A,2*%
%TO.N,N/C*%
X185000000Y-108990000D03*
D12*
%TO.P,REF\u002A\u002A,1*%
X185000000Y-116610000D03*
%TD*%
D21*
%TO.N,*%
X70510000Y-101330000D03*
X36160000Y-87980000D03*
X38720000Y-107080000D03*
X169610000Y-101350000D03*
X122603410Y-87923410D03*
X224350000Y-107100000D03*
X193860000Y-106400000D03*
X70510000Y-93730000D03*
X188570000Y-88700000D03*
X90850000Y-93650000D03*
X190070000Y-93640000D03*
X130250000Y-88570000D03*
X67970000Y-93640000D03*
X184940000Y-105120000D03*
X31080000Y-88600000D03*
X117510000Y-88570000D03*
X93450000Y-101300000D03*
X184871912Y-89761912D03*
X216722138Y-88552138D03*
X94690000Y-106450000D03*
X75600000Y-105130000D03*
X137875420Y-107015420D03*
X167140000Y-101360000D03*
X66690000Y-88650000D03*
X142966318Y-106416318D03*
X192550000Y-101360000D03*
X43814601Y-106424601D03*
X192540000Y-93680000D03*
X93455634Y-93705634D03*
X93458441Y-89921559D03*
X125160000Y-107050000D03*
X130250000Y-106460000D03*
X178560000Y-105100000D03*
X181110000Y-89880000D03*
X71810000Y-106440000D03*
X75610000Y-89920000D03*
X79490000Y-105140000D03*
X165910000Y-88670000D03*
X167140000Y-93660000D03*
X221780000Y-88080000D03*
X85760000Y-105140000D03*
X170900000Y-106410000D03*
X167140000Y-105140000D03*
X192480000Y-89900000D03*
X67970000Y-105150000D03*
X229430000Y-105890000D03*
X174904322Y-105085678D03*
X89550000Y-88700000D03*
X81940000Y-89880000D03*
X67970000Y-101350000D03*
X90850000Y-101290000D03*
X85760000Y-89920000D03*
X135332512Y-87977488D03*
X190070000Y-101330000D03*
X169620000Y-93720000D03*
X174770000Y-89910000D03*
%TD*%
D22*
%TO.N,*%
X36160000Y-85560000D02*
X18110000Y-79100000D01*
X261050000Y-86930000D02*
X283610000Y-79100000D01*
X130250000Y-81670000D02*
X159160000Y-73100000D01*
X251310000Y-88110000D02*
X264630000Y-88300000D01*
X169620000Y-93720000D02*
X169620000Y-101340000D01*
X122610000Y-81690000D02*
X142560000Y-73100000D01*
X271170000Y-88320000D02*
X278460000Y-91660000D01*
X243030000Y-86210000D02*
X261050000Y-86930000D01*
X278460000Y-91660000D02*
X283610000Y-90600000D01*
X135320000Y-82660000D02*
X163560000Y-79890000D01*
X243000000Y-87920000D02*
X251310000Y-88110000D01*
X216730000Y-86850000D02*
X243030000Y-86210000D01*
X43810000Y-108610000D02*
X18110000Y-113600000D01*
X264630000Y-88300000D02*
X271170000Y-88320000D01*
X221780000Y-88080000D02*
X243000000Y-87920000D01*
X163560000Y-79890000D02*
X175460000Y-73100000D01*
X18680000Y-91170000D02*
X18110000Y-90600000D01*
X117510000Y-81850000D02*
X126260000Y-73100000D01*
X19880000Y-103870000D02*
X18110000Y-102100000D01*
X190070000Y-101330000D02*
X190070000Y-93640000D01*
X70510000Y-93730000D02*
X70510000Y-101330000D01*
X169620000Y-101340000D02*
X169610000Y-101350000D01*
X75610000Y-89920000D02*
X63630000Y-71990000D01*
X61330000Y-114440000D02*
X55270336Y-115859664D01*
X85760000Y-105140000D02*
X98130000Y-121990000D01*
X90850000Y-101290000D02*
X90850000Y-93650000D01*
X67970000Y-107720000D02*
X61330000Y-114440000D01*
X55270336Y-115859664D02*
X52130000Y-121990000D01*
X226710000Y-71990000D02*
X212030000Y-77850000D01*
X238210000Y-71990000D02*
X227990000Y-77070000D01*
X227990000Y-77070000D02*
X212620000Y-79470000D01*
X75600000Y-86110000D02*
X75630000Y-86080000D01*
X189530000Y-79850000D02*
X203710000Y-71990000D01*
X85760000Y-108900000D02*
X85850000Y-108990000D01*
X167140000Y-93660000D02*
X167140000Y-101360000D01*
X212030000Y-77850000D02*
X199590000Y-80340000D01*
X212620000Y-79470000D02*
X188570000Y-88700000D01*
X199590000Y-80340000D02*
X184850000Y-88250000D01*
X184930000Y-108920000D02*
X185000000Y-108990000D01*
X174770000Y-89910000D02*
X189530000Y-79850000D01*
X93460000Y-87820000D02*
X109630000Y-71990000D01*
X75600000Y-121520000D02*
X75130000Y-121990000D01*
X71810000Y-106440000D02*
X69140000Y-115730000D01*
X93450000Y-101300000D02*
X93455634Y-93705634D01*
X91700000Y-78670000D02*
X98130000Y-71990000D01*
X181660000Y-118370000D02*
X192210000Y-121990000D01*
X223210000Y-113260000D02*
X243970000Y-118700000D01*
X36160000Y-87980000D02*
X36160000Y-85560000D01*
X239040000Y-106180000D02*
X241030000Y-104820000D01*
X216722138Y-88552138D02*
X216730000Y-86850000D01*
X229410000Y-103870000D02*
X229400000Y-103880000D01*
X69140000Y-115730000D02*
X63630000Y-121990000D01*
X167140000Y-111350000D02*
X181660000Y-118370000D01*
X135332512Y-87977488D02*
X135320000Y-82660000D01*
X199600000Y-118490000D02*
X205930000Y-118370000D01*
X167140000Y-105140000D02*
X167140000Y-111350000D01*
X89550000Y-88700000D02*
X91700000Y-78670000D01*
X94690000Y-106450000D02*
X99630000Y-113820000D01*
X258790000Y-110770000D02*
X273930000Y-110750000D01*
X199010000Y-114470000D02*
X222790000Y-119900000D01*
X251390000Y-112470000D02*
X272500000Y-112480000D01*
X222790000Y-119900000D02*
X226710000Y-121990000D01*
X221780000Y-88080000D02*
X221780000Y-88080000D01*
X177180000Y-81410000D02*
X192210000Y-71990000D01*
X99630000Y-113820000D02*
X102890000Y-115330000D01*
X81940000Y-89880000D02*
X83220000Y-80080000D01*
X192480000Y-89900000D02*
X192480000Y-88760000D01*
X178560000Y-105100000D02*
X178660000Y-110150000D01*
X239010000Y-107510000D02*
X251390000Y-112470000D01*
X188710000Y-109160000D02*
X222720000Y-115070000D01*
X165910000Y-88670000D02*
X177180000Y-81410000D01*
X221460000Y-83230000D02*
X249710000Y-71990000D01*
X241030000Y-104820000D02*
X250150000Y-104700000D01*
X224350000Y-107100000D02*
X239010000Y-107510000D01*
X43814601Y-106424601D02*
X43810000Y-108610000D01*
X229430000Y-105890000D02*
X239040000Y-106180000D01*
X170900000Y-106410000D02*
X173800000Y-112570000D01*
X165080000Y-107430000D02*
X165080000Y-107430000D01*
X38720000Y-107080000D02*
X18110000Y-102100000D01*
X178660000Y-110150000D02*
X199010000Y-114470000D01*
X85760000Y-89920000D02*
X85760000Y-72860000D01*
X67970000Y-105150000D02*
X67970000Y-107720000D01*
X194440000Y-108210000D02*
X223210000Y-113260000D01*
X191240000Y-114610000D02*
X199600000Y-118490000D01*
X222720000Y-115070000D02*
X238210000Y-121990000D01*
X192480000Y-89900000D02*
X192480000Y-89900000D01*
X75600000Y-105130000D02*
X75600000Y-121520000D01*
X192480000Y-88760000D02*
X209240000Y-83230000D01*
X31080000Y-88600000D02*
X18110000Y-90600000D01*
X184850000Y-88250000D02*
X184871912Y-89761912D01*
X83220000Y-80080000D02*
X75130000Y-71990000D01*
X79490000Y-116030000D02*
X86630000Y-121990000D01*
X250150000Y-104700000D02*
X258790000Y-110770000D01*
X174904322Y-105085678D02*
X175590000Y-110950000D01*
X66690000Y-88650000D02*
X64050000Y-87390000D01*
X205930000Y-118370000D02*
X215210000Y-121990000D01*
X186930000Y-115060000D02*
X203710000Y-121990000D01*
X130250000Y-88570000D02*
X130250000Y-81670000D01*
X193860000Y-106400000D02*
X194440000Y-108210000D01*
X79490000Y-105140000D02*
X79490000Y-116030000D01*
X52130000Y-76320000D02*
X52130000Y-71990000D01*
X272500000Y-112480000D02*
X283610000Y-113600000D01*
X243970000Y-118700000D02*
X249710000Y-121990000D01*
X192550000Y-101360000D02*
X192540000Y-93680000D01*
X175590000Y-110950000D02*
X191240000Y-114610000D01*
X181110000Y-89880000D02*
X182520000Y-87000000D01*
X209240000Y-83230000D02*
X221460000Y-83230000D01*
X130250000Y-106460000D02*
X130250000Y-110790000D01*
X122603410Y-87923410D02*
X122610000Y-81690000D01*
X125160000Y-107050000D02*
X126260000Y-121350000D01*
X273930000Y-110750000D02*
X283610000Y-102100000D01*
X93458441Y-89921559D02*
X93460000Y-87820000D01*
X67970000Y-93640000D02*
X67970000Y-101350000D01*
X117510000Y-88570000D02*
X117510000Y-81850000D01*
X85760000Y-89920000D02*
X85760000Y-89920000D01*
X142960000Y-110820000D02*
X163970000Y-115730000D01*
X137875420Y-107015420D02*
X137870000Y-110750000D01*
X184940000Y-105120000D02*
X188710000Y-109160000D01*
X130250000Y-110790000D02*
X142560000Y-121350000D01*
X163970000Y-115730000D02*
X175460000Y-121350000D01*
X182520000Y-87000000D02*
X199100000Y-77140000D01*
X85760000Y-72860000D02*
X86630000Y-71990000D01*
X102890000Y-115330000D02*
X109630000Y-121990000D01*
X64050000Y-87390000D02*
X52130000Y-76320000D01*
X173800000Y-112570000D02*
X186930000Y-115060000D01*
X199100000Y-77140000D02*
X215210000Y-71990000D01*
X142966318Y-106416318D02*
X142960000Y-110820000D01*
X137870000Y-110750000D02*
X159160000Y-121350000D01*
%TD*%
M02*
