%TF.GenerationSoftware,KiCad,Pcbnew,(5.1.7)-1*%
%TF.CreationDate,2021-06-08T12:08:24-05:00*%
%TF.ProjectId,FOURSES TARPTERGE,464f5552-5345-4532-9054-415250544552,rev?*%
%TF.SameCoordinates,Original*%
%TF.FileFunction,Legend,Bot*%
%TF.FilePolarity,Positive*%
%FSLAX46Y46*%
G04 Gerber Fmt 4.6, Leading zero omitted, Abs format (unit mm)*
G04 Created by KiCad (PCBNEW (5.1.7)-1) date 2021-06-08 12:08:24*
%MOMM*%
%LPD*%
G01*
G04 APERTURE LIST*
%ADD10C,0.300000*%
%ADD11C,0.010000*%
G04 APERTURE END LIST*
D10*
X392112857Y-131888571D02*
X392112857Y-130388571D01*
X391541428Y-130388571D01*
X391398571Y-130460000D01*
X391327142Y-130531428D01*
X391255714Y-130674285D01*
X391255714Y-130888571D01*
X391327142Y-131031428D01*
X391398571Y-131102857D01*
X391541428Y-131174285D01*
X392112857Y-131174285D01*
X389755714Y-131745714D02*
X389827142Y-131817142D01*
X390041428Y-131888571D01*
X390184285Y-131888571D01*
X390398571Y-131817142D01*
X390541428Y-131674285D01*
X390612857Y-131531428D01*
X390684285Y-131245714D01*
X390684285Y-131031428D01*
X390612857Y-130745714D01*
X390541428Y-130602857D01*
X390398571Y-130460000D01*
X390184285Y-130388571D01*
X390041428Y-130388571D01*
X389827142Y-130460000D01*
X389755714Y-130531428D01*
X388612857Y-131102857D02*
X388398571Y-131174285D01*
X388327142Y-131245714D01*
X388255714Y-131388571D01*
X388255714Y-131602857D01*
X388327142Y-131745714D01*
X388398571Y-131817142D01*
X388541428Y-131888571D01*
X389112857Y-131888571D01*
X389112857Y-130388571D01*
X388612857Y-130388571D01*
X388470000Y-130460000D01*
X388398571Y-130531428D01*
X388327142Y-130674285D01*
X388327142Y-130817142D01*
X388398571Y-130960000D01*
X388470000Y-131031428D01*
X388612857Y-131102857D01*
X389112857Y-131102857D01*
X385970000Y-131102857D02*
X385755714Y-131174285D01*
X385684285Y-131245714D01*
X385612857Y-131388571D01*
X385612857Y-131602857D01*
X385684285Y-131745714D01*
X385755714Y-131817142D01*
X385898571Y-131888571D01*
X386470000Y-131888571D01*
X386470000Y-130388571D01*
X385970000Y-130388571D01*
X385827142Y-130460000D01*
X385755714Y-130531428D01*
X385684285Y-130674285D01*
X385684285Y-130817142D01*
X385755714Y-130960000D01*
X385827142Y-131031428D01*
X385970000Y-131102857D01*
X386470000Y-131102857D01*
X385112857Y-130888571D02*
X384755714Y-131888571D01*
X384398571Y-130888571D02*
X384755714Y-131888571D01*
X384898571Y-132245714D01*
X384970000Y-132317142D01*
X385112857Y-132388571D01*
X383827142Y-131745714D02*
X383755714Y-131817142D01*
X383827142Y-131888571D01*
X383898571Y-131817142D01*
X383827142Y-131745714D01*
X383827142Y-131888571D01*
X383827142Y-130960000D02*
X383755714Y-131031428D01*
X383827142Y-131102857D01*
X383898571Y-131031428D01*
X383827142Y-130960000D01*
X383827142Y-131102857D01*
D11*
%TO.C,G\u002A\u002A\u002A*%
G36*
X369852635Y-128746079D02*
G01*
X369767746Y-128752711D01*
X369697363Y-128768586D01*
X369623323Y-128797650D01*
X369537961Y-128838635D01*
X369332715Y-128967843D01*
X369157798Y-129134120D01*
X369018601Y-129330614D01*
X368920514Y-129550471D01*
X368889414Y-129663202D01*
X368867071Y-129758548D01*
X368848540Y-129814518D01*
X368827471Y-129841562D01*
X368797512Y-129850129D01*
X368775406Y-129850751D01*
X368704145Y-129872072D01*
X368655195Y-129929661D01*
X368628833Y-130013958D01*
X368625334Y-130115403D01*
X368644973Y-130224436D01*
X368688027Y-130331497D01*
X368754771Y-130427025D01*
X368758661Y-130431248D01*
X368824468Y-130488502D01*
X368898222Y-130533757D01*
X368962641Y-130557418D01*
X368986895Y-130557964D01*
X369018215Y-130571789D01*
X369073767Y-130614403D01*
X369143024Y-130677481D01*
X369163157Y-130697392D01*
X369292247Y-130809576D01*
X369430154Y-130899713D01*
X369468262Y-130919160D01*
X369628269Y-130994855D01*
X369531252Y-130994875D01*
X369453564Y-130988081D01*
X369390921Y-130971417D01*
X369385110Y-130968605D01*
X369337473Y-130956222D01*
X369254751Y-130946761D01*
X369152695Y-130941857D01*
X369124677Y-130941530D01*
X368913368Y-130940745D01*
X368914862Y-130822356D01*
X368914380Y-130808922D01*
X368878219Y-130808922D01*
X368865515Y-130857764D01*
X368835059Y-130917416D01*
X368798329Y-130969222D01*
X368766806Y-130994525D01*
X368763783Y-130994895D01*
X368768522Y-130973059D01*
X368784846Y-130916982D01*
X368799997Y-130868108D01*
X368830745Y-130785280D01*
X368855535Y-130746544D01*
X368872111Y-130753607D01*
X368878218Y-130808174D01*
X368878219Y-130808922D01*
X368914380Y-130808922D01*
X368912187Y-130747812D01*
X368898148Y-130709983D01*
X368867417Y-130695094D01*
X368865506Y-130694733D01*
X368810615Y-130672517D01*
X368789230Y-130654697D01*
X368693895Y-130575234D01*
X368582002Y-130539345D01*
X368464854Y-130548067D01*
X368353754Y-130602436D01*
X368339648Y-130613483D01*
X368256420Y-130702529D01*
X368189447Y-130812116D01*
X368148661Y-130923643D01*
X368140881Y-130985778D01*
X368164433Y-131071357D01*
X368229436Y-131139692D01*
X368327409Y-131183171D01*
X368369903Y-131191379D01*
X368461435Y-131217301D01*
X368537287Y-131261915D01*
X368541380Y-131265571D01*
X368594050Y-131306295D01*
X368635767Y-131325251D01*
X368638439Y-131325426D01*
X368677698Y-131340727D01*
X368733623Y-131378562D01*
X368746455Y-131388989D01*
X368803409Y-131430252D01*
X368848471Y-131451697D01*
X368854864Y-131452553D01*
X368861845Y-131468031D01*
X368835286Y-131508314D01*
X368822703Y-131522473D01*
X368731158Y-131635208D01*
X368685237Y-131733047D01*
X368685188Y-131824046D01*
X368731257Y-131916261D01*
X368823694Y-132017749D01*
X368838349Y-132031332D01*
X368974832Y-132156069D01*
X368983732Y-132617937D01*
X368985490Y-132764815D01*
X368984968Y-132892416D01*
X368982368Y-132992757D01*
X368977892Y-133057858D01*
X368972063Y-133079793D01*
X368953783Y-133087983D01*
X368974288Y-133108793D01*
X369024933Y-133136504D01*
X369097074Y-133165399D01*
X369106156Y-133168473D01*
X369190896Y-133205305D01*
X369240386Y-133245478D01*
X369247052Y-133258278D01*
X369270976Y-133303136D01*
X369317245Y-133369875D01*
X369362091Y-133427101D01*
X369419141Y-133504124D01*
X369439298Y-133551900D01*
X369433340Y-133565483D01*
X369425819Y-133596387D01*
X369447565Y-133650931D01*
X369491208Y-133717489D01*
X369549376Y-133784438D01*
X369601297Y-133830375D01*
X369699264Y-133882913D01*
X369791005Y-133890090D01*
X369869260Y-133852005D01*
X369893390Y-133826401D01*
X369924630Y-133766447D01*
X369868166Y-133766447D01*
X369861794Y-133779675D01*
X369847628Y-133798049D01*
X369801417Y-133830024D01*
X369742126Y-133842459D01*
X369693052Y-133832166D01*
X369681389Y-133820790D01*
X369691830Y-133808705D01*
X369730886Y-133811070D01*
X369797198Y-133807234D01*
X369838174Y-133788328D01*
X369850988Y-133778979D01*
X369640981Y-133778979D01*
X369628269Y-133791692D01*
X369615556Y-133778979D01*
X369628269Y-133766267D01*
X369640981Y-133778979D01*
X369850988Y-133778979D01*
X369868166Y-133766447D01*
X369924630Y-133766447D01*
X369931024Y-133754178D01*
X369945528Y-133680205D01*
X369945031Y-133677278D01*
X369890279Y-133677278D01*
X369887531Y-133720700D01*
X369879571Y-133724523D01*
X369878558Y-133722256D01*
X369873528Y-133671782D01*
X369877616Y-133645980D01*
X369885709Y-133635611D01*
X369890111Y-133669382D01*
X369890279Y-133677278D01*
X369945031Y-133677278D01*
X369931679Y-133598717D01*
X369924047Y-133576548D01*
X369783008Y-133576548D01*
X369756893Y-133601810D01*
X369708173Y-133630667D01*
X369680616Y-133638331D01*
X369676933Y-133625455D01*
X369702212Y-133601001D01*
X369488429Y-133601001D01*
X369475716Y-133613714D01*
X369463003Y-133601001D01*
X369475716Y-133588289D01*
X369488429Y-133601001D01*
X369702212Y-133601001D01*
X369703048Y-133600193D01*
X369751767Y-133571336D01*
X369779324Y-133563672D01*
X369783008Y-133576548D01*
X369924047Y-133576548D01*
X369910582Y-133537438D01*
X369869810Y-133537438D01*
X369860507Y-133558366D01*
X369852860Y-133554388D01*
X369849817Y-133524214D01*
X369852860Y-133520488D01*
X369867975Y-133523978D01*
X369869810Y-133537438D01*
X369910582Y-133537438D01*
X369897948Y-133500744D01*
X369730429Y-133500744D01*
X369697909Y-133532590D01*
X369691832Y-133537438D01*
X369639788Y-133572376D01*
X369603121Y-133587155D01*
X369602843Y-133587158D01*
X369602384Y-133574132D01*
X369634904Y-133542286D01*
X369640981Y-133537438D01*
X369693025Y-133502500D01*
X369729693Y-133487721D01*
X369729970Y-133487718D01*
X369730429Y-133500744D01*
X369897948Y-133500744D01*
X369897092Y-133498259D01*
X369885489Y-133473874D01*
X369844385Y-133473874D01*
X369831672Y-133486587D01*
X369818959Y-133473874D01*
X369831672Y-133461162D01*
X369844385Y-133473874D01*
X369885489Y-133473874D01*
X369850838Y-133401056D01*
X369816702Y-133350784D01*
X369718484Y-133350784D01*
X369692331Y-133408205D01*
X369677678Y-133430079D01*
X369618743Y-133479287D01*
X369545789Y-133480370D01*
X369460451Y-133433586D01*
X369409161Y-133387877D01*
X369348543Y-133320176D01*
X369315861Y-133268743D01*
X369313738Y-133239944D01*
X369344799Y-133240147D01*
X369348908Y-133241650D01*
X369393258Y-133251829D01*
X369470519Y-133263658D01*
X369552312Y-133273307D01*
X369652747Y-133288678D01*
X369706713Y-133312723D01*
X369718484Y-133350784D01*
X369816702Y-133350784D01*
X369802567Y-133329968D01*
X369780678Y-133298296D01*
X369792944Y-133274669D01*
X369838952Y-133247855D01*
X369889814Y-133210988D01*
X369919897Y-133158165D01*
X369931310Y-133079937D01*
X369929567Y-133041642D01*
X369742683Y-133041642D01*
X369729970Y-133054355D01*
X369717258Y-133041642D01*
X369729970Y-133028929D01*
X369742683Y-133041642D01*
X369929567Y-133041642D01*
X369927252Y-132990791D01*
X369717258Y-132990791D01*
X369704545Y-133003504D01*
X369691832Y-132990791D01*
X369615556Y-132990791D01*
X369602843Y-133003504D01*
X369590130Y-132990791D01*
X369602843Y-132978079D01*
X369615556Y-132990791D01*
X369691832Y-132990791D01*
X369704545Y-132978079D01*
X369717258Y-132990791D01*
X369927252Y-132990791D01*
X369926161Y-132966855D01*
X369917973Y-132893802D01*
X369907749Y-132805260D01*
X369901865Y-132739664D01*
X369901482Y-132710184D01*
X369901739Y-132709768D01*
X369924289Y-132720448D01*
X369981225Y-132753434D01*
X370064065Y-132803670D01*
X370164331Y-132866104D01*
X370169278Y-132869221D01*
X370281610Y-132938851D01*
X370359756Y-132983506D01*
X370411695Y-133006634D01*
X370445407Y-133011681D01*
X370468871Y-133002095D01*
X370471694Y-132999864D01*
X370499983Y-132980601D01*
X370501571Y-132999207D01*
X370493891Y-133025282D01*
X370485522Y-133067618D01*
X370508048Y-133074453D01*
X370534718Y-133067912D01*
X370571809Y-133060089D01*
X370564351Y-133071528D01*
X370557158Y-133076655D01*
X370545505Y-133101289D01*
X370576262Y-133124267D01*
X370641001Y-133142774D01*
X370731293Y-133153993D01*
X370794879Y-133156057D01*
X370920027Y-133145608D01*
X371045238Y-133117243D01*
X371115315Y-133091798D01*
X370912373Y-133091798D01*
X370886415Y-133095445D01*
X370821009Y-133097047D01*
X370810551Y-133097068D01*
X370740699Y-133095766D01*
X370709598Y-133092332D01*
X370722945Y-133087472D01*
X370727918Y-133086813D01*
X370817073Y-133082605D01*
X370893184Y-133086813D01*
X370912373Y-133091798D01*
X371115315Y-133091798D01*
X371160400Y-133075428D01*
X371183962Y-133062830D01*
X371056330Y-133062830D01*
X371052840Y-133077945D01*
X371039380Y-133079780D01*
X371018452Y-133070477D01*
X371022429Y-133062830D01*
X371052603Y-133059787D01*
X371056330Y-133062830D01*
X371183962Y-133062830D01*
X371223592Y-133041642D01*
X371141081Y-133041642D01*
X371128369Y-133054355D01*
X371115656Y-133041642D01*
X371128369Y-133028929D01*
X371141081Y-133041642D01*
X371223592Y-133041642D01*
X371255402Y-133024635D01*
X371320132Y-132969331D01*
X371344479Y-132913985D01*
X371344485Y-132913149D01*
X371333314Y-132889090D01*
X371306347Y-132889090D01*
X371244707Y-132959009D01*
X371195016Y-133012140D01*
X371170887Y-133028637D01*
X371166507Y-133020649D01*
X371183563Y-133000208D01*
X371225665Y-132960315D01*
X371236427Y-132950729D01*
X371245550Y-132942686D01*
X371025801Y-132942686D01*
X371001100Y-132978234D01*
X370960777Y-133012157D01*
X370939988Y-133013038D01*
X370949074Y-132984167D01*
X370952044Y-132980171D01*
X370890402Y-132980171D01*
X370882176Y-132996396D01*
X370842766Y-133012150D01*
X370781976Y-133012314D01*
X370726487Y-132997897D01*
X370713775Y-132990022D01*
X370731092Y-132983970D01*
X370783829Y-132976467D01*
X370807378Y-132974023D01*
X370870099Y-132971067D01*
X370890402Y-132980171D01*
X370952044Y-132980171D01*
X370962593Y-132965980D01*
X371001397Y-132933570D01*
X371021008Y-132927228D01*
X371025801Y-132942686D01*
X371245550Y-132942686D01*
X371306347Y-132889090D01*
X371333314Y-132889090D01*
X371322703Y-132866241D01*
X371259583Y-132843806D01*
X371158464Y-132846028D01*
X371022684Y-132873095D01*
X370957302Y-132891559D01*
X370932794Y-132895365D01*
X370929054Y-132878926D01*
X370946698Y-132831994D01*
X370963100Y-132795281D01*
X371006940Y-132652682D01*
X371005791Y-132595377D01*
X370963103Y-132595377D01*
X370949101Y-132693355D01*
X370909386Y-132754939D01*
X370852226Y-132774675D01*
X370795028Y-132792560D01*
X370736569Y-132835840D01*
X370734275Y-132838239D01*
X370681041Y-132887901D01*
X370651708Y-132894474D01*
X370643001Y-132855980D01*
X370649292Y-132786923D01*
X370654538Y-132703238D01*
X370639452Y-132648436D01*
X370621088Y-132623480D01*
X370592982Y-132574881D01*
X370598145Y-132519674D01*
X370639113Y-132448228D01*
X370681450Y-132394143D01*
X370754667Y-132306002D01*
X370858885Y-132410220D01*
X370925733Y-132486399D01*
X370957449Y-132550320D01*
X370963103Y-132595377D01*
X371005791Y-132595377D01*
X371004338Y-132523021D01*
X370977178Y-132446778D01*
X370954616Y-132380932D01*
X370952970Y-132327269D01*
X370948431Y-132268242D01*
X370932539Y-132238511D01*
X370884073Y-132202972D01*
X370800213Y-132163326D01*
X370695527Y-132124931D01*
X370584581Y-132093149D01*
X370484448Y-132073663D01*
X370416845Y-132062228D01*
X370371922Y-132042516D01*
X370335431Y-132003109D01*
X370335000Y-132002390D01*
X370136777Y-132002390D01*
X369958799Y-132044540D01*
X369834380Y-132073190D01*
X369742040Y-132091602D01*
X369664643Y-132102324D01*
X369585050Y-132107905D01*
X369517490Y-132110152D01*
X369439461Y-132110274D01*
X369401844Y-132103086D01*
X369394339Y-132085012D01*
X369399320Y-132069120D01*
X369421869Y-132010952D01*
X369441586Y-131957804D01*
X369474814Y-131906658D01*
X369536907Y-131879856D01*
X369559756Y-131875451D01*
X369701390Y-131860337D01*
X369804256Y-131869384D01*
X369874686Y-131903259D01*
X369881726Y-131909462D01*
X369942127Y-131947868D01*
X370021839Y-131977635D01*
X370035917Y-131980977D01*
X370136777Y-132002390D01*
X370335000Y-132002390D01*
X370317832Y-131973774D01*
X370174915Y-131973774D01*
X370162203Y-131986487D01*
X370149490Y-131973774D01*
X370162203Y-131961062D01*
X370174915Y-131973774D01*
X370317832Y-131973774D01*
X370293124Y-131932591D01*
X370281005Y-131910648D01*
X370251330Y-131836583D01*
X369381176Y-131836583D01*
X369379225Y-131950140D01*
X369343469Y-132032217D01*
X369267611Y-132094103D01*
X369225767Y-132115217D01*
X369154784Y-132146944D01*
X369112719Y-132158956D01*
X369081543Y-132151071D01*
X369043222Y-132123104D01*
X369030771Y-132113236D01*
X368990329Y-132076062D01*
X368988657Y-132052412D01*
X369005346Y-132038609D01*
X369081322Y-131984935D01*
X368971342Y-131984935D01*
X368969781Y-132007748D01*
X368942419Y-132033980D01*
X368907149Y-132024012D01*
X368853835Y-131974881D01*
X368852477Y-131973438D01*
X368813690Y-131920022D01*
X368817234Y-131884907D01*
X368819230Y-131882753D01*
X368853562Y-131878946D01*
X368901017Y-131903557D01*
X368945607Y-131943312D01*
X368971342Y-131984935D01*
X369081322Y-131984935D01*
X369095599Y-131974849D01*
X369147197Y-131925292D01*
X369157898Y-131901564D01*
X369145393Y-131891105D01*
X369127388Y-131905126D01*
X369070619Y-131933731D01*
X369004824Y-131913640D01*
X368945551Y-131863293D01*
X368903030Y-131814369D01*
X368894141Y-131784567D01*
X368914624Y-131759098D01*
X368915368Y-131758478D01*
X368947518Y-131718486D01*
X368953411Y-131697338D01*
X368938061Y-131699014D01*
X368899274Y-131732337D01*
X368855121Y-131779341D01*
X368757916Y-131890012D01*
X368741251Y-131823616D01*
X368742083Y-131741417D01*
X368762598Y-131683714D01*
X368809116Y-131617354D01*
X368876926Y-131547142D01*
X368952464Y-131484500D01*
X369022167Y-131440855D01*
X369067129Y-131427223D01*
X369162215Y-131451380D01*
X369247894Y-131517898D01*
X369317720Y-131618370D01*
X369365244Y-131744390D01*
X369381176Y-131836583D01*
X370251330Y-131836583D01*
X370216315Y-131749191D01*
X370201670Y-131588073D01*
X370236606Y-131421766D01*
X370239212Y-131414415D01*
X370262585Y-131338942D01*
X370274841Y-131279742D01*
X370198557Y-131279742D01*
X370178879Y-131368002D01*
X370174021Y-131377948D01*
X370139138Y-131420438D01*
X370110472Y-131419393D01*
X370100111Y-131380924D01*
X369920731Y-131380924D01*
X369898895Y-131433658D01*
X369842495Y-131495785D01*
X369747813Y-131574363D01*
X369698189Y-131612133D01*
X369607108Y-131679684D01*
X369531617Y-131734252D01*
X369480532Y-131769553D01*
X369463003Y-131779720D01*
X369446480Y-131759026D01*
X369415147Y-131703960D01*
X369375658Y-131626252D01*
X369374014Y-131622862D01*
X369309702Y-131510257D01*
X369242883Y-131437535D01*
X369208749Y-131414415D01*
X369149730Y-131373310D01*
X369127560Y-131331546D01*
X369127805Y-131293644D01*
X369134019Y-131252950D01*
X369148370Y-131231833D01*
X369182126Y-131227872D01*
X369246557Y-131238641D01*
X369314867Y-131253410D01*
X369414695Y-131278801D01*
X369467788Y-131303544D01*
X369477979Y-131332348D01*
X369449103Y-131369921D01*
X369425859Y-131389762D01*
X369372853Y-131437427D01*
X369360429Y-131461044D01*
X369384802Y-131461414D01*
X369442190Y-131439340D01*
X369528809Y-131395625D01*
X369606885Y-131351358D01*
X369830516Y-131219735D01*
X369875589Y-131275397D01*
X369911723Y-131330524D01*
X369920731Y-131380924D01*
X370100111Y-131380924D01*
X370098639Y-131375460D01*
X370083212Y-131293131D01*
X370044453Y-131200231D01*
X369993643Y-131120640D01*
X369964159Y-131090806D01*
X369931384Y-131063166D01*
X369932444Y-131050444D01*
X369974075Y-131046693D01*
X370014565Y-131046312D01*
X370094669Y-131053887D01*
X370144491Y-131082445D01*
X370160761Y-131102254D01*
X370192081Y-131182080D01*
X370198557Y-131279742D01*
X370274841Y-131279742D01*
X370275417Y-131276963D01*
X370276234Y-131265462D01*
X370284366Y-131238230D01*
X370312415Y-131230135D01*
X370366742Y-131242528D01*
X370453709Y-131276757D01*
X370562868Y-131326285D01*
X370655051Y-131372816D01*
X370712639Y-131413429D01*
X370748844Y-131459531D01*
X370770196Y-131505277D01*
X370804199Y-131645317D01*
X370793446Y-131774983D01*
X370740114Y-131886760D01*
X370646381Y-131973135D01*
X370632203Y-131981618D01*
X370574484Y-132021599D01*
X370558090Y-132050124D01*
X370585285Y-132062567D01*
X370592484Y-132062763D01*
X370641905Y-132044095D01*
X370705819Y-131996744D01*
X370769566Y-131933692D01*
X370818488Y-131867920D01*
X370824177Y-131857594D01*
X370846771Y-131787964D01*
X370859984Y-131697080D01*
X370861402Y-131660092D01*
X370853385Y-131567516D01*
X370823707Y-131485673D01*
X370778769Y-131410932D01*
X370692937Y-131308684D01*
X370582735Y-131213936D01*
X370465224Y-131139617D01*
X370370775Y-131101757D01*
X370313281Y-131078987D01*
X370283003Y-131052159D01*
X370282815Y-131051628D01*
X370298919Y-131026556D01*
X370338103Y-130999598D01*
X369121698Y-130999598D01*
X369120725Y-131009151D01*
X369093421Y-131023498D01*
X369051887Y-131067051D01*
X369017716Y-131155831D01*
X369008244Y-131193399D01*
X368985459Y-131278135D01*
X368961739Y-131344861D01*
X368947504Y-131371527D01*
X368917767Y-131388896D01*
X368897685Y-131365372D01*
X368890299Y-131310484D01*
X368898653Y-131233757D01*
X368900604Y-131224657D01*
X368941454Y-131100192D01*
X368966172Y-131066445D01*
X368770876Y-131066445D01*
X368766524Y-131085964D01*
X368755773Y-131138688D01*
X368751098Y-131210568D01*
X368751091Y-131213091D01*
X368746420Y-131270424D01*
X368726341Y-131294568D01*
X368681759Y-131287629D01*
X368603577Y-131251711D01*
X368597526Y-131248633D01*
X368536667Y-131213171D01*
X368500853Y-131183771D01*
X368496837Y-131175704D01*
X368474303Y-131159300D01*
X368417873Y-131144175D01*
X368393162Y-131140238D01*
X368291550Y-131111588D01*
X368221864Y-131060834D01*
X368192662Y-130994610D01*
X368192290Y-130984598D01*
X368212009Y-130886143D01*
X368262548Y-130785507D01*
X368333914Y-130694670D01*
X368416116Y-130625610D01*
X368499163Y-130590307D01*
X368523017Y-130588089D01*
X368624906Y-130606492D01*
X368704773Y-130655523D01*
X368754152Y-130725908D01*
X368764578Y-130808377D01*
X368755808Y-130843045D01*
X368742041Y-130870219D01*
X368721276Y-130872906D01*
X368681685Y-130848086D01*
X368636115Y-130812470D01*
X368534975Y-130731744D01*
X368630755Y-130833055D01*
X368726534Y-130934365D01*
X368668893Y-130988369D01*
X368620045Y-131023977D01*
X368578092Y-131022689D01*
X368560401Y-131014132D01*
X368525830Y-130997175D01*
X368530259Y-131010666D01*
X368544445Y-131028531D01*
X368566099Y-131070850D01*
X368547688Y-131109310D01*
X368532242Y-131140341D01*
X368550827Y-131147779D01*
X368593128Y-131132914D01*
X368648830Y-131097034D01*
X368649390Y-131096597D01*
X368710801Y-131057900D01*
X368754378Y-131047569D01*
X368770876Y-131066445D01*
X368966172Y-131066445D01*
X368997148Y-131024156D01*
X369067585Y-130996679D01*
X369075852Y-130996616D01*
X369121698Y-130999598D01*
X370338103Y-130999598D01*
X370351008Y-130990720D01*
X370427014Y-130949991D01*
X370514867Y-130910238D01*
X370602501Y-130877334D01*
X370677847Y-130857148D01*
X370685119Y-130855917D01*
X370804951Y-130818600D01*
X370913710Y-130750959D01*
X371004856Y-130661876D01*
X371071851Y-130560236D01*
X371108159Y-130454920D01*
X371108123Y-130450941D01*
X371056714Y-130450941D01*
X371033878Y-130508912D01*
X370994977Y-130576994D01*
X370947915Y-130640432D01*
X370921740Y-130667700D01*
X370861845Y-130715687D01*
X370791161Y-130763129D01*
X370726360Y-130799710D01*
X370684117Y-130815115D01*
X370683424Y-130815141D01*
X370693708Y-130800350D01*
X370733421Y-130761784D01*
X370779163Y-130720813D01*
X370842972Y-130655840D01*
X370881000Y-130598038D01*
X370887221Y-130573801D01*
X370903167Y-130534253D01*
X370942171Y-130486330D01*
X370990284Y-130442954D01*
X371033558Y-130417047D01*
X371055581Y-130417836D01*
X371056714Y-130450941D01*
X371108123Y-130450941D01*
X371107240Y-130354811D01*
X371089336Y-130306737D01*
X371056988Y-130266768D01*
X371029842Y-130260477D01*
X371021692Y-130288156D01*
X371025711Y-130305398D01*
X371023126Y-130352240D01*
X371004794Y-130367091D01*
X370985586Y-130368699D01*
X370981770Y-130346229D01*
X370993259Y-130289753D01*
X371003735Y-130249331D01*
X371024046Y-130162154D01*
X371036843Y-130086325D01*
X371039078Y-130057791D01*
X371046903Y-130015525D01*
X371076216Y-130013834D01*
X371083874Y-130016871D01*
X371261793Y-130073680D01*
X371435620Y-130093506D01*
X371597585Y-130077764D01*
X371739915Y-130027871D01*
X371854840Y-129945242D01*
X371916916Y-129865144D01*
X371965411Y-129763824D01*
X371976884Y-129678846D01*
X371968718Y-129649886D01*
X370858011Y-129649886D01*
X370856176Y-129697767D01*
X370841109Y-129779738D01*
X370821415Y-129867464D01*
X370796219Y-130020908D01*
X370797947Y-130162733D01*
X370801470Y-130193216D01*
X370813242Y-130366323D01*
X370796181Y-130505374D01*
X370747535Y-130619968D01*
X370664552Y-130719702D01*
X370645546Y-130737002D01*
X370540367Y-130819780D01*
X370432199Y-130882115D01*
X370309878Y-130927917D01*
X370162239Y-130961098D01*
X369978119Y-130985567D01*
X369919646Y-130991286D01*
X369874792Y-130987110D01*
X369799692Y-130972564D01*
X369734885Y-130956969D01*
X369511852Y-130877508D01*
X369318468Y-130764730D01*
X369160278Y-130622623D01*
X369075820Y-130503314D01*
X368997272Y-130503314D01*
X368982882Y-130511812D01*
X368950198Y-130498845D01*
X368894337Y-130466523D01*
X368875622Y-130454400D01*
X368792067Y-130374174D01*
X368724120Y-130263768D01*
X368682577Y-130143625D01*
X368674815Y-130074193D01*
X368679863Y-130004735D01*
X368697086Y-129982919D01*
X368729600Y-130008293D01*
X368767671Y-130060685D01*
X368808790Y-130153816D01*
X368809741Y-130222633D01*
X368807892Y-130278566D01*
X368830768Y-130321886D01*
X368886298Y-130370162D01*
X368947115Y-130423460D01*
X368986267Y-130471014D01*
X368997272Y-130503314D01*
X369075820Y-130503314D01*
X369046272Y-130461575D01*
X369005230Y-130377621D01*
X368993687Y-130331966D01*
X368913466Y-130331966D01*
X368904673Y-130346321D01*
X368889083Y-130342320D01*
X368856630Y-130318444D01*
X368852793Y-130307768D01*
X368844513Y-130267929D01*
X368837360Y-130246925D01*
X368836288Y-130212958D01*
X368847586Y-130206707D01*
X368872969Y-130228104D01*
X368898700Y-130279751D01*
X368899309Y-130281476D01*
X368913466Y-130331966D01*
X368993687Y-130331966D01*
X368988046Y-130309656D01*
X368989495Y-130231954D01*
X368993147Y-130199988D01*
X369017122Y-130068774D01*
X369046016Y-129996149D01*
X368851990Y-129996149D01*
X368851186Y-130066867D01*
X368785125Y-129991692D01*
X368746855Y-129938579D01*
X368744164Y-129909226D01*
X368748629Y-129906661D01*
X368807228Y-129908030D01*
X368844360Y-129949948D01*
X368851990Y-129996149D01*
X369046016Y-129996149D01*
X369054476Y-129974887D01*
X369111728Y-129905272D01*
X369157898Y-129870017D01*
X369232777Y-129807006D01*
X369281781Y-129729550D01*
X369309407Y-129626461D01*
X369320149Y-129486548D01*
X369320539Y-129465174D01*
X369323163Y-129267358D01*
X369493448Y-129228524D01*
X369588830Y-129208598D01*
X369671178Y-129194589D01*
X369719861Y-129189690D01*
X369758174Y-129192682D01*
X369755989Y-129210293D01*
X369731682Y-129238649D01*
X369698825Y-129299115D01*
X369705038Y-129352945D01*
X369747520Y-129385559D01*
X369760448Y-129388301D01*
X369810370Y-129417239D01*
X369823752Y-129449726D01*
X369854655Y-129500212D01*
X369907948Y-129530795D01*
X369963816Y-129561683D01*
X369983309Y-129610090D01*
X369984225Y-129631723D01*
X370001129Y-129694932D01*
X370046527Y-129725911D01*
X370112441Y-129727870D01*
X370190897Y-129704017D01*
X370273918Y-129657560D01*
X370353530Y-129591709D01*
X370421757Y-129509672D01*
X370460343Y-129440165D01*
X370489672Y-129389465D01*
X370515929Y-129367684D01*
X370516435Y-129367668D01*
X370564418Y-129385264D01*
X370628170Y-129429326D01*
X370691502Y-129486769D01*
X370738226Y-129544506D01*
X370741040Y-129549229D01*
X370780798Y-129599429D01*
X370820194Y-129621843D01*
X370822081Y-129621922D01*
X370846638Y-129627477D01*
X370858011Y-129649886D01*
X371968718Y-129649886D01*
X371952748Y-129593260D01*
X371941520Y-129570177D01*
X371911888Y-129525255D01*
X371872143Y-129495679D01*
X371813608Y-129479899D01*
X371727612Y-129476365D01*
X371605480Y-129483527D01*
X371507805Y-129492659D01*
X371380089Y-129504352D01*
X371257318Y-129513584D01*
X371156816Y-129519145D01*
X371112627Y-129520221D01*
X370991302Y-129520221D01*
X370896021Y-129338902D01*
X370830707Y-129237367D01*
X370676817Y-129237367D01*
X370658192Y-129225181D01*
X370654843Y-129221896D01*
X370634760Y-129188560D01*
X370637483Y-129176305D01*
X370656397Y-129183935D01*
X370669076Y-129207663D01*
X370676817Y-129237367D01*
X370830707Y-129237367D01*
X370761174Y-129129274D01*
X370758120Y-129126127D01*
X370632573Y-129126127D01*
X370619860Y-129138839D01*
X370607147Y-129126127D01*
X370619860Y-129113414D01*
X370556297Y-129113414D01*
X370546994Y-129134342D01*
X370539346Y-129130364D01*
X370536303Y-129100190D01*
X370539346Y-129096464D01*
X370554462Y-129099954D01*
X370556297Y-129113414D01*
X370619860Y-129113414D01*
X370632573Y-129126127D01*
X370758120Y-129126127D01*
X370599416Y-128962643D01*
X370410358Y-128838618D01*
X370385317Y-128826343D01*
X370297699Y-128787138D01*
X370225007Y-128762932D01*
X370149204Y-128750179D01*
X370052248Y-128745334D01*
X369970193Y-128744745D01*
X369852635Y-128746079D01*
G37*
X369852635Y-128746079D02*
X369767746Y-128752711D01*
X369697363Y-128768586D01*
X369623323Y-128797650D01*
X369537961Y-128838635D01*
X369332715Y-128967843D01*
X369157798Y-129134120D01*
X369018601Y-129330614D01*
X368920514Y-129550471D01*
X368889414Y-129663202D01*
X368867071Y-129758548D01*
X368848540Y-129814518D01*
X368827471Y-129841562D01*
X368797512Y-129850129D01*
X368775406Y-129850751D01*
X368704145Y-129872072D01*
X368655195Y-129929661D01*
X368628833Y-130013958D01*
X368625334Y-130115403D01*
X368644973Y-130224436D01*
X368688027Y-130331497D01*
X368754771Y-130427025D01*
X368758661Y-130431248D01*
X368824468Y-130488502D01*
X368898222Y-130533757D01*
X368962641Y-130557418D01*
X368986895Y-130557964D01*
X369018215Y-130571789D01*
X369073767Y-130614403D01*
X369143024Y-130677481D01*
X369163157Y-130697392D01*
X369292247Y-130809576D01*
X369430154Y-130899713D01*
X369468262Y-130919160D01*
X369628269Y-130994855D01*
X369531252Y-130994875D01*
X369453564Y-130988081D01*
X369390921Y-130971417D01*
X369385110Y-130968605D01*
X369337473Y-130956222D01*
X369254751Y-130946761D01*
X369152695Y-130941857D01*
X369124677Y-130941530D01*
X368913368Y-130940745D01*
X368914862Y-130822356D01*
X368914380Y-130808922D01*
X368878219Y-130808922D01*
X368865515Y-130857764D01*
X368835059Y-130917416D01*
X368798329Y-130969222D01*
X368766806Y-130994525D01*
X368763783Y-130994895D01*
X368768522Y-130973059D01*
X368784846Y-130916982D01*
X368799997Y-130868108D01*
X368830745Y-130785280D01*
X368855535Y-130746544D01*
X368872111Y-130753607D01*
X368878218Y-130808174D01*
X368878219Y-130808922D01*
X368914380Y-130808922D01*
X368912187Y-130747812D01*
X368898148Y-130709983D01*
X368867417Y-130695094D01*
X368865506Y-130694733D01*
X368810615Y-130672517D01*
X368789230Y-130654697D01*
X368693895Y-130575234D01*
X368582002Y-130539345D01*
X368464854Y-130548067D01*
X368353754Y-130602436D01*
X368339648Y-130613483D01*
X368256420Y-130702529D01*
X368189447Y-130812116D01*
X368148661Y-130923643D01*
X368140881Y-130985778D01*
X368164433Y-131071357D01*
X368229436Y-131139692D01*
X368327409Y-131183171D01*
X368369903Y-131191379D01*
X368461435Y-131217301D01*
X368537287Y-131261915D01*
X368541380Y-131265571D01*
X368594050Y-131306295D01*
X368635767Y-131325251D01*
X368638439Y-131325426D01*
X368677698Y-131340727D01*
X368733623Y-131378562D01*
X368746455Y-131388989D01*
X368803409Y-131430252D01*
X368848471Y-131451697D01*
X368854864Y-131452553D01*
X368861845Y-131468031D01*
X368835286Y-131508314D01*
X368822703Y-131522473D01*
X368731158Y-131635208D01*
X368685237Y-131733047D01*
X368685188Y-131824046D01*
X368731257Y-131916261D01*
X368823694Y-132017749D01*
X368838349Y-132031332D01*
X368974832Y-132156069D01*
X368983732Y-132617937D01*
X368985490Y-132764815D01*
X368984968Y-132892416D01*
X368982368Y-132992757D01*
X368977892Y-133057858D01*
X368972063Y-133079793D01*
X368953783Y-133087983D01*
X368974288Y-133108793D01*
X369024933Y-133136504D01*
X369097074Y-133165399D01*
X369106156Y-133168473D01*
X369190896Y-133205305D01*
X369240386Y-133245478D01*
X369247052Y-133258278D01*
X369270976Y-133303136D01*
X369317245Y-133369875D01*
X369362091Y-133427101D01*
X369419141Y-133504124D01*
X369439298Y-133551900D01*
X369433340Y-133565483D01*
X369425819Y-133596387D01*
X369447565Y-133650931D01*
X369491208Y-133717489D01*
X369549376Y-133784438D01*
X369601297Y-133830375D01*
X369699264Y-133882913D01*
X369791005Y-133890090D01*
X369869260Y-133852005D01*
X369893390Y-133826401D01*
X369924630Y-133766447D01*
X369868166Y-133766447D01*
X369861794Y-133779675D01*
X369847628Y-133798049D01*
X369801417Y-133830024D01*
X369742126Y-133842459D01*
X369693052Y-133832166D01*
X369681389Y-133820790D01*
X369691830Y-133808705D01*
X369730886Y-133811070D01*
X369797198Y-133807234D01*
X369838174Y-133788328D01*
X369850988Y-133778979D01*
X369640981Y-133778979D01*
X369628269Y-133791692D01*
X369615556Y-133778979D01*
X369628269Y-133766267D01*
X369640981Y-133778979D01*
X369850988Y-133778979D01*
X369868166Y-133766447D01*
X369924630Y-133766447D01*
X369931024Y-133754178D01*
X369945528Y-133680205D01*
X369945031Y-133677278D01*
X369890279Y-133677278D01*
X369887531Y-133720700D01*
X369879571Y-133724523D01*
X369878558Y-133722256D01*
X369873528Y-133671782D01*
X369877616Y-133645980D01*
X369885709Y-133635611D01*
X369890111Y-133669382D01*
X369890279Y-133677278D01*
X369945031Y-133677278D01*
X369931679Y-133598717D01*
X369924047Y-133576548D01*
X369783008Y-133576548D01*
X369756893Y-133601810D01*
X369708173Y-133630667D01*
X369680616Y-133638331D01*
X369676933Y-133625455D01*
X369702212Y-133601001D01*
X369488429Y-133601001D01*
X369475716Y-133613714D01*
X369463003Y-133601001D01*
X369475716Y-133588289D01*
X369488429Y-133601001D01*
X369702212Y-133601001D01*
X369703048Y-133600193D01*
X369751767Y-133571336D01*
X369779324Y-133563672D01*
X369783008Y-133576548D01*
X369924047Y-133576548D01*
X369910582Y-133537438D01*
X369869810Y-133537438D01*
X369860507Y-133558366D01*
X369852860Y-133554388D01*
X369849817Y-133524214D01*
X369852860Y-133520488D01*
X369867975Y-133523978D01*
X369869810Y-133537438D01*
X369910582Y-133537438D01*
X369897948Y-133500744D01*
X369730429Y-133500744D01*
X369697909Y-133532590D01*
X369691832Y-133537438D01*
X369639788Y-133572376D01*
X369603121Y-133587155D01*
X369602843Y-133587158D01*
X369602384Y-133574132D01*
X369634904Y-133542286D01*
X369640981Y-133537438D01*
X369693025Y-133502500D01*
X369729693Y-133487721D01*
X369729970Y-133487718D01*
X369730429Y-133500744D01*
X369897948Y-133500744D01*
X369897092Y-133498259D01*
X369885489Y-133473874D01*
X369844385Y-133473874D01*
X369831672Y-133486587D01*
X369818959Y-133473874D01*
X369831672Y-133461162D01*
X369844385Y-133473874D01*
X369885489Y-133473874D01*
X369850838Y-133401056D01*
X369816702Y-133350784D01*
X369718484Y-133350784D01*
X369692331Y-133408205D01*
X369677678Y-133430079D01*
X369618743Y-133479287D01*
X369545789Y-133480370D01*
X369460451Y-133433586D01*
X369409161Y-133387877D01*
X369348543Y-133320176D01*
X369315861Y-133268743D01*
X369313738Y-133239944D01*
X369344799Y-133240147D01*
X369348908Y-133241650D01*
X369393258Y-133251829D01*
X369470519Y-133263658D01*
X369552312Y-133273307D01*
X369652747Y-133288678D01*
X369706713Y-133312723D01*
X369718484Y-133350784D01*
X369816702Y-133350784D01*
X369802567Y-133329968D01*
X369780678Y-133298296D01*
X369792944Y-133274669D01*
X369838952Y-133247855D01*
X369889814Y-133210988D01*
X369919897Y-133158165D01*
X369931310Y-133079937D01*
X369929567Y-133041642D01*
X369742683Y-133041642D01*
X369729970Y-133054355D01*
X369717258Y-133041642D01*
X369729970Y-133028929D01*
X369742683Y-133041642D01*
X369929567Y-133041642D01*
X369927252Y-132990791D01*
X369717258Y-132990791D01*
X369704545Y-133003504D01*
X369691832Y-132990791D01*
X369615556Y-132990791D01*
X369602843Y-133003504D01*
X369590130Y-132990791D01*
X369602843Y-132978079D01*
X369615556Y-132990791D01*
X369691832Y-132990791D01*
X369704545Y-132978079D01*
X369717258Y-132990791D01*
X369927252Y-132990791D01*
X369926161Y-132966855D01*
X369917973Y-132893802D01*
X369907749Y-132805260D01*
X369901865Y-132739664D01*
X369901482Y-132710184D01*
X369901739Y-132709768D01*
X369924289Y-132720448D01*
X369981225Y-132753434D01*
X370064065Y-132803670D01*
X370164331Y-132866104D01*
X370169278Y-132869221D01*
X370281610Y-132938851D01*
X370359756Y-132983506D01*
X370411695Y-133006634D01*
X370445407Y-133011681D01*
X370468871Y-133002095D01*
X370471694Y-132999864D01*
X370499983Y-132980601D01*
X370501571Y-132999207D01*
X370493891Y-133025282D01*
X370485522Y-133067618D01*
X370508048Y-133074453D01*
X370534718Y-133067912D01*
X370571809Y-133060089D01*
X370564351Y-133071528D01*
X370557158Y-133076655D01*
X370545505Y-133101289D01*
X370576262Y-133124267D01*
X370641001Y-133142774D01*
X370731293Y-133153993D01*
X370794879Y-133156057D01*
X370920027Y-133145608D01*
X371045238Y-133117243D01*
X371115315Y-133091798D01*
X370912373Y-133091798D01*
X370886415Y-133095445D01*
X370821009Y-133097047D01*
X370810551Y-133097068D01*
X370740699Y-133095766D01*
X370709598Y-133092332D01*
X370722945Y-133087472D01*
X370727918Y-133086813D01*
X370817073Y-133082605D01*
X370893184Y-133086813D01*
X370912373Y-133091798D01*
X371115315Y-133091798D01*
X371160400Y-133075428D01*
X371183962Y-133062830D01*
X371056330Y-133062830D01*
X371052840Y-133077945D01*
X371039380Y-133079780D01*
X371018452Y-133070477D01*
X371022429Y-133062830D01*
X371052603Y-133059787D01*
X371056330Y-133062830D01*
X371183962Y-133062830D01*
X371223592Y-133041642D01*
X371141081Y-133041642D01*
X371128369Y-133054355D01*
X371115656Y-133041642D01*
X371128369Y-133028929D01*
X371141081Y-133041642D01*
X371223592Y-133041642D01*
X371255402Y-133024635D01*
X371320132Y-132969331D01*
X371344479Y-132913985D01*
X371344485Y-132913149D01*
X371333314Y-132889090D01*
X371306347Y-132889090D01*
X371244707Y-132959009D01*
X371195016Y-133012140D01*
X371170887Y-133028637D01*
X371166507Y-133020649D01*
X371183563Y-133000208D01*
X371225665Y-132960315D01*
X371236427Y-132950729D01*
X371245550Y-132942686D01*
X371025801Y-132942686D01*
X371001100Y-132978234D01*
X370960777Y-133012157D01*
X370939988Y-133013038D01*
X370949074Y-132984167D01*
X370952044Y-132980171D01*
X370890402Y-132980171D01*
X370882176Y-132996396D01*
X370842766Y-133012150D01*
X370781976Y-133012314D01*
X370726487Y-132997897D01*
X370713775Y-132990022D01*
X370731092Y-132983970D01*
X370783829Y-132976467D01*
X370807378Y-132974023D01*
X370870099Y-132971067D01*
X370890402Y-132980171D01*
X370952044Y-132980171D01*
X370962593Y-132965980D01*
X371001397Y-132933570D01*
X371021008Y-132927228D01*
X371025801Y-132942686D01*
X371245550Y-132942686D01*
X371306347Y-132889090D01*
X371333314Y-132889090D01*
X371322703Y-132866241D01*
X371259583Y-132843806D01*
X371158464Y-132846028D01*
X371022684Y-132873095D01*
X370957302Y-132891559D01*
X370932794Y-132895365D01*
X370929054Y-132878926D01*
X370946698Y-132831994D01*
X370963100Y-132795281D01*
X371006940Y-132652682D01*
X371005791Y-132595377D01*
X370963103Y-132595377D01*
X370949101Y-132693355D01*
X370909386Y-132754939D01*
X370852226Y-132774675D01*
X370795028Y-132792560D01*
X370736569Y-132835840D01*
X370734275Y-132838239D01*
X370681041Y-132887901D01*
X370651708Y-132894474D01*
X370643001Y-132855980D01*
X370649292Y-132786923D01*
X370654538Y-132703238D01*
X370639452Y-132648436D01*
X370621088Y-132623480D01*
X370592982Y-132574881D01*
X370598145Y-132519674D01*
X370639113Y-132448228D01*
X370681450Y-132394143D01*
X370754667Y-132306002D01*
X370858885Y-132410220D01*
X370925733Y-132486399D01*
X370957449Y-132550320D01*
X370963103Y-132595377D01*
X371005791Y-132595377D01*
X371004338Y-132523021D01*
X370977178Y-132446778D01*
X370954616Y-132380932D01*
X370952970Y-132327269D01*
X370948431Y-132268242D01*
X370932539Y-132238511D01*
X370884073Y-132202972D01*
X370800213Y-132163326D01*
X370695527Y-132124931D01*
X370584581Y-132093149D01*
X370484448Y-132073663D01*
X370416845Y-132062228D01*
X370371922Y-132042516D01*
X370335431Y-132003109D01*
X370335000Y-132002390D01*
X370136777Y-132002390D01*
X369958799Y-132044540D01*
X369834380Y-132073190D01*
X369742040Y-132091602D01*
X369664643Y-132102324D01*
X369585050Y-132107905D01*
X369517490Y-132110152D01*
X369439461Y-132110274D01*
X369401844Y-132103086D01*
X369394339Y-132085012D01*
X369399320Y-132069120D01*
X369421869Y-132010952D01*
X369441586Y-131957804D01*
X369474814Y-131906658D01*
X369536907Y-131879856D01*
X369559756Y-131875451D01*
X369701390Y-131860337D01*
X369804256Y-131869384D01*
X369874686Y-131903259D01*
X369881726Y-131909462D01*
X369942127Y-131947868D01*
X370021839Y-131977635D01*
X370035917Y-131980977D01*
X370136777Y-132002390D01*
X370335000Y-132002390D01*
X370317832Y-131973774D01*
X370174915Y-131973774D01*
X370162203Y-131986487D01*
X370149490Y-131973774D01*
X370162203Y-131961062D01*
X370174915Y-131973774D01*
X370317832Y-131973774D01*
X370293124Y-131932591D01*
X370281005Y-131910648D01*
X370251330Y-131836583D01*
X369381176Y-131836583D01*
X369379225Y-131950140D01*
X369343469Y-132032217D01*
X369267611Y-132094103D01*
X369225767Y-132115217D01*
X369154784Y-132146944D01*
X369112719Y-132158956D01*
X369081543Y-132151071D01*
X369043222Y-132123104D01*
X369030771Y-132113236D01*
X368990329Y-132076062D01*
X368988657Y-132052412D01*
X369005346Y-132038609D01*
X369081322Y-131984935D01*
X368971342Y-131984935D01*
X368969781Y-132007748D01*
X368942419Y-132033980D01*
X368907149Y-132024012D01*
X368853835Y-131974881D01*
X368852477Y-131973438D01*
X368813690Y-131920022D01*
X368817234Y-131884907D01*
X368819230Y-131882753D01*
X368853562Y-131878946D01*
X368901017Y-131903557D01*
X368945607Y-131943312D01*
X368971342Y-131984935D01*
X369081322Y-131984935D01*
X369095599Y-131974849D01*
X369147197Y-131925292D01*
X369157898Y-131901564D01*
X369145393Y-131891105D01*
X369127388Y-131905126D01*
X369070619Y-131933731D01*
X369004824Y-131913640D01*
X368945551Y-131863293D01*
X368903030Y-131814369D01*
X368894141Y-131784567D01*
X368914624Y-131759098D01*
X368915368Y-131758478D01*
X368947518Y-131718486D01*
X368953411Y-131697338D01*
X368938061Y-131699014D01*
X368899274Y-131732337D01*
X368855121Y-131779341D01*
X368757916Y-131890012D01*
X368741251Y-131823616D01*
X368742083Y-131741417D01*
X368762598Y-131683714D01*
X368809116Y-131617354D01*
X368876926Y-131547142D01*
X368952464Y-131484500D01*
X369022167Y-131440855D01*
X369067129Y-131427223D01*
X369162215Y-131451380D01*
X369247894Y-131517898D01*
X369317720Y-131618370D01*
X369365244Y-131744390D01*
X369381176Y-131836583D01*
X370251330Y-131836583D01*
X370216315Y-131749191D01*
X370201670Y-131588073D01*
X370236606Y-131421766D01*
X370239212Y-131414415D01*
X370262585Y-131338942D01*
X370274841Y-131279742D01*
X370198557Y-131279742D01*
X370178879Y-131368002D01*
X370174021Y-131377948D01*
X370139138Y-131420438D01*
X370110472Y-131419393D01*
X370100111Y-131380924D01*
X369920731Y-131380924D01*
X369898895Y-131433658D01*
X369842495Y-131495785D01*
X369747813Y-131574363D01*
X369698189Y-131612133D01*
X369607108Y-131679684D01*
X369531617Y-131734252D01*
X369480532Y-131769553D01*
X369463003Y-131779720D01*
X369446480Y-131759026D01*
X369415147Y-131703960D01*
X369375658Y-131626252D01*
X369374014Y-131622862D01*
X369309702Y-131510257D01*
X369242883Y-131437535D01*
X369208749Y-131414415D01*
X369149730Y-131373310D01*
X369127560Y-131331546D01*
X369127805Y-131293644D01*
X369134019Y-131252950D01*
X369148370Y-131231833D01*
X369182126Y-131227872D01*
X369246557Y-131238641D01*
X369314867Y-131253410D01*
X369414695Y-131278801D01*
X369467788Y-131303544D01*
X369477979Y-131332348D01*
X369449103Y-131369921D01*
X369425859Y-131389762D01*
X369372853Y-131437427D01*
X369360429Y-131461044D01*
X369384802Y-131461414D01*
X369442190Y-131439340D01*
X369528809Y-131395625D01*
X369606885Y-131351358D01*
X369830516Y-131219735D01*
X369875589Y-131275397D01*
X369911723Y-131330524D01*
X369920731Y-131380924D01*
X370100111Y-131380924D01*
X370098639Y-131375460D01*
X370083212Y-131293131D01*
X370044453Y-131200231D01*
X369993643Y-131120640D01*
X369964159Y-131090806D01*
X369931384Y-131063166D01*
X369932444Y-131050444D01*
X369974075Y-131046693D01*
X370014565Y-131046312D01*
X370094669Y-131053887D01*
X370144491Y-131082445D01*
X370160761Y-131102254D01*
X370192081Y-131182080D01*
X370198557Y-131279742D01*
X370274841Y-131279742D01*
X370275417Y-131276963D01*
X370276234Y-131265462D01*
X370284366Y-131238230D01*
X370312415Y-131230135D01*
X370366742Y-131242528D01*
X370453709Y-131276757D01*
X370562868Y-131326285D01*
X370655051Y-131372816D01*
X370712639Y-131413429D01*
X370748844Y-131459531D01*
X370770196Y-131505277D01*
X370804199Y-131645317D01*
X370793446Y-131774983D01*
X370740114Y-131886760D01*
X370646381Y-131973135D01*
X370632203Y-131981618D01*
X370574484Y-132021599D01*
X370558090Y-132050124D01*
X370585285Y-132062567D01*
X370592484Y-132062763D01*
X370641905Y-132044095D01*
X370705819Y-131996744D01*
X370769566Y-131933692D01*
X370818488Y-131867920D01*
X370824177Y-131857594D01*
X370846771Y-131787964D01*
X370859984Y-131697080D01*
X370861402Y-131660092D01*
X370853385Y-131567516D01*
X370823707Y-131485673D01*
X370778769Y-131410932D01*
X370692937Y-131308684D01*
X370582735Y-131213936D01*
X370465224Y-131139617D01*
X370370775Y-131101757D01*
X370313281Y-131078987D01*
X370283003Y-131052159D01*
X370282815Y-131051628D01*
X370298919Y-131026556D01*
X370338103Y-130999598D01*
X369121698Y-130999598D01*
X369120725Y-131009151D01*
X369093421Y-131023498D01*
X369051887Y-131067051D01*
X369017716Y-131155831D01*
X369008244Y-131193399D01*
X368985459Y-131278135D01*
X368961739Y-131344861D01*
X368947504Y-131371527D01*
X368917767Y-131388896D01*
X368897685Y-131365372D01*
X368890299Y-131310484D01*
X368898653Y-131233757D01*
X368900604Y-131224657D01*
X368941454Y-131100192D01*
X368966172Y-131066445D01*
X368770876Y-131066445D01*
X368766524Y-131085964D01*
X368755773Y-131138688D01*
X368751098Y-131210568D01*
X368751091Y-131213091D01*
X368746420Y-131270424D01*
X368726341Y-131294568D01*
X368681759Y-131287629D01*
X368603577Y-131251711D01*
X368597526Y-131248633D01*
X368536667Y-131213171D01*
X368500853Y-131183771D01*
X368496837Y-131175704D01*
X368474303Y-131159300D01*
X368417873Y-131144175D01*
X368393162Y-131140238D01*
X368291550Y-131111588D01*
X368221864Y-131060834D01*
X368192662Y-130994610D01*
X368192290Y-130984598D01*
X368212009Y-130886143D01*
X368262548Y-130785507D01*
X368333914Y-130694670D01*
X368416116Y-130625610D01*
X368499163Y-130590307D01*
X368523017Y-130588089D01*
X368624906Y-130606492D01*
X368704773Y-130655523D01*
X368754152Y-130725908D01*
X368764578Y-130808377D01*
X368755808Y-130843045D01*
X368742041Y-130870219D01*
X368721276Y-130872906D01*
X368681685Y-130848086D01*
X368636115Y-130812470D01*
X368534975Y-130731744D01*
X368630755Y-130833055D01*
X368726534Y-130934365D01*
X368668893Y-130988369D01*
X368620045Y-131023977D01*
X368578092Y-131022689D01*
X368560401Y-131014132D01*
X368525830Y-130997175D01*
X368530259Y-131010666D01*
X368544445Y-131028531D01*
X368566099Y-131070850D01*
X368547688Y-131109310D01*
X368532242Y-131140341D01*
X368550827Y-131147779D01*
X368593128Y-131132914D01*
X368648830Y-131097034D01*
X368649390Y-131096597D01*
X368710801Y-131057900D01*
X368754378Y-131047569D01*
X368770876Y-131066445D01*
X368966172Y-131066445D01*
X368997148Y-131024156D01*
X369067585Y-130996679D01*
X369075852Y-130996616D01*
X369121698Y-130999598D01*
X370338103Y-130999598D01*
X370351008Y-130990720D01*
X370427014Y-130949991D01*
X370514867Y-130910238D01*
X370602501Y-130877334D01*
X370677847Y-130857148D01*
X370685119Y-130855917D01*
X370804951Y-130818600D01*
X370913710Y-130750959D01*
X371004856Y-130661876D01*
X371071851Y-130560236D01*
X371108159Y-130454920D01*
X371108123Y-130450941D01*
X371056714Y-130450941D01*
X371033878Y-130508912D01*
X370994977Y-130576994D01*
X370947915Y-130640432D01*
X370921740Y-130667700D01*
X370861845Y-130715687D01*
X370791161Y-130763129D01*
X370726360Y-130799710D01*
X370684117Y-130815115D01*
X370683424Y-130815141D01*
X370693708Y-130800350D01*
X370733421Y-130761784D01*
X370779163Y-130720813D01*
X370842972Y-130655840D01*
X370881000Y-130598038D01*
X370887221Y-130573801D01*
X370903167Y-130534253D01*
X370942171Y-130486330D01*
X370990284Y-130442954D01*
X371033558Y-130417047D01*
X371055581Y-130417836D01*
X371056714Y-130450941D01*
X371108123Y-130450941D01*
X371107240Y-130354811D01*
X371089336Y-130306737D01*
X371056988Y-130266768D01*
X371029842Y-130260477D01*
X371021692Y-130288156D01*
X371025711Y-130305398D01*
X371023126Y-130352240D01*
X371004794Y-130367091D01*
X370985586Y-130368699D01*
X370981770Y-130346229D01*
X370993259Y-130289753D01*
X371003735Y-130249331D01*
X371024046Y-130162154D01*
X371036843Y-130086325D01*
X371039078Y-130057791D01*
X371046903Y-130015525D01*
X371076216Y-130013834D01*
X371083874Y-130016871D01*
X371261793Y-130073680D01*
X371435620Y-130093506D01*
X371597585Y-130077764D01*
X371739915Y-130027871D01*
X371854840Y-129945242D01*
X371916916Y-129865144D01*
X371965411Y-129763824D01*
X371976884Y-129678846D01*
X371968718Y-129649886D01*
X370858011Y-129649886D01*
X370856176Y-129697767D01*
X370841109Y-129779738D01*
X370821415Y-129867464D01*
X370796219Y-130020908D01*
X370797947Y-130162733D01*
X370801470Y-130193216D01*
X370813242Y-130366323D01*
X370796181Y-130505374D01*
X370747535Y-130619968D01*
X370664552Y-130719702D01*
X370645546Y-130737002D01*
X370540367Y-130819780D01*
X370432199Y-130882115D01*
X370309878Y-130927917D01*
X370162239Y-130961098D01*
X369978119Y-130985567D01*
X369919646Y-130991286D01*
X369874792Y-130987110D01*
X369799692Y-130972564D01*
X369734885Y-130956969D01*
X369511852Y-130877508D01*
X369318468Y-130764730D01*
X369160278Y-130622623D01*
X369075820Y-130503314D01*
X368997272Y-130503314D01*
X368982882Y-130511812D01*
X368950198Y-130498845D01*
X368894337Y-130466523D01*
X368875622Y-130454400D01*
X368792067Y-130374174D01*
X368724120Y-130263768D01*
X368682577Y-130143625D01*
X368674815Y-130074193D01*
X368679863Y-130004735D01*
X368697086Y-129982919D01*
X368729600Y-130008293D01*
X368767671Y-130060685D01*
X368808790Y-130153816D01*
X368809741Y-130222633D01*
X368807892Y-130278566D01*
X368830768Y-130321886D01*
X368886298Y-130370162D01*
X368947115Y-130423460D01*
X368986267Y-130471014D01*
X368997272Y-130503314D01*
X369075820Y-130503314D01*
X369046272Y-130461575D01*
X369005230Y-130377621D01*
X368993687Y-130331966D01*
X368913466Y-130331966D01*
X368904673Y-130346321D01*
X368889083Y-130342320D01*
X368856630Y-130318444D01*
X368852793Y-130307768D01*
X368844513Y-130267929D01*
X368837360Y-130246925D01*
X368836288Y-130212958D01*
X368847586Y-130206707D01*
X368872969Y-130228104D01*
X368898700Y-130279751D01*
X368899309Y-130281476D01*
X368913466Y-130331966D01*
X368993687Y-130331966D01*
X368988046Y-130309656D01*
X368989495Y-130231954D01*
X368993147Y-130199988D01*
X369017122Y-130068774D01*
X369046016Y-129996149D01*
X368851990Y-129996149D01*
X368851186Y-130066867D01*
X368785125Y-129991692D01*
X368746855Y-129938579D01*
X368744164Y-129909226D01*
X368748629Y-129906661D01*
X368807228Y-129908030D01*
X368844360Y-129949948D01*
X368851990Y-129996149D01*
X369046016Y-129996149D01*
X369054476Y-129974887D01*
X369111728Y-129905272D01*
X369157898Y-129870017D01*
X369232777Y-129807006D01*
X369281781Y-129729550D01*
X369309407Y-129626461D01*
X369320149Y-129486548D01*
X369320539Y-129465174D01*
X369323163Y-129267358D01*
X369493448Y-129228524D01*
X369588830Y-129208598D01*
X369671178Y-129194589D01*
X369719861Y-129189690D01*
X369758174Y-129192682D01*
X369755989Y-129210293D01*
X369731682Y-129238649D01*
X369698825Y-129299115D01*
X369705038Y-129352945D01*
X369747520Y-129385559D01*
X369760448Y-129388301D01*
X369810370Y-129417239D01*
X369823752Y-129449726D01*
X369854655Y-129500212D01*
X369907948Y-129530795D01*
X369963816Y-129561683D01*
X369983309Y-129610090D01*
X369984225Y-129631723D01*
X370001129Y-129694932D01*
X370046527Y-129725911D01*
X370112441Y-129727870D01*
X370190897Y-129704017D01*
X370273918Y-129657560D01*
X370353530Y-129591709D01*
X370421757Y-129509672D01*
X370460343Y-129440165D01*
X370489672Y-129389465D01*
X370515929Y-129367684D01*
X370516435Y-129367668D01*
X370564418Y-129385264D01*
X370628170Y-129429326D01*
X370691502Y-129486769D01*
X370738226Y-129544506D01*
X370741040Y-129549229D01*
X370780798Y-129599429D01*
X370820194Y-129621843D01*
X370822081Y-129621922D01*
X370846638Y-129627477D01*
X370858011Y-129649886D01*
X371968718Y-129649886D01*
X371952748Y-129593260D01*
X371941520Y-129570177D01*
X371911888Y-129525255D01*
X371872143Y-129495679D01*
X371813608Y-129479899D01*
X371727612Y-129476365D01*
X371605480Y-129483527D01*
X371507805Y-129492659D01*
X371380089Y-129504352D01*
X371257318Y-129513584D01*
X371156816Y-129519145D01*
X371112627Y-129520221D01*
X370991302Y-129520221D01*
X370896021Y-129338902D01*
X370830707Y-129237367D01*
X370676817Y-129237367D01*
X370658192Y-129225181D01*
X370654843Y-129221896D01*
X370634760Y-129188560D01*
X370637483Y-129176305D01*
X370656397Y-129183935D01*
X370669076Y-129207663D01*
X370676817Y-129237367D01*
X370830707Y-129237367D01*
X370761174Y-129129274D01*
X370758120Y-129126127D01*
X370632573Y-129126127D01*
X370619860Y-129138839D01*
X370607147Y-129126127D01*
X370619860Y-129113414D01*
X370556297Y-129113414D01*
X370546994Y-129134342D01*
X370539346Y-129130364D01*
X370536303Y-129100190D01*
X370539346Y-129096464D01*
X370554462Y-129099954D01*
X370556297Y-129113414D01*
X370619860Y-129113414D01*
X370632573Y-129126127D01*
X370758120Y-129126127D01*
X370599416Y-128962643D01*
X370410358Y-128838618D01*
X370385317Y-128826343D01*
X370297699Y-128787138D01*
X370225007Y-128762932D01*
X370149204Y-128750179D01*
X370052248Y-128745334D01*
X369970193Y-128744745D01*
X369852635Y-128746079D01*
G36*
X376680293Y-129715500D02*
G01*
X376608943Y-129725084D01*
X376497923Y-129741432D01*
X376352477Y-129763734D01*
X376177847Y-129791179D01*
X375979276Y-129822957D01*
X375762007Y-129858260D01*
X375641382Y-129878069D01*
X375415324Y-129915233D01*
X375204355Y-129949732D01*
X375013864Y-129980697D01*
X374849239Y-130007263D01*
X374715866Y-130028561D01*
X374619133Y-130043723D01*
X374564429Y-130051883D01*
X374554445Y-130053069D01*
X374529762Y-130077050D01*
X374523750Y-130143044D01*
X374536837Y-130245601D01*
X374538642Y-130254822D01*
X374550238Y-130301594D01*
X374570130Y-130323191D01*
X374612869Y-130325989D01*
X374682306Y-130317781D01*
X374809991Y-130300843D01*
X374731901Y-130412684D01*
X374650199Y-130528078D01*
X374558845Y-130654412D01*
X374462702Y-130785258D01*
X374366630Y-130914189D01*
X374275492Y-131034778D01*
X374194150Y-131140598D01*
X374127465Y-131225221D01*
X374080298Y-131282221D01*
X374057512Y-131305169D01*
X374056682Y-131305336D01*
X374035290Y-131286386D01*
X373984395Y-131234263D01*
X373908402Y-131153692D01*
X373811714Y-131049399D01*
X373698734Y-130926108D01*
X373573867Y-130788545D01*
X373537419Y-130748163D01*
X373409847Y-130607880D01*
X373292499Y-130481184D01*
X373189829Y-130372701D01*
X373106294Y-130287056D01*
X373046350Y-130228875D01*
X373014453Y-130202784D01*
X373011135Y-130201864D01*
X372978108Y-130223573D01*
X372926495Y-130268919D01*
X372904082Y-130290853D01*
X372823740Y-130371972D01*
X373354438Y-130956757D01*
X373485146Y-131101948D01*
X373603575Y-131235740D01*
X373705668Y-131353372D01*
X373787369Y-131450080D01*
X373844621Y-131521102D01*
X373873366Y-131561678D01*
X373875893Y-131568827D01*
X373859036Y-131595427D01*
X373815723Y-131657707D01*
X373749708Y-131750441D01*
X373664743Y-131868404D01*
X373564581Y-132006370D01*
X373452975Y-132159114D01*
X373404284Y-132225472D01*
X373270901Y-132406916D01*
X373165192Y-132551861D01*
X373085164Y-132665113D01*
X373028830Y-132751475D01*
X372994198Y-132815753D01*
X372979277Y-132862751D01*
X372982078Y-132897273D01*
X373000611Y-132924124D01*
X373032885Y-132948109D01*
X373076910Y-132974032D01*
X373090835Y-132982152D01*
X373162519Y-133024363D01*
X373617876Y-132402976D01*
X373732068Y-132248169D01*
X373836977Y-132107902D01*
X373928791Y-131987117D01*
X374003698Y-131890756D01*
X374057887Y-131823761D01*
X374087547Y-131791073D01*
X374091647Y-131788692D01*
X374113199Y-131808901D01*
X374163516Y-131861655D01*
X374237566Y-131941505D01*
X374330320Y-132043002D01*
X374436747Y-132160695D01*
X374497203Y-132228028D01*
X374612038Y-132356040D01*
X374718683Y-132474549D01*
X374811377Y-132577182D01*
X374884358Y-132657568D01*
X374931865Y-132709333D01*
X374943563Y-132721765D01*
X375002783Y-132783269D01*
X375103769Y-132692035D01*
X375204754Y-132600800D01*
X374739922Y-132083884D01*
X374617583Y-131947337D01*
X374506834Y-131822768D01*
X374412131Y-131715265D01*
X374337929Y-131629918D01*
X374288683Y-131571815D01*
X374268850Y-131546046D01*
X374268699Y-131545662D01*
X374281452Y-131520308D01*
X374320657Y-131459673D01*
X374382458Y-131369306D01*
X374463000Y-131254759D01*
X374558428Y-131121583D01*
X374664403Y-130975985D01*
X375066496Y-130427613D01*
X374981991Y-130357066D01*
X374897486Y-130286518D01*
X374983398Y-130270445D01*
X375031323Y-130262048D01*
X375121706Y-130246740D01*
X375246818Y-130225811D01*
X375398931Y-130200548D01*
X375570317Y-130172239D01*
X375730371Y-130145925D01*
X375932394Y-130113133D01*
X376089774Y-130088581D01*
X376207951Y-130071704D01*
X376292364Y-130061933D01*
X376348451Y-130058703D01*
X376381652Y-130061445D01*
X376397407Y-130069595D01*
X376400584Y-130076077D01*
X376401706Y-130112878D01*
X376399293Y-130190946D01*
X376393947Y-130300867D01*
X376386269Y-130433224D01*
X376376859Y-130578602D01*
X376366318Y-130727587D01*
X376355246Y-130870763D01*
X376344245Y-130998715D01*
X376336881Y-131074436D01*
X376322000Y-131217541D01*
X376018580Y-131235650D01*
X375715160Y-131253760D01*
X375722766Y-131384938D01*
X375730371Y-131516117D01*
X376019185Y-131507329D01*
X376308000Y-131498542D01*
X376292831Y-131647169D01*
X376284414Y-131727978D01*
X376272002Y-131845026D01*
X376257122Y-131984001D01*
X376241302Y-132130592D01*
X376237627Y-132164465D01*
X376222993Y-132299572D01*
X376210067Y-132419556D01*
X376199977Y-132513905D01*
X376193849Y-132572112D01*
X376192810Y-132582404D01*
X376211599Y-132630932D01*
X376278515Y-132683449D01*
X376289730Y-132690043D01*
X376354180Y-132725041D01*
X376399664Y-132746109D01*
X376409521Y-132748831D01*
X376427366Y-132731737D01*
X376445677Y-132677736D01*
X376464958Y-132583984D01*
X376485712Y-132447638D01*
X376508444Y-132265852D01*
X376530312Y-132067676D01*
X376546452Y-131912286D01*
X376560541Y-131771928D01*
X376571739Y-131655347D01*
X376579209Y-131571286D01*
X376582112Y-131528491D01*
X376582122Y-131527385D01*
X376589265Y-131497679D01*
X376618937Y-131482869D01*
X376683508Y-131478147D01*
X376709250Y-131477978D01*
X376836377Y-131477978D01*
X376836377Y-131198299D01*
X376600997Y-131198299D01*
X376615911Y-131077528D01*
X376623432Y-131005451D01*
X376632714Y-130899226D01*
X376643226Y-130766840D01*
X376654435Y-130616281D01*
X376665809Y-130455539D01*
X376676817Y-130292601D01*
X376686927Y-130135456D01*
X376695607Y-129992092D01*
X376702324Y-129870497D01*
X376706548Y-129778661D01*
X376707746Y-129724570D01*
X376706730Y-129713489D01*
X376680293Y-129715500D01*
G37*
X376680293Y-129715500D02*
X376608943Y-129725084D01*
X376497923Y-129741432D01*
X376352477Y-129763734D01*
X376177847Y-129791179D01*
X375979276Y-129822957D01*
X375762007Y-129858260D01*
X375641382Y-129878069D01*
X375415324Y-129915233D01*
X375204355Y-129949732D01*
X375013864Y-129980697D01*
X374849239Y-130007263D01*
X374715866Y-130028561D01*
X374619133Y-130043723D01*
X374564429Y-130051883D01*
X374554445Y-130053069D01*
X374529762Y-130077050D01*
X374523750Y-130143044D01*
X374536837Y-130245601D01*
X374538642Y-130254822D01*
X374550238Y-130301594D01*
X374570130Y-130323191D01*
X374612869Y-130325989D01*
X374682306Y-130317781D01*
X374809991Y-130300843D01*
X374731901Y-130412684D01*
X374650199Y-130528078D01*
X374558845Y-130654412D01*
X374462702Y-130785258D01*
X374366630Y-130914189D01*
X374275492Y-131034778D01*
X374194150Y-131140598D01*
X374127465Y-131225221D01*
X374080298Y-131282221D01*
X374057512Y-131305169D01*
X374056682Y-131305336D01*
X374035290Y-131286386D01*
X373984395Y-131234263D01*
X373908402Y-131153692D01*
X373811714Y-131049399D01*
X373698734Y-130926108D01*
X373573867Y-130788545D01*
X373537419Y-130748163D01*
X373409847Y-130607880D01*
X373292499Y-130481184D01*
X373189829Y-130372701D01*
X373106294Y-130287056D01*
X373046350Y-130228875D01*
X373014453Y-130202784D01*
X373011135Y-130201864D01*
X372978108Y-130223573D01*
X372926495Y-130268919D01*
X372904082Y-130290853D01*
X372823740Y-130371972D01*
X373354438Y-130956757D01*
X373485146Y-131101948D01*
X373603575Y-131235740D01*
X373705668Y-131353372D01*
X373787369Y-131450080D01*
X373844621Y-131521102D01*
X373873366Y-131561678D01*
X373875893Y-131568827D01*
X373859036Y-131595427D01*
X373815723Y-131657707D01*
X373749708Y-131750441D01*
X373664743Y-131868404D01*
X373564581Y-132006370D01*
X373452975Y-132159114D01*
X373404284Y-132225472D01*
X373270901Y-132406916D01*
X373165192Y-132551861D01*
X373085164Y-132665113D01*
X373028830Y-132751475D01*
X372994198Y-132815753D01*
X372979277Y-132862751D01*
X372982078Y-132897273D01*
X373000611Y-132924124D01*
X373032885Y-132948109D01*
X373076910Y-132974032D01*
X373090835Y-132982152D01*
X373162519Y-133024363D01*
X373617876Y-132402976D01*
X373732068Y-132248169D01*
X373836977Y-132107902D01*
X373928791Y-131987117D01*
X374003698Y-131890756D01*
X374057887Y-131823761D01*
X374087547Y-131791073D01*
X374091647Y-131788692D01*
X374113199Y-131808901D01*
X374163516Y-131861655D01*
X374237566Y-131941505D01*
X374330320Y-132043002D01*
X374436747Y-132160695D01*
X374497203Y-132228028D01*
X374612038Y-132356040D01*
X374718683Y-132474549D01*
X374811377Y-132577182D01*
X374884358Y-132657568D01*
X374931865Y-132709333D01*
X374943563Y-132721765D01*
X375002783Y-132783269D01*
X375103769Y-132692035D01*
X375204754Y-132600800D01*
X374739922Y-132083884D01*
X374617583Y-131947337D01*
X374506834Y-131822768D01*
X374412131Y-131715265D01*
X374337929Y-131629918D01*
X374288683Y-131571815D01*
X374268850Y-131546046D01*
X374268699Y-131545662D01*
X374281452Y-131520308D01*
X374320657Y-131459673D01*
X374382458Y-131369306D01*
X374463000Y-131254759D01*
X374558428Y-131121583D01*
X374664403Y-130975985D01*
X375066496Y-130427613D01*
X374981991Y-130357066D01*
X374897486Y-130286518D01*
X374983398Y-130270445D01*
X375031323Y-130262048D01*
X375121706Y-130246740D01*
X375246818Y-130225811D01*
X375398931Y-130200548D01*
X375570317Y-130172239D01*
X375730371Y-130145925D01*
X375932394Y-130113133D01*
X376089774Y-130088581D01*
X376207951Y-130071704D01*
X376292364Y-130061933D01*
X376348451Y-130058703D01*
X376381652Y-130061445D01*
X376397407Y-130069595D01*
X376400584Y-130076077D01*
X376401706Y-130112878D01*
X376399293Y-130190946D01*
X376393947Y-130300867D01*
X376386269Y-130433224D01*
X376376859Y-130578602D01*
X376366318Y-130727587D01*
X376355246Y-130870763D01*
X376344245Y-130998715D01*
X376336881Y-131074436D01*
X376322000Y-131217541D01*
X376018580Y-131235650D01*
X375715160Y-131253760D01*
X375722766Y-131384938D01*
X375730371Y-131516117D01*
X376019185Y-131507329D01*
X376308000Y-131498542D01*
X376292831Y-131647169D01*
X376284414Y-131727978D01*
X376272002Y-131845026D01*
X376257122Y-131984001D01*
X376241302Y-132130592D01*
X376237627Y-132164465D01*
X376222993Y-132299572D01*
X376210067Y-132419556D01*
X376199977Y-132513905D01*
X376193849Y-132572112D01*
X376192810Y-132582404D01*
X376211599Y-132630932D01*
X376278515Y-132683449D01*
X376289730Y-132690043D01*
X376354180Y-132725041D01*
X376399664Y-132746109D01*
X376409521Y-132748831D01*
X376427366Y-132731737D01*
X376445677Y-132677736D01*
X376464958Y-132583984D01*
X376485712Y-132447638D01*
X376508444Y-132265852D01*
X376530312Y-132067676D01*
X376546452Y-131912286D01*
X376560541Y-131771928D01*
X376571739Y-131655347D01*
X376579209Y-131571286D01*
X376582112Y-131528491D01*
X376582122Y-131527385D01*
X376589265Y-131497679D01*
X376618937Y-131482869D01*
X376683508Y-131478147D01*
X376709250Y-131477978D01*
X376836377Y-131477978D01*
X376836377Y-131198299D01*
X376600997Y-131198299D01*
X376615911Y-131077528D01*
X376623432Y-131005451D01*
X376632714Y-130899226D01*
X376643226Y-130766840D01*
X376654435Y-130616281D01*
X376665809Y-130455539D01*
X376676817Y-130292601D01*
X376686927Y-130135456D01*
X376695607Y-129992092D01*
X376702324Y-129870497D01*
X376706548Y-129778661D01*
X376707746Y-129724570D01*
X376706730Y-129713489D01*
X376680293Y-129715500D01*
G36*
X378809956Y-130571091D02*
G01*
X378798161Y-130575465D01*
X378793206Y-130603886D01*
X378786632Y-130677226D01*
X378778798Y-130789589D01*
X378770060Y-130935083D01*
X378760775Y-131107812D01*
X378751301Y-131301883D01*
X378743284Y-131481115D01*
X378705145Y-132370149D01*
X378758834Y-132383595D01*
X378822197Y-132390678D01*
X378898674Y-132388811D01*
X378948250Y-132381533D01*
X378975349Y-132363049D01*
X378988877Y-132320101D01*
X378997538Y-132241666D01*
X379010251Y-132102751D01*
X379160037Y-132432357D01*
X379231048Y-132588364D01*
X379284014Y-132703483D01*
X379321866Y-132783147D01*
X379347532Y-132832792D01*
X379363944Y-132857853D01*
X379374029Y-132863764D01*
X379380719Y-132855961D01*
X379384003Y-132847818D01*
X379392309Y-132816210D01*
X379410664Y-132740387D01*
X379437814Y-132625709D01*
X379472508Y-132477541D01*
X379513490Y-132301244D01*
X379559509Y-132102183D01*
X379609311Y-131885718D01*
X379634682Y-131775073D01*
X379694160Y-131514104D01*
X379742560Y-131298492D01*
X379780664Y-131124142D01*
X379809254Y-130986963D01*
X379829111Y-130882862D01*
X379841017Y-130807747D01*
X379845753Y-130757523D01*
X379844101Y-130728100D01*
X379837049Y-130715508D01*
X379787151Y-130695088D01*
X379719985Y-130678791D01*
X379656228Y-130670332D01*
X379616558Y-130673425D01*
X379613682Y-130675381D01*
X379604415Y-130702980D01*
X379585484Y-130773628D01*
X379558503Y-130880787D01*
X379525086Y-131017923D01*
X379486849Y-131178498D01*
X379445405Y-131355977D01*
X379443124Y-131365842D01*
X379286862Y-132042007D01*
X379154818Y-131760498D01*
X379022774Y-131478988D01*
X379056122Y-130595022D01*
X378935511Y-130576935D01*
X378861490Y-130569503D01*
X378809956Y-130571091D01*
G37*
X378809956Y-130571091D02*
X378798161Y-130575465D01*
X378793206Y-130603886D01*
X378786632Y-130677226D01*
X378778798Y-130789589D01*
X378770060Y-130935083D01*
X378760775Y-131107812D01*
X378751301Y-131301883D01*
X378743284Y-131481115D01*
X378705145Y-132370149D01*
X378758834Y-132383595D01*
X378822197Y-132390678D01*
X378898674Y-132388811D01*
X378948250Y-132381533D01*
X378975349Y-132363049D01*
X378988877Y-132320101D01*
X378997538Y-132241666D01*
X379010251Y-132102751D01*
X379160037Y-132432357D01*
X379231048Y-132588364D01*
X379284014Y-132703483D01*
X379321866Y-132783147D01*
X379347532Y-132832792D01*
X379363944Y-132857853D01*
X379374029Y-132863764D01*
X379380719Y-132855961D01*
X379384003Y-132847818D01*
X379392309Y-132816210D01*
X379410664Y-132740387D01*
X379437814Y-132625709D01*
X379472508Y-132477541D01*
X379513490Y-132301244D01*
X379559509Y-132102183D01*
X379609311Y-131885718D01*
X379634682Y-131775073D01*
X379694160Y-131514104D01*
X379742560Y-131298492D01*
X379780664Y-131124142D01*
X379809254Y-130986963D01*
X379829111Y-130882862D01*
X379841017Y-130807747D01*
X379845753Y-130757523D01*
X379844101Y-130728100D01*
X379837049Y-130715508D01*
X379787151Y-130695088D01*
X379719985Y-130678791D01*
X379656228Y-130670332D01*
X379616558Y-130673425D01*
X379613682Y-130675381D01*
X379604415Y-130702980D01*
X379585484Y-130773628D01*
X379558503Y-130880787D01*
X379525086Y-131017923D01*
X379486849Y-131178498D01*
X379445405Y-131355977D01*
X379443124Y-131365842D01*
X379286862Y-132042007D01*
X379154818Y-131760498D01*
X379022774Y-131478988D01*
X379056122Y-130595022D01*
X378935511Y-130576935D01*
X378861490Y-130569503D01*
X378809956Y-130571091D01*
G36*
X377207384Y-130764743D02*
G01*
X377084523Y-130835486D01*
X376978845Y-130898645D01*
X376897644Y-130949673D01*
X376848213Y-130984022D01*
X376836377Y-130996063D01*
X376847648Y-131026315D01*
X376875288Y-131082771D01*
X376910035Y-131147714D01*
X376942628Y-131203430D01*
X376953088Y-131219309D01*
X376975925Y-131210460D01*
X377034318Y-131180377D01*
X377119944Y-131133530D01*
X377224484Y-131074390D01*
X377247243Y-131061299D01*
X377535576Y-130894991D01*
X377897888Y-131256076D01*
X378007804Y-131366315D01*
X378104143Y-131464271D01*
X378181527Y-131544364D01*
X378234577Y-131601013D01*
X378257915Y-131628640D01*
X378258542Y-131630202D01*
X378239588Y-131650518D01*
X378188842Y-131696997D01*
X378113535Y-131763204D01*
X378020900Y-131842701D01*
X377997932Y-131862164D01*
X377881382Y-131960801D01*
X377759861Y-132063820D01*
X377648390Y-132158479D01*
X377567779Y-132227094D01*
X377396579Y-132373103D01*
X377203167Y-132218715D01*
X377009756Y-132064327D01*
X376954245Y-132133465D01*
X376906586Y-132193375D01*
X376868520Y-132242115D01*
X376867835Y-132243010D01*
X376860385Y-132263253D01*
X376870597Y-132289570D01*
X376903646Y-132327444D01*
X376964708Y-132382358D01*
X377058958Y-132459797D01*
X377113786Y-132503620D01*
X377214517Y-132583181D01*
X377300389Y-132649947D01*
X377363937Y-132698194D01*
X377397693Y-132722198D01*
X377400995Y-132723824D01*
X377422120Y-132707939D01*
X377477251Y-132662869D01*
X377561762Y-132592498D01*
X377671027Y-132500705D01*
X377800419Y-132391373D01*
X377945311Y-132268384D01*
X378041789Y-132186216D01*
X378672224Y-131648607D01*
X378125308Y-131101690D01*
X377578391Y-130554774D01*
X377207384Y-130764743D01*
G37*
X377207384Y-130764743D02*
X377084523Y-130835486D01*
X376978845Y-130898645D01*
X376897644Y-130949673D01*
X376848213Y-130984022D01*
X376836377Y-130996063D01*
X376847648Y-131026315D01*
X376875288Y-131082771D01*
X376910035Y-131147714D01*
X376942628Y-131203430D01*
X376953088Y-131219309D01*
X376975925Y-131210460D01*
X377034318Y-131180377D01*
X377119944Y-131133530D01*
X377224484Y-131074390D01*
X377247243Y-131061299D01*
X377535576Y-130894991D01*
X377897888Y-131256076D01*
X378007804Y-131366315D01*
X378104143Y-131464271D01*
X378181527Y-131544364D01*
X378234577Y-131601013D01*
X378257915Y-131628640D01*
X378258542Y-131630202D01*
X378239588Y-131650518D01*
X378188842Y-131696997D01*
X378113535Y-131763204D01*
X378020900Y-131842701D01*
X377997932Y-131862164D01*
X377881382Y-131960801D01*
X377759861Y-132063820D01*
X377648390Y-132158479D01*
X377567779Y-132227094D01*
X377396579Y-132373103D01*
X377203167Y-132218715D01*
X377009756Y-132064327D01*
X376954245Y-132133465D01*
X376906586Y-132193375D01*
X376868520Y-132242115D01*
X376867835Y-132243010D01*
X376860385Y-132263253D01*
X376870597Y-132289570D01*
X376903646Y-132327444D01*
X376964708Y-132382358D01*
X377058958Y-132459797D01*
X377113786Y-132503620D01*
X377214517Y-132583181D01*
X377300389Y-132649947D01*
X377363937Y-132698194D01*
X377397693Y-132722198D01*
X377400995Y-132723824D01*
X377422120Y-132707939D01*
X377477251Y-132662869D01*
X377561762Y-132592498D01*
X377671027Y-132500705D01*
X377800419Y-132391373D01*
X377945311Y-132268384D01*
X378041789Y-132186216D01*
X378672224Y-131648607D01*
X378125308Y-131101690D01*
X377578391Y-130554774D01*
X377207384Y-130764743D01*
G36*
X381580557Y-130637616D02*
G01*
X381457847Y-130707691D01*
X381352265Y-130769183D01*
X381271077Y-130817763D01*
X381221549Y-130849102D01*
X381209550Y-130858690D01*
X381221197Y-130891412D01*
X381249387Y-130948459D01*
X381283994Y-131011264D01*
X381314890Y-131061261D01*
X381329957Y-131079457D01*
X381358069Y-131071865D01*
X381420904Y-131042692D01*
X381509522Y-130996422D01*
X381614984Y-130937541D01*
X381629069Y-130929423D01*
X381908749Y-130767653D01*
X382276723Y-131134942D01*
X382401195Y-131259892D01*
X382493046Y-131354296D01*
X382556203Y-131422965D01*
X382594593Y-131470708D01*
X382612144Y-131502336D01*
X382612783Y-131522660D01*
X382603014Y-131534599D01*
X382571578Y-131560486D01*
X382508062Y-131613927D01*
X382418997Y-131689385D01*
X382310914Y-131781326D01*
X382190343Y-131884212D01*
X382164902Y-131905961D01*
X381768473Y-132244955D01*
X381574996Y-132090515D01*
X381381518Y-131936074D01*
X381296297Y-132043768D01*
X381247342Y-132111675D01*
X381230848Y-132153898D01*
X381242095Y-132179575D01*
X381277951Y-132209726D01*
X381340627Y-132260249D01*
X381421062Y-132324065D01*
X381510197Y-132394095D01*
X381598971Y-132463262D01*
X381678323Y-132524485D01*
X381739193Y-132570688D01*
X381772520Y-132594792D01*
X381776006Y-132596697D01*
X381796620Y-132580813D01*
X381851262Y-132535746D01*
X381935324Y-132465377D01*
X382044200Y-132373586D01*
X382173281Y-132264253D01*
X382317962Y-132141259D01*
X382414624Y-132058865D01*
X383044949Y-131521032D01*
X382498257Y-130974339D01*
X381951564Y-130427647D01*
X381580557Y-130637616D01*
G37*
X381580557Y-130637616D02*
X381457847Y-130707691D01*
X381352265Y-130769183D01*
X381271077Y-130817763D01*
X381221549Y-130849102D01*
X381209550Y-130858690D01*
X381221197Y-130891412D01*
X381249387Y-130948459D01*
X381283994Y-131011264D01*
X381314890Y-131061261D01*
X381329957Y-131079457D01*
X381358069Y-131071865D01*
X381420904Y-131042692D01*
X381509522Y-130996422D01*
X381614984Y-130937541D01*
X381629069Y-130929423D01*
X381908749Y-130767653D01*
X382276723Y-131134942D01*
X382401195Y-131259892D01*
X382493046Y-131354296D01*
X382556203Y-131422965D01*
X382594593Y-131470708D01*
X382612144Y-131502336D01*
X382612783Y-131522660D01*
X382603014Y-131534599D01*
X382571578Y-131560486D01*
X382508062Y-131613927D01*
X382418997Y-131689385D01*
X382310914Y-131781326D01*
X382190343Y-131884212D01*
X382164902Y-131905961D01*
X381768473Y-132244955D01*
X381574996Y-132090515D01*
X381381518Y-131936074D01*
X381296297Y-132043768D01*
X381247342Y-132111675D01*
X381230848Y-132153898D01*
X381242095Y-132179575D01*
X381277951Y-132209726D01*
X381340627Y-132260249D01*
X381421062Y-132324065D01*
X381510197Y-132394095D01*
X381598971Y-132463262D01*
X381678323Y-132524485D01*
X381739193Y-132570688D01*
X381772520Y-132594792D01*
X381776006Y-132596697D01*
X381796620Y-132580813D01*
X381851262Y-132535746D01*
X381935324Y-132465377D01*
X382044200Y-132373586D01*
X382173281Y-132264253D01*
X382317962Y-132141259D01*
X382414624Y-132058865D01*
X383044949Y-131521032D01*
X382498257Y-130974339D01*
X381951564Y-130427647D01*
X381580557Y-130637616D01*
G36*
X380476220Y-130489401D02*
G01*
X380407628Y-130550775D01*
X380322687Y-130629828D01*
X380228490Y-130719585D01*
X380132133Y-130813072D01*
X380040711Y-130903317D01*
X379961317Y-130983345D01*
X379901046Y-131046183D01*
X379866994Y-131084856D01*
X379862002Y-131093157D01*
X379878773Y-131120497D01*
X379921373Y-131168582D01*
X379949556Y-131196908D01*
X380037110Y-131281768D01*
X380294005Y-131039427D01*
X380550900Y-130797085D01*
X380796690Y-131058459D01*
X380758454Y-131790553D01*
X380748996Y-131977961D01*
X380741038Y-132148211D01*
X380734829Y-132294879D01*
X380730618Y-132411539D01*
X380728656Y-132491764D01*
X380729192Y-132529129D01*
X380729698Y-132530988D01*
X380758262Y-132539210D01*
X380820183Y-132550706D01*
X380860140Y-132556888D01*
X380940486Y-132564094D01*
X380982152Y-132555032D01*
X380992772Y-132541076D01*
X380997107Y-132508721D01*
X381004225Y-132431599D01*
X381013670Y-132315688D01*
X381024986Y-132166969D01*
X381037717Y-131991422D01*
X381051406Y-131795027D01*
X381064187Y-131605106D01*
X381081223Y-131338553D01*
X381093787Y-131120526D01*
X381101955Y-130948906D01*
X381105801Y-130821572D01*
X381105402Y-130736403D01*
X381100832Y-130691279D01*
X381096820Y-130682927D01*
X381056979Y-130672465D01*
X380986643Y-130668136D01*
X380946064Y-130668873D01*
X380879607Y-130669565D01*
X380831211Y-130659254D01*
X380785563Y-130630157D01*
X380727348Y-130574489D01*
X380695817Y-130541681D01*
X380569217Y-130408967D01*
X380476220Y-130489401D01*
G37*
X380476220Y-130489401D02*
X380407628Y-130550775D01*
X380322687Y-130629828D01*
X380228490Y-130719585D01*
X380132133Y-130813072D01*
X380040711Y-130903317D01*
X379961317Y-130983345D01*
X379901046Y-131046183D01*
X379866994Y-131084856D01*
X379862002Y-131093157D01*
X379878773Y-131120497D01*
X379921373Y-131168582D01*
X379949556Y-131196908D01*
X380037110Y-131281768D01*
X380294005Y-131039427D01*
X380550900Y-130797085D01*
X380796690Y-131058459D01*
X380758454Y-131790553D01*
X380748996Y-131977961D01*
X380741038Y-132148211D01*
X380734829Y-132294879D01*
X380730618Y-132411539D01*
X380728656Y-132491764D01*
X380729192Y-132529129D01*
X380729698Y-132530988D01*
X380758262Y-132539210D01*
X380820183Y-132550706D01*
X380860140Y-132556888D01*
X380940486Y-132564094D01*
X380982152Y-132555032D01*
X380992772Y-132541076D01*
X380997107Y-132508721D01*
X381004225Y-132431599D01*
X381013670Y-132315688D01*
X381024986Y-132166969D01*
X381037717Y-131991422D01*
X381051406Y-131795027D01*
X381064187Y-131605106D01*
X381081223Y-131338553D01*
X381093787Y-131120526D01*
X381101955Y-130948906D01*
X381105801Y-130821572D01*
X381105402Y-130736403D01*
X381100832Y-130691279D01*
X381096820Y-130682927D01*
X381056979Y-130672465D01*
X380986643Y-130668136D01*
X380946064Y-130668873D01*
X380879607Y-130669565D01*
X380831211Y-130659254D01*
X380785563Y-130630157D01*
X380727348Y-130574489D01*
X380695817Y-130541681D01*
X380569217Y-130408967D01*
X380476220Y-130489401D01*
G36*
X372033188Y-131258711D02*
G01*
X371884926Y-131298336D01*
X371766217Y-131374586D01*
X371742403Y-131397711D01*
X371669086Y-131504159D01*
X371644149Y-131616472D01*
X371666003Y-131731088D01*
X371733059Y-131844447D01*
X371843726Y-131952989D01*
X371996417Y-132053151D01*
X372046605Y-132079269D01*
X372204815Y-132141509D01*
X372370835Y-132179064D01*
X372530599Y-132190337D01*
X372670043Y-132173731D01*
X372723814Y-132156155D01*
X372819159Y-132116209D01*
X372819064Y-132184831D01*
X372796386Y-132290699D01*
X372733269Y-132376389D01*
X372636610Y-132440304D01*
X372513307Y-132480843D01*
X372370256Y-132496407D01*
X372214356Y-132485397D01*
X372052502Y-132446213D01*
X371922026Y-132392848D01*
X371807203Y-132326209D01*
X371703404Y-132247422D01*
X371619633Y-132165186D01*
X371564894Y-132088200D01*
X371547888Y-132031382D01*
X371554998Y-131965202D01*
X371571440Y-131891317D01*
X371581836Y-131830239D01*
X371573739Y-131796160D01*
X371572681Y-131795405D01*
X371550928Y-131805431D01*
X371529858Y-131851674D01*
X371512969Y-131919580D01*
X371503758Y-131994594D01*
X371505720Y-132062161D01*
X371506900Y-132069225D01*
X371549352Y-132167294D01*
X371637716Y-132267071D01*
X371767412Y-132364250D01*
X371899039Y-132437818D01*
X372003208Y-132486058D01*
X372089435Y-132515278D01*
X372180177Y-132531076D01*
X372297890Y-132539050D01*
X372306570Y-132539413D01*
X372422000Y-132542101D01*
X372504383Y-132537120D01*
X372571272Y-132521826D01*
X372640224Y-132493571D01*
X372653894Y-132487056D01*
X372772218Y-132408406D01*
X372844397Y-132309250D01*
X372869963Y-132190243D01*
X372870010Y-132184471D01*
X372880880Y-132109186D01*
X372907050Y-132048939D01*
X372907340Y-132048554D01*
X372941223Y-131965103D01*
X372943328Y-131856376D01*
X372939085Y-131838394D01*
X372892744Y-131838394D01*
X372886922Y-131941415D01*
X372835528Y-132024320D01*
X372737645Y-132090023D01*
X372734475Y-132091526D01*
X372662462Y-132119199D01*
X372587186Y-132131435D01*
X372488738Y-132130747D01*
X372445814Y-132127969D01*
X372334959Y-132114720D01*
X372227088Y-132093488D01*
X372153422Y-132071586D01*
X371999003Y-131997193D01*
X371872172Y-131908408D01*
X371776575Y-131810698D01*
X371715857Y-131709525D01*
X371693660Y-131610355D01*
X371713631Y-131518651D01*
X371749966Y-131466677D01*
X371803929Y-131422876D01*
X371839035Y-131424535D01*
X371852872Y-131471373D01*
X371852993Y-131478594D01*
X371873858Y-131539131D01*
X371929507Y-131612293D01*
X372009523Y-131687408D01*
X372103491Y-131753808D01*
X372143097Y-131775764D01*
X372316056Y-131835974D01*
X372437778Y-131852874D01*
X372534921Y-131856678D01*
X372601116Y-131849168D01*
X372655692Y-131826638D01*
X372690954Y-131804333D01*
X372751315Y-131750996D01*
X372791069Y-131693695D01*
X372795625Y-131681096D01*
X372807494Y-131643807D01*
X372819841Y-131642868D01*
X372840711Y-131682592D01*
X372853911Y-131712347D01*
X372892744Y-131838394D01*
X372939085Y-131838394D01*
X372914872Y-131735789D01*
X372870170Y-131638485D01*
X372775697Y-131514220D01*
X372484958Y-131514220D01*
X372478963Y-131527487D01*
X372464704Y-131528829D01*
X372430227Y-131510363D01*
X372425245Y-131503695D01*
X372429338Y-131489247D01*
X372449170Y-131493703D01*
X372484958Y-131514220D01*
X372775697Y-131514220D01*
X372754803Y-131486738D01*
X372738948Y-131474401D01*
X372510406Y-131474401D01*
X372491742Y-131477978D01*
X372459247Y-131460468D01*
X372434535Y-131435678D01*
X372413912Y-131407491D01*
X372428572Y-131409364D01*
X372456847Y-131423860D01*
X372504657Y-131455336D01*
X372510406Y-131474401D01*
X372738948Y-131474401D01*
X372605198Y-131370333D01*
X372426250Y-131292138D01*
X372222853Y-131255022D01*
X372215058Y-131254483D01*
X372033188Y-131258711D01*
G37*
X372033188Y-131258711D02*
X371884926Y-131298336D01*
X371766217Y-131374586D01*
X371742403Y-131397711D01*
X371669086Y-131504159D01*
X371644149Y-131616472D01*
X371666003Y-131731088D01*
X371733059Y-131844447D01*
X371843726Y-131952989D01*
X371996417Y-132053151D01*
X372046605Y-132079269D01*
X372204815Y-132141509D01*
X372370835Y-132179064D01*
X372530599Y-132190337D01*
X372670043Y-132173731D01*
X372723814Y-132156155D01*
X372819159Y-132116209D01*
X372819064Y-132184831D01*
X372796386Y-132290699D01*
X372733269Y-132376389D01*
X372636610Y-132440304D01*
X372513307Y-132480843D01*
X372370256Y-132496407D01*
X372214356Y-132485397D01*
X372052502Y-132446213D01*
X371922026Y-132392848D01*
X371807203Y-132326209D01*
X371703404Y-132247422D01*
X371619633Y-132165186D01*
X371564894Y-132088200D01*
X371547888Y-132031382D01*
X371554998Y-131965202D01*
X371571440Y-131891317D01*
X371581836Y-131830239D01*
X371573739Y-131796160D01*
X371572681Y-131795405D01*
X371550928Y-131805431D01*
X371529858Y-131851674D01*
X371512969Y-131919580D01*
X371503758Y-131994594D01*
X371505720Y-132062161D01*
X371506900Y-132069225D01*
X371549352Y-132167294D01*
X371637716Y-132267071D01*
X371767412Y-132364250D01*
X371899039Y-132437818D01*
X372003208Y-132486058D01*
X372089435Y-132515278D01*
X372180177Y-132531076D01*
X372297890Y-132539050D01*
X372306570Y-132539413D01*
X372422000Y-132542101D01*
X372504383Y-132537120D01*
X372571272Y-132521826D01*
X372640224Y-132493571D01*
X372653894Y-132487056D01*
X372772218Y-132408406D01*
X372844397Y-132309250D01*
X372869963Y-132190243D01*
X372870010Y-132184471D01*
X372880880Y-132109186D01*
X372907050Y-132048939D01*
X372907340Y-132048554D01*
X372941223Y-131965103D01*
X372943328Y-131856376D01*
X372939085Y-131838394D01*
X372892744Y-131838394D01*
X372886922Y-131941415D01*
X372835528Y-132024320D01*
X372737645Y-132090023D01*
X372734475Y-132091526D01*
X372662462Y-132119199D01*
X372587186Y-132131435D01*
X372488738Y-132130747D01*
X372445814Y-132127969D01*
X372334959Y-132114720D01*
X372227088Y-132093488D01*
X372153422Y-132071586D01*
X371999003Y-131997193D01*
X371872172Y-131908408D01*
X371776575Y-131810698D01*
X371715857Y-131709525D01*
X371693660Y-131610355D01*
X371713631Y-131518651D01*
X371749966Y-131466677D01*
X371803929Y-131422876D01*
X371839035Y-131424535D01*
X371852872Y-131471373D01*
X371852993Y-131478594D01*
X371873858Y-131539131D01*
X371929507Y-131612293D01*
X372009523Y-131687408D01*
X372103491Y-131753808D01*
X372143097Y-131775764D01*
X372316056Y-131835974D01*
X372437778Y-131852874D01*
X372534921Y-131856678D01*
X372601116Y-131849168D01*
X372655692Y-131826638D01*
X372690954Y-131804333D01*
X372751315Y-131750996D01*
X372791069Y-131693695D01*
X372795625Y-131681096D01*
X372807494Y-131643807D01*
X372819841Y-131642868D01*
X372840711Y-131682592D01*
X372853911Y-131712347D01*
X372892744Y-131838394D01*
X372939085Y-131838394D01*
X372914872Y-131735789D01*
X372870170Y-131638485D01*
X372775697Y-131514220D01*
X372484958Y-131514220D01*
X372478963Y-131527487D01*
X372464704Y-131528829D01*
X372430227Y-131510363D01*
X372425245Y-131503695D01*
X372429338Y-131489247D01*
X372449170Y-131493703D01*
X372484958Y-131514220D01*
X372775697Y-131514220D01*
X372754803Y-131486738D01*
X372738948Y-131474401D01*
X372510406Y-131474401D01*
X372491742Y-131477978D01*
X372459247Y-131460468D01*
X372434535Y-131435678D01*
X372413912Y-131407491D01*
X372428572Y-131409364D01*
X372456847Y-131423860D01*
X372504657Y-131455336D01*
X372510406Y-131474401D01*
X372738948Y-131474401D01*
X372605198Y-131370333D01*
X372426250Y-131292138D01*
X372222853Y-131255022D01*
X372215058Y-131254483D01*
X372033188Y-131258711D01*
G36*
X371635341Y-130298793D02*
G01*
X371654430Y-130317479D01*
X371684322Y-130331296D01*
X371970485Y-130453579D01*
X372213016Y-130576787D01*
X372419015Y-130705319D01*
X372595583Y-130843575D01*
X372740754Y-130985994D01*
X372893389Y-131179073D01*
X372995853Y-131371050D01*
X373048752Y-131563554D01*
X373052692Y-131758213D01*
X373046301Y-131806164D01*
X373033500Y-131900870D01*
X373034135Y-131947838D01*
X373048636Y-131948488D01*
X373076451Y-131906032D01*
X373093243Y-131849437D01*
X373104530Y-131760027D01*
X373108040Y-131662794D01*
X373104230Y-131559350D01*
X373090451Y-131476306D01*
X373061224Y-131391998D01*
X373013888Y-131290445D01*
X372881389Y-131072362D01*
X372707984Y-130874301D01*
X372519683Y-130713576D01*
X372416310Y-130642480D01*
X372285189Y-130562650D01*
X372140419Y-130481685D01*
X371996096Y-130407185D01*
X371866319Y-130346748D01*
X371770139Y-130309536D01*
X371701488Y-130292719D01*
X371653791Y-130289840D01*
X371635341Y-130298793D01*
G37*
X371635341Y-130298793D02*
X371654430Y-130317479D01*
X371684322Y-130331296D01*
X371970485Y-130453579D01*
X372213016Y-130576787D01*
X372419015Y-130705319D01*
X372595583Y-130843575D01*
X372740754Y-130985994D01*
X372893389Y-131179073D01*
X372995853Y-131371050D01*
X373048752Y-131563554D01*
X373052692Y-131758213D01*
X373046301Y-131806164D01*
X373033500Y-131900870D01*
X373034135Y-131947838D01*
X373048636Y-131948488D01*
X373076451Y-131906032D01*
X373093243Y-131849437D01*
X373104530Y-131760027D01*
X373108040Y-131662794D01*
X373104230Y-131559350D01*
X373090451Y-131476306D01*
X373061224Y-131391998D01*
X373013888Y-131290445D01*
X372881389Y-131072362D01*
X372707984Y-130874301D01*
X372519683Y-130713576D01*
X372416310Y-130642480D01*
X372285189Y-130562650D01*
X372140419Y-130481685D01*
X371996096Y-130407185D01*
X371866319Y-130346748D01*
X371770139Y-130309536D01*
X371701488Y-130292719D01*
X371653791Y-130289840D01*
X371635341Y-130298793D01*
G36*
X367488224Y-130370285D02*
G01*
X367485538Y-130386695D01*
X367492807Y-130473179D01*
X367528617Y-130585524D01*
X367587718Y-130711590D01*
X367664858Y-130839240D01*
X367706228Y-130896824D01*
X367803159Y-131013430D01*
X367924855Y-131144265D01*
X368056712Y-131274747D01*
X368184126Y-131390292D01*
X368270408Y-131460200D01*
X368340031Y-131506420D01*
X368385255Y-131525844D01*
X368400480Y-131519749D01*
X368380104Y-131489408D01*
X368331572Y-131446273D01*
X368214206Y-131346701D01*
X368088306Y-131229338D01*
X367963082Y-131103809D01*
X367847742Y-130979736D01*
X367751495Y-130866740D01*
X367683552Y-130774446D01*
X367674263Y-130759474D01*
X367618100Y-130654814D01*
X367567031Y-130542464D01*
X367536875Y-130460961D01*
X367512412Y-130387213D01*
X367497202Y-130358444D01*
X367488224Y-130370285D01*
G37*
X367488224Y-130370285D02*
X367485538Y-130386695D01*
X367492807Y-130473179D01*
X367528617Y-130585524D01*
X367587718Y-130711590D01*
X367664858Y-130839240D01*
X367706228Y-130896824D01*
X367803159Y-131013430D01*
X367924855Y-131144265D01*
X368056712Y-131274747D01*
X368184126Y-131390292D01*
X368270408Y-131460200D01*
X368340031Y-131506420D01*
X368385255Y-131525844D01*
X368400480Y-131519749D01*
X368380104Y-131489408D01*
X368331572Y-131446273D01*
X368214206Y-131346701D01*
X368088306Y-131229338D01*
X367963082Y-131103809D01*
X367847742Y-130979736D01*
X367751495Y-130866740D01*
X367683552Y-130774446D01*
X367674263Y-130759474D01*
X367618100Y-130654814D01*
X367567031Y-130542464D01*
X367536875Y-130460961D01*
X367512412Y-130387213D01*
X367497202Y-130358444D01*
X367488224Y-130370285D01*
G36*
X379520793Y-130093546D02*
G01*
X379510694Y-130136317D01*
X379506396Y-130220674D01*
X379506046Y-130267551D01*
X379507543Y-130371232D01*
X379517373Y-130431825D01*
X379543542Y-130457092D01*
X379594057Y-130454795D01*
X379676529Y-130432811D01*
X379762862Y-130386545D01*
X379819891Y-130313237D01*
X379836577Y-130241231D01*
X379826670Y-130204508D01*
X379789742Y-130175270D01*
X379714979Y-130145440D01*
X379703093Y-130141484D01*
X379622887Y-130114893D01*
X379560367Y-130093771D01*
X379537828Y-130085869D01*
X379520793Y-130093546D01*
G37*
X379520793Y-130093546D02*
X379510694Y-130136317D01*
X379506396Y-130220674D01*
X379506046Y-130267551D01*
X379507543Y-130371232D01*
X379517373Y-130431825D01*
X379543542Y-130457092D01*
X379594057Y-130454795D01*
X379676529Y-130432811D01*
X379762862Y-130386545D01*
X379819891Y-130313237D01*
X379836577Y-130241231D01*
X379826670Y-130204508D01*
X379789742Y-130175270D01*
X379714979Y-130145440D01*
X379703093Y-130141484D01*
X379622887Y-130114893D01*
X379560367Y-130093771D01*
X379537828Y-130085869D01*
X379520793Y-130093546D01*
G36*
X379141725Y-130142206D02*
G01*
X379052389Y-130151497D01*
X378986358Y-130159304D01*
X378956569Y-130164084D01*
X378956057Y-130164363D01*
X378953334Y-130201145D01*
X378969081Y-130263217D01*
X378996681Y-130331640D01*
X379029514Y-130387472D01*
X379037243Y-130396686D01*
X379102267Y-130444814D01*
X379171084Y-130462962D01*
X379229386Y-130450684D01*
X379262862Y-130407535D01*
X379263815Y-130403754D01*
X379277293Y-130342805D01*
X379295024Y-130260739D01*
X379300428Y-130235402D01*
X379324050Y-130124256D01*
X379141725Y-130142206D01*
G37*
X379141725Y-130142206D02*
X379052389Y-130151497D01*
X378986358Y-130159304D01*
X378956569Y-130164084D01*
X378956057Y-130164363D01*
X378953334Y-130201145D01*
X378969081Y-130263217D01*
X378996681Y-130331640D01*
X379029514Y-130387472D01*
X379037243Y-130396686D01*
X379102267Y-130444814D01*
X379171084Y-130462962D01*
X379229386Y-130450684D01*
X379262862Y-130407535D01*
X379263815Y-130403754D01*
X379277293Y-130342805D01*
X379295024Y-130260739D01*
X379300428Y-130235402D01*
X379324050Y-130124256D01*
X379141725Y-130142206D01*
G36*
X367552416Y-130099425D02*
G01*
X367529917Y-130131840D01*
X367511632Y-130181921D01*
X367512835Y-130215198D01*
X367530527Y-130218946D01*
X367546722Y-130203139D01*
X367578890Y-130150056D01*
X367593257Y-130103449D01*
X367585096Y-130080053D01*
X367581618Y-130079580D01*
X367552416Y-130099425D01*
G37*
X367552416Y-130099425D02*
X367529917Y-130131840D01*
X367511632Y-130181921D01*
X367512835Y-130215198D01*
X367530527Y-130218946D01*
X367546722Y-130203139D01*
X367578890Y-130150056D01*
X367593257Y-130103449D01*
X367585096Y-130080053D01*
X367581618Y-130079580D01*
X367552416Y-130099425D01*
G36*
X368250176Y-129784422D02*
G01*
X368143186Y-129804568D01*
X368027054Y-129833321D01*
X367911357Y-129868254D01*
X367805667Y-129906940D01*
X367719560Y-129946951D01*
X367662608Y-129985861D01*
X367654976Y-129993992D01*
X367633263Y-130028096D01*
X367647903Y-130035912D01*
X367701178Y-130017137D01*
X367784925Y-129976808D01*
X367879732Y-129937155D01*
X368002371Y-129897527D01*
X368134826Y-129862599D01*
X368259080Y-129837048D01*
X368357114Y-129825550D01*
X368368638Y-129825326D01*
X368410532Y-129814876D01*
X368420561Y-129799900D01*
X368398438Y-129779661D01*
X368338451Y-129775310D01*
X368250176Y-129784422D01*
G37*
X368250176Y-129784422D02*
X368143186Y-129804568D01*
X368027054Y-129833321D01*
X367911357Y-129868254D01*
X367805667Y-129906940D01*
X367719560Y-129946951D01*
X367662608Y-129985861D01*
X367654976Y-129993992D01*
X367633263Y-130028096D01*
X367647903Y-130035912D01*
X367701178Y-130017137D01*
X367784925Y-129976808D01*
X367879732Y-129937155D01*
X368002371Y-129897527D01*
X368134826Y-129862599D01*
X368259080Y-129837048D01*
X368357114Y-129825550D01*
X368368638Y-129825326D01*
X368410532Y-129814876D01*
X368420561Y-129799900D01*
X368398438Y-129779661D01*
X368338451Y-129775310D01*
X368250176Y-129784422D01*
G36*
X369566230Y-130317404D02*
G01*
X369564705Y-130330178D01*
X369581683Y-130370585D01*
X369625430Y-130432723D01*
X369685164Y-130504031D01*
X369750106Y-130571949D01*
X369809475Y-130623918D01*
X369827524Y-130636376D01*
X369947044Y-130681662D01*
X370076617Y-130680698D01*
X370162203Y-130654131D01*
X370212278Y-130625386D01*
X370263575Y-130586426D01*
X370304703Y-130547687D01*
X370324271Y-130519606D01*
X370317531Y-130511812D01*
X370286739Y-130522874D01*
X370226970Y-130551250D01*
X370180309Y-130575376D01*
X370100084Y-130612098D01*
X370028295Y-130635057D01*
X370000141Y-130638939D01*
X369909847Y-130616020D01*
X369811519Y-130551436D01*
X369714119Y-130451450D01*
X369693014Y-130424400D01*
X369629454Y-130346825D01*
X369586626Y-130310743D01*
X369566230Y-130317404D01*
G37*
X369566230Y-130317404D02*
X369564705Y-130330178D01*
X369581683Y-130370585D01*
X369625430Y-130432723D01*
X369685164Y-130504031D01*
X369750106Y-130571949D01*
X369809475Y-130623918D01*
X369827524Y-130636376D01*
X369947044Y-130681662D01*
X370076617Y-130680698D01*
X370162203Y-130654131D01*
X370212278Y-130625386D01*
X370263575Y-130586426D01*
X370304703Y-130547687D01*
X370324271Y-130519606D01*
X370317531Y-130511812D01*
X370286739Y-130522874D01*
X370226970Y-130551250D01*
X370180309Y-130575376D01*
X370100084Y-130612098D01*
X370028295Y-130635057D01*
X370000141Y-130638939D01*
X369909847Y-130616020D01*
X369811519Y-130551436D01*
X369714119Y-130451450D01*
X369693014Y-130424400D01*
X369629454Y-130346825D01*
X369586626Y-130310743D01*
X369566230Y-130317404D01*
G36*
X370185329Y-129757897D02*
G01*
X370141893Y-129830447D01*
X370109821Y-129938190D01*
X370091762Y-130075944D01*
X370088966Y-130143144D01*
X370085926Y-130321122D01*
X370166195Y-130328913D01*
X370211709Y-130330067D01*
X370242069Y-130315485D01*
X370267653Y-130274568D01*
X370298838Y-130196717D01*
X370300828Y-130191405D01*
X370333409Y-130076070D01*
X370348311Y-129960160D01*
X370345676Y-129856308D01*
X370325649Y-129777147D01*
X370295686Y-129739099D01*
X370237477Y-129725720D01*
X370185329Y-129757897D01*
G37*
X370185329Y-129757897D02*
X370141893Y-129830447D01*
X370109821Y-129938190D01*
X370091762Y-130075944D01*
X370088966Y-130143144D01*
X370085926Y-130321122D01*
X370166195Y-130328913D01*
X370211709Y-130330067D01*
X370242069Y-130315485D01*
X370267653Y-130274568D01*
X370298838Y-130196717D01*
X370300828Y-130191405D01*
X370333409Y-130076070D01*
X370348311Y-129960160D01*
X370345676Y-129856308D01*
X370325649Y-129777147D01*
X370295686Y-129739099D01*
X370237477Y-129725720D01*
X370185329Y-129757897D01*
G36*
X369784241Y-129652779D02*
G01*
X369739404Y-129712104D01*
X369717834Y-129772335D01*
X369676578Y-129945968D01*
X369658527Y-130077585D01*
X369664093Y-130170632D01*
X369693687Y-130228549D01*
X369747722Y-130254780D01*
X369775894Y-130257169D01*
X369819453Y-130232622D01*
X369864727Y-130160052D01*
X369871382Y-130145512D01*
X369902555Y-130054144D01*
X369927806Y-129943648D01*
X369936795Y-129881824D01*
X369943571Y-129793069D01*
X369938575Y-129737548D01*
X369918626Y-129698375D01*
X369897932Y-129675470D01*
X369838469Y-129639822D01*
X369784241Y-129652779D01*
G37*
X369784241Y-129652779D02*
X369739404Y-129712104D01*
X369717834Y-129772335D01*
X369676578Y-129945968D01*
X369658527Y-130077585D01*
X369664093Y-130170632D01*
X369693687Y-130228549D01*
X369747722Y-130254780D01*
X369775894Y-130257169D01*
X369819453Y-130232622D01*
X369864727Y-130160052D01*
X369871382Y-130145512D01*
X369902555Y-130054144D01*
X369927806Y-129943648D01*
X369936795Y-129881824D01*
X369943571Y-129793069D01*
X369938575Y-129737548D01*
X369918626Y-129698375D01*
X369897932Y-129675470D01*
X369838469Y-129639822D01*
X369784241Y-129652779D01*
%TD*%
M02*
