%TF.GenerationSoftware,KiCad,Pcbnew,(5.1.7)-1*%
%TF.CreationDate,2021-06-08T12:08:24-05:00*%
%TF.ProjectId,FOURSES TARPTERGE,464f5552-5345-4532-9054-415250544552,rev?*%
%TF.SameCoordinates,Original*%
%TF.FileFunction,Copper,L1,Top*%
%TF.FilePolarity,Positive*%
%FSLAX46Y46*%
G04 Gerber Fmt 4.6, Leading zero omitted, Abs format (unit mm)*
G04 Created by KiCad (PCBNEW (5.1.7)-1) date 2021-06-08 12:08:24*
%MOMM*%
%LPD*%
G01*
G04 APERTURE LIST*
%TA.AperFunction,ComponentPad*%
%ADD10O,1.600000X1.600000*%
%TD*%
%TA.AperFunction,ComponentPad*%
%ADD11C,1.600000*%
%TD*%
%TA.AperFunction,ComponentPad*%
%ADD12C,3.524001*%
%TD*%
%TA.AperFunction,ComponentPad*%
%ADD13C,5.800000*%
%TD*%
%TA.AperFunction,ComponentPad*%
%ADD14C,0.100000*%
%TD*%
%TA.AperFunction,ComponentPad*%
%ADD15C,3.240000*%
%TD*%
%TA.AperFunction,ComponentPad*%
%ADD16C,1.800000*%
%TD*%
%TA.AperFunction,ComponentPad*%
%ADD17C,1.500000*%
%TD*%
%TA.AperFunction,ComponentPad*%
%ADD18R,1.800000X1.800000*%
%TD*%
%TA.AperFunction,ComponentPad*%
%ADD19O,1.740000X2.190000*%
%TD*%
%TA.AperFunction,ViaPad*%
%ADD20C,0.800000*%
%TD*%
%TA.AperFunction,Conductor*%
%ADD21C,0.635000*%
%TD*%
G04 APERTURE END LIST*
D10*
%TO.P,REF\u002A\u002A,2*%
%TO.N,N/C*%
X457270000Y-64000000D03*
D11*
%TO.P,REF\u002A\u002A,1*%
X457270000Y-56380000D03*
%TD*%
%TO.P,REF\u002A\u002A,1*%
%TO.N,N/C*%
X396920000Y-100630000D03*
%TO.P,REF\u002A\u002A,2*%
%TA.AperFunction,ComponentPad*%
G36*
G01*
X399693944Y-94399620D02*
X399693944Y-94399620D01*
G75*
G02*
X399288497Y-93343395I325389J730836D01*
G01*
X399288497Y-93343395D01*
G75*
G02*
X400344722Y-92937948I730836J-325389D01*
G01*
X400344722Y-92937948D01*
G75*
G02*
X400750169Y-93994173I-325389J-730836D01*
G01*
X400750169Y-93994173D01*
G75*
G02*
X399693944Y-94399620I-730836J325389D01*
G01*
G37*
%TD.AperFunction*%
%TD*%
%TO.P,REF\u002A\u002A,2*%
%TO.N,N/C*%
%TA.AperFunction,ComponentPad*%
G36*
G01*
X392567101Y-106864210D02*
X392567101Y-106864210D01*
G75*
G02*
X393675760Y-106638651I667109J-441550D01*
G01*
X393675760Y-106638651D01*
G75*
G02*
X393901319Y-107747310I-441550J-667109D01*
G01*
X393901319Y-107747310D01*
G75*
G02*
X392792660Y-107972869I-667109J441550D01*
G01*
X392792660Y-107972869D01*
G75*
G02*
X392567101Y-106864210I441550J667109D01*
G01*
G37*
%TD.AperFunction*%
%TO.P,REF\u002A\u002A,1*%
X386880000Y-103100000D03*
%TD*%
%TO.P,REF\u002A\u002A,2*%
%TO.N,N/C*%
%TA.AperFunction,ComponentPad*%
G36*
G01*
X404077440Y-43395881D02*
X404077440Y-43395881D01*
G75*
G02*
X404351144Y-44493645I-412030J-685734D01*
G01*
X404351144Y-44493645D01*
G75*
G02*
X403253380Y-44767349I-685734J412030D01*
G01*
X403253380Y-44767349D01*
G75*
G02*
X402979676Y-43669585I412030J685734D01*
G01*
X402979676Y-43669585D01*
G75*
G02*
X404077440Y-43395881I685734J-412030D01*
G01*
G37*
%TD.AperFunction*%
%TO.P,REF\u002A\u002A,1*%
X407590000Y-37550000D03*
%TD*%
%TO.P,REF\u002A\u002A,1*%
%TO.N,N/C*%
X361630000Y-23480000D03*
%TO.P,REF\u002A\u002A,2*%
%TA.AperFunction,ComponentPad*%
G36*
G01*
X356807531Y-28302469D02*
X356807531Y-28302469D01*
G75*
G02*
X356807531Y-29433839I-565685J-565685D01*
G01*
X356807531Y-29433839D01*
G75*
G02*
X355676161Y-29433839I-565685J565685D01*
G01*
X355676161Y-29433839D01*
G75*
G02*
X355676161Y-28302469I565685J565685D01*
G01*
X355676161Y-28302469D01*
G75*
G02*
X356807531Y-28302469I565685J-565685D01*
G01*
G37*
%TD.AperFunction*%
%TD*%
%TO.P,REF\u002A\u002A,2*%
%TO.N,N/C*%
%TA.AperFunction,ComponentPad*%
G36*
G01*
X359407521Y-69408053D02*
X359407521Y-69408053D01*
G75*
G02*
X359299084Y-70534216I-617300J-508863D01*
G01*
X359299084Y-70534216D01*
G75*
G02*
X358172921Y-70425779I-508863J617300D01*
G01*
X358172921Y-70425779D01*
G75*
G02*
X358281358Y-69299616I617300J508863D01*
G01*
X358281358Y-69299616D01*
G75*
G02*
X359407521Y-69408053I508863J-617300D01*
G01*
G37*
%TD.AperFunction*%
%TO.P,REF\u002A\u002A,1*%
X364670000Y-65070000D03*
%TD*%
%TO.P,REF\u002A\u002A,2*%
%TO.N,N/C*%
%TA.AperFunction,ComponentPad*%
G36*
G01*
X397068104Y-117448414D02*
X397068104Y-117448414D01*
G75*
G02*
X398097608Y-116979242I749338J-280166D01*
G01*
X398097608Y-116979242D01*
G75*
G02*
X398566780Y-118008746I-280166J-749338D01*
G01*
X398566780Y-118008746D01*
G75*
G02*
X397537276Y-118477918I-749338J280166D01*
G01*
X397537276Y-118477918D01*
G75*
G02*
X397068104Y-117448414I280166J749338D01*
G01*
G37*
%TD.AperFunction*%
%TO.P,REF\u002A\u002A,1*%
X390680000Y-115060000D03*
%TD*%
%TO.P,REF\u002A\u002A,2*%
%TO.N,N/C*%
%TA.AperFunction,ComponentPad*%
G36*
G01*
X444512479Y-74291947D02*
X444512479Y-74291947D01*
G75*
G02*
X444620916Y-73165784I617300J508863D01*
G01*
X444620916Y-73165784D01*
G75*
G02*
X445747079Y-73274221I508863J-617300D01*
G01*
X445747079Y-73274221D01*
G75*
G02*
X445638642Y-74400384I-617300J-508863D01*
G01*
X445638642Y-74400384D01*
G75*
G02*
X444512479Y-74291947I-508863J617300D01*
G01*
G37*
%TD.AperFunction*%
%TO.P,REF\u002A\u002A,1*%
X439250000Y-78630000D03*
%TD*%
%TO.P,REF\u002A\u002A,2*%
%TO.N,N/C*%
%TA.AperFunction,ComponentPad*%
G36*
G01*
X375517744Y-117231019D02*
X375517744Y-117231019D01*
G75*
G02*
X375904695Y-118294160I-338095J-725046D01*
G01*
X375904695Y-118294160D01*
G75*
G02*
X374841554Y-118681111I-725046J338095D01*
G01*
X374841554Y-118681111D01*
G75*
G02*
X374454603Y-117617970I338095J725046D01*
G01*
X374454603Y-117617970D01*
G75*
G02*
X375517744Y-117231019I725046J-338095D01*
G01*
G37*
%TD.AperFunction*%
%TO.P,REF\u002A\u002A,1*%
X378400000Y-111050000D03*
%TD*%
%TO.P,REF\u002A\u002A,2*%
%TO.N,N/C*%
%TA.AperFunction,ComponentPad*%
G36*
G01*
X411292899Y-37005790D02*
X411292899Y-37005790D01*
G75*
G02*
X410184240Y-37231349I-667109J441550D01*
G01*
X410184240Y-37231349D01*
G75*
G02*
X409958681Y-36122690I441550J667109D01*
G01*
X409958681Y-36122690D01*
G75*
G02*
X411067340Y-35897131I667109J-441550D01*
G01*
X411067340Y-35897131D01*
G75*
G02*
X411292899Y-37005790I-441550J-667109D01*
G01*
G37*
%TD.AperFunction*%
%TO.P,REF\u002A\u002A,1*%
X416980000Y-40770000D03*
%TD*%
%TO.P,REF\u002A\u002A,1*%
%TO.N,N/C*%
X441100000Y-95420000D03*
%TO.P,REF\u002A\u002A,2*%
%TA.AperFunction,ComponentPad*%
G36*
G01*
X447281019Y-98302256D02*
X447281019Y-98302256D01*
G75*
G02*
X448344160Y-97915305I725046J-338095D01*
G01*
X448344160Y-97915305D01*
G75*
G02*
X448731111Y-98978446I-338095J-725046D01*
G01*
X448731111Y-98978446D01*
G75*
G02*
X447667970Y-99365397I-725046J338095D01*
G01*
X447667970Y-99365397D01*
G75*
G02*
X447281019Y-98302256I338095J725046D01*
G01*
G37*
%TD.AperFunction*%
%TD*%
%TO.P,REF\u002A\u002A,1*%
%TO.N,N/C*%
X420020000Y-44710000D03*
%TO.P,REF\u002A\u002A,2*%
%TA.AperFunction,ComponentPad*%
G36*
G01*
X418953117Y-51446034D02*
X418953117Y-51446034D01*
G75*
G02*
X419618120Y-52361333I-125148J-790151D01*
G01*
X419618120Y-52361333D01*
G75*
G02*
X418702821Y-53026336I-790151J125148D01*
G01*
X418702821Y-53026336D01*
G75*
G02*
X418037818Y-52111037I125148J790151D01*
G01*
X418037818Y-52111037D01*
G75*
G02*
X418953117Y-51446034I790151J-125148D01*
G01*
G37*
%TD.AperFunction*%
%TD*%
%TO.P,REF\u002A\u002A,2*%
%TO.N,N/C*%
X362057653Y-84147044D03*
%TO.P,REF\u002A\u002A,1*%
X360690094Y-80925277D03*
%TD*%
%TO.P,REF\u002A\u002A,2*%
%TO.N,N/C*%
%TA.AperFunction,ComponentPad*%
G36*
G01*
X370557109Y-63150541D02*
X370557109Y-63150541D01*
G75*
G02*
X370763285Y-64262967I-453125J-659301D01*
G01*
X370763285Y-64262967D01*
G75*
G02*
X369650859Y-64469143I-659301J453125D01*
G01*
X369650859Y-64469143D01*
G75*
G02*
X369444683Y-63356717I453125J659301D01*
G01*
X369444683Y-63356717D01*
G75*
G02*
X370557109Y-63150541I659301J-453125D01*
G01*
G37*
%TD.AperFunction*%
%TO.P,REF\u002A\u002A,1*%
X374420000Y-57530000D03*
%TD*%
%TO.P,REF\u002A\u002A,1*%
%TO.N,N/C*%
X420390000Y-39540000D03*
%TO.P,REF\u002A\u002A,2*%
%TA.AperFunction,ComponentPad*%
G36*
G01*
X414702899Y-35775790D02*
X414702899Y-35775790D01*
G75*
G02*
X413594240Y-36001349I-667109J441550D01*
G01*
X413594240Y-36001349D01*
G75*
G02*
X413368681Y-34892690I441550J667109D01*
G01*
X413368681Y-34892690D01*
G75*
G02*
X414477340Y-34667131I667109J-441550D01*
G01*
X414477340Y-34667131D01*
G75*
G02*
X414702899Y-35775790I-441550J-667109D01*
G01*
G37*
%TD.AperFunction*%
%TD*%
%TO.P,REF\u002A\u002A,1*%
%TO.N,N/C*%
X373210000Y-64030000D03*
%TO.P,REF\u002A\u002A,2*%
%TA.AperFunction,ComponentPad*%
G36*
G01*
X379946034Y-65096883D02*
X379946034Y-65096883D01*
G75*
G02*
X380861333Y-64431880I790151J-125148D01*
G01*
X380861333Y-64431880D01*
G75*
G02*
X381526336Y-65347179I-125148J-790151D01*
G01*
X381526336Y-65347179D01*
G75*
G02*
X380611037Y-66012182I-790151J125148D01*
G01*
X380611037Y-66012182D01*
G75*
G02*
X379946034Y-65096883I125148J790151D01*
G01*
G37*
%TD.AperFunction*%
%TD*%
%TO.P,REF\u002A\u002A,1*%
%TO.N,N/C*%
X436340000Y-77510000D03*
%TO.P,REF\u002A\u002A,2*%
%TA.AperFunction,ComponentPad*%
G36*
G01*
X430494119Y-73997440D02*
X430494119Y-73997440D01*
G75*
G02*
X429396355Y-74271144I-685734J412030D01*
G01*
X429396355Y-74271144D01*
G75*
G02*
X429122651Y-73173380I412030J685734D01*
G01*
X429122651Y-73173380D01*
G75*
G02*
X430220415Y-72899676I685734J-412030D01*
G01*
X430220415Y-72899676D01*
G75*
G02*
X430494119Y-73997440I-412030J-685734D01*
G01*
G37*
%TD.AperFunction*%
%TD*%
%TO.P,REF\u002A\u002A,2*%
%TO.N,N/C*%
%TA.AperFunction,ComponentPad*%
G36*
G01*
X422423966Y-88913117D02*
X422423966Y-88913117D01*
G75*
G02*
X421508667Y-89578120I-790151J125148D01*
G01*
X421508667Y-89578120D01*
G75*
G02*
X420843664Y-88662821I125148J790151D01*
G01*
X420843664Y-88662821D01*
G75*
G02*
X421758963Y-87997818I790151J-125148D01*
G01*
X421758963Y-87997818D01*
G75*
G02*
X422423966Y-88913117I-125148J-790151D01*
G01*
G37*
%TD.AperFunction*%
%TO.P,REF\u002A\u002A,1*%
X429160000Y-89980000D03*
%TD*%
%TO.P,REF\u002A\u002A,1*%
%TO.N,N/C*%
X395190000Y-109230000D03*
%TO.P,REF\u002A\u002A,2*%
%TA.AperFunction,ComponentPad*%
G36*
G01*
X399528053Y-114492479D02*
X399528053Y-114492479D01*
G75*
G02*
X400654216Y-114600916I508863J-617300D01*
G01*
X400654216Y-114600916D01*
G75*
G02*
X400545779Y-115727079I-617300J-508863D01*
G01*
X400545779Y-115727079D01*
G75*
G02*
X399419616Y-115618642I-508863J617300D01*
G01*
X399419616Y-115618642D01*
G75*
G02*
X399528053Y-114492479I617300J508863D01*
G01*
G37*
%TD.AperFunction*%
%TD*%
%TO.P,REF\u002A\u002A,1*%
%TO.N,N/C*%
X408720000Y-34660000D03*
%TO.P,REF\u002A\u002A,2*%
%TA.AperFunction,ComponentPad*%
G36*
G01*
X404381947Y-29397521D02*
X404381947Y-29397521D01*
G75*
G02*
X403255784Y-29289084I-508863J617300D01*
G01*
X403255784Y-29289084D01*
G75*
G02*
X403364221Y-28162921I617300J508863D01*
G01*
X403364221Y-28162921D01*
G75*
G02*
X404490384Y-28271358I508863J-617300D01*
G01*
X404490384Y-28271358D01*
G75*
G02*
X404381947Y-29397521I-617300J-508863D01*
G01*
G37*
%TD.AperFunction*%
%TD*%
%TO.P,REF\u002A\u002A,1*%
%TO.N,N/C*%
X406775000Y-114640000D03*
%TO.P,REF\u002A\u002A,2*%
X401114678Y-109719557D03*
%TD*%
%TO.P,REF\u002A\u002A,1*%
%TO.N,N/C*%
X436930000Y-91370000D03*
%TO.P,REF\u002A\u002A,2*%
%TA.AperFunction,ComponentPad*%
G36*
G01*
X440890395Y-85817732D02*
X440890395Y-85817732D01*
G75*
G02*
X440703665Y-84701878I464562J651292D01*
G01*
X440703665Y-84701878D01*
G75*
G02*
X441819519Y-84515148I651292J-464562D01*
G01*
X441819519Y-84515148D01*
G75*
G02*
X442006249Y-85631002I-464562J-651292D01*
G01*
X442006249Y-85631002D01*
G75*
G02*
X440890395Y-85817732I-651292J464562D01*
G01*
G37*
%TD.AperFunction*%
%TD*%
%TO.P,REF\u002A\u002A,2*%
%TO.N,N/C*%
%TA.AperFunction,ComponentPad*%
G36*
G01*
X433402891Y-80619459D02*
X433402891Y-80619459D01*
G75*
G02*
X433196715Y-79507033I453125J659301D01*
G01*
X433196715Y-79507033D01*
G75*
G02*
X434309141Y-79300857I659301J-453125D01*
G01*
X434309141Y-79300857D01*
G75*
G02*
X434515317Y-80413283I-453125J-659301D01*
G01*
X434515317Y-80413283D01*
G75*
G02*
X433402891Y-80619459I-659301J453125D01*
G01*
G37*
%TD.AperFunction*%
%TO.P,REF\u002A\u002A,1*%
X429540000Y-86240000D03*
%TD*%
%TO.P,REF\u002A\u002A,1*%
%TO.N,N/C*%
X441390000Y-40620000D03*
%TO.P,REF\u002A\u002A,2*%
%TA.AperFunction,ComponentPad*%
G36*
G01*
X446377832Y-45271229D02*
X446377832Y-45271229D01*
G75*
G02*
X447508514Y-45231745I585083J-545599D01*
G01*
X447508514Y-45231745D01*
G75*
G02*
X447547998Y-46362427I-545599J-585083D01*
G01*
X447547998Y-46362427D01*
G75*
G02*
X446417316Y-46401911I-585083J545599D01*
G01*
X446417316Y-46401911D01*
G75*
G02*
X446377832Y-45271229I545599J585083D01*
G01*
G37*
%TD.AperFunction*%
%TD*%
%TO.P,REF\u002A\u002A,1*%
%TO.N,N/C*%
X367030000Y-52400000D03*
%TO.P,REF\u002A\u002A,2*%
%TA.AperFunction,ComponentPad*%
G36*
G01*
X363069605Y-57952268D02*
X363069605Y-57952268D01*
G75*
G02*
X363256335Y-59068122I-464562J-651292D01*
G01*
X363256335Y-59068122D01*
G75*
G02*
X362140481Y-59254852I-651292J464562D01*
G01*
X362140481Y-59254852D01*
G75*
G02*
X361953751Y-58138998I464562J651292D01*
G01*
X361953751Y-58138998D01*
G75*
G02*
X363069605Y-57952268I651292J-464562D01*
G01*
G37*
%TD.AperFunction*%
%TD*%
%TO.P,REF\u002A\u002A,2*%
%TO.N,N/C*%
%TA.AperFunction,ComponentPad*%
G36*
G01*
X379410380Y-69613944D02*
X379410380Y-69613944D01*
G75*
G02*
X380466605Y-69208497I730836J-325389D01*
G01*
X380466605Y-69208497D01*
G75*
G02*
X380872052Y-70264722I-325389J-730836D01*
G01*
X380872052Y-70264722D01*
G75*
G02*
X379815827Y-70670169I-730836J325389D01*
G01*
X379815827Y-70670169D01*
G75*
G02*
X379410380Y-69613944I325389J730836D01*
G01*
G37*
%TD.AperFunction*%
%TO.P,REF\u002A\u002A,1*%
X373180000Y-66840000D03*
%TD*%
%TO.P,REF\u002A\u002A,1*%
%TO.N,N/C*%
X406970000Y-43180000D03*
%TO.P,REF\u002A\u002A,2*%
%TA.AperFunction,ComponentPad*%
G36*
G01*
X404196056Y-49410380D02*
X404196056Y-49410380D01*
G75*
G02*
X404601503Y-50466605I-325389J-730836D01*
G01*
X404601503Y-50466605D01*
G75*
G02*
X403545278Y-50872052I-730836J325389D01*
G01*
X403545278Y-50872052D01*
G75*
G02*
X403139831Y-49815827I325389J730836D01*
G01*
X403139831Y-49815827D01*
G75*
G02*
X404196056Y-49410380I730836J-325389D01*
G01*
G37*
%TD.AperFunction*%
%TD*%
%TO.P,REF\u002A\u002A,2*%
%TO.N,N/C*%
%TA.AperFunction,ComponentPad*%
G36*
G01*
X406841896Y-26441586D02*
X406841896Y-26441586D01*
G75*
G02*
X405812392Y-26910758I-749338J280166D01*
G01*
X405812392Y-26910758D01*
G75*
G02*
X405343220Y-25881254I280166J749338D01*
G01*
X405343220Y-25881254D01*
G75*
G02*
X406372724Y-25412082I749338J-280166D01*
G01*
X406372724Y-25412082D01*
G75*
G02*
X406841896Y-26441586I-280166J-749338D01*
G01*
G37*
%TD.AperFunction*%
%TO.P,REF\u002A\u002A,1*%
X413230000Y-28830000D03*
%TD*%
%TO.P,REF\u002A\u002A,2*%
%TO.N,N/C*%
%TA.AperFunction,ComponentPad*%
G36*
G01*
X438114210Y-84652899D02*
X438114210Y-84652899D01*
G75*
G02*
X437888651Y-83544240I441550J667109D01*
G01*
X437888651Y-83544240D01*
G75*
G02*
X438997310Y-83318681I667109J-441550D01*
G01*
X438997310Y-83318681D01*
G75*
G02*
X439222869Y-84427340I-441550J-667109D01*
G01*
X439222869Y-84427340D01*
G75*
G02*
X438114210Y-84652899I-667109J441550D01*
G01*
G37*
%TD.AperFunction*%
%TO.P,REF\u002A\u002A,1*%
X434350000Y-90340000D03*
%TD*%
%TO.P,REF\u002A\u002A,2*%
%TO.N,N/C*%
%TA.AperFunction,ComponentPad*%
G36*
G01*
X387992268Y-110870395D02*
X387992268Y-110870395D01*
G75*
G02*
X389108122Y-110683665I651292J-464562D01*
G01*
X389108122Y-110683665D01*
G75*
G02*
X389294852Y-111799519I-464562J-651292D01*
G01*
X389294852Y-111799519D01*
G75*
G02*
X388178998Y-111986249I-651292J464562D01*
G01*
X388178998Y-111986249D01*
G75*
G02*
X387992268Y-110870395I464562J651292D01*
G01*
G37*
%TD.AperFunction*%
%TO.P,REF\u002A\u002A,1*%
X382440000Y-106910000D03*
%TD*%
%TO.P,REF\u002A\u002A,1*%
%TO.N,N/C*%
X362490000Y-103190000D03*
%TO.P,REF\u002A\u002A,2*%
%TA.AperFunction,ComponentPad*%
G36*
G01*
X357502168Y-98538771D02*
X357502168Y-98538771D01*
G75*
G02*
X356371486Y-98578255I-585083J545599D01*
G01*
X356371486Y-98578255D01*
G75*
G02*
X356332002Y-97447573I545599J585083D01*
G01*
X356332002Y-97447573D01*
G75*
G02*
X357462684Y-97408089I585083J-545599D01*
G01*
X357462684Y-97408089D01*
G75*
G02*
X357502168Y-98538771I-545599J-585083D01*
G01*
G37*
%TD.AperFunction*%
%TD*%
%TO.P,REF\u002A\u002A,2*%
%TO.N,N/C*%
%TA.AperFunction,ComponentPad*%
G36*
G01*
X350484175Y-104048329D02*
X350484175Y-104048329D01*
G75*
G02*
X350181829Y-105138553I-696285J-393939D01*
G01*
X350181829Y-105138553D01*
G75*
G02*
X349091605Y-104836207I-393939J696285D01*
G01*
X349091605Y-104836207D01*
G75*
G02*
X349393951Y-103745983I696285J393939D01*
G01*
X349393951Y-103745983D01*
G75*
G02*
X350484175Y-104048329I393939J-696285D01*
G01*
G37*
%TD.AperFunction*%
%TO.P,REF\u002A\u002A,1*%
X356420000Y-100690000D03*
%TD*%
%TO.P,REF\u002A\u002A,2*%
%TO.N,N/C*%
%TA.AperFunction,ComponentPad*%
G36*
G01*
X428352256Y-26568981D02*
X428352256Y-26568981D01*
G75*
G02*
X427965305Y-25505840I338095J725046D01*
G01*
X427965305Y-25505840D01*
G75*
G02*
X429028446Y-25118889I725046J-338095D01*
G01*
X429028446Y-25118889D01*
G75*
G02*
X429415397Y-26182030I-338095J-725046D01*
G01*
X429415397Y-26182030D01*
G75*
G02*
X428352256Y-26568981I-725046J338095D01*
G01*
G37*
%TD.AperFunction*%
%TO.P,REF\u002A\u002A,1*%
X425470000Y-32750000D03*
%TD*%
%TO.P,REF\u002A\u002A,2*%
%TO.N,N/C*%
%TA.AperFunction,ComponentPad*%
G36*
G01*
X358332469Y-117062469D02*
X358332469Y-117062469D01*
G75*
G02*
X359463839Y-117062469I565685J-565685D01*
G01*
X359463839Y-117062469D01*
G75*
G02*
X359463839Y-118193839I-565685J-565685D01*
G01*
X359463839Y-118193839D01*
G75*
G02*
X358332469Y-118193839I-565685J565685D01*
G01*
X358332469Y-118193839D01*
G75*
G02*
X358332469Y-117062469I565685J565685D01*
G01*
G37*
%TD.AperFunction*%
%TO.P,REF\u002A\u002A,1*%
X353510000Y-112240000D03*
%TD*%
%TO.P,REF\u002A\u002A,1*%
%TO.N,N/C*%
X363360000Y-77310000D03*
%TO.P,REF\u002A\u002A,2*%
%TA.AperFunction,ComponentPad*%
G36*
G01*
X369590380Y-80083944D02*
X369590380Y-80083944D01*
G75*
G02*
X370646605Y-79678497I730836J-325389D01*
G01*
X370646605Y-79678497D01*
G75*
G02*
X371052052Y-80734722I-325389J-730836D01*
G01*
X371052052Y-80734722D01*
G75*
G02*
X369995827Y-81140169I-730836J325389D01*
G01*
X369995827Y-81140169D01*
G75*
G02*
X369590380Y-80083944I325389J730836D01*
G01*
G37*
%TD.AperFunction*%
%TD*%
%TO.P,REF\u002A\u002A,2*%
%TO.N,N/C*%
%TA.AperFunction,ComponentPad*%
G36*
G01*
X365845790Y-59117101D02*
X365845790Y-59117101D01*
G75*
G02*
X366071349Y-60225760I-441550J-667109D01*
G01*
X366071349Y-60225760D01*
G75*
G02*
X364962690Y-60451319I-667109J441550D01*
G01*
X364962690Y-60451319D01*
G75*
G02*
X364737131Y-59342660I441550J667109D01*
G01*
X364737131Y-59342660D01*
G75*
G02*
X365845790Y-59117101I667109J-441550D01*
G01*
G37*
%TD.AperFunction*%
%TO.P,REF\u002A\u002A,1*%
X369610000Y-53430000D03*
%TD*%
%TO.P,REF\u002A\u002A,1*%
%TO.N,N/C*%
X383470000Y-104330000D03*
%TO.P,REF\u002A\u002A,2*%
%TA.AperFunction,ComponentPad*%
G36*
G01*
X389157101Y-108094210D02*
X389157101Y-108094210D01*
G75*
G02*
X390265760Y-107868651I667109J-441550D01*
G01*
X390265760Y-107868651D01*
G75*
G02*
X390491319Y-108977310I-441550J-667109D01*
G01*
X390491319Y-108977310D01*
G75*
G02*
X389382660Y-109202869I-667109J441550D01*
G01*
X389382660Y-109202869D01*
G75*
G02*
X389157101Y-108094210I441550J667109D01*
G01*
G37*
%TD.AperFunction*%
%TD*%
%TO.P,REF\u002A\u002A,2*%
%TO.N,N/C*%
%TA.AperFunction,ComponentPad*%
G36*
G01*
X415867732Y-32999605D02*
X415867732Y-32999605D01*
G75*
G02*
X414751878Y-33186335I-651292J464562D01*
G01*
X414751878Y-33186335D01*
G75*
G02*
X414565148Y-32070481I464562J651292D01*
G01*
X414565148Y-32070481D01*
G75*
G02*
X415681002Y-31883751I651292J-464562D01*
G01*
X415681002Y-31883751D01*
G75*
G02*
X415867732Y-32999605I-464562J-651292D01*
G01*
G37*
%TD.AperFunction*%
%TO.P,REF\u002A\u002A,1*%
X421420000Y-36960000D03*
%TD*%
%TO.P,REF\u002A\u002A,1*%
%TO.N,N/C*%
X367550000Y-66220000D03*
%TO.P,REF\u002A\u002A,2*%
%TA.AperFunction,ComponentPad*%
G36*
G01*
X373395881Y-69732560D02*
X373395881Y-69732560D01*
G75*
G02*
X374493645Y-69458856I685734J-412030D01*
G01*
X374493645Y-69458856D01*
G75*
G02*
X374767349Y-70556620I-412030J-685734D01*
G01*
X374767349Y-70556620D01*
G75*
G02*
X373669585Y-70830324I-685734J412030D01*
G01*
X373669585Y-70830324D01*
G75*
G02*
X373395881Y-69732560I412030J685734D01*
G01*
G37*
%TD.AperFunction*%
%TD*%
%TO.P,REF\u002A\u002A,2*%
%TO.N,N/C*%
%TA.AperFunction,ComponentPad*%
G36*
G01*
X453435825Y-39771671D02*
X453435825Y-39771671D01*
G75*
G02*
X453738171Y-38681447I696285J393939D01*
G01*
X453738171Y-38681447D01*
G75*
G02*
X454828395Y-38983793I393939J-696285D01*
G01*
X454828395Y-38983793D01*
G75*
G02*
X454526049Y-40074017I-696285J-393939D01*
G01*
X454526049Y-40074017D01*
G75*
G02*
X453435825Y-39771671I-393939J696285D01*
G01*
G37*
%TD.AperFunction*%
%TO.P,REF\u002A\u002A,1*%
X447500000Y-43130000D03*
%TD*%
%TO.P,REF\u002A\u002A,2*%
%TO.N,N/C*%
%TA.AperFunction,ComponentPad*%
G36*
G01*
X445487531Y-26757531D02*
X445487531Y-26757531D01*
G75*
G02*
X444356161Y-26757531I-565685J565685D01*
G01*
X444356161Y-26757531D01*
G75*
G02*
X444356161Y-25626161I565685J565685D01*
G01*
X444356161Y-25626161D01*
G75*
G02*
X445487531Y-25626161I565685J-565685D01*
G01*
X445487531Y-25626161D01*
G75*
G02*
X445487531Y-26757531I-565685J-565685D01*
G01*
G37*
%TD.AperFunction*%
%TO.P,REF\u002A\u002A,1*%
X450310000Y-31580000D03*
%TD*%
%TO.P,REF\u002A\u002A,1*%
%TO.N,N/C*%
X362790000Y-48400000D03*
%TO.P,REF\u002A\u002A,2*%
%TA.AperFunction,ComponentPad*%
G36*
G01*
X356608981Y-45517744D02*
X356608981Y-45517744D01*
G75*
G02*
X355545840Y-45904695I-725046J338095D01*
G01*
X355545840Y-45904695D01*
G75*
G02*
X355158889Y-44841554I338095J725046D01*
G01*
X355158889Y-44841554D01*
G75*
G02*
X356222030Y-44454603I725046J-338095D01*
G01*
X356222030Y-44454603D01*
G75*
G02*
X356608981Y-45517744I-338095J-725046D01*
G01*
G37*
%TD.AperFunction*%
%TD*%
%TO.P,REF\u002A\u002A,1*%
%TO.N,N/C*%
X370840000Y-56840000D03*
%TO.P,REF\u002A\u002A,2*%
%TA.AperFunction,ComponentPad*%
G36*
G01*
X367075790Y-62527101D02*
X367075790Y-62527101D01*
G75*
G02*
X367301349Y-63635760I-441550J-667109D01*
G01*
X367301349Y-63635760D01*
G75*
G02*
X366192690Y-63861319I-667109J441550D01*
G01*
X366192690Y-63861319D01*
G75*
G02*
X365967131Y-62752660I441550J667109D01*
G01*
X365967131Y-62752660D01*
G75*
G02*
X367075790Y-62527101I667109J-441550D01*
G01*
G37*
%TD.AperFunction*%
%TD*%
%TO.P,REF\u002A\u002A,1*%
%TO.N,N/C*%
X416290000Y-44350000D03*
%TO.P,REF\u002A\u002A,2*%
%TA.AperFunction,ComponentPad*%
G36*
G01*
X410669459Y-40487109D02*
X410669459Y-40487109D01*
G75*
G02*
X409557033Y-40693285I-659301J453125D01*
G01*
X409557033Y-40693285D01*
G75*
G02*
X409350857Y-39580859I453125J659301D01*
G01*
X409350857Y-39580859D01*
G75*
G02*
X410463283Y-39374683I659301J-453125D01*
G01*
X410463283Y-39374683D01*
G75*
G02*
X410669459Y-40487109I-453125J-659301D01*
G01*
G37*
%TD.AperFunction*%
%TD*%
D12*
%TO.P,REF\u002A\u002A,1*%
%TO.N,N/C*%
X349465455Y-71696119D03*
%TO.P,REF\u002A\u002A,2*%
X349875000Y-67015000D03*
%TO.P,REF\u002A\u002A,3*%
X350284545Y-62333881D03*
%TD*%
D13*
%TO.P,REF\u002A\u002A,*%
%TO.N,*%
X338250000Y-127450000D03*
%TD*%
%TO.P,REF\u002A\u002A,*%
%TO.N,*%
X338250000Y-46950000D03*
%TD*%
D11*
%TO.P,REF\u002A\u002A,1*%
%TO.N,N/C*%
X443259906Y-62579723D03*
%TO.P,REF\u002A\u002A,2*%
X441892347Y-59357956D03*
%TD*%
D13*
%TO.P,REF\u002A\u002A,*%
%TO.N,*%
X338250000Y-81450000D03*
%TD*%
%TO.P,REF\u002A\u002A,*%
%TO.N,*%
X377920000Y-138540000D03*
%TD*%
%TO.P,REF\u002A\u002A,*%
%TO.N,*%
X341140000Y-15010000D03*
%TD*%
%TO.P,REF\u002A\u002A,*%
%TO.N,*%
X338250000Y-23950000D03*
%TD*%
D11*
%TO.P,REF\u002A\u002A,1*%
%TO.N,N/C*%
X359325000Y-76115000D03*
%TO.P,REF\u002A\u002A,2*%
X364245443Y-70454678D03*
%TD*%
D13*
%TO.P,REF\u002A\u002A,*%
%TO.N,*%
X338250000Y-35450000D03*
%TD*%
D11*
%TO.P,REF\u002A\u002A,1*%
%TO.N,N/C*%
X387570000Y-99520000D03*
%TO.P,REF\u002A\u002A,2*%
%TA.AperFunction,ComponentPad*%
G36*
G01*
X393190541Y-103382891D02*
X393190541Y-103382891D01*
G75*
G02*
X394302967Y-103176715I659301J-453125D01*
G01*
X394302967Y-103176715D01*
G75*
G02*
X394509143Y-104289141I-453125J-659301D01*
G01*
X394509143Y-104289141D01*
G75*
G02*
X393396717Y-104495317I-659301J453125D01*
G01*
X393396717Y-104495317D01*
G75*
G02*
X393190541Y-103382891I453125J659301D01*
G01*
G37*
%TD.AperFunction*%
%TD*%
%TO.P,REF\u002A\u002A,1*%
%TO.N,N/C*%
X433120000Y-86930000D03*
%TO.P,REF\u002A\u002A,2*%
%TA.AperFunction,ComponentPad*%
G36*
G01*
X436884210Y-81242899D02*
X436884210Y-81242899D01*
G75*
G02*
X436658651Y-80134240I441550J667109D01*
G01*
X436658651Y-80134240D01*
G75*
G02*
X437767310Y-79908681I667109J-441550D01*
G01*
X437767310Y-79908681D01*
G75*
G02*
X437992869Y-81017340I-441550J-667109D01*
G01*
X437992869Y-81017340D01*
G75*
G02*
X436884210Y-81242899I-667109J441550D01*
G01*
G37*
%TD.AperFunction*%
%TD*%
D12*
%TO.P,REF\u002A\u002A,3*%
%TO.N,N/C*%
X453665455Y-81171119D03*
%TO.P,REF\u002A\u002A,2*%
X454075000Y-76490000D03*
%TO.P,REF\u002A\u002A,1*%
X454484545Y-71808881D03*
%TD*%
D13*
%TO.P,REF\u002A\u002A,*%
%TO.N,*%
X338250000Y-69950000D03*
%TD*%
%TO.P,REF\u002A\u002A,*%
%TO.N,*%
X338250000Y-92950000D03*
%TD*%
%TO.P,REF\u002A\u002A,*%
%TO.N,*%
X338250000Y-115950000D03*
%TD*%
%TO.P,REF\u002A\u002A,*%
%TO.N,*%
X354920000Y-138540000D03*
%TD*%
%TO.P,REF\u002A\u002A,*%
%TO.N,*%
X410920000Y-138540000D03*
%TD*%
%TO.P,REF\u002A\u002A,*%
%TO.N,*%
X346850000Y-7270000D03*
%TD*%
%TO.P,REF\u002A\u002A,*%
%TO.N,*%
X465520000Y-52870000D03*
%TD*%
%TO.P,REF\u002A\u002A,*%
%TO.N,*%
X338250000Y-104450000D03*
%TD*%
%TO.P,REF\u002A\u002A,*%
%TO.N,*%
X461440000Y-130370000D03*
%TD*%
D11*
%TO.P,REF\u002A\u002A,2*%
%TO.N,N/C*%
X439704557Y-73050322D03*
%TO.P,REF\u002A\u002A,1*%
X444625000Y-67390000D03*
%TD*%
D13*
%TO.P,REF\u002A\u002A,*%
%TO.N,*%
X392850000Y-7270000D03*
%TD*%
D11*
%TO.P,REF\u002A\u002A,1*%
%TO.N,N/C*%
X369470000Y-19700000D03*
%TO.P,REF\u002A\u002A,2*%
%TA.AperFunction,ComponentPad*%
G36*
G01*
X372828329Y-25635825D02*
X372828329Y-25635825D01*
G75*
G02*
X373918553Y-25938171I393939J-696285D01*
G01*
X373918553Y-25938171D01*
G75*
G02*
X373616207Y-27028395I-696285J-393939D01*
G01*
X373616207Y-27028395D01*
G75*
G02*
X372525983Y-26726049I-393939J696285D01*
G01*
X372525983Y-26726049D01*
G75*
G02*
X372828329Y-25635825I696285J393939D01*
G01*
G37*
%TD.AperFunction*%
%TD*%
D13*
%TO.P,REF\u002A\u002A,*%
%TO.N,*%
X465520000Y-121870000D03*
%TD*%
%TO.P,REF\u002A\u002A,*%
%TO.N,*%
X338250000Y-58450000D03*
%TD*%
%TO.P,REF\u002A\u002A,*%
%TO.N,*%
X399420000Y-138540000D03*
%TD*%
%TO.P,REF\u002A\u002A,*%
%TO.N,*%
X465520000Y-18370000D03*
%TD*%
%TO.P,REF\u002A\u002A,*%
%TO.N,*%
X437350000Y-7270000D03*
%TD*%
%TO.P,REF\u002A\u002A,2*%
%TO.N,N/C*%
%TA.AperFunction,ComponentPad*%
G36*
G01*
X396263944Y-34039620D02*
X396263944Y-34039620D01*
G75*
G02*
X395858497Y-32983395I325389J730836D01*
G01*
X395858497Y-32983395D01*
G75*
G02*
X396914722Y-32577948I730836J-325389D01*
G01*
X396914722Y-32577948D01*
G75*
G02*
X397320169Y-33634173I-325389J-730836D01*
G01*
X397320169Y-33634173D01*
G75*
G02*
X396263944Y-34039620I-730836J325389D01*
G01*
G37*
%TD.AperFunction*%
D11*
%TO.P,REF\u002A\u002A,1*%
X393490000Y-40270000D03*
%TD*%
%TO.P,REF\u002A\u002A,1*%
%TO.N,N/C*%
X440520000Y-66600000D03*
%TO.P,REF\u002A\u002A,2*%
%TA.AperFunction,ComponentPad*%
G36*
G01*
X434289620Y-63826056D02*
X434289620Y-63826056D01*
G75*
G02*
X433233395Y-64231503I-730836J325389D01*
G01*
X433233395Y-64231503D01*
G75*
G02*
X432827948Y-63175278I325389J730836D01*
G01*
X432827948Y-63175278D01*
G75*
G02*
X433884173Y-62769831I730836J-325389D01*
G01*
X433884173Y-62769831D01*
G75*
G02*
X434289620Y-63826056I-325389J-730836D01*
G01*
G37*
%TD.AperFunction*%
%TD*%
D13*
%TO.P,REF\u002A\u002A,*%
%TO.N,*%
X366420000Y-138540000D03*
%TD*%
%TO.P,REF\u002A\u002A,*%
%TO.N,*%
X358350000Y-7270000D03*
%TD*%
%TO.P,REF\u002A\u002A,*%
%TO.N,*%
X465520000Y-64370000D03*
%TD*%
%TO.P,REF\u002A\u002A,*%
%TO.N,*%
X433920000Y-138540000D03*
%TD*%
%TO.P,REF\u002A\u002A,*%
%TO.N,*%
X445420000Y-138540000D03*
%TD*%
%TO.P,REF\u002A\u002A,*%
%TO.N,*%
X414350000Y-7270000D03*
%TD*%
%TO.P,REF\u002A\u002A,*%
%TO.N,*%
X389420000Y-138540000D03*
%TD*%
%TO.P,REF\u002A\u002A,*%
%TO.N,*%
X345760000Y-134420000D03*
%TD*%
%TO.P,REF\u002A\u002A,*%
%TO.N,*%
X465520000Y-75870000D03*
%TD*%
%TO.P,REF\u002A\u002A,*%
%TO.N,*%
X448850000Y-7270000D03*
%TD*%
%TO.P,REF\u002A\u002A,*%
%TO.N,*%
X465520000Y-110370000D03*
%TD*%
%TO.P,REF\u002A\u002A,*%
%TO.N,*%
X404350000Y-7270000D03*
%TD*%
%TO.P,REF\u002A\u002A,*%
%TO.N,*%
X369850000Y-7270000D03*
%TD*%
%TO.P,REF\u002A\u002A,*%
%TO.N,*%
X465520000Y-87370000D03*
%TD*%
%TO.P,REF\u002A\u002A,*%
%TO.N,*%
X425850000Y-7270000D03*
%TD*%
%TO.P,REF\u002A\u002A,*%
%TO.N,*%
X465520000Y-29870000D03*
%TD*%
%TO.P,REF\u002A\u002A,*%
%TO.N,*%
X422420000Y-138540000D03*
%TD*%
%TO.P,REF\u002A\u002A,*%
%TO.N,*%
X456920000Y-138540000D03*
%TD*%
%TO.P,REF\u002A\u002A,*%
%TO.N,*%
X465520000Y-41370000D03*
%TD*%
%TO.P,REF\u002A\u002A,*%
%TO.N,*%
X381350000Y-7270000D03*
%TD*%
%TO.P,REF\u002A\u002A,*%
%TO.N,*%
X465520000Y-98870000D03*
%TD*%
%TO.P,REF\u002A\u002A,*%
%TO.N,*%
X457520000Y-12050000D03*
%TD*%
%TO.P,REF\u002A\u002A,8*%
%TO.N,N/C*%
%TA.AperFunction,ComponentPad*%
G36*
G01*
X417702516Y-124143508D02*
X417702516Y-124143508D01*
G75*
G02*
X418466859Y-124977643I-34896J-799239D01*
G01*
X418466859Y-124977643D01*
G75*
G02*
X417632724Y-125741986I-799239J34896D01*
G01*
X417632724Y-125741986D01*
G75*
G02*
X416868381Y-124907851I34896J799239D01*
G01*
X416868381Y-124907851D01*
G75*
G02*
X417702516Y-124143508I799239J-34896D01*
G01*
G37*
%TD.AperFunction*%
%TO.P,REF\u002A\u002A,4*%
%TA.AperFunction,ComponentPad*%
G36*
G01*
X410422149Y-116198381D02*
X410422149Y-116198381D01*
G75*
G02*
X411186492Y-117032516I-34896J-799239D01*
G01*
X411186492Y-117032516D01*
G75*
G02*
X410352357Y-117796859I-799239J34896D01*
G01*
X410352357Y-117796859D01*
G75*
G02*
X409588014Y-116962724I34896J799239D01*
G01*
X409588014Y-116962724D01*
G75*
G02*
X410422149Y-116198381I799239J-34896D01*
G01*
G37*
%TD.AperFunction*%
%TO.P,REF\u002A\u002A,7*%
%TA.AperFunction,ComponentPad*%
G36*
G01*
X415164934Y-124032715D02*
X415164934Y-124032715D01*
G75*
G02*
X415929277Y-124866850I-34896J-799239D01*
G01*
X415929277Y-124866850D01*
G75*
G02*
X415095142Y-125631193I-799239J34896D01*
G01*
X415095142Y-125631193D01*
G75*
G02*
X414330799Y-124797058I34896J799239D01*
G01*
X414330799Y-124797058D01*
G75*
G02*
X415164934Y-124032715I799239J-34896D01*
G01*
G37*
%TD.AperFunction*%
%TO.P,REF\u002A\u002A,3*%
%TA.AperFunction,ComponentPad*%
G36*
G01*
X412959731Y-116309175D02*
X412959731Y-116309175D01*
G75*
G02*
X413724074Y-117143310I-34896J-799239D01*
G01*
X413724074Y-117143310D01*
G75*
G02*
X412889939Y-117907653I-799239J34896D01*
G01*
X412889939Y-117907653D01*
G75*
G02*
X412125596Y-117073518I34896J799239D01*
G01*
X412125596Y-117073518D01*
G75*
G02*
X412959731Y-116309175I799239J-34896D01*
G01*
G37*
%TD.AperFunction*%
%TO.P,REF\u002A\u002A,6*%
%TA.AperFunction,ComponentPad*%
G36*
G01*
X412627351Y-123921922D02*
X412627351Y-123921922D01*
G75*
G02*
X413391694Y-124756057I-34896J-799239D01*
G01*
X413391694Y-124756057D01*
G75*
G02*
X412557559Y-125520400I-799239J34896D01*
G01*
X412557559Y-125520400D01*
G75*
G02*
X411793216Y-124686265I34896J799239D01*
G01*
X411793216Y-124686265D01*
G75*
G02*
X412627351Y-123921922I799239J-34896D01*
G01*
G37*
%TD.AperFunction*%
%TO.P,REF\u002A\u002A,2*%
%TA.AperFunction,ComponentPad*%
G36*
G01*
X415497314Y-116419968D02*
X415497314Y-116419968D01*
G75*
G02*
X416261657Y-117254103I-34896J-799239D01*
G01*
X416261657Y-117254103D01*
G75*
G02*
X415427522Y-118018446I-799239J34896D01*
G01*
X415427522Y-118018446D01*
G75*
G02*
X414663179Y-117184311I34896J799239D01*
G01*
X414663179Y-117184311D01*
G75*
G02*
X415497314Y-116419968I799239J-34896D01*
G01*
G37*
%TD.AperFunction*%
%TO.P,REF\u002A\u002A,5*%
%TA.AperFunction,ComponentPad*%
G36*
G01*
X410089769Y-123811129D02*
X410089769Y-123811129D01*
G75*
G02*
X410854112Y-124645264I-34896J-799239D01*
G01*
X410854112Y-124645264D01*
G75*
G02*
X410019977Y-125409607I-799239J34896D01*
G01*
X410019977Y-125409607D01*
G75*
G02*
X409255634Y-124575472I34896J799239D01*
G01*
X409255634Y-124575472D01*
G75*
G02*
X410089769Y-123811129I799239J-34896D01*
G01*
G37*
%TD.AperFunction*%
%TA.AperFunction,ComponentPad*%
D14*
%TO.P,REF\u002A\u002A,1*%
G36*
X417235657Y-116495866D02*
G01*
X418834134Y-116565657D01*
X418764343Y-118164134D01*
X417165866Y-118094343D01*
X417235657Y-116495866D01*
G37*
%TD.AperFunction*%
%TD*%
D15*
%TO.P,REF\u002A\u002A,*%
%TO.N,*%
X413263045Y-67629646D03*
X406474820Y-60841421D03*
D16*
%TO.P,REF\u002A\u002A,3*%
%TO.N,N/C*%
X413404466Y-57164466D03*
%TO.P,REF\u002A\u002A,2*%
X415172233Y-58932233D03*
%TA.AperFunction,ComponentPad*%
D14*
%TO.P,REF\u002A\u002A,1*%
G36*
X415667208Y-60700000D02*
G01*
X416940000Y-59427208D01*
X418212792Y-60700000D01*
X416940000Y-61972792D01*
X415667208Y-60700000D01*
G37*
%TD.AperFunction*%
%TD*%
%TA.AperFunction,ComponentPad*%
%TO.P,REF\u002A\u002A,1*%
%TO.N,N/C*%
G36*
X386664343Y-27324134D02*
G01*
X385065866Y-27254343D01*
X385135657Y-25655866D01*
X386734134Y-25725657D01*
X386664343Y-27324134D01*
G37*
%TD.AperFunction*%
%TO.P,REF\u002A\u002A,5*%
%TA.AperFunction,ComponentPad*%
G36*
G01*
X393810231Y-20008871D02*
X393810231Y-20008871D01*
G75*
G02*
X393045888Y-19174736I34896J799239D01*
G01*
X393045888Y-19174736D01*
G75*
G02*
X393880023Y-18410393I799239J-34896D01*
G01*
X393880023Y-18410393D01*
G75*
G02*
X394644366Y-19244528I-34896J-799239D01*
G01*
X394644366Y-19244528D01*
G75*
G02*
X393810231Y-20008871I-799239J34896D01*
G01*
G37*
%TD.AperFunction*%
%TO.P,REF\u002A\u002A,2*%
%TA.AperFunction,ComponentPad*%
G36*
G01*
X388402686Y-27400032D02*
X388402686Y-27400032D01*
G75*
G02*
X387638343Y-26565897I34896J799239D01*
G01*
X387638343Y-26565897D01*
G75*
G02*
X388472478Y-25801554I799239J-34896D01*
G01*
X388472478Y-25801554D01*
G75*
G02*
X389236821Y-26635689I-34896J-799239D01*
G01*
X389236821Y-26635689D01*
G75*
G02*
X388402686Y-27400032I-799239J34896D01*
G01*
G37*
%TD.AperFunction*%
%TO.P,REF\u002A\u002A,6*%
%TA.AperFunction,ComponentPad*%
G36*
G01*
X391272649Y-19898078D02*
X391272649Y-19898078D01*
G75*
G02*
X390508306Y-19063943I34896J799239D01*
G01*
X390508306Y-19063943D01*
G75*
G02*
X391342441Y-18299600I799239J-34896D01*
G01*
X391342441Y-18299600D01*
G75*
G02*
X392106784Y-19133735I-34896J-799239D01*
G01*
X392106784Y-19133735D01*
G75*
G02*
X391272649Y-19898078I-799239J34896D01*
G01*
G37*
%TD.AperFunction*%
%TO.P,REF\u002A\u002A,3*%
%TA.AperFunction,ComponentPad*%
G36*
G01*
X390940269Y-27510825D02*
X390940269Y-27510825D01*
G75*
G02*
X390175926Y-26676690I34896J799239D01*
G01*
X390175926Y-26676690D01*
G75*
G02*
X391010061Y-25912347I799239J-34896D01*
G01*
X391010061Y-25912347D01*
G75*
G02*
X391774404Y-26746482I-34896J-799239D01*
G01*
X391774404Y-26746482D01*
G75*
G02*
X390940269Y-27510825I-799239J34896D01*
G01*
G37*
%TD.AperFunction*%
%TO.P,REF\u002A\u002A,7*%
%TA.AperFunction,ComponentPad*%
G36*
G01*
X388735066Y-19787285D02*
X388735066Y-19787285D01*
G75*
G02*
X387970723Y-18953150I34896J799239D01*
G01*
X387970723Y-18953150D01*
G75*
G02*
X388804858Y-18188807I799239J-34896D01*
G01*
X388804858Y-18188807D01*
G75*
G02*
X389569201Y-19022942I-34896J-799239D01*
G01*
X389569201Y-19022942D01*
G75*
G02*
X388735066Y-19787285I-799239J34896D01*
G01*
G37*
%TD.AperFunction*%
%TO.P,REF\u002A\u002A,4*%
%TA.AperFunction,ComponentPad*%
G36*
G01*
X393477851Y-27621619D02*
X393477851Y-27621619D01*
G75*
G02*
X392713508Y-26787484I34896J799239D01*
G01*
X392713508Y-26787484D01*
G75*
G02*
X393547643Y-26023141I799239J-34896D01*
G01*
X393547643Y-26023141D01*
G75*
G02*
X394311986Y-26857276I-34896J-799239D01*
G01*
X394311986Y-26857276D01*
G75*
G02*
X393477851Y-27621619I-799239J34896D01*
G01*
G37*
%TD.AperFunction*%
%TO.P,REF\u002A\u002A,8*%
%TA.AperFunction,ComponentPad*%
G36*
G01*
X386197484Y-19676492D02*
X386197484Y-19676492D01*
G75*
G02*
X385433141Y-18842357I34896J799239D01*
G01*
X385433141Y-18842357D01*
G75*
G02*
X386267276Y-18078014I799239J-34896D01*
G01*
X386267276Y-18078014D01*
G75*
G02*
X387031619Y-18912149I-34896J-799239D01*
G01*
X387031619Y-18912149D01*
G75*
G02*
X386197484Y-19676492I-799239J34896D01*
G01*
G37*
%TD.AperFunction*%
%TD*%
%TO.P,REF\u002A\u002A,8*%
%TO.N,N/C*%
%TA.AperFunction,ComponentPad*%
G36*
G01*
X454223508Y-56137484D02*
X454223508Y-56137484D01*
G75*
G02*
X455057643Y-55373141I799239J-34896D01*
G01*
X455057643Y-55373141D01*
G75*
G02*
X455821986Y-56207276I-34896J-799239D01*
G01*
X455821986Y-56207276D01*
G75*
G02*
X454987851Y-56971619I-799239J34896D01*
G01*
X454987851Y-56971619D01*
G75*
G02*
X454223508Y-56137484I34896J799239D01*
G01*
G37*
%TD.AperFunction*%
%TO.P,REF\u002A\u002A,4*%
%TA.AperFunction,ComponentPad*%
G36*
G01*
X446278381Y-63417851D02*
X446278381Y-63417851D01*
G75*
G02*
X447112516Y-62653508I799239J-34896D01*
G01*
X447112516Y-62653508D01*
G75*
G02*
X447876859Y-63487643I-34896J-799239D01*
G01*
X447876859Y-63487643D01*
G75*
G02*
X447042724Y-64251986I-799239J34896D01*
G01*
X447042724Y-64251986D01*
G75*
G02*
X446278381Y-63417851I34896J799239D01*
G01*
G37*
%TD.AperFunction*%
%TO.P,REF\u002A\u002A,7*%
%TA.AperFunction,ComponentPad*%
G36*
G01*
X454112715Y-58675066D02*
X454112715Y-58675066D01*
G75*
G02*
X454946850Y-57910723I799239J-34896D01*
G01*
X454946850Y-57910723D01*
G75*
G02*
X455711193Y-58744858I-34896J-799239D01*
G01*
X455711193Y-58744858D01*
G75*
G02*
X454877058Y-59509201I-799239J34896D01*
G01*
X454877058Y-59509201D01*
G75*
G02*
X454112715Y-58675066I34896J799239D01*
G01*
G37*
%TD.AperFunction*%
%TO.P,REF\u002A\u002A,3*%
%TA.AperFunction,ComponentPad*%
G36*
G01*
X446389175Y-60880269D02*
X446389175Y-60880269D01*
G75*
G02*
X447223310Y-60115926I799239J-34896D01*
G01*
X447223310Y-60115926D01*
G75*
G02*
X447987653Y-60950061I-34896J-799239D01*
G01*
X447987653Y-60950061D01*
G75*
G02*
X447153518Y-61714404I-799239J34896D01*
G01*
X447153518Y-61714404D01*
G75*
G02*
X446389175Y-60880269I34896J799239D01*
G01*
G37*
%TD.AperFunction*%
%TO.P,REF\u002A\u002A,6*%
%TA.AperFunction,ComponentPad*%
G36*
G01*
X454001922Y-61212649D02*
X454001922Y-61212649D01*
G75*
G02*
X454836057Y-60448306I799239J-34896D01*
G01*
X454836057Y-60448306D01*
G75*
G02*
X455600400Y-61282441I-34896J-799239D01*
G01*
X455600400Y-61282441D01*
G75*
G02*
X454766265Y-62046784I-799239J34896D01*
G01*
X454766265Y-62046784D01*
G75*
G02*
X454001922Y-61212649I34896J799239D01*
G01*
G37*
%TD.AperFunction*%
%TO.P,REF\u002A\u002A,2*%
%TA.AperFunction,ComponentPad*%
G36*
G01*
X446499968Y-58342686D02*
X446499968Y-58342686D01*
G75*
G02*
X447334103Y-57578343I799239J-34896D01*
G01*
X447334103Y-57578343D01*
G75*
G02*
X448098446Y-58412478I-34896J-799239D01*
G01*
X448098446Y-58412478D01*
G75*
G02*
X447264311Y-59176821I-799239J34896D01*
G01*
X447264311Y-59176821D01*
G75*
G02*
X446499968Y-58342686I34896J799239D01*
G01*
G37*
%TD.AperFunction*%
%TO.P,REF\u002A\u002A,5*%
%TA.AperFunction,ComponentPad*%
G36*
G01*
X453891129Y-63750231D02*
X453891129Y-63750231D01*
G75*
G02*
X454725264Y-62985888I799239J-34896D01*
G01*
X454725264Y-62985888D01*
G75*
G02*
X455489607Y-63820023I-34896J-799239D01*
G01*
X455489607Y-63820023D01*
G75*
G02*
X454655472Y-64584366I-799239J34896D01*
G01*
X454655472Y-64584366D01*
G75*
G02*
X453891129Y-63750231I34896J799239D01*
G01*
G37*
%TD.AperFunction*%
%TA.AperFunction,ComponentPad*%
%TO.P,REF\u002A\u002A,1*%
G36*
X446575866Y-56604343D02*
G01*
X446645657Y-55005866D01*
X448244134Y-55075657D01*
X448174343Y-56674134D01*
X446575866Y-56604343D01*
G37*
%TD.AperFunction*%
%TD*%
%TA.AperFunction,ComponentPad*%
%TO.P,REF\u002A\u002A,1*%
%TO.N,N/C*%
G36*
X442818629Y-104320000D02*
G01*
X443950000Y-103188629D01*
X445081371Y-104320000D01*
X443950000Y-105451371D01*
X442818629Y-104320000D01*
G37*
%TD.AperFunction*%
%TO.P,REF\u002A\u002A,8*%
%TA.AperFunction,ComponentPad*%
G36*
G01*
X437996161Y-119918776D02*
X437996161Y-119918776D01*
G75*
G02*
X439127531Y-119918776I565685J-565685D01*
G01*
X439127531Y-119918776D01*
G75*
G02*
X439127531Y-121050146I-565685J-565685D01*
G01*
X439127531Y-121050146D01*
G75*
G02*
X437996161Y-121050146I-565685J565685D01*
G01*
X437996161Y-121050146D01*
G75*
G02*
X437996161Y-119918776I565685J565685D01*
G01*
G37*
%TD.AperFunction*%
%TO.P,REF\u002A\u002A,2*%
%TA.AperFunction,ComponentPad*%
G36*
G01*
X441588264Y-105550366D02*
X441588264Y-105550366D01*
G75*
G02*
X442719634Y-105550366I565685J-565685D01*
G01*
X442719634Y-105550366D01*
G75*
G02*
X442719634Y-106681736I-565685J-565685D01*
G01*
X442719634Y-106681736D01*
G75*
G02*
X441588264Y-106681736I-565685J565685D01*
G01*
X441588264Y-106681736D01*
G75*
G02*
X441588264Y-105550366I565685J565685D01*
G01*
G37*
%TD.AperFunction*%
%TO.P,REF\u002A\u002A,9*%
%TA.AperFunction,ComponentPad*%
G36*
G01*
X439792213Y-118122725D02*
X439792213Y-118122725D01*
G75*
G02*
X440923583Y-118122725I565685J-565685D01*
G01*
X440923583Y-118122725D01*
G75*
G02*
X440923583Y-119254095I-565685J-565685D01*
G01*
X440923583Y-119254095D01*
G75*
G02*
X439792213Y-119254095I-565685J565685D01*
G01*
X439792213Y-119254095D01*
G75*
G02*
X439792213Y-118122725I565685J565685D01*
G01*
G37*
%TD.AperFunction*%
%TO.P,REF\u002A\u002A,3*%
%TA.AperFunction,ComponentPad*%
G36*
G01*
X439792213Y-107346417D02*
X439792213Y-107346417D01*
G75*
G02*
X440923583Y-107346417I565685J-565685D01*
G01*
X440923583Y-107346417D01*
G75*
G02*
X440923583Y-108477787I-565685J-565685D01*
G01*
X440923583Y-108477787D01*
G75*
G02*
X439792213Y-108477787I-565685J565685D01*
G01*
X439792213Y-108477787D01*
G75*
G02*
X439792213Y-107346417I565685J565685D01*
G01*
G37*
%TD.AperFunction*%
%TO.P,REF\u002A\u002A,10*%
%TA.AperFunction,ComponentPad*%
G36*
G01*
X441588264Y-116326674D02*
X441588264Y-116326674D01*
G75*
G02*
X442719634Y-116326674I565685J-565685D01*
G01*
X442719634Y-116326674D01*
G75*
G02*
X442719634Y-117458044I-565685J-565685D01*
G01*
X442719634Y-117458044D01*
G75*
G02*
X441588264Y-117458044I-565685J565685D01*
G01*
X441588264Y-117458044D01*
G75*
G02*
X441588264Y-116326674I565685J565685D01*
G01*
G37*
%TD.AperFunction*%
%TO.P,REF\u002A\u002A,4*%
%TA.AperFunction,ComponentPad*%
G36*
G01*
X437996161Y-109142469D02*
X437996161Y-109142469D01*
G75*
G02*
X439127531Y-109142469I565685J-565685D01*
G01*
X439127531Y-109142469D01*
G75*
G02*
X439127531Y-110273839I-565685J-565685D01*
G01*
X439127531Y-110273839D01*
G75*
G02*
X437996161Y-110273839I-565685J565685D01*
G01*
X437996161Y-110273839D01*
G75*
G02*
X437996161Y-109142469I565685J565685D01*
G01*
G37*
%TD.AperFunction*%
%TO.P,REF\u002A\u002A,11*%
%TA.AperFunction,ComponentPad*%
G36*
G01*
X443384315Y-114530622D02*
X443384315Y-114530622D01*
G75*
G02*
X444515685Y-114530622I565685J-565685D01*
G01*
X444515685Y-114530622D01*
G75*
G02*
X444515685Y-115661992I-565685J-565685D01*
G01*
X444515685Y-115661992D01*
G75*
G02*
X443384315Y-115661992I-565685J565685D01*
G01*
X443384315Y-115661992D01*
G75*
G02*
X443384315Y-114530622I565685J565685D01*
G01*
G37*
%TD.AperFunction*%
%TO.P,REF\u002A\u002A,5*%
%TA.AperFunction,ComponentPad*%
G36*
G01*
X436200110Y-110938520D02*
X436200110Y-110938520D01*
G75*
G02*
X437331480Y-110938520I565685J-565685D01*
G01*
X437331480Y-110938520D01*
G75*
G02*
X437331480Y-112069890I-565685J-565685D01*
G01*
X437331480Y-112069890D01*
G75*
G02*
X436200110Y-112069890I-565685J565685D01*
G01*
X436200110Y-112069890D01*
G75*
G02*
X436200110Y-110938520I565685J565685D01*
G01*
G37*
%TD.AperFunction*%
%TO.P,REF\u002A\u002A,12*%
%TA.AperFunction,ComponentPad*%
G36*
G01*
X445180366Y-112734571D02*
X445180366Y-112734571D01*
G75*
G02*
X446311736Y-112734571I565685J-565685D01*
G01*
X446311736Y-112734571D01*
G75*
G02*
X446311736Y-113865941I-565685J-565685D01*
G01*
X446311736Y-113865941D01*
G75*
G02*
X445180366Y-113865941I-565685J565685D01*
G01*
X445180366Y-113865941D01*
G75*
G02*
X445180366Y-112734571I565685J565685D01*
G01*
G37*
%TD.AperFunction*%
%TO.P,REF\u002A\u002A,6*%
%TA.AperFunction,ComponentPad*%
G36*
G01*
X434404059Y-112734571D02*
X434404059Y-112734571D01*
G75*
G02*
X435535429Y-112734571I565685J-565685D01*
G01*
X435535429Y-112734571D01*
G75*
G02*
X435535429Y-113865941I-565685J-565685D01*
G01*
X435535429Y-113865941D01*
G75*
G02*
X434404059Y-113865941I-565685J565685D01*
G01*
X434404059Y-113865941D01*
G75*
G02*
X434404059Y-112734571I565685J565685D01*
G01*
G37*
%TD.AperFunction*%
%TO.P,REF\u002A\u002A,13*%
%TA.AperFunction,ComponentPad*%
G36*
G01*
X446976417Y-110938520D02*
X446976417Y-110938520D01*
G75*
G02*
X448107787Y-110938520I565685J-565685D01*
G01*
X448107787Y-110938520D01*
G75*
G02*
X448107787Y-112069890I-565685J-565685D01*
G01*
X448107787Y-112069890D01*
G75*
G02*
X446976417Y-112069890I-565685J565685D01*
G01*
X446976417Y-112069890D01*
G75*
G02*
X446976417Y-110938520I565685J565685D01*
G01*
G37*
%TD.AperFunction*%
%TO.P,REF\u002A\u002A,7*%
%TA.AperFunction,ComponentPad*%
G36*
G01*
X432608008Y-114530622D02*
X432608008Y-114530622D01*
G75*
G02*
X433739378Y-114530622I565685J-565685D01*
G01*
X433739378Y-114530622D01*
G75*
G02*
X433739378Y-115661992I-565685J-565685D01*
G01*
X433739378Y-115661992D01*
G75*
G02*
X432608008Y-115661992I-565685J565685D01*
G01*
X432608008Y-115661992D01*
G75*
G02*
X432608008Y-114530622I565685J565685D01*
G01*
G37*
%TD.AperFunction*%
%TO.P,REF\u002A\u002A,14*%
%TA.AperFunction,ComponentPad*%
G36*
G01*
X448772469Y-109142469D02*
X448772469Y-109142469D01*
G75*
G02*
X449903839Y-109142469I565685J-565685D01*
G01*
X449903839Y-109142469D01*
G75*
G02*
X449903839Y-110273839I-565685J-565685D01*
G01*
X449903839Y-110273839D01*
G75*
G02*
X448772469Y-110273839I-565685J565685D01*
G01*
X448772469Y-110273839D01*
G75*
G02*
X448772469Y-109142469I565685J565685D01*
G01*
G37*
%TD.AperFunction*%
%TD*%
%TO.P,REF\u002A\u002A,14*%
%TO.N,N/C*%
%TA.AperFunction,ComponentPad*%
G36*
G01*
X439282469Y-25067531D02*
X439282469Y-25067531D01*
G75*
G02*
X439282469Y-23936161I565685J565685D01*
G01*
X439282469Y-23936161D01*
G75*
G02*
X440413839Y-23936161I565685J-565685D01*
G01*
X440413839Y-23936161D01*
G75*
G02*
X440413839Y-25067531I-565685J-565685D01*
G01*
X440413839Y-25067531D01*
G75*
G02*
X439282469Y-25067531I-565685J565685D01*
G01*
G37*
%TD.AperFunction*%
%TO.P,REF\u002A\u002A,7*%
%TA.AperFunction,ComponentPad*%
G36*
G01*
X444670622Y-41231992D02*
X444670622Y-41231992D01*
G75*
G02*
X444670622Y-40100622I565685J565685D01*
G01*
X444670622Y-40100622D01*
G75*
G02*
X445801992Y-40100622I565685J-565685D01*
G01*
X445801992Y-40100622D01*
G75*
G02*
X445801992Y-41231992I-565685J-565685D01*
G01*
X445801992Y-41231992D01*
G75*
G02*
X444670622Y-41231992I-565685J565685D01*
G01*
G37*
%TD.AperFunction*%
%TO.P,REF\u002A\u002A,13*%
%TA.AperFunction,ComponentPad*%
G36*
G01*
X441078520Y-26863583D02*
X441078520Y-26863583D01*
G75*
G02*
X441078520Y-25732213I565685J565685D01*
G01*
X441078520Y-25732213D01*
G75*
G02*
X442209890Y-25732213I565685J-565685D01*
G01*
X442209890Y-25732213D01*
G75*
G02*
X442209890Y-26863583I-565685J-565685D01*
G01*
X442209890Y-26863583D01*
G75*
G02*
X441078520Y-26863583I-565685J565685D01*
G01*
G37*
%TD.AperFunction*%
%TO.P,REF\u002A\u002A,6*%
%TA.AperFunction,ComponentPad*%
G36*
G01*
X442874571Y-39435941D02*
X442874571Y-39435941D01*
G75*
G02*
X442874571Y-38304571I565685J565685D01*
G01*
X442874571Y-38304571D01*
G75*
G02*
X444005941Y-38304571I565685J-565685D01*
G01*
X444005941Y-38304571D01*
G75*
G02*
X444005941Y-39435941I-565685J-565685D01*
G01*
X444005941Y-39435941D01*
G75*
G02*
X442874571Y-39435941I-565685J565685D01*
G01*
G37*
%TD.AperFunction*%
%TO.P,REF\u002A\u002A,12*%
%TA.AperFunction,ComponentPad*%
G36*
G01*
X442874571Y-28659634D02*
X442874571Y-28659634D01*
G75*
G02*
X442874571Y-27528264I565685J565685D01*
G01*
X442874571Y-27528264D01*
G75*
G02*
X444005941Y-27528264I565685J-565685D01*
G01*
X444005941Y-27528264D01*
G75*
G02*
X444005941Y-28659634I-565685J-565685D01*
G01*
X444005941Y-28659634D01*
G75*
G02*
X442874571Y-28659634I-565685J565685D01*
G01*
G37*
%TD.AperFunction*%
%TO.P,REF\u002A\u002A,5*%
%TA.AperFunction,ComponentPad*%
G36*
G01*
X441078520Y-37639890D02*
X441078520Y-37639890D01*
G75*
G02*
X441078520Y-36508520I565685J565685D01*
G01*
X441078520Y-36508520D01*
G75*
G02*
X442209890Y-36508520I565685J-565685D01*
G01*
X442209890Y-36508520D01*
G75*
G02*
X442209890Y-37639890I-565685J-565685D01*
G01*
X442209890Y-37639890D01*
G75*
G02*
X441078520Y-37639890I-565685J565685D01*
G01*
G37*
%TD.AperFunction*%
%TO.P,REF\u002A\u002A,11*%
%TA.AperFunction,ComponentPad*%
G36*
G01*
X444670622Y-30455685D02*
X444670622Y-30455685D01*
G75*
G02*
X444670622Y-29324315I565685J565685D01*
G01*
X444670622Y-29324315D01*
G75*
G02*
X445801992Y-29324315I565685J-565685D01*
G01*
X445801992Y-29324315D01*
G75*
G02*
X445801992Y-30455685I-565685J-565685D01*
G01*
X445801992Y-30455685D01*
G75*
G02*
X444670622Y-30455685I-565685J565685D01*
G01*
G37*
%TD.AperFunction*%
%TO.P,REF\u002A\u002A,4*%
%TA.AperFunction,ComponentPad*%
G36*
G01*
X439282469Y-35843839D02*
X439282469Y-35843839D01*
G75*
G02*
X439282469Y-34712469I565685J565685D01*
G01*
X439282469Y-34712469D01*
G75*
G02*
X440413839Y-34712469I565685J-565685D01*
G01*
X440413839Y-34712469D01*
G75*
G02*
X440413839Y-35843839I-565685J-565685D01*
G01*
X440413839Y-35843839D01*
G75*
G02*
X439282469Y-35843839I-565685J565685D01*
G01*
G37*
%TD.AperFunction*%
%TO.P,REF\u002A\u002A,10*%
%TA.AperFunction,ComponentPad*%
G36*
G01*
X446466674Y-32251736D02*
X446466674Y-32251736D01*
G75*
G02*
X446466674Y-31120366I565685J565685D01*
G01*
X446466674Y-31120366D01*
G75*
G02*
X447598044Y-31120366I565685J-565685D01*
G01*
X447598044Y-31120366D01*
G75*
G02*
X447598044Y-32251736I-565685J-565685D01*
G01*
X447598044Y-32251736D01*
G75*
G02*
X446466674Y-32251736I-565685J565685D01*
G01*
G37*
%TD.AperFunction*%
%TO.P,REF\u002A\u002A,3*%
%TA.AperFunction,ComponentPad*%
G36*
G01*
X437486417Y-34047787D02*
X437486417Y-34047787D01*
G75*
G02*
X437486417Y-32916417I565685J565685D01*
G01*
X437486417Y-32916417D01*
G75*
G02*
X438617787Y-32916417I565685J-565685D01*
G01*
X438617787Y-32916417D01*
G75*
G02*
X438617787Y-34047787I-565685J-565685D01*
G01*
X438617787Y-34047787D01*
G75*
G02*
X437486417Y-34047787I-565685J565685D01*
G01*
G37*
%TD.AperFunction*%
%TO.P,REF\u002A\u002A,9*%
%TA.AperFunction,ComponentPad*%
G36*
G01*
X448262725Y-34047787D02*
X448262725Y-34047787D01*
G75*
G02*
X448262725Y-32916417I565685J565685D01*
G01*
X448262725Y-32916417D01*
G75*
G02*
X449394095Y-32916417I565685J-565685D01*
G01*
X449394095Y-32916417D01*
G75*
G02*
X449394095Y-34047787I-565685J-565685D01*
G01*
X449394095Y-34047787D01*
G75*
G02*
X448262725Y-34047787I-565685J565685D01*
G01*
G37*
%TD.AperFunction*%
%TO.P,REF\u002A\u002A,2*%
%TA.AperFunction,ComponentPad*%
G36*
G01*
X435690366Y-32251736D02*
X435690366Y-32251736D01*
G75*
G02*
X435690366Y-31120366I565685J565685D01*
G01*
X435690366Y-31120366D01*
G75*
G02*
X436821736Y-31120366I565685J-565685D01*
G01*
X436821736Y-31120366D01*
G75*
G02*
X436821736Y-32251736I-565685J-565685D01*
G01*
X436821736Y-32251736D01*
G75*
G02*
X435690366Y-32251736I-565685J565685D01*
G01*
G37*
%TD.AperFunction*%
%TO.P,REF\u002A\u002A,8*%
%TA.AperFunction,ComponentPad*%
G36*
G01*
X450058776Y-35843839D02*
X450058776Y-35843839D01*
G75*
G02*
X450058776Y-34712469I565685J565685D01*
G01*
X450058776Y-34712469D01*
G75*
G02*
X451190146Y-34712469I565685J-565685D01*
G01*
X451190146Y-34712469D01*
G75*
G02*
X451190146Y-35843839I-565685J-565685D01*
G01*
X451190146Y-35843839D01*
G75*
G02*
X450058776Y-35843839I-565685J565685D01*
G01*
G37*
%TD.AperFunction*%
%TA.AperFunction,ComponentPad*%
%TO.P,REF\u002A\u002A,1*%
G36*
X434460000Y-31021371D02*
G01*
X433328629Y-29890000D01*
X434460000Y-28758629D01*
X435591371Y-29890000D01*
X434460000Y-31021371D01*
G37*
%TD.AperFunction*%
%TD*%
%TA.AperFunction,ComponentPad*%
%TO.P,REF\u002A\u002A,1*%
%TO.N,N/C*%
G36*
X388342792Y-82920000D02*
G01*
X387070000Y-84192792D01*
X385797208Y-82920000D01*
X387070000Y-81647208D01*
X388342792Y-82920000D01*
G37*
%TD.AperFunction*%
D16*
%TO.P,REF\u002A\u002A,2*%
X388837767Y-84687767D03*
%TO.P,REF\u002A\u002A,3*%
X390605534Y-86455534D03*
D15*
%TO.P,REF\u002A\u002A,*%
%TO.N,*%
X397535180Y-82778579D03*
X390746955Y-75990354D03*
%TD*%
D12*
%TO.P,REF\u002A\u002A,3*%
%TO.N,N/C*%
X414406119Y-16224545D03*
%TO.P,REF\u002A\u002A,2*%
X409725000Y-15815000D03*
%TO.P,REF\u002A\u002A,1*%
X405043881Y-15405455D03*
%TD*%
%TO.P,REF\u002A\u002A,2*%
%TO.N,N/C*%
%TA.AperFunction,ComponentPad*%
G36*
G01*
X362416617Y-123131791D02*
X362416617Y-123131791D01*
G75*
G02*
X363530800Y-122935330I655322J-458861D01*
G01*
X363530800Y-122935330D01*
G75*
G02*
X363727261Y-124049513I-458861J-655322D01*
G01*
X363727261Y-124049513D01*
G75*
G02*
X362613078Y-124245974I-655322J458861D01*
G01*
X362613078Y-124245974D01*
G75*
G02*
X362416617Y-123131791I458861J655322D01*
G01*
G37*
%TD.AperFunction*%
D11*
%TO.P,REF\u002A\u002A,1*%
X356830000Y-119220000D03*
%TD*%
%TO.P,REF\u002A\u002A,1*%
%TO.N,N/C*%
X440770000Y-20300000D03*
%TO.P,REF\u002A\u002A,2*%
%TA.AperFunction,ComponentPad*%
G36*
G01*
X446356617Y-24211791D02*
X446356617Y-24211791D01*
G75*
G02*
X447470800Y-24015330I655322J-458861D01*
G01*
X447470800Y-24015330D01*
G75*
G02*
X447667261Y-25129513I-458861J-655322D01*
G01*
X447667261Y-25129513D01*
G75*
G02*
X446553078Y-25325974I-655322J458861D01*
G01*
X446553078Y-25325974D01*
G75*
G02*
X446356617Y-24211791I458861J655322D01*
G01*
G37*
%TD.AperFunction*%
%TD*%
%TO.P,REF\u002A\u002A,1*%
%TO.N,N/C*%
X351860000Y-106110000D03*
%TO.P,REF\u002A\u002A,2*%
%TA.AperFunction,ComponentPad*%
G36*
G01*
X346076312Y-109724050D02*
X346076312Y-109724050D01*
G75*
G02*
X345821809Y-110826423I-678438J-423935D01*
G01*
X345821809Y-110826423D01*
G75*
G02*
X344719436Y-110571920I-423935J678438D01*
G01*
X344719436Y-110571920D01*
G75*
G02*
X344973939Y-109469547I678438J423935D01*
G01*
X344973939Y-109469547D01*
G75*
G02*
X346076312Y-109724050I423935J-678438D01*
G01*
G37*
%TD.AperFunction*%
%TD*%
%TO.P,REF\u002A\u002A,1*%
%TO.N,N/C*%
X373410000Y-126420000D03*
%TO.P,REF\u002A\u002A,2*%
%TA.AperFunction,ComponentPad*%
G36*
G01*
X371302505Y-119933794D02*
X371302505Y-119933794D01*
G75*
G02*
X370294446Y-119420163I-247214J760845D01*
G01*
X370294446Y-119420163D01*
G75*
G02*
X370808077Y-118412104I760845J247214D01*
G01*
X370808077Y-118412104D01*
G75*
G02*
X371816136Y-118925735I247214J-760845D01*
G01*
X371816136Y-118925735D01*
G75*
G02*
X371302505Y-119933794I-760845J-247214D01*
G01*
G37*
%TD.AperFunction*%
%TD*%
%TO.P,REF\u002A\u002A,2*%
%TO.N,N/C*%
%TA.AperFunction,ComponentPad*%
G36*
G01*
X368550835Y-34778851D02*
X368550835Y-34778851D01*
G75*
G02*
X367659303Y-35475393I-794037J97495D01*
G01*
X367659303Y-35475393D01*
G75*
G02*
X366962761Y-34583861I97495J794037D01*
G01*
X366962761Y-34583861D01*
G75*
G02*
X367854293Y-33887319I794037J-97495D01*
G01*
X367854293Y-33887319D01*
G75*
G02*
X368550835Y-34778851I-97495J-794037D01*
G01*
G37*
%TD.AperFunction*%
%TO.P,REF\u002A\u002A,1*%
X375320000Y-35610000D03*
%TD*%
%TO.P,REF\u002A\u002A,2*%
%TO.N,N/C*%
X402706690Y-32501705D03*
%TO.P,REF\u002A\u002A,1*%
X395965735Y-29213921D03*
%TD*%
%TO.P,REF\u002A\u002A,1*%
%TO.N,N/C*%
X397230000Y-26550000D03*
%TO.P,REF\u002A\u002A,2*%
%TA.AperFunction,ComponentPad*%
G36*
G01*
X400219691Y-20420224D02*
X400219691Y-20420224D01*
G75*
G02*
X399851353Y-19350492I350697J719035D01*
G01*
X399851353Y-19350492D01*
G75*
G02*
X400921085Y-18982154I719035J-350697D01*
G01*
X400921085Y-18982154D01*
G75*
G02*
X401289423Y-20051886I-350697J-719035D01*
G01*
X401289423Y-20051886D01*
G75*
G02*
X400219691Y-20420224I-719035J350697D01*
G01*
G37*
%TD.AperFunction*%
%TD*%
%TO.P,REF\u002A\u002A,1*%
%TO.N,N/C*%
X364760000Y-106120000D03*
%TO.P,REF\u002A\u002A,2*%
%TA.AperFunction,ComponentPad*%
G36*
G01*
X365591149Y-99350835D02*
X365591149Y-99350835D01*
G75*
G02*
X364894607Y-98459303I97495J794037D01*
G01*
X364894607Y-98459303D01*
G75*
G02*
X365786139Y-97762761I794037J-97495D01*
G01*
X365786139Y-97762761D01*
G75*
G02*
X366482681Y-98654293I-97495J-794037D01*
G01*
X366482681Y-98654293D01*
G75*
G02*
X365591149Y-99350835I-794037J97495D01*
G01*
G37*
%TD.AperFunction*%
%TD*%
%TO.P,REF\u002A\u002A,1*%
%TO.N,N/C*%
X440772628Y-122322131D03*
%TO.P,REF\u002A\u002A,2*%
X443225811Y-124818508D03*
%TD*%
%TO.P,REF\u002A\u002A,2*%
%TO.N,N/C*%
%TA.AperFunction,ComponentPad*%
G36*
G01*
X350047361Y-75667116D02*
X350047361Y-75667116D01*
G75*
G02*
X349168120Y-76379111I-795618J83623D01*
G01*
X349168120Y-76379111D01*
G75*
G02*
X348456125Y-75499870I83623J795618D01*
G01*
X348456125Y-75499870D01*
G75*
G02*
X349335366Y-74787875I795618J-83623D01*
G01*
X349335366Y-74787875D01*
G75*
G02*
X350047361Y-75667116I-83623J-795618D01*
G01*
G37*
%TD.AperFunction*%
%TO.P,REF\u002A\u002A,1*%
X356830000Y-76380000D03*
%TD*%
%TO.P,REF\u002A\u002A,2*%
%TO.N,N/C*%
%TA.AperFunction,ComponentPad*%
G36*
G01*
X429232884Y-58532639D02*
X429232884Y-58532639D01*
G75*
G02*
X430112125Y-59244634I83623J-795618D01*
G01*
X430112125Y-59244634D01*
G75*
G02*
X429400130Y-60123875I-795618J-83623D01*
G01*
X429400130Y-60123875D01*
G75*
G02*
X428520889Y-59411880I-83623J795618D01*
G01*
X428520889Y-59411880D01*
G75*
G02*
X429232884Y-58532639I795618J83623D01*
G01*
G37*
%TD.AperFunction*%
%TO.P,REF\u002A\u002A,1*%
X428520000Y-51750000D03*
%TD*%
%TO.P,REF\u002A\u002A,2*%
%TO.N,N/C*%
%TA.AperFunction,ComponentPad*%
G36*
G01*
X349499347Y-94753069D02*
X349499347Y-94753069D01*
G75*
G02*
X348658574Y-95510104I-798904J41869D01*
G01*
X348658574Y-95510104D01*
G75*
G02*
X347901539Y-94669331I41869J798904D01*
G01*
X347901539Y-94669331D01*
G75*
G02*
X348742312Y-93912296I798904J-41869D01*
G01*
X348742312Y-93912296D01*
G75*
G02*
X349499347Y-94753069I-41869J-798904D01*
G01*
G37*
%TD.AperFunction*%
%TO.P,REF\u002A\u002A,1*%
X356310000Y-95110000D03*
%TD*%
%TO.P,REF\u002A\u002A,1*%
%TO.N,N/C*%
X417780000Y-57400000D03*
%TO.P,REF\u002A\u002A,2*%
%TA.AperFunction,ComponentPad*%
G36*
G01*
X424034350Y-60119469D02*
X424034350Y-60119469D01*
G75*
G02*
X425086997Y-59704820I733648J-318999D01*
G01*
X425086997Y-59704820D01*
G75*
G02*
X425501646Y-60757467I-318999J-733648D01*
G01*
X425501646Y-60757467D01*
G75*
G02*
X424448999Y-61172116I-733648J318999D01*
G01*
X424448999Y-61172116D01*
G75*
G02*
X424034350Y-60119469I318999J733648D01*
G01*
G37*
%TD.AperFunction*%
%TD*%
%TO.P,REF\u002A\u002A,2*%
%TO.N,N/C*%
%TA.AperFunction,ComponentPad*%
G36*
G01*
X435329165Y-109081149D02*
X435329165Y-109081149D01*
G75*
G02*
X436220697Y-108384607I794037J-97495D01*
G01*
X436220697Y-108384607D01*
G75*
G02*
X436917239Y-109276139I-97495J-794037D01*
G01*
X436917239Y-109276139D01*
G75*
G02*
X436025707Y-109972681I-794037J97495D01*
G01*
X436025707Y-109972681D01*
G75*
G02*
X435329165Y-109081149I97495J794037D01*
G01*
G37*
%TD.AperFunction*%
%TO.P,REF\u002A\u002A,1*%
X428560000Y-108250000D03*
%TD*%
%TO.P,REF\u002A\u002A,2*%
%TO.N,N/C*%
%TA.AperFunction,ComponentPad*%
G36*
G01*
X416069469Y-88445650D02*
X416069469Y-88445650D01*
G75*
G02*
X415654820Y-87393003I318999J733648D01*
G01*
X415654820Y-87393003D01*
G75*
G02*
X416707467Y-86978354I733648J-318999D01*
G01*
X416707467Y-86978354D01*
G75*
G02*
X417122116Y-88031001I-318999J-733648D01*
G01*
X417122116Y-88031001D01*
G75*
G02*
X416069469Y-88445650I-733648J318999D01*
G01*
G37*
%TD.AperFunction*%
%TO.P,REF\u002A\u002A,1*%
X413350000Y-94700000D03*
%TD*%
D15*
%TO.P,REF\u002A\u002A,*%
%TO.N,*%
X397819646Y-60626955D03*
X391031421Y-67415180D03*
D16*
%TO.P,REF\u002A\u002A,3*%
%TO.N,N/C*%
X387354466Y-60485534D03*
%TO.P,REF\u002A\u002A,2*%
X389122233Y-58717767D03*
%TA.AperFunction,ComponentPad*%
D14*
%TO.P,REF\u002A\u002A,1*%
G36*
X390890000Y-58222792D02*
G01*
X389617208Y-56950000D01*
X390890000Y-55677208D01*
X392162792Y-56950000D01*
X390890000Y-58222792D01*
G37*
%TD.AperFunction*%
%TD*%
D11*
%TO.P,REF\u002A\u002A,1*%
%TO.N,N/C*%
X439150000Y-37790000D03*
%TO.P,REF\u002A\u002A,2*%
%TA.AperFunction,ComponentPad*%
G36*
G01*
X438318851Y-44559165D02*
X438318851Y-44559165D01*
G75*
G02*
X439015393Y-45450697I-97495J-794037D01*
G01*
X439015393Y-45450697D01*
G75*
G02*
X438123861Y-46147239I-794037J97495D01*
G01*
X438123861Y-46147239D01*
G75*
G02*
X437427319Y-45255707I97495J794037D01*
G01*
X437427319Y-45255707D01*
G75*
G02*
X438318851Y-44559165I794037J-97495D01*
G01*
G37*
%TD.AperFunction*%
%TD*%
%TO.P,REF\u002A\u002A,1*%
%TO.N,N/C*%
X452010000Y-37720000D03*
%TO.P,REF\u002A\u002A,2*%
%TA.AperFunction,ComponentPad*%
G36*
G01*
X457793688Y-34105950D02*
X457793688Y-34105950D01*
G75*
G02*
X458048191Y-33003577I678438J423935D01*
G01*
X458048191Y-33003577D01*
G75*
G02*
X459150564Y-33258080I423935J-678438D01*
G01*
X459150564Y-33258080D01*
G75*
G02*
X458896061Y-34360453I-678438J-423935D01*
G01*
X458896061Y-34360453D01*
G75*
G02*
X457793688Y-34105950I-423935J678438D01*
G01*
G37*
%TD.AperFunction*%
%TD*%
%TO.P,REF\u002A\u002A,2*%
%TO.N,N/C*%
%TA.AperFunction,ComponentPad*%
G36*
G01*
X422715897Y-81462430D02*
X422715897Y-81462430D01*
G75*
G02*
X422735642Y-80331231I575472J555727D01*
G01*
X422735642Y-80331231D01*
G75*
G02*
X423866841Y-80350976I555727J-575472D01*
G01*
X423866841Y-80350976D01*
G75*
G02*
X423847096Y-81482175I-575472J-555727D01*
G01*
X423847096Y-81482175D01*
G75*
G02*
X422715897Y-81462430I-555727J575472D01*
G01*
G37*
%TD.AperFunction*%
%TO.P,REF\u002A\u002A,1*%
X417810000Y-86200000D03*
%TD*%
%TO.P,REF\u002A\u002A,1*%
%TO.N,N/C*%
X418260000Y-69240000D03*
%TO.P,REF\u002A\u002A,2*%
%TA.AperFunction,ComponentPad*%
G36*
G01*
X420025146Y-62652386D02*
X420025146Y-62652386D01*
G75*
G02*
X419459460Y-61672590I207055J772741D01*
G01*
X419459460Y-61672590D01*
G75*
G02*
X420439256Y-61106904I772741J-207055D01*
G01*
X420439256Y-61106904D01*
G75*
G02*
X421004942Y-62086700I-207055J-772741D01*
G01*
X421004942Y-62086700D01*
G75*
G02*
X420025146Y-62652386I-772741J207055D01*
G01*
G37*
%TD.AperFunction*%
%TD*%
%TO.P,REF\u002A\u002A,2*%
%TO.N,N/C*%
%TA.AperFunction,ComponentPad*%
G36*
G01*
X439704050Y-127823688D02*
X439704050Y-127823688D01*
G75*
G02*
X440806423Y-128078191I423935J-678438D01*
G01*
X440806423Y-128078191D01*
G75*
G02*
X440551920Y-129180564I-678438J-423935D01*
G01*
X440551920Y-129180564D01*
G75*
G02*
X439449547Y-128926061I-423935J678438D01*
G01*
X439449547Y-128926061D01*
G75*
G02*
X439704050Y-127823688I678438J423935D01*
G01*
G37*
%TD.AperFunction*%
%TO.P,REF\u002A\u002A,1*%
X436090000Y-122040000D03*
%TD*%
%TO.P,REF\u002A\u002A,2*%
%TO.N,N/C*%
%TA.AperFunction,ComponentPad*%
G36*
G01*
X364115950Y-16006312D02*
X364115950Y-16006312D01*
G75*
G02*
X363013577Y-15751809I-423935J678438D01*
G01*
X363013577Y-15751809D01*
G75*
G02*
X363268080Y-14649436I678438J423935D01*
G01*
X363268080Y-14649436D01*
G75*
G02*
X364370453Y-14903939I423935J-678438D01*
G01*
X364370453Y-14903939D01*
G75*
G02*
X364115950Y-16006312I-678438J-423935D01*
G01*
G37*
%TD.AperFunction*%
%TO.P,REF\u002A\u002A,1*%
X367730000Y-21790000D03*
%TD*%
%TO.P,REF\u002A\u002A,2*%
%TO.N,N/C*%
%TA.AperFunction,ComponentPad*%
G36*
G01*
X399217614Y-52505146D02*
X399217614Y-52505146D01*
G75*
G02*
X400197410Y-51939460I772741J-207055D01*
G01*
X400197410Y-51939460D01*
G75*
G02*
X400763096Y-52919256I-207055J-772741D01*
G01*
X400763096Y-52919256D01*
G75*
G02*
X399783300Y-53484942I-772741J207055D01*
G01*
X399783300Y-53484942D01*
G75*
G02*
X399217614Y-52505146I207055J772741D01*
G01*
G37*
%TD.AperFunction*%
%TO.P,REF\u002A\u002A,1*%
X392630000Y-50740000D03*
%TD*%
%TO.P,REF\u002A\u002A,1*%
%TO.N,N/C*%
X430667732Y-117437890D03*
%TO.P,REF\u002A\u002A,2*%
%TA.AperFunction,ComponentPad*%
G36*
G01*
X434026061Y-123373715D02*
X434026061Y-123373715D01*
G75*
G02*
X435116285Y-123676061I393939J-696285D01*
G01*
X435116285Y-123676061D01*
G75*
G02*
X434813939Y-124766285I-696285J-393939D01*
G01*
X434813939Y-124766285D01*
G75*
G02*
X433723715Y-124463939I-393939J696285D01*
G01*
X433723715Y-124463939D01*
G75*
G02*
X434026061Y-123373715I696285J393939D01*
G01*
G37*
%TD.AperFunction*%
%TD*%
%TO.P,REF\u002A\u002A,1*%
%TO.N,N/C*%
X414600000Y-99260000D03*
%TO.P,REF\u002A\u002A,2*%
%TA.AperFunction,ComponentPad*%
G36*
G01*
X421382639Y-98547116D02*
X421382639Y-98547116D01*
G75*
G02*
X422094634Y-97667875I795618J83623D01*
G01*
X422094634Y-97667875D01*
G75*
G02*
X422973875Y-98379870I83623J-795618D01*
G01*
X422973875Y-98379870D01*
G75*
G02*
X422261880Y-99259111I-795618J-83623D01*
G01*
X422261880Y-99259111D01*
G75*
G02*
X421382639Y-98547116I-83623J795618D01*
G01*
G37*
%TD.AperFunction*%
%TD*%
%TO.P,REF\u002A\u002A,2*%
%TO.N,N/C*%
%TA.AperFunction,ComponentPad*%
G36*
G01*
X454400653Y-48996931D02*
X454400653Y-48996931D01*
G75*
G02*
X455241426Y-48239896I798904J-41869D01*
G01*
X455241426Y-48239896D01*
G75*
G02*
X455998461Y-49080669I-41869J-798904D01*
G01*
X455998461Y-49080669D01*
G75*
G02*
X455157688Y-49837704I-798904J41869D01*
G01*
X455157688Y-49837704D01*
G75*
G02*
X454400653Y-48996931I41869J798904D01*
G01*
G37*
%TD.AperFunction*%
%TO.P,REF\u002A\u002A,1*%
X447590000Y-48640000D03*
%TD*%
%TO.P,REF\u002A\u002A,2*%
%TO.N,N/C*%
X414807044Y-111907347D03*
%TO.P,REF\u002A\u002A,1*%
X411585277Y-113274906D03*
%TD*%
%TO.P,REF\u002A\u002A,2*%
%TO.N,N/C*%
X452351492Y-33115811D03*
%TO.P,REF\u002A\u002A,1*%
X454847869Y-30662628D03*
%TD*%
%TO.P,REF\u002A\u002A,2*%
%TO.N,N/C*%
%TA.AperFunction,ComponentPad*%
G36*
G01*
X432721229Y-112022168D02*
X432721229Y-112022168D01*
G75*
G02*
X432681745Y-110891486I545599J585083D01*
G01*
X432681745Y-110891486D01*
G75*
G02*
X433812427Y-110852002I585083J-545599D01*
G01*
X433812427Y-110852002D01*
G75*
G02*
X433851911Y-111982684I-545599J-585083D01*
G01*
X433851911Y-111982684D01*
G75*
G02*
X432721229Y-112022168I-585083J545599D01*
G01*
G37*
%TD.AperFunction*%
%TO.P,REF\u002A\u002A,1*%
X428070000Y-117010000D03*
%TD*%
%TO.P,REF\u002A\u002A,1*%
%TO.N,N/C*%
X356240000Y-91430000D03*
%TO.P,REF\u002A\u002A,2*%
%TA.AperFunction,ComponentPad*%
G36*
G01*
X349429347Y-91073069D02*
X349429347Y-91073069D01*
G75*
G02*
X348588574Y-91830104I-798904J41869D01*
G01*
X348588574Y-91830104D01*
G75*
G02*
X347831539Y-90989331I41869J798904D01*
G01*
X347831539Y-90989331D01*
G75*
G02*
X348672312Y-90232296I798904J-41869D01*
G01*
X348672312Y-90232296D01*
G75*
G02*
X349429347Y-91073069I-41869J-798904D01*
G01*
G37*
%TD.AperFunction*%
%TD*%
%TO.P,REF\u002A\u002A,2*%
%TO.N,N/C*%
%TA.AperFunction,ComponentPad*%
G36*
G01*
X422855146Y-63402386D02*
X422855146Y-63402386D01*
G75*
G02*
X422289460Y-62422590I207055J772741D01*
G01*
X422289460Y-62422590D01*
G75*
G02*
X423269256Y-61856904I772741J-207055D01*
G01*
X423269256Y-61856904D01*
G75*
G02*
X423834942Y-62836700I-207055J-772741D01*
G01*
X423834942Y-62836700D01*
G75*
G02*
X422855146Y-63402386I-772741J207055D01*
G01*
G37*
%TD.AperFunction*%
%TO.P,REF\u002A\u002A,1*%
X421090000Y-69990000D03*
%TD*%
%TA.AperFunction,ComponentPad*%
D14*
%TO.P,REF\u002A\u002A,1*%
%TO.N,N/C*%
G36*
X413070000Y-85557208D02*
G01*
X414342792Y-86830000D01*
X413070000Y-88102792D01*
X411797208Y-86830000D01*
X413070000Y-85557208D01*
G37*
%TD.AperFunction*%
D16*
%TO.P,REF\u002A\u002A,2*%
X414837767Y-85062233D03*
%TO.P,REF\u002A\u002A,3*%
X416605534Y-83294466D03*
D15*
%TO.P,REF\u002A\u002A,*%
%TO.N,*%
X412928579Y-76364820D03*
X406140354Y-83153045D03*
%TD*%
D11*
%TO.P,REF\u002A\u002A,1*%
%TO.N,N/C*%
X386100000Y-86430000D03*
%TO.P,REF\u002A\u002A,2*%
%TA.AperFunction,ComponentPad*%
G36*
G01*
X379845650Y-83710531D02*
X379845650Y-83710531D01*
G75*
G02*
X378793003Y-84125180I-733648J318999D01*
G01*
X378793003Y-84125180D01*
G75*
G02*
X378378354Y-83072533I318999J733648D01*
G01*
X378378354Y-83072533D01*
G75*
G02*
X379431001Y-82657884I733648J-318999D01*
G01*
X379431001Y-82657884D01*
G75*
G02*
X379845650Y-83710531I-318999J-733648D01*
G01*
G37*
%TD.AperFunction*%
%TD*%
%TO.P,REF\u002A\u002A,2*%
%TO.N,N/C*%
%TA.AperFunction,ComponentPad*%
G36*
G01*
X375202884Y-91272639D02*
X375202884Y-91272639D01*
G75*
G02*
X376082125Y-91984634I83623J-795618D01*
G01*
X376082125Y-91984634D01*
G75*
G02*
X375370130Y-92863875I-795618J-83623D01*
G01*
X375370130Y-92863875D01*
G75*
G02*
X374490889Y-92151880I-83623J795618D01*
G01*
X374490889Y-92151880D01*
G75*
G02*
X375202884Y-91272639I795618J83623D01*
G01*
G37*
%TD.AperFunction*%
%TO.P,REF\u002A\u002A,1*%
X374490000Y-84490000D03*
%TD*%
%TO.P,REF\u002A\u002A,2*%
%TO.N,N/C*%
%TA.AperFunction,ComponentPad*%
G36*
G01*
X348153794Y-43107495D02*
X348153794Y-43107495D01*
G75*
G02*
X347640163Y-44115554I-760845J-247214D01*
G01*
X347640163Y-44115554D01*
G75*
G02*
X346632104Y-43601923I-247214J760845D01*
G01*
X346632104Y-43601923D01*
G75*
G02*
X347145735Y-42593864I760845J247214D01*
G01*
X347145735Y-42593864D01*
G75*
G02*
X348153794Y-43107495I247214J-760845D01*
G01*
G37*
%TD.AperFunction*%
%TO.P,REF\u002A\u002A,1*%
X354640000Y-41000000D03*
%TD*%
%TO.P,REF\u002A\u002A,1*%
%TO.N,N/C*%
X389535277Y-32424906D03*
%TO.P,REF\u002A\u002A,2*%
X392757044Y-31057347D03*
%TD*%
%TO.P,REF\u002A\u002A,2*%
%TO.N,N/C*%
X351518508Y-110644189D03*
%TO.P,REF\u002A\u002A,1*%
X349022131Y-113097372D03*
%TD*%
%TO.P,REF\u002A\u002A,1*%
%TO.N,N/C*%
X425250000Y-117490000D03*
%TO.P,REF\u002A\u002A,2*%
%TA.AperFunction,ComponentPad*%
G36*
G01*
X424893069Y-124300653D02*
X424893069Y-124300653D01*
G75*
G02*
X425650104Y-125141426I-41869J-798904D01*
G01*
X425650104Y-125141426D01*
G75*
G02*
X424809331Y-125898461I-798904J41869D01*
G01*
X424809331Y-125898461D01*
G75*
G02*
X424052296Y-125057688I41869J798904D01*
G01*
X424052296Y-125057688D01*
G75*
G02*
X424893069Y-124300653I798904J-41869D01*
G01*
G37*
%TD.AperFunction*%
%TD*%
%TO.P,REF\u002A\u002A,1*%
%TO.N,N/C*%
X363217372Y-21497869D03*
%TO.P,REF\u002A\u002A,2*%
X360764189Y-19001492D03*
%TD*%
%TO.P,REF\u002A\u002A,1*%
%TO.N,N/C*%
X407020000Y-116970000D03*
%TO.P,REF\u002A\u002A,2*%
%TA.AperFunction,ComponentPad*%
G36*
G01*
X406307116Y-123752639D02*
X406307116Y-123752639D01*
G75*
G02*
X407019111Y-124631880I-83623J-795618D01*
G01*
X407019111Y-124631880D01*
G75*
G02*
X406139870Y-125343875I-795618J83623D01*
G01*
X406139870Y-125343875D01*
G75*
G02*
X405427875Y-124464634I83623J795618D01*
G01*
X405427875Y-124464634D01*
G75*
G02*
X406307116Y-123752639I795618J-83623D01*
G01*
G37*
%TD.AperFunction*%
%TD*%
%TO.P,REF\u002A\u002A,1*%
%TO.N,N/C*%
X449320000Y-116960000D03*
%TO.P,REF\u002A\u002A,2*%
%TA.AperFunction,ComponentPad*%
G36*
G01*
X453084210Y-111272899D02*
X453084210Y-111272899D01*
G75*
G02*
X452858651Y-110164240I441550J667109D01*
G01*
X452858651Y-110164240D01*
G75*
G02*
X453967310Y-109938681I667109J-441550D01*
G01*
X453967310Y-109938681D01*
G75*
G02*
X454192869Y-111047340I-441550J-667109D01*
G01*
X454192869Y-111047340D01*
G75*
G02*
X453084210Y-111272899I-667109J441550D01*
G01*
G37*
%TD.AperFunction*%
%TD*%
%TO.P,REF\u002A\u002A,1*%
%TO.N,N/C*%
X378640000Y-26280000D03*
%TO.P,REF\u002A\u002A,2*%
%TA.AperFunction,ComponentPad*%
G36*
G01*
X378996931Y-19469347D02*
X378996931Y-19469347D01*
G75*
G02*
X378239896Y-18628574I41869J798904D01*
G01*
X378239896Y-18628574D01*
G75*
G02*
X379080669Y-17871539I798904J-41869D01*
G01*
X379080669Y-17871539D01*
G75*
G02*
X379837704Y-18712312I-41869J-798904D01*
G01*
X379837704Y-18712312D01*
G75*
G02*
X378996931Y-19469347I-798904J41869D01*
G01*
G37*
%TD.AperFunction*%
%TD*%
D17*
%TO.P,REF\u002A\u002A,2*%
%TO.N,N/C*%
X423479594Y-93873111D03*
%TO.P,REF\u002A\u002A,3*%
X425800000Y-92840000D03*
%TA.AperFunction,ComponentPad*%
D14*
%TO.P,REF\u002A\u002A,1*%
G36*
X422149401Y-95286329D02*
G01*
X420779082Y-95896434D01*
X420168977Y-94526115D01*
X421539296Y-93916010D01*
X422149401Y-95286329D01*
G37*
%TD.AperFunction*%
%TD*%
D17*
%TO.P,REF\u002A\u002A,2*%
%TO.N,N/C*%
X417033116Y-104180646D03*
%TO.P,REF\u002A\u002A,3*%
X415576232Y-106261292D03*
%TA.AperFunction,ComponentPad*%
D14*
%TO.P,REF\u002A\u002A,1*%
G36*
X417445454Y-102284182D02*
G01*
X418305818Y-101055454D01*
X419534546Y-101915818D01*
X418674182Y-103144546D01*
X417445454Y-102284182D01*
G37*
%TD.AperFunction*%
%TD*%
D17*
%TO.P,REF\u002A\u002A,2*%
%TO.N,N/C*%
X386906884Y-39559354D03*
%TO.P,REF\u002A\u002A,3*%
X388363768Y-37478708D03*
%TA.AperFunction,ComponentPad*%
D14*
%TO.P,REF\u002A\u002A,1*%
G36*
X386494546Y-41455818D02*
G01*
X385634182Y-42684546D01*
X384405454Y-41824182D01*
X385265818Y-40595454D01*
X386494546Y-41455818D01*
G37*
%TD.AperFunction*%
%TD*%
%TO.P,REF\u002A\u002A,2*%
%TO.N,N/C*%
%TA.AperFunction,ComponentPad*%
G36*
G01*
X453852639Y-68082884D02*
X453852639Y-68082884D01*
G75*
G02*
X454731880Y-67370889I795618J-83623D01*
G01*
X454731880Y-67370889D01*
G75*
G02*
X455443875Y-68250130I-83623J-795618D01*
G01*
X455443875Y-68250130D01*
G75*
G02*
X454564634Y-68962125I-795618J83623D01*
G01*
X454564634Y-68962125D01*
G75*
G02*
X453852639Y-68082884I83623J795618D01*
G01*
G37*
%TD.AperFunction*%
D11*
%TO.P,REF\u002A\u002A,1*%
X447070000Y-67370000D03*
%TD*%
%TO.P,REF\u002A\u002A,1*%
%TO.N,N/C*%
X409830000Y-127220000D03*
D10*
%TO.P,REF\u002A\u002A,2*%
X417450000Y-127220000D03*
%TD*%
%TO.P,REF\u002A\u002A,2*%
%TO.N,N/C*%
%TA.AperFunction,ComponentPad*%
G36*
G01*
X383824854Y-81097614D02*
X383824854Y-81097614D01*
G75*
G02*
X384390540Y-82077410I-207055J-772741D01*
G01*
X384390540Y-82077410D01*
G75*
G02*
X383410744Y-82643096I-772741J207055D01*
G01*
X383410744Y-82643096D01*
G75*
G02*
X382845058Y-81663300I207055J772741D01*
G01*
X382845058Y-81663300D01*
G75*
G02*
X383824854Y-81097614I772741J-207055D01*
G01*
G37*
%TD.AperFunction*%
D11*
%TO.P,REF\u002A\u002A,1*%
X385590000Y-74510000D03*
%TD*%
%TO.P,REF\u002A\u002A,1*%
%TO.N,N/C*%
X411210000Y-93090000D03*
%TO.P,REF\u002A\u002A,2*%
%TA.AperFunction,ComponentPad*%
G36*
G01*
X404622386Y-91324854D02*
X404622386Y-91324854D01*
G75*
G02*
X403642590Y-91890540I-772741J207055D01*
G01*
X403642590Y-91890540D01*
G75*
G02*
X403076904Y-90910744I207055J772741D01*
G01*
X403076904Y-90910744D01*
G75*
G02*
X404056700Y-90345058I772741J-207055D01*
G01*
X404056700Y-90345058D01*
G75*
G02*
X404622386Y-91324854I-207055J-772741D01*
G01*
G37*
%TD.AperFunction*%
%TD*%
%TA.AperFunction,ComponentPad*%
D14*
%TO.P,REF\u002A\u002A,1*%
%TO.N,N/C*%
G36*
X432394182Y-56334546D02*
G01*
X431165454Y-55474182D01*
X432025818Y-54245454D01*
X433254546Y-55105818D01*
X432394182Y-56334546D01*
G37*
%TD.AperFunction*%
D17*
%TO.P,REF\u002A\u002A,3*%
X436371292Y-58203768D03*
%TO.P,REF\u002A\u002A,2*%
X434290646Y-56746884D03*
%TD*%
D11*
%TO.P,REF\u002A\u002A,1*%
%TO.N,N/C*%
X447660000Y-52320000D03*
%TO.P,REF\u002A\u002A,2*%
%TA.AperFunction,ComponentPad*%
G36*
G01*
X454470653Y-52676931D02*
X454470653Y-52676931D01*
G75*
G02*
X455311426Y-51919896I798904J-41869D01*
G01*
X455311426Y-51919896D01*
G75*
G02*
X456068461Y-52760669I-41869J-798904D01*
G01*
X456068461Y-52760669D01*
G75*
G02*
X455227688Y-53517704I-798904J41869D01*
G01*
X455227688Y-53517704D01*
G75*
G02*
X454470653Y-52676931I41869J798904D01*
G01*
G37*
%TD.AperFunction*%
%TD*%
%TO.P,REF\u002A\u002A,1*%
%TO.N,N/C*%
X442310000Y-120310000D03*
%TO.P,REF\u002A\u002A,2*%
%TA.AperFunction,ComponentPad*%
G36*
G01*
X447132469Y-115487531D02*
X447132469Y-115487531D01*
G75*
G02*
X447132469Y-114356161I565685J565685D01*
G01*
X447132469Y-114356161D01*
G75*
G02*
X448263839Y-114356161I565685J-565685D01*
G01*
X448263839Y-114356161D01*
G75*
G02*
X448263839Y-115487531I-565685J-565685D01*
G01*
X448263839Y-115487531D01*
G75*
G02*
X447132469Y-115487531I-565685J565685D01*
G01*
G37*
%TD.AperFunction*%
%TD*%
%TO.P,REF\u002A\u002A,2*%
%TO.N,N/C*%
%TA.AperFunction,ComponentPad*%
G36*
G01*
X354272891Y-27379459D02*
X354272891Y-27379459D01*
G75*
G02*
X354066715Y-26267033I453125J659301D01*
G01*
X354066715Y-26267033D01*
G75*
G02*
X355179141Y-26060857I659301J-453125D01*
G01*
X355179141Y-26060857D01*
G75*
G02*
X355385317Y-27173283I-453125J-659301D01*
G01*
X355385317Y-27173283D01*
G75*
G02*
X354272891Y-27379459I-659301J453125D01*
G01*
G37*
%TD.AperFunction*%
%TO.P,REF\u002A\u002A,1*%
X350410000Y-33000000D03*
%TD*%
%TA.AperFunction,ComponentPad*%
D14*
%TO.P,REF\u002A\u002A,1*%
%TO.N,N/C*%
G36*
X412914489Y-99950793D02*
G01*
X414029207Y-100954489D01*
X413025511Y-102069207D01*
X411910793Y-101065511D01*
X412914489Y-99950793D01*
G37*
%TD.AperFunction*%
D17*
%TO.P,REF\u002A\u002A,3*%
X409194824Y-97610817D03*
%TO.P,REF\u002A\u002A,2*%
X411082412Y-99310408D03*
%TD*%
%TO.P,REF\u002A\u002A,2*%
%TO.N,N/C*%
X368407025Y-92425097D03*
%TO.P,REF\u002A\u002A,3*%
X366914051Y-90370194D03*
%TA.AperFunction,ComponentPad*%
D14*
%TO.P,REF\u002A\u002A,1*%
G36*
X370065924Y-93432398D02*
G01*
X370947602Y-94645924D01*
X369734076Y-95527602D01*
X368852398Y-94314076D01*
X370065924Y-93432398D01*
G37*
%TD.AperFunction*%
%TD*%
D16*
%TO.P,REF\u002A\u002A,2*%
%TO.N,N/C*%
X421050000Y-115240000D03*
D18*
%TO.P,REF\u002A\u002A,1*%
X421050000Y-112700000D03*
%TD*%
%TA.AperFunction,ComponentPad*%
D14*
%TO.P,REF\u002A\u002A,1*%
%TO.N,N/C*%
G36*
X380437602Y-39935924D02*
G01*
X379224076Y-40817602D01*
X378342398Y-39604076D01*
X379555924Y-38722398D01*
X380437602Y-39935924D01*
G37*
%TD.AperFunction*%
D17*
%TO.P,REF\u002A\u002A,3*%
X383499806Y-36784051D03*
%TO.P,REF\u002A\u002A,2*%
X381444903Y-38277025D03*
%TD*%
%TO.P,REF\u002A\u002A,2*%
%TO.N,N/C*%
X426646884Y-112569354D03*
%TO.P,REF\u002A\u002A,3*%
X428103768Y-110488708D03*
%TA.AperFunction,ComponentPad*%
D14*
%TO.P,REF\u002A\u002A,1*%
G36*
X426234546Y-114465818D02*
G01*
X425374182Y-115694546D01*
X424145454Y-114834182D01*
X425005818Y-113605454D01*
X426234546Y-114465818D01*
G37*
%TD.AperFunction*%
%TD*%
D11*
%TO.P,REF\u002A\u002A,1*%
%TO.N,N/C*%
X389300000Y-44490000D03*
%TO.P,REF\u002A\u002A,2*%
%TA.AperFunction,ComponentPad*%
G36*
G01*
X382517361Y-45202884D02*
X382517361Y-45202884D01*
G75*
G02*
X381805366Y-46082125I-795618J-83623D01*
G01*
X381805366Y-46082125D01*
G75*
G02*
X380926125Y-45370130I-83623J795618D01*
G01*
X380926125Y-45370130D01*
G75*
G02*
X381638120Y-44490889I795618J83623D01*
G01*
X381638120Y-44490889D01*
G75*
G02*
X382517361Y-45202884I83623J-795618D01*
G01*
G37*
%TD.AperFunction*%
%TD*%
D17*
%TO.P,REF\u002A\u002A,2*%
%TO.N,N/C*%
X435572975Y-51284903D03*
%TO.P,REF\u002A\u002A,3*%
X437065949Y-53339806D03*
%TA.AperFunction,ComponentPad*%
D14*
%TO.P,REF\u002A\u002A,1*%
G36*
X433914076Y-50277602D02*
G01*
X433032398Y-49064076D01*
X434245924Y-48182398D01*
X435127602Y-49395924D01*
X433914076Y-50277602D01*
G37*
%TD.AperFunction*%
%TD*%
%TA.AperFunction,ComponentPad*%
%TO.P,REF\u002A\u002A,1*%
%TO.N,N/C*%
G36*
X378563671Y-92069401D02*
G01*
X377953566Y-90699082D01*
X379323885Y-90088977D01*
X379933990Y-91459296D01*
X378563671Y-92069401D01*
G37*
%TD.AperFunction*%
D17*
%TO.P,REF\u002A\u002A,3*%
X381010000Y-95720000D03*
%TO.P,REF\u002A\u002A,2*%
X379976889Y-93399594D03*
%TD*%
%TO.P,REF\u002A\u002A,2*%
%TO.N,N/C*%
%TA.AperFunction,ComponentPad*%
G36*
G01*
X407626056Y-109680380D02*
X407626056Y-109680380D01*
G75*
G02*
X408031503Y-110736605I-325389J-730836D01*
G01*
X408031503Y-110736605D01*
G75*
G02*
X406975278Y-111142052I-730836J325389D01*
G01*
X406975278Y-111142052D01*
G75*
G02*
X406569831Y-110085827I325389J730836D01*
G01*
X406569831Y-110085827D01*
G75*
G02*
X407626056Y-109680380I730836J-325389D01*
G01*
G37*
%TD.AperFunction*%
D11*
%TO.P,REF\u002A\u002A,1*%
X410400000Y-103450000D03*
%TD*%
%TO.P,REF\u002A\u002A,1*%
%TO.N,N/C*%
X416320000Y-56000000D03*
%TO.P,REF\u002A\u002A,2*%
%TA.AperFunction,ComponentPad*%
G36*
G01*
X411582430Y-51094103D02*
X411582430Y-51094103D01*
G75*
G02*
X410451231Y-51074358I-555727J575472D01*
G01*
X410451231Y-51074358D01*
G75*
G02*
X410470976Y-49943159I575472J555727D01*
G01*
X410470976Y-49943159D01*
G75*
G02*
X411602175Y-49962904I555727J-575472D01*
G01*
X411602175Y-49962904D01*
G75*
G02*
X411582430Y-51094103I-575472J-555727D01*
G01*
G37*
%TD.AperFunction*%
%TD*%
%TO.P,REF\u002A\u002A,2*%
%TO.N,N/C*%
%TA.AperFunction,ComponentPad*%
G36*
G01*
X421213069Y-124370653D02*
X421213069Y-124370653D01*
G75*
G02*
X421970104Y-125211426I-41869J-798904D01*
G01*
X421970104Y-125211426D01*
G75*
G02*
X421129331Y-125968461I-798904J41869D01*
G01*
X421129331Y-125968461D01*
G75*
G02*
X420372296Y-125127688I41869J798904D01*
G01*
X420372296Y-125127688D01*
G75*
G02*
X421213069Y-124370653I798904J-41869D01*
G01*
G37*
%TD.AperFunction*%
%TO.P,REF\u002A\u002A,1*%
X421570000Y-117560000D03*
%TD*%
%TO.P,REF\u002A\u002A,2*%
%TO.N,N/C*%
%TA.AperFunction,ComponentPad*%
G36*
G01*
X382676931Y-19399347D02*
X382676931Y-19399347D01*
G75*
G02*
X381919896Y-18558574I41869J798904D01*
G01*
X381919896Y-18558574D01*
G75*
G02*
X382760669Y-17801539I798904J-41869D01*
G01*
X382760669Y-17801539D01*
G75*
G02*
X383517704Y-18642312I-41869J-798904D01*
G01*
X383517704Y-18642312D01*
G75*
G02*
X382676931Y-19399347I-798904J41869D01*
G01*
G37*
%TD.AperFunction*%
%TO.P,REF\u002A\u002A,1*%
X382320000Y-26210000D03*
%TD*%
%TO.P,REF\u002A\u002A,1*%
%TO.N,N/C*%
X387600000Y-87800000D03*
%TO.P,REF\u002A\u002A,2*%
%TA.AperFunction,ComponentPad*%
G36*
G01*
X392337570Y-92705897D02*
X392337570Y-92705897D01*
G75*
G02*
X393468769Y-92725642I555727J-575472D01*
G01*
X393468769Y-92725642D01*
G75*
G02*
X393449024Y-93856841I-575472J-555727D01*
G01*
X393449024Y-93856841D01*
G75*
G02*
X392317825Y-93837096I-555727J575472D01*
G01*
X392317825Y-93837096D01*
G75*
G02*
X392337570Y-92705897I575472J555727D01*
G01*
G37*
%TD.AperFunction*%
%TD*%
%TA.AperFunction,ComponentPad*%
D14*
%TO.P,REF\u002A\u002A,1*%
%TO.N,N/C*%
G36*
X423502398Y-103804076D02*
G01*
X424715924Y-102922398D01*
X425597602Y-104135924D01*
X424384076Y-105017602D01*
X423502398Y-103804076D01*
G37*
%TD.AperFunction*%
D17*
%TO.P,REF\u002A\u002A,3*%
X420440194Y-106955949D03*
%TO.P,REF\u002A\u002A,2*%
X422495097Y-105462975D03*
%TD*%
%TO.P,REF\u002A\u002A,2*%
%TO.N,N/C*%
%TA.AperFunction,ComponentPad*%
G36*
G01*
X405342386Y-88454854D02*
X405342386Y-88454854D01*
G75*
G02*
X404362590Y-89020540I-772741J207055D01*
G01*
X404362590Y-89020540D01*
G75*
G02*
X403796904Y-88040744I207055J772741D01*
G01*
X403796904Y-88040744D01*
G75*
G02*
X404776700Y-87475058I772741J-207055D01*
G01*
X404776700Y-87475058D01*
G75*
G02*
X405342386Y-88454854I-207055J-772741D01*
G01*
G37*
%TD.AperFunction*%
D11*
%TO.P,REF\u002A\u002A,1*%
X411930000Y-90220000D03*
%TD*%
%TA.AperFunction,ComponentPad*%
D14*
%TO.P,REF\u002A\u002A,1*%
%TO.N,N/C*%
G36*
X406482975Y-55626796D02*
G01*
X404983204Y-55652975D01*
X404957025Y-54153204D01*
X406456796Y-54127025D01*
X406482975Y-55626796D01*
G37*
%TD.AperFunction*%
D17*
%TO.P,REF\u002A\u002A,3*%
X410799226Y-54801342D03*
%TO.P,REF\u002A\u002A,2*%
X408259613Y-54845671D03*
%TD*%
%TO.P,REF\u002A\u002A,2*%
%TO.N,N/C*%
%TA.AperFunction,ComponentPad*%
G36*
G01*
X381124103Y-62287570D02*
X381124103Y-62287570D01*
G75*
G02*
X381104358Y-63418769I-575472J-555727D01*
G01*
X381104358Y-63418769D01*
G75*
G02*
X379973159Y-63399024I-555727J575472D01*
G01*
X379973159Y-63399024D01*
G75*
G02*
X379992904Y-62267825I575472J555727D01*
G01*
X379992904Y-62267825D01*
G75*
G02*
X381124103Y-62287570I555727J-575472D01*
G01*
G37*
%TD.AperFunction*%
D11*
%TO.P,REF\u002A\u002A,1*%
X386030000Y-57550000D03*
%TD*%
%TO.P,REF\u002A\u002A,1*%
%TO.N,N/C*%
X382700000Y-73800000D03*
%TO.P,REF\u002A\u002A,2*%
%TA.AperFunction,ComponentPad*%
G36*
G01*
X380934854Y-80387614D02*
X380934854Y-80387614D01*
G75*
G02*
X381500540Y-81367410I-207055J-772741D01*
G01*
X381500540Y-81367410D01*
G75*
G02*
X380520744Y-81933096I-772741J207055D01*
G01*
X380520744Y-81933096D01*
G75*
G02*
X379955058Y-80953300I207055J772741D01*
G01*
X379955058Y-80953300D01*
G75*
G02*
X380934854Y-80387614I772741J-207055D01*
G01*
G37*
%TD.AperFunction*%
%TD*%
D16*
%TO.P,REF\u002A\u002A,2*%
%TO.N,N/C*%
X382920000Y-28620000D03*
D18*
%TO.P,REF\u002A\u002A,1*%
X382920000Y-31160000D03*
%TD*%
%TO.P,REF\u002A\u002A,2*%
%TO.N,N/C*%
%TA.AperFunction,ComponentPad*%
G36*
G01*
X455706206Y-100692505D02*
X455706206Y-100692505D01*
G75*
G02*
X456219837Y-99684446I760845J247214D01*
G01*
X456219837Y-99684446D01*
G75*
G02*
X457227896Y-100198077I247214J-760845D01*
G01*
X457227896Y-100198077D01*
G75*
G02*
X456714265Y-101206136I-760845J-247214D01*
G01*
X456714265Y-101206136D01*
G75*
G02*
X455706206Y-100692505I-247214J760845D01*
G01*
G37*
%TD.AperFunction*%
D11*
%TO.P,REF\u002A\u002A,1*%
X449220000Y-102800000D03*
%TD*%
%TA.AperFunction,ComponentPad*%
D14*
%TO.P,REF\u002A\u002A,1*%
%TO.N,N/C*%
G36*
X357304134Y-87145657D02*
G01*
X357234343Y-88744134D01*
X355635866Y-88674343D01*
X355705657Y-87075866D01*
X357304134Y-87145657D01*
G37*
%TD.AperFunction*%
%TO.P,REF\u002A\u002A,5*%
%TA.AperFunction,ComponentPad*%
G36*
G01*
X349988871Y-79999769D02*
X349988871Y-79999769D01*
G75*
G02*
X349154736Y-80764112I-799239J34896D01*
G01*
X349154736Y-80764112D01*
G75*
G02*
X348390393Y-79929977I34896J799239D01*
G01*
X348390393Y-79929977D01*
G75*
G02*
X349224528Y-79165634I799239J-34896D01*
G01*
X349224528Y-79165634D01*
G75*
G02*
X349988871Y-79999769I-34896J-799239D01*
G01*
G37*
%TD.AperFunction*%
%TO.P,REF\u002A\u002A,2*%
%TA.AperFunction,ComponentPad*%
G36*
G01*
X357380032Y-85407314D02*
X357380032Y-85407314D01*
G75*
G02*
X356545897Y-86171657I-799239J34896D01*
G01*
X356545897Y-86171657D01*
G75*
G02*
X355781554Y-85337522I34896J799239D01*
G01*
X355781554Y-85337522D01*
G75*
G02*
X356615689Y-84573179I799239J-34896D01*
G01*
X356615689Y-84573179D01*
G75*
G02*
X357380032Y-85407314I-34896J-799239D01*
G01*
G37*
%TD.AperFunction*%
%TO.P,REF\u002A\u002A,6*%
%TA.AperFunction,ComponentPad*%
G36*
G01*
X349878078Y-82537351D02*
X349878078Y-82537351D01*
G75*
G02*
X349043943Y-83301694I-799239J34896D01*
G01*
X349043943Y-83301694D01*
G75*
G02*
X348279600Y-82467559I34896J799239D01*
G01*
X348279600Y-82467559D01*
G75*
G02*
X349113735Y-81703216I799239J-34896D01*
G01*
X349113735Y-81703216D01*
G75*
G02*
X349878078Y-82537351I-34896J-799239D01*
G01*
G37*
%TD.AperFunction*%
%TO.P,REF\u002A\u002A,3*%
%TA.AperFunction,ComponentPad*%
G36*
G01*
X357490825Y-82869731D02*
X357490825Y-82869731D01*
G75*
G02*
X356656690Y-83634074I-799239J34896D01*
G01*
X356656690Y-83634074D01*
G75*
G02*
X355892347Y-82799939I34896J799239D01*
G01*
X355892347Y-82799939D01*
G75*
G02*
X356726482Y-82035596I799239J-34896D01*
G01*
X356726482Y-82035596D01*
G75*
G02*
X357490825Y-82869731I-34896J-799239D01*
G01*
G37*
%TD.AperFunction*%
%TO.P,REF\u002A\u002A,7*%
%TA.AperFunction,ComponentPad*%
G36*
G01*
X349767285Y-85074934D02*
X349767285Y-85074934D01*
G75*
G02*
X348933150Y-85839277I-799239J34896D01*
G01*
X348933150Y-85839277D01*
G75*
G02*
X348168807Y-85005142I34896J799239D01*
G01*
X348168807Y-85005142D01*
G75*
G02*
X349002942Y-84240799I799239J-34896D01*
G01*
X349002942Y-84240799D01*
G75*
G02*
X349767285Y-85074934I-34896J-799239D01*
G01*
G37*
%TD.AperFunction*%
%TO.P,REF\u002A\u002A,4*%
%TA.AperFunction,ComponentPad*%
G36*
G01*
X357601619Y-80332149D02*
X357601619Y-80332149D01*
G75*
G02*
X356767484Y-81096492I-799239J34896D01*
G01*
X356767484Y-81096492D01*
G75*
G02*
X356003141Y-80262357I34896J799239D01*
G01*
X356003141Y-80262357D01*
G75*
G02*
X356837276Y-79498014I799239J-34896D01*
G01*
X356837276Y-79498014D01*
G75*
G02*
X357601619Y-80332149I-34896J-799239D01*
G01*
G37*
%TD.AperFunction*%
%TO.P,REF\u002A\u002A,8*%
%TA.AperFunction,ComponentPad*%
G36*
G01*
X349656492Y-87612516D02*
X349656492Y-87612516D01*
G75*
G02*
X348822357Y-88376859I-799239J34896D01*
G01*
X348822357Y-88376859D01*
G75*
G02*
X348058014Y-87542724I34896J799239D01*
G01*
X348058014Y-87542724D01*
G75*
G02*
X348892149Y-86778381I799239J-34896D01*
G01*
X348892149Y-86778381D01*
G75*
G02*
X349656492Y-87612516I-34896J-799239D01*
G01*
G37*
%TD.AperFunction*%
%TD*%
%TA.AperFunction,ComponentPad*%
%TO.P,REF\u002A\u002A,1*%
%TO.N,N/C*%
G36*
X425366329Y-51670599D02*
G01*
X425976434Y-53040918D01*
X424606115Y-53651023D01*
X423996010Y-52280704D01*
X425366329Y-51670599D01*
G37*
%TD.AperFunction*%
D17*
%TO.P,REF\u002A\u002A,3*%
X422920000Y-48020000D03*
%TO.P,REF\u002A\u002A,2*%
X423953111Y-50340406D03*
%TD*%
%TO.P,REF\u002A\u002A,14*%
%TO.N,N/C*%
%TA.AperFunction,ComponentPad*%
G36*
G01*
X364637531Y-118682469D02*
X364637531Y-118682469D01*
G75*
G02*
X364637531Y-119813839I-565685J-565685D01*
G01*
X364637531Y-119813839D01*
G75*
G02*
X363506161Y-119813839I-565685J565685D01*
G01*
X363506161Y-119813839D01*
G75*
G02*
X363506161Y-118682469I565685J565685D01*
G01*
X363506161Y-118682469D01*
G75*
G02*
X364637531Y-118682469I565685J-565685D01*
G01*
G37*
%TD.AperFunction*%
%TO.P,REF\u002A\u002A,7*%
%TA.AperFunction,ComponentPad*%
G36*
G01*
X359249378Y-102518008D02*
X359249378Y-102518008D01*
G75*
G02*
X359249378Y-103649378I-565685J-565685D01*
G01*
X359249378Y-103649378D01*
G75*
G02*
X358118008Y-103649378I-565685J565685D01*
G01*
X358118008Y-103649378D01*
G75*
G02*
X358118008Y-102518008I565685J565685D01*
G01*
X358118008Y-102518008D01*
G75*
G02*
X359249378Y-102518008I565685J-565685D01*
G01*
G37*
%TD.AperFunction*%
%TO.P,REF\u002A\u002A,13*%
%TA.AperFunction,ComponentPad*%
G36*
G01*
X362841480Y-116886417D02*
X362841480Y-116886417D01*
G75*
G02*
X362841480Y-118017787I-565685J-565685D01*
G01*
X362841480Y-118017787D01*
G75*
G02*
X361710110Y-118017787I-565685J565685D01*
G01*
X361710110Y-118017787D01*
G75*
G02*
X361710110Y-116886417I565685J565685D01*
G01*
X361710110Y-116886417D01*
G75*
G02*
X362841480Y-116886417I565685J-565685D01*
G01*
G37*
%TD.AperFunction*%
%TO.P,REF\u002A\u002A,6*%
%TA.AperFunction,ComponentPad*%
G36*
G01*
X361045429Y-104314059D02*
X361045429Y-104314059D01*
G75*
G02*
X361045429Y-105445429I-565685J-565685D01*
G01*
X361045429Y-105445429D01*
G75*
G02*
X359914059Y-105445429I-565685J565685D01*
G01*
X359914059Y-105445429D01*
G75*
G02*
X359914059Y-104314059I565685J565685D01*
G01*
X359914059Y-104314059D01*
G75*
G02*
X361045429Y-104314059I565685J-565685D01*
G01*
G37*
%TD.AperFunction*%
%TO.P,REF\u002A\u002A,12*%
%TA.AperFunction,ComponentPad*%
G36*
G01*
X361045429Y-115090366D02*
X361045429Y-115090366D01*
G75*
G02*
X361045429Y-116221736I-565685J-565685D01*
G01*
X361045429Y-116221736D01*
G75*
G02*
X359914059Y-116221736I-565685J565685D01*
G01*
X359914059Y-116221736D01*
G75*
G02*
X359914059Y-115090366I565685J565685D01*
G01*
X359914059Y-115090366D01*
G75*
G02*
X361045429Y-115090366I565685J-565685D01*
G01*
G37*
%TD.AperFunction*%
%TO.P,REF\u002A\u002A,5*%
%TA.AperFunction,ComponentPad*%
G36*
G01*
X362841480Y-106110110D02*
X362841480Y-106110110D01*
G75*
G02*
X362841480Y-107241480I-565685J-565685D01*
G01*
X362841480Y-107241480D01*
G75*
G02*
X361710110Y-107241480I-565685J565685D01*
G01*
X361710110Y-107241480D01*
G75*
G02*
X361710110Y-106110110I565685J565685D01*
G01*
X361710110Y-106110110D01*
G75*
G02*
X362841480Y-106110110I565685J-565685D01*
G01*
G37*
%TD.AperFunction*%
%TO.P,REF\u002A\u002A,11*%
%TA.AperFunction,ComponentPad*%
G36*
G01*
X359249378Y-113294315D02*
X359249378Y-113294315D01*
G75*
G02*
X359249378Y-114425685I-565685J-565685D01*
G01*
X359249378Y-114425685D01*
G75*
G02*
X358118008Y-114425685I-565685J565685D01*
G01*
X358118008Y-114425685D01*
G75*
G02*
X358118008Y-113294315I565685J565685D01*
G01*
X358118008Y-113294315D01*
G75*
G02*
X359249378Y-113294315I565685J-565685D01*
G01*
G37*
%TD.AperFunction*%
%TO.P,REF\u002A\u002A,4*%
%TA.AperFunction,ComponentPad*%
G36*
G01*
X364637531Y-107906161D02*
X364637531Y-107906161D01*
G75*
G02*
X364637531Y-109037531I-565685J-565685D01*
G01*
X364637531Y-109037531D01*
G75*
G02*
X363506161Y-109037531I-565685J565685D01*
G01*
X363506161Y-109037531D01*
G75*
G02*
X363506161Y-107906161I565685J565685D01*
G01*
X363506161Y-107906161D01*
G75*
G02*
X364637531Y-107906161I565685J-565685D01*
G01*
G37*
%TD.AperFunction*%
%TO.P,REF\u002A\u002A,10*%
%TA.AperFunction,ComponentPad*%
G36*
G01*
X357453326Y-111498264D02*
X357453326Y-111498264D01*
G75*
G02*
X357453326Y-112629634I-565685J-565685D01*
G01*
X357453326Y-112629634D01*
G75*
G02*
X356321956Y-112629634I-565685J565685D01*
G01*
X356321956Y-112629634D01*
G75*
G02*
X356321956Y-111498264I565685J565685D01*
G01*
X356321956Y-111498264D01*
G75*
G02*
X357453326Y-111498264I565685J-565685D01*
G01*
G37*
%TD.AperFunction*%
%TO.P,REF\u002A\u002A,3*%
%TA.AperFunction,ComponentPad*%
G36*
G01*
X366433583Y-109702213D02*
X366433583Y-109702213D01*
G75*
G02*
X366433583Y-110833583I-565685J-565685D01*
G01*
X366433583Y-110833583D01*
G75*
G02*
X365302213Y-110833583I-565685J565685D01*
G01*
X365302213Y-110833583D01*
G75*
G02*
X365302213Y-109702213I565685J565685D01*
G01*
X365302213Y-109702213D01*
G75*
G02*
X366433583Y-109702213I565685J-565685D01*
G01*
G37*
%TD.AperFunction*%
%TO.P,REF\u002A\u002A,9*%
%TA.AperFunction,ComponentPad*%
G36*
G01*
X355657275Y-109702213D02*
X355657275Y-109702213D01*
G75*
G02*
X355657275Y-110833583I-565685J-565685D01*
G01*
X355657275Y-110833583D01*
G75*
G02*
X354525905Y-110833583I-565685J565685D01*
G01*
X354525905Y-110833583D01*
G75*
G02*
X354525905Y-109702213I565685J565685D01*
G01*
X354525905Y-109702213D01*
G75*
G02*
X355657275Y-109702213I565685J-565685D01*
G01*
G37*
%TD.AperFunction*%
%TO.P,REF\u002A\u002A,2*%
%TA.AperFunction,ComponentPad*%
G36*
G01*
X368229634Y-111498264D02*
X368229634Y-111498264D01*
G75*
G02*
X368229634Y-112629634I-565685J-565685D01*
G01*
X368229634Y-112629634D01*
G75*
G02*
X367098264Y-112629634I-565685J565685D01*
G01*
X367098264Y-112629634D01*
G75*
G02*
X367098264Y-111498264I565685J565685D01*
G01*
X367098264Y-111498264D01*
G75*
G02*
X368229634Y-111498264I565685J-565685D01*
G01*
G37*
%TD.AperFunction*%
%TO.P,REF\u002A\u002A,8*%
%TA.AperFunction,ComponentPad*%
G36*
G01*
X353861224Y-107906161D02*
X353861224Y-107906161D01*
G75*
G02*
X353861224Y-109037531I-565685J-565685D01*
G01*
X353861224Y-109037531D01*
G75*
G02*
X352729854Y-109037531I-565685J565685D01*
G01*
X352729854Y-109037531D01*
G75*
G02*
X352729854Y-107906161I565685J565685D01*
G01*
X352729854Y-107906161D01*
G75*
G02*
X353861224Y-107906161I565685J-565685D01*
G01*
G37*
%TD.AperFunction*%
%TA.AperFunction,ComponentPad*%
D14*
%TO.P,REF\u002A\u002A,1*%
G36*
X369460000Y-112728629D02*
G01*
X370591371Y-113860000D01*
X369460000Y-114991371D01*
X368328629Y-113860000D01*
X369460000Y-112728629D01*
G37*
%TD.AperFunction*%
%TD*%
%TO.P,REF\u002A\u002A,14*%
%TO.N,N/C*%
%TA.AperFunction,ComponentPad*%
G36*
G01*
X355157531Y-34537531D02*
X355157531Y-34537531D01*
G75*
G02*
X354026161Y-34537531I-565685J565685D01*
G01*
X354026161Y-34537531D01*
G75*
G02*
X354026161Y-33406161I565685J565685D01*
G01*
X354026161Y-33406161D01*
G75*
G02*
X355157531Y-33406161I565685J-565685D01*
G01*
X355157531Y-33406161D01*
G75*
G02*
X355157531Y-34537531I-565685J-565685D01*
G01*
G37*
%TD.AperFunction*%
%TO.P,REF\u002A\u002A,7*%
%TA.AperFunction,ComponentPad*%
G36*
G01*
X371321992Y-29149378D02*
X371321992Y-29149378D01*
G75*
G02*
X370190622Y-29149378I-565685J565685D01*
G01*
X370190622Y-29149378D01*
G75*
G02*
X370190622Y-28018008I565685J565685D01*
G01*
X370190622Y-28018008D01*
G75*
G02*
X371321992Y-28018008I565685J-565685D01*
G01*
X371321992Y-28018008D01*
G75*
G02*
X371321992Y-29149378I-565685J-565685D01*
G01*
G37*
%TD.AperFunction*%
%TO.P,REF\u002A\u002A,13*%
%TA.AperFunction,ComponentPad*%
G36*
G01*
X356953583Y-32741480D02*
X356953583Y-32741480D01*
G75*
G02*
X355822213Y-32741480I-565685J565685D01*
G01*
X355822213Y-32741480D01*
G75*
G02*
X355822213Y-31610110I565685J565685D01*
G01*
X355822213Y-31610110D01*
G75*
G02*
X356953583Y-31610110I565685J-565685D01*
G01*
X356953583Y-31610110D01*
G75*
G02*
X356953583Y-32741480I-565685J-565685D01*
G01*
G37*
%TD.AperFunction*%
%TO.P,REF\u002A\u002A,6*%
%TA.AperFunction,ComponentPad*%
G36*
G01*
X369525941Y-30945429D02*
X369525941Y-30945429D01*
G75*
G02*
X368394571Y-30945429I-565685J565685D01*
G01*
X368394571Y-30945429D01*
G75*
G02*
X368394571Y-29814059I565685J565685D01*
G01*
X368394571Y-29814059D01*
G75*
G02*
X369525941Y-29814059I565685J-565685D01*
G01*
X369525941Y-29814059D01*
G75*
G02*
X369525941Y-30945429I-565685J-565685D01*
G01*
G37*
%TD.AperFunction*%
%TO.P,REF\u002A\u002A,12*%
%TA.AperFunction,ComponentPad*%
G36*
G01*
X358749634Y-30945429D02*
X358749634Y-30945429D01*
G75*
G02*
X357618264Y-30945429I-565685J565685D01*
G01*
X357618264Y-30945429D01*
G75*
G02*
X357618264Y-29814059I565685J565685D01*
G01*
X357618264Y-29814059D01*
G75*
G02*
X358749634Y-29814059I565685J-565685D01*
G01*
X358749634Y-29814059D01*
G75*
G02*
X358749634Y-30945429I-565685J-565685D01*
G01*
G37*
%TD.AperFunction*%
%TO.P,REF\u002A\u002A,5*%
%TA.AperFunction,ComponentPad*%
G36*
G01*
X367729890Y-32741480D02*
X367729890Y-32741480D01*
G75*
G02*
X366598520Y-32741480I-565685J565685D01*
G01*
X366598520Y-32741480D01*
G75*
G02*
X366598520Y-31610110I565685J565685D01*
G01*
X366598520Y-31610110D01*
G75*
G02*
X367729890Y-31610110I565685J-565685D01*
G01*
X367729890Y-31610110D01*
G75*
G02*
X367729890Y-32741480I-565685J-565685D01*
G01*
G37*
%TD.AperFunction*%
%TO.P,REF\u002A\u002A,11*%
%TA.AperFunction,ComponentPad*%
G36*
G01*
X360545685Y-29149378D02*
X360545685Y-29149378D01*
G75*
G02*
X359414315Y-29149378I-565685J565685D01*
G01*
X359414315Y-29149378D01*
G75*
G02*
X359414315Y-28018008I565685J565685D01*
G01*
X359414315Y-28018008D01*
G75*
G02*
X360545685Y-28018008I565685J-565685D01*
G01*
X360545685Y-28018008D01*
G75*
G02*
X360545685Y-29149378I-565685J-565685D01*
G01*
G37*
%TD.AperFunction*%
%TO.P,REF\u002A\u002A,4*%
%TA.AperFunction,ComponentPad*%
G36*
G01*
X365933839Y-34537531D02*
X365933839Y-34537531D01*
G75*
G02*
X364802469Y-34537531I-565685J565685D01*
G01*
X364802469Y-34537531D01*
G75*
G02*
X364802469Y-33406161I565685J565685D01*
G01*
X364802469Y-33406161D01*
G75*
G02*
X365933839Y-33406161I565685J-565685D01*
G01*
X365933839Y-33406161D01*
G75*
G02*
X365933839Y-34537531I-565685J-565685D01*
G01*
G37*
%TD.AperFunction*%
%TO.P,REF\u002A\u002A,10*%
%TA.AperFunction,ComponentPad*%
G36*
G01*
X362341736Y-27353326D02*
X362341736Y-27353326D01*
G75*
G02*
X361210366Y-27353326I-565685J565685D01*
G01*
X361210366Y-27353326D01*
G75*
G02*
X361210366Y-26221956I565685J565685D01*
G01*
X361210366Y-26221956D01*
G75*
G02*
X362341736Y-26221956I565685J-565685D01*
G01*
X362341736Y-26221956D01*
G75*
G02*
X362341736Y-27353326I-565685J-565685D01*
G01*
G37*
%TD.AperFunction*%
%TO.P,REF\u002A\u002A,3*%
%TA.AperFunction,ComponentPad*%
G36*
G01*
X364137787Y-36333583D02*
X364137787Y-36333583D01*
G75*
G02*
X363006417Y-36333583I-565685J565685D01*
G01*
X363006417Y-36333583D01*
G75*
G02*
X363006417Y-35202213I565685J565685D01*
G01*
X363006417Y-35202213D01*
G75*
G02*
X364137787Y-35202213I565685J-565685D01*
G01*
X364137787Y-35202213D01*
G75*
G02*
X364137787Y-36333583I-565685J-565685D01*
G01*
G37*
%TD.AperFunction*%
%TO.P,REF\u002A\u002A,9*%
%TA.AperFunction,ComponentPad*%
G36*
G01*
X364137787Y-25557275D02*
X364137787Y-25557275D01*
G75*
G02*
X363006417Y-25557275I-565685J565685D01*
G01*
X363006417Y-25557275D01*
G75*
G02*
X363006417Y-24425905I565685J565685D01*
G01*
X363006417Y-24425905D01*
G75*
G02*
X364137787Y-24425905I565685J-565685D01*
G01*
X364137787Y-24425905D01*
G75*
G02*
X364137787Y-25557275I-565685J-565685D01*
G01*
G37*
%TD.AperFunction*%
%TO.P,REF\u002A\u002A,2*%
%TA.AperFunction,ComponentPad*%
G36*
G01*
X362341736Y-38129634D02*
X362341736Y-38129634D01*
G75*
G02*
X361210366Y-38129634I-565685J565685D01*
G01*
X361210366Y-38129634D01*
G75*
G02*
X361210366Y-36998264I565685J565685D01*
G01*
X361210366Y-36998264D01*
G75*
G02*
X362341736Y-36998264I565685J-565685D01*
G01*
X362341736Y-36998264D01*
G75*
G02*
X362341736Y-38129634I-565685J-565685D01*
G01*
G37*
%TD.AperFunction*%
%TO.P,REF\u002A\u002A,8*%
%TA.AperFunction,ComponentPad*%
G36*
G01*
X365933839Y-23761224D02*
X365933839Y-23761224D01*
G75*
G02*
X364802469Y-23761224I-565685J565685D01*
G01*
X364802469Y-23761224D01*
G75*
G02*
X364802469Y-22629854I565685J565685D01*
G01*
X364802469Y-22629854D01*
G75*
G02*
X365933839Y-22629854I565685J-565685D01*
G01*
X365933839Y-22629854D01*
G75*
G02*
X365933839Y-23761224I-565685J-565685D01*
G01*
G37*
%TD.AperFunction*%
%TA.AperFunction,ComponentPad*%
%TO.P,REF\u002A\u002A,1*%
G36*
X361111371Y-39360000D02*
G01*
X359980000Y-40491371D01*
X358848629Y-39360000D01*
X359980000Y-38228629D01*
X361111371Y-39360000D01*
G37*
%TD.AperFunction*%
%TD*%
%TO.P,REF\u002A\u002A,2*%
%TO.N,N/C*%
%TA.AperFunction,ComponentPad*%
G36*
G01*
X387790531Y-55344350D02*
X387790531Y-55344350D01*
G75*
G02*
X388205180Y-56396997I-318999J-733648D01*
G01*
X388205180Y-56396997D01*
G75*
G02*
X387152533Y-56811646I-733648J318999D01*
G01*
X387152533Y-56811646D01*
G75*
G02*
X386737884Y-55758999I318999J733648D01*
G01*
X386737884Y-55758999D01*
G75*
G02*
X387790531Y-55344350I733648J-318999D01*
G01*
G37*
%TD.AperFunction*%
D11*
%TO.P,REF\u002A\u002A,1*%
X390510000Y-49090000D03*
%TD*%
%TO.P,REF\u002A\u002A,1*%
%TO.N,N/C*%
X391900000Y-53640000D03*
%TO.P,REF\u002A\u002A,2*%
%TA.AperFunction,ComponentPad*%
G36*
G01*
X398487614Y-55405146D02*
X398487614Y-55405146D01*
G75*
G02*
X399467410Y-54839460I772741J-207055D01*
G01*
X399467410Y-54839460D01*
G75*
G02*
X400033096Y-55819256I-207055J-772741D01*
G01*
X400033096Y-55819256D01*
G75*
G02*
X399053300Y-56384942I-772741J207055D01*
G01*
X399053300Y-56384942D01*
G75*
G02*
X398487614Y-55405146I207055J772741D01*
G01*
G37*
%TD.AperFunction*%
%TD*%
D17*
%TO.P,REF\u002A\u002A,2*%
%TO.N,N/C*%
X384945671Y-65480387D03*
%TO.P,REF\u002A\u002A,3*%
X384901342Y-62940774D03*
%TA.AperFunction,ComponentPad*%
D14*
%TO.P,REF\u002A\u002A,1*%
G36*
X385726796Y-67257025D02*
G01*
X385752975Y-68756796D01*
X384253204Y-68782975D01*
X384227025Y-67283204D01*
X385726796Y-67257025D01*
G37*
%TD.AperFunction*%
%TD*%
%TA.AperFunction,ComponentPad*%
%TO.P,REF\u002A\u002A,1*%
%TO.N,N/C*%
G36*
X428664388Y-98554605D02*
G01*
X429345374Y-97218095D01*
X430681884Y-97899081D01*
X430000898Y-99235591D01*
X428664388Y-98554605D01*
G37*
%TD.AperFunction*%
D17*
%TO.P,REF\u002A\u002A,3*%
X427366864Y-102753156D03*
%TO.P,REF\u002A\u002A,2*%
X428520000Y-100490000D03*
%TD*%
%TO.P,REF\u002A\u002A,2*%
%TO.N,N/C*%
X377293116Y-31170646D03*
%TO.P,REF\u002A\u002A,3*%
X375836232Y-33251292D03*
%TA.AperFunction,ComponentPad*%
D14*
%TO.P,REF\u002A\u002A,1*%
G36*
X377705454Y-29274182D02*
G01*
X378565818Y-28045454D01*
X379794546Y-28905818D01*
X378934182Y-30134546D01*
X377705454Y-29274182D01*
G37*
%TD.AperFunction*%
%TD*%
D17*
%TO.P,REF\u002A\u002A,2*%
%TO.N,N/C*%
X374559592Y-81012412D03*
%TO.P,REF\u002A\u002A,3*%
X376259183Y-79124824D03*
%TA.AperFunction,ComponentPad*%
D14*
%TO.P,REF\u002A\u002A,1*%
G36*
X373919207Y-82844489D02*
G01*
X372915511Y-83959207D01*
X371800793Y-82955511D01*
X372804489Y-81840793D01*
X373919207Y-82844489D01*
G37*
%TD.AperFunction*%
%TD*%
%TA.AperFunction,ComponentPad*%
%TO.P,REF\u002A\u002A,1*%
%TO.N,N/C*%
G36*
X417711924Y-92773988D02*
G01*
X418696012Y-91641924D01*
X419828076Y-92626012D01*
X418843988Y-93758076D01*
X417711924Y-92773988D01*
G37*
%TD.AperFunction*%
D17*
%TO.P,REF\u002A\u002A,3*%
X415437220Y-96533925D03*
%TO.P,REF\u002A\u002A,2*%
X417103610Y-94616962D03*
%TD*%
%TO.P,REF\u002A\u002A,2*%
%TO.N,N/C*%
X418974329Y-78179613D03*
%TO.P,REF\u002A\u002A,3*%
X419018658Y-80719226D03*
%TA.AperFunction,ComponentPad*%
D14*
%TO.P,REF\u002A\u002A,1*%
G36*
X418193204Y-76402975D02*
G01*
X418167025Y-74903204D01*
X419666796Y-74877025D01*
X419692975Y-76376796D01*
X418193204Y-76402975D01*
G37*
%TD.AperFunction*%
%TD*%
%TA.AperFunction,ComponentPad*%
%TO.P,REF\u002A\u002A,1*%
%TO.N,N/C*%
G36*
X425190280Y-42361776D02*
G01*
X426688224Y-42440280D01*
X426609720Y-43938224D01*
X425111776Y-43859720D01*
X425190280Y-42361776D01*
G37*
%TD.AperFunction*%
D17*
%TO.P,REF\u002A\u002A,3*%
X420826962Y-42884133D03*
%TO.P,REF\u002A\u002A,2*%
X423363481Y-43017067D03*
%TD*%
D11*
%TO.P,REF\u002A\u002A,1*%
%TO.N,N/C*%
X384990000Y-91530000D03*
%TO.P,REF\u002A\u002A,2*%
%TA.AperFunction,ComponentPad*%
G36*
G01*
X383923117Y-98266034D02*
X383923117Y-98266034D01*
G75*
G02*
X384588120Y-99181333I-125148J-790151D01*
G01*
X384588120Y-99181333D01*
G75*
G02*
X383672821Y-99846336I-790151J125148D01*
G01*
X383672821Y-99846336D01*
G75*
G02*
X383007818Y-98931037I125148J790151D01*
G01*
X383007818Y-98931037D01*
G75*
G02*
X383923117Y-98266034I790151J-125148D01*
G01*
G37*
%TD.AperFunction*%
%TD*%
D17*
%TO.P,REF\u002A\u002A,2*%
%TO.N,N/C*%
X362196843Y-43636864D03*
%TO.P,REF\u002A\u002A,3*%
X359933687Y-42483728D03*
%TA.AperFunction,ComponentPad*%
D14*
%TO.P,REF\u002A\u002A,1*%
G36*
X364132238Y-43781252D02*
G01*
X365468748Y-44462238D01*
X364787762Y-45798748D01*
X363451252Y-45117762D01*
X364132238Y-43781252D01*
G37*
%TD.AperFunction*%
%TD*%
%TA.AperFunction,ComponentPad*%
%TO.P,REF\u002A\u002A,1*%
%TO.N,N/C*%
G36*
X360769837Y-50234751D02*
G01*
X362196422Y-50698276D01*
X361732897Y-52124861D01*
X360306312Y-51661336D01*
X360769837Y-50234751D01*
G37*
%TD.AperFunction*%
D17*
%TO.P,REF\u002A\u002A,3*%
X356420000Y-49610000D03*
%TO.P,REF\u002A\u002A,2*%
X358835683Y-50394903D03*
%TD*%
D18*
%TO.P,REF\u002A\u002A,1*%
%TO.N,N/C*%
X442700000Y-52720000D03*
D16*
%TO.P,REF\u002A\u002A,2*%
X445240000Y-52720000D03*
%TD*%
%TA.AperFunction,ComponentPad*%
D14*
%TO.P,REF\u002A\u002A,1*%
%TO.N,N/C*%
G36*
X444575818Y-47545454D02*
G01*
X445804546Y-48405818D01*
X444944182Y-49634546D01*
X443715454Y-48774182D01*
X444575818Y-47545454D01*
G37*
%TD.AperFunction*%
D17*
%TO.P,REF\u002A\u002A,3*%
X440598708Y-45676232D03*
%TO.P,REF\u002A\u002A,2*%
X442679354Y-47133116D03*
%TD*%
%TO.P,REF\u002A\u002A,2*%
%TO.N,N/C*%
X373167067Y-50496519D03*
%TO.P,REF\u002A\u002A,3*%
X373034133Y-53033038D03*
%TA.AperFunction,ComponentPad*%
D14*
%TO.P,REF\u002A\u002A,1*%
G36*
X372511776Y-48669720D02*
G01*
X372590280Y-47171776D01*
X374088224Y-47250280D01*
X374009720Y-48748224D01*
X372511776Y-48669720D01*
G37*
%TD.AperFunction*%
%TD*%
D17*
%TO.P,REF\u002A\u002A,2*%
%TO.N,N/C*%
X429420408Y-62697588D03*
%TO.P,REF\u002A\u002A,3*%
X427720817Y-64585176D03*
%TA.AperFunction,ComponentPad*%
D14*
%TO.P,REF\u002A\u002A,1*%
G36*
X430060793Y-60865511D02*
G01*
X431064489Y-59750793D01*
X432179207Y-60754489D01*
X431175511Y-61869207D01*
X430060793Y-60865511D01*
G37*
%TD.AperFunction*%
%TD*%
%TA.AperFunction,ComponentPad*%
%TO.P,REF\u002A\u002A,1*%
%TO.N,N/C*%
G36*
X377674388Y-57584605D02*
G01*
X378355374Y-56248095D01*
X379691884Y-56929081D01*
X379010898Y-58265591D01*
X377674388Y-57584605D01*
G37*
%TD.AperFunction*%
D17*
%TO.P,REF\u002A\u002A,3*%
X376376864Y-61783156D03*
%TO.P,REF\u002A\u002A,2*%
X377530000Y-59520000D03*
%TD*%
%TO.P,REF\u002A\u002A,2*%
%TO.N,N/C*%
X430882933Y-93253481D03*
%TO.P,REF\u002A\u002A,3*%
X431015867Y-90716962D03*
%TA.AperFunction,ComponentPad*%
D14*
%TO.P,REF\u002A\u002A,1*%
G36*
X431538224Y-95080280D02*
G01*
X431459720Y-96578224D01*
X429961776Y-96499720D01*
X430040280Y-95001776D01*
X431538224Y-95080280D01*
G37*
%TD.AperFunction*%
%TD*%
D17*
%TO.P,REF\u002A\u002A,2*%
%TO.N,N/C*%
X423465097Y-28685683D03*
%TO.P,REF\u002A\u002A,3*%
X424250000Y-26270000D03*
%TA.AperFunction,ComponentPad*%
D14*
%TO.P,REF\u002A\u002A,1*%
G36*
X423625249Y-30619837D02*
G01*
X423161724Y-32046422D01*
X421735139Y-31582897D01*
X422198664Y-30156312D01*
X423625249Y-30619837D01*
G37*
%TD.AperFunction*%
%TD*%
%TA.AperFunction,ComponentPad*%
%TO.P,REF\u002A\u002A,1*%
%TO.N,N/C*%
G36*
X367528076Y-46986012D02*
G01*
X366543988Y-48118076D01*
X365411924Y-47133988D01*
X366396012Y-46001924D01*
X367528076Y-46986012D01*
G37*
%TD.AperFunction*%
D17*
%TO.P,REF\u002A\u002A,3*%
X369802780Y-43226075D03*
%TO.P,REF\u002A\u002A,2*%
X368136390Y-45143038D03*
%TD*%
%TA.AperFunction,ComponentPad*%
D14*
%TO.P,REF\u002A\u002A,1*%
%TO.N,N/C*%
G36*
X391025511Y-43789207D02*
G01*
X389910793Y-42785511D01*
X390914489Y-41670793D01*
X392029207Y-42674489D01*
X391025511Y-43789207D01*
G37*
%TD.AperFunction*%
D17*
%TO.P,REF\u002A\u002A,3*%
X394745176Y-46129183D03*
%TO.P,REF\u002A\u002A,2*%
X392857588Y-44429592D03*
%TD*%
%TO.P,REF\u002A\u002A,2*%
%TO.N,N/C*%
X380440406Y-49786889D03*
%TO.P,REF\u002A\u002A,3*%
X378120000Y-50820000D03*
%TA.AperFunction,ComponentPad*%
D14*
%TO.P,REF\u002A\u002A,1*%
G36*
X381770599Y-48373671D02*
G01*
X383140918Y-47763566D01*
X383751023Y-49133885D01*
X382380704Y-49743990D01*
X381770599Y-48373671D01*
G37*
%TD.AperFunction*%
%TD*%
%TO.P,REF\u002A\u002A,1*%
%TO.N,N/C*%
%TA.AperFunction,ComponentPad*%
G36*
G01*
X398140000Y-46625001D02*
X398140000Y-44934999D01*
G75*
G02*
X398389999Y-44685000I249999J0D01*
G01*
X399630001Y-44685000D01*
G75*
G02*
X399880000Y-44934999I0J-249999D01*
G01*
X399880000Y-46625001D01*
G75*
G02*
X399630001Y-46875000I-249999J0D01*
G01*
X398389999Y-46875000D01*
G75*
G02*
X398140000Y-46625001I0J249999D01*
G01*
G37*
%TD.AperFunction*%
D19*
%TO.P,REF\u002A\u002A,2*%
X401550000Y-45780000D03*
%TD*%
%TA.AperFunction,ComponentPad*%
D14*
%TO.P,REF\u002A\u002A,1*%
%TO.N,N/C*%
G36*
X359404182Y-96164546D02*
G01*
X358175454Y-95304182D01*
X359035818Y-94075454D01*
X360264546Y-94935818D01*
X359404182Y-96164546D01*
G37*
%TD.AperFunction*%
D17*
%TO.P,REF\u002A\u002A,3*%
X363381292Y-98033768D03*
%TO.P,REF\u002A\u002A,2*%
X361300646Y-96576884D03*
%TD*%
%TO.P,REF\u002A\u002A,2*%
%TO.N,N/C*%
%TA.AperFunction,ComponentPad*%
G36*
G01*
X424479620Y-74116056D02*
X424479620Y-74116056D01*
G75*
G02*
X423423395Y-74521503I-730836J325389D01*
G01*
X423423395Y-74521503D01*
G75*
G02*
X423017948Y-73465278I325389J730836D01*
G01*
X423017948Y-73465278D01*
G75*
G02*
X424074173Y-73059831I730836J-325389D01*
G01*
X424074173Y-73059831D01*
G75*
G02*
X424479620Y-74116056I-325389J-730836D01*
G01*
G37*
%TD.AperFunction*%
D11*
%TO.P,REF\u002A\u002A,1*%
X430710000Y-76890000D03*
%TD*%
%TA.AperFunction,ComponentPad*%
D14*
%TO.P,REF\u002A\u002A,1*%
%TO.N,N/C*%
G36*
X426245612Y-86075395D02*
G01*
X425564626Y-87411905D01*
X424228116Y-86730919D01*
X424909102Y-85394409D01*
X426245612Y-86075395D01*
G37*
%TD.AperFunction*%
D17*
%TO.P,REF\u002A\u002A,3*%
X427543136Y-81876844D03*
%TO.P,REF\u002A\u002A,2*%
X426390000Y-84140000D03*
%TD*%
%TO.P,REF\u002A\u002A,2*%
%TO.N,N/C*%
X414220000Y-47430000D03*
%TO.P,REF\u002A\u002A,3*%
X411956844Y-46276864D03*
%TA.AperFunction,ComponentPad*%
D14*
%TO.P,REF\u002A\u002A,1*%
G36*
X416155395Y-47574388D02*
G01*
X417491905Y-48255374D01*
X416810919Y-49591884D01*
X415474409Y-48910898D01*
X416155395Y-47574388D01*
G37*
%TD.AperFunction*%
%TD*%
D17*
%TO.P,REF\u002A\u002A,2*%
%TO.N,N/C*%
X380504903Y-115104317D03*
%TO.P,REF\u002A\u002A,3*%
X379720000Y-117520000D03*
%TA.AperFunction,ComponentPad*%
D14*
%TO.P,REF\u002A\u002A,1*%
G36*
X380344751Y-113170163D02*
G01*
X380808276Y-111743578D01*
X382234861Y-112207103D01*
X381771336Y-113633688D01*
X380344751Y-113170163D01*
G37*
%TD.AperFunction*%
%TD*%
D17*
%TO.P,REF\u002A\u002A,2*%
%TO.N,N/C*%
X441793157Y-99983136D03*
%TO.P,REF\u002A\u002A,3*%
X444056313Y-101136272D03*
%TA.AperFunction,ComponentPad*%
D14*
%TO.P,REF\u002A\u002A,1*%
G36*
X439857762Y-99838748D02*
G01*
X438521252Y-99157762D01*
X439202238Y-97821252D01*
X440538748Y-98502238D01*
X439857762Y-99838748D01*
G37*
%TD.AperFunction*%
%TD*%
D11*
%TO.P,REF\u002A\u002A,1*%
%TO.N,N/C*%
X358840000Y-60560000D03*
%TO.P,REF\u002A\u002A,2*%
%TA.AperFunction,ComponentPad*%
G36*
G01*
X356451586Y-66948104D02*
X356451586Y-66948104D01*
G75*
G02*
X356920758Y-67977608I-280166J-749338D01*
G01*
X356920758Y-67977608D01*
G75*
G02*
X355891254Y-68446780I-749338J280166D01*
G01*
X355891254Y-68446780D01*
G75*
G02*
X355422082Y-67417276I280166J749338D01*
G01*
X355422082Y-67417276D01*
G75*
G02*
X356451586Y-66948104I749338J-280166D01*
G01*
G37*
%TD.AperFunction*%
%TD*%
%TA.AperFunction,ComponentPad*%
D14*
%TO.P,REF\u002A\u002A,1*%
%TO.N,N/C*%
G36*
X397447025Y-88113204D02*
G01*
X398946796Y-88087025D01*
X398972975Y-89586796D01*
X397473204Y-89612975D01*
X397447025Y-88113204D01*
G37*
%TD.AperFunction*%
D17*
%TO.P,REF\u002A\u002A,3*%
X393130774Y-88938658D03*
%TO.P,REF\u002A\u002A,2*%
X395670387Y-88894329D03*
%TD*%
%TO.P,REF\u002A\u002A,2*%
%TO.N,N/C*%
X373370000Y-98410000D03*
%TO.P,REF\u002A\u002A,3*%
X371106844Y-97256864D03*
%TA.AperFunction,ComponentPad*%
D14*
%TO.P,REF\u002A\u002A,1*%
G36*
X375305395Y-98554388D02*
G01*
X376641905Y-99235374D01*
X375960919Y-100571884D01*
X374624409Y-99890898D01*
X375305395Y-98554388D01*
G37*
%TD.AperFunction*%
%TD*%
D10*
%TO.P,REF\u002A\u002A,2*%
%TO.N,N/C*%
X346560000Y-79760000D03*
D11*
%TO.P,REF\u002A\u002A,1*%
X346560000Y-87380000D03*
%TD*%
D17*
%TO.P,REF\u002A\u002A,2*%
%TO.N,N/C*%
X375253038Y-105803610D03*
%TO.P,REF\u002A\u002A,3*%
X373336075Y-104137220D03*
%TA.AperFunction,ComponentPad*%
D14*
%TO.P,REF\u002A\u002A,1*%
G36*
X377096012Y-106411924D02*
G01*
X378228076Y-107396012D01*
X377243988Y-108528076D01*
X376111924Y-107543988D01*
X377096012Y-106411924D01*
G37*
%TD.AperFunction*%
%TD*%
%TO.P,REF\u002A\u002A,2*%
%TO.N,N/C*%
%TA.AperFunction,ComponentPad*%
G36*
G01*
X399812560Y-100414119D02*
X399812560Y-100414119D01*
G75*
G02*
X399538856Y-99316355I412030J685734D01*
G01*
X399538856Y-99316355D01*
G75*
G02*
X400636620Y-99042651I685734J-412030D01*
G01*
X400636620Y-99042651D01*
G75*
G02*
X400910324Y-100140415I-412030J-685734D01*
G01*
X400910324Y-100140415D01*
G75*
G02*
X399812560Y-100414119I-685734J412030D01*
G01*
G37*
%TD.AperFunction*%
D11*
%TO.P,REF\u002A\u002A,1*%
X396300000Y-106260000D03*
%TD*%
%TA.AperFunction,ComponentPad*%
D14*
%TO.P,REF\u002A\u002A,1*%
%TO.N,N/C*%
G36*
X378779720Y-101428224D02*
G01*
X377281776Y-101349720D01*
X377360280Y-99851776D01*
X378858224Y-99930280D01*
X378779720Y-101428224D01*
G37*
%TD.AperFunction*%
D17*
%TO.P,REF\u002A\u002A,3*%
X383143038Y-100905867D03*
%TO.P,REF\u002A\u002A,2*%
X380606519Y-100772933D03*
%TD*%
%TO.P,REF\u002A\u002A,2*%
%TO.N,N/C*%
X379233038Y-87023610D03*
%TO.P,REF\u002A\u002A,3*%
X377316075Y-85357220D03*
%TA.AperFunction,ComponentPad*%
D14*
%TO.P,REF\u002A\u002A,1*%
G36*
X381076012Y-87631924D02*
G01*
X382208076Y-88616012D01*
X381223988Y-89748076D01*
X380091924Y-88763988D01*
X381076012Y-87631924D01*
G37*
%TD.AperFunction*%
%TD*%
D17*
%TO.P,REF\u002A\u002A,2*%
%TO.N,N/C*%
X424696962Y-56716390D03*
%TO.P,REF\u002A\u002A,3*%
X426613925Y-58382780D03*
%TA.AperFunction,ComponentPad*%
D14*
%TO.P,REF\u002A\u002A,1*%
G36*
X422853988Y-56108076D02*
G01*
X421721924Y-55123988D01*
X422706012Y-53991924D01*
X423838076Y-54976012D01*
X422853988Y-56108076D01*
G37*
%TD.AperFunction*%
%TD*%
%TA.AperFunction,ComponentPad*%
%TO.P,REF\u002A\u002A,1*%
%TO.N,N/C*%
G36*
X371585818Y-87375454D02*
G01*
X372814546Y-88235818D01*
X371954182Y-89464546D01*
X370725454Y-88604182D01*
X371585818Y-87375454D01*
G37*
%TD.AperFunction*%
D17*
%TO.P,REF\u002A\u002A,3*%
X367608708Y-85506232D03*
%TO.P,REF\u002A\u002A,2*%
X369689354Y-86963116D03*
%TD*%
%TO.P,REF\u002A\u002A,2*%
%TO.N,N/C*%
X389710000Y-96310000D03*
%TO.P,REF\u002A\u002A,3*%
X391973156Y-97463136D03*
%TA.AperFunction,ComponentPad*%
D14*
%TO.P,REF\u002A\u002A,1*%
G36*
X387774605Y-96165612D02*
G01*
X386438095Y-95484626D01*
X387119081Y-94148116D01*
X388455591Y-94829102D01*
X387774605Y-96165612D01*
G37*
%TD.AperFunction*%
%TD*%
D11*
%TO.P,REF\u002A\u002A,1*%
%TO.N,N/C*%
X410230000Y-24270000D03*
%TO.P,REF\u002A\u002A,2*%
%TA.AperFunction,ComponentPad*%
G36*
G01*
X404892613Y-20024450D02*
X404892613Y-20024450D01*
G75*
G02*
X403768514Y-20152525I-626087J498012D01*
G01*
X403768514Y-20152525D01*
G75*
G02*
X403640439Y-19028426I498012J626087D01*
G01*
X403640439Y-19028426D01*
G75*
G02*
X404764538Y-18900351I626087J-498012D01*
G01*
X404764538Y-18900351D01*
G75*
G02*
X404892613Y-20024450I-498012J-626087D01*
G01*
G37*
%TD.AperFunction*%
%TD*%
%TO.P,REF\u002A\u002A,1*%
%TO.N,N/C*%
X430680000Y-79700000D03*
%TO.P,REF\u002A\u002A,2*%
%TA.AperFunction,ComponentPad*%
G36*
G01*
X423943966Y-78633117D02*
X423943966Y-78633117D01*
G75*
G02*
X423028667Y-79298120I-790151J125148D01*
G01*
X423028667Y-79298120D01*
G75*
G02*
X422363664Y-78382821I125148J790151D01*
G01*
X422363664Y-78382821D01*
G75*
G02*
X423278963Y-77717818I790151J-125148D01*
G01*
X423278963Y-77717818D01*
G75*
G02*
X423943966Y-78633117I-125148J-790151D01*
G01*
G37*
%TD.AperFunction*%
%TD*%
%TA.AperFunction,ComponentPad*%
D14*
%TO.P,REF\u002A\u002A,1*%
%TO.N,N/C*%
G36*
X375385612Y-45195395D02*
G01*
X374704626Y-46531905D01*
X373368116Y-45850919D01*
X374049102Y-44514409D01*
X375385612Y-45195395D01*
G37*
%TD.AperFunction*%
D17*
%TO.P,REF\u002A\u002A,3*%
X376683136Y-40996844D03*
%TO.P,REF\u002A\u002A,2*%
X375530000Y-43260000D03*
%TD*%
D11*
%TO.P,REF\u002A\u002A,1*%
%TO.N,N/C*%
X436340000Y-72750000D03*
%TO.P,REF\u002A\u002A,2*%
X431130062Y-67354951D03*
%TD*%
D17*
%TO.P,REF\u002A\u002A,2*%
%TO.N,N/C*%
X428716962Y-37986390D03*
%TO.P,REF\u002A\u002A,3*%
X430633925Y-39652780D03*
%TA.AperFunction,ComponentPad*%
D14*
%TO.P,REF\u002A\u002A,1*%
G36*
X426873988Y-37378076D02*
G01*
X425741924Y-36393988D01*
X426726012Y-35261924D01*
X427858076Y-36246012D01*
X426873988Y-37378076D01*
G37*
%TD.AperFunction*%
%TD*%
D18*
%TO.P,REF\u002A\u002A,1*%
%TO.N,N/C*%
X361160000Y-90930000D03*
D16*
%TO.P,REF\u002A\u002A,2*%
X358620000Y-90930000D03*
%TD*%
D11*
%TO.P,REF\u002A\u002A,1*%
%TO.N,N/C*%
X425760000Y-19670000D03*
%TO.P,REF\u002A\u002A,2*%
%TA.AperFunction,ComponentPad*%
G36*
G01*
X419656547Y-22713069D02*
X419656547Y-22713069D01*
G75*
G02*
X419297558Y-23785974I-715947J-356958D01*
G01*
X419297558Y-23785974D01*
G75*
G02*
X418224653Y-23426985I-356958J715947D01*
G01*
X418224653Y-23426985D01*
G75*
G02*
X418583642Y-22354080I715947J356958D01*
G01*
X418583642Y-22354080D01*
G75*
G02*
X419656547Y-22713069I356958J-715947D01*
G01*
G37*
%TD.AperFunction*%
%TD*%
%TO.P,REF\u002A\u002A,2*%
%TO.N,N/C*%
%TA.AperFunction,ComponentPad*%
G36*
G01*
X414326547Y-21913069D02*
X414326547Y-21913069D01*
G75*
G02*
X413967558Y-22985974I-715947J-356958D01*
G01*
X413967558Y-22985974D01*
G75*
G02*
X412894653Y-22626985I-356958J715947D01*
G01*
X412894653Y-22626985D01*
G75*
G02*
X413253642Y-21554080I715947J356958D01*
G01*
X413253642Y-21554080D01*
G75*
G02*
X414326547Y-21913069I356958J-715947D01*
G01*
G37*
%TD.AperFunction*%
%TO.P,REF\u002A\u002A,1*%
X420430000Y-18870000D03*
%TD*%
%TO.P,REF\u002A\u002A,2*%
%TO.N,N/C*%
%TA.AperFunction,ComponentPad*%
G36*
G01*
X408713117Y-49946034D02*
X408713117Y-49946034D01*
G75*
G02*
X409378120Y-50861333I-125148J-790151D01*
G01*
X409378120Y-50861333D01*
G75*
G02*
X408462821Y-51526336I-790151J125148D01*
G01*
X408462821Y-51526336D01*
G75*
G02*
X407797818Y-50611037I125148J790151D01*
G01*
X407797818Y-50611037D01*
G75*
G02*
X408713117Y-49946034I790151J-125148D01*
G01*
G37*
%TD.AperFunction*%
%TO.P,REF\u002A\u002A,1*%
X409780000Y-43210000D03*
%TD*%
%TO.P,REF\u002A\u002A,2*%
%TO.N,N/C*%
%TA.AperFunction,ComponentPad*%
G36*
G01*
X395176883Y-93863966D02*
X395176883Y-93863966D01*
G75*
G02*
X394511880Y-92948667I125148J790151D01*
G01*
X394511880Y-92948667D01*
G75*
G02*
X395427179Y-92283664I790151J-125148D01*
G01*
X395427179Y-92283664D01*
G75*
G02*
X396092182Y-93198963I-125148J-790151D01*
G01*
X396092182Y-93198963D01*
G75*
G02*
X395176883Y-93863966I-790151J125148D01*
G01*
G37*
%TD.AperFunction*%
%TO.P,REF\u002A\u002A,1*%
X394110000Y-100600000D03*
%TD*%
%TO.P,REF\u002A\u002A,1*%
%TO.N,N/C*%
X445080000Y-83140000D03*
%TO.P,REF\u002A\u002A,2*%
%TA.AperFunction,ComponentPad*%
G36*
G01*
X447468414Y-76751896D02*
X447468414Y-76751896D01*
G75*
G02*
X446999242Y-75722392I280166J749338D01*
G01*
X446999242Y-75722392D01*
G75*
G02*
X448028746Y-75253220I749338J-280166D01*
G01*
X448028746Y-75253220D01*
G75*
G02*
X448497918Y-76282724I-280166J-749338D01*
G01*
X448497918Y-76282724D01*
G75*
G02*
X447468414Y-76751896I-749338J280166D01*
G01*
G37*
%TD.AperFunction*%
%TD*%
D17*
%TO.P,REF\u002A\u002A,2*%
%TO.N,N/C*%
X430600000Y-45380000D03*
%TO.P,REF\u002A\u002A,3*%
X432863156Y-46533136D03*
%TA.AperFunction,ComponentPad*%
D14*
%TO.P,REF\u002A\u002A,1*%
G36*
X428664605Y-45235612D02*
G01*
X427328095Y-44554626D01*
X428009081Y-43218116D01*
X429345591Y-43899102D01*
X428664605Y-45235612D01*
G37*
%TD.AperFunction*%
%TD*%
D11*
%TO.P,REF\u002A\u002A,1*%
%TO.N,N/C*%
X366940000Y-71120000D03*
%TO.P,REF\u002A\u002A,2*%
X372149938Y-76515049D03*
%TD*%
%TO.P,REF\u002A\u002A,2*%
%TO.N,N/C*%
%TA.AperFunction,ComponentPad*%
G36*
G01*
X371178771Y-31907832D02*
X371178771Y-31907832D01*
G75*
G02*
X371218255Y-33038514I-545599J-585083D01*
G01*
X371218255Y-33038514D01*
G75*
G02*
X370087573Y-33077998I-585083J545599D01*
G01*
X370087573Y-33077998D01*
G75*
G02*
X370048089Y-31947316I545599J585083D01*
G01*
X370048089Y-31947316D01*
G75*
G02*
X371178771Y-31907832I585083J-545599D01*
G01*
G37*
%TD.AperFunction*%
%TO.P,REF\u002A\u002A,1*%
X375830000Y-26920000D03*
%TD*%
%TA.AperFunction,ComponentPad*%
D14*
%TO.P,REF\u002A\u002A,1*%
%TO.N,N/C*%
G36*
X443280163Y-93515249D02*
G01*
X441853578Y-93051724D01*
X442317103Y-91625139D01*
X443743688Y-92088664D01*
X443280163Y-93515249D01*
G37*
%TD.AperFunction*%
D17*
%TO.P,REF\u002A\u002A,3*%
X447630000Y-94140000D03*
%TO.P,REF\u002A\u002A,2*%
X445214317Y-93355097D03*
%TD*%
%TA.AperFunction,ComponentPad*%
D14*
%TO.P,REF\u002A\u002A,1*%
%TO.N,N/C*%
G36*
X374141252Y-109697762D02*
G01*
X374822238Y-108361252D01*
X376158748Y-109042238D01*
X375477762Y-110378748D01*
X374141252Y-109697762D01*
G37*
%TD.AperFunction*%
D17*
%TO.P,REF\u002A\u002A,3*%
X372843728Y-113896313D03*
%TO.P,REF\u002A\u002A,2*%
X373996864Y-111633157D03*
%TD*%
D11*
%TO.P,REF\u002A\u002A,1*%
%TO.N,N/C*%
X393960000Y-16510000D03*
D10*
%TO.P,REF\u002A\u002A,2*%
X386340000Y-16510000D03*
%TD*%
%TO.P,REF\u002A\u002A,2*%
%TO.N,N/C*%
%TA.AperFunction,ComponentPad*%
G36*
G01*
X375653966Y-53973117D02*
X375653966Y-53973117D01*
G75*
G02*
X374738667Y-54638120I-790151J125148D01*
G01*
X374738667Y-54638120D01*
G75*
G02*
X374073664Y-53722821I125148J790151D01*
G01*
X374073664Y-53722821D01*
G75*
G02*
X374988963Y-53057818I790151J-125148D01*
G01*
X374988963Y-53057818D01*
G75*
G02*
X375653966Y-53973117I-125148J-790151D01*
G01*
G37*
%TD.AperFunction*%
D11*
%TO.P,REF\u002A\u002A,1*%
X382390000Y-55040000D03*
%TD*%
%TA.AperFunction,ComponentPad*%
D14*
%TO.P,REF\u002A\u002A,1*%
%TO.N,N/C*%
G36*
X429918748Y-33952238D02*
G01*
X429237762Y-35288748D01*
X427901252Y-34607762D01*
X428582238Y-33271252D01*
X429918748Y-33952238D01*
G37*
%TD.AperFunction*%
D17*
%TO.P,REF\u002A\u002A,3*%
X431216272Y-29753687D03*
%TO.P,REF\u002A\u002A,2*%
X430063136Y-32016843D03*
%TD*%
D11*
%TO.P,REF\u002A\u002A,2*%
%TO.N,N/C*%
X406645049Y-100880062D03*
%TO.P,REF\u002A\u002A,1*%
X401250000Y-106090000D03*
%TD*%
%TO.P,REF\u002A\u002A,2*%
%TO.N,N/C*%
%TA.AperFunction,ComponentPad*%
G36*
G01*
X400855739Y-41853387D02*
X400855739Y-41853387D01*
G75*
G02*
X401709595Y-42595633I55805J-798051D01*
G01*
X401709595Y-42595633D01*
G75*
G02*
X400967349Y-43449489I-798051J-55805D01*
G01*
X400967349Y-43449489D01*
G75*
G02*
X400113493Y-42707243I-55805J798051D01*
G01*
X400113493Y-42707243D01*
G75*
G02*
X400855739Y-41853387I798051J55805D01*
G01*
G37*
%TD.AperFunction*%
%TA.AperFunction,ComponentPad*%
D14*
%TO.P,REF\u002A\u002A,1*%
G36*
X399526144Y-34307754D02*
G01*
X401122246Y-34196144D01*
X401233856Y-35792246D01*
X399637754Y-35903856D01*
X399526144Y-34307754D01*
G37*
%TD.AperFunction*%
%TD*%
%TA.AperFunction,ComponentPad*%
%TO.P,REF\u002A\u002A,1*%
%TO.N,N/C*%
G36*
X386208076Y-50886012D02*
G01*
X385223988Y-52018076D01*
X384091924Y-51033988D01*
X385076012Y-49901924D01*
X386208076Y-50886012D01*
G37*
%TD.AperFunction*%
D17*
%TO.P,REF\u002A\u002A,3*%
X388482780Y-47126075D03*
%TO.P,REF\u002A\u002A,2*%
X386816390Y-49043038D03*
%TD*%
%TA.AperFunction,ComponentPad*%
D14*
%TO.P,REF\u002A\u002A,1*%
%TO.N,N/C*%
G36*
X436521924Y-96763988D02*
G01*
X437506012Y-95631924D01*
X438638076Y-96616012D01*
X437653988Y-97748076D01*
X436521924Y-96763988D01*
G37*
%TD.AperFunction*%
D17*
%TO.P,REF\u002A\u002A,3*%
X434247220Y-100523925D03*
%TO.P,REF\u002A\u002A,2*%
X435913610Y-98606962D03*
%TD*%
D12*
%TO.P,REF\u002A\u002A,1*%
%TO.N,N/C*%
X402356119Y-124499545D03*
%TO.P,REF\u002A\u002A,2*%
X397675000Y-124090000D03*
%TO.P,REF\u002A\u002A,3*%
X392993881Y-123680455D03*
%TD*%
D20*
%TO.N,*%
X351670000Y-98770000D03*
X350305673Y-36925673D03*
X434810000Y-105560000D03*
X441220000Y-81850000D03*
X361875000Y-60865000D03*
X392020000Y-111150000D03*
X422810000Y-110120000D03*
X423420000Y-34860000D03*
X381800000Y-41730000D03*
X440130000Y-50860000D03*
X439130000Y-93310000D03*
X377100000Y-47520000D03*
X363790000Y-92780000D03*
X351060000Y-117990000D03*
X426290000Y-46980000D03*
X422110000Y-101980000D03*
X452880000Y-25780000D03*
X427540000Y-41130000D03*
X426850000Y-96140000D03*
X349350000Y-28020000D03*
X411960000Y-32560000D03*
X358340000Y-16170000D03*
X428710000Y-105250000D03*
X457630000Y-28270000D03*
X413775000Y-20515000D03*
X381150000Y-33620000D03*
X445700000Y-127330000D03*
X391675000Y-119190000D03*
X453625764Y-106735764D03*
X369190000Y-38170000D03*
X360200000Y-87165000D03*
X439700000Y-53240000D03*
X452320000Y-44980000D03*
X447600000Y-83740000D03*
X432650000Y-97480000D03*
X368280000Y-104680000D03*
X432150000Y-51730000D03*
X385475000Y-29490000D03*
X375080000Y-21580000D03*
X435610000Y-38990000D03*
X371840000Y-92020000D03*
X364125000Y-90740000D03*
X386800000Y-115050000D03*
X358140000Y-124480000D03*
X454310000Y-115700000D03*
X376340000Y-102550000D03*
X371310000Y-46320000D03*
X368570000Y-98670000D03*
X428835125Y-122195125D03*
X435360000Y-45030000D03*
X407100000Y-132120000D03*
X354725000Y-59390000D03*
X380590000Y-108900000D03*
X399720000Y-12160000D03*
X445860000Y-19200000D03*
X417125000Y-114990000D03*
X445230000Y-87110000D03*
X448120000Y-122800000D03*
X417250000Y-28640000D03*
X377700000Y-96780000D03*
X355820000Y-20920000D03*
X384050000Y-33540000D03*
X420250000Y-110140000D03*
X346330000Y-115420000D03*
X364870000Y-50440000D03*
X436959916Y-20140084D03*
X375210000Y-38500000D03*
X358710000Y-56630000D03*
X443925000Y-56165000D03*
X367179244Y-123680756D03*
%TD*%
D21*
%TO.N,*%
X384990000Y-91530000D02*
X387446843Y-95156864D01*
X375830000Y-26920000D02*
X377910000Y-27550000D01*
X374559592Y-81012412D02*
X376840000Y-82490000D01*
X369689354Y-86963116D02*
X371770000Y-88420000D01*
X388660000Y-92080000D02*
X393130774Y-88938658D01*
X379380000Y-104070000D02*
X380606519Y-100772933D01*
X386816390Y-49043038D02*
X390463038Y-49043038D01*
X378670000Y-89780000D02*
X381150000Y-88690000D01*
X395600000Y-104270000D02*
X396920000Y-100630000D01*
X397430000Y-96270000D02*
X400224590Y-99728385D01*
X400430000Y-85050000D02*
X400019333Y-93668784D01*
X381750000Y-58570000D02*
X384901342Y-62940774D01*
X371106844Y-97256864D02*
X375286507Y-92068257D01*
X385050000Y-96190000D02*
X387570000Y-99520000D01*
X381010000Y-95720000D02*
X383797969Y-99056185D01*
X370321216Y-80409333D02*
X374559592Y-81012412D01*
X404569645Y-88247799D02*
X403849645Y-91117799D01*
X390970000Y-42730000D02*
X390970000Y-42820000D01*
X379112002Y-83391532D02*
X379233038Y-87023610D01*
X374490000Y-84490000D02*
X374450000Y-84490000D01*
X397430000Y-96270000D02*
X394110000Y-100600000D01*
X397660000Y-86300000D02*
X398210000Y-88850000D01*
X396300000Y-106260000D02*
X395600000Y-104270000D01*
X387540000Y-67650000D02*
X384990000Y-68020000D01*
X353040000Y-39230000D02*
X352300000Y-46130000D01*
X348857253Y-87577620D02*
X348630443Y-91031200D01*
X388660000Y-92080000D02*
X389710000Y-96310000D01*
X378530000Y-75240000D02*
X382700000Y-73800000D01*
X382660000Y-86280000D02*
X388660000Y-92080000D01*
X390605534Y-86455534D02*
X397660000Y-86300000D01*
X395600000Y-104270000D02*
X393849842Y-103836016D01*
X397535180Y-82778579D02*
X400430000Y-85050000D01*
X398210000Y-88850000D02*
X397430000Y-96270000D01*
X377520000Y-67320000D02*
X373210000Y-64030000D01*
X356580793Y-85372418D02*
X356470000Y-87910000D01*
X394570000Y-91930000D02*
X392893297Y-93281369D01*
X373222268Y-26332110D02*
X374050000Y-28830000D01*
X378670000Y-89780000D02*
X378943778Y-91079189D01*
X411210000Y-93090000D02*
X413350000Y-94700000D01*
X370633172Y-32492915D02*
X369190000Y-38170000D01*
X394570000Y-91930000D02*
X395302031Y-93073815D01*
X380300000Y-35910000D02*
X383499806Y-36784051D01*
X369750000Y-83610000D02*
X378670000Y-89780000D01*
X370756307Y-28583693D02*
X375836232Y-33251292D01*
X395670387Y-88894329D02*
X394570000Y-91930000D01*
X369750000Y-83610000D02*
X367608708Y-85506232D01*
X379038800Y-18670443D02*
X374320000Y-19210000D01*
X372149938Y-76515049D02*
X366540000Y-79440000D01*
X372149938Y-76515049D02*
X378530000Y-75240000D01*
X376180000Y-94290000D02*
X379976889Y-93399594D01*
X458400000Y-70065000D02*
X454648257Y-68166507D01*
X449550000Y-67540000D02*
X450090000Y-56100000D01*
X411146951Y-114636951D02*
X406775000Y-114640000D01*
X453625764Y-106735764D02*
X458400000Y-70065000D01*
X359097063Y-80667937D02*
X359325000Y-76115000D01*
X356830000Y-76380000D02*
X354375000Y-76190000D01*
X408385699Y-23075699D02*
X406092558Y-26161420D01*
X441975000Y-68690000D02*
X440520000Y-66600000D01*
X403630000Y-120770000D02*
X405117565Y-113257565D01*
X393016024Y-29606024D02*
X393512747Y-26822380D01*
X410387253Y-116997620D02*
X411585277Y-113274906D01*
X353060000Y-73520000D02*
X361675000Y-74865000D01*
X392757044Y-31057347D02*
X393016024Y-29606024D01*
X439700000Y-53240000D02*
X440130000Y-50860000D01*
X443925000Y-56165000D02*
X447188414Y-60915165D01*
X360690094Y-80925277D02*
X356802380Y-80297253D01*
X413775000Y-20515000D02*
X408385699Y-23075699D01*
X394320000Y-36360000D02*
X392757044Y-31057347D01*
X405117565Y-113257565D02*
X407300667Y-110411216D01*
X447070000Y-67370000D02*
X449550000Y-67540000D01*
X450840000Y-70200000D02*
X441975000Y-68690000D01*
X407020000Y-116970000D02*
X406850000Y-119440000D01*
X406850000Y-119440000D02*
X417820000Y-120020000D01*
X443259906Y-62579723D02*
X444826933Y-62938067D01*
X411585277Y-113274906D02*
X411146951Y-114636951D01*
X444826933Y-62938067D02*
X444625000Y-67390000D01*
X361675000Y-74865000D02*
X363360000Y-77310000D01*
X366540000Y-79440000D02*
X360690094Y-80925277D01*
X360690094Y-80925277D02*
X359097063Y-80667937D01*
X447748580Y-76002558D02*
X447600000Y-83740000D01*
X439700000Y-53240000D02*
X443925000Y-56165000D01*
X354375000Y-76190000D02*
X353760000Y-87700000D01*
X404475000Y-127790000D02*
X406223493Y-124548257D01*
X391060000Y-100460000D02*
X393970000Y-100460000D01*
X346560000Y-79760000D02*
X349189632Y-79964873D01*
X348630443Y-94641200D02*
X348700443Y-94711200D01*
X380590000Y-108900000D02*
X384720000Y-112560000D01*
X415437220Y-96533925D02*
X412500000Y-97050000D01*
X348630443Y-91031200D02*
X348630443Y-94641200D01*
X351518508Y-110644189D02*
X353510000Y-112240000D01*
X384720000Y-112560000D02*
X383080000Y-117850000D01*
X359220000Y-95120000D02*
X357620000Y-95960000D01*
X393970000Y-100460000D02*
X394110000Y-100600000D01*
X351860000Y-106110000D02*
X353295539Y-108471846D01*
X397230000Y-26550000D02*
X393512747Y-26822380D01*
X417020572Y-94700000D02*
X417103610Y-94616962D01*
X371106844Y-97256864D02*
X373336075Y-104137220D01*
X348968046Y-85040038D02*
X348899962Y-85040038D01*
X365823202Y-98556798D02*
X369900000Y-94480000D01*
X384050000Y-33540000D02*
X381150000Y-33620000D01*
X405420000Y-95470000D02*
X409194824Y-97610817D01*
X354910000Y-117250000D02*
X356830000Y-119220000D01*
X365867898Y-110267898D02*
X367663949Y-112063949D01*
X406645049Y-100880062D02*
X405420000Y-95470000D01*
X368570000Y-98670000D02*
X371120000Y-104340000D01*
X417125000Y-114990000D02*
X412924835Y-117108414D01*
X443259906Y-62579723D02*
X447077620Y-63452747D01*
X405420000Y-95470000D02*
X403849645Y-91117799D01*
X413350000Y-94700000D02*
X417020572Y-94700000D01*
X384720000Y-112560000D02*
X391060000Y-100460000D01*
X378400000Y-111050000D02*
X381289806Y-112688633D01*
X364071846Y-108471846D02*
X364760000Y-106120000D01*
X393016024Y-29606024D02*
X395965735Y-29213921D01*
X360479744Y-104879744D02*
X362275795Y-106675795D01*
X350305673Y-36925673D02*
X346275000Y-74190000D01*
X366000000Y-93770000D02*
X366914051Y-90370194D01*
X393234210Y-107305760D02*
X395190000Y-109230000D01*
X348899962Y-85040038D02*
X346530000Y-85040000D01*
X367179244Y-123680756D02*
X404475000Y-127790000D01*
X412970000Y-101010000D02*
X414600000Y-99260000D01*
X346560000Y-87380000D02*
X346670000Y-99680000D01*
X349787890Y-104442268D02*
X348900000Y-106250000D01*
X400570388Y-19701189D02*
X404266526Y-19526438D01*
X355091590Y-110267898D02*
X356887641Y-112063949D01*
X363381292Y-98033768D02*
X358683693Y-103083693D01*
X346670000Y-99680000D02*
X349787890Y-104442268D01*
X411585277Y-113274906D02*
X409560000Y-107230000D01*
X362490000Y-103190000D02*
X368280000Y-104680000D01*
X348900000Y-106250000D02*
X351518508Y-110644189D01*
X385475000Y-29490000D02*
X384050000Y-33540000D01*
X437380000Y-64240000D02*
X443259906Y-62579723D01*
X366153376Y-117436624D02*
X364071846Y-119248154D01*
X366153376Y-117436624D02*
X369330000Y-120810000D01*
X429673136Y-98226843D02*
X432650000Y-97480000D01*
X379380000Y-104070000D02*
X382320000Y-105300000D01*
X346530000Y-85040000D02*
X346560000Y-87380000D01*
X388643560Y-111334957D02*
X386800000Y-115050000D01*
X357620000Y-95960000D02*
X356917085Y-97993172D01*
X346560000Y-79760000D02*
X344450000Y-79760000D01*
X439250000Y-78651550D02*
X437325760Y-80575790D01*
X358900000Y-99730000D02*
X356420000Y-100690000D01*
X409560000Y-107230000D02*
X406645049Y-100880062D01*
X369460000Y-113860000D02*
X375179649Y-117956065D01*
X358683693Y-113860000D02*
X354910000Y-117250000D01*
X434450000Y-78300000D02*
X436340000Y-77510000D01*
X383080000Y-117850000D02*
X379720000Y-117520000D01*
X369330000Y-120810000D02*
X376200000Y-121590000D01*
X342635291Y-43354709D02*
X342440000Y-105240000D01*
X356887641Y-112072359D02*
X356887641Y-112063949D01*
X357620000Y-95960000D02*
X356310000Y-95110000D01*
X371120000Y-104340000D02*
X367663949Y-112063949D01*
X436340000Y-72750000D02*
X440520000Y-66600000D01*
X363071939Y-123590652D02*
X367179244Y-123680756D01*
X430750000Y-95790000D02*
X426850000Y-96140000D01*
X445129779Y-73783084D02*
X447748580Y-76002558D01*
X375633157Y-99563136D02*
X376340000Y-102550000D01*
X418490000Y-102100000D02*
X422110000Y-101980000D01*
X353680000Y-115280000D02*
X356887641Y-112072359D01*
X430710000Y-76890000D02*
X434450000Y-78300000D01*
X353760000Y-87700000D02*
X351670000Y-98770000D01*
X385475000Y-29490000D02*
X390975165Y-26711586D01*
X403630000Y-120770000D02*
X417950000Y-122140000D01*
X387570000Y-99520000D02*
X386880000Y-103100000D01*
X361300646Y-96576884D02*
X358900000Y-99730000D01*
X412500000Y-97050000D02*
X411082412Y-99310408D01*
X433856016Y-79960158D02*
X438555760Y-83985790D01*
X344740000Y-105250000D02*
X353680000Y-115280000D01*
X434450000Y-78300000D02*
X433856016Y-79960158D01*
X376200000Y-121590000D02*
X379720000Y-117520000D01*
X393234210Y-107305760D02*
X392020000Y-111150000D01*
X360479744Y-115656051D02*
X362275795Y-117452102D01*
X351670000Y-98770000D02*
X351670000Y-98770000D01*
X417950000Y-122140000D02*
X417667620Y-124942747D01*
X388643560Y-111334957D02*
X390680000Y-115060000D01*
X409560000Y-107230000D02*
X413740000Y-104060000D01*
X351670000Y-98770000D02*
X371055291Y-119172949D01*
X348700443Y-94711200D02*
X349310000Y-99550000D01*
X413740000Y-104060000D02*
X415576232Y-106261292D01*
X346275000Y-74190000D02*
X349251743Y-75583493D01*
X422110000Y-101980000D02*
X422495097Y-105462975D01*
X389824210Y-108535760D02*
X393849842Y-103836016D01*
X419671851Y-95431851D02*
X418770000Y-92700000D01*
X401250000Y-106090000D02*
X407300667Y-110411216D01*
X358898154Y-117628154D02*
X358140000Y-124480000D01*
X419671851Y-95431851D02*
X421159189Y-94906222D01*
X397817442Y-117728580D02*
X400036916Y-115109779D01*
X360479744Y-104879744D02*
X362490000Y-103190000D01*
X447930000Y-90760000D02*
X447630000Y-94140000D01*
X349310000Y-99550000D02*
X366153376Y-117436624D01*
X365688644Y-98556798D02*
X365823202Y-98556798D01*
X447503628Y-107733628D02*
X450875000Y-104575000D01*
X363381292Y-98033768D02*
X366000000Y-93770000D01*
X413740000Y-104060000D02*
X419671851Y-95431851D01*
X410400000Y-103450000D02*
X411082412Y-99310408D01*
X424640000Y-39680000D02*
X421560000Y-38420000D01*
X450310000Y-31580000D02*
X452351492Y-33115811D01*
X459470000Y-63850000D02*
X457270000Y-64000000D01*
X358898154Y-117628154D02*
X360479744Y-115656051D01*
X424851200Y-125099557D02*
X429640000Y-124470000D01*
X432863156Y-46533136D02*
X430633925Y-39652780D01*
X454990000Y-37460000D02*
X454132110Y-39377732D01*
X342440000Y-105240000D02*
X345397874Y-110147985D01*
X434610000Y-22960000D02*
X427920000Y-22160000D01*
X452210000Y-55890000D02*
X455022747Y-56172380D01*
X418974329Y-78179613D02*
X421930000Y-79180000D01*
X451710000Y-97720000D02*
X450840000Y-70200000D01*
X436959916Y-20140084D02*
X425760000Y-19670000D01*
X441354957Y-85166440D02*
X445080000Y-83140000D01*
X452351492Y-33115811D02*
X454990000Y-37460000D01*
X427540000Y-41130000D02*
X428336843Y-44226864D01*
X452880000Y-25838410D02*
X452880000Y-25780000D01*
X442710000Y-89120000D02*
X430730000Y-82900000D01*
X450090000Y-56100000D02*
X447410000Y-55840000D01*
X427770000Y-49410000D02*
X430600000Y-45380000D01*
X442710000Y-89120000D02*
X447930000Y-90760000D01*
X444921846Y-26191846D02*
X445860000Y-19200000D01*
X450840000Y-70200000D02*
X452210000Y-55890000D01*
X439130000Y-93310000D02*
X442710000Y-89120000D01*
X391060000Y-100460000D02*
X391973156Y-97463136D01*
X353680000Y-115280000D02*
X351060000Y-117990000D01*
X425470000Y-32750000D02*
X422680194Y-31101367D01*
X427920000Y-22160000D02*
X424250000Y-26270000D01*
X421560000Y-38420000D02*
X421420000Y-36960000D01*
X455199557Y-49038800D02*
X454630000Y-44240000D01*
X454847869Y-30662628D02*
X457630000Y-28270000D01*
X411956844Y-46276864D02*
X412820000Y-43200000D01*
X417033116Y-104180646D02*
X418490000Y-102100000D01*
X449338154Y-109708154D02*
X447503628Y-107733628D01*
X353760000Y-87700000D02*
X356470000Y-87910000D01*
X409790000Y-43200000D02*
X409780000Y-43210000D01*
X420820000Y-25800000D02*
X418940600Y-23070027D01*
X440770000Y-20300000D02*
X436959916Y-20140084D01*
X383470000Y-104330000D02*
X382320000Y-105300000D01*
X454630000Y-44240000D02*
X437838407Y-26391593D01*
X437838407Y-26391593D02*
X434610000Y-22960000D01*
X344450000Y-79760000D02*
X344740000Y-105250000D01*
X439250000Y-78630000D02*
X439250000Y-78651550D01*
X347392949Y-43354709D02*
X342635291Y-43354709D01*
X430730000Y-82900000D02*
X427543136Y-81876844D01*
X420020000Y-44710000D02*
X422920000Y-48020000D01*
X412820000Y-43200000D02*
X419230000Y-31070000D01*
X450449205Y-28269205D02*
X459200000Y-38450000D01*
X428690351Y-25843935D02*
X434460000Y-29890000D01*
X424640000Y-39680000D02*
X428716962Y-37986390D01*
X419230000Y-31070000D02*
X420820000Y-25800000D01*
X443440256Y-28093949D02*
X444921846Y-26191846D01*
X420820000Y-25800000D02*
X424250000Y-26270000D01*
X376200000Y-121590000D02*
X403630000Y-120770000D01*
X429540000Y-86240000D02*
X433120000Y-86930000D01*
X450875000Y-104575000D02*
X451710000Y-97720000D01*
X430730000Y-82900000D02*
X430680000Y-79700000D01*
X420390000Y-39540000D02*
X421560000Y-38420000D01*
X444900000Y-44010000D02*
X442679354Y-47133116D01*
X451710000Y-97720000D02*
X447630000Y-94140000D01*
X406560000Y-47470000D02*
X403665410Y-44081615D01*
X424767998Y-60438468D02*
X424767998Y-56787426D01*
X426613925Y-58382780D02*
X427190000Y-61450000D01*
X425300000Y-52974589D02*
X424986222Y-52660811D01*
X444760000Y-48590000D02*
X446320000Y-47770000D01*
X415240000Y-73440000D02*
X423748784Y-73790667D01*
X432150000Y-51730000D02*
X435572975Y-51284903D01*
X420826962Y-42884133D02*
X420020000Y-44710000D01*
X415290000Y-51590000D02*
X414220000Y-47430000D01*
X406250000Y-57430000D02*
X413404466Y-57164466D01*
X425480000Y-68500000D02*
X431130062Y-67354951D01*
X421930000Y-79180000D02*
X423153815Y-78507969D01*
X416605534Y-83294466D02*
X416400000Y-76080000D01*
X349022131Y-113097372D02*
X346330000Y-115420000D01*
X420232201Y-61879645D02*
X421350000Y-57480000D01*
X416290000Y-44350000D02*
X419010000Y-47630000D01*
X415290000Y-51590000D02*
X410799226Y-54801342D01*
X422780000Y-55050000D02*
X425300000Y-53990000D01*
X408259613Y-54845671D02*
X409470000Y-51850000D01*
X432210000Y-55290000D02*
X434290646Y-56746884D01*
X416400000Y-76080000D02*
X418930000Y-75640000D01*
X425300000Y-53990000D02*
X425300000Y-52974589D01*
X418930000Y-75640000D02*
X426330000Y-76540000D01*
X412820000Y-43200000D02*
X409790000Y-43200000D01*
X450090000Y-56100000D02*
X452320000Y-44980000D01*
X439848154Y-24501846D02*
X437838407Y-26391593D01*
X457270000Y-56380000D02*
X457320000Y-44140000D01*
X419230000Y-31070000D02*
X423420000Y-34860000D01*
X424767998Y-56787426D02*
X424696962Y-56716390D01*
X421930000Y-79180000D02*
X423291369Y-80906703D01*
X437380000Y-64240000D02*
X431130062Y-67354951D01*
X421350000Y-57480000D02*
X415290000Y-51590000D01*
X412928579Y-76364820D02*
X415240000Y-73440000D01*
X447032359Y-31686051D02*
X450449205Y-28269205D01*
X441390000Y-40620000D02*
X435610000Y-38990000D01*
X420430000Y-18870000D02*
X425760000Y-19670000D01*
X425900000Y-43150000D02*
X426290000Y-46980000D01*
X423363481Y-43017067D02*
X424640000Y-39680000D01*
X418827969Y-52236185D02*
X416483157Y-48583136D01*
X435360000Y-91510000D02*
X436930000Y-91370000D01*
X436371292Y-58203768D02*
X437065949Y-53339806D01*
X406560000Y-47470000D02*
X409780000Y-43210000D01*
X409470000Y-51850000D02*
X411026703Y-50518631D01*
X425300000Y-53990000D02*
X434090000Y-59990000D01*
X457320000Y-44140000D02*
X454132110Y-39377732D01*
X440598708Y-45676232D02*
X437910000Y-49900000D01*
X428520000Y-51750000D02*
X432863156Y-46533136D01*
X429316507Y-59328257D02*
X431120000Y-60810000D01*
X450449205Y-28269205D02*
X452880000Y-25838410D01*
X438221356Y-45353202D02*
X434080000Y-49230000D01*
X434090000Y-59990000D02*
X436371292Y-58203768D01*
X426330000Y-76540000D02*
X429808385Y-73585410D01*
X427190000Y-61450000D02*
X429420408Y-62697588D01*
X419010000Y-47630000D02*
X423953111Y-50340406D01*
X437910000Y-49900000D02*
X437065949Y-53339806D01*
X459200000Y-38450000D02*
X459470000Y-63850000D01*
X446320000Y-47770000D02*
X446962915Y-45816828D01*
X429640000Y-124470000D02*
X447503628Y-107733628D01*
X423953111Y-50340406D02*
X427770000Y-49410000D01*
X423479594Y-93873111D02*
X426160000Y-88950000D01*
X446320000Y-47770000D02*
X447590000Y-48640000D01*
X410625790Y-36564240D02*
X411960000Y-32560000D01*
X415576232Y-106261292D02*
X420440194Y-106955949D01*
X425480000Y-68500000D02*
X427720817Y-64585176D01*
X443950000Y-104320000D02*
X448006065Y-98640351D01*
X434090000Y-59990000D02*
X437380000Y-64240000D01*
X424440000Y-97700000D02*
X428520000Y-100490000D01*
X440357898Y-118688410D02*
X442153949Y-116892359D01*
X429420408Y-62697588D02*
X433558784Y-63500667D01*
X441100000Y-95420000D02*
X442798633Y-92570194D01*
X424550000Y-103970000D02*
X428560000Y-108250000D01*
X422125000Y-85155000D02*
X419018658Y-80719226D01*
X423479594Y-93873111D02*
X424440000Y-97700000D01*
X421090000Y-69990000D02*
X425480000Y-68500000D01*
X434210000Y-94450000D02*
X430882933Y-93253481D01*
X432150000Y-51730000D02*
X432210000Y-55290000D01*
X426160000Y-88950000D02*
X429540000Y-86240000D01*
X437325760Y-80575790D02*
X441220000Y-81850000D01*
X421050000Y-112700000D02*
X425190000Y-114650000D01*
X434969744Y-113300256D02*
X436765795Y-111504205D01*
X425800000Y-92840000D02*
X429160000Y-89980000D01*
X422125000Y-85155000D02*
X426390000Y-84140000D01*
X426070000Y-116220000D02*
X425250000Y-117490000D01*
X445240000Y-52720000D02*
X447660000Y-52320000D01*
X439530000Y-98830000D02*
X441793157Y-99983136D01*
X405720000Y-54890000D02*
X406560000Y-47470000D01*
X411930000Y-90220000D02*
X416330000Y-91200000D01*
X358835683Y-50394903D02*
X362196843Y-43636864D01*
X405720000Y-54890000D02*
X406250000Y-57430000D01*
X429160000Y-89980000D02*
X431015867Y-90716962D01*
X421633815Y-88787969D02*
X425236864Y-86403157D01*
X409470000Y-51850000D02*
X408587969Y-50736185D01*
X426070000Y-116220000D02*
X425190000Y-114650000D01*
X430667732Y-117437890D02*
X429870000Y-114940000D01*
X416330000Y-91200000D02*
X422125000Y-85155000D01*
X427366864Y-102753156D02*
X434247220Y-100523925D01*
X433266828Y-111437085D02*
X434810000Y-105560000D01*
X426330000Y-76540000D02*
X430680000Y-79700000D01*
X435360000Y-91510000D02*
X434350000Y-90340000D01*
X445236307Y-40666307D02*
X440598708Y-45676232D01*
X415216440Y-32535043D02*
X417250000Y-28640000D01*
X429870000Y-114940000D02*
X426646884Y-112569354D01*
X447500000Y-43130000D02*
X444900000Y-44010000D01*
X433266828Y-111437085D02*
X434969744Y-113300256D01*
X441793157Y-99983136D02*
X445214317Y-93355097D01*
X423520000Y-107770000D02*
X428103768Y-110488708D01*
X428910000Y-34280000D02*
X430063136Y-32016843D01*
X442700000Y-52720000D02*
X444760000Y-48590000D01*
X435913610Y-98606962D02*
X434210000Y-94450000D01*
X422178257Y-98463493D02*
X427366864Y-102753156D01*
X431216272Y-29753687D02*
X424250000Y-26270000D01*
X359220000Y-95120000D02*
X361160000Y-90930000D01*
X437580000Y-96690000D02*
X439530000Y-98830000D01*
X434210000Y-94450000D02*
X435360000Y-91510000D01*
X377170000Y-107470000D02*
X375150000Y-109370000D01*
X356240000Y-91430000D02*
X358620000Y-90930000D01*
X415216440Y-32535043D02*
X413230000Y-28830000D01*
X364460000Y-44790000D02*
X366470000Y-47060000D01*
X430063136Y-32016843D02*
X423465097Y-28685683D01*
X434350000Y-102700000D02*
X442153949Y-106116051D01*
X421050000Y-115240000D02*
X421570000Y-117560000D01*
X426800000Y-36320000D02*
X428910000Y-34280000D01*
X420440194Y-106955949D02*
X423520000Y-107770000D01*
X372843728Y-113896313D02*
X379720000Y-117520000D01*
X428070000Y-117010000D02*
X426070000Y-116220000D01*
X382920000Y-28620000D02*
X382320000Y-26210000D01*
X373996864Y-111633157D02*
X380504903Y-115104317D01*
X428830000Y-122200000D02*
X428835125Y-122195125D01*
X444056313Y-101136272D02*
X447630000Y-94140000D01*
X356420000Y-49610000D02*
X359933687Y-42483728D01*
X407100000Y-132120000D02*
X407100000Y-132120000D01*
X461410000Y-99630000D02*
X461470000Y-38580000D01*
X362196843Y-43636864D02*
X364460000Y-44790000D01*
X415130038Y-124900038D02*
X415140000Y-127190000D01*
X433173693Y-115096307D02*
X428103768Y-110488708D01*
X375150000Y-109370000D02*
X373996864Y-111633157D01*
X401770000Y-67960000D02*
X406990000Y-66790000D01*
X435320000Y-129160000D02*
X445490000Y-120530000D01*
X396960000Y-66730000D02*
X401770000Y-67960000D01*
X442310000Y-120310000D02*
X442310000Y-120784759D01*
X445746051Y-113300256D02*
X447542102Y-111504205D01*
X396960000Y-66730000D02*
X397819646Y-60626955D01*
X415462418Y-117219207D02*
X418000000Y-117330000D01*
X436123202Y-109178644D02*
X438561846Y-109708154D01*
X416388468Y-87712002D02*
X416388468Y-87621532D01*
X422810000Y-110120000D02*
X422810000Y-110120000D01*
X397819646Y-60626955D02*
X399260355Y-55612201D01*
X417820000Y-120020000D02*
X418000000Y-117330000D01*
X365368154Y-23195539D02*
X367730000Y-21790000D01*
X453525760Y-110605790D02*
X453625764Y-106735764D01*
X391031421Y-67415180D02*
X396960000Y-66730000D01*
X359980000Y-28583693D02*
X356590000Y-24790000D01*
X439150000Y-37790000D02*
X439848154Y-35278154D01*
X441644205Y-26297898D02*
X443440256Y-28093949D01*
X428835125Y-122195125D02*
X449220000Y-102800000D01*
X410054873Y-124610368D02*
X409830000Y-127220000D01*
X435360000Y-45030000D02*
X432810000Y-39380000D01*
X417820000Y-120020000D02*
X428830000Y-122200000D01*
X445490000Y-120530000D02*
X442153949Y-116892359D01*
X409830000Y-127220000D02*
X409830000Y-129320000D01*
X443950000Y-115096307D02*
X447400000Y-118890000D01*
X421171200Y-125169557D02*
X424851200Y-125099557D01*
X428710000Y-105250000D02*
X434350000Y-102700000D01*
X434420000Y-124070000D02*
X436400000Y-124820000D01*
X358183949Y-30379744D02*
X356387898Y-32175795D01*
X440357898Y-107912102D02*
X442153949Y-106116051D01*
X443225811Y-124818508D02*
X443225811Y-124855811D01*
X447698154Y-114921846D02*
X454310000Y-115700000D01*
X445490000Y-120530000D02*
X448120000Y-122800000D01*
X415130038Y-124831954D02*
X415130038Y-124900038D01*
X407100000Y-132120000D02*
X373410000Y-126420000D01*
X461470000Y-38580000D02*
X458472126Y-33682015D01*
X397000000Y-76960000D02*
X401680000Y-75350000D01*
X382920000Y-31160000D02*
X378750000Y-29090000D01*
X407050000Y-76970000D02*
X406140354Y-83153045D01*
X456467051Y-100445291D02*
X461410000Y-99630000D01*
X438040000Y-131740000D02*
X407100000Y-132120000D01*
X361776051Y-26787641D02*
X363572102Y-24991590D01*
X356590000Y-24790000D02*
X354726016Y-26720158D01*
X417667620Y-124942747D02*
X421171200Y-125169557D01*
X392630000Y-50740000D02*
X390510000Y-49090000D01*
X416388468Y-87621532D02*
X417810000Y-86200000D01*
X409830000Y-129320000D02*
X435320000Y-129160000D01*
X413263045Y-67629646D02*
X416940000Y-60700000D01*
X441644205Y-37074205D02*
X443440256Y-38870256D01*
X441354957Y-85166440D02*
X445230000Y-87110000D01*
X417450000Y-127220000D02*
X429780000Y-127220000D01*
X457340000Y-56450000D02*
X457270000Y-56380000D01*
X406140354Y-83153045D02*
X413070000Y-86830000D01*
X401550000Y-45780000D02*
X400911544Y-42651438D01*
X367164205Y-32175795D02*
X368960256Y-30379744D01*
X455269557Y-52718800D02*
X455022747Y-56172380D01*
X450624461Y-35278154D02*
X452010000Y-37720000D01*
X401680000Y-75350000D02*
X407050000Y-76970000D01*
X399260355Y-55612201D02*
X399990355Y-52712201D01*
X382700000Y-73800000D02*
X385590000Y-74510000D01*
X379112002Y-83391532D02*
X380727799Y-81160355D01*
X449050000Y-26500000D02*
X447011939Y-24670652D01*
X408721550Y-34660000D02*
X410625790Y-36564240D01*
X397819646Y-60626955D02*
X390890000Y-56950000D01*
X385590000Y-74510000D02*
X390746955Y-75990354D01*
X408360000Y-39480000D02*
X410010158Y-40033984D01*
X436256051Y-31686051D02*
X438052102Y-33482102D01*
X379038800Y-18670443D02*
X382648800Y-18670443D01*
X390746955Y-75990354D02*
X397000000Y-76960000D01*
X369640000Y-65460000D02*
X370103984Y-63809842D01*
X364758450Y-65070000D02*
X366634240Y-63194210D01*
X417780000Y-57400000D02*
X416320000Y-56000000D01*
X388326789Y-26490000D02*
X388437582Y-26600793D01*
X382648800Y-18670443D02*
X382718800Y-18600443D01*
X401680000Y-75350000D02*
X401770000Y-67960000D01*
X408360000Y-39480000D02*
X407590000Y-37550000D01*
X386170000Y-23730000D02*
X385900000Y-26490000D01*
X365404240Y-59784210D02*
X370103984Y-63809842D01*
X443225811Y-124855811D02*
X445700000Y-127330000D01*
X454911954Y-58709962D02*
X454940038Y-58709962D01*
X445236307Y-29890000D02*
X449050000Y-26500000D01*
X442310000Y-120784759D02*
X440772628Y-122322131D01*
X447299207Y-58377582D02*
X447410000Y-55840000D01*
X447400000Y-118890000D02*
X449320000Y-116960000D01*
X385900000Y-26490000D02*
X388326789Y-26490000D01*
X386232380Y-18877253D02*
X385980000Y-21620000D01*
X455199557Y-52648800D02*
X455269557Y-52718800D01*
X369640000Y-65460000D02*
X367550000Y-66220000D01*
X414837767Y-85062233D02*
X416388468Y-87712002D01*
X436090000Y-122040000D02*
X438561846Y-120484461D01*
X454940038Y-58709962D02*
X457340000Y-58730000D01*
X358790221Y-69916916D02*
X356171420Y-67697442D01*
X406990000Y-66790000D02*
X413263045Y-67629646D01*
X354640000Y-41000000D02*
X375080000Y-21580000D01*
X403580000Y-40480000D02*
X400380000Y-35050000D01*
X447032359Y-31686051D02*
X448828410Y-33482102D01*
X445746051Y-113300256D02*
X447698154Y-114921846D01*
X407590000Y-37550000D02*
X405390000Y-32800000D01*
X441390000Y-40620000D02*
X443440256Y-38870256D01*
X399010000Y-45780000D02*
X394320000Y-36360000D01*
X386100000Y-86430000D02*
X386230000Y-86430000D01*
X407050000Y-76970000D02*
X412928579Y-76364820D01*
X436400000Y-124820000D02*
X440772628Y-122322131D01*
X410010158Y-40033984D02*
X414035790Y-35334240D01*
X397000000Y-76960000D02*
X397535180Y-82778579D01*
X440127985Y-128502126D02*
X438040000Y-131740000D01*
X454690368Y-63785127D02*
X457270000Y-64000000D01*
X417420000Y-127190000D02*
X417450000Y-127220000D01*
X361776051Y-37563949D02*
X363572102Y-35767898D01*
X406990000Y-66790000D02*
X406474820Y-60841421D01*
X415140000Y-127190000D02*
X417420000Y-127190000D01*
X375080000Y-21580000D02*
X386170000Y-23730000D01*
X455199557Y-49038800D02*
X455199557Y-52648800D01*
X457340000Y-58730000D02*
X457340000Y-56450000D01*
X417125000Y-114990000D02*
X420250000Y-110140000D01*
X360200000Y-87165000D02*
X364125000Y-90740000D01*
X415172233Y-58932233D02*
X417780000Y-57400000D01*
X385980000Y-21620000D02*
X400240000Y-22980000D01*
X397817442Y-117728580D02*
X391675000Y-119190000D01*
X429780000Y-127220000D02*
X434420000Y-124070000D01*
X366634240Y-63194210D02*
X361875000Y-60865000D01*
X364670000Y-65070000D02*
X364758450Y-65070000D01*
X358840000Y-60560000D02*
X362605043Y-58603560D01*
X404266526Y-19526438D02*
X399720000Y-12160000D01*
X364125000Y-90740000D02*
X363790000Y-92780000D01*
X381800000Y-41730000D02*
X385450000Y-41640000D01*
X373300000Y-47960000D02*
X377100000Y-47520000D01*
X386030000Y-57519530D02*
X387471532Y-56077998D01*
X432810000Y-39380000D02*
X436256051Y-31686051D01*
X373180000Y-66840000D02*
X369640000Y-65460000D01*
X413263045Y-67629646D02*
X418260000Y-69240000D01*
X388890000Y-70280000D02*
X391031421Y-67415180D01*
X386340000Y-16510000D02*
X386340000Y-16558084D01*
X406474820Y-60841421D02*
X403540000Y-58740000D01*
X403665410Y-44081615D02*
X403580000Y-40480000D01*
X356691586Y-82834835D02*
X360200000Y-87165000D01*
X377850000Y-54700000D02*
X374420000Y-57530000D01*
X387471532Y-56077998D02*
X389122233Y-58717767D01*
X365368154Y-33971846D02*
X367756798Y-34681356D01*
X400240000Y-22980000D02*
X396589333Y-33308784D01*
X418260000Y-69240000D02*
X421090000Y-69990000D01*
X416290000Y-44350000D02*
X416980000Y-40770000D01*
X406970000Y-43180000D02*
X408360000Y-39480000D01*
X423062201Y-62629645D02*
X424767998Y-60438468D01*
X374250000Y-16530000D02*
X369470000Y-19700000D01*
X361170000Y-54500000D02*
X364870000Y-50440000D01*
X382718800Y-18600443D02*
X386232380Y-18877253D01*
X363217372Y-21497869D02*
X367580000Y-18830000D01*
X386030000Y-57550000D02*
X386030000Y-57519530D01*
X356171420Y-67697442D02*
X354725000Y-59390000D01*
X408720000Y-34660000D02*
X408721550Y-34660000D01*
X368510000Y-52360000D02*
X369610000Y-53430000D01*
X420250000Y-110140000D02*
X422810000Y-110120000D01*
X386100000Y-86430000D02*
X388837767Y-84687767D01*
X387630000Y-52500000D02*
X381750000Y-58570000D01*
X381990000Y-64580000D02*
X380548631Y-62843297D01*
X399674096Y-50475904D02*
X399010000Y-45780000D01*
X368510000Y-52360000D02*
X369790000Y-49170000D01*
X405390000Y-32800000D02*
X410230000Y-24270000D01*
X386230000Y-86430000D02*
X387600000Y-87800000D01*
X368960256Y-30379744D02*
X370633172Y-32492915D01*
X388770000Y-16530000D02*
X388769962Y-18988046D01*
X399720000Y-12160000D02*
X399720000Y-12160000D01*
X410230000Y-24270000D02*
X413610600Y-22270027D01*
X377910000Y-27550000D02*
X378750000Y-29090000D01*
X375080000Y-21580000D02*
X375080000Y-21580000D01*
X381990000Y-64580000D02*
X380736185Y-65222031D01*
X387070000Y-82920000D02*
X390746955Y-75990354D01*
X403873084Y-28780221D02*
X406092558Y-26161420D01*
X356241846Y-28868154D02*
X349350000Y-28020000D01*
X373034133Y-53033038D02*
X374863815Y-53847969D01*
X369790000Y-49170000D02*
X373167067Y-50496519D01*
X381800000Y-41730000D02*
X381800000Y-41730000D01*
X377520000Y-67320000D02*
X374081615Y-70144590D01*
X361170000Y-54500000D02*
X373140000Y-60970000D01*
X370840000Y-56840000D02*
X374420000Y-57530000D01*
X387354466Y-60485534D02*
X387540000Y-67650000D01*
X386340000Y-16510000D02*
X374250000Y-16530000D01*
X374320000Y-19210000D02*
X356408642Y-36008642D01*
X355970000Y-52990000D02*
X361170000Y-54500000D01*
X380141216Y-69939333D02*
X388890000Y-70280000D01*
X391900000Y-53640000D02*
X387630000Y-52500000D01*
X363360000Y-77310000D02*
X366940000Y-71120000D01*
X367580000Y-18830000D02*
X369470000Y-19700000D01*
X378683136Y-57256843D02*
X382390000Y-55040000D01*
X399990355Y-52712201D02*
X399674096Y-50475904D01*
X352300000Y-46130000D02*
X356420000Y-49610000D01*
X384990000Y-68020000D02*
X377520000Y-67320000D01*
X358328619Y-23391381D02*
X361776051Y-26787641D01*
X371310000Y-46320000D02*
X374376864Y-45523157D01*
X369790000Y-49170000D02*
X368136390Y-45143038D01*
X399674096Y-50475904D02*
X394745176Y-46129183D01*
X384945671Y-65480387D02*
X381990000Y-64580000D01*
X369802780Y-43226075D02*
X376683136Y-40996844D01*
X349350000Y-28020000D02*
X349350000Y-28020000D01*
X356420000Y-49610000D02*
X355970000Y-52990000D01*
X367030000Y-52400000D02*
X368510000Y-52360000D01*
X350410000Y-33000000D02*
X350305673Y-36925673D01*
X374050000Y-28830000D02*
X377293116Y-31170646D01*
X394010000Y-14270000D02*
X393960000Y-16510000D01*
X390250000Y-39670000D02*
X388363768Y-37478708D01*
X356408642Y-36008642D02*
X353040000Y-39230000D01*
X360764189Y-18994189D02*
X360764189Y-19001492D01*
X381750000Y-58570000D02*
X377530000Y-59520000D01*
X373140000Y-60970000D02*
X373210000Y-64030000D01*
X403540000Y-58740000D02*
X403870667Y-50141216D01*
X358328619Y-23391381D02*
X368660000Y-14580000D01*
X361630000Y-23480000D02*
X363217372Y-21497869D01*
X380440406Y-49786889D02*
X377850000Y-54700000D01*
X368640000Y-12350000D02*
X363692015Y-15327874D01*
X390250000Y-39670000D02*
X384070000Y-48490000D01*
X399720000Y-12160000D02*
X368640000Y-12350000D01*
X379560000Y-46110000D02*
X380440406Y-49786889D01*
X355820000Y-20920000D02*
X358328619Y-23391381D01*
X369190000Y-38170000D02*
X369230000Y-38170000D01*
X375320000Y-35700000D02*
X379390000Y-39770000D01*
X375836232Y-33251292D02*
X380300000Y-35910000D01*
X383143038Y-100905867D02*
X383797969Y-99056185D01*
X375530000Y-43260000D02*
X379560000Y-46110000D01*
X384070000Y-48490000D02*
X385150000Y-50960000D01*
X358710000Y-56630000D02*
X358710000Y-56660000D01*
X362605043Y-58603560D02*
X358710000Y-56630000D01*
X366540000Y-79440000D02*
X369750000Y-83610000D01*
X381444903Y-38277025D02*
X381800000Y-41730000D01*
X388482780Y-47126075D02*
X391410000Y-46790000D01*
X373370000Y-98410000D02*
X376180000Y-94290000D01*
X382320000Y-105300000D02*
X382440000Y-106910000D01*
X358340000Y-16170000D02*
X360764189Y-18994189D01*
X361251367Y-51179806D02*
X362790000Y-48400000D01*
X376683136Y-40996844D02*
X381721743Y-45286507D01*
X368660000Y-14580000D02*
X394010000Y-14270000D01*
X384070000Y-48490000D02*
X382760811Y-48753778D01*
X367608708Y-85506232D02*
X366914051Y-90370194D01*
X383617799Y-81870355D02*
X382660000Y-86280000D01*
X386340000Y-16558084D02*
X388770000Y-16530000D01*
X368407025Y-92425097D02*
X371840000Y-92020000D01*
X373140000Y-60970000D02*
X376376864Y-61783156D01*
X378070000Y-100640000D02*
X377700000Y-96780000D01*
X353060000Y-73520000D02*
X351700000Y-87810000D01*
X383499806Y-36784051D02*
X388363768Y-37478708D01*
X375210000Y-38500000D02*
X369700000Y-41040000D01*
X391410000Y-46790000D02*
X392857588Y-44429592D01*
X376840000Y-82490000D02*
X377316075Y-85357220D01*
X379976889Y-93399594D02*
X385050000Y-96190000D01*
X375253038Y-105803610D02*
X379380000Y-104070000D01*
X356408642Y-36008642D02*
X354591846Y-33971846D01*
X369700000Y-41040000D02*
X361776051Y-37563949D01*
X385450000Y-41640000D02*
X386906884Y-39559354D01*
X392857588Y-44429592D02*
X393490000Y-40270000D01*
X390463038Y-49043038D02*
X390510000Y-49090000D01*
X390970000Y-42820000D02*
X389300000Y-44490000D01*
X371840000Y-92020000D02*
X371770000Y-88420000D01*
X393960000Y-16510000D02*
X393845127Y-19209632D01*
X374863815Y-53847969D02*
X378120000Y-50820000D01*
X406140354Y-83153045D02*
X404569645Y-88247799D01*
X355883935Y-45179649D02*
X359980000Y-39360000D01*
X377910000Y-27550000D02*
X378640000Y-26280000D01*
X394320000Y-36360000D02*
X390250000Y-39670000D01*
X352300000Y-46130000D02*
X353060000Y-73520000D01*
X375320000Y-35610000D02*
X375320000Y-35700000D01*
X351700000Y-87810000D02*
X348857253Y-87577620D01*
X378530000Y-75240000D02*
X376259183Y-79124824D01*
X374450000Y-84490000D02*
X372860000Y-82900000D01*
%TD*%
M02*
