%TF.GenerationSoftware,KiCad,Pcbnew,(5.1.7)-1*%
%TF.CreationDate,2021-05-19T11:47:01-05:00*%
%TF.ProjectId,FOURSES TARPTERGE,464f5552-5345-4532-9054-415250544552,rev?*%
%TF.SameCoordinates,Original*%
%TF.FileFunction,Soldermask,Top*%
%TF.FilePolarity,Negative*%
%FSLAX46Y46*%
G04 Gerber Fmt 4.6, Leading zero omitted, Abs format (unit mm)*
G04 Created by KiCad (PCBNEW (5.1.7)-1) date 2021-05-19 11:47:01*
%MOMM*%
%LPD*%
G01*
G04 APERTURE LIST*
%ADD10O,1.700000X1.700000*%
%ADD11C,1.700000*%
%ADD12C,3.624001*%
%ADD13C,5.900000*%
%ADD14C,3.300000*%
%ADD15C,3.340000*%
%ADD16C,1.900000*%
%ADD17C,1.600000*%
%ADD18O,1.840000X2.290000*%
G04 APERTURE END LIST*
D10*
%TO.C,REF\u002A\u002A*%
X457270000Y-64000000D03*
D11*
X457270000Y-56380000D03*
%TD*%
%TO.C,REF\u002A\u002A*%
X396920000Y-100630000D03*
G36*
G01*
X399673607Y-94445298D02*
X399673607Y-94445298D01*
G75*
G02*
X399242819Y-93323058I345726J776514D01*
G01*
X399242819Y-93323058D01*
G75*
G02*
X400365059Y-92892270I776514J-345726D01*
G01*
X400365059Y-92892270D01*
G75*
G02*
X400795847Y-94014510I-345726J-776514D01*
G01*
X400795847Y-94014510D01*
G75*
G02*
X399673607Y-94445298I-776514J345726D01*
G01*
G37*
%TD*%
%TO.C,REF\u002A\u002A*%
G36*
G01*
X392525407Y-106836614D02*
X392525407Y-106836614D01*
G75*
G02*
X393703356Y-106596957I708803J-469146D01*
G01*
X393703356Y-106596957D01*
G75*
G02*
X393943013Y-107774906I-469146J-708803D01*
G01*
X393943013Y-107774906D01*
G75*
G02*
X392765064Y-108014563I-708803J469146D01*
G01*
X392765064Y-108014563D01*
G75*
G02*
X392525407Y-106836614I469146J708803D01*
G01*
G37*
X386880000Y-103100000D03*
%TD*%
%TO.C,REF\u002A\u002A*%
G36*
G01*
X404103192Y-43353023D02*
X404103192Y-43353023D01*
G75*
G02*
X404394002Y-44519397I-437782J-728592D01*
G01*
X404394002Y-44519397D01*
G75*
G02*
X403227628Y-44810207I-728592J437782D01*
G01*
X403227628Y-44810207D01*
G75*
G02*
X402936818Y-43643833I437782J728592D01*
G01*
X402936818Y-43643833D01*
G75*
G02*
X404103192Y-43353023I728592J-437782D01*
G01*
G37*
X407590000Y-37550000D03*
%TD*%
%TO.C,REF\u002A\u002A*%
X361630000Y-23480000D03*
G36*
G01*
X356842887Y-28267113D02*
X356842887Y-28267113D01*
G75*
G02*
X356842887Y-29469195I-601041J-601041D01*
G01*
X356842887Y-29469195D01*
G75*
G02*
X355640805Y-29469195I-601041J601041D01*
G01*
X355640805Y-29469195D01*
G75*
G02*
X355640805Y-28267113I601041J601041D01*
G01*
X355640805Y-28267113D01*
G75*
G02*
X356842887Y-28267113I601041J-601041D01*
G01*
G37*
%TD*%
%TO.C,REF\u002A\u002A*%
G36*
G01*
X359446102Y-69376250D02*
X359446102Y-69376250D01*
G75*
G02*
X359330887Y-70572797I-655881J-540666D01*
G01*
X359330887Y-70572797D01*
G75*
G02*
X358134340Y-70457582I-540666J655881D01*
G01*
X358134340Y-70457582D01*
G75*
G02*
X358249555Y-69261035I655881J540666D01*
G01*
X358249555Y-69261035D01*
G75*
G02*
X359446102Y-69376250I540666J-655881D01*
G01*
G37*
X364670000Y-65070000D03*
%TD*%
%TO.C,REF\u002A\u002A*%
G36*
G01*
X397021271Y-117430904D02*
X397021271Y-117430904D01*
G75*
G02*
X398115118Y-116932409I796171J-297676D01*
G01*
X398115118Y-116932409D01*
G75*
G02*
X398613613Y-118026256I-297676J-796171D01*
G01*
X398613613Y-118026256D01*
G75*
G02*
X397519766Y-118524751I-796171J297676D01*
G01*
X397519766Y-118524751D01*
G75*
G02*
X397021271Y-117430904I297676J796171D01*
G01*
G37*
X390680000Y-115060000D03*
%TD*%
%TO.C,REF\u002A\u002A*%
G36*
G01*
X444473898Y-74323750D02*
X444473898Y-74323750D01*
G75*
G02*
X444589113Y-73127203I655881J540666D01*
G01*
X444589113Y-73127203D01*
G75*
G02*
X445785660Y-73242418I540666J-655881D01*
G01*
X445785660Y-73242418D01*
G75*
G02*
X445670445Y-74438965I-655881J-540666D01*
G01*
X445670445Y-74438965D01*
G75*
G02*
X444473898Y-74323750I-540666J655881D01*
G01*
G37*
X439250000Y-78630000D03*
%TD*%
%TO.C,REF\u002A\u002A*%
G36*
G01*
X375538875Y-117185703D02*
X375538875Y-117185703D01*
G75*
G02*
X375950011Y-118315291I-359226J-770362D01*
G01*
X375950011Y-118315291D01*
G75*
G02*
X374820423Y-118726427I-770362J359226D01*
G01*
X374820423Y-118726427D01*
G75*
G02*
X374409287Y-117596839I359226J770362D01*
G01*
X374409287Y-117596839D01*
G75*
G02*
X375538875Y-117185703I770362J-359226D01*
G01*
G37*
X378400000Y-111050000D03*
%TD*%
%TO.C,REF\u002A\u002A*%
G36*
G01*
X411334593Y-37033386D02*
X411334593Y-37033386D01*
G75*
G02*
X410156644Y-37273043I-708803J469146D01*
G01*
X410156644Y-37273043D01*
G75*
G02*
X409916987Y-36095094I469146J708803D01*
G01*
X409916987Y-36095094D01*
G75*
G02*
X411094936Y-35855437I708803J-469146D01*
G01*
X411094936Y-35855437D01*
G75*
G02*
X411334593Y-37033386I-469146J-708803D01*
G01*
G37*
X416980000Y-40770000D03*
%TD*%
%TO.C,REF\u002A\u002A*%
X441100000Y-95420000D03*
G36*
G01*
X447235703Y-98281125D02*
X447235703Y-98281125D01*
G75*
G02*
X448365291Y-97869989I770362J-359226D01*
G01*
X448365291Y-97869989D01*
G75*
G02*
X448776427Y-98999577I-359226J-770362D01*
G01*
X448776427Y-98999577D01*
G75*
G02*
X447646839Y-99410713I-770362J359226D01*
G01*
X447646839Y-99410713D01*
G75*
G02*
X447235703Y-98281125I359226J770362D01*
G01*
G37*
%TD*%
%TO.C,REF\u002A\u002A*%
X420020000Y-44710000D03*
G36*
G01*
X418960938Y-51396650D02*
X418960938Y-51396650D01*
G75*
G02*
X419667504Y-52369154I-132969J-839535D01*
G01*
X419667504Y-52369154D01*
G75*
G02*
X418695000Y-53075720I-839535J132969D01*
G01*
X418695000Y-53075720D01*
G75*
G02*
X417988434Y-52103216I132969J839535D01*
G01*
X417988434Y-52103216D01*
G75*
G02*
X418960938Y-51396650I839535J-132969D01*
G01*
G37*
%TD*%
%TO.C,REF\u002A\u002A*%
X362057653Y-84147044D03*
X360690094Y-80925277D03*
%TD*%
%TO.C,REF\u002A\u002A*%
G36*
G01*
X370585429Y-63109335D02*
X370585429Y-63109335D01*
G75*
G02*
X370804491Y-64291287I-481445J-700507D01*
G01*
X370804491Y-64291287D01*
G75*
G02*
X369622539Y-64510349I-700507J481445D01*
G01*
X369622539Y-64510349D01*
G75*
G02*
X369403477Y-63328397I481445J700507D01*
G01*
X369403477Y-63328397D01*
G75*
G02*
X370585429Y-63109335I700507J-481445D01*
G01*
G37*
X374420000Y-57530000D03*
%TD*%
%TO.C,REF\u002A\u002A*%
X420390000Y-39540000D03*
G36*
G01*
X414744593Y-35803386D02*
X414744593Y-35803386D01*
G75*
G02*
X413566644Y-36043043I-708803J469146D01*
G01*
X413566644Y-36043043D01*
G75*
G02*
X413326987Y-34865094I469146J708803D01*
G01*
X413326987Y-34865094D01*
G75*
G02*
X414504936Y-34625437I708803J-469146D01*
G01*
X414504936Y-34625437D01*
G75*
G02*
X414744593Y-35803386I-469146J-708803D01*
G01*
G37*
%TD*%
%TO.C,REF\u002A\u002A*%
X373210000Y-64030000D03*
G36*
G01*
X379896650Y-65089062D02*
X379896650Y-65089062D01*
G75*
G02*
X380869154Y-64382496I839535J-132969D01*
G01*
X380869154Y-64382496D01*
G75*
G02*
X381575720Y-65355000I-132969J-839535D01*
G01*
X381575720Y-65355000D01*
G75*
G02*
X380603216Y-66061566I-839535J132969D01*
G01*
X380603216Y-66061566D01*
G75*
G02*
X379896650Y-65089062I132969J839535D01*
G01*
G37*
%TD*%
%TO.C,REF\u002A\u002A*%
X436340000Y-77510000D03*
G36*
G01*
X430536977Y-74023192D02*
X430536977Y-74023192D01*
G75*
G02*
X429370603Y-74314002I-728592J437782D01*
G01*
X429370603Y-74314002D01*
G75*
G02*
X429079793Y-73147628I437782J728592D01*
G01*
X429079793Y-73147628D01*
G75*
G02*
X430246167Y-72856818I728592J-437782D01*
G01*
X430246167Y-72856818D01*
G75*
G02*
X430536977Y-74023192I-437782J-728592D01*
G01*
G37*
%TD*%
%TO.C,REF\u002A\u002A*%
G36*
G01*
X422473350Y-88920938D02*
X422473350Y-88920938D01*
G75*
G02*
X421500846Y-89627504I-839535J132969D01*
G01*
X421500846Y-89627504D01*
G75*
G02*
X420794280Y-88655000I132969J839535D01*
G01*
X420794280Y-88655000D01*
G75*
G02*
X421766784Y-87948434I839535J-132969D01*
G01*
X421766784Y-87948434D01*
G75*
G02*
X422473350Y-88920938I-132969J-839535D01*
G01*
G37*
X429160000Y-89980000D03*
%TD*%
%TO.C,REF\u002A\u002A*%
X395190000Y-109230000D03*
G36*
G01*
X399496250Y-114453898D02*
X399496250Y-114453898D01*
G75*
G02*
X400692797Y-114569113I540666J-655881D01*
G01*
X400692797Y-114569113D01*
G75*
G02*
X400577582Y-115765660I-655881J-540666D01*
G01*
X400577582Y-115765660D01*
G75*
G02*
X399381035Y-115650445I-540666J655881D01*
G01*
X399381035Y-115650445D01*
G75*
G02*
X399496250Y-114453898I655881J540666D01*
G01*
G37*
%TD*%
%TO.C,REF\u002A\u002A*%
X408720000Y-34660000D03*
G36*
G01*
X404413750Y-29436102D02*
X404413750Y-29436102D01*
G75*
G02*
X403217203Y-29320887I-540666J655881D01*
G01*
X403217203Y-29320887D01*
G75*
G02*
X403332418Y-28124340I655881J540666D01*
G01*
X403332418Y-28124340D01*
G75*
G02*
X404528965Y-28239555I540666J-655881D01*
G01*
X404528965Y-28239555D01*
G75*
G02*
X404413750Y-29436102I-655881J-540666D01*
G01*
G37*
%TD*%
%TO.C,REF\u002A\u002A*%
X406775000Y-114640000D03*
X401114678Y-109719557D03*
%TD*%
%TO.C,REF\u002A\u002A*%
X436930000Y-91370000D03*
G36*
G01*
X440861359Y-85858438D02*
X440861359Y-85858438D01*
G75*
G02*
X440662959Y-84672842I493598J691998D01*
G01*
X440662959Y-84672842D01*
G75*
G02*
X441848555Y-84474442I691998J-493598D01*
G01*
X441848555Y-84474442D01*
G75*
G02*
X442046955Y-85660038I-493598J-691998D01*
G01*
X442046955Y-85660038D01*
G75*
G02*
X440861359Y-85858438I-691998J493598D01*
G01*
G37*
%TD*%
%TO.C,REF\u002A\u002A*%
G36*
G01*
X433374571Y-80660665D02*
X433374571Y-80660665D01*
G75*
G02*
X433155509Y-79478713I481445J700507D01*
G01*
X433155509Y-79478713D01*
G75*
G02*
X434337461Y-79259651I700507J-481445D01*
G01*
X434337461Y-79259651D01*
G75*
G02*
X434556523Y-80441603I-481445J-700507D01*
G01*
X434556523Y-80441603D01*
G75*
G02*
X433374571Y-80660665I-700507J481445D01*
G01*
G37*
X429540000Y-86240000D03*
%TD*%
%TO.C,REF\u002A\u002A*%
X441390000Y-40620000D03*
G36*
G01*
X446341264Y-45237129D02*
X446341264Y-45237129D01*
G75*
G02*
X447542614Y-45195177I621651J-579699D01*
G01*
X447542614Y-45195177D01*
G75*
G02*
X447584566Y-46396527I-579699J-621651D01*
G01*
X447584566Y-46396527D01*
G75*
G02*
X446383216Y-46438479I-621651J579699D01*
G01*
X446383216Y-46438479D01*
G75*
G02*
X446341264Y-45237129I579699J621651D01*
G01*
G37*
%TD*%
%TO.C,REF\u002A\u002A*%
X367030000Y-52400000D03*
G36*
G01*
X363098641Y-57911562D02*
X363098641Y-57911562D01*
G75*
G02*
X363297041Y-59097158I-493598J-691998D01*
G01*
X363297041Y-59097158D01*
G75*
G02*
X362111445Y-59295558I-691998J493598D01*
G01*
X362111445Y-59295558D01*
G75*
G02*
X361913045Y-58109962I493598J691998D01*
G01*
X361913045Y-58109962D01*
G75*
G02*
X363098641Y-57911562I691998J-493598D01*
G01*
G37*
%TD*%
%TO.C,REF\u002A\u002A*%
G36*
G01*
X379364702Y-69593607D02*
X379364702Y-69593607D01*
G75*
G02*
X380486942Y-69162819I776514J-345726D01*
G01*
X380486942Y-69162819D01*
G75*
G02*
X380917730Y-70285059I-345726J-776514D01*
G01*
X380917730Y-70285059D01*
G75*
G02*
X379795490Y-70715847I-776514J345726D01*
G01*
X379795490Y-70715847D01*
G75*
G02*
X379364702Y-69593607I345726J776514D01*
G01*
G37*
X373180000Y-66840000D03*
%TD*%
%TO.C,REF\u002A\u002A*%
X406970000Y-43180000D03*
G36*
G01*
X404216393Y-49364702D02*
X404216393Y-49364702D01*
G75*
G02*
X404647181Y-50486942I-345726J-776514D01*
G01*
X404647181Y-50486942D01*
G75*
G02*
X403524941Y-50917730I-776514J345726D01*
G01*
X403524941Y-50917730D01*
G75*
G02*
X403094153Y-49795490I345726J776514D01*
G01*
X403094153Y-49795490D01*
G75*
G02*
X404216393Y-49364702I776514J-345726D01*
G01*
G37*
%TD*%
%TO.C,REF\u002A\u002A*%
G36*
G01*
X406888729Y-26459096D02*
X406888729Y-26459096D01*
G75*
G02*
X405794882Y-26957591I-796171J297676D01*
G01*
X405794882Y-26957591D01*
G75*
G02*
X405296387Y-25863744I297676J796171D01*
G01*
X405296387Y-25863744D01*
G75*
G02*
X406390234Y-25365249I796171J-297676D01*
G01*
X406390234Y-25365249D01*
G75*
G02*
X406888729Y-26459096I-297676J-796171D01*
G01*
G37*
X413230000Y-28830000D03*
%TD*%
%TO.C,REF\u002A\u002A*%
G36*
G01*
X438086614Y-84694593D02*
X438086614Y-84694593D01*
G75*
G02*
X437846957Y-83516644I469146J708803D01*
G01*
X437846957Y-83516644D01*
G75*
G02*
X439024906Y-83276987I708803J-469146D01*
G01*
X439024906Y-83276987D01*
G75*
G02*
X439264563Y-84454936I-469146J-708803D01*
G01*
X439264563Y-84454936D01*
G75*
G02*
X438086614Y-84694593I-708803J469146D01*
G01*
G37*
X434350000Y-90340000D03*
%TD*%
%TO.C,REF\u002A\u002A*%
G36*
G01*
X387951562Y-110841359D02*
X387951562Y-110841359D01*
G75*
G02*
X389137158Y-110642959I691998J-493598D01*
G01*
X389137158Y-110642959D01*
G75*
G02*
X389335558Y-111828555I-493598J-691998D01*
G01*
X389335558Y-111828555D01*
G75*
G02*
X388149962Y-112026955I-691998J493598D01*
G01*
X388149962Y-112026955D01*
G75*
G02*
X387951562Y-110841359I493598J691998D01*
G01*
G37*
X382440000Y-106910000D03*
%TD*%
%TO.C,REF\u002A\u002A*%
X362490000Y-103190000D03*
G36*
G01*
X357538736Y-98572871D02*
X357538736Y-98572871D01*
G75*
G02*
X356337386Y-98614823I-621651J579699D01*
G01*
X356337386Y-98614823D01*
G75*
G02*
X356295434Y-97413473I579699J621651D01*
G01*
X356295434Y-97413473D01*
G75*
G02*
X357496784Y-97371521I621651J-579699D01*
G01*
X357496784Y-97371521D01*
G75*
G02*
X357538736Y-98572871I-579699J-621651D01*
G01*
G37*
%TD*%
%TO.C,REF\u002A\u002A*%
G36*
G01*
X350527692Y-104023708D02*
X350527692Y-104023708D01*
G75*
G02*
X350206450Y-105182070I-739802J-418560D01*
G01*
X350206450Y-105182070D01*
G75*
G02*
X349048088Y-104860828I-418560J739802D01*
G01*
X349048088Y-104860828D01*
G75*
G02*
X349369330Y-103702466I739802J418560D01*
G01*
X349369330Y-103702466D01*
G75*
G02*
X350527692Y-104023708I418560J-739802D01*
G01*
G37*
X356420000Y-100690000D03*
%TD*%
%TO.C,REF\u002A\u002A*%
G36*
G01*
X428331125Y-26614297D02*
X428331125Y-26614297D01*
G75*
G02*
X427919989Y-25484709I359226J770362D01*
G01*
X427919989Y-25484709D01*
G75*
G02*
X429049577Y-25073573I770362J-359226D01*
G01*
X429049577Y-25073573D01*
G75*
G02*
X429460713Y-26203161I-359226J-770362D01*
G01*
X429460713Y-26203161D01*
G75*
G02*
X428331125Y-26614297I-770362J359226D01*
G01*
G37*
X425470000Y-32750000D03*
%TD*%
%TO.C,REF\u002A\u002A*%
G36*
G01*
X358297113Y-117027113D02*
X358297113Y-117027113D01*
G75*
G02*
X359499195Y-117027113I601041J-601041D01*
G01*
X359499195Y-117027113D01*
G75*
G02*
X359499195Y-118229195I-601041J-601041D01*
G01*
X359499195Y-118229195D01*
G75*
G02*
X358297113Y-118229195I-601041J601041D01*
G01*
X358297113Y-118229195D01*
G75*
G02*
X358297113Y-117027113I601041J601041D01*
G01*
G37*
X353510000Y-112240000D03*
%TD*%
%TO.C,REF\u002A\u002A*%
X363360000Y-77310000D03*
G36*
G01*
X369544702Y-80063607D02*
X369544702Y-80063607D01*
G75*
G02*
X370666942Y-79632819I776514J-345726D01*
G01*
X370666942Y-79632819D01*
G75*
G02*
X371097730Y-80755059I-345726J-776514D01*
G01*
X371097730Y-80755059D01*
G75*
G02*
X369975490Y-81185847I-776514J345726D01*
G01*
X369975490Y-81185847D01*
G75*
G02*
X369544702Y-80063607I345726J776514D01*
G01*
G37*
%TD*%
%TO.C,REF\u002A\u002A*%
G36*
G01*
X365873386Y-59075407D02*
X365873386Y-59075407D01*
G75*
G02*
X366113043Y-60253356I-469146J-708803D01*
G01*
X366113043Y-60253356D01*
G75*
G02*
X364935094Y-60493013I-708803J469146D01*
G01*
X364935094Y-60493013D01*
G75*
G02*
X364695437Y-59315064I469146J708803D01*
G01*
X364695437Y-59315064D01*
G75*
G02*
X365873386Y-59075407I708803J-469146D01*
G01*
G37*
X369610000Y-53430000D03*
%TD*%
%TO.C,REF\u002A\u002A*%
X383470000Y-104330000D03*
G36*
G01*
X389115407Y-108066614D02*
X389115407Y-108066614D01*
G75*
G02*
X390293356Y-107826957I708803J-469146D01*
G01*
X390293356Y-107826957D01*
G75*
G02*
X390533013Y-109004906I-469146J-708803D01*
G01*
X390533013Y-109004906D01*
G75*
G02*
X389355064Y-109244563I-708803J469146D01*
G01*
X389355064Y-109244563D01*
G75*
G02*
X389115407Y-108066614I469146J708803D01*
G01*
G37*
%TD*%
%TO.C,REF\u002A\u002A*%
G36*
G01*
X415908438Y-33028641D02*
X415908438Y-33028641D01*
G75*
G02*
X414722842Y-33227041I-691998J493598D01*
G01*
X414722842Y-33227041D01*
G75*
G02*
X414524442Y-32041445I493598J691998D01*
G01*
X414524442Y-32041445D01*
G75*
G02*
X415710038Y-31843045I691998J-493598D01*
G01*
X415710038Y-31843045D01*
G75*
G02*
X415908438Y-33028641I-493598J-691998D01*
G01*
G37*
X421420000Y-36960000D03*
%TD*%
%TO.C,REF\u002A\u002A*%
X367550000Y-66220000D03*
G36*
G01*
X373353023Y-69706808D02*
X373353023Y-69706808D01*
G75*
G02*
X374519397Y-69415998I728592J-437782D01*
G01*
X374519397Y-69415998D01*
G75*
G02*
X374810207Y-70582372I-437782J-728592D01*
G01*
X374810207Y-70582372D01*
G75*
G02*
X373643833Y-70873182I-728592J437782D01*
G01*
X373643833Y-70873182D01*
G75*
G02*
X373353023Y-69706808I437782J728592D01*
G01*
G37*
%TD*%
%TO.C,REF\u002A\u002A*%
G36*
G01*
X453392308Y-39796292D02*
X453392308Y-39796292D01*
G75*
G02*
X453713550Y-38637930I739802J418560D01*
G01*
X453713550Y-38637930D01*
G75*
G02*
X454871912Y-38959172I418560J-739802D01*
G01*
X454871912Y-38959172D01*
G75*
G02*
X454550670Y-40117534I-739802J-418560D01*
G01*
X454550670Y-40117534D01*
G75*
G02*
X453392308Y-39796292I-418560J739802D01*
G01*
G37*
X447500000Y-43130000D03*
%TD*%
%TO.C,REF\u002A\u002A*%
G36*
G01*
X445522887Y-26792887D02*
X445522887Y-26792887D01*
G75*
G02*
X444320805Y-26792887I-601041J601041D01*
G01*
X444320805Y-26792887D01*
G75*
G02*
X444320805Y-25590805I601041J601041D01*
G01*
X444320805Y-25590805D01*
G75*
G02*
X445522887Y-25590805I601041J-601041D01*
G01*
X445522887Y-25590805D01*
G75*
G02*
X445522887Y-26792887I-601041J-601041D01*
G01*
G37*
X450310000Y-31580000D03*
%TD*%
%TO.C,REF\u002A\u002A*%
X362790000Y-48400000D03*
G36*
G01*
X356654297Y-45538875D02*
X356654297Y-45538875D01*
G75*
G02*
X355524709Y-45950011I-770362J359226D01*
G01*
X355524709Y-45950011D01*
G75*
G02*
X355113573Y-44820423I359226J770362D01*
G01*
X355113573Y-44820423D01*
G75*
G02*
X356243161Y-44409287I770362J-359226D01*
G01*
X356243161Y-44409287D01*
G75*
G02*
X356654297Y-45538875I-359226J-770362D01*
G01*
G37*
%TD*%
%TO.C,REF\u002A\u002A*%
X370840000Y-56840000D03*
G36*
G01*
X367103386Y-62485407D02*
X367103386Y-62485407D01*
G75*
G02*
X367343043Y-63663356I-469146J-708803D01*
G01*
X367343043Y-63663356D01*
G75*
G02*
X366165094Y-63903013I-708803J469146D01*
G01*
X366165094Y-63903013D01*
G75*
G02*
X365925437Y-62725064I469146J708803D01*
G01*
X365925437Y-62725064D01*
G75*
G02*
X367103386Y-62485407I708803J-469146D01*
G01*
G37*
%TD*%
%TO.C,REF\u002A\u002A*%
X416290000Y-44350000D03*
G36*
G01*
X410710665Y-40515429D02*
X410710665Y-40515429D01*
G75*
G02*
X409528713Y-40734491I-700507J481445D01*
G01*
X409528713Y-40734491D01*
G75*
G02*
X409309651Y-39552539I481445J700507D01*
G01*
X409309651Y-39552539D01*
G75*
G02*
X410491603Y-39333477I700507J-481445D01*
G01*
X410491603Y-39333477D01*
G75*
G02*
X410710665Y-40515429I-481445J-700507D01*
G01*
G37*
%TD*%
D12*
%TO.C,REF\u002A\u002A*%
X349465455Y-71696119D03*
X349875000Y-67015000D03*
X350284545Y-62333881D03*
%TD*%
D13*
%TO.C,REF\u002A\u002A*%
X338250000Y-127450000D03*
%TD*%
%TO.C,REF\u002A\u002A*%
X338250000Y-46950000D03*
%TD*%
D11*
%TO.C,REF\u002A\u002A*%
X443259906Y-62579723D03*
X441892347Y-59357956D03*
%TD*%
D13*
%TO.C,REF\u002A\u002A*%
X338250000Y-81450000D03*
%TD*%
%TO.C,REF\u002A\u002A*%
X377920000Y-138540000D03*
%TD*%
%TO.C,REF\u002A\u002A*%
X341140000Y-15010000D03*
%TD*%
%TO.C,REF\u002A\u002A*%
X338250000Y-23950000D03*
%TD*%
D11*
%TO.C,REF\u002A\u002A*%
X359325000Y-76115000D03*
X364245443Y-70454678D03*
%TD*%
D13*
%TO.C,REF\u002A\u002A*%
X338250000Y-35450000D03*
%TD*%
D11*
%TO.C,REF\u002A\u002A*%
X387570000Y-99520000D03*
G36*
G01*
X393149335Y-103354571D02*
X393149335Y-103354571D01*
G75*
G02*
X394331287Y-103135509I700507J-481445D01*
G01*
X394331287Y-103135509D01*
G75*
G02*
X394550349Y-104317461I-481445J-700507D01*
G01*
X394550349Y-104317461D01*
G75*
G02*
X393368397Y-104536523I-700507J481445D01*
G01*
X393368397Y-104536523D01*
G75*
G02*
X393149335Y-103354571I481445J700507D01*
G01*
G37*
%TD*%
%TO.C,REF\u002A\u002A*%
X433120000Y-86930000D03*
G36*
G01*
X436856614Y-81284593D02*
X436856614Y-81284593D01*
G75*
G02*
X436616957Y-80106644I469146J708803D01*
G01*
X436616957Y-80106644D01*
G75*
G02*
X437794906Y-79866987I708803J-469146D01*
G01*
X437794906Y-79866987D01*
G75*
G02*
X438034563Y-81044936I-469146J-708803D01*
G01*
X438034563Y-81044936D01*
G75*
G02*
X436856614Y-81284593I-708803J469146D01*
G01*
G37*
%TD*%
D14*
%TO.C,REF\u002A\u002A*%
X336650000Y-5890000D03*
%TD*%
D12*
%TO.C,REF\u002A\u002A*%
X453665455Y-81171119D03*
X454075000Y-76490000D03*
X454484545Y-71808881D03*
%TD*%
D13*
%TO.C,REF\u002A\u002A*%
X338250000Y-69950000D03*
%TD*%
%TO.C,REF\u002A\u002A*%
X338250000Y-92950000D03*
%TD*%
%TO.C,REF\u002A\u002A*%
X338250000Y-115950000D03*
%TD*%
%TO.C,REF\u002A\u002A*%
X354920000Y-138540000D03*
%TD*%
%TO.C,REF\u002A\u002A*%
X410920000Y-138540000D03*
%TD*%
%TO.C,REF\u002A\u002A*%
X346850000Y-7270000D03*
%TD*%
%TO.C,REF\u002A\u002A*%
X465520000Y-52870000D03*
%TD*%
%TO.C,REF\u002A\u002A*%
X338250000Y-104450000D03*
%TD*%
%TO.C,REF\u002A\u002A*%
X461440000Y-130370000D03*
%TD*%
D11*
%TO.C,REF\u002A\u002A*%
X439704557Y-73050322D03*
X444625000Y-67390000D03*
%TD*%
D13*
%TO.C,REF\u002A\u002A*%
X392850000Y-7270000D03*
%TD*%
D11*
%TO.C,REF\u002A\u002A*%
X369470000Y-19700000D03*
G36*
G01*
X372803708Y-25592308D02*
X372803708Y-25592308D01*
G75*
G02*
X373962070Y-25913550I418560J-739802D01*
G01*
X373962070Y-25913550D01*
G75*
G02*
X373640828Y-27071912I-739802J-418560D01*
G01*
X373640828Y-27071912D01*
G75*
G02*
X372482466Y-26750670I-418560J739802D01*
G01*
X372482466Y-26750670D01*
G75*
G02*
X372803708Y-25592308I739802J418560D01*
G01*
G37*
%TD*%
D13*
%TO.C,REF\u002A\u002A*%
X465520000Y-121870000D03*
%TD*%
%TO.C,REF\u002A\u002A*%
X338250000Y-58450000D03*
%TD*%
%TO.C,REF\u002A\u002A*%
X399420000Y-138540000D03*
%TD*%
%TO.C,REF\u002A\u002A*%
X465520000Y-18370000D03*
%TD*%
%TO.C,REF\u002A\u002A*%
X437350000Y-7270000D03*
%TD*%
%TO.C,REF\u002A\u002A*%
G36*
G01*
X396243607Y-34085298D02*
X396243607Y-34085298D01*
G75*
G02*
X395812819Y-32963058I345726J776514D01*
G01*
X395812819Y-32963058D01*
G75*
G02*
X396935059Y-32532270I776514J-345726D01*
G01*
X396935059Y-32532270D01*
G75*
G02*
X397365847Y-33654510I-345726J-776514D01*
G01*
X397365847Y-33654510D01*
G75*
G02*
X396243607Y-34085298I-776514J345726D01*
G01*
G37*
D11*
X393490000Y-40270000D03*
%TD*%
%TO.C,REF\u002A\u002A*%
X440520000Y-66600000D03*
G36*
G01*
X434335298Y-63846393D02*
X434335298Y-63846393D01*
G75*
G02*
X433213058Y-64277181I-776514J345726D01*
G01*
X433213058Y-64277181D01*
G75*
G02*
X432782270Y-63154941I345726J776514D01*
G01*
X432782270Y-63154941D01*
G75*
G02*
X433904510Y-62724153I776514J-345726D01*
G01*
X433904510Y-62724153D01*
G75*
G02*
X434335298Y-63846393I-345726J-776514D01*
G01*
G37*
%TD*%
D13*
%TO.C,REF\u002A\u002A*%
X366420000Y-138540000D03*
%TD*%
%TO.C,REF\u002A\u002A*%
X358350000Y-7270000D03*
%TD*%
%TO.C,REF\u002A\u002A*%
X465520000Y-64370000D03*
%TD*%
%TO.C,REF\u002A\u002A*%
X433920000Y-138540000D03*
%TD*%
%TO.C,REF\u002A\u002A*%
X445420000Y-138540000D03*
%TD*%
%TO.C,REF\u002A\u002A*%
X414350000Y-7270000D03*
%TD*%
%TO.C,REF\u002A\u002A*%
X389420000Y-138540000D03*
%TD*%
%TO.C,REF\u002A\u002A*%
X345760000Y-134420000D03*
%TD*%
%TO.C,REF\u002A\u002A*%
X465520000Y-75870000D03*
%TD*%
%TO.C,REF\u002A\u002A*%
X448850000Y-7270000D03*
%TD*%
%TO.C,REF\u002A\u002A*%
X465520000Y-110370000D03*
%TD*%
%TO.C,REF\u002A\u002A*%
X404350000Y-7270000D03*
%TD*%
%TO.C,REF\u002A\u002A*%
X369850000Y-7270000D03*
%TD*%
%TO.C,REF\u002A\u002A*%
X465520000Y-87370000D03*
%TD*%
%TO.C,REF\u002A\u002A*%
X425850000Y-7270000D03*
%TD*%
%TO.C,REF\u002A\u002A*%
X465520000Y-29870000D03*
%TD*%
%TO.C,REF\u002A\u002A*%
X422420000Y-138540000D03*
%TD*%
%TO.C,REF\u002A\u002A*%
X456920000Y-138540000D03*
%TD*%
D14*
%TO.C,REF\u002A\u002A*%
X466700000Y-5890000D03*
%TD*%
D13*
%TO.C,REF\u002A\u002A*%
X465520000Y-41370000D03*
%TD*%
%TO.C,REF\u002A\u002A*%
X381350000Y-7270000D03*
%TD*%
D14*
%TO.C,REF\u002A\u002A*%
X466700000Y-140000000D03*
%TD*%
D13*
%TO.C,REF\u002A\u002A*%
X465520000Y-98870000D03*
%TD*%
%TO.C,REF\u002A\u002A*%
X457520000Y-12050000D03*
%TD*%
%TO.C,REF\u002A\u002A*%
G36*
G01*
X417704696Y-124093556D02*
X417704696Y-124093556D01*
G75*
G02*
X418516811Y-124979823I-37076J-849191D01*
G01*
X418516811Y-124979823D01*
G75*
G02*
X417630544Y-125791938I-849191J37076D01*
G01*
X417630544Y-125791938D01*
G75*
G02*
X416818429Y-124905671I37076J849191D01*
G01*
X416818429Y-124905671D01*
G75*
G02*
X417704696Y-124093556I849191J-37076D01*
G01*
G37*
G36*
G01*
X410424329Y-116148429D02*
X410424329Y-116148429D01*
G75*
G02*
X411236444Y-117034696I-37076J-849191D01*
G01*
X411236444Y-117034696D01*
G75*
G02*
X410350177Y-117846811I-849191J37076D01*
G01*
X410350177Y-117846811D01*
G75*
G02*
X409538062Y-116960544I37076J849191D01*
G01*
X409538062Y-116960544D01*
G75*
G02*
X410424329Y-116148429I849191J-37076D01*
G01*
G37*
G36*
G01*
X415167114Y-123982763D02*
X415167114Y-123982763D01*
G75*
G02*
X415979229Y-124869030I-37076J-849191D01*
G01*
X415979229Y-124869030D01*
G75*
G02*
X415092962Y-125681145I-849191J37076D01*
G01*
X415092962Y-125681145D01*
G75*
G02*
X414280847Y-124794878I37076J849191D01*
G01*
X414280847Y-124794878D01*
G75*
G02*
X415167114Y-123982763I849191J-37076D01*
G01*
G37*
G36*
G01*
X412961911Y-116259223D02*
X412961911Y-116259223D01*
G75*
G02*
X413774026Y-117145490I-37076J-849191D01*
G01*
X413774026Y-117145490D01*
G75*
G02*
X412887759Y-117957605I-849191J37076D01*
G01*
X412887759Y-117957605D01*
G75*
G02*
X412075644Y-117071338I37076J849191D01*
G01*
X412075644Y-117071338D01*
G75*
G02*
X412961911Y-116259223I849191J-37076D01*
G01*
G37*
G36*
G01*
X412629531Y-123871970D02*
X412629531Y-123871970D01*
G75*
G02*
X413441646Y-124758237I-37076J-849191D01*
G01*
X413441646Y-124758237D01*
G75*
G02*
X412555379Y-125570352I-849191J37076D01*
G01*
X412555379Y-125570352D01*
G75*
G02*
X411743264Y-124684085I37076J849191D01*
G01*
X411743264Y-124684085D01*
G75*
G02*
X412629531Y-123871970I849191J-37076D01*
G01*
G37*
G36*
G01*
X415499494Y-116370016D02*
X415499494Y-116370016D01*
G75*
G02*
X416311609Y-117256283I-37076J-849191D01*
G01*
X416311609Y-117256283D01*
G75*
G02*
X415425342Y-118068398I-849191J37076D01*
G01*
X415425342Y-118068398D01*
G75*
G02*
X414613227Y-117182131I37076J849191D01*
G01*
X414613227Y-117182131D01*
G75*
G02*
X415499494Y-116370016I849191J-37076D01*
G01*
G37*
G36*
G01*
X410091949Y-123761177D02*
X410091949Y-123761177D01*
G75*
G02*
X410904064Y-124647444I-37076J-849191D01*
G01*
X410904064Y-124647444D01*
G75*
G02*
X410017797Y-125459559I-849191J37076D01*
G01*
X410017797Y-125459559D01*
G75*
G02*
X409205682Y-124573292I37076J849191D01*
G01*
X409205682Y-124573292D01*
G75*
G02*
X410091949Y-123761177I849191J-37076D01*
G01*
G37*
G36*
G01*
X417237838Y-116445914D02*
X418836315Y-116515705D01*
G75*
G02*
X418884086Y-116567838I-2181J-49952D01*
G01*
X418814295Y-118166315D01*
G75*
G02*
X418762162Y-118214086I-49952J2181D01*
G01*
X417163685Y-118144295D01*
G75*
G02*
X417115914Y-118092162I2181J49952D01*
G01*
X417185705Y-116493685D01*
G75*
G02*
X417237838Y-116445914I49952J-2181D01*
G01*
G37*
%TD*%
D15*
%TO.C,REF\u002A\u002A*%
X413263045Y-67629646D03*
X406474820Y-60841421D03*
D16*
X413404466Y-57164466D03*
X415172233Y-58932233D03*
G36*
G01*
X415631853Y-60664645D02*
X416904645Y-59391853D01*
G75*
G02*
X416975355Y-59391853I35355J-35355D01*
G01*
X418248147Y-60664645D01*
G75*
G02*
X418248147Y-60735355I-35355J-35355D01*
G01*
X416975355Y-62008147D01*
G75*
G02*
X416904645Y-62008147I-35355J35355D01*
G01*
X415631853Y-60735355D01*
G75*
G02*
X415631853Y-60664645I35355J35355D01*
G01*
G37*
%TD*%
%TO.C,REF\u002A\u002A*%
G36*
G01*
X386662162Y-27374086D02*
X385063685Y-27304295D01*
G75*
G02*
X385015914Y-27252162I2181J49952D01*
G01*
X385085705Y-25653685D01*
G75*
G02*
X385137838Y-25605914I49952J-2181D01*
G01*
X386736315Y-25675705D01*
G75*
G02*
X386784086Y-25727838I-2181J-49952D01*
G01*
X386714295Y-27326315D01*
G75*
G02*
X386662162Y-27374086I-49952J2181D01*
G01*
G37*
G36*
G01*
X393808051Y-20058823D02*
X393808051Y-20058823D01*
G75*
G02*
X392995936Y-19172556I37076J849191D01*
G01*
X392995936Y-19172556D01*
G75*
G02*
X393882203Y-18360441I849191J-37076D01*
G01*
X393882203Y-18360441D01*
G75*
G02*
X394694318Y-19246708I-37076J-849191D01*
G01*
X394694318Y-19246708D01*
G75*
G02*
X393808051Y-20058823I-849191J37076D01*
G01*
G37*
G36*
G01*
X388400506Y-27449984D02*
X388400506Y-27449984D01*
G75*
G02*
X387588391Y-26563717I37076J849191D01*
G01*
X387588391Y-26563717D01*
G75*
G02*
X388474658Y-25751602I849191J-37076D01*
G01*
X388474658Y-25751602D01*
G75*
G02*
X389286773Y-26637869I-37076J-849191D01*
G01*
X389286773Y-26637869D01*
G75*
G02*
X388400506Y-27449984I-849191J37076D01*
G01*
G37*
G36*
G01*
X391270469Y-19948030D02*
X391270469Y-19948030D01*
G75*
G02*
X390458354Y-19061763I37076J849191D01*
G01*
X390458354Y-19061763D01*
G75*
G02*
X391344621Y-18249648I849191J-37076D01*
G01*
X391344621Y-18249648D01*
G75*
G02*
X392156736Y-19135915I-37076J-849191D01*
G01*
X392156736Y-19135915D01*
G75*
G02*
X391270469Y-19948030I-849191J37076D01*
G01*
G37*
G36*
G01*
X390938089Y-27560777D02*
X390938089Y-27560777D01*
G75*
G02*
X390125974Y-26674510I37076J849191D01*
G01*
X390125974Y-26674510D01*
G75*
G02*
X391012241Y-25862395I849191J-37076D01*
G01*
X391012241Y-25862395D01*
G75*
G02*
X391824356Y-26748662I-37076J-849191D01*
G01*
X391824356Y-26748662D01*
G75*
G02*
X390938089Y-27560777I-849191J37076D01*
G01*
G37*
G36*
G01*
X388732886Y-19837237D02*
X388732886Y-19837237D01*
G75*
G02*
X387920771Y-18950970I37076J849191D01*
G01*
X387920771Y-18950970D01*
G75*
G02*
X388807038Y-18138855I849191J-37076D01*
G01*
X388807038Y-18138855D01*
G75*
G02*
X389619153Y-19025122I-37076J-849191D01*
G01*
X389619153Y-19025122D01*
G75*
G02*
X388732886Y-19837237I-849191J37076D01*
G01*
G37*
G36*
G01*
X393475671Y-27671571D02*
X393475671Y-27671571D01*
G75*
G02*
X392663556Y-26785304I37076J849191D01*
G01*
X392663556Y-26785304D01*
G75*
G02*
X393549823Y-25973189I849191J-37076D01*
G01*
X393549823Y-25973189D01*
G75*
G02*
X394361938Y-26859456I-37076J-849191D01*
G01*
X394361938Y-26859456D01*
G75*
G02*
X393475671Y-27671571I-849191J37076D01*
G01*
G37*
G36*
G01*
X386195304Y-19726444D02*
X386195304Y-19726444D01*
G75*
G02*
X385383189Y-18840177I37076J849191D01*
G01*
X385383189Y-18840177D01*
G75*
G02*
X386269456Y-18028062I849191J-37076D01*
G01*
X386269456Y-18028062D01*
G75*
G02*
X387081571Y-18914329I-37076J-849191D01*
G01*
X387081571Y-18914329D01*
G75*
G02*
X386195304Y-19726444I-849191J37076D01*
G01*
G37*
%TD*%
D14*
%TO.C,REF\u002A\u002A*%
X336640000Y-140000000D03*
%TD*%
%TO.C,REF\u002A\u002A*%
G36*
G01*
X454173556Y-56135304D02*
X454173556Y-56135304D01*
G75*
G02*
X455059823Y-55323189I849191J-37076D01*
G01*
X455059823Y-55323189D01*
G75*
G02*
X455871938Y-56209456I-37076J-849191D01*
G01*
X455871938Y-56209456D01*
G75*
G02*
X454985671Y-57021571I-849191J37076D01*
G01*
X454985671Y-57021571D01*
G75*
G02*
X454173556Y-56135304I37076J849191D01*
G01*
G37*
G36*
G01*
X446228429Y-63415671D02*
X446228429Y-63415671D01*
G75*
G02*
X447114696Y-62603556I849191J-37076D01*
G01*
X447114696Y-62603556D01*
G75*
G02*
X447926811Y-63489823I-37076J-849191D01*
G01*
X447926811Y-63489823D01*
G75*
G02*
X447040544Y-64301938I-849191J37076D01*
G01*
X447040544Y-64301938D01*
G75*
G02*
X446228429Y-63415671I37076J849191D01*
G01*
G37*
G36*
G01*
X454062763Y-58672886D02*
X454062763Y-58672886D01*
G75*
G02*
X454949030Y-57860771I849191J-37076D01*
G01*
X454949030Y-57860771D01*
G75*
G02*
X455761145Y-58747038I-37076J-849191D01*
G01*
X455761145Y-58747038D01*
G75*
G02*
X454874878Y-59559153I-849191J37076D01*
G01*
X454874878Y-59559153D01*
G75*
G02*
X454062763Y-58672886I37076J849191D01*
G01*
G37*
G36*
G01*
X446339223Y-60878089D02*
X446339223Y-60878089D01*
G75*
G02*
X447225490Y-60065974I849191J-37076D01*
G01*
X447225490Y-60065974D01*
G75*
G02*
X448037605Y-60952241I-37076J-849191D01*
G01*
X448037605Y-60952241D01*
G75*
G02*
X447151338Y-61764356I-849191J37076D01*
G01*
X447151338Y-61764356D01*
G75*
G02*
X446339223Y-60878089I37076J849191D01*
G01*
G37*
G36*
G01*
X453951970Y-61210469D02*
X453951970Y-61210469D01*
G75*
G02*
X454838237Y-60398354I849191J-37076D01*
G01*
X454838237Y-60398354D01*
G75*
G02*
X455650352Y-61284621I-37076J-849191D01*
G01*
X455650352Y-61284621D01*
G75*
G02*
X454764085Y-62096736I-849191J37076D01*
G01*
X454764085Y-62096736D01*
G75*
G02*
X453951970Y-61210469I37076J849191D01*
G01*
G37*
G36*
G01*
X446450016Y-58340506D02*
X446450016Y-58340506D01*
G75*
G02*
X447336283Y-57528391I849191J-37076D01*
G01*
X447336283Y-57528391D01*
G75*
G02*
X448148398Y-58414658I-37076J-849191D01*
G01*
X448148398Y-58414658D01*
G75*
G02*
X447262131Y-59226773I-849191J37076D01*
G01*
X447262131Y-59226773D01*
G75*
G02*
X446450016Y-58340506I37076J849191D01*
G01*
G37*
G36*
G01*
X453841177Y-63748051D02*
X453841177Y-63748051D01*
G75*
G02*
X454727444Y-62935936I849191J-37076D01*
G01*
X454727444Y-62935936D01*
G75*
G02*
X455539559Y-63822203I-37076J-849191D01*
G01*
X455539559Y-63822203D01*
G75*
G02*
X454653292Y-64634318I-849191J37076D01*
G01*
X454653292Y-64634318D01*
G75*
G02*
X453841177Y-63748051I37076J849191D01*
G01*
G37*
G36*
G01*
X446525914Y-56602162D02*
X446595705Y-55003685D01*
G75*
G02*
X446647838Y-54955914I49952J-2181D01*
G01*
X448246315Y-55025705D01*
G75*
G02*
X448294086Y-55077838I-2181J-49952D01*
G01*
X448224295Y-56676315D01*
G75*
G02*
X448172162Y-56724086I-49952J2181D01*
G01*
X446573685Y-56654295D01*
G75*
G02*
X446525914Y-56602162I2181J49952D01*
G01*
G37*
%TD*%
%TO.C,REF\u002A\u002A*%
G36*
G01*
X442783274Y-104284645D02*
X443914645Y-103153274D01*
G75*
G02*
X443985355Y-103153274I35355J-35355D01*
G01*
X445116726Y-104284645D01*
G75*
G02*
X445116726Y-104355355I-35355J-35355D01*
G01*
X443985355Y-105486726D01*
G75*
G02*
X443914645Y-105486726I-35355J35355D01*
G01*
X442783274Y-104355355D01*
G75*
G02*
X442783274Y-104284645I35355J35355D01*
G01*
G37*
G36*
G01*
X437960805Y-119883420D02*
X437960805Y-119883420D01*
G75*
G02*
X439162887Y-119883420I601041J-601041D01*
G01*
X439162887Y-119883420D01*
G75*
G02*
X439162887Y-121085502I-601041J-601041D01*
G01*
X439162887Y-121085502D01*
G75*
G02*
X437960805Y-121085502I-601041J601041D01*
G01*
X437960805Y-121085502D01*
G75*
G02*
X437960805Y-119883420I601041J601041D01*
G01*
G37*
G36*
G01*
X441552908Y-105515010D02*
X441552908Y-105515010D01*
G75*
G02*
X442754990Y-105515010I601041J-601041D01*
G01*
X442754990Y-105515010D01*
G75*
G02*
X442754990Y-106717092I-601041J-601041D01*
G01*
X442754990Y-106717092D01*
G75*
G02*
X441552908Y-106717092I-601041J601041D01*
G01*
X441552908Y-106717092D01*
G75*
G02*
X441552908Y-105515010I601041J601041D01*
G01*
G37*
G36*
G01*
X439756857Y-118087369D02*
X439756857Y-118087369D01*
G75*
G02*
X440958939Y-118087369I601041J-601041D01*
G01*
X440958939Y-118087369D01*
G75*
G02*
X440958939Y-119289451I-601041J-601041D01*
G01*
X440958939Y-119289451D01*
G75*
G02*
X439756857Y-119289451I-601041J601041D01*
G01*
X439756857Y-119289451D01*
G75*
G02*
X439756857Y-118087369I601041J601041D01*
G01*
G37*
G36*
G01*
X439756857Y-107311061D02*
X439756857Y-107311061D01*
G75*
G02*
X440958939Y-107311061I601041J-601041D01*
G01*
X440958939Y-107311061D01*
G75*
G02*
X440958939Y-108513143I-601041J-601041D01*
G01*
X440958939Y-108513143D01*
G75*
G02*
X439756857Y-108513143I-601041J601041D01*
G01*
X439756857Y-108513143D01*
G75*
G02*
X439756857Y-107311061I601041J601041D01*
G01*
G37*
G36*
G01*
X441552908Y-116291318D02*
X441552908Y-116291318D01*
G75*
G02*
X442754990Y-116291318I601041J-601041D01*
G01*
X442754990Y-116291318D01*
G75*
G02*
X442754990Y-117493400I-601041J-601041D01*
G01*
X442754990Y-117493400D01*
G75*
G02*
X441552908Y-117493400I-601041J601041D01*
G01*
X441552908Y-117493400D01*
G75*
G02*
X441552908Y-116291318I601041J601041D01*
G01*
G37*
G36*
G01*
X437960805Y-109107113D02*
X437960805Y-109107113D01*
G75*
G02*
X439162887Y-109107113I601041J-601041D01*
G01*
X439162887Y-109107113D01*
G75*
G02*
X439162887Y-110309195I-601041J-601041D01*
G01*
X439162887Y-110309195D01*
G75*
G02*
X437960805Y-110309195I-601041J601041D01*
G01*
X437960805Y-110309195D01*
G75*
G02*
X437960805Y-109107113I601041J601041D01*
G01*
G37*
G36*
G01*
X443348959Y-114495266D02*
X443348959Y-114495266D01*
G75*
G02*
X444551041Y-114495266I601041J-601041D01*
G01*
X444551041Y-114495266D01*
G75*
G02*
X444551041Y-115697348I-601041J-601041D01*
G01*
X444551041Y-115697348D01*
G75*
G02*
X443348959Y-115697348I-601041J601041D01*
G01*
X443348959Y-115697348D01*
G75*
G02*
X443348959Y-114495266I601041J601041D01*
G01*
G37*
G36*
G01*
X436164754Y-110903164D02*
X436164754Y-110903164D01*
G75*
G02*
X437366836Y-110903164I601041J-601041D01*
G01*
X437366836Y-110903164D01*
G75*
G02*
X437366836Y-112105246I-601041J-601041D01*
G01*
X437366836Y-112105246D01*
G75*
G02*
X436164754Y-112105246I-601041J601041D01*
G01*
X436164754Y-112105246D01*
G75*
G02*
X436164754Y-110903164I601041J601041D01*
G01*
G37*
G36*
G01*
X445145010Y-112699215D02*
X445145010Y-112699215D01*
G75*
G02*
X446347092Y-112699215I601041J-601041D01*
G01*
X446347092Y-112699215D01*
G75*
G02*
X446347092Y-113901297I-601041J-601041D01*
G01*
X446347092Y-113901297D01*
G75*
G02*
X445145010Y-113901297I-601041J601041D01*
G01*
X445145010Y-113901297D01*
G75*
G02*
X445145010Y-112699215I601041J601041D01*
G01*
G37*
G36*
G01*
X434368703Y-112699215D02*
X434368703Y-112699215D01*
G75*
G02*
X435570785Y-112699215I601041J-601041D01*
G01*
X435570785Y-112699215D01*
G75*
G02*
X435570785Y-113901297I-601041J-601041D01*
G01*
X435570785Y-113901297D01*
G75*
G02*
X434368703Y-113901297I-601041J601041D01*
G01*
X434368703Y-113901297D01*
G75*
G02*
X434368703Y-112699215I601041J601041D01*
G01*
G37*
G36*
G01*
X446941061Y-110903164D02*
X446941061Y-110903164D01*
G75*
G02*
X448143143Y-110903164I601041J-601041D01*
G01*
X448143143Y-110903164D01*
G75*
G02*
X448143143Y-112105246I-601041J-601041D01*
G01*
X448143143Y-112105246D01*
G75*
G02*
X446941061Y-112105246I-601041J601041D01*
G01*
X446941061Y-112105246D01*
G75*
G02*
X446941061Y-110903164I601041J601041D01*
G01*
G37*
G36*
G01*
X432572652Y-114495266D02*
X432572652Y-114495266D01*
G75*
G02*
X433774734Y-114495266I601041J-601041D01*
G01*
X433774734Y-114495266D01*
G75*
G02*
X433774734Y-115697348I-601041J-601041D01*
G01*
X433774734Y-115697348D01*
G75*
G02*
X432572652Y-115697348I-601041J601041D01*
G01*
X432572652Y-115697348D01*
G75*
G02*
X432572652Y-114495266I601041J601041D01*
G01*
G37*
G36*
G01*
X448737113Y-109107113D02*
X448737113Y-109107113D01*
G75*
G02*
X449939195Y-109107113I601041J-601041D01*
G01*
X449939195Y-109107113D01*
G75*
G02*
X449939195Y-110309195I-601041J-601041D01*
G01*
X449939195Y-110309195D01*
G75*
G02*
X448737113Y-110309195I-601041J601041D01*
G01*
X448737113Y-110309195D01*
G75*
G02*
X448737113Y-109107113I601041J601041D01*
G01*
G37*
%TD*%
%TO.C,REF\u002A\u002A*%
G36*
G01*
X439247113Y-25102887D02*
X439247113Y-25102887D01*
G75*
G02*
X439247113Y-23900805I601041J601041D01*
G01*
X439247113Y-23900805D01*
G75*
G02*
X440449195Y-23900805I601041J-601041D01*
G01*
X440449195Y-23900805D01*
G75*
G02*
X440449195Y-25102887I-601041J-601041D01*
G01*
X440449195Y-25102887D01*
G75*
G02*
X439247113Y-25102887I-601041J601041D01*
G01*
G37*
G36*
G01*
X444635266Y-41267348D02*
X444635266Y-41267348D01*
G75*
G02*
X444635266Y-40065266I601041J601041D01*
G01*
X444635266Y-40065266D01*
G75*
G02*
X445837348Y-40065266I601041J-601041D01*
G01*
X445837348Y-40065266D01*
G75*
G02*
X445837348Y-41267348I-601041J-601041D01*
G01*
X445837348Y-41267348D01*
G75*
G02*
X444635266Y-41267348I-601041J601041D01*
G01*
G37*
G36*
G01*
X441043164Y-26898939D02*
X441043164Y-26898939D01*
G75*
G02*
X441043164Y-25696857I601041J601041D01*
G01*
X441043164Y-25696857D01*
G75*
G02*
X442245246Y-25696857I601041J-601041D01*
G01*
X442245246Y-25696857D01*
G75*
G02*
X442245246Y-26898939I-601041J-601041D01*
G01*
X442245246Y-26898939D01*
G75*
G02*
X441043164Y-26898939I-601041J601041D01*
G01*
G37*
G36*
G01*
X442839215Y-39471297D02*
X442839215Y-39471297D01*
G75*
G02*
X442839215Y-38269215I601041J601041D01*
G01*
X442839215Y-38269215D01*
G75*
G02*
X444041297Y-38269215I601041J-601041D01*
G01*
X444041297Y-38269215D01*
G75*
G02*
X444041297Y-39471297I-601041J-601041D01*
G01*
X444041297Y-39471297D01*
G75*
G02*
X442839215Y-39471297I-601041J601041D01*
G01*
G37*
G36*
G01*
X442839215Y-28694990D02*
X442839215Y-28694990D01*
G75*
G02*
X442839215Y-27492908I601041J601041D01*
G01*
X442839215Y-27492908D01*
G75*
G02*
X444041297Y-27492908I601041J-601041D01*
G01*
X444041297Y-27492908D01*
G75*
G02*
X444041297Y-28694990I-601041J-601041D01*
G01*
X444041297Y-28694990D01*
G75*
G02*
X442839215Y-28694990I-601041J601041D01*
G01*
G37*
G36*
G01*
X441043164Y-37675246D02*
X441043164Y-37675246D01*
G75*
G02*
X441043164Y-36473164I601041J601041D01*
G01*
X441043164Y-36473164D01*
G75*
G02*
X442245246Y-36473164I601041J-601041D01*
G01*
X442245246Y-36473164D01*
G75*
G02*
X442245246Y-37675246I-601041J-601041D01*
G01*
X442245246Y-37675246D01*
G75*
G02*
X441043164Y-37675246I-601041J601041D01*
G01*
G37*
G36*
G01*
X444635266Y-30491041D02*
X444635266Y-30491041D01*
G75*
G02*
X444635266Y-29288959I601041J601041D01*
G01*
X444635266Y-29288959D01*
G75*
G02*
X445837348Y-29288959I601041J-601041D01*
G01*
X445837348Y-29288959D01*
G75*
G02*
X445837348Y-30491041I-601041J-601041D01*
G01*
X445837348Y-30491041D01*
G75*
G02*
X444635266Y-30491041I-601041J601041D01*
G01*
G37*
G36*
G01*
X439247113Y-35879195D02*
X439247113Y-35879195D01*
G75*
G02*
X439247113Y-34677113I601041J601041D01*
G01*
X439247113Y-34677113D01*
G75*
G02*
X440449195Y-34677113I601041J-601041D01*
G01*
X440449195Y-34677113D01*
G75*
G02*
X440449195Y-35879195I-601041J-601041D01*
G01*
X440449195Y-35879195D01*
G75*
G02*
X439247113Y-35879195I-601041J601041D01*
G01*
G37*
G36*
G01*
X446431318Y-32287092D02*
X446431318Y-32287092D01*
G75*
G02*
X446431318Y-31085010I601041J601041D01*
G01*
X446431318Y-31085010D01*
G75*
G02*
X447633400Y-31085010I601041J-601041D01*
G01*
X447633400Y-31085010D01*
G75*
G02*
X447633400Y-32287092I-601041J-601041D01*
G01*
X447633400Y-32287092D01*
G75*
G02*
X446431318Y-32287092I-601041J601041D01*
G01*
G37*
G36*
G01*
X437451061Y-34083143D02*
X437451061Y-34083143D01*
G75*
G02*
X437451061Y-32881061I601041J601041D01*
G01*
X437451061Y-32881061D01*
G75*
G02*
X438653143Y-32881061I601041J-601041D01*
G01*
X438653143Y-32881061D01*
G75*
G02*
X438653143Y-34083143I-601041J-601041D01*
G01*
X438653143Y-34083143D01*
G75*
G02*
X437451061Y-34083143I-601041J601041D01*
G01*
G37*
G36*
G01*
X448227369Y-34083143D02*
X448227369Y-34083143D01*
G75*
G02*
X448227369Y-32881061I601041J601041D01*
G01*
X448227369Y-32881061D01*
G75*
G02*
X449429451Y-32881061I601041J-601041D01*
G01*
X449429451Y-32881061D01*
G75*
G02*
X449429451Y-34083143I-601041J-601041D01*
G01*
X449429451Y-34083143D01*
G75*
G02*
X448227369Y-34083143I-601041J601041D01*
G01*
G37*
G36*
G01*
X435655010Y-32287092D02*
X435655010Y-32287092D01*
G75*
G02*
X435655010Y-31085010I601041J601041D01*
G01*
X435655010Y-31085010D01*
G75*
G02*
X436857092Y-31085010I601041J-601041D01*
G01*
X436857092Y-31085010D01*
G75*
G02*
X436857092Y-32287092I-601041J-601041D01*
G01*
X436857092Y-32287092D01*
G75*
G02*
X435655010Y-32287092I-601041J601041D01*
G01*
G37*
G36*
G01*
X450023420Y-35879195D02*
X450023420Y-35879195D01*
G75*
G02*
X450023420Y-34677113I601041J601041D01*
G01*
X450023420Y-34677113D01*
G75*
G02*
X451225502Y-34677113I601041J-601041D01*
G01*
X451225502Y-34677113D01*
G75*
G02*
X451225502Y-35879195I-601041J-601041D01*
G01*
X451225502Y-35879195D01*
G75*
G02*
X450023420Y-35879195I-601041J601041D01*
G01*
G37*
G36*
G01*
X434424645Y-31056726D02*
X433293274Y-29925355D01*
G75*
G02*
X433293274Y-29854645I35355J35355D01*
G01*
X434424645Y-28723274D01*
G75*
G02*
X434495355Y-28723274I35355J-35355D01*
G01*
X435626726Y-29854645D01*
G75*
G02*
X435626726Y-29925355I-35355J-35355D01*
G01*
X434495355Y-31056726D01*
G75*
G02*
X434424645Y-31056726I-35355J35355D01*
G01*
G37*
%TD*%
%TO.C,REF\u002A\u002A*%
G36*
G01*
X388378147Y-82955355D02*
X387105355Y-84228147D01*
G75*
G02*
X387034645Y-84228147I-35355J35355D01*
G01*
X385761853Y-82955355D01*
G75*
G02*
X385761853Y-82884645I35355J35355D01*
G01*
X387034645Y-81611853D01*
G75*
G02*
X387105355Y-81611853I35355J-35355D01*
G01*
X388378147Y-82884645D01*
G75*
G02*
X388378147Y-82955355I-35355J-35355D01*
G01*
G37*
D16*
X388837767Y-84687767D03*
X390605534Y-86455534D03*
D15*
X397535180Y-82778579D03*
X390746955Y-75990354D03*
%TD*%
D12*
%TO.C,REF\u002A\u002A*%
X414406119Y-16224545D03*
X409725000Y-15815000D03*
X405043881Y-15405455D03*
%TD*%
%TO.C,REF\u002A\u002A*%
G36*
G01*
X362375660Y-123103112D02*
X362375660Y-123103112D01*
G75*
G02*
X363559479Y-122894373I696279J-487540D01*
G01*
X363559479Y-122894373D01*
G75*
G02*
X363768218Y-124078192I-487540J-696279D01*
G01*
X363768218Y-124078192D01*
G75*
G02*
X362584399Y-124286931I-696279J487540D01*
G01*
X362584399Y-124286931D01*
G75*
G02*
X362375660Y-123103112I487540J696279D01*
G01*
G37*
D11*
X356830000Y-119220000D03*
%TD*%
%TO.C,REF\u002A\u002A*%
X440770000Y-20300000D03*
G36*
G01*
X446315660Y-24183112D02*
X446315660Y-24183112D01*
G75*
G02*
X447499479Y-23974373I696279J-487540D01*
G01*
X447499479Y-23974373D01*
G75*
G02*
X447708218Y-25158192I-487540J-696279D01*
G01*
X447708218Y-25158192D01*
G75*
G02*
X446524399Y-25366931I-696279J487540D01*
G01*
X446524399Y-25366931D01*
G75*
G02*
X446315660Y-24183112I487540J696279D01*
G01*
G37*
%TD*%
%TO.C,REF\u002A\u002A*%
X351860000Y-106110000D03*
G36*
G01*
X346118715Y-109697554D02*
X346118715Y-109697554D01*
G75*
G02*
X345848305Y-110868826I-720841J-450431D01*
G01*
X345848305Y-110868826D01*
G75*
G02*
X344677033Y-110598416I-450431J720841D01*
G01*
X344677033Y-110598416D01*
G75*
G02*
X344947443Y-109427144I720841J450431D01*
G01*
X344947443Y-109427144D01*
G75*
G02*
X346118715Y-109697554I450431J-720841D01*
G01*
G37*
%TD*%
%TO.C,REF\u002A\u002A*%
X373410000Y-126420000D03*
G36*
G01*
X371317955Y-119981347D02*
X371317955Y-119981347D01*
G75*
G02*
X370246893Y-119435613I-262664J808398D01*
G01*
X370246893Y-119435613D01*
G75*
G02*
X370792627Y-118364551I808398J262664D01*
G01*
X370792627Y-118364551D01*
G75*
G02*
X371863689Y-118910285I262664J-808398D01*
G01*
X371863689Y-118910285D01*
G75*
G02*
X371317955Y-119981347I-808398J-262664D01*
G01*
G37*
%TD*%
%TO.C,REF\u002A\u002A*%
G36*
G01*
X368600462Y-34784945D02*
X368600462Y-34784945D01*
G75*
G02*
X367653209Y-35525020I-843664J103589D01*
G01*
X367653209Y-35525020D01*
G75*
G02*
X366913134Y-34577767I103589J843664D01*
G01*
X366913134Y-34577767D01*
G75*
G02*
X367860387Y-33837692I843664J-103589D01*
G01*
X367860387Y-33837692D01*
G75*
G02*
X368600462Y-34784945I-103589J-843664D01*
G01*
G37*
X375320000Y-35610000D03*
%TD*%
%TO.C,REF\u002A\u002A*%
X402706690Y-32501705D03*
X395965735Y-29213921D03*
%TD*%
%TO.C,REF\u002A\u002A*%
X397230000Y-26550000D03*
G36*
G01*
X400197773Y-20465164D02*
X400197773Y-20465164D01*
G75*
G02*
X399806413Y-19328574I372615J763975D01*
G01*
X399806413Y-19328574D01*
G75*
G02*
X400943003Y-18937214I763975J-372615D01*
G01*
X400943003Y-18937214D01*
G75*
G02*
X401334363Y-20073804I-372615J-763975D01*
G01*
X401334363Y-20073804D01*
G75*
G02*
X400197773Y-20465164I-763975J372615D01*
G01*
G37*
%TD*%
%TO.C,REF\u002A\u002A*%
X364760000Y-106120000D03*
G36*
G01*
X365585055Y-99400462D02*
X365585055Y-99400462D01*
G75*
G02*
X364844980Y-98453209I103589J843664D01*
G01*
X364844980Y-98453209D01*
G75*
G02*
X365792233Y-97713134I843664J-103589D01*
G01*
X365792233Y-97713134D01*
G75*
G02*
X366532308Y-98660387I-103589J-843664D01*
G01*
X366532308Y-98660387D01*
G75*
G02*
X365585055Y-99400462I-843664J103589D01*
G01*
G37*
%TD*%
%TO.C,REF\u002A\u002A*%
X440772628Y-122322131D03*
X443225811Y-124818508D03*
%TD*%
%TO.C,REF\u002A\u002A*%
G36*
G01*
X350097087Y-75672342D02*
X350097087Y-75672342D01*
G75*
G02*
X349162894Y-76428837I-845344J88849D01*
G01*
X349162894Y-76428837D01*
G75*
G02*
X348406399Y-75494644I88849J845344D01*
G01*
X348406399Y-75494644D01*
G75*
G02*
X349340592Y-74738149I845344J-88849D01*
G01*
X349340592Y-74738149D01*
G75*
G02*
X350097087Y-75672342I-88849J-845344D01*
G01*
G37*
X356830000Y-76380000D03*
%TD*%
%TO.C,REF\u002A\u002A*%
G36*
G01*
X429227658Y-58482913D02*
X429227658Y-58482913D01*
G75*
G02*
X430161851Y-59239408I88849J-845344D01*
G01*
X430161851Y-59239408D01*
G75*
G02*
X429405356Y-60173601I-845344J-88849D01*
G01*
X429405356Y-60173601D01*
G75*
G02*
X428471163Y-59417106I-88849J845344D01*
G01*
X428471163Y-59417106D01*
G75*
G02*
X429227658Y-58482913I845344J88849D01*
G01*
G37*
X428520000Y-51750000D03*
%TD*%
%TO.C,REF\u002A\u002A*%
G36*
G01*
X349549278Y-94755686D02*
X349549278Y-94755686D01*
G75*
G02*
X348655957Y-95560035I-848835J44486D01*
G01*
X348655957Y-95560035D01*
G75*
G02*
X347851608Y-94666714I44486J848835D01*
G01*
X347851608Y-94666714D01*
G75*
G02*
X348744929Y-93862365I848835J-44486D01*
G01*
X348744929Y-93862365D01*
G75*
G02*
X349549278Y-94755686I-44486J-848835D01*
G01*
G37*
X356310000Y-95110000D03*
%TD*%
%TO.C,REF\u002A\u002A*%
X417780000Y-57400000D03*
G36*
G01*
X423988497Y-60099531D02*
X423988497Y-60099531D01*
G75*
G02*
X425106935Y-59658967I779501J-338937D01*
G01*
X425106935Y-59658967D01*
G75*
G02*
X425547499Y-60777405I-338937J-779501D01*
G01*
X425547499Y-60777405D01*
G75*
G02*
X424429061Y-61217969I-779501J338937D01*
G01*
X424429061Y-61217969D01*
G75*
G02*
X423988497Y-60099531I338937J779501D01*
G01*
G37*
%TD*%
%TO.C,REF\u002A\u002A*%
G36*
G01*
X435279538Y-109075055D02*
X435279538Y-109075055D01*
G75*
G02*
X436226791Y-108334980I843664J-103589D01*
G01*
X436226791Y-108334980D01*
G75*
G02*
X436966866Y-109282233I-103589J-843664D01*
G01*
X436966866Y-109282233D01*
G75*
G02*
X436019613Y-110022308I-843664J103589D01*
G01*
X436019613Y-110022308D01*
G75*
G02*
X435279538Y-109075055I103589J843664D01*
G01*
G37*
X428560000Y-108250000D03*
%TD*%
%TO.C,REF\u002A\u002A*%
G36*
G01*
X416049531Y-88491503D02*
X416049531Y-88491503D01*
G75*
G02*
X415608967Y-87373065I338937J779501D01*
G01*
X415608967Y-87373065D01*
G75*
G02*
X416727405Y-86932501I779501J-338937D01*
G01*
X416727405Y-86932501D01*
G75*
G02*
X417167969Y-88050939I-338937J-779501D01*
G01*
X417167969Y-88050939D01*
G75*
G02*
X416049531Y-88491503I-779501J338937D01*
G01*
G37*
X413350000Y-94700000D03*
%TD*%
D15*
%TO.C,REF\u002A\u002A*%
X397819646Y-60626955D03*
X391031421Y-67415180D03*
D16*
X387354466Y-60485534D03*
X389122233Y-58717767D03*
G36*
G01*
X390854645Y-58258147D02*
X389581853Y-56985355D01*
G75*
G02*
X389581853Y-56914645I35355J35355D01*
G01*
X390854645Y-55641853D01*
G75*
G02*
X390925355Y-55641853I35355J-35355D01*
G01*
X392198147Y-56914645D01*
G75*
G02*
X392198147Y-56985355I-35355J-35355D01*
G01*
X390925355Y-58258147D01*
G75*
G02*
X390854645Y-58258147I-35355J35355D01*
G01*
G37*
%TD*%
D11*
%TO.C,REF\u002A\u002A*%
X439150000Y-37790000D03*
G36*
G01*
X438324945Y-44509538D02*
X438324945Y-44509538D01*
G75*
G02*
X439065020Y-45456791I-103589J-843664D01*
G01*
X439065020Y-45456791D01*
G75*
G02*
X438117767Y-46196866I-843664J103589D01*
G01*
X438117767Y-46196866D01*
G75*
G02*
X437377692Y-45249613I103589J843664D01*
G01*
X437377692Y-45249613D01*
G75*
G02*
X438324945Y-44509538I843664J-103589D01*
G01*
G37*
%TD*%
%TO.C,REF\u002A\u002A*%
X452010000Y-37720000D03*
G36*
G01*
X457751285Y-34132446D02*
X457751285Y-34132446D01*
G75*
G02*
X458021695Y-32961174I720841J450431D01*
G01*
X458021695Y-32961174D01*
G75*
G02*
X459192967Y-33231584I450431J-720841D01*
G01*
X459192967Y-33231584D01*
G75*
G02*
X458922557Y-34402856I-720841J-450431D01*
G01*
X458922557Y-34402856D01*
G75*
G02*
X457751285Y-34132446I-450431J720841D01*
G01*
G37*
%TD*%
%TO.C,REF\u002A\u002A*%
G36*
G01*
X422679930Y-81497163D02*
X422679930Y-81497163D01*
G75*
G02*
X422700909Y-80295264I611439J590460D01*
G01*
X422700909Y-80295264D01*
G75*
G02*
X423902808Y-80316243I590460J-611439D01*
G01*
X423902808Y-80316243D01*
G75*
G02*
X423881829Y-81518142I-611439J-590460D01*
G01*
X423881829Y-81518142D01*
G75*
G02*
X422679930Y-81497163I-590460J611439D01*
G01*
G37*
X417810000Y-86200000D03*
%TD*%
%TO.C,REF\u002A\u002A*%
X418260000Y-69240000D03*
G36*
G01*
X420012205Y-62700682D02*
X420012205Y-62700682D01*
G75*
G02*
X419411164Y-61659649I219996J821037D01*
G01*
X419411164Y-61659649D01*
G75*
G02*
X420452197Y-61058608I821037J-219996D01*
G01*
X420452197Y-61058608D01*
G75*
G02*
X421053238Y-62099641I-219996J-821037D01*
G01*
X421053238Y-62099641D01*
G75*
G02*
X420012205Y-62700682I-821037J219996D01*
G01*
G37*
%TD*%
%TO.C,REF\u002A\u002A*%
G36*
G01*
X439677554Y-127781285D02*
X439677554Y-127781285D01*
G75*
G02*
X440848826Y-128051695I450431J-720841D01*
G01*
X440848826Y-128051695D01*
G75*
G02*
X440578416Y-129222967I-720841J-450431D01*
G01*
X440578416Y-129222967D01*
G75*
G02*
X439407144Y-128952557I-450431J720841D01*
G01*
X439407144Y-128952557D01*
G75*
G02*
X439677554Y-127781285I720841J450431D01*
G01*
G37*
X436090000Y-122040000D03*
%TD*%
%TO.C,REF\u002A\u002A*%
G36*
G01*
X364142446Y-16048715D02*
X364142446Y-16048715D01*
G75*
G02*
X362971174Y-15778305I-450431J720841D01*
G01*
X362971174Y-15778305D01*
G75*
G02*
X363241584Y-14607033I720841J450431D01*
G01*
X363241584Y-14607033D01*
G75*
G02*
X364412856Y-14877443I450431J-720841D01*
G01*
X364412856Y-14877443D01*
G75*
G02*
X364142446Y-16048715I-720841J-450431D01*
G01*
G37*
X367730000Y-21790000D03*
%TD*%
%TO.C,REF\u002A\u002A*%
G36*
G01*
X399169318Y-52492205D02*
X399169318Y-52492205D01*
G75*
G02*
X400210351Y-51891164I821037J-219996D01*
G01*
X400210351Y-51891164D01*
G75*
G02*
X400811392Y-52932197I-219996J-821037D01*
G01*
X400811392Y-52932197D01*
G75*
G02*
X399770359Y-53533238I-821037J219996D01*
G01*
X399770359Y-53533238D01*
G75*
G02*
X399169318Y-52492205I219996J821037D01*
G01*
G37*
X392630000Y-50740000D03*
%TD*%
%TO.C,REF\u002A\u002A*%
X430667732Y-117437890D03*
G36*
G01*
X434001440Y-123330198D02*
X434001440Y-123330198D01*
G75*
G02*
X435159802Y-123651440I418560J-739802D01*
G01*
X435159802Y-123651440D01*
G75*
G02*
X434838560Y-124809802I-739802J-418560D01*
G01*
X434838560Y-124809802D01*
G75*
G02*
X433680198Y-124488560I-418560J739802D01*
G01*
X433680198Y-124488560D01*
G75*
G02*
X434001440Y-123330198I739802J418560D01*
G01*
G37*
%TD*%
%TO.C,REF\u002A\u002A*%
X414600000Y-99260000D03*
G36*
G01*
X421332913Y-98552342D02*
X421332913Y-98552342D01*
G75*
G02*
X422089408Y-97618149I845344J88849D01*
G01*
X422089408Y-97618149D01*
G75*
G02*
X423023601Y-98374644I88849J-845344D01*
G01*
X423023601Y-98374644D01*
G75*
G02*
X422267106Y-99308837I-845344J-88849D01*
G01*
X422267106Y-99308837D01*
G75*
G02*
X421332913Y-98552342I-88849J845344D01*
G01*
G37*
%TD*%
%TO.C,REF\u002A\u002A*%
G36*
G01*
X454350722Y-48994314D02*
X454350722Y-48994314D01*
G75*
G02*
X455244043Y-48189965I848835J-44486D01*
G01*
X455244043Y-48189965D01*
G75*
G02*
X456048392Y-49083286I-44486J-848835D01*
G01*
X456048392Y-49083286D01*
G75*
G02*
X455155071Y-49887635I-848835J44486D01*
G01*
X455155071Y-49887635D01*
G75*
G02*
X454350722Y-48994314I44486J848835D01*
G01*
G37*
X447590000Y-48640000D03*
%TD*%
%TO.C,REF\u002A\u002A*%
X414807044Y-111907347D03*
X411585277Y-113274906D03*
%TD*%
%TO.C,REF\u002A\u002A*%
X452351492Y-33115811D03*
X454847869Y-30662628D03*
%TD*%
%TO.C,REF\u002A\u002A*%
G36*
G01*
X432687129Y-112058736D02*
X432687129Y-112058736D01*
G75*
G02*
X432645177Y-110857386I579699J621651D01*
G01*
X432645177Y-110857386D01*
G75*
G02*
X433846527Y-110815434I621651J-579699D01*
G01*
X433846527Y-110815434D01*
G75*
G02*
X433888479Y-112016784I-579699J-621651D01*
G01*
X433888479Y-112016784D01*
G75*
G02*
X432687129Y-112058736I-621651J579699D01*
G01*
G37*
X428070000Y-117010000D03*
%TD*%
%TO.C,REF\u002A\u002A*%
X356240000Y-91430000D03*
G36*
G01*
X349479278Y-91075686D02*
X349479278Y-91075686D01*
G75*
G02*
X348585957Y-91880035I-848835J44486D01*
G01*
X348585957Y-91880035D01*
G75*
G02*
X347781608Y-90986714I44486J848835D01*
G01*
X347781608Y-90986714D01*
G75*
G02*
X348674929Y-90182365I848835J-44486D01*
G01*
X348674929Y-90182365D01*
G75*
G02*
X349479278Y-91075686I-44486J-848835D01*
G01*
G37*
%TD*%
%TO.C,REF\u002A\u002A*%
G36*
G01*
X422842205Y-63450682D02*
X422842205Y-63450682D01*
G75*
G02*
X422241164Y-62409649I219996J821037D01*
G01*
X422241164Y-62409649D01*
G75*
G02*
X423282197Y-61808608I821037J-219996D01*
G01*
X423282197Y-61808608D01*
G75*
G02*
X423883238Y-62849641I-219996J-821037D01*
G01*
X423883238Y-62849641D01*
G75*
G02*
X422842205Y-63450682I-821037J219996D01*
G01*
G37*
X421090000Y-69990000D03*
%TD*%
%TO.C,REF\u002A\u002A*%
G36*
G01*
X413105355Y-85521853D02*
X414378147Y-86794645D01*
G75*
G02*
X414378147Y-86865355I-35355J-35355D01*
G01*
X413105355Y-88138147D01*
G75*
G02*
X413034645Y-88138147I-35355J35355D01*
G01*
X411761853Y-86865355D01*
G75*
G02*
X411761853Y-86794645I35355J35355D01*
G01*
X413034645Y-85521853D01*
G75*
G02*
X413105355Y-85521853I35355J-35355D01*
G01*
G37*
D16*
X414837767Y-85062233D03*
X416605534Y-83294466D03*
D15*
X412928579Y-76364820D03*
X406140354Y-83153045D03*
%TD*%
D11*
%TO.C,REF\u002A\u002A*%
X386100000Y-86430000D03*
G36*
G01*
X379891503Y-83730469D02*
X379891503Y-83730469D01*
G75*
G02*
X378773065Y-84171033I-779501J338937D01*
G01*
X378773065Y-84171033D01*
G75*
G02*
X378332501Y-83052595I338937J779501D01*
G01*
X378332501Y-83052595D01*
G75*
G02*
X379450939Y-82612031I779501J-338937D01*
G01*
X379450939Y-82612031D01*
G75*
G02*
X379891503Y-83730469I-338937J-779501D01*
G01*
G37*
%TD*%
%TO.C,REF\u002A\u002A*%
G36*
G01*
X375197658Y-91222913D02*
X375197658Y-91222913D01*
G75*
G02*
X376131851Y-91979408I88849J-845344D01*
G01*
X376131851Y-91979408D01*
G75*
G02*
X375375356Y-92913601I-845344J-88849D01*
G01*
X375375356Y-92913601D01*
G75*
G02*
X374441163Y-92157106I-88849J845344D01*
G01*
X374441163Y-92157106D01*
G75*
G02*
X375197658Y-91222913I845344J88849D01*
G01*
G37*
X374490000Y-84490000D03*
%TD*%
%TO.C,REF\u002A\u002A*%
G36*
G01*
X348201347Y-43092045D02*
X348201347Y-43092045D01*
G75*
G02*
X347655613Y-44163107I-808398J-262664D01*
G01*
X347655613Y-44163107D01*
G75*
G02*
X346584551Y-43617373I-262664J808398D01*
G01*
X346584551Y-43617373D01*
G75*
G02*
X347130285Y-42546311I808398J262664D01*
G01*
X347130285Y-42546311D01*
G75*
G02*
X348201347Y-43092045I262664J-808398D01*
G01*
G37*
X354640000Y-41000000D03*
%TD*%
%TO.C,REF\u002A\u002A*%
X389535277Y-32424906D03*
X392757044Y-31057347D03*
%TD*%
%TO.C,REF\u002A\u002A*%
X351518508Y-110644189D03*
X349022131Y-113097372D03*
%TD*%
%TO.C,REF\u002A\u002A*%
X425250000Y-117490000D03*
G36*
G01*
X424895686Y-124250722D02*
X424895686Y-124250722D01*
G75*
G02*
X425700035Y-125144043I-44486J-848835D01*
G01*
X425700035Y-125144043D01*
G75*
G02*
X424806714Y-125948392I-848835J44486D01*
G01*
X424806714Y-125948392D01*
G75*
G02*
X424002365Y-125055071I44486J848835D01*
G01*
X424002365Y-125055071D01*
G75*
G02*
X424895686Y-124250722I848835J-44486D01*
G01*
G37*
%TD*%
%TO.C,REF\u002A\u002A*%
X363217372Y-21497869D03*
X360764189Y-19001492D03*
%TD*%
%TO.C,REF\u002A\u002A*%
X407020000Y-116970000D03*
G36*
G01*
X406312342Y-123702913D02*
X406312342Y-123702913D01*
G75*
G02*
X407068837Y-124637106I-88849J-845344D01*
G01*
X407068837Y-124637106D01*
G75*
G02*
X406134644Y-125393601I-845344J88849D01*
G01*
X406134644Y-125393601D01*
G75*
G02*
X405378149Y-124459408I88849J845344D01*
G01*
X405378149Y-124459408D01*
G75*
G02*
X406312342Y-123702913I845344J-88849D01*
G01*
G37*
%TD*%
%TO.C,REF\u002A\u002A*%
X449320000Y-116960000D03*
G36*
G01*
X453056614Y-111314593D02*
X453056614Y-111314593D01*
G75*
G02*
X452816957Y-110136644I469146J708803D01*
G01*
X452816957Y-110136644D01*
G75*
G02*
X453994906Y-109896987I708803J-469146D01*
G01*
X453994906Y-109896987D01*
G75*
G02*
X454234563Y-111074936I-469146J-708803D01*
G01*
X454234563Y-111074936D01*
G75*
G02*
X453056614Y-111314593I-708803J469146D01*
G01*
G37*
%TD*%
%TO.C,REF\u002A\u002A*%
X378640000Y-26280000D03*
G36*
G01*
X378994314Y-19519278D02*
X378994314Y-19519278D01*
G75*
G02*
X378189965Y-18625957I44486J848835D01*
G01*
X378189965Y-18625957D01*
G75*
G02*
X379083286Y-17821608I848835J-44486D01*
G01*
X379083286Y-17821608D01*
G75*
G02*
X379887635Y-18714929I-44486J-848835D01*
G01*
X379887635Y-18714929D01*
G75*
G02*
X378994314Y-19519278I-848835J44486D01*
G01*
G37*
%TD*%
D17*
%TO.C,REF\u002A\u002A*%
X423479594Y-93873111D03*
X425800000Y-92840000D03*
G36*
G01*
X422169738Y-95332006D02*
X420799419Y-95942111D01*
G75*
G02*
X420733405Y-95916771I-20337J45677D01*
G01*
X420123300Y-94546452D01*
G75*
G02*
X420148640Y-94480438I45677J20337D01*
G01*
X421518959Y-93870333D01*
G75*
G02*
X421584973Y-93895673I20337J-45677D01*
G01*
X422195078Y-95265992D01*
G75*
G02*
X422169738Y-95332006I-45677J-20337D01*
G01*
G37*
%TD*%
%TO.C,REF\u002A\u002A*%
X417033116Y-104180646D03*
X415576232Y-106261292D03*
G36*
G01*
X417404496Y-102255503D02*
X418264860Y-101026775D01*
G75*
G02*
X418334497Y-101014496I40958J-28679D01*
G01*
X419563225Y-101874860D01*
G75*
G02*
X419575504Y-101944497I-28679J-40958D01*
G01*
X418715140Y-103173225D01*
G75*
G02*
X418645503Y-103185504I-40958J28679D01*
G01*
X417416775Y-102325140D01*
G75*
G02*
X417404496Y-102255503I28679J40958D01*
G01*
G37*
%TD*%
%TO.C,REF\u002A\u002A*%
X386906884Y-39559354D03*
X388363768Y-37478708D03*
G36*
G01*
X386535504Y-41484497D02*
X385675140Y-42713225D01*
G75*
G02*
X385605503Y-42725504I-40958J28679D01*
G01*
X384376775Y-41865140D01*
G75*
G02*
X384364496Y-41795503I28679J40958D01*
G01*
X385224860Y-40566775D01*
G75*
G02*
X385294497Y-40554496I40958J-28679D01*
G01*
X386523225Y-41414860D01*
G75*
G02*
X386535504Y-41484497I-28679J-40958D01*
G01*
G37*
%TD*%
%TO.C,REF\u002A\u002A*%
G36*
G01*
X453802913Y-68077658D02*
X453802913Y-68077658D01*
G75*
G02*
X454737106Y-67321163I845344J-88849D01*
G01*
X454737106Y-67321163D01*
G75*
G02*
X455493601Y-68255356I-88849J-845344D01*
G01*
X455493601Y-68255356D01*
G75*
G02*
X454559408Y-69011851I-845344J88849D01*
G01*
X454559408Y-69011851D01*
G75*
G02*
X453802913Y-68077658I88849J845344D01*
G01*
G37*
D11*
X447070000Y-67370000D03*
%TD*%
%TO.C,REF\u002A\u002A*%
X409830000Y-127220000D03*
D10*
X417450000Y-127220000D03*
%TD*%
%TO.C,REF\u002A\u002A*%
G36*
G01*
X383837795Y-81049318D02*
X383837795Y-81049318D01*
G75*
G02*
X384438836Y-82090351I-219996J-821037D01*
G01*
X384438836Y-82090351D01*
G75*
G02*
X383397803Y-82691392I-821037J219996D01*
G01*
X383397803Y-82691392D01*
G75*
G02*
X382796762Y-81650359I219996J821037D01*
G01*
X382796762Y-81650359D01*
G75*
G02*
X383837795Y-81049318I821037J-219996D01*
G01*
G37*
D11*
X385590000Y-74510000D03*
%TD*%
%TO.C,REF\u002A\u002A*%
X411210000Y-93090000D03*
G36*
G01*
X404670682Y-91337795D02*
X404670682Y-91337795D01*
G75*
G02*
X403629649Y-91938836I-821037J219996D01*
G01*
X403629649Y-91938836D01*
G75*
G02*
X403028608Y-90897803I219996J821037D01*
G01*
X403028608Y-90897803D01*
G75*
G02*
X404069641Y-90296762I821037J-219996D01*
G01*
X404069641Y-90296762D01*
G75*
G02*
X404670682Y-91337795I-219996J-821037D01*
G01*
G37*
%TD*%
%TO.C,REF\u002A\u002A*%
G36*
G01*
X432365503Y-56375504D02*
X431136775Y-55515140D01*
G75*
G02*
X431124496Y-55445503I28679J40958D01*
G01*
X431984860Y-54216775D01*
G75*
G02*
X432054497Y-54204496I40958J-28679D01*
G01*
X433283225Y-55064860D01*
G75*
G02*
X433295504Y-55134497I-28679J-40958D01*
G01*
X432435140Y-56363225D01*
G75*
G02*
X432365503Y-56375504I-40958J28679D01*
G01*
G37*
D17*
X436371292Y-58203768D03*
X434290646Y-56746884D03*
%TD*%
D11*
%TO.C,REF\u002A\u002A*%
X447660000Y-52320000D03*
G36*
G01*
X454420722Y-52674314D02*
X454420722Y-52674314D01*
G75*
G02*
X455314043Y-51869965I848835J-44486D01*
G01*
X455314043Y-51869965D01*
G75*
G02*
X456118392Y-52763286I-44486J-848835D01*
G01*
X456118392Y-52763286D01*
G75*
G02*
X455225071Y-53567635I-848835J44486D01*
G01*
X455225071Y-53567635D01*
G75*
G02*
X454420722Y-52674314I44486J848835D01*
G01*
G37*
%TD*%
%TO.C,REF\u002A\u002A*%
X442310000Y-120310000D03*
G36*
G01*
X447097113Y-115522887D02*
X447097113Y-115522887D01*
G75*
G02*
X447097113Y-114320805I601041J601041D01*
G01*
X447097113Y-114320805D01*
G75*
G02*
X448299195Y-114320805I601041J-601041D01*
G01*
X448299195Y-114320805D01*
G75*
G02*
X448299195Y-115522887I-601041J-601041D01*
G01*
X448299195Y-115522887D01*
G75*
G02*
X447097113Y-115522887I-601041J601041D01*
G01*
G37*
%TD*%
%TO.C,REF\u002A\u002A*%
G36*
G01*
X354244571Y-27420665D02*
X354244571Y-27420665D01*
G75*
G02*
X354025509Y-26238713I481445J700507D01*
G01*
X354025509Y-26238713D01*
G75*
G02*
X355207461Y-26019651I700507J-481445D01*
G01*
X355207461Y-26019651D01*
G75*
G02*
X355426523Y-27201603I-481445J-700507D01*
G01*
X355426523Y-27201603D01*
G75*
G02*
X354244571Y-27420665I-700507J481445D01*
G01*
G37*
X350410000Y-33000000D03*
%TD*%
%TO.C,REF\u002A\u002A*%
G36*
G01*
X412947946Y-99913636D02*
X414062664Y-100917332D01*
G75*
G02*
X414066364Y-100987946I-33457J-37157D01*
G01*
X413062668Y-102102664D01*
G75*
G02*
X412992054Y-102106364I-37157J33457D01*
G01*
X411877336Y-101102668D01*
G75*
G02*
X411873636Y-101032054I33457J37157D01*
G01*
X412877332Y-99917336D01*
G75*
G02*
X412947946Y-99913636I37157J-33457D01*
G01*
G37*
D17*
X409194824Y-97610817D03*
X411082412Y-99310408D03*
%TD*%
%TO.C,REF\u002A\u002A*%
X368407025Y-92425097D03*
X366914051Y-90370194D03*
G36*
G01*
X370106375Y-93403009D02*
X370988053Y-94616535D01*
G75*
G02*
X370976991Y-94686375I-40451J-29389D01*
G01*
X369763465Y-95568053D01*
G75*
G02*
X369693625Y-95556991I-29389J40451D01*
G01*
X368811947Y-94343465D01*
G75*
G02*
X368823009Y-94273625I40451J29389D01*
G01*
X370036535Y-93391947D01*
G75*
G02*
X370106375Y-93403009I29389J-40451D01*
G01*
G37*
%TD*%
D16*
%TO.C,REF\u002A\u002A*%
X421050000Y-115240000D03*
G36*
G01*
X420150000Y-111750000D02*
X421950000Y-111750000D01*
G75*
G02*
X422000000Y-111800000I0J-50000D01*
G01*
X422000000Y-113600000D01*
G75*
G02*
X421950000Y-113650000I-50000J0D01*
G01*
X420150000Y-113650000D01*
G75*
G02*
X420100000Y-113600000I0J50000D01*
G01*
X420100000Y-111800000D01*
G75*
G02*
X420150000Y-111750000I50000J0D01*
G01*
G37*
%TD*%
%TO.C,REF\u002A\u002A*%
G36*
G01*
X380466991Y-39976375D02*
X379253465Y-40858053D01*
G75*
G02*
X379183625Y-40846991I-29389J40451D01*
G01*
X378301947Y-39633465D01*
G75*
G02*
X378313009Y-39563625I40451J29389D01*
G01*
X379526535Y-38681947D01*
G75*
G02*
X379596375Y-38693009I29389J-40451D01*
G01*
X380478053Y-39906535D01*
G75*
G02*
X380466991Y-39976375I-40451J-29389D01*
G01*
G37*
D17*
X383499806Y-36784051D03*
X381444903Y-38277025D03*
%TD*%
%TO.C,REF\u002A\u002A*%
X426646884Y-112569354D03*
X428103768Y-110488708D03*
G36*
G01*
X426275504Y-114494497D02*
X425415140Y-115723225D01*
G75*
G02*
X425345503Y-115735504I-40958J28679D01*
G01*
X424116775Y-114875140D01*
G75*
G02*
X424104496Y-114805503I28679J40958D01*
G01*
X424964860Y-113576775D01*
G75*
G02*
X425034497Y-113564496I40958J-28679D01*
G01*
X426263225Y-114424860D01*
G75*
G02*
X426275504Y-114494497I-28679J-40958D01*
G01*
G37*
%TD*%
D11*
%TO.C,REF\u002A\u002A*%
X389300000Y-44490000D03*
G36*
G01*
X382567087Y-45197658D02*
X382567087Y-45197658D01*
G75*
G02*
X381810592Y-46131851I-845344J-88849D01*
G01*
X381810592Y-46131851D01*
G75*
G02*
X380876399Y-45375356I-88849J845344D01*
G01*
X380876399Y-45375356D01*
G75*
G02*
X381632894Y-44441163I845344J88849D01*
G01*
X381632894Y-44441163D01*
G75*
G02*
X382567087Y-45197658I88849J-845344D01*
G01*
G37*
%TD*%
D17*
%TO.C,REF\u002A\u002A*%
X435572975Y-51284903D03*
X437065949Y-53339806D03*
G36*
G01*
X433873625Y-50306991D02*
X432991947Y-49093465D01*
G75*
G02*
X433003009Y-49023625I40451J29389D01*
G01*
X434216535Y-48141947D01*
G75*
G02*
X434286375Y-48153009I29389J-40451D01*
G01*
X435168053Y-49366535D01*
G75*
G02*
X435156991Y-49436375I-40451J-29389D01*
G01*
X433943465Y-50318053D01*
G75*
G02*
X433873625Y-50306991I-29389J40451D01*
G01*
G37*
%TD*%
%TO.C,REF\u002A\u002A*%
G36*
G01*
X378517994Y-92089738D02*
X377907889Y-90719419D01*
G75*
G02*
X377933229Y-90653405I45677J20337D01*
G01*
X379303548Y-90043300D01*
G75*
G02*
X379369562Y-90068640I20337J-45677D01*
G01*
X379979667Y-91438959D01*
G75*
G02*
X379954327Y-91504973I-45677J-20337D01*
G01*
X378584008Y-92115078D01*
G75*
G02*
X378517994Y-92089738I-20337J45677D01*
G01*
G37*
X381010000Y-95720000D03*
X379976889Y-93399594D03*
%TD*%
%TO.C,REF\u002A\u002A*%
G36*
G01*
X407646393Y-109634702D02*
X407646393Y-109634702D01*
G75*
G02*
X408077181Y-110756942I-345726J-776514D01*
G01*
X408077181Y-110756942D01*
G75*
G02*
X406954941Y-111187730I-776514J345726D01*
G01*
X406954941Y-111187730D01*
G75*
G02*
X406524153Y-110065490I345726J776514D01*
G01*
X406524153Y-110065490D01*
G75*
G02*
X407646393Y-109634702I776514J-345726D01*
G01*
G37*
D11*
X410400000Y-103450000D03*
%TD*%
%TO.C,REF\u002A\u002A*%
X416320000Y-56000000D03*
G36*
G01*
X411617163Y-51130070D02*
X411617163Y-51130070D01*
G75*
G02*
X410415264Y-51109091I-590460J611439D01*
G01*
X410415264Y-51109091D01*
G75*
G02*
X410436243Y-49907192I611439J590460D01*
G01*
X410436243Y-49907192D01*
G75*
G02*
X411638142Y-49928171I590460J-611439D01*
G01*
X411638142Y-49928171D01*
G75*
G02*
X411617163Y-51130070I-611439J-590460D01*
G01*
G37*
%TD*%
%TO.C,REF\u002A\u002A*%
G36*
G01*
X421215686Y-124320722D02*
X421215686Y-124320722D01*
G75*
G02*
X422020035Y-125214043I-44486J-848835D01*
G01*
X422020035Y-125214043D01*
G75*
G02*
X421126714Y-126018392I-848835J44486D01*
G01*
X421126714Y-126018392D01*
G75*
G02*
X420322365Y-125125071I44486J848835D01*
G01*
X420322365Y-125125071D01*
G75*
G02*
X421215686Y-124320722I848835J-44486D01*
G01*
G37*
X421570000Y-117560000D03*
%TD*%
%TO.C,REF\u002A\u002A*%
G36*
G01*
X382674314Y-19449278D02*
X382674314Y-19449278D01*
G75*
G02*
X381869965Y-18555957I44486J848835D01*
G01*
X381869965Y-18555957D01*
G75*
G02*
X382763286Y-17751608I848835J-44486D01*
G01*
X382763286Y-17751608D01*
G75*
G02*
X383567635Y-18644929I-44486J-848835D01*
G01*
X383567635Y-18644929D01*
G75*
G02*
X382674314Y-19449278I-848835J44486D01*
G01*
G37*
X382320000Y-26210000D03*
%TD*%
%TO.C,REF\u002A\u002A*%
X387600000Y-87800000D03*
G36*
G01*
X392302837Y-92669930D02*
X392302837Y-92669930D01*
G75*
G02*
X393504736Y-92690909I590460J-611439D01*
G01*
X393504736Y-92690909D01*
G75*
G02*
X393483757Y-93892808I-611439J-590460D01*
G01*
X393483757Y-93892808D01*
G75*
G02*
X392281858Y-93871829I-590460J611439D01*
G01*
X392281858Y-93871829D01*
G75*
G02*
X392302837Y-92669930I611439J590460D01*
G01*
G37*
%TD*%
%TO.C,REF\u002A\u002A*%
G36*
G01*
X423473009Y-103763625D02*
X424686535Y-102881947D01*
G75*
G02*
X424756375Y-102893009I29389J-40451D01*
G01*
X425638053Y-104106535D01*
G75*
G02*
X425626991Y-104176375I-40451J-29389D01*
G01*
X424413465Y-105058053D01*
G75*
G02*
X424343625Y-105046991I-29389J40451D01*
G01*
X423461947Y-103833465D01*
G75*
G02*
X423473009Y-103763625I40451J29389D01*
G01*
G37*
D17*
X420440194Y-106955949D03*
X422495097Y-105462975D03*
%TD*%
%TO.C,REF\u002A\u002A*%
G36*
G01*
X405390682Y-88467795D02*
X405390682Y-88467795D01*
G75*
G02*
X404349649Y-89068836I-821037J219996D01*
G01*
X404349649Y-89068836D01*
G75*
G02*
X403748608Y-88027803I219996J821037D01*
G01*
X403748608Y-88027803D01*
G75*
G02*
X404789641Y-87426762I821037J-219996D01*
G01*
X404789641Y-87426762D01*
G75*
G02*
X405390682Y-88467795I-219996J-821037D01*
G01*
G37*
D11*
X411930000Y-90220000D03*
%TD*%
%TO.C,REF\u002A\u002A*%
G36*
G01*
X406483848Y-55676788D02*
X404984077Y-55702967D01*
G75*
G02*
X404933212Y-55653848I-873J49992D01*
G01*
X404907033Y-54154077D01*
G75*
G02*
X404956152Y-54103212I49992J873D01*
G01*
X406455923Y-54077033D01*
G75*
G02*
X406506788Y-54126152I873J-49992D01*
G01*
X406532967Y-55625923D01*
G75*
G02*
X406483848Y-55676788I-49992J-873D01*
G01*
G37*
D17*
X410799226Y-54801342D03*
X408259613Y-54845671D03*
%TD*%
%TO.C,REF\u002A\u002A*%
G36*
G01*
X381160070Y-62252837D02*
X381160070Y-62252837D01*
G75*
G02*
X381139091Y-63454736I-611439J-590460D01*
G01*
X381139091Y-63454736D01*
G75*
G02*
X379937192Y-63433757I-590460J611439D01*
G01*
X379937192Y-63433757D01*
G75*
G02*
X379958171Y-62231858I611439J590460D01*
G01*
X379958171Y-62231858D01*
G75*
G02*
X381160070Y-62252837I590460J-611439D01*
G01*
G37*
D11*
X386030000Y-57550000D03*
%TD*%
%TO.C,REF\u002A\u002A*%
X382700000Y-73800000D03*
G36*
G01*
X380947795Y-80339318D02*
X380947795Y-80339318D01*
G75*
G02*
X381548836Y-81380351I-219996J-821037D01*
G01*
X381548836Y-81380351D01*
G75*
G02*
X380507803Y-81981392I-821037J219996D01*
G01*
X380507803Y-81981392D01*
G75*
G02*
X379906762Y-80940359I219996J821037D01*
G01*
X379906762Y-80940359D01*
G75*
G02*
X380947795Y-80339318I821037J-219996D01*
G01*
G37*
%TD*%
D16*
%TO.C,REF\u002A\u002A*%
X382920000Y-28620000D03*
G36*
G01*
X383820000Y-32110000D02*
X382020000Y-32110000D01*
G75*
G02*
X381970000Y-32060000I0J50000D01*
G01*
X381970000Y-30260000D01*
G75*
G02*
X382020000Y-30210000I50000J0D01*
G01*
X383820000Y-30210000D01*
G75*
G02*
X383870000Y-30260000I0J-50000D01*
G01*
X383870000Y-32060000D01*
G75*
G02*
X383820000Y-32110000I-50000J0D01*
G01*
G37*
%TD*%
%TO.C,REF\u002A\u002A*%
G36*
G01*
X455658653Y-100707955D02*
X455658653Y-100707955D01*
G75*
G02*
X456204387Y-99636893I808398J262664D01*
G01*
X456204387Y-99636893D01*
G75*
G02*
X457275449Y-100182627I262664J-808398D01*
G01*
X457275449Y-100182627D01*
G75*
G02*
X456729715Y-101253689I-808398J-262664D01*
G01*
X456729715Y-101253689D01*
G75*
G02*
X455658653Y-100707955I-262664J808398D01*
G01*
G37*
D11*
X449220000Y-102800000D03*
%TD*%
%TO.C,REF\u002A\u002A*%
G36*
G01*
X357354086Y-87147838D02*
X357284295Y-88746315D01*
G75*
G02*
X357232162Y-88794086I-49952J2181D01*
G01*
X355633685Y-88724295D01*
G75*
G02*
X355585914Y-88672162I2181J49952D01*
G01*
X355655705Y-87073685D01*
G75*
G02*
X355707838Y-87025914I49952J-2181D01*
G01*
X357306315Y-87095705D01*
G75*
G02*
X357354086Y-87147838I-2181J-49952D01*
G01*
G37*
G36*
G01*
X350038823Y-80001949D02*
X350038823Y-80001949D01*
G75*
G02*
X349152556Y-80814064I-849191J37076D01*
G01*
X349152556Y-80814064D01*
G75*
G02*
X348340441Y-79927797I37076J849191D01*
G01*
X348340441Y-79927797D01*
G75*
G02*
X349226708Y-79115682I849191J-37076D01*
G01*
X349226708Y-79115682D01*
G75*
G02*
X350038823Y-80001949I-37076J-849191D01*
G01*
G37*
G36*
G01*
X357429984Y-85409494D02*
X357429984Y-85409494D01*
G75*
G02*
X356543717Y-86221609I-849191J37076D01*
G01*
X356543717Y-86221609D01*
G75*
G02*
X355731602Y-85335342I37076J849191D01*
G01*
X355731602Y-85335342D01*
G75*
G02*
X356617869Y-84523227I849191J-37076D01*
G01*
X356617869Y-84523227D01*
G75*
G02*
X357429984Y-85409494I-37076J-849191D01*
G01*
G37*
G36*
G01*
X349928030Y-82539531D02*
X349928030Y-82539531D01*
G75*
G02*
X349041763Y-83351646I-849191J37076D01*
G01*
X349041763Y-83351646D01*
G75*
G02*
X348229648Y-82465379I37076J849191D01*
G01*
X348229648Y-82465379D01*
G75*
G02*
X349115915Y-81653264I849191J-37076D01*
G01*
X349115915Y-81653264D01*
G75*
G02*
X349928030Y-82539531I-37076J-849191D01*
G01*
G37*
G36*
G01*
X357540777Y-82871911D02*
X357540777Y-82871911D01*
G75*
G02*
X356654510Y-83684026I-849191J37076D01*
G01*
X356654510Y-83684026D01*
G75*
G02*
X355842395Y-82797759I37076J849191D01*
G01*
X355842395Y-82797759D01*
G75*
G02*
X356728662Y-81985644I849191J-37076D01*
G01*
X356728662Y-81985644D01*
G75*
G02*
X357540777Y-82871911I-37076J-849191D01*
G01*
G37*
G36*
G01*
X349817237Y-85077114D02*
X349817237Y-85077114D01*
G75*
G02*
X348930970Y-85889229I-849191J37076D01*
G01*
X348930970Y-85889229D01*
G75*
G02*
X348118855Y-85002962I37076J849191D01*
G01*
X348118855Y-85002962D01*
G75*
G02*
X349005122Y-84190847I849191J-37076D01*
G01*
X349005122Y-84190847D01*
G75*
G02*
X349817237Y-85077114I-37076J-849191D01*
G01*
G37*
G36*
G01*
X357651571Y-80334329D02*
X357651571Y-80334329D01*
G75*
G02*
X356765304Y-81146444I-849191J37076D01*
G01*
X356765304Y-81146444D01*
G75*
G02*
X355953189Y-80260177I37076J849191D01*
G01*
X355953189Y-80260177D01*
G75*
G02*
X356839456Y-79448062I849191J-37076D01*
G01*
X356839456Y-79448062D01*
G75*
G02*
X357651571Y-80334329I-37076J-849191D01*
G01*
G37*
G36*
G01*
X349706444Y-87614696D02*
X349706444Y-87614696D01*
G75*
G02*
X348820177Y-88426811I-849191J37076D01*
G01*
X348820177Y-88426811D01*
G75*
G02*
X348008062Y-87540544I37076J849191D01*
G01*
X348008062Y-87540544D01*
G75*
G02*
X348894329Y-86728429I849191J-37076D01*
G01*
X348894329Y-86728429D01*
G75*
G02*
X349706444Y-87614696I-37076J-849191D01*
G01*
G37*
%TD*%
%TO.C,REF\u002A\u002A*%
G36*
G01*
X425412006Y-51650262D02*
X426022111Y-53020581D01*
G75*
G02*
X425996771Y-53086595I-45677J-20337D01*
G01*
X424626452Y-53696700D01*
G75*
G02*
X424560438Y-53671360I-20337J45677D01*
G01*
X423950333Y-52301041D01*
G75*
G02*
X423975673Y-52235027I45677J20337D01*
G01*
X425345992Y-51624922D01*
G75*
G02*
X425412006Y-51650262I20337J-45677D01*
G01*
G37*
D17*
X422920000Y-48020000D03*
X423953111Y-50340406D03*
%TD*%
%TO.C,REF\u002A\u002A*%
G36*
G01*
X364672887Y-118647113D02*
X364672887Y-118647113D01*
G75*
G02*
X364672887Y-119849195I-601041J-601041D01*
G01*
X364672887Y-119849195D01*
G75*
G02*
X363470805Y-119849195I-601041J601041D01*
G01*
X363470805Y-119849195D01*
G75*
G02*
X363470805Y-118647113I601041J601041D01*
G01*
X363470805Y-118647113D01*
G75*
G02*
X364672887Y-118647113I601041J-601041D01*
G01*
G37*
G36*
G01*
X359284734Y-102482652D02*
X359284734Y-102482652D01*
G75*
G02*
X359284734Y-103684734I-601041J-601041D01*
G01*
X359284734Y-103684734D01*
G75*
G02*
X358082652Y-103684734I-601041J601041D01*
G01*
X358082652Y-103684734D01*
G75*
G02*
X358082652Y-102482652I601041J601041D01*
G01*
X358082652Y-102482652D01*
G75*
G02*
X359284734Y-102482652I601041J-601041D01*
G01*
G37*
G36*
G01*
X362876836Y-116851061D02*
X362876836Y-116851061D01*
G75*
G02*
X362876836Y-118053143I-601041J-601041D01*
G01*
X362876836Y-118053143D01*
G75*
G02*
X361674754Y-118053143I-601041J601041D01*
G01*
X361674754Y-118053143D01*
G75*
G02*
X361674754Y-116851061I601041J601041D01*
G01*
X361674754Y-116851061D01*
G75*
G02*
X362876836Y-116851061I601041J-601041D01*
G01*
G37*
G36*
G01*
X361080785Y-104278703D02*
X361080785Y-104278703D01*
G75*
G02*
X361080785Y-105480785I-601041J-601041D01*
G01*
X361080785Y-105480785D01*
G75*
G02*
X359878703Y-105480785I-601041J601041D01*
G01*
X359878703Y-105480785D01*
G75*
G02*
X359878703Y-104278703I601041J601041D01*
G01*
X359878703Y-104278703D01*
G75*
G02*
X361080785Y-104278703I601041J-601041D01*
G01*
G37*
G36*
G01*
X361080785Y-115055010D02*
X361080785Y-115055010D01*
G75*
G02*
X361080785Y-116257092I-601041J-601041D01*
G01*
X361080785Y-116257092D01*
G75*
G02*
X359878703Y-116257092I-601041J601041D01*
G01*
X359878703Y-116257092D01*
G75*
G02*
X359878703Y-115055010I601041J601041D01*
G01*
X359878703Y-115055010D01*
G75*
G02*
X361080785Y-115055010I601041J-601041D01*
G01*
G37*
G36*
G01*
X362876836Y-106074754D02*
X362876836Y-106074754D01*
G75*
G02*
X362876836Y-107276836I-601041J-601041D01*
G01*
X362876836Y-107276836D01*
G75*
G02*
X361674754Y-107276836I-601041J601041D01*
G01*
X361674754Y-107276836D01*
G75*
G02*
X361674754Y-106074754I601041J601041D01*
G01*
X361674754Y-106074754D01*
G75*
G02*
X362876836Y-106074754I601041J-601041D01*
G01*
G37*
G36*
G01*
X359284734Y-113258959D02*
X359284734Y-113258959D01*
G75*
G02*
X359284734Y-114461041I-601041J-601041D01*
G01*
X359284734Y-114461041D01*
G75*
G02*
X358082652Y-114461041I-601041J601041D01*
G01*
X358082652Y-114461041D01*
G75*
G02*
X358082652Y-113258959I601041J601041D01*
G01*
X358082652Y-113258959D01*
G75*
G02*
X359284734Y-113258959I601041J-601041D01*
G01*
G37*
G36*
G01*
X364672887Y-107870805D02*
X364672887Y-107870805D01*
G75*
G02*
X364672887Y-109072887I-601041J-601041D01*
G01*
X364672887Y-109072887D01*
G75*
G02*
X363470805Y-109072887I-601041J601041D01*
G01*
X363470805Y-109072887D01*
G75*
G02*
X363470805Y-107870805I601041J601041D01*
G01*
X363470805Y-107870805D01*
G75*
G02*
X364672887Y-107870805I601041J-601041D01*
G01*
G37*
G36*
G01*
X357488682Y-111462908D02*
X357488682Y-111462908D01*
G75*
G02*
X357488682Y-112664990I-601041J-601041D01*
G01*
X357488682Y-112664990D01*
G75*
G02*
X356286600Y-112664990I-601041J601041D01*
G01*
X356286600Y-112664990D01*
G75*
G02*
X356286600Y-111462908I601041J601041D01*
G01*
X356286600Y-111462908D01*
G75*
G02*
X357488682Y-111462908I601041J-601041D01*
G01*
G37*
G36*
G01*
X366468939Y-109666857D02*
X366468939Y-109666857D01*
G75*
G02*
X366468939Y-110868939I-601041J-601041D01*
G01*
X366468939Y-110868939D01*
G75*
G02*
X365266857Y-110868939I-601041J601041D01*
G01*
X365266857Y-110868939D01*
G75*
G02*
X365266857Y-109666857I601041J601041D01*
G01*
X365266857Y-109666857D01*
G75*
G02*
X366468939Y-109666857I601041J-601041D01*
G01*
G37*
G36*
G01*
X355692631Y-109666857D02*
X355692631Y-109666857D01*
G75*
G02*
X355692631Y-110868939I-601041J-601041D01*
G01*
X355692631Y-110868939D01*
G75*
G02*
X354490549Y-110868939I-601041J601041D01*
G01*
X354490549Y-110868939D01*
G75*
G02*
X354490549Y-109666857I601041J601041D01*
G01*
X354490549Y-109666857D01*
G75*
G02*
X355692631Y-109666857I601041J-601041D01*
G01*
G37*
G36*
G01*
X368264990Y-111462908D02*
X368264990Y-111462908D01*
G75*
G02*
X368264990Y-112664990I-601041J-601041D01*
G01*
X368264990Y-112664990D01*
G75*
G02*
X367062908Y-112664990I-601041J601041D01*
G01*
X367062908Y-112664990D01*
G75*
G02*
X367062908Y-111462908I601041J601041D01*
G01*
X367062908Y-111462908D01*
G75*
G02*
X368264990Y-111462908I601041J-601041D01*
G01*
G37*
G36*
G01*
X353896580Y-107870805D02*
X353896580Y-107870805D01*
G75*
G02*
X353896580Y-109072887I-601041J-601041D01*
G01*
X353896580Y-109072887D01*
G75*
G02*
X352694498Y-109072887I-601041J601041D01*
G01*
X352694498Y-109072887D01*
G75*
G02*
X352694498Y-107870805I601041J601041D01*
G01*
X352694498Y-107870805D01*
G75*
G02*
X353896580Y-107870805I601041J-601041D01*
G01*
G37*
G36*
G01*
X369495355Y-112693274D02*
X370626726Y-113824645D01*
G75*
G02*
X370626726Y-113895355I-35355J-35355D01*
G01*
X369495355Y-115026726D01*
G75*
G02*
X369424645Y-115026726I-35355J35355D01*
G01*
X368293274Y-113895355D01*
G75*
G02*
X368293274Y-113824645I35355J35355D01*
G01*
X369424645Y-112693274D01*
G75*
G02*
X369495355Y-112693274I35355J-35355D01*
G01*
G37*
%TD*%
%TO.C,REF\u002A\u002A*%
G36*
G01*
X355192887Y-34572887D02*
X355192887Y-34572887D01*
G75*
G02*
X353990805Y-34572887I-601041J601041D01*
G01*
X353990805Y-34572887D01*
G75*
G02*
X353990805Y-33370805I601041J601041D01*
G01*
X353990805Y-33370805D01*
G75*
G02*
X355192887Y-33370805I601041J-601041D01*
G01*
X355192887Y-33370805D01*
G75*
G02*
X355192887Y-34572887I-601041J-601041D01*
G01*
G37*
G36*
G01*
X371357348Y-29184734D02*
X371357348Y-29184734D01*
G75*
G02*
X370155266Y-29184734I-601041J601041D01*
G01*
X370155266Y-29184734D01*
G75*
G02*
X370155266Y-27982652I601041J601041D01*
G01*
X370155266Y-27982652D01*
G75*
G02*
X371357348Y-27982652I601041J-601041D01*
G01*
X371357348Y-27982652D01*
G75*
G02*
X371357348Y-29184734I-601041J-601041D01*
G01*
G37*
G36*
G01*
X356988939Y-32776836D02*
X356988939Y-32776836D01*
G75*
G02*
X355786857Y-32776836I-601041J601041D01*
G01*
X355786857Y-32776836D01*
G75*
G02*
X355786857Y-31574754I601041J601041D01*
G01*
X355786857Y-31574754D01*
G75*
G02*
X356988939Y-31574754I601041J-601041D01*
G01*
X356988939Y-31574754D01*
G75*
G02*
X356988939Y-32776836I-601041J-601041D01*
G01*
G37*
G36*
G01*
X369561297Y-30980785D02*
X369561297Y-30980785D01*
G75*
G02*
X368359215Y-30980785I-601041J601041D01*
G01*
X368359215Y-30980785D01*
G75*
G02*
X368359215Y-29778703I601041J601041D01*
G01*
X368359215Y-29778703D01*
G75*
G02*
X369561297Y-29778703I601041J-601041D01*
G01*
X369561297Y-29778703D01*
G75*
G02*
X369561297Y-30980785I-601041J-601041D01*
G01*
G37*
G36*
G01*
X358784990Y-30980785D02*
X358784990Y-30980785D01*
G75*
G02*
X357582908Y-30980785I-601041J601041D01*
G01*
X357582908Y-30980785D01*
G75*
G02*
X357582908Y-29778703I601041J601041D01*
G01*
X357582908Y-29778703D01*
G75*
G02*
X358784990Y-29778703I601041J-601041D01*
G01*
X358784990Y-29778703D01*
G75*
G02*
X358784990Y-30980785I-601041J-601041D01*
G01*
G37*
G36*
G01*
X367765246Y-32776836D02*
X367765246Y-32776836D01*
G75*
G02*
X366563164Y-32776836I-601041J601041D01*
G01*
X366563164Y-32776836D01*
G75*
G02*
X366563164Y-31574754I601041J601041D01*
G01*
X366563164Y-31574754D01*
G75*
G02*
X367765246Y-31574754I601041J-601041D01*
G01*
X367765246Y-31574754D01*
G75*
G02*
X367765246Y-32776836I-601041J-601041D01*
G01*
G37*
G36*
G01*
X360581041Y-29184734D02*
X360581041Y-29184734D01*
G75*
G02*
X359378959Y-29184734I-601041J601041D01*
G01*
X359378959Y-29184734D01*
G75*
G02*
X359378959Y-27982652I601041J601041D01*
G01*
X359378959Y-27982652D01*
G75*
G02*
X360581041Y-27982652I601041J-601041D01*
G01*
X360581041Y-27982652D01*
G75*
G02*
X360581041Y-29184734I-601041J-601041D01*
G01*
G37*
G36*
G01*
X365969195Y-34572887D02*
X365969195Y-34572887D01*
G75*
G02*
X364767113Y-34572887I-601041J601041D01*
G01*
X364767113Y-34572887D01*
G75*
G02*
X364767113Y-33370805I601041J601041D01*
G01*
X364767113Y-33370805D01*
G75*
G02*
X365969195Y-33370805I601041J-601041D01*
G01*
X365969195Y-33370805D01*
G75*
G02*
X365969195Y-34572887I-601041J-601041D01*
G01*
G37*
G36*
G01*
X362377092Y-27388682D02*
X362377092Y-27388682D01*
G75*
G02*
X361175010Y-27388682I-601041J601041D01*
G01*
X361175010Y-27388682D01*
G75*
G02*
X361175010Y-26186600I601041J601041D01*
G01*
X361175010Y-26186600D01*
G75*
G02*
X362377092Y-26186600I601041J-601041D01*
G01*
X362377092Y-26186600D01*
G75*
G02*
X362377092Y-27388682I-601041J-601041D01*
G01*
G37*
G36*
G01*
X364173143Y-36368939D02*
X364173143Y-36368939D01*
G75*
G02*
X362971061Y-36368939I-601041J601041D01*
G01*
X362971061Y-36368939D01*
G75*
G02*
X362971061Y-35166857I601041J601041D01*
G01*
X362971061Y-35166857D01*
G75*
G02*
X364173143Y-35166857I601041J-601041D01*
G01*
X364173143Y-35166857D01*
G75*
G02*
X364173143Y-36368939I-601041J-601041D01*
G01*
G37*
G36*
G01*
X364173143Y-25592631D02*
X364173143Y-25592631D01*
G75*
G02*
X362971061Y-25592631I-601041J601041D01*
G01*
X362971061Y-25592631D01*
G75*
G02*
X362971061Y-24390549I601041J601041D01*
G01*
X362971061Y-24390549D01*
G75*
G02*
X364173143Y-24390549I601041J-601041D01*
G01*
X364173143Y-24390549D01*
G75*
G02*
X364173143Y-25592631I-601041J-601041D01*
G01*
G37*
G36*
G01*
X362377092Y-38164990D02*
X362377092Y-38164990D01*
G75*
G02*
X361175010Y-38164990I-601041J601041D01*
G01*
X361175010Y-38164990D01*
G75*
G02*
X361175010Y-36962908I601041J601041D01*
G01*
X361175010Y-36962908D01*
G75*
G02*
X362377092Y-36962908I601041J-601041D01*
G01*
X362377092Y-36962908D01*
G75*
G02*
X362377092Y-38164990I-601041J-601041D01*
G01*
G37*
G36*
G01*
X365969195Y-23796580D02*
X365969195Y-23796580D01*
G75*
G02*
X364767113Y-23796580I-601041J601041D01*
G01*
X364767113Y-23796580D01*
G75*
G02*
X364767113Y-22594498I601041J601041D01*
G01*
X364767113Y-22594498D01*
G75*
G02*
X365969195Y-22594498I601041J-601041D01*
G01*
X365969195Y-22594498D01*
G75*
G02*
X365969195Y-23796580I-601041J-601041D01*
G01*
G37*
G36*
G01*
X361146726Y-39395355D02*
X360015355Y-40526726D01*
G75*
G02*
X359944645Y-40526726I-35355J35355D01*
G01*
X358813274Y-39395355D01*
G75*
G02*
X358813274Y-39324645I35355J35355D01*
G01*
X359944645Y-38193274D01*
G75*
G02*
X360015355Y-38193274I35355J-35355D01*
G01*
X361146726Y-39324645D01*
G75*
G02*
X361146726Y-39395355I-35355J-35355D01*
G01*
G37*
%TD*%
%TO.C,REF\u002A\u002A*%
G36*
G01*
X387810469Y-55298497D02*
X387810469Y-55298497D01*
G75*
G02*
X388251033Y-56416935I-338937J-779501D01*
G01*
X388251033Y-56416935D01*
G75*
G02*
X387132595Y-56857499I-779501J338937D01*
G01*
X387132595Y-56857499D01*
G75*
G02*
X386692031Y-55739061I338937J779501D01*
G01*
X386692031Y-55739061D01*
G75*
G02*
X387810469Y-55298497I779501J-338937D01*
G01*
G37*
D11*
X390510000Y-49090000D03*
%TD*%
%TO.C,REF\u002A\u002A*%
X391900000Y-53640000D03*
G36*
G01*
X398439318Y-55392205D02*
X398439318Y-55392205D01*
G75*
G02*
X399480351Y-54791164I821037J-219996D01*
G01*
X399480351Y-54791164D01*
G75*
G02*
X400081392Y-55832197I-219996J-821037D01*
G01*
X400081392Y-55832197D01*
G75*
G02*
X399040359Y-56433238I-821037J219996D01*
G01*
X399040359Y-56433238D01*
G75*
G02*
X398439318Y-55392205I219996J821037D01*
G01*
G37*
%TD*%
D17*
%TO.C,REF\u002A\u002A*%
X384945671Y-65480387D03*
X384901342Y-62940774D03*
G36*
G01*
X385776788Y-67256152D02*
X385802967Y-68755923D01*
G75*
G02*
X385753848Y-68806788I-49992J-873D01*
G01*
X384254077Y-68832967D01*
G75*
G02*
X384203212Y-68783848I-873J49992D01*
G01*
X384177033Y-67284077D01*
G75*
G02*
X384226152Y-67233212I49992J873D01*
G01*
X385725923Y-67207033D01*
G75*
G02*
X385776788Y-67256152I873J-49992D01*
G01*
G37*
%TD*%
%TO.C,REF\u002A\u002A*%
G36*
G01*
X428619838Y-98531905D02*
X429300824Y-97195395D01*
G75*
G02*
X429368074Y-97173545I44550J-22700D01*
G01*
X430704584Y-97854531D01*
G75*
G02*
X430726434Y-97921781I-22700J-44550D01*
G01*
X430045448Y-99258291D01*
G75*
G02*
X429978198Y-99280141I-44550J22700D01*
G01*
X428641688Y-98599155D01*
G75*
G02*
X428619838Y-98531905I22700J44550D01*
G01*
G37*
X427366864Y-102753156D03*
X428520000Y-100490000D03*
%TD*%
%TO.C,REF\u002A\u002A*%
X377293116Y-31170646D03*
X375836232Y-33251292D03*
G36*
G01*
X377664496Y-29245503D02*
X378524860Y-28016775D01*
G75*
G02*
X378594497Y-28004496I40958J-28679D01*
G01*
X379823225Y-28864860D01*
G75*
G02*
X379835504Y-28934497I-28679J-40958D01*
G01*
X378975140Y-30163225D01*
G75*
G02*
X378905503Y-30175504I-40958J28679D01*
G01*
X377676775Y-29315140D01*
G75*
G02*
X377664496Y-29245503I28679J40958D01*
G01*
G37*
%TD*%
%TO.C,REF\u002A\u002A*%
X374559592Y-81012412D03*
X376259183Y-79124824D03*
G36*
G01*
X373956364Y-82877946D02*
X372952668Y-83992664D01*
G75*
G02*
X372882054Y-83996364I-37157J33457D01*
G01*
X371767336Y-82992668D01*
G75*
G02*
X371763636Y-82922054I33457J37157D01*
G01*
X372767332Y-81807336D01*
G75*
G02*
X372837946Y-81803636I37157J-33457D01*
G01*
X373952664Y-82807332D01*
G75*
G02*
X373956364Y-82877946I-33457J-37157D01*
G01*
G37*
%TD*%
%TO.C,REF\u002A\u002A*%
G36*
G01*
X417674189Y-92741185D02*
X418658277Y-91609121D01*
G75*
G02*
X418728815Y-91604189I37735J-32803D01*
G01*
X419860879Y-92588277D01*
G75*
G02*
X419865811Y-92658815I-32803J-37735D01*
G01*
X418881723Y-93790879D01*
G75*
G02*
X418811185Y-93795811I-37735J32803D01*
G01*
X417679121Y-92811723D01*
G75*
G02*
X417674189Y-92741185I32803J37735D01*
G01*
G37*
X415437220Y-96533925D03*
X417103610Y-94616962D03*
%TD*%
%TO.C,REF\u002A\u002A*%
X418974329Y-78179613D03*
X419018658Y-80719226D03*
G36*
G01*
X418143212Y-76403848D02*
X418117033Y-74904077D01*
G75*
G02*
X418166152Y-74853212I49992J873D01*
G01*
X419665923Y-74827033D01*
G75*
G02*
X419716788Y-74876152I873J-49992D01*
G01*
X419742967Y-76375923D01*
G75*
G02*
X419693848Y-76426788I-49992J-873D01*
G01*
X418194077Y-76452967D01*
G75*
G02*
X418143212Y-76403848I-873J49992D01*
G01*
G37*
%TD*%
%TO.C,REF\u002A\u002A*%
G36*
G01*
X425192897Y-42311845D02*
X426690841Y-42390349D01*
G75*
G02*
X426738155Y-42442897I-2617J-49931D01*
G01*
X426659651Y-43940841D01*
G75*
G02*
X426607103Y-43988155I-49931J2617D01*
G01*
X425109159Y-43909651D01*
G75*
G02*
X425061845Y-43857103I2617J49931D01*
G01*
X425140349Y-42359159D01*
G75*
G02*
X425192897Y-42311845I49931J-2617D01*
G01*
G37*
X420826962Y-42884133D03*
X423363481Y-43017067D03*
%TD*%
D11*
%TO.C,REF\u002A\u002A*%
X384990000Y-91530000D03*
G36*
G01*
X383930938Y-98216650D02*
X383930938Y-98216650D01*
G75*
G02*
X384637504Y-99189154I-132969J-839535D01*
G01*
X384637504Y-99189154D01*
G75*
G02*
X383665000Y-99895720I-839535J132969D01*
G01*
X383665000Y-99895720D01*
G75*
G02*
X382958434Y-98923216I132969J839535D01*
G01*
X382958434Y-98923216D01*
G75*
G02*
X383930938Y-98216650I839535J-132969D01*
G01*
G37*
%TD*%
D17*
%TO.C,REF\u002A\u002A*%
X362196843Y-43636864D03*
X359933687Y-42483728D03*
G36*
G01*
X364154938Y-43736702D02*
X365491448Y-44417688D01*
G75*
G02*
X365513298Y-44484938I-22700J-44550D01*
G01*
X364832312Y-45821448D01*
G75*
G02*
X364765062Y-45843298I-44550J22700D01*
G01*
X363428552Y-45162312D01*
G75*
G02*
X363406702Y-45095062I22700J44550D01*
G01*
X364087688Y-43758552D01*
G75*
G02*
X364154938Y-43736702I44550J-22700D01*
G01*
G37*
%TD*%
%TO.C,REF\u002A\u002A*%
G36*
G01*
X360785288Y-50187198D02*
X362211873Y-50650723D01*
G75*
G02*
X362243975Y-50713727I-15451J-47553D01*
G01*
X361780450Y-52140312D01*
G75*
G02*
X361717446Y-52172414I-47553J15451D01*
G01*
X360290861Y-51708889D01*
G75*
G02*
X360258759Y-51645885I15451J47553D01*
G01*
X360722284Y-50219300D01*
G75*
G02*
X360785288Y-50187198I47553J-15451D01*
G01*
G37*
X356420000Y-49610000D03*
X358835683Y-50394903D03*
%TD*%
%TO.C,REF\u002A\u002A*%
G36*
G01*
X441750000Y-53620000D02*
X441750000Y-51820000D01*
G75*
G02*
X441800000Y-51770000I50000J0D01*
G01*
X443600000Y-51770000D01*
G75*
G02*
X443650000Y-51820000I0J-50000D01*
G01*
X443650000Y-53620000D01*
G75*
G02*
X443600000Y-53670000I-50000J0D01*
G01*
X441800000Y-53670000D01*
G75*
G02*
X441750000Y-53620000I0J50000D01*
G01*
G37*
D16*
X445240000Y-52720000D03*
%TD*%
%TO.C,REF\u002A\u002A*%
G36*
G01*
X444604497Y-47504496D02*
X445833225Y-48364860D01*
G75*
G02*
X445845504Y-48434497I-28679J-40958D01*
G01*
X444985140Y-49663225D01*
G75*
G02*
X444915503Y-49675504I-40958J28679D01*
G01*
X443686775Y-48815140D01*
G75*
G02*
X443674496Y-48745503I28679J40958D01*
G01*
X444534860Y-47516775D01*
G75*
G02*
X444604497Y-47504496I40958J-28679D01*
G01*
G37*
D17*
X440598708Y-45676232D03*
X442679354Y-47133116D03*
%TD*%
%TO.C,REF\u002A\u002A*%
X373167067Y-50496519D03*
X373034133Y-53033038D03*
G36*
G01*
X372461845Y-48667103D02*
X372540349Y-47169159D01*
G75*
G02*
X372592897Y-47121845I49931J-2617D01*
G01*
X374090841Y-47200349D01*
G75*
G02*
X374138155Y-47252897I-2617J-49931D01*
G01*
X374059651Y-48750841D01*
G75*
G02*
X374007103Y-48798155I-49931J2617D01*
G01*
X372509159Y-48719651D01*
G75*
G02*
X372461845Y-48667103I2617J49931D01*
G01*
G37*
%TD*%
%TO.C,REF\u002A\u002A*%
X429420408Y-62697588D03*
X427720817Y-64585176D03*
G36*
G01*
X430023636Y-60832054D02*
X431027332Y-59717336D01*
G75*
G02*
X431097946Y-59713636I37157J-33457D01*
G01*
X432212664Y-60717332D01*
G75*
G02*
X432216364Y-60787946I-33457J-37157D01*
G01*
X431212668Y-61902664D01*
G75*
G02*
X431142054Y-61906364I-37157J33457D01*
G01*
X430027336Y-60902668D01*
G75*
G02*
X430023636Y-60832054I33457J37157D01*
G01*
G37*
%TD*%
%TO.C,REF\u002A\u002A*%
G36*
G01*
X377629838Y-57561905D02*
X378310824Y-56225395D01*
G75*
G02*
X378378074Y-56203545I44550J-22700D01*
G01*
X379714584Y-56884531D01*
G75*
G02*
X379736434Y-56951781I-22700J-44550D01*
G01*
X379055448Y-58288291D01*
G75*
G02*
X378988198Y-58310141I-44550J22700D01*
G01*
X377651688Y-57629155D01*
G75*
G02*
X377629838Y-57561905I22700J44550D01*
G01*
G37*
X376376864Y-61783156D03*
X377530000Y-59520000D03*
%TD*%
%TO.C,REF\u002A\u002A*%
X430882933Y-93253481D03*
X431015867Y-90716962D03*
G36*
G01*
X431588155Y-95082897D02*
X431509651Y-96580841D01*
G75*
G02*
X431457103Y-96628155I-49931J2617D01*
G01*
X429959159Y-96549651D01*
G75*
G02*
X429911845Y-96497103I2617J49931D01*
G01*
X429990349Y-94999159D01*
G75*
G02*
X430042897Y-94951845I49931J-2617D01*
G01*
X431540841Y-95030349D01*
G75*
G02*
X431588155Y-95082897I-2617J-49931D01*
G01*
G37*
%TD*%
%TO.C,REF\u002A\u002A*%
X423465097Y-28685683D03*
X424250000Y-26270000D03*
G36*
G01*
X423672802Y-30635288D02*
X423209277Y-32061873D01*
G75*
G02*
X423146273Y-32093975I-47553J15451D01*
G01*
X421719688Y-31630450D01*
G75*
G02*
X421687586Y-31567446I15451J47553D01*
G01*
X422151111Y-30140861D01*
G75*
G02*
X422214115Y-30108759I47553J-15451D01*
G01*
X423640700Y-30572284D01*
G75*
G02*
X423672802Y-30635288I-15451J-47553D01*
G01*
G37*
%TD*%
%TO.C,REF\u002A\u002A*%
G36*
G01*
X367565811Y-47018815D02*
X366581723Y-48150879D01*
G75*
G02*
X366511185Y-48155811I-37735J32803D01*
G01*
X365379121Y-47171723D01*
G75*
G02*
X365374189Y-47101185I32803J37735D01*
G01*
X366358277Y-45969121D01*
G75*
G02*
X366428815Y-45964189I37735J-32803D01*
G01*
X367560879Y-46948277D01*
G75*
G02*
X367565811Y-47018815I-32803J-37735D01*
G01*
G37*
X369802780Y-43226075D03*
X368136390Y-45143038D03*
%TD*%
%TO.C,REF\u002A\u002A*%
G36*
G01*
X390992054Y-43826364D02*
X389877336Y-42822668D01*
G75*
G02*
X389873636Y-42752054I33457J37157D01*
G01*
X390877332Y-41637336D01*
G75*
G02*
X390947946Y-41633636I37157J-33457D01*
G01*
X392062664Y-42637332D01*
G75*
G02*
X392066364Y-42707946I-33457J-37157D01*
G01*
X391062668Y-43822664D01*
G75*
G02*
X390992054Y-43826364I-37157J33457D01*
G01*
G37*
X394745176Y-46129183D03*
X392857588Y-44429592D03*
%TD*%
%TO.C,REF\u002A\u002A*%
X380440406Y-49786889D03*
X378120000Y-50820000D03*
G36*
G01*
X381750262Y-48327994D02*
X383120581Y-47717889D01*
G75*
G02*
X383186595Y-47743229I20337J-45677D01*
G01*
X383796700Y-49113548D01*
G75*
G02*
X383771360Y-49179562I-45677J-20337D01*
G01*
X382401041Y-49789667D01*
G75*
G02*
X382335027Y-49764327I-20337J45677D01*
G01*
X381724922Y-48394008D01*
G75*
G02*
X381750262Y-48327994I45677J20337D01*
G01*
G37*
%TD*%
%TO.C,REF\u002A\u002A*%
G36*
G01*
X398090000Y-46660634D02*
X398090000Y-44899366D01*
G75*
G02*
X398354366Y-44635000I264366J0D01*
G01*
X399665634Y-44635000D01*
G75*
G02*
X399930000Y-44899366I0J-264366D01*
G01*
X399930000Y-46660634D01*
G75*
G02*
X399665634Y-46925000I-264366J0D01*
G01*
X398354366Y-46925000D01*
G75*
G02*
X398090000Y-46660634I0J264366D01*
G01*
G37*
D18*
X401550000Y-45780000D03*
%TD*%
%TO.C,REF\u002A\u002A*%
G36*
G01*
X359375503Y-96205504D02*
X358146775Y-95345140D01*
G75*
G02*
X358134496Y-95275503I28679J40958D01*
G01*
X358994860Y-94046775D01*
G75*
G02*
X359064497Y-94034496I40958J-28679D01*
G01*
X360293225Y-94894860D01*
G75*
G02*
X360305504Y-94964497I-28679J-40958D01*
G01*
X359445140Y-96193225D01*
G75*
G02*
X359375503Y-96205504I-40958J28679D01*
G01*
G37*
D17*
X363381292Y-98033768D03*
X361300646Y-96576884D03*
%TD*%
%TO.C,REF\u002A\u002A*%
G36*
G01*
X424525298Y-74136393D02*
X424525298Y-74136393D01*
G75*
G02*
X423403058Y-74567181I-776514J345726D01*
G01*
X423403058Y-74567181D01*
G75*
G02*
X422972270Y-73444941I345726J776514D01*
G01*
X422972270Y-73444941D01*
G75*
G02*
X424094510Y-73014153I776514J-345726D01*
G01*
X424094510Y-73014153D01*
G75*
G02*
X424525298Y-74136393I-345726J-776514D01*
G01*
G37*
D11*
X430710000Y-76890000D03*
%TD*%
%TO.C,REF\u002A\u002A*%
G36*
G01*
X426290162Y-86098095D02*
X425609176Y-87434605D01*
G75*
G02*
X425541926Y-87456455I-44550J22700D01*
G01*
X424205416Y-86775469D01*
G75*
G02*
X424183566Y-86708219I22700J44550D01*
G01*
X424864552Y-85371709D01*
G75*
G02*
X424931802Y-85349859I44550J-22700D01*
G01*
X426268312Y-86030845D01*
G75*
G02*
X426290162Y-86098095I-22700J-44550D01*
G01*
G37*
D17*
X427543136Y-81876844D03*
X426390000Y-84140000D03*
%TD*%
%TO.C,REF\u002A\u002A*%
X414220000Y-47430000D03*
X411956844Y-46276864D03*
G36*
G01*
X416178095Y-47529838D02*
X417514605Y-48210824D01*
G75*
G02*
X417536455Y-48278074I-22700J-44550D01*
G01*
X416855469Y-49614584D01*
G75*
G02*
X416788219Y-49636434I-44550J22700D01*
G01*
X415451709Y-48955448D01*
G75*
G02*
X415429859Y-48888198I22700J44550D01*
G01*
X416110845Y-47551688D01*
G75*
G02*
X416178095Y-47529838I44550J-22700D01*
G01*
G37*
%TD*%
%TO.C,REF\u002A\u002A*%
X380504903Y-115104317D03*
X379720000Y-117520000D03*
G36*
G01*
X380297198Y-113154712D02*
X380760723Y-111728127D01*
G75*
G02*
X380823727Y-111696025I47553J-15451D01*
G01*
X382250312Y-112159550D01*
G75*
G02*
X382282414Y-112222554I-15451J-47553D01*
G01*
X381818889Y-113649139D01*
G75*
G02*
X381755885Y-113681241I-47553J15451D01*
G01*
X380329300Y-113217716D01*
G75*
G02*
X380297198Y-113154712I15451J47553D01*
G01*
G37*
%TD*%
%TO.C,REF\u002A\u002A*%
X441793157Y-99983136D03*
X444056313Y-101136272D03*
G36*
G01*
X439835062Y-99883298D02*
X438498552Y-99202312D01*
G75*
G02*
X438476702Y-99135062I22700J44550D01*
G01*
X439157688Y-97798552D01*
G75*
G02*
X439224938Y-97776702I44550J-22700D01*
G01*
X440561448Y-98457688D01*
G75*
G02*
X440583298Y-98524938I-22700J-44550D01*
G01*
X439902312Y-99861448D01*
G75*
G02*
X439835062Y-99883298I-44550J22700D01*
G01*
G37*
%TD*%
D11*
%TO.C,REF\u002A\u002A*%
X358840000Y-60560000D03*
G36*
G01*
X356469096Y-66901271D02*
X356469096Y-66901271D01*
G75*
G02*
X356967591Y-67995118I-297676J-796171D01*
G01*
X356967591Y-67995118D01*
G75*
G02*
X355873744Y-68493613I-796171J297676D01*
G01*
X355873744Y-68493613D01*
G75*
G02*
X355375249Y-67399766I297676J796171D01*
G01*
X355375249Y-67399766D01*
G75*
G02*
X356469096Y-66901271I796171J-297676D01*
G01*
G37*
%TD*%
%TO.C,REF\u002A\u002A*%
G36*
G01*
X397446152Y-88063212D02*
X398945923Y-88037033D01*
G75*
G02*
X398996788Y-88086152I873J-49992D01*
G01*
X399022967Y-89585923D01*
G75*
G02*
X398973848Y-89636788I-49992J-873D01*
G01*
X397474077Y-89662967D01*
G75*
G02*
X397423212Y-89613848I-873J49992D01*
G01*
X397397033Y-88114077D01*
G75*
G02*
X397446152Y-88063212I49992J873D01*
G01*
G37*
D17*
X393130774Y-88938658D03*
X395670387Y-88894329D03*
%TD*%
%TO.C,REF\u002A\u002A*%
X373370000Y-98410000D03*
X371106844Y-97256864D03*
G36*
G01*
X375328095Y-98509838D02*
X376664605Y-99190824D01*
G75*
G02*
X376686455Y-99258074I-22700J-44550D01*
G01*
X376005469Y-100594584D01*
G75*
G02*
X375938219Y-100616434I-44550J22700D01*
G01*
X374601709Y-99935448D01*
G75*
G02*
X374579859Y-99868198I22700J44550D01*
G01*
X375260845Y-98531688D01*
G75*
G02*
X375328095Y-98509838I44550J-22700D01*
G01*
G37*
%TD*%
D10*
%TO.C,REF\u002A\u002A*%
X346560000Y-79760000D03*
D11*
X346560000Y-87380000D03*
%TD*%
D17*
%TO.C,REF\u002A\u002A*%
X375253038Y-105803610D03*
X373336075Y-104137220D03*
G36*
G01*
X377128815Y-106374189D02*
X378260879Y-107358277D01*
G75*
G02*
X378265811Y-107428815I-32803J-37735D01*
G01*
X377281723Y-108560879D01*
G75*
G02*
X377211185Y-108565811I-37735J32803D01*
G01*
X376079121Y-107581723D01*
G75*
G02*
X376074189Y-107511185I32803J37735D01*
G01*
X377058277Y-106379121D01*
G75*
G02*
X377128815Y-106374189I37735J-32803D01*
G01*
G37*
%TD*%
%TO.C,REF\u002A\u002A*%
G36*
G01*
X399786808Y-100456977D02*
X399786808Y-100456977D01*
G75*
G02*
X399495998Y-99290603I437782J728592D01*
G01*
X399495998Y-99290603D01*
G75*
G02*
X400662372Y-98999793I728592J-437782D01*
G01*
X400662372Y-98999793D01*
G75*
G02*
X400953182Y-100166167I-437782J-728592D01*
G01*
X400953182Y-100166167D01*
G75*
G02*
X399786808Y-100456977I-728592J437782D01*
G01*
G37*
D11*
X396300000Y-106260000D03*
%TD*%
%TO.C,REF\u002A\u002A*%
G36*
G01*
X378777103Y-101478155D02*
X377279159Y-101399651D01*
G75*
G02*
X377231845Y-101347103I2617J49931D01*
G01*
X377310349Y-99849159D01*
G75*
G02*
X377362897Y-99801845I49931J-2617D01*
G01*
X378860841Y-99880349D01*
G75*
G02*
X378908155Y-99932897I-2617J-49931D01*
G01*
X378829651Y-101430841D01*
G75*
G02*
X378777103Y-101478155I-49931J2617D01*
G01*
G37*
D17*
X383143038Y-100905867D03*
X380606519Y-100772933D03*
%TD*%
%TO.C,REF\u002A\u002A*%
X379233038Y-87023610D03*
X377316075Y-85357220D03*
G36*
G01*
X381108815Y-87594189D02*
X382240879Y-88578277D01*
G75*
G02*
X382245811Y-88648815I-32803J-37735D01*
G01*
X381261723Y-89780879D01*
G75*
G02*
X381191185Y-89785811I-37735J32803D01*
G01*
X380059121Y-88801723D01*
G75*
G02*
X380054189Y-88731185I32803J37735D01*
G01*
X381038277Y-87599121D01*
G75*
G02*
X381108815Y-87594189I37735J-32803D01*
G01*
G37*
%TD*%
%TO.C,REF\u002A\u002A*%
X424696962Y-56716390D03*
X426613925Y-58382780D03*
G36*
G01*
X422821185Y-56145811D02*
X421689121Y-55161723D01*
G75*
G02*
X421684189Y-55091185I32803J37735D01*
G01*
X422668277Y-53959121D01*
G75*
G02*
X422738815Y-53954189I37735J-32803D01*
G01*
X423870879Y-54938277D01*
G75*
G02*
X423875811Y-55008815I-32803J-37735D01*
G01*
X422891723Y-56140879D01*
G75*
G02*
X422821185Y-56145811I-37735J32803D01*
G01*
G37*
%TD*%
%TO.C,REF\u002A\u002A*%
G36*
G01*
X371614497Y-87334496D02*
X372843225Y-88194860D01*
G75*
G02*
X372855504Y-88264497I-28679J-40958D01*
G01*
X371995140Y-89493225D01*
G75*
G02*
X371925503Y-89505504I-40958J28679D01*
G01*
X370696775Y-88645140D01*
G75*
G02*
X370684496Y-88575503I28679J40958D01*
G01*
X371544860Y-87346775D01*
G75*
G02*
X371614497Y-87334496I40958J-28679D01*
G01*
G37*
X367608708Y-85506232D03*
X369689354Y-86963116D03*
%TD*%
%TO.C,REF\u002A\u002A*%
X389710000Y-96310000D03*
X391973156Y-97463136D03*
G36*
G01*
X387751905Y-96210162D02*
X386415395Y-95529176D01*
G75*
G02*
X386393545Y-95461926I22700J44550D01*
G01*
X387074531Y-94125416D01*
G75*
G02*
X387141781Y-94103566I44550J-22700D01*
G01*
X388478291Y-94784552D01*
G75*
G02*
X388500141Y-94851802I-22700J-44550D01*
G01*
X387819155Y-96188312D01*
G75*
G02*
X387751905Y-96210162I-44550J22700D01*
G01*
G37*
%TD*%
D11*
%TO.C,REF\u002A\u002A*%
X410230000Y-24270000D03*
G36*
G01*
X404931743Y-20055575D02*
X404931743Y-20055575D01*
G75*
G02*
X403737389Y-20191655I-665217J529137D01*
G01*
X403737389Y-20191655D01*
G75*
G02*
X403601309Y-18997301I529137J665217D01*
G01*
X403601309Y-18997301D01*
G75*
G02*
X404795663Y-18861221I665217J-529137D01*
G01*
X404795663Y-18861221D01*
G75*
G02*
X404931743Y-20055575I-529137J-665217D01*
G01*
G37*
%TD*%
%TO.C,REF\u002A\u002A*%
X430680000Y-79700000D03*
G36*
G01*
X423993350Y-78640938D02*
X423993350Y-78640938D01*
G75*
G02*
X423020846Y-79347504I-839535J132969D01*
G01*
X423020846Y-79347504D01*
G75*
G02*
X422314280Y-78375000I132969J839535D01*
G01*
X422314280Y-78375000D01*
G75*
G02*
X423286784Y-77668434I839535J-132969D01*
G01*
X423286784Y-77668434D01*
G75*
G02*
X423993350Y-78640938I-132969J-839535D01*
G01*
G37*
%TD*%
%TO.C,REF\u002A\u002A*%
G36*
G01*
X375430162Y-45218095D02*
X374749176Y-46554605D01*
G75*
G02*
X374681926Y-46576455I-44550J22700D01*
G01*
X373345416Y-45895469D01*
G75*
G02*
X373323566Y-45828219I22700J44550D01*
G01*
X374004552Y-44491709D01*
G75*
G02*
X374071802Y-44469859I44550J-22700D01*
G01*
X375408312Y-45150845D01*
G75*
G02*
X375430162Y-45218095I-22700J-44550D01*
G01*
G37*
D17*
X376683136Y-40996844D03*
X375530000Y-43260000D03*
%TD*%
D11*
%TO.C,REF\u002A\u002A*%
X436340000Y-72750000D03*
X431130062Y-67354951D03*
%TD*%
D17*
%TO.C,REF\u002A\u002A*%
X428716962Y-37986390D03*
X430633925Y-39652780D03*
G36*
G01*
X426841185Y-37415811D02*
X425709121Y-36431723D01*
G75*
G02*
X425704189Y-36361185I32803J37735D01*
G01*
X426688277Y-35229121D01*
G75*
G02*
X426758815Y-35224189I37735J-32803D01*
G01*
X427890879Y-36208277D01*
G75*
G02*
X427895811Y-36278815I-32803J-37735D01*
G01*
X426911723Y-37410879D01*
G75*
G02*
X426841185Y-37415811I-37735J32803D01*
G01*
G37*
%TD*%
%TO.C,REF\u002A\u002A*%
G36*
G01*
X362110000Y-90030000D02*
X362110000Y-91830000D01*
G75*
G02*
X362060000Y-91880000I-50000J0D01*
G01*
X360260000Y-91880000D01*
G75*
G02*
X360210000Y-91830000I0J50000D01*
G01*
X360210000Y-90030000D01*
G75*
G02*
X360260000Y-89980000I50000J0D01*
G01*
X362060000Y-89980000D01*
G75*
G02*
X362110000Y-90030000I0J-50000D01*
G01*
G37*
D16*
X358620000Y-90930000D03*
%TD*%
D11*
%TO.C,REF\u002A\u002A*%
X425760000Y-19670000D03*
G36*
G01*
X419701294Y-22690759D02*
X419701294Y-22690759D01*
G75*
G02*
X419319868Y-23830721I-760694J-379268D01*
G01*
X419319868Y-23830721D01*
G75*
G02*
X418179906Y-23449295I-379268J760694D01*
G01*
X418179906Y-23449295D01*
G75*
G02*
X418561332Y-22309333I760694J379268D01*
G01*
X418561332Y-22309333D01*
G75*
G02*
X419701294Y-22690759I379268J-760694D01*
G01*
G37*
%TD*%
%TO.C,REF\u002A\u002A*%
G36*
G01*
X414371294Y-21890759D02*
X414371294Y-21890759D01*
G75*
G02*
X413989868Y-23030721I-760694J-379268D01*
G01*
X413989868Y-23030721D01*
G75*
G02*
X412849906Y-22649295I-379268J760694D01*
G01*
X412849906Y-22649295D01*
G75*
G02*
X413231332Y-21509333I760694J379268D01*
G01*
X413231332Y-21509333D01*
G75*
G02*
X414371294Y-21890759I379268J-760694D01*
G01*
G37*
X420430000Y-18870000D03*
%TD*%
%TO.C,REF\u002A\u002A*%
G36*
G01*
X408720938Y-49896650D02*
X408720938Y-49896650D01*
G75*
G02*
X409427504Y-50869154I-132969J-839535D01*
G01*
X409427504Y-50869154D01*
G75*
G02*
X408455000Y-51575720I-839535J132969D01*
G01*
X408455000Y-51575720D01*
G75*
G02*
X407748434Y-50603216I132969J839535D01*
G01*
X407748434Y-50603216D01*
G75*
G02*
X408720938Y-49896650I839535J-132969D01*
G01*
G37*
X409780000Y-43210000D03*
%TD*%
%TO.C,REF\u002A\u002A*%
G36*
G01*
X395169062Y-93913350D02*
X395169062Y-93913350D01*
G75*
G02*
X394462496Y-92940846I132969J839535D01*
G01*
X394462496Y-92940846D01*
G75*
G02*
X395435000Y-92234280I839535J-132969D01*
G01*
X395435000Y-92234280D01*
G75*
G02*
X396141566Y-93206784I-132969J-839535D01*
G01*
X396141566Y-93206784D01*
G75*
G02*
X395169062Y-93913350I-839535J132969D01*
G01*
G37*
X394110000Y-100600000D03*
%TD*%
%TO.C,REF\u002A\u002A*%
X445080000Y-83140000D03*
G36*
G01*
X447450904Y-76798729D02*
X447450904Y-76798729D01*
G75*
G02*
X446952409Y-75704882I297676J796171D01*
G01*
X446952409Y-75704882D01*
G75*
G02*
X448046256Y-75206387I796171J-297676D01*
G01*
X448046256Y-75206387D01*
G75*
G02*
X448544751Y-76300234I-297676J-796171D01*
G01*
X448544751Y-76300234D01*
G75*
G02*
X447450904Y-76798729I-796171J297676D01*
G01*
G37*
%TD*%
D17*
%TO.C,REF\u002A\u002A*%
X430600000Y-45380000D03*
X432863156Y-46533136D03*
G36*
G01*
X428641905Y-45280162D02*
X427305395Y-44599176D01*
G75*
G02*
X427283545Y-44531926I22700J44550D01*
G01*
X427964531Y-43195416D01*
G75*
G02*
X428031781Y-43173566I44550J-22700D01*
G01*
X429368291Y-43854552D01*
G75*
G02*
X429390141Y-43921802I-22700J-44550D01*
G01*
X428709155Y-45258312D01*
G75*
G02*
X428641905Y-45280162I-44550J22700D01*
G01*
G37*
%TD*%
D11*
%TO.C,REF\u002A\u002A*%
X366940000Y-71120000D03*
X372149938Y-76515049D03*
%TD*%
%TO.C,REF\u002A\u002A*%
G36*
G01*
X371212871Y-31871264D02*
X371212871Y-31871264D01*
G75*
G02*
X371254823Y-33072614I-579699J-621651D01*
G01*
X371254823Y-33072614D01*
G75*
G02*
X370053473Y-33114566I-621651J579699D01*
G01*
X370053473Y-33114566D01*
G75*
G02*
X370011521Y-31913216I579699J621651D01*
G01*
X370011521Y-31913216D01*
G75*
G02*
X371212871Y-31871264I621651J-579699D01*
G01*
G37*
X375830000Y-26920000D03*
%TD*%
%TO.C,REF\u002A\u002A*%
G36*
G01*
X443264712Y-93562802D02*
X441838127Y-93099277D01*
G75*
G02*
X441806025Y-93036273I15451J47553D01*
G01*
X442269550Y-91609688D01*
G75*
G02*
X442332554Y-91577586I47553J-15451D01*
G01*
X443759139Y-92041111D01*
G75*
G02*
X443791241Y-92104115I-15451J-47553D01*
G01*
X443327716Y-93530700D01*
G75*
G02*
X443264712Y-93562802I-47553J15451D01*
G01*
G37*
D17*
X447630000Y-94140000D03*
X445214317Y-93355097D03*
%TD*%
%TO.C,REF\u002A\u002A*%
G36*
G01*
X374096702Y-109675062D02*
X374777688Y-108338552D01*
G75*
G02*
X374844938Y-108316702I44550J-22700D01*
G01*
X376181448Y-108997688D01*
G75*
G02*
X376203298Y-109064938I-22700J-44550D01*
G01*
X375522312Y-110401448D01*
G75*
G02*
X375455062Y-110423298I-44550J22700D01*
G01*
X374118552Y-109742312D01*
G75*
G02*
X374096702Y-109675062I22700J44550D01*
G01*
G37*
X372843728Y-113896313D03*
X373996864Y-111633157D03*
%TD*%
D11*
%TO.C,REF\u002A\u002A*%
X393960000Y-16510000D03*
D10*
X386340000Y-16510000D03*
%TD*%
%TO.C,REF\u002A\u002A*%
G36*
G01*
X375703350Y-53980938D02*
X375703350Y-53980938D01*
G75*
G02*
X374730846Y-54687504I-839535J132969D01*
G01*
X374730846Y-54687504D01*
G75*
G02*
X374024280Y-53715000I132969J839535D01*
G01*
X374024280Y-53715000D01*
G75*
G02*
X374996784Y-53008434I839535J-132969D01*
G01*
X374996784Y-53008434D01*
G75*
G02*
X375703350Y-53980938I-132969J-839535D01*
G01*
G37*
D11*
X382390000Y-55040000D03*
%TD*%
%TO.C,REF\u002A\u002A*%
G36*
G01*
X429963298Y-33974938D02*
X429282312Y-35311448D01*
G75*
G02*
X429215062Y-35333298I-44550J22700D01*
G01*
X427878552Y-34652312D01*
G75*
G02*
X427856702Y-34585062I22700J44550D01*
G01*
X428537688Y-33248552D01*
G75*
G02*
X428604938Y-33226702I44550J-22700D01*
G01*
X429941448Y-33907688D01*
G75*
G02*
X429963298Y-33974938I-22700J-44550D01*
G01*
G37*
D17*
X431216272Y-29753687D03*
X430063136Y-32016843D03*
%TD*%
D11*
%TO.C,REF\u002A\u002A*%
X406645049Y-100880062D03*
X401250000Y-106090000D03*
%TD*%
%TO.C,REF\u002A\u002A*%
G36*
G01*
X400852251Y-41803509D02*
X400852251Y-41803509D01*
G75*
G02*
X401759473Y-42592145I59293J-847929D01*
G01*
X401759473Y-42592145D01*
G75*
G02*
X400970837Y-43499367I-847929J-59293D01*
G01*
X400970837Y-43499367D01*
G75*
G02*
X400063615Y-42710731I-59293J847929D01*
G01*
X400063615Y-42710731D01*
G75*
G02*
X400852251Y-41803509I847929J59293D01*
G01*
G37*
G36*
G01*
X399522656Y-34257876D02*
X401118758Y-34146266D01*
G75*
G02*
X401172124Y-34192656I3488J-49878D01*
G01*
X401283734Y-35788758D01*
G75*
G02*
X401237344Y-35842124I-49878J-3488D01*
G01*
X399641242Y-35953734D01*
G75*
G02*
X399587876Y-35907344I-3488J49878D01*
G01*
X399476266Y-34311242D01*
G75*
G02*
X399522656Y-34257876I49878J3488D01*
G01*
G37*
%TD*%
%TO.C,REF\u002A\u002A*%
G36*
G01*
X386245811Y-50918815D02*
X385261723Y-52050879D01*
G75*
G02*
X385191185Y-52055811I-37735J32803D01*
G01*
X384059121Y-51071723D01*
G75*
G02*
X384054189Y-51001185I32803J37735D01*
G01*
X385038277Y-49869121D01*
G75*
G02*
X385108815Y-49864189I37735J-32803D01*
G01*
X386240879Y-50848277D01*
G75*
G02*
X386245811Y-50918815I-32803J-37735D01*
G01*
G37*
D17*
X388482780Y-47126075D03*
X386816390Y-49043038D03*
%TD*%
%TO.C,REF\u002A\u002A*%
G36*
G01*
X436484189Y-96731185D02*
X437468277Y-95599121D01*
G75*
G02*
X437538815Y-95594189I37735J-32803D01*
G01*
X438670879Y-96578277D01*
G75*
G02*
X438675811Y-96648815I-32803J-37735D01*
G01*
X437691723Y-97780879D01*
G75*
G02*
X437621185Y-97785811I-37735J32803D01*
G01*
X436489121Y-96801723D01*
G75*
G02*
X436484189Y-96731185I32803J37735D01*
G01*
G37*
X434247220Y-100523925D03*
X435913610Y-98606962D03*
%TD*%
D12*
%TO.C,REF\u002A\u002A*%
X402356119Y-124499545D03*
X397675000Y-124090000D03*
X392993881Y-123680455D03*
%TD*%
M02*
