M48
; DRILL file {KiCad (5.1.7)-1} date 06/08/21 12:08:27
; FORMAT={-:-/ absolute / inch / decimal}
; #@! TF.CreationDate,2021-06-08T12:08:27-05:00
; #@! TF.GenerationSoftware,Kicad,Pcbnew,(5.1.7)-1
; #@! TF.FileFunction,Plated,1,2,PTH
FMAT,2
INCH
T1C0.0157
T2C0.0315
T3C0.0354
T4C0.0394
T5C0.0469
T6C0.0709
T7C0.0906
T8C0.1929
%
G90
G05
T1
X13.635Y-4.5441
X13.7539Y-1.1031
X13.7916Y-1.4538
X13.8213Y-4.6453
X13.8453Y-3.8886
X13.9656Y-2.3382
X14.0087Y-0.8236
X14.1Y-4.9008
X14.1079Y-0.6366
X14.1224Y-2.2295
X14.1811Y-3.4317
X14.247Y-2.3963
X14.3224Y-3.6528
X14.3356Y-3.5724
X14.365Y-1.9858
X14.4559Y-4.8693
X14.4992Y-4.1213
X14.5106Y-3.8846
X14.535Y-1.5028
X14.6185Y-1.8236
X14.6394Y-3.6228
X14.7669Y-0.8496
X14.772Y-1.5157
X14.8165Y-4.0374
X14.8465Y-1.8709
X14.8701Y-3.8102
X14.9839Y-4.2874
X15.0059Y-1.3236
X15.0315Y-1.6429
X15.1201Y-1.3205
X15.1762Y-1.161
X15.2283Y-4.5295
X15.4203Y-4.6925
X15.4339Y-4.376
X15.737Y-0.4787
X16.0276Y-5.2016
X16.2189Y-1.2819
X16.2904Y-0.8077
X16.4222Y-4.5272
X16.4272Y-1.1276
X16.5453Y-4.3362
X16.6185Y-4.015
X16.6461Y-4.3354
X16.6701Y-1.3724
X16.7831Y-1.8496
X16.8051Y-3.785
X16.8323Y-1.6193
X16.8783Y-4.1437
X16.8833Y-4.8108
X17.0138Y-2.0366
X17.0335Y-3.8378
X17.1185Y-4.1559
X17.1402Y-1.7728
X17.15Y-1.535
X17.2031Y-0.7929
X17.2886Y-3.6736
X17.311Y-2.0961
X17.328Y-2.0024
X17.3709Y-3.2224
X17.4774Y-2.2112
X17.5287Y-3.4295
X17.5472Y-5.013
X17.5535Y-0.7559
X17.622Y-3.2969
X17.6425Y-4.8346
X17.8079Y-1.7709
X17.8299Y-1.015
X17.8593Y-4.2022
X17.8862Y-4.5551
X18.0169Y-1.113
T2
X14.386Y-2.3537
X14.5516Y-2.1035
X15.8996Y-3.5873
X16.1894Y-3.665
X15.0567Y-4.2091
X15.3009Y-4.3833
X16.3613Y-4.1835
X16.4186Y-4.1016
X16.476Y-4.0197
X15.9005Y-1.1331
X16.0913Y-1.3646
X13.7256Y-3.5839
X14.0252Y-3.5996
X14.1256Y-2.7526
X14.3571Y-2.5618
X13.5983Y-4.3365
X13.8528Y-4.1776
X17.2528Y-1.7856
X17.2894Y-1.4878
X15.8923Y-1.7355
X16.0469Y-1.4783
X17.1689Y-4.8047
X17.3279Y-5.0591
X15.3811Y-4.5299
X15.6621Y-4.635
X16.5783Y-2.7555
X16.656Y-2.4657
X14.855Y-3.3605
X14.9304Y-3.4261
X15.0059Y-3.4917
X14.1425Y-3.7449
X14.2244Y-3.8022
X14.3064Y-3.8596
X15.1634Y-2.0063
X15.229Y-1.9308
X15.2946Y-1.8554
X14.6864Y-2.0879
X14.6916Y-1.9881
X14.6969Y-1.8882
X17.433Y-3.6445
X17.5281Y-3.6754
X17.6232Y-3.7063
X14.7967Y-1.3091
X14.8541Y-1.2272
X14.9114Y-1.1453
X16.2839Y-0.8768
X16.5524Y-0.7429
X14.9822Y-2.4741
X15.198Y-2.2657
X16.6596Y-3.0909
X16.9559Y-3.1378
X16.6449Y-2.1673
X16.7204Y-2.2329
X16.7958Y-2.2985
X16.7398Y-4.5138
X16.7971Y-4.4319
X16.8545Y-4.3499
X17.6181Y-1.698
X17.8792Y-1.5503
X14.4454Y-3.5579
X14.5042Y-3.6388
X14.563Y-3.7197
X14.2758Y-2.3072
X14.45Y-2.063
X15.4917Y-1.5854
X15.6138Y-1.3114
X15.1031Y-3.2232
X15.1807Y-2.9335
X16.5528Y-4.2109
X16.6337Y-4.1521
X16.7146Y-4.0933
X17.1004Y-3.5567
X17.266Y-3.3065
X14.9071Y-1.0346
X14.9228Y-0.7351
X14.2004Y-3.186
X14.2542Y-3.3129
X17.8091Y-1.3038
X17.9074Y-1.2072
X14.0253Y-1.1365
X14.2374Y-0.9244
X17.3531Y-0.7992
X17.5989Y-0.9713
X13.7501Y-2.9757
X14.0484Y-3.0071
X17.3533Y-4.8158
X17.4498Y-4.9141
X16.8724Y-4.2618
X17.1702Y-4.2984
X17.3043Y-3.8909
X17.3934Y-3.9363
X17.4825Y-3.9817
X16.8531Y-4.6067
X17.0577Y-4.3873
X14.8846Y-3.9622
X14.9845Y-3.9674
X15.0844Y-3.9727
X14.1706Y-1.6726
X14.2597Y-1.718
X14.3488Y-1.7634
X16.8394Y-2.5427
X16.9063Y-2.4684
X16.9732Y-2.3941
X15.763Y-1.3799
X15.7839Y-1.6792
X16.4933Y-2.978
X16.4951Y-3.0779
X16.4968Y-3.1779
X16.8031Y-1.4299
X16.8786Y-1.4955
X16.9541Y-1.5611
X17.6015Y-2.4981
X17.6058Y-2.3982
X17.6102Y-2.2983
X17.6146Y-2.1984
X17.9012Y-2.5112
X17.9056Y-2.4113
X17.9099Y-2.3114
X17.9143Y-2.2115
X13.9603Y-1.3375
X14.031Y-1.2668
X14.1017Y-1.1961
X14.1724Y-1.1253
X14.1724Y-1.5496
X14.2432Y-1.0546
X14.2432Y-1.4789
X14.3139Y-0.9839
X14.3139Y-1.4082
X14.3846Y-0.9132
X14.3846Y-1.3375
X14.4553Y-1.2668
X14.526Y-1.1961
X14.5967Y-1.1253
X14.0112Y-1.7787
X14.2831Y-1.9055
X14.919Y-3.5858
X14.9597Y-3.6771
X15.0004Y-3.7685
X14.4705Y-2.6071
X14.7276Y-2.7616
X16.11Y-3.8429
X16.1843Y-3.9099
X16.2587Y-3.9768
X16.911Y-3.3953
X17.0809Y-3.148
X16.135Y-5.0087
X16.435Y-5.0087
X15.9879Y-1.03
X16.2689Y-1.135
X14.5461Y-0.7756
X14.6938Y-1.0367
X16.5811Y-3.7365
X16.6724Y-3.6958
X16.7638Y-3.6551
X16.5998Y-3.4956
X16.8961Y-3.5425
X17.3112Y-2.876
X17.5049Y-2.6531
X17.6217Y-1.915
X17.9212Y-1.9307
X15.6268Y-3.9618
X15.7488Y-3.6877
X14.0484Y-4.6937
X14.2942Y-4.8658
X14.6933Y-2.5209
X14.9896Y-2.5678
X15.4579Y-1.9976
X15.7477Y-2.0753
X17.3661Y-3.7567
X17.638Y-3.8835
X13.7284Y-3.7288
X14.028Y-3.7445
X14.6983Y-4.0999
X14.7737Y-4.1655
X14.8492Y-4.2311
X16.2041Y-4.4596
X16.331Y-4.4058
X15.6024Y-4.1835
X15.7569Y-3.9263
X14.6795Y-3.2638
X14.7464Y-3.1895
X14.8134Y-3.1152
X15.2102Y-0.65
X15.5102Y-0.65
X15.1102Y-3.8998
X15.1571Y-3.6035
X16.8862Y-1.3496
X16.9316Y-1.2605
X16.977Y-1.1714
X16.568Y-1.6884
X16.6679Y-1.6936
X16.7677Y-1.6988
X15.2538Y-3.7463
X15.3429Y-3.7917
X15.432Y-3.8371
X16.8637Y-1.7412
X16.9528Y-1.7866
X17.0419Y-1.832
X15.1929Y-1.0429
X15.206Y-0.7432
X15.2928Y-1.0473
X15.3059Y-0.7476
X15.3927Y-1.0516
X15.4058Y-0.7519
X15.4926Y-1.056
X15.5057Y-0.7563
X14.4728Y-3.3664
X14.5547Y-3.4237
X14.6366Y-3.4811
X15.5161Y-3.9606
X15.5631Y-3.6643
X17.5166Y-1.0312
X17.7287Y-1.2433
X16.1822Y-1.9889
X16.3906Y-2.2047
X15.9279Y-3.4743
X16.2177Y-3.552
X15.9004Y-1.9741
X16.0224Y-1.7
X13.7957Y-1.2992
X13.9656Y-1.052
X14.3055Y-3.0437
X14.5796Y-3.1657
X17.6898Y-4.6047
X17.8553Y-4.3546
X17.6858Y-4.0472
X17.9711Y-3.9545
X14.6921Y-2.6315
X14.9662Y-2.7535
X15.9931Y-4.9035
X16.0244Y-4.6051
X16.9216Y-2.8971
X17.1787Y-3.0516
X17.7957Y-1.485
X18.0501Y-1.3261
X18.0028Y-2.2197
X18.0028Y-2.5197
X14.3606Y-4.178
X14.3972Y-3.8802
X15.336Y-1.2766
X15.4629Y-1.2227
X14.2033Y-0.7481
X14.2999Y-0.8464
X14.0225Y-2.6653
X14.1276Y-2.3843
X17.2933Y-3.0957
X17.5248Y-2.9048
X16.4669Y-2.726
X16.5446Y-2.4362
X16.2188Y-1.8219
X16.3079Y-1.8673
X16.397Y-1.9127
X16.641Y-1.2245
X16.6719Y-1.1294
X16.7028Y-1.0343
X15.7972Y-4.1768
X16.0096Y-3.9717
X15.3925Y-1.6823
X15.4668Y-1.7492
X15.5411Y-1.8161
X14.5919Y-1.2792
X14.7965Y-1.0598
X16.0355Y-4.3469
X16.1575Y-4.0728
X16.5815Y-4.9279
X16.5972Y-4.6283
X13.7345Y-3.4479
X13.7389Y-3.348
X13.7433Y-3.2481
X13.7476Y-3.1482
X14.0343Y-3.461
X14.0386Y-3.3611
X14.043Y-3.2612
X14.0473Y-3.1613
X16.3471Y-1.2809
X16.5913Y-1.4551
X17.4138Y-4.7366
X17.6259Y-4.5245
X16.6504Y-1.8906
X16.6911Y-1.9819
X16.7317Y-2.0733
X13.9177Y-4.4189
X14.1298Y-4.631
X17.3776Y-1.5992
X17.597Y-1.8038
X16.7264Y-4.9252
X16.7421Y-4.6256
X14.571Y-2.5122
X14.7409Y-2.265
X16.2736Y-3.7283
X16.3932Y-3.4532
X14.4786Y-1.3654
X14.7764Y-1.402
X16.3006Y-1.3911
X16.5508Y-1.5567
X16.9554Y-4.6235
X17.1031Y-4.8846
X14.7437Y-3.3264
X14.7751Y-3.6247
X13.6441Y-3.1402
X13.6441Y-3.4402
X15.2315Y-4.0591
X15.4817Y-4.2246
X16.7416Y-3.4017
X16.787Y-3.3126
X16.8324Y-3.2235
X16.9587Y-3.7713
X16.9639Y-3.6714
X16.9691Y-3.5715
X17.0963Y-3.9576
X17.162Y-3.8822
X17.2276Y-3.8067
X17.1047Y-1.1768
X17.1754Y-1.2475
X17.2461Y-1.3182
X17.3169Y-0.9646
X17.3169Y-1.3889
X17.3876Y-1.0354
X17.3876Y-1.4596
X17.4583Y-1.1061
X17.4583Y-1.5303
X17.529Y-1.1768
X17.529Y-1.601
X17.5997Y-1.2475
X17.6704Y-1.3182
X17.7411Y-1.3889
X14.428Y-1.8528
X14.4936Y-1.7773
X14.5592Y-1.7018
X14.7392Y-1.7923
X14.7846Y-1.7031
X14.83Y-1.614
X14.818Y-2.4324
X14.8634Y-2.3433
X14.9088Y-2.2542
X17.5228Y-3.2732
X17.6279Y-2.9922
X14.7584Y-2.12
X15.0547Y-2.1669
X16.9736Y-2.6518
X17.1787Y-2.8642
X15.2598Y-3.4567
X15.4682Y-3.6725
X15.9732Y-2.161
X16.0732Y-2.1593
X16.1732Y-2.1575
X15.0284Y-1.7829
X15.3268Y-1.7516
X14.0519Y-3.858
X14.2713Y-4.0626
X17.6244Y-2.0598
X17.924Y-2.0755
X13.9093Y-4.2705
X13.98Y-4.3413
X14.0507Y-4.412
X14.1214Y-4.0584
X14.1214Y-4.4827
X14.1921Y-4.1291
X14.1921Y-4.5534
X14.2628Y-4.1998
X14.2628Y-4.6241
X14.3335Y-4.2705
X14.3335Y-4.6948
X14.4042Y-4.3413
X14.475Y-4.412
X14.5457Y-4.4827
X16.7508Y-1.2894
X16.8776Y-1.0175
X17.0692Y-2.5
X17.3433Y-2.622
X17.6012Y-2.6524
X17.8995Y-2.6837
X17.202Y-3.5972
X17.3762Y-3.353
X13.741Y-4.4527
X13.8393Y-4.3561
X16.8709Y-2.0374
X16.9022Y-2.3358
X15.2587Y-3.9181
X15.5059Y-4.088
X14.3186Y-0.6035
X14.4776Y-0.8579
X14.9257Y-3.2831
X15.2008Y-3.4028
X15.5892Y-1.1502
X15.8546Y-1.2796
X15.4776Y-3.5015
X15.5776Y-3.4998
X15.6776Y-3.498
X16.1664Y-1.4395
X16.4165Y-1.6051
X16.448Y-2.2598
X16.7231Y-2.3795
X16.3558Y-3.8005
X16.4214Y-3.7251
X16.487Y-3.6496
X14.9496Y-4.6268
X14.9805Y-4.5317
X15.0114Y-4.4366
X14.4465Y-2.8
X14.6516Y-3.0124
X17.0541Y-4.5314
X17.1248Y-4.4606
X17.1955Y-4.3899
X17.2662Y-4.3192
X17.2662Y-4.7435
X17.3369Y-4.2485
X17.3369Y-4.6728
X17.4076Y-4.1778
X17.4076Y-4.6021
X17.4783Y-4.1071
X17.4783Y-4.5314
X17.5491Y-4.4606
X17.6198Y-4.3899
X17.6905Y-4.3192
X15.1536Y-2.478
X15.1553Y-2.578
X15.1571Y-2.678
X16.0861Y-1.9975
X16.1331Y-1.7012
X16.8255Y-4.0454
X16.8709Y-3.9563
X16.9163Y-3.8672
X16.1439Y-4.9059
X16.157Y-4.6062
X16.2438Y-4.9103
X16.2569Y-4.6106
X16.3437Y-4.9146
X16.3568Y-4.6149
X16.4436Y-4.919
X16.4567Y-4.6193
X15.916Y-0.7688
X16.1508Y-0.9555
X17.3973Y-2.3369
X17.4512Y-2.4638
X17.0898Y-1.9382
X17.1485Y-2.0191
X17.2073Y-2.1
X15.4291Y-2.1118
X15.7189Y-2.1895
X14.4344Y-2.488
X14.6Y-2.2378
X14.9366Y-1.5657
X15.0175Y-1.507
X15.0984Y-1.4482
X15.0972Y-4.1075
X15.3474Y-4.2731
X17.0161Y-2.1768
X17.0981Y-2.2341
X17.18Y-2.2915
X13.7712Y-4.1119
X14.0323Y-3.9642
X15.1752Y-1.6394
X15.2326Y-1.5575
X15.2899Y-1.4755
X15.5587Y-4.3004
X15.7495Y-4.5319
X14.7709Y-4.6439
X14.8976Y-4.372
X17.052Y-3.4224
X17.2175Y-3.1723
X14.1467Y-2.9967
X14.3404Y-2.7738
X16.4492Y-3.3937
X16.665Y-3.1853
X15.639Y-1.0453
X15.7705Y-0.7756
X16.4893Y-2.0565
X16.5362Y-1.7602
X16.3228Y-3.9079
X16.6212Y-3.8765
X15.7919Y-4.3197
X16.0148Y-4.5134
X13.6769Y-1.7069
X13.9622Y-1.6142
X14.6105Y-3.829
X14.6996Y-3.8744
X14.7887Y-3.9198
X14.6085Y-4.6918
X14.7012Y-4.9772
X17.3464Y-1.7983
X17.4283Y-1.8556
X17.5102Y-1.913
X16.683Y-2.9051
X16.9571Y-3.0272
X16.4937Y-0.9083
X16.7622Y-0.7744
X14.8866Y-2.0008
X14.978Y-1.9601
X15.0693Y-1.9194
X14.6789Y-4.4841
X14.7243Y-4.395
X14.7697Y-4.3059
X14.0323Y-1.9531
X14.1274Y-1.9841
X14.2225Y-2.015
X14.9893Y-3.1953
X15.0669Y-2.9055
X15.052Y-1.0319
X15.0677Y-0.7323
X16.1421Y-1.5761
X16.3894Y-1.7461
X15.2548Y-2.2078
X15.3744Y-1.9327
T3
X14.1189Y-3.5799
X14.2189Y-3.5799
X16.5768Y-4.437
X16.5768Y-4.537
X17.4291Y-2.0756
X17.5291Y-2.0756
X15.0756Y-1.1268
X15.0756Y-1.2268
T4
X16.2758Y-2.2506
X16.3454Y-2.3202
X16.415Y-2.3898
X15.239Y-3.2646
X15.3086Y-3.3342
X15.3782Y-3.4038
X15.2502Y-2.3813
X15.3198Y-2.3117
X15.3894Y-2.2421
X16.2626Y-3.4185
X16.3322Y-3.3489
X16.4018Y-3.2793
T5
X15.7091Y-1.8024
X15.8091Y-1.8024
T6
X16.0029Y-2.3953
X16.2702Y-2.6626
X15.3837Y-2.9917
X15.651Y-3.259
X15.3949Y-2.6541
X15.6622Y-2.3869
X15.9898Y-3.2737
X16.257Y-3.0065
T7
X15.9466Y-0.6065
X16.1309Y-0.6226
X16.3152Y-0.6388
X15.4722Y-4.8693
X15.6565Y-4.8854
X15.8408Y-4.9016
X13.7585Y-2.8227
X13.7746Y-2.6384
X13.7907Y-2.4541
X17.8608Y-3.1957
X17.877Y-3.0114
X17.8931Y-2.8271
T8
X18.3276Y-2.987
X13.4307Y-0.5909
X14.1083Y-0.2862
X13.3169Y-3.6594
X14.561Y-0.2862
X16.7657Y-0.2862
X13.6555Y-0.2862
X17.2185Y-0.2862
X16.178Y-5.4543
X18.1669Y-5.1327
X13.3169Y-2.7539
X18.3276Y-3.4398
X15.0138Y-0.2862
X15.9193Y-0.2862
X14.426Y-5.4543
X13.3169Y-3.2067
X13.9732Y-5.4543
X16.313Y-0.2862
X18.0126Y-0.4744
X13.6126Y-5.2921
X13.3169Y-5.0177
X18.3276Y-4.3453
X18.3276Y-2.0815
X18.3276Y-1.6287
X17.5362Y-5.4543
X13.3169Y-4.1122
X15.7252Y-5.4543
X18.3276Y-3.8925
X13.3169Y-1.8484
X17.989Y-5.4543
X18.3276Y-2.5343
X18.3276Y-0.7232
X13.3169Y-2.3012
X14.8787Y-5.4543
X13.3169Y-0.9429
X17.0835Y-5.4543
X17.6713Y-0.2862
X15.3315Y-5.4543
X16.6307Y-5.4543
X18.3276Y-1.176
X15.4665Y-0.2862
X18.3276Y-4.798
X13.3169Y-1.3957
X13.3169Y-4.565
T0
M30
